<svg version="1.2" baseProfile="tiny-ps" xmlns="http://www.w3.org/2000/svg" viewBox="0 0 587 586" width="250" height="250">
	<title>sp_arrow-svg</title>
	<style>
		tspan { white-space:pre }
		.shp0 { fill: #000000 } 
	</style>
	<g id="Layer">
		<path id="Layer" class="shp0" d="M521.68 421.83C409.77 402.03 292.58 354.62 203.13 284.47C149.06 241.73 107 185.07 72.51 125.66C56.15 95.75 37.51 66.67 23.98 35.29C19.28 26.82 15.58 18.23 15.76 8.24C15.61 3.56 9.74 1.2 6.16 4.38C-5.06 16.79 9.72 28.08 11.75 40.54C12.55 46.31 17.37 49 20.28 53.67C25.02 60.49 28.13 68.29 32.55 75.08C50.64 106.24 67.7 139.17 87.84 169.44C96.69 179.01 102.8 190.03 110.18 200.35C115.75 210.36 125.02 218.19 132.2 226.3C131.68 228.06 133.15 228.64 133.76 229.53C141.49 238.23 148.9 247.31 157.64 255.06C160.93 257.79 162.13 262.13 166.23 264.38C170.51 267.4 172.7 272.95 178.37 273.51C183.34 276.88 184.55 284.4 190.88 286.96C198.55 291.36 204.16 297.98 211.86 302.48C237.12 321.02 265.02 337.22 292.29 352.43C339.05 377.56 389.72 394.61 439.32 412.42C457.55 412.26 550.91 451.46 550.81 425.84C551.1 420.85 545.61 421.49 542.5 419.12C536.06 414.24 529.51 409.37 523.21 404.24C508.86 390.8 492.88 379.68 480.81 364.07C485.83 362.72 488.8 367.17 492.68 369.36C498.45 372.15 503.79 374.42 508.2 379.36C513.72 384.25 522.25 383.85 526.09 390.36C533.01 393.7 538.74 400.39 546.29 402.46C586.06 427.03 571.18 427.45 538.32 445.72C493.22 471.92 445.82 503.35 414.92 546.82C410.72 553.11 390.34 577.97 397.51 582.9C431.18 524.13 491.83 475.72 554.8 446.47C587.7 433.32 598.58 418.53 561.45 399.21C543.17 390.15 526.61 378.24 508.93 368.22C498.49 364.24 449.43 317.39 448.11 341.69C459.08 354.26 470.24 367.2 481.85 379.43C483.11 383.14 488.31 383.9 490.58 386.67C491.3 389.37 493.38 390.85 495.41 392.54C499.84 398.91 524.77 414.66 521.68 421.83Z" />
	</g>
</svg>