<?xml version="1.0" encoding="utf-8"?>
<!-- Generator: Adobe Illustrator 25.4.1, SVG Export Plug-In . SVG Version: 6.00 Build 0)  -->
<svg version="1.1" id="Layer_1" xmlns="http://www.w3.org/2000/svg" xmlns:xlink="http://www.w3.org/1999/xlink" x="0px" y="0px"
	 viewBox="0 0 941.5 908.6" style="enable-background:new 0 0 941.5 908.6;" xml:space="preserve">
<g>
	<path d="M91.7,398.7c1-0.9,2-2,3.1-2.8c1.9-1.4,2.7-3.1,1.7-5.6c-2.9-1.7-6.2-0.2-9.6-1.2c-0.2-0.7-0.4-1.6-0.7-2.4
		c0.3-0.2,0.5-0.6,0.7-0.5c1.4,0.1,2.8,0.4,4.3,0.5c1.6,0.2,3.1,0.2,4.7,0.4c1.2-3.7,0.4-6.9,0.2-10.4c-2.5-1.7-5.2-2.3-8.2-2.4
		c-6.1-0.1-12.1-0.5-18.2-0.4c-9.1,0.2-18.2,0.7-27.3,1.2c-1.1,0.1-2.1,0.6-3.2,0.9c-1.8,0.5-3.6,1.4-5.5,1.5
		c-5.4,0.1-10.9,0.4-16-1.9c-1.7-0.8-3.6-1-5.8-1.6c0.8-1.3,1.4-2.3,2.2-3.6c5.1,1.4,10.2,0.8,15.3,0.6c9.4-0.3,18.9-0.1,28.9-0.1
		c-1.4,0.4-2.4,0.7-3.3,0.9c4.8,0.8,9.5,0.8,14.3,0.2c6.8-0.8,13.7-0.9,20.5-1.2c1.9-0.1,3.8,0.1,6.1,0.2c1.1-9.1,0.7-18.1,1.8-27.7
		c-2.3,1.1-3.9,1.9-6.5,3.1c1.9-2.4,3.7-3.4,4.7-5.5c0.9-2,1.5-3.8,1.5-5.8c0.2-12.6,0.4-25.3,0.6-37.9c0-1.4-0.2-2.8-0.3-4.4
		c-3.8,0.5-6.4,2.6-9.4,4c-3,1.4-5.9,3.1-8.9,4.6c-2.9,1.5-5.9,2.9-9.3,3.7c1.4-0.8,2.8-1.7,4.3-2.5c6-3,12-6.1,18-9
		c3.7-1.8,5.6-4.5,5.4-8.6c-0.1-3.5,0.1-7-0.1-10.5c-0.1-3-0.6-3.6-3.6-4c-3.3-0.4-6.7-0.7-10-0.8c-8.3-0.3-16.6-0.7-24.9-0.7
		c-8.6,0-17.3,0.2-25.9,0.6c-5.1,0.2-10.1,1.2-15.2,1.5c-5.1,0.3-10.1,1.7-15.2,0.6c-1.2-0.2-2.6-0.3-3.3-2c0.8-2,2.3-3.4,4.5-3.6
		c4.8-0.4,9.6-0.7,14.3-1c0.3,0,0.7,0,0.9,0.1c3.1,2.2,6.5,1,9.7,0.6c3.8-0.5,7.6-0.5,11.4,0.2c4.7,0.8,9.4,1.2,14.2-0.5
		c2.2-0.7,4.7-0.4,7.1-0.4c2.7-0.1,5.4,0,8.3,0c1.4-3.4,2.5-6.9,6.4-8l-0.1-0.1c-1,1.2-2.1,2.4-3.1,3.7c-1.7,2.2-1.1,3.8,1.7,4.6
		c0.9,0.3,1.9,0.5,2.8,0.4c5.3-0.2,10.5-0.1,15.7,1.1c1,0.2,2.2,0,3.7,0c1-4.4,0.4-8.7,0.6-13c0.2-4.3,0.3-8.6-0.2-12.8
		c-4.4-0.3-4.4-0.3-5.6-2.1c1.3-1.8,3.7-1.5,5.6-2.9c0.1-1.4,0.3-3,0.3-4.5c0.8-18.7,0.2-37.4-0.3-56.1c-0.2-6.6-0.5-13.1-0.7-19.7
		c0-1.1-0.2-2.2-0.3-3.3c-0.1-1.4-0.9-2.4-2.3-2.7c-3.6-0.8-7.2-1.7-10.8-2.1c-4.6-0.5-9.2-1-13.7-2.2c-2.4-0.6-5.1-0.7-7.6-0.5
		c-6.6,0.5-13.1-0.7-19.5-1.7c-4.3-0.7-8.4-1.8-12.7-2.5c-1.7-0.3-3.5-0.4-5.2,0c-4.3,1-8-0.6-12.3-1.9c1-1.6,1.7-2.8,2.4-3.9
		c3.2-0.6,6.2,0.3,9.1,0.8c6.3,1.2,12.5,2.4,18.8,3.6c3.1,0.6,6.3,1.1,9.4,1.9c5,1.3,10.1,1.8,15.2,1.6c9.2-0.2,18.1,1.5,27.1,2.7
		c2.6,0.3,3.6,1.7,4,3.9c0.2,1.3,0.4,2.5,0.5,3.8c0.8,10.2,1.4,20.4,1.3,30.7c-0.1,8.5,0.3,16.9,0.3,25.4c0,6.5-0.2,13.1-0.3,19.7
		c0,2.1,0,4.1,0,6.3c1,0.3,1.7,0.7,2.5,0.7c9.9-0.3,19.8,0.1,29.7,1.5c2,0.3,4.3,0.5,6.2-0.1c3.9-1.2,7.8-1.5,11.8-1.6
		c0.6,0,1.2-0.3,1.7-0.4c1.5-1.6,1-3.5,1-5.2c-0.2-13.8-0.6-27.5-0.7-41.3c-0.1-26.1-0.2-52.1,0-78.2c0.1-10.4,0.9-20.7,1.4-31.1
		c0.1-2.9,0-5.8,0.2-8.6c0.8-11.2,1.6-22.3,2.5-33.5c0.4-4.8,0.3-9.6-0.1-14.7c-4.2-1.2-8.2-3-12.5-3.1c-9.3-0.4-18.4-2-27.6-3.5
		c-12.5-1.9-24.9-4-37.4-6c-3.2-0.5-6.4-0.7-9.5-1.1c-1.7-0.2-3.4-0.7-5.4-1c1.2-1.9,2.7-2.4,4.3-2.3C70.5,6.4,72,6.6,73.3,7
		c4,1.1,8.1,1.8,12.3,2.1c3.6,0.3,7.2,1.2,10.8,1.9c5,1,10,2.2,15.2,1.8c1.1-0.1,2.3,0,3.4,0.2c6.8,1.1,13.5,2.2,20.3,3.3
		c6.8,1.1,13.6,2.1,20.4,3c1.1,0.2,2.2-0.2,3.3-0.1c1.1,0.1,2.3,0.1,3.2,0.7c2,1.4,4.1,1.6,6.4,1.8c4.6,0.4,9.1,1,14.3,2.4
		c-1.2,0.7-1.8,1.3-2.4,1.3c-2.5,0.1-5.1,0.1-7.6-0.1c-1.7-0.2-3.4-0.9-5.1-1.1c-1.7-0.2-3.4,0-5.5,0c-0.3,2.1-0.6,3.9-0.7,5.8
		c-0.5,7-0.9,14-1.3,21.1c0,0.6,0.1,1.4-0.2,1.9c-2.1,3.7-1.4,7.8-1.5,11.7c-0.2,8.8,0,17.6-1.1,26.3c-0.2,1.4,0,2.9-0.1,4.3
		c-0.3,3.8-0.7,7.6-1,11.4c-0.2,1.9-0.3,3.8-0.3,5.7c0.1,9.6,0.4,19.2,0.4,28.8c0,7.8-0.4,15.7-0.6,23.5c0,1.3-0.1,2.6-0.1,3.8
		c0.3,14.2,0.6,28.5,0.8,42.7c0.1,6.2-0.1,12.5-0.1,18.7c0,1,0,1.9,0.1,2.9c0.3,3.3,1.3,4.3,4.7,3.8c8.4-1.4,16.9-0.9,25.3-0.7
		c2.8,0.1,5.7,0.6,8.5,1.3c1.9,0.4,3.6,0.3,5.1-0.5c2.7-1.4,5.6-1.4,8.4-1.3c3,0.1,6.1,0.3,9.1,0.5c1.6,0.1,3.2,0.4,4.8,0.2
		c10-0.9,19.7,0.6,29.3,3.5c2.1,0.6,4.4,0.7,6.6,1c1.7,0.2,3.6,0.2,5.2,0.7c1.6,0.5,3.3,1.2,4.7,2.2c1.7,1.3,1.1,3.3-0.9,4
		c-0.6,0.2-1.3,0.3-1.9,0.3c-0.9,0-1.9-0.1-3.1-0.3c-0.7-3.4-3.5-4.1-6.4-4.6c-13.5-2.7-27.2-3.9-41-3.8c-10.2,0.1-20.5-0.1-30.7,0
		c-8.2,0.1-16.3,0.4-24.5,0.7c-0.8,0-1.6,0.2-2.2,0.4c-1.2,1.5-0.8,3.2-0.8,4.8c0,7.2,0.4,14.4,0.2,21.6
		c-0.6,20.6-1.4,41.2-2.1,61.8c-0.3,8.8-0.6,17.6-0.7,26.4c-0.3,21.6-0.4,43.2-0.6,64.8c-0.1,12.1,0,24.3-0.7,36.4
		c-0.9,14.7-2.6,29.3-3.9,43.9c-1.3,14.5-2.7,29-3.8,43.5c-0.4,5.7-0.1,11.5-0.1,17.3c0,0.6,0.3,1.2,0.4,2.1
		c2.4,0.7,4.9,1.5,5.5,4.8c4.7-0.3,9.3,0.8,13.9-0.2c1.1-0.2,2.2-0.4,3.3-0.5c8-0.4,15.9-0.8,23.9-1.3c8-0.4,16-0.9,23.9-1.3
		c2.2-0.1,4.5,0,6.6,0.7c2.1,0.6,4,0.7,6.1,0.5c3.5-0.3,7-0.6,10.5-0.9c0.5,0,1-0.1,1.4-0.1c4.9-0.6,5.7-1.6,5.3-6.6
		c-0.3-4.3-0.7-8.6-1-12.9c-2.8-1-5.6-0.8-8.4,0.1c-2.9,0.9-5.8,1.7-8.8,2.5c-0.9,0.2-1.8,0.2-2.8,0.3c0.4-3.4,0.5-3.6,2.5-3.9
		c1.1-0.2,2.2-0.2,3.3-0.3c4.6-0.2,8.7-1.7,12.8-3.6c1.8-0.8,2.4-2,2.5-3.7c0.1-1.3-0.1-2.6-0.1-3.8c-0.3-5.5,0.1-10.9,2.1-16.1
		c2.5-6.7,6.6-12,13.9-14.2c4.3-1.3,6.2-0.8,8.2,3.3c1.2,2.6,2.2,5.3,2.9,8.1c0.5,1.9,0.1,3.8-2.3,5.1c-0.3-0.8-0.9-1.5-0.8-2
		c0.5-3.4-1.1-6.2-2.5-9.1c-1.2-2.5-2.4-2.9-5.1-1.8c-5.2,2-8.9,5.8-10.8,10.9c-1.5,4.1-2.8,8.6-3,13c-0.3,9.6,0.2,19.2,0.4,28.8
		c0,0.9,0.3,1.9,0.5,3.1c1.1,0.1,2.2,0.4,3.2,0.4c9.6-0.3,19.2,0.1,28.7-1c12.1-1.4,24.3-0.9,36.4-2.1c8.9-0.9,17.9-0.6,26.8-0.9
		c1.1,0,2.3,0.1,3.3-0.2c7.2-2.2,14.6-1.5,21.9-2.1c5.6-0.4,11.2-0.3,16.8-0.5c3-0.1,6.1-0.4,9.1-0.7c4.1-0.3,8.3-0.6,12.4-0.9
		c9.7-0.7,19.5-1.4,29.2-2c8.1-0.5,16.3-0.9,24.4-1.3c2.9-0.2,5.7-0.4,8.6-0.5c2.1-0.1,4.2-0.2,6.2-0.2c5.4,0,10.9,0.2,16.3,0.2
		c1.1,0,2.2-0.2,3.3-0.4c6.5-1.2,12.9-1.9,19.5-1.8c3.2,0,6.4-0.5,9.6-0.7c3.2-0.2,6.4-0.3,9.6-0.5c13.4-0.9,26.8-2.1,40.2-2.5
		c13.1-0.4,26.2-1.5,39.3-2.1c11.3-0.5,22.7-0.6,34-1.1c3.8-0.1,7.6-0.8,11.5-1c5.9-0.4,11.8-0.7,17.7-1.1c0.8,0,1.6-0.2,2.3-0.3
		c0.3-0.5,0.6-0.8,0.9-1.2c1.4-2.4,2.6-3.2,4.9-2.3c2.5,1,4.9,1.1,7.5,1.1c3.6,0,7.1,0.9,9.6,3.6c3.8,3.9,8.8,5.8,13.7,7.7
		c6.7,2.5,13.7,4.3,20.4,6.9c6.5,2.5,12.9,5.7,19.3,8.5c5.3,2.3,10.5,4.7,15.8,6.9c1.5,0.6,2.1,1.3,1.9,2.9c-1.1,1.1-2.4,1.4-3.9,1
		c-1.5-0.4-3.2-0.7-4.5-1.6c-5.4-3.6-11.5-5.5-17.3-8.3c-4.3-2.1-8.5-4.5-12.7-6.7c-1.1-0.6-2.2-1.4-3.4-1.7c-6-1.8-12-3.4-17.9-5.2
		c-3.1-0.9-6.1-1.9-9.2-2.8c-5.8-1.8-11.6-3.7-17.4-5.4c-1.2-0.4-2.7-1-3.4,1.2c-0.2,0.7-2.1,1.3-3.3,1.4
		c-5.4,0.5-10.8,0.8-16.3,1.1c-9.3,0.4-18.5,0.7-27.8,1.1c-0.5,0-1,0-1.4,0.1c-13.9,2.2-28.1,2-42.1,3.2
		c-10.7,0.9-21.4,1.1-32.1,1.6c-7.3,0.4-14.7,0.9-22,1.2c-4,0.2-8,0.1-12,0.4c-5.1,0.4-10.2,1-15.3,1.4c-1.3,0.1-2.6,0.4-3.8,0.3
		c-9.3-0.4-18.5,0.9-27.7,1.4c-12.3,0.7-24.6,1.1-36.9,1.7c-4,0.2-8,0.5-12,0.7c-10.5,0.7-21,1.5-31.6,2.2c-2.7,0.2-5.4-0.1-8.1,0.1
		c-4.8,0.3-9.5,0.8-14.3,1.3c-2.1,0.2-4.1,0.3-6.2,0.4c-4.9,0.3-9.9,0.7-14.8,0.8c-4.6,0.1-9.3,0-13.9,0.1c-3.2,0-3.2,0.1-6,1.6
		c1,1.3,2,2.5,2.9,3.8c1.7,2.5,0.7,5.1-2.3,5.2c-9.4,0.3-18.6,3.3-28.1,2.6c-2.7-0.2-5.4,0.5-8.1,0.6c-14.9,0.7-29.7,1.4-44.6,1.9
		c-14.7,0.5-29.4,0.7-44.1,1.2c-9.9,0.3-19.8,0.7-29.7,2.1c-3.1,0.5-6.4,0.1-9.6,0.4c-4.3,0.3-8.6,0.8-12.9,1.3
		c-2.6,0.3-5.1,0-6.9-2.3c-0.9,2.9-1.1,4.7-0.2,7.7c0.8,2.8,1.8,5.4,2.8,8.2c0.3,1,0.3,1-1.1,3c-1.6-1.1-2.7-2.6-3.3-4.4
		c-0.9-3.2-1.7-6.5-2.2-9.8c-0.6-3.4-0.9-6.9-1.3-10.8c-1.4-0.1-2.6-0.2-3.8-0.2c-4,0.2-8,0.4-12,0.7c-8.6,0.5-17.2,1.1-25.8,1.6
		c-6.5,0.4-13.1,0.5-19.7,0.8c-2.7,0.1-5.4,0.4-8.1,0.5c-4.3,0.2-8.6,0.4-12.9,0.6c-3,0.1-6.1,0.1-9.1,0.3
		c-5.7,0.3-11.5,0.8-17.2,1.2c-7.7,0.5-15.3,1.1-23,1.6c-1.1,0.1-2.3,0.2-3.3,0c-1.4-0.3-2.2-1.4-2.2-2.8c0-0.8,0.8-1.7,1.4-2.2
		c1.2-0.8,2.4-1.4,4-1c3.7,0.9,7.3,0.1,10.8-1.2c2.2-0.8,4.3-0.9,6.6-1c3.5-0.1,7-0.6,10.5-0.8c1.9-0.1,3.9-0.3,5.7,0
		c2.6,0.4,5.1,0.2,7.6-0.4c0.8-0.2,1.6-0.5,2.3-0.5c8.6-0.4,17.2-0.8,25.9-1.2c3.5-0.2,7-0.1,10.5-0.4c4.5-0.3,8.9-0.8,13.4-1.2
		c0.4,0,0.8,0.3,1.6,0.5c-1.1,0.4-1.8,0.7-2.7,1c0.2,0.2,0.5,0.5,0.6,0.5c2.5-0.2,5.1-0.6,7.6-0.8c6.4-0.6,12.7-1.2,19.1-1.8
		c0.8-0.1,1.6-0.1,2.4-0.2c2.2-0.3,3.5-1.5,3.8-3.7c0.3-2.4,0.7-4.8,0.7-7.1c0-4.1-0.5-8.3-0.5-12.4c0-4.9,0.3-9.9,0.5-14.8
		c0.1-1.4,0.5-2.9,0.5-4.3c-0.2-6.4,1.1-12.7,2.1-19c0.9-5.5,1-11.1,1.5-16.7c1-12.1,2-24.2,3-36.3c0.7-9.4,0.9-18.8,0.9-28.2
		c0-15,0.2-30.1,0.3-45.1c0-6.6-0.2-13.1,0-19.7c0.3-11.3,1-22.7,1.4-34c0.2-6.2,0.3-12.5,0.4-18.7c0.3-11.7,0.8-23.3,1-35
		c0.2-10.1,0-20.2-0.1-30.2c0-0.9-0.2-1.9-0.3-3.2c-1.2-0.2-2.4-0.5-3.6-0.5c-13.6,0-27.2,0-40.8,0c-1.6,0-3.2,0-4.8,0.2
		c-2.8,0.3-3.4,0.8-3.5,3.5c-0.1,2.6-0.1,5.1-0.1,7.7c0,4.2,0.1,8.3,0.1,12.5c0,2.5,0.4,4.8,2.4,6.5c-0.8,1.2-1.8,2.3-2.2,3.5
		c-0.4,1.3-0.3,2.8-0.3,4.3c0,16.3,0,32.6-0.2,48.9c-0.2,13.4-0.6,26.9-1.1,40.3c-0.1,2.6,0,4.9,1.8,7.2c2.3,3,2.1,5.8-0.6,8.5
		c-1.3,1.3-1.5,2.5-1.4,4.2c0.2,2.3-0.1,4.7-0.2,7.1c0,7.2-0.1,14.4,0,21.6c0,4.8,0.1,9.6,0.3,14.4c0,1.4,0.5,2.8,0.8,4.2
		c0.1,0.8,0.6,1.8,0.2,2.3c-1.5,2.6-0.9,5.3-0.8,8c0.4,9-0.9,17.9-1.4,26.8c-0.3,5.7-0.4,11.5-0.6,17.3c0,1.6,0.3,3,1.5,4.3
		c3,3.4,2.3,5-2.3,6.6c-0.3-0.1-0.7-0.2-0.8-0.4c-1.1-2.8-3.2-3.6-6.1-3.4c-4,0.3-8,0.4-12,0.6c-2.2,0.1-4.5,0.3-6.7,0.3
		c-12,0.3-24-0.1-35.9-1c-3.8-0.3-7.7-0.4-11.3-2c-1.5-0.7-1.9-1.6-1-3c2.1-0.5,1.8,2,3.6,2.6c1.6-0.1,3.7-0.2,5.7-0.5
		c2.9-0.6,5.7-0.3,8.6,0.1c3.5,0.4,7,0.4,10.5,0.7c5.7,0.3,11.5,0.5,17.2,1.1c3.3,0.3,6.5,0.2,9.5-0.8c3.6-1.2,7.1-1.4,10.9-1
		c5,0.6,6-0.3,6.3-5.2c0.2-2.6,0-5.1,0.1-7.7c0.2-4.5,0.5-8.9,0.7-13.4c0.1-1.6,0.4-3.2-0.8-4.9c-1.7,0.9-3.4,1.8-5.7,3
		c2.1-2.9,5.4-3.8,6.7-7.2c-5.4-1.1-9.9,2-14.7,2.5c4.5-2.6,9.5-3.5,14.9-5c1-4.4,0.3-9,0.7-13.6c-2.5-0.5-3.7,1.5-5.5,2l0.1,0.1
		c1.2-1.2,2.4-2.5,3.7-3.6c1.6-1.3,2.1-2.7,1.4-4.8c-2.6-1.6-5.2,0-7.7,0.4c-2.4,0.3-4.8,1.2-7.4,1.2c2.4-0.7,4.8-1.5,7.2-2.1
		c2.4-0.6,4.9-1.1,7.5-1.7c1.3-4.1,0-8.1,0.2-12c0.3-4,0-8,0-11.9c0-3.9,0.7-7.9-0.2-11.7C94.3,396.9,93.1,398.3,91.7,398.7
		L91.7,398.7z M334,564.9c-1.5-0.2-2.4-0.2-3.3-0.4c-4.7-0.7-9.2,0.5-13.8,0.8c-12,0.9-23.9,2-35.9,1.8c-1,0-1.9,0.1-2.9,0.2
		c-4,0.3-7.9,0.9-11.9,1c-8.1,0.3-16.2,1.3-24.3,1.4c-9.9,0.1-19.8,0.9-29.7,1.3c-1.3,0.1-2.6,0.1-3.8,0.2
		c-9.7,0.6-19.5,1.2-29.2,1.8c-6.7,0.4-13.4,0.9-20.1,1.4c-1.2,0.1-2.3,0.6-3.4,1c0.9,5.4,1.6,5.8,6.2,5c3.8-0.7,7.6-1,11.4-1.3
		c2.7-0.2,5.5,0.2,8.1-0.3c7.8-1.4,15.6-1.2,23.4-0.8c2.5,0.1,5.1-0.2,7.6-0.8c3.8-1,7.5-1.1,11.4-0.9c3.2,0.2,6.4,0.1,9.6,0
		c5.7-0.3,11.5-0.5,17.2,0.3c4.9,0.7,9.8,1.1,14.6-1c3.4-1.6,7.2-1.5,10.9-0.9c2.9,0.5,5.7,0.1,8.6-0.3c7.1-1.1,14.2-1.6,21.3,0.4
		c2.8,0.8,6.3,1.9,8.7-1.7c0.3-0.4,1.1-0.6,1.7-0.6c4.1-0.4,8.3-0.9,12.4-0.9c2.2,0,4.1-0.3,5.7-2.2
		C334.3,568.1,334.2,566.7,334,564.9z M79.7,572.8c0.6,0.2,0.8,0.3,0.9,0.3c0.6,0,1.2,0,1.8-0.1c0-0.2-0.1-0.5-0.1-0.5
		c-0.6-0.1-1.2-0.1-1.8-0.1C80.3,572.4,80.2,572.5,79.7,572.8z"/>
	<path d="M291.2,697.2c-2.7-1.6-5.8-1.8-8.8-1.9c-8.8-0.2-17.5-0.2-26.3-0.2c-1.8,0-3.5,0.1-5.3,0.1l0.1,0.1
		c1.4-0.3,2.7-0.8,4.1-0.9c3-0.2,6.1-0.1,9.1-0.2c8-0.1,16-0.3,24-0.2c5.4,0.1,10.8,0.6,16.2,0.8c1.2,0.1,2.4-0.2,3.9-0.3
		c0.6-5.1,0.1-9.8,0.4-14.9c-1.4,0.3-2.3,0.3-3.1,0.6c-4.7,2-9.4,4-14.1,6.1c-1.6,0.7-3.1,1.5-5.2,1.1c-0.3-3,2-3.8,3.8-4.9
		c1.7-1.1,3.6-1.9,5.5-2.9c-0.5-0.4-0.7-0.7-0.9-0.7c-14,0.8-28,2.7-41.8,5.1c-8.2,1.4-16.4,3-24.6,3.8c-4.6,0.5-9.2,1-13.7,2
		c-3.9,0.9-7.7,2.2-11.6,2.7c-12.5,1.8-24.8,4.5-37.3,6c-8.2,1-16.5,2-24.7,2.9c-4.1,0.4-8.3,0.6-12.4,0.9
		c-8.1,0.7-16.2,1.5-24.3,2.3c-4.8,0.5-9.5,1.1-14.3,1.4c-6.5,0.4-13,0.6-19.6,0.2c-4.4-0.3-8.9,0.4-13.3,1
		c-5.4,0.7-10.7,1.7-16.1,2.7c-1.4,0.2-2.6,0.2-3.2-1.3c-0.5-1.6,0.6-3.1,2.3-3.5c0.5-0.1,1-0.1,1.4-0.1c6.1-0.2,12.1-0.3,18.2-0.7
		c6.4-0.4,12.7-1.2,19.1-1.7c2.7-0.2,5.4,0.1,8.1,0c2.9-0.1,5.7-0.5,8.6-0.8c3.3-0.3,6.7-0.5,10-0.6c4-0.2,8-0.2,12-0.3
		c1,0,1.9-0.1,2.9-0.3c8.2-2.1,16.7-2.5,25.1-3c4-0.2,7.9-1.1,11.9-1.6c1.7-0.2,3.5-0.2,5.2-0.2c5.8,0.1,11.5-1.1,17-2.8
		c4-1.2,8-2.1,12.2-2.2c1.8-0.1,3.5-0.3,5.2-0.7c14.5-2.6,28.9-5.4,43.4-8c3.3-0.6,6.7-0.8,10-1.3c3.8-0.6,7.5-1.4,11.3-1.9
		c4.8-0.6,9.5-1.1,14.3-1.4c5.4-0.4,10.8-1,16.1-2.2c2.2-0.5,4.5-0.4,6.7-0.4c1.9-0.1,3.8,0,5.8,0c4.3-0.2,5.8-1.7,5.5-5.9
		c-0.2-3.5-0.7-7-1-10.5c-0.1-1.4-0.2-2.9-0.2-4.3c0-7-0.1-14.1-0.1-21.1c0-4.5,0.1-9,0.2-13.4c0.1-3.8,0-7.6-0.8-11.6
		c-1-0.2-1.9-0.5-2.8-0.5c-7.8,0.3-15.6,0.2-23.4,1.3c-5.5,0.8-11.2,0.9-16.7,1.2c-7.7,0.4-15.3,0.8-23,1.2c-0.6,0-1.3,0.1-1.9,0
		c-8-0.9-15.9,0.7-23.8,1.6c-0.8,0.1-1.6,0.2-2.4,0.2c-14.7,0.5-29.3,2.4-44,2.1c-2.9,0-5.7,0.6-8.6,0.8c-5.4,0.4-10.8,0.7-16.2,1.1
		c-6.4,0.4-12.7,0.9-19.1,1.4c-0.6,0-1.3,0.2-1.9,0.2c-13.1-0.2-26.1,1.7-39.2,2.3c-12.3,0.6-24.6,1.6-36.8,2.4
		c-7.2,0.5-14.4,0.9-21.5,1.3c-5.6,0.3-11.2,0.6-16.8,0.8c-0.9,0-1.9-0.2-3.3-0.3c0.6-1.1,0.7-2.2,1.3-2.5c1.4-0.7,2.9-1.3,4.4-1.4
		c7.2-0.4,14.4-0.7,21.6-1c0.8,0,1.6-0.2,2.4-0.1c8.7,1.2,17.2-0.5,25.7-1.5c5.4-0.6,10.8-0.9,16.3-1.2c6.5-0.4,13.1-0.8,19.6-0.9
		c4.1-0.1,8.3,0.3,12.4,0.2c3.3-0.1,6.7-0.3,10-1.1c3.3-0.8,6.6-1.2,9.9-1.3c5.6-0.2,11.2-0.5,16.8-0.8c10.4-0.6,20.8-0.7,31.1-1.8
		c8.8-0.9,17.6-0.7,26.3-1.2c11.2-0.7,22.3-1.7,33.5-2.5c8-0.5,16-0.8,23.9-1.2c6.2-0.3,12.4-0.8,18.6-1.2c7.7-0.5,15.3-1.1,23-1.6
		c2.6-0.2,5-0.6,7-2.6c4.3,2.4,8.7,2,13.2,1.6c9.1-0.7,18.2-1,27.3-1.5c3.3-0.2,6.7-0.5,10-0.8c2.7-0.2,5.4-0.6,8.1-0.8
		c14.5-0.6,29.1-1.1,43.6-1.8c4.6-0.2,9.2-1.1,13.8-1.3c12.9-0.6,25.9-1,38.8-1.5c1.8-0.1,3.5-0.1,5.3-0.3c13.6-2,27.4-2.5,41.1-2.9
		c2.1-0.1,4.2,0,6.2,0.4c2.9,0.6,5.7,0.5,8.4-0.8c2.2-1.1,4.6-1.3,7-1.4c13.6-0.6,27.1-1.2,40.7-1.9c4-0.2,7.9-0.8,11.9-1
		c7.5-0.5,15-1,22.5-1.4c3.2-0.2,6.4,0,9.6-0.2c7.7-0.5,15.3-1,23-1.6c11.2-1,22.3-1.6,33.5-1.4c5.9,0.1,11.8-0.9,17.7-1.4
		c6.7-0.6,13.4-1.1,20.1-1.6c6.4-0.5,12.7-1,19.1-1.4c3.5-0.2,7-0.2,10.5-0.2c1.4,0,2.7,0.5,4.2,1.5c-0.6,0.3-1.1,0.8-1.7,0.8
		c-5.1,0.3-10.2,0.5-15.3,0.8c-3.6,0.2-7.3,0.7-11.1,1c2,27.4,1.4,54.5,2.3,81.5c2.9,1.6,5.8,2,8.6,1.4c4.6-1.1,9.2-0.9,13.8-1.1
		c2.4-0.1,4.8-0.3,6.8-0.5c1.8-1.7,1.5-3.5,1.5-5.3c0.1-7,0.3-14.1,0.2-21.1c-0.1-8.5-0.6-16.9-0.7-25.4c-0.1-7.7-0.1-15.4,0-23
		c0-1.4,0.5-2.8,1.2-4c0.8-1.4,2.8-1.2,3.4,0.4c0.4,1,0.6,2.1,0.8,3.2c0.2,1.6,0.3,3.1,1,4.8c0.3-0.8,0.7-1.5,0.8-2.3
		c0.2-2.7,0.2-5.4,0.3-8.1c0.1-2,0.8-3.8,3.4-4.4c0.4,0.8,1,1.5,1.1,2.3c0.4,4.9,0.6,9.9,0.8,14.8c0.2,5.1,0.7,10.2,0.4,15.3
		c-0.5,7.7,1,15.3-0.3,23c-0.5,2.9,0,6.1,0.1,9.1c0.2,4.8,0.3,9.6,0.6,14.4c0.1,1.4,0.4,2.8,0.6,4.1c2.8,1,5.3,0.7,7.9,0.5
		c1.3-0.1,2.5-0.4,3.8-0.5c6.7-0.4,13.4-0.7,20.1-1c1.9-0.1,3.9-0.4,5,1.8c-0.3,1.6-1.6,1.4-2.7,1.4c-10.1,0.4-20.1,0.8-30.2,1.3
		c-1.1,0-2.2,0.4-3,0.5c-0.3,0.5-0.7,0.7-0.7,1c0.1,5.1,0.2,10.2,0.2,15.3c0,3.2-0.2,6.4-0.3,9.6c-0.1,4.5-0.3,8.9-0.3,13.4
		c0,6.2,0.2,12.5,0,18.7c-0.1,3.2-0.9,6.3-1.6,9.4c-0.4,1.9-1.1,3.6-3.4,4.2c-0.6,0.2-1.3,1.4-1.4,2.2c-0.3,2.2-0.2,4.5-0.3,6.7
		c-0.6,12.8-1.2,25.5-2.9,38.2c-0.1,0.6-0.3,1.2-0.5,2.1c-0.9,0-1.8,0-2.9,0c0-1.9-0.1-3.6,0-5.3c0.6-5.6,1.2-11.1,1.8-16.7
		c1.4-11.6,0.9-23.3,1.1-35c0.1-7.1-0.8-14-1.4-21c-1-12.4-2.2-24.8-2.1-37.3c0-1.2-0.2-2.5-0.4-3.6c-3.8-0.9-19.1,0-30,1.7
		c-0.2,1.1-0.5,2.3-0.5,3.5c-0.1,10.1,0,20.1-0.1,30.2c-0.1,8.5-0.2,16.9-0.3,25.4c0,3.5-0.1,7-0.2,10.6c0,1.3-0.1,2.6-0.4,3.8
		c-0.1,0.4-0.9,1-1.4,0.9c-0.5,0-1.2-0.6-1.3-1.1c-0.2-1.1-0.3-2.2-0.2-3.3c0.2-11.2,0.5-22.4,0.7-33.6c0.1-6.2-0.1-12.5-0.1-18.7
		c0-4.2,0-8.3,0-12.5c0-1.7-0.2-3.4-0.3-4.6c-1.9-1.8-4.5-0.5-5.5-2.6c1-2.3,3.7-1.6,5.5-3.1c0.1-0.9,0.3-1.9,0.3-3
		c0-9.8-0.1-19.5-0.2-29.3c0-2.7-0.3-5.4-0.5-8.1c0-0.6,0.1-1.4-0.2-1.9c-2.3-4.2-1.7-8.7-1.8-13.1c-0.1-5.8,0-11.5-0.1-17.3
		c0-4.6,0-4.6,2.5-8.1c-1-0.3-1.8-0.7-2.7-0.7c-3.2,0-6.4,0-9.6,0.2c-4.9,0.3-9.9,0.7-14.8,1c-11.2,0.7-22.3,1.4-33.5,2.2
		c-3.3,0.2-6.7,0.6-10,0.8c-2.4,0.2-4.8,0.5-7.2,0.3c-8.2-0.9-16.3,0.7-24.4,1.4c-1.3,0.1-2.5,0.3-3.8,0.4
		c-8.6,0.5-17.2,1.1-25.9,1.5c-2,0.1-4,0.6-5.9-0.9c-0.9-0.7-2.9-0.3-4.1,0.1c-4.4,1.6-9.1,1.8-13.7,2.3c-2.7,0.3-5.4,0.4-8.1,0.6
		c-9.4,0.5-18.8,1-28.3,1.5c-6.5,0.4-13.1,0.8-19.6,1.2c-8,0.5-15.9,1.1-23.9,1.6c-17.1,1-34.2,1.8-51.2,2.9c-15,0.9-30,2-45,3
		c-12,0.7-23.9,1.2-35.9,2c-8,0.5-15.9,1.2-23.9,1.9c-0.5,0-0.9,0.3-1.8,0.6c-0.3,2.7-0.6,5.5-0.8,8.3c-0.4,6.5-0.7,13.1-0.9,19.6
		c-0.2,5,0.3,9.9-0.2,14.9c-0.7,8.3-0.1,16.6,0,24.9c0,1.6,0.1,3.2,0.1,4.8c0.2,12.6-0.1,25.3,0.6,37.9c0.9,15,0.6,30.1,0.7,45.1
		c0,12.8,0.1,25.6,0.2,38.4c0,1.2,0.4,2.4,0.5,3.5c2.3,1,4.2,0,6-0.5c6.4-1.6,12.7-3,19.3-3.8c4.9-0.6,9.7-1.9,14.6-2.7
		c8.7-1.5,17.3-2.9,26-4.4c5.5-0.9,11-1.6,16.4-3.1c5.5-1.6,11.2-2.6,17-2.8c2.5-0.1,5-0.8,7.5-1.2c5.3-1,10.6-2.2,16-3
		c7-1.1,13.9-1.8,20.9-2.7c1.4-0.2,2.9-0.4,4.2-0.7c8.1-2.1,16.3-3.4,24.6-3.7c1.1,0,2.2-0.2,3.3-0.4c8.9-1.9,18.1-2.4,27.1-2.9
		c5.6-0.4,11.1-1.1,16.5-2.7c3-0.9,6.3-1.1,9.5-1.2c4.3-0.2,8.6-0.6,12.8-1.8c2.4-0.7,5-0.8,7.6-1c9.9-1,19.8-1.4,29.5-3.2
		c8-1.5,16.1-2.4,24.2-3.1c7.2-0.7,14.4-0.7,21.5-1.2c4.1-0.2,8.3-0.5,12.4-1.1c9.7-1.3,19.3-2.9,28.9-4.3c1.6-0.2,3.2-0.3,4.8-0.5
		c2.4-0.3,4.7-0.5,6.4-2.7c0.6-0.8,1.9-1.3,2.9-1.5c0.8-0.2,2,0,2.6,0.4c0.9,0.8,0.2,1.8-0.4,2.5c-1.7,2.1-3.8,3.4-6.4,3.9
		c-4.4,0.7-8.9,1.2-13.3,2c-9.8,1.8-19.7,1.6-29.6,2.8c-15.4,1.9-30.8,3.8-46.2,5.6c-3,0.4-6,0.6-9.1,0.9c-0.9,0.1-1.9,0.5-2.1-1.1
		c0-0.2-2.2-0.5-3.1-0.1c-6.8,3.5-14.3,3.1-21.5,4.2c-11.4,1.7-22.8,3-34.2,4.4c-8.9,1.1-17.8,2.2-26.6,3.4
		c-10.9,1.5-21.8,3.1-32.7,4.6c-3.5,0.5-7,1-10.5,1.3c-8.5,0.8-16.7,2.5-25.1,4c-12.7,2.3-25.5,4.6-38.2,6.8
		c-3.1,0.5-6.3,0.8-9.5,1.3c-1.1,0.1-2.2,0.3-3.3,0.5c-9.1,1.8-18.1,3.7-27.2,5.3c-10.7,1.9-21.5,3.5-32.2,5.2
		c-2.7,0.4-5.3,0.8-7.6,2.5c-1.1,0.8-2.6,1.1-4.2,1.7c-0.7,2.9-0.5,6-0.5,9c0.2,10.2,0.6,20.5-0.7,30.7c-0.3,2.4-0.7,4.7-1.4,7
		c-0.2,0.7-1.1,1.3-1.7,1.9c-1.7-1.3-1.6-2.8-1-4.1c1.4-3.2,1.2-6.6,1.3-9.9c0.1-2.6,0.2-5.1,0.6-7.6c0.9-7,0.7-14,0.4-21.1
		c-0.1-1.7-0.6-3.4-0.8-5c-1.8-1.3-3.5-1-5.6-0.3c-0.1,1.1-0.4,2.4-0.3,3.6c0.4,9.7,1,19.5,1.4,29.2c0.3,8.6,0.3,17.3,0.4,25.9
		c0,0.5,0.1,1-0.1,1.4c-0.2,0.5-0.6,1.2-1.1,1.4c-0.5,0.2-1.5,0-1.7-0.4c-1.1-2.4-2.3-4.9-3-7.4c-0.4-1.4,0.6-2.6,1.6-3.8
		c0.7-0.9,1.2-2.2,1.3-3.4c0.6-9.1,1.4-18.2-0.7-27.2c-0.7-3.1-0.4-6.4-0.7-9.5c-0.2-3-0.4-6-0.6-8.4c-1.3-1.9-3.9-1.2-3.8-3.9
		c3.3-2.1,2.9-5.5,2.8-9c-0.2-5.4,0-10.9,0.1-16.3c0-0.8,0.1-1.6,0-2.4c-0.3-4.1-0.7-8.3-0.9-12.4c-0.1-2.2-1-3.8-3.1-4.3
		c-2-0.5-4.1-1.1-6.1-0.9c-17.2,1.7-34.3,3.6-51.3,6.7c-12.4,2.3-24.8,4.6-37.4,5.6c-3.1,0.3-6.2,1.1-9.2,2.6
		c2.7-0.2,5.5-0.4,8.9-0.6c-1,0.5-1.4,0.9-1.8,0.9c-4.6,0.5-9.2,0.9-13.8,1.3c-1.3,0.1-2.6-0.2-3.8,0.3c-4.7,1.8-9.7,2-14.6,2.8
		c-2.2,0.3-4.6,1.7-6.7-0.4c-0.2-0.2-0.9,0-1.4,0c-8.9,0.6-17.9,1.2-26.8,1.7c-2.9,0.2-5.7,0.2-8.6,0.3c-1,0-1.9,0-2.9,0
		c-15,0.8-30,1.5-45,2.4c-6.4,0.4-12.7,1-19.1,1.4c-2.1,0.1-4.2,0.3-6.2-0.2c-3.4-0.8-6.7-0.6-10-0.2c-8.1,1-16.2,2.2-24.3,3.2
		c-1.9,0.2-3.8,0.2-5.7,0.4c-2.9,0.2-5.8,0.3-8.2,2.2c-0.1,0.1-0.3,0.2-0.4,0.3C9.3,794.9,8,794.9,7,794c-0.5-0.4-0.7-1.4-0.7-2.1
		c0.1-1.4,1.1-2.3,2.5-2.4c2.5-0.4,5.1-0.7,7.6-1c4.8-0.5,9.5-1,14.3-1.4c3.7-0.3,7.3-0.4,11-0.7c9.4-0.5,18.8-1,28.3-1.6
		c10.2-0.7,20.4-0.9,30.7-0.7c5.4,0.1,10.8-0.6,16.3-0.9c10.5-0.6,21.1-1.1,31.6-1.7c0.9,0,1.9,0,2.9,0.2c4.5,0.8,8.9,0.2,13.1-1.4
		c0.7-0.3,1.5-0.3,2.3-0.5c9.3-1.3,18.7-2.5,28-3.9c9.3-1.4,18.6-2.9,27.9-4.4c9-1.4,18-2.8,27-4.3c4.2-0.7,8.4-1.7,12.7-2.4
		c13.3-2.2,26.6-3.9,40.1-3.2c1.1,0.1,2.2,0,3.3-0.2c1.5-0.2,2.3-1.1,2.2-2.6c0-1-0.2-1.9-0.2-2.9c0.1-5.6,0.3-11.2,0.4-16.8
		c0.1-5.8,0.2-11.5,0.3-17.3c0.1-5.1,0.1-10.2,0.3-15.3c0.1-3.4,0-6.7-0.4-9.8c-3.1-2-5.9-0.2-8.7-0.2
		C296.9,696.6,294,697,291.2,697.2L291.2,697.2z M319.2,805.3c0.2-3.5,0.5-6.5,0.6-9.5c0.2-6.7,0.4-13.4,0.3-20.1
		c-0.1-11.7-0.4-23.3-0.6-35c-0.1-5.6,0-11.2,0-16.8c0-1.8,0-3.5-0.1-5.3c-0.5-6.9-1.1-13.7-1.5-20.6c-0.3-6.4-0.4-12.8-0.6-19.2
		c0-1.3,0-2.6,0.2-3.8c1.3-7.5,0.3-15,0-22.5c-0.2-5.9-0.3-11.8-0.2-17.7c0.2-7.2,0.6-14.3,0.9-21.5c0.1-1.9,0-3.8,0-5.8
		c-1.9-0.6-3.6-0.5-5.1,0.1c-0.2,0.5-0.4,0.8-0.4,1.1c0.8,4.9,1.4,9.8,2.5,14.6c0.7,3.4,1.3,6.5-1.7,9.2c-0.7,0.7-0.8,2.3-0.8,3.6
		c-0.2,3.5-0.2,7-0.2,10.5c-0.2,8-0.4,15.9-0.4,23.9c0,3.1,1.3,6.2-0.2,9.3c-0.3,0.6,0,1.6,0,2.4c1.2,12.6-0.2,25.2-0.2,37.9
		c0,3.6-0.6,7.3-0.9,11.5c-0.4-0.8-0.6-1.1-0.7-1.5c-0.1-0.1-0.2-0.3-0.3-0.3c-0.1,0-0.2,0.1-0.5,0.3c0.1,1.2-0.3,2.7,0.3,3.6
		c1.6,2.7,1.3,5.6,1.4,8.4c0.2,4.5,0.1,8.9,0.2,13.4c0,1.6,0.1,3.1,0.2,4.1c1.6,2,4.9,0.5,5,3.8c-1.7,0.4-3.4,0.8-5.3,1.3
		c0,4.3,0,8.4-0.1,12.6c-0.3,8.3-0.2,16.6,1.1,24.9c0.2,1.4,0,2.9,1.9,4.1C315.3,806.1,316.9,805.8,319.2,805.3z M760,666.6
		c-0.3-0.1-0.7-0.2-1-0.3c-0.4,0.7-1.1,1.4-1.1,2.2c-0.3,4.1-0.6,8.3-0.5,12.4c0.1,11.5,0.5,23,0.7,34.5c0.1,2.6,0,5.1,0.2,7.7
		c0.1,1.5,0.2,3.2,1.5,4.6c0.3-0.6,0.7-1,0.7-1.3c0.3-19,1-38,0-57C760.4,668.4,760.1,667.5,760,666.6z M758.4,599.3
		c-0.4,0-0.8,0-1.2-0.1c-0.2,0.8-0.5,1.7-0.5,2.5c-0.1,4,0,8,0,12c0,1.3-0.1,2.6,0,3.8c0.7,13.1,1.1,26.2,0.6,39.2
		c0,1.4,0,2.9,0.2,4.3c0.1,0.6,0.8,1.1,1.2,1.6c0.5-0.5,0.9-0.7,0.9-0.9c-0.1-19.3,0-38.6-0.7-57.9
		C759,602.4,758.6,600.9,758.4,599.3z M734.9,579.9c0-0.3,0-0.6,0-1c-2.6,0.4-5.2,0.7-7.7,1.1c0.9,0.7,1.8,0.8,2.6,0.7
		C731.6,580.5,733.3,580.2,734.9,579.9z M310.1,787c-0.2,0-0.5,0-0.7,0c0,0.7,0.1,1.4,0.1,2.1c0.2,0,0.5,0,0.7,0
		C310.2,788.4,310.1,787.7,310.1,787z"/>
	<path d="M353.2,414.3c-2.2-0.4-4.4-0.9-6.6-1.1c-3.4-0.3-5.5-3.5-5.6-6.6c-0.2-3.8-0.1-7.7,0-11.5c0-3.2,0.1-6.4,0.1-9.6
		c-0.1-16.6-0.3-33.3-0.3-49.9c0-10.4,0.2-20.8,0.4-31.2c0.2-6.4,0.6-12.8,0.9-19.2c0.1-1.9,0.3-3.8-0.8-5.9
		c-3.8-0.6-7.8-1.2-11.7-1.7c-4-0.5-7.9-1-11.9-1.2c-4-0.2-8,0-12,0.1c-3.9,0.1-7.8,1.3-12.3,0.3c0.9-1.1,1.3-2,2-2.4
		c2.8-1.7,5.9-2.2,9.2-2.1c5.3,0.2,10.5,0.5,15.8,0.5c5.7-0.1,11.1,1.5,16.6,2.2c0.5,0.1,0.9,0.3,1.4,0.3c3.6-0.2,7,0.7,10.5,1.5
		c3.4,0.8,7,0.2,10.5,0.4c1.8,0.1,3.5,0.4,5.2,0.4c1.9,0.1,3.8,0,5.8,0c1-4.4,0.3-8.7,0.4-13c0.1-4.1,0-8.2,0-12.6
		c-1.5-0.1-2.5-0.3-3.6-0.3c-17-0.1-33.9-0.1-50.9-0.5c-9.4-0.2-18.8-1-28.3-1.4c-3.6-0.2-7.3,0-11.1,0c-0.7,1.8-1.3,3.5-2.2,5.9
		c-1.3-2.6-1.2-4.6-1-6.6c0.8-7.5,1.6-14.9,2.3-22.4c0.2-2.4,0.5-4.8,0.6-7.2c0.4-13.9,0.7-27.8,1.1-41.7c0.3-9.4,0.4-18.9,1.1-28.3
		c1.3-15.3,0.8-30.7,2.2-46c0.1-1.6-0.2-3.2-0.1-4.8c0.1-3.7,0.3-7.3,0.4-11c0.1-4.3,0.2-8.6,0.4-12.9c0.1-5.6,0.2-11.2,0.4-16.8
		c0.1-4.3,0.5-8.6,0.6-12.9c0-1.7-0.6-3.3-0.9-4.9c-3-1.3-5.8-1.1-8.5-1c-8.6,0.6-16.8-1.2-25.2-2.7c-6.1-1.1-12.3-1.9-18.5-2.8
		c-6.5-1-13-1.9-19.4-2.8c-5.1-0.7-10.1-1.5-15.2-2.2c-1.6-0.2-3.1-0.6-4.6-2.4c2.4-0.3,4.3-0.8,6.1-0.6c7.3,1.1,14.5,2.5,21.7,3.8
		c1.2,0.2,2.4,0.7,3.7,1.1c4.3,1.2,8.7,1.9,13.2,1.7c3.2-0.1,6.4,0.3,9.5,0.9c4.6,0.9,9.1,1.6,13.7,2c4.1,0.4,8.2,1.5,12.3,2.1
		c4.3,0.6,8.6,1,12.8,1.5c0.8,0.1,1.7,0,2.4,0.3c2.9,1.6,6.1,1.8,9.3,2c5,0.3,9.8,1.5,14.6,2.8c2.4,0.7,4.9,1.2,7.3,2.1
		c-5.2,0.3-10.3,0-15.3-1.5c-5-1.5-10.1-1.2-14.9-1.6c-1.8,1.5-1.9,3.3-1.9,5c0.2,7.6-1.1,15.3,0.6,23c0.4,1.6,0.2,3.6-0.3,5.2
		c-0.9,3.3-0.9,6.6-0.7,10c0.4,6.4,0.7,12.8-1.2,19c-0.3,1.1-0.3,2.2-0.3,3.3c-0.1,6.4-0.1,12.8-0.3,19.2c-0.1,4.6-0.6,9.2-0.9,14
		c-0.4-0.6-0.7-1-1.2-1.6c-0.7,1.7-0.6,3.3-0.1,4.8c1.4,4.1,1.2,8.2,0.5,12.3c-1,6-0.9,12.1-0.9,18.2c-0.1,6.2,0.9,12.5-1.5,18.5
		c-0.5,1.2,0,2.8,0.1,4.3c0.2,3.8,0.6,7.6,0.5,11.5c-0.3,10.7-0.9,21.4-1.3,32.1c0,0.6,0.1,1.2,0.2,2c1.9,0,3.6-0.1,5.3,0
		c1.8,0.1,3.5,0.3,5.3,0.4c4.6,0.4,9.2,1,13.9,1.1c12.6,0.3,25.2,0.5,37.9,0.7c2.9,0,5.7-0.1,8.5,0.8c1.3,0.4,2.9,0.4,4.3,0.2
		c8.3-1.1,16.6-0.5,24.9-0.2c9.4,0.3,18.8,0.3,28.3,0.3c3.5,0,7,0.4,10.3,0.5c0.2,0.4,0.4,0.5,0.4,0.6c0,0.1-0.3,0.2-0.3,0.3
		c-0.1,0.2-0.1,0.5-0.1,0.7c3.5,0,7,0,10.5,0c5.6-0.1,11.2-0.3,16.8-0.4c2.5,0,5.1,0.2,7.6,0.4c4.1,0.4,8.2,0.4,12.6,0.1
		c0.4-1.6,0.8-3,0.9-4.4c0.8-6.8,1.6-13.7,2.3-20.5c0.1-0.8,0.1-1.6,0.1-2.4c0.4-15,0.8-30,1.2-45.1c0.4-15.2,0.5-30.4,1-45.6
		c0.6-18.4,1.6-36.7,2.4-55.1c0.1-1.7,0.4-3.5-0.7-5.3c-4.7-0.8-9.4-1.5-14.1-2.3c-1.7-0.3-3.4-0.5-4.8-1.8
		c-0.8-0.7-2.4-0.9-3.6-0.8c-6.3,0.4-12.5-0.6-18.6-1.5c-13-1.9-25.9-4-38.8-6c-1.9-0.3-3.7-0.3-5.8-0.5c-0.6,4-1,7.5-0.6,11.2
		c0.5,5.1,0.2,10.2,0.6,15.3c0.5,6.4,0.4,12.7-0.9,19.1c-0.5,2.4-0.1,5.1,0.3,7.6c0.5,4,0.7,7.9-0.1,11.9c-0.4,1.9-0.4,3.8-0.4,5.7
		c0,5.3,0.1,10.6,0.2,15.8c0.1,4.3,0,8.6-0.9,12.9c-0.5,2.1-0.2,4.4-0.2,6.7c-0.1,5-0.1,9.9-0.1,14.9c0,3.5-0.1,7-0.1,10.5
		c-0.1,8.5-0.2,16.9-0.1,25.4c0,2.9,0.4,5.7,0.7,8.6c0.1,1.4,0.5,2.8,0.7,4c-1.4,1.3-2.3,0.9-2.8-0.4c-0.4-1-0.7-2.1-0.7-3.2
		c-0.9-11.5-1-23-0.5-34.5c0.3-5.8,0.6-11.5,0.7-17.3c0.4-16.3,0.7-32.6,1.1-48.9c0.3-13.4-0.1-26.8-0.1-40.3c0-2.9-0.1-5.8,0-8.6
		c0.3-6,0.1-11.8-3.4-17.5c-0.2-0.1-0.7-0.4-1.3-0.5c-6.8-1.1-13.6-2.1-20.4-3.1c-7.7-1.2-15.5-2.4-23.2-3.5
		c-2.9-0.4-5.7-0.6-7.9-2.8c-0.4-0.4-1.2-0.4-2.6-0.8c5.2-0.3,9.5,0.3,13.7,1.6c1.2,0.4,2.5,0.9,3.7,0.7c5.1-0.8,9.9,0.7,14.6,2.1
		c5.4,1.7,10.7,2.8,16.5,2.3c2.8-0.2,5.7,0.4,8.6,0.8c9.3,1.5,18.6,3.2,27.9,4.7c3.1,0.5,6.4,0.6,9.5,0.9c0.8,0.1,1.6,0,2.4,0.2
		c6.8,2.3,14.1,2.2,21.1,3.5c6.9,1.3,13.9,1.9,20.9,3c7.3,1.1,14.5,2.5,21.7,3.7c1.6,0.3,3,0.6,4.4,1.5c1.5,0.9,3.6,1.1,5.5,1.2
		c6.8,0.6,13.7,0.7,20.5,1.6c6.8,0.9,13.5,2.5,20.2,3.8c2.5,0.5,5,0.9,7.6,1.2c7,0.9,13.9,1.7,20.9,2.7c8.2,1.2,16.4,2.4,25.1,3.7
		c-0.8,0.4-1.2,0.6-1.7,0.8c2.8,1.5,3.5,1.8,6.9,1.8c8.4-0.1,16.6,0.7,24.8,2.1c5.4,0.9,10.7,2,16,3.2c1.8,0.4,3.4,1.6,4.9,3
		c-3.4-0.4-6.9-0.8-10.3-1.3c-7.4-1.1-14.8-2.2-22.3-3.3c-0.6-0.1-1.3,0-1.9-0.3c-6.3-2.9-13.2-2.3-19.7-3.4
		c-4.9-0.8-9.8-1.5-14.7-2.3c-2.1-0.3-4.1-0.7-6.2-0.7c-4-0.1-7.8-1.3-11.7-2.3c-2.3-0.6-4.6-1.3-7-1.5c-10.9-0.7-21.6-2.3-32.3-4.3
		c-6.3-1.2-12.7-1.7-19-2.6c-4.6-0.6-9.2-1.4-13.7-2c-1.1-0.1-2.2,0-3.7,0c-1,6.2-1.8,12.2-1.8,18.3c0,3.8-0.2,7.7-0.4,11.5
		c-0.2,4-0.5,8-0.7,12c-0.5,10.9-1.1,21.7-1.6,32.6c-0.3,8.5-0.4,16.9-0.6,25.4c-0.3,13.6-0.5,27.2-1.1,40.8
		c-0.5,11.7-1.4,23.3-2.2,34.9c0,0.3,0.1,0.6,0.2,1.3c0.5,0.3,1.1,0.8,1.8,0.9c3.6,0.6,7.2,1.1,10.9,1.6c3.5,0.5,7,0.8,10.4,1.6
		c6.7,1.5,13.6,2.2,20.4,2.3c3,0,6,0.6,9,0.8c10.6,0.7,21.2,2.9,32.1,3c0.9-4.2,1.5-8.3,1.5-12.4c0-6.9,0.8-13.7,1.6-20.5
		c0.5-4.3,0.4-8.6,0.5-12.9c0.4-14.7,0.9-29.4,1.3-44.1c0.1-5.7-0.3-11.5-0.3-17.3c-0.1-10.9-0.6-21.8,0-32.6
		c0.5-9.6,0.8-19.2,0.9-28.7c0-0.9,0.1-2,0.6-2.7c0.4-0.6,1.4-0.9,2.5-1.5c0.2,1.4,0.5,2.3,0.4,3.3c0,11.7,0,23.3-0.2,35
		c-0.2,10.9-0.8,21.7-1.2,32.6c-0.1,3.3,0.2,6.7,0.2,10.1c-0.2,12-0.3,24-0.8,36c-0.6,14.2-1.6,28.4-2.4,42.6
		c-0.2,4.5-0.4,8.9-0.5,13.1c1.5,1.7,3.1,1.7,4.7,1.9c7.6,1,15.2,2,22.8,3.1c4.3,0.6,8.5,1.6,12.7,2.3c1.1,0.2,2.3,0.4,3.3,0.2
		c6.2-1.4,12.1,0.4,18,1.7c5.3,1.3,10.7,1.8,16.1,1.9c4.5,0.1,8.9,0.8,13.3,1.2c4,0.4,8,0.9,11.9,1c4,0.1,6.8,1.4,7.7,5.5
		c2,1,4.1,1.1,6.2,0.7c5.7-1.2,11.5-0.5,17.2-0.1c2.3,0.2,4.6,1.1,6.9,1.7c1.2,0.3,2.5,0.7,3.7,0.8c8.9,0.7,17.9,1.5,26.8,1.9
		c6.4,0.3,12.8,0,19.2,0.3c4,0.1,8,0.7,11.9,1.1c0.6,0.1,1.6,0.9,1.7,1.4c0,0.8-0.4,2.1-1,2.4c-3.1,1.3-6.3,2.6-9.7,2.1
		c-1.3-0.2-3.1-0.8-3.7-1.8c-1-1.9-2.4-1.8-4-1.9c-13.4-0.6-26.8-1.2-40.2-1.9c-4.8-0.2-9.6-0.9-14.3-1c-11.7-0.4-23.3-0.6-35-0.9
		c-2.1-0.1-4.1-0.4-6.1-0.8c-0.6-0.1-1-1-1.7-1.8c5.4-3.2,10.8,0.2,15-1.4c-1.2-0.3-3.2-0.8-5.2-1.3c-1.9-0.4-3.8-0.8-5.7-1
		c-10.8-1.1-21.6-2.1-32.4-3.3c-8.1-0.9-16.1-2.3-24.2-3.3c-7.6-0.9-15.3-1.6-22.9-2.4c-4.1-0.4-8.2-0.9-12.4-1.4
		c-0.7,1.9-1.3,3.5-2,5.5c-2.2-1.7-2-4.2-3.4-6.2c-3.8-1-7.9-1.2-12-1.6c-8.3-0.9-16.6-1.6-24.6-3.9c-1.8-0.5-3.8-0.7-5.7-0.9
		c-15.7-1.5-31.5-3-47.3-4.4c-1.8-0.2-3.5-0.4-5.3-0.4c-12.8-0.6-25.6-1.3-38.3-1.7c-11.5-0.3-23-0.3-34.5-0.4c-2.9,0-5.7,0-9,0
		c-0.2,1.4-0.6,2.7-0.6,4.1c-0.1,5.9,0,11.8,0,17.8c0,2.4,0.3,4.8,2.2,6.8c-2.2,2.6-2.1,5.7-2.4,8.7c-1,11.7,0.2,23.3-0.3,35
		c-0.4,11-0.9,22-1.3,33.1c0,0.8-0.1,1.6-0.1,2.4c0.2,13.6,0.4,27.2,0.7,40.8c0,1.6,0.2,3.1,0.4,5c1.9-0.1,3.5-0.2,5-0.2
		c3.3,0,6.7,0.1,10,0.2c3,0.1,6.1,0.2,9.1,0.4c2.9,0.2,5.7,0.7,8.5,0.9c2.4,0.2,4.8,0.6,7.1,0.4c13.6-1.1,27.1-1.5,40.7-1.4
		c2.4,0,4.8-0.1,7.2-0.1c2.1,0,4.2-0.2,6.2,0.3c5.3,1.3,10.5,0.7,15.7,0.2c4.4-0.4,8.9-1,13.4-1c8.8-0.1,17.6-0.1,26.4,0.1
		c2,0,4.1,0.6,6.1,1.3c2.9,1.1,5.9,1.5,9.1,1.4c1-1.9,1.1-3.9,1.2-5.9c0.5-13.8,0.1-27.5-0.5-41.2c-0.7-15.8-1.2-31.6-1.7-47.5
		c-0.3-11.5-0.5-23-0.8-34.5c-0.1-2.7,0.3-5.4-1.2-8c-0.3-0.6-0.1-1.6,0-2.3c0.1-1.1,0.8-1.8,1.9-1.9c1.2-0.1,1.7,0.7,1.9,1.7
		c0.3,1.7,0.6,3.5,0.7,5.2c0.3,6.2,0.6,12.5,0.9,18.7c0,1.1,0.1,2.3-0.1,3.4c-1.1,7.3-0.6,14.7,0,22c0.1,1.1,0.3,2.2,0.2,3.3
		c-0.8,8.3,0.4,16.6,0.9,24.9c0.3,4.3,0,8.6,0,12.9c0,2.2-0.2,4.5,0,6.7c0.6,6.5,0.9,13.1,0.8,19.6c-0.1,5.7,0.4,11.5,0.5,17.3
		c0.1,2.2-0.1,4.4-0.1,6.4c-2.2,1.5-4.2,1.5-6.3,1.3c-12.8-1.1-25.5-1.8-38.3-1.5c-7.4,0.2-14.7-0.3-22.1,0.1
		c-27.3,1.4-54.7,0.3-82,0.8c-3.5,0.1-7-0.3-10.5-0.5c-3-0.2-6-0.5-9.2,0.5c-1,2.3-2.4,4.4-1.6,7.2c0.2,0.6-0.8,1.6-1.4,2.6
		c-5.4-1.7-10.7-3.4-16-5.1c1.5,0.2,3,0.7,4.4-0.4c-0.2-0.5-0.2-1-0.4-1.1c-2.4-1.1-4.8-1-7.1,0.4
		C353.3,413.6,353.3,414,353.2,414.3z M346.4,280.4c-1,4.3-1.5,8.2-1.5,12.2c-0.1,7.7-0.2,15.3-0.3,23c0,3.4-0.2,6.7-1.1,10
		c-0.5,1.9-0.4,4.1-0.3,6.2c0.2,4.5,0.9,9,0.6,13.4c-0.7,10.2-0.2,20.4,0.3,30.6c0.1,2.7,0.2,5.5-0.2,8.1c-0.6,3.8-0.4,7.6,0,11.5
		c0.3,3.5,0.1,7,0.1,10.5c0,0.8,0,1.5,0,2.2c4.6,2.2,21.8,4.9,26.5,4.2c0.1-2,0.4-4,0.4-6.1c-0.1-14.5-0.3-29.1-0.3-43.6
		c0.1-12.5,0.6-24.9,0.8-37.4c0.2-11.5,0.2-23,0.2-34.5c0-2.5,0.2-5.1-1.3-7.7c-6-0.9-11.9-1.7-17.9-2.6c-1.1-0.2-2.2-0.3-3.3-0.3
		C348.4,280.2,347.6,280.3,346.4,280.4z M590.2,267c0,0.2-0.1,0.4-0.1,0.7c1.1,0.2,2.1,0.4,3.2,0.5c0.9,0.1,1.9,0.1,2.8,0.2
		c0-0.3,0-0.6,0-0.9C594.1,267.3,592.1,267.1,590.2,267z M332.5,248.5c-1.7-0.7-3.2-1.2-5.3,0.3
		C329.4,248.7,330.9,248.6,332.5,248.5z"/>
	<path d="M625.5,282c-4.4,2.9-8.7,6.1-13.2,8.7c-4.5,2.6-9.4,4.6-14.2,7c0,2-0.1,3.8,0,5.5c0.6,6.4,0.5,12.7-0.1,19.2
		c-0.5,5.7-0.1,11.5-0.2,17.3c-0.1,4.5-0.4,8.9-0.7,13.4c-0.5,9.6-1.1,19.2-1.5,28.7c-0.2,4.6,0.2,9.3,0.2,13.9
		c0,6.1-0.3,12.1-0.4,18.2c-0.1,2.1-0.1,4.2-0.1,6.2c-0.1,2.9-0.1,5.8-0.2,8.6c-0.3,8-0.7,16-1,23.9c-0.5,12.5-0.9,24.9-2.6,37.3
		c-0.2,1.6,0.6,3.7-1.7,4.8c-0.4,0.2-0.3,1.9,0,2.7c1.8,4.6,1.4,9.5,2.2,14.2c0.2,0.9,0.3,1.9,0.4,2.9c2.6,1.3,5.3,1.2,8,1
		c3.7-0.2,7.3-0.6,11-0.6c3.5,0.1,7,0.5,10.4,1c1.2,0.2,2.4,0.8,3.5,1.5c1.9,1.1,1.9,3.1-0.2,3.9c-4.9,1.9-9.8,4-14.9,5.2
		c-5.3,1.2-10.8,1.5-16.2,1.8c-8.5,0.5-16.9,1.4-25.2,2.8c-5,0.8-10.1,1.7-15.2,2.2c-2.6,0.3-5.4-0.2-8.1-0.5
		c-2.6-0.3-5-0.4-7.5,0.7c-1.4,0.6-3.1,0.8-4.6,0.9c-6.5,0.3-13.1,0.5-19.7,0.8c-9.6,0.3-19.2,0.6-28.8,0.9c-1.1,0-2.3-0.1-3.3-0.3
		c-0.4-0.1-0.6-0.9-1.1-1.7c-1.5,0.2-3.2,0.3-4.9,0.7c-1,0.2-0.9,2-2.5,1.7c-1.2-0.2-2.5,0.1-3.8,0.1c-10.4,0.6-20.8,1.1-31.1,1.7
		c-8.5,0.4-16.9,0.6-25.4,1.2c-9.2,0.7-18.5,1.7-27.7,2.5c-4.6,0.4-9.2,0.7-13.8,1.2c-13.8,1.5-27.6,3.1-41.4,4.6
		c-10.2,1.1-20.4,1.5-30.6,1.3c-1.4,0-3,0.3-3.7-2c0.5-1.5,1.8-2.7,3.5-3.2c2.7-0.9,5.5-1.6,8.3-2.1c2.7-0.5,5.4-0.8,8-1.3
		c4.1-0.8,4.2-0.8,5.4,3.5c0.3,0.1,0.6,0.3,0.9,0.3c8.8-0.5,17.5-1,26.3-1.5c1.1-0.1,2.3-0.1,3.3-0.4c7.4-2.2,15.1-2.4,22.8-2.9
		c5.6-0.4,11.1-1.5,16.6-2c6.8-0.5,13.7-1.3,20.6-0.2c1.8,0.3,4,0.2,5.6-0.6c3.8-1.9,7.7-2.3,11.7-2c6.1,0.5,12,0,18.1-0.7
		c7.6-0.9,15.3-0.6,23-0.9c8.1-0.4,16.3-0.9,24.4-1.4c1-0.1,1.9-0.4,2.9-0.3c6.4,1.2,12.7-0.8,19.1-0.5c6.2,0.3,12.5,0.2,18.7,0.1
		c8.6-0.1,17.2-1.3,25.7-2.6c3-0.5,5.9-0.9,9-2.1c-0.5-0.2-1-0.5-1.4-0.5c-15.5-0.3-31-0.8-46.5-0.9c-10.6-0.1-21.1,0.1-31.7,0.2
		c-1.6,0-3.2,0.2-4.8,0.2c-4.2,0.2-8.3,0.5-12.5,0.5c-6.9-0.1-13.7,0-20.6,0.7c-9.2,1-18.5,1.3-27.7,2c-12,0.9-23.9,1.7-35.9,2.6
		c-1.8,0.1-3.7,1-5.2-0.9c-0.4-0.5-1.8-0.3-2.8-0.2c-2.4,0.3-5.2,0-7,1.2c-2.1,1.3-4.1,1.4-6.2,1.6c-2.4,0.3-4.8,0.5-7.2,0.8
		c-12.6,1.2-25.1,2.4-37.7,3.6c-8.1,0.8-16.1,2.6-24,4.2c-4.2,0.9-8.5,1-12.8,0.8c-1.9-0.1-3.4-0.8-4.2-3c2.4-2.5,4.9-5,7.7-7.8
		c-0.5-2.3-0.2-4.9,0.3-7.6c0.6-3.4,0.5-7,0.3-10.5c-0.8-15.5-0.6-31-0.5-46.5c0.1-13.7-0.4-27.5-0.6-41.2
		c-0.2-12.2-0.6-24.3-0.8-36.5c-0.1-5.1-0.2-10.2-0.2-15.4c0-8.3,0.3-16.6,0.3-24.9c0-8.5-0.3-16.9-0.3-25.4
		c0-9.4,0.3-18.8,0.3-28.3c0-9.4-0.3-18.9-0.5-28.3c-0.1-3,0.6-6.1-1.4-8.8c-0.4-0.5-0.2-1.6,0-2.3c0.3-1.3,0.9-2.6,2.4-2.6
		c1.5,0,2.1,1.4,2.2,2.7c0.2,2.5,0.4,5.1,0.4,7.7c0,24.3,0,48.6-0.1,72.9c0,20-0.2,40-0.1,60c0,8.8,0.6,17.6,0.7,26.4
		c0.2,13.4,0.2,26.9,0.2,40.3c0.1,14.7,0,29.4,0.2,44.1c0.1,6.9,0.5,13.7,0.8,20.6c0,0.8,0.3,1.5,0.4,2c2.2,1.7,3.9-0.3,5.9,0
		c0,0.7,0,1.4,0,2.4c3.7,1.1,7.5,1,11.3,0.5c5.2-0.6,10.5-0.7,15.6-2.2c3.3-0.9,6.9-1,10.5-1.2c12.1-0.7,24.2-1.3,36.4-2
		c3.3-0.2,6.7-0.7,10-1c3.7-0.3,7.3-0.5,11-0.8c0.6,0,1.3,0.1,1.9,0c6.7-0.6,13.3-1.2,20-1.8c1.3-0.1,2.5-0.4,3.8-0.4
		c8.6,0,17.3,0.1,25.9,0c6.2-0.1,12.4-0.4,18.7-0.7c6.9-0.3,13.7-0.8,20.6-0.9c6.9-0.1,13.8-0.4,20.6,0.2c11.7,1,23.3,0,35-0.3
		c6.7-0.2,13.4,0.4,20.1,0.6c5.6,0.2,11.2,0.6,16.8,0.8c3.5,0.1,6.9-0.2,10.3-2c-0.7-0.1-1.3-0.4-2-0.4c-2.6,0-5.1,0.2-7.7,0.2
		c-1.3,0-2.2-0.6-2.3-2c-0.1-1.3,0.8-2.1,2-2.3c1.1-0.2,2.2-0.2,3.3-0.3c2.2-0.2,4.4-0.4,6.5-0.6c0.3-0.8,0.5-1.2,0.6-1.7
		c0.5-8.4,1.5-16.9,1.5-25.3c0-10.9,2.4-21.6,1.5-32.5c-0.2-1.9,0-3.9,0.5-5.7c1.9-6.4,1.6-12.9,1.3-19.5c-0.3-4.9,0-9.9,0-14.9
		c0-4.3,0.1-8.6,0.2-12.9c0.1-3.2,0.3-6.4,0.8-9.5c0.5-3.3,0.7-6.6,0.3-10c-0.8-8.3-0.9-16.6-0.2-24.9c0.3-4.1,0.4-8.3,0.6-12.5
		c0.1-1.6,0-3.2,0.3-4.8c1.4-8.6,0.8-17.2,0.2-25.8c-0.1-2.2-0.1-4.5-0.2-6.7c-0.1-2.2,0-4.4-1.3-6.5c-1.5-2.5,0.2-4.9,1.3-7.2
		c0.4-0.8,1.1-1.5,2-2.6c-1.3-0.3-2.1-0.7-3-0.7c-3.5-0.1-7,0-10.6-0.1c-6.6-0.2-13.1-0.7-19.3-3.1c-3.7-1.4-7.6-0.8-11.4-0.3
		c-3.2,0.4-3.2,0.4-5.9-1.1c1.2-1.9,3-2,5-2c7.8-0.1,15.7,0.6,23.3,2c8.8,1.7,17.6,0.1,26.3,1.4c3.2,0.5,6.3-0.7,9.2-2.2
		c4.9-2.6,10-5,15.4-7.6c0,1.3,0,2.2,0,3.1L625.5,282z M615.6,520c-8-0.4-15.2-0.7-22.7,0.5c0.1,1.6,0.2,2.9,0.3,4.2
		c5.5,2.1,10.8,0.6,16-0.4C611.6,523.9,613.6,522.9,615.6,520z"/>
	<path d="M800.7,652c2.5,1,5.1,2.3,7.8,3.1c7.5,2.2,14.9,4.7,21.7,8.7c1.6,1,3.6,1.4,5.3,2.2c1.4,0.6,2.8,1.3,4.3,2
		c-1.1,2-2.5,1.3-3.6,0.9c-4.8-1.6-9.6-3.4-14.5-5.1c-3.6-1.3-7.2-2.5-10.8-3.8c-5.3-1.9-10.5-3.8-15.7-5.7
		c-4.8-1.8-9.6-3.4-14.6-4.1c-2.2,1.9-0.7,4.5-1.8,6.7c-0.3-2.4-0.6-4.5-0.9-6.3c-2.7-1.9-5.5,0.9-7.8-1.1c-0.3-0.3-0.5-0.8-0.9-1.4
		c1.1-1.8,2.7-2.3,4.8-2.4c3.6-0.1,3.6-0.2,3.7-3.9c0.1-4,0.2-8,0.2-12c-0.2-14.1-0.5-28.1-0.7-42.2c-0.1-8.9-0.1-17.9-0.2-26.8
		c-0.1-15.3-0.3-30.7-0.5-46c-0.1-14.2-0.2-28.4-0.4-42.7c-0.1-9.4-0.3-18.9-0.4-28.3c-0.1-8.3,0-16.6-0.1-24.9
		c-0.1-7.8-0.4-15.7-0.5-23.5c-0.2-15.2-0.2-30.4-0.4-45.6c-0.3-23.3-0.6-46.7-0.9-70c-0.2-16.9-0.6-33.9-0.8-50.8
		c-0.2-12.6-0.3-25.3-0.4-37.9c-0.1-8.8,0.1-17.6,0-26.4c-0.2-9.7-0.6-19.5-0.9-29.2c-0.2-5.3-0.2-10.5-0.3-15.8
		c0-0.9-0.2-1.9-0.3-3.1c-2.6,0.1-4.7,1-7.1,2.5c1.5,1.3,2.7,2.4,4.4,3.8c-1,0.6-1.8,1.5-2.4,1.4c-2.9-0.7-5.9-1.4-8.7-2.5
		c-2.4-1-2.4-2.3-0.6-4.3c0.4-0.4,0.7-0.9,1.4-1.6c-5.1-0.9-9.8-1.7-14.5-2.5c-1.6-0.3-3.2-0.5-4.7-1c-3.7-1.4-7.5-1.5-11.3-1.9
		c-6.2-0.6-12.4-1.4-18.5-2.3c-2.5-0.3-5-0.9-7.5-1.3c-7.4-1.1-14.8-2.3-22.3-3.4c-9.8-1.5-19.6-3-29.4-4.5
		c-1.4-0.2-2.8-0.5-4.4-0.9c0.4-1.8,1.7-2.4,2.8-2.4c2,0,4.2,0.1,6.1,0.6c4.3,1.2,8.7,1.8,13.2,2.2c4.1,0.3,8.2,1.3,12.2,2.2
		c4.7,1,9.4,1.9,14.2,1.7c2.8-0.1,5.7,0.4,8.6,0.9c10.6,1.6,21.1,3.4,31.7,5.1c5.1,0.8,10.2,1.2,15.2,2c3,0.5,6,1.2,8.9,2
		c1.4,0.4,2.6,1.5,4.7,2.8c4.1-1,9.1-2,14-3.5c8.7-2.6,17.3-5.8,26.1-8.2c8.3-2.4,16.7-4.2,25.1-6.2c0.5-0.1,1-0.1,1.4-0.3
		c6-2.8,12.4-4.2,18.7-6c5.7-1.7,11.4-3,17.1-4.5c11.7-3.1,23.5-6.3,35.2-9.4c4.3-1.1,8.7-1.9,13.1-3c2.5-0.6,4.9-1.4,7.4-2.1
		c5.4-1.6,10.7-3.2,16-4.9c1.7-0.5,3.1-0.2,4.3,1.5c-1.1,2.4-3.6,2.5-5.6,3.1c-3.1,0.9-6.2,1.4-9.3,2.3c-12.8,3.9-25.8,7.2-39,9.8
		c-4.8,1-9.5,2.7-14.3,4c-8.3,2.2-16.7,4.4-25,6.6c-9.7,2.6-19.4,5.3-29.1,8.1c-5.2,1.5-10.4,3-15.6,4.6c-3.5,1-7,2.2-10.6,3.2
		c-4,1.1-8,2-12.1,3c-0.8,0.2-1.6,0.2-2.4,0.4c-3.4,0.8-3.7,1.4-3.6,5c0.1,8.9,0,17.9,0.1,26.8c0,8.5,0,16.9,0.1,25.4
		c0,4.5,0.3,8.9,0.3,13.4c0.1,15.2,0.2,30.4,0.3,45.6c0.1,13.3,0.3,26.5,0.4,39.8c0.1,20,0.1,40,0.3,60c0.2,17.7,0.5,35.5,0.7,53.2
		c0.2,17.3,0.1,34.5,0.3,51.8c0.1,8.9,0.4,17.9,0.6,26.8c0,2.2-0.1,4.5-0.1,6.7c0,3.2,0.1,6.4,0.1,9.6c0,3.7,0,7.3,0,11
		c0,6.1,0.1,12.1,0.1,18.2c0.1,9.4,0.3,18.9,0.5,28.3c0,1.8,0,3.5,0,5.3c0,1.4-0.3,2.9-0.2,4.3c0.2,8.3,0.4,16.6,0.7,24.9
		c0,1.6,0.3,3.2,0.1,4.8c-0.8,8.9,0.1,17.9,0,26.8c-0.1,11.3,0,22.7,0.2,34c0,3.2,0.4,6.4,0.9,9.5c0.3,2.2,1.6,3.3,3.6,3
		c3-0.5,5.6,0.7,8.4,1.5c1.7,0.5,3.3,1,4.8,1.5c1.7-1.1,1.5-2.6,1.5-4c-0.1-8.5-0.4-16.9-0.5-25.4c-0.2-15.8-0.3-31.7-0.5-47.5
		c-0.3-24.8-0.7-49.6-1-74.4c-0.3-21.4-0.4-42.9-0.7-64.3c-0.2-11.7-0.5-23.3-0.7-35c-0.2-10.7-0.4-21.4-0.5-32.1
		c-0.1-8,0.1-16,0-23.9c-0.1-5.3-0.5-10.5-0.7-15.8c-0.2-7.3-0.1-14.7-0.3-22c-0.1-2.5-0.4-5.1-0.6-7.6c-0.2-2.2,0.4-4.1,2.2-5.4
		c1.9,0.1,2.1,1.3,2.1,2.6c0,4,0,8-0.1,12c-0.1,5.8-0.4,11.5-0.4,17.3c0,8.8,0.3,17.6,0.4,26.4c0.1,4.3,0.2,8.6,0.2,13
		c0.1,14.2,0.2,28.5,0.3,42.7c0.1,10.2,0.1,20.5,0.2,30.7c0.2,20.1,0.3,40.3,0.5,60.4c0.1,6.2,0.2,12.5,0.2,18.7
		c0.2,19.3,0.4,38.7,0.7,58c0.1,8.5,0.3,16.9,0.4,25.4c0.1,8.1,0.1,16.3,0.2,24.4c0.1,8.3,0.2,16.6,0.4,24.9
		C800.3,650.3,800.5,650.9,800.7,652z"/>
	<path d="M921.1,705.4c-2.7-3.8-2.8-3.8-7.5-5.6c-6.4-2.5-12.8-4.9-19.1-7.7c-4.2-1.9-8-4.4-12.7-5.3c-2.9-0.6-5.7-2.2-8.4-3.4
		c-6.7-2.9-13.6-5.4-20.6-7.7c-1.9-0.6-3.7-1.6-5.6-2.5c1.4-2.3,3-2.7,5-1.9c0.6,0.2,1.2,0.4,1.8,0.6c12,4.8,24,9.7,36,14.5
		c10.5,4.2,21,8.5,31.6,12.7c0.6,0.2,1.2,0.2,2.2,0.4c0.2-1.8,0.6-3.3,0.6-4.8c0.2-8.1,0.8-16.3,0.4-24.4c-0.2-3.7,0.2-7.3,0.3-11
		c0-0.8,0.2-1.6,0.2-2.4c-0.7-11.5,0.6-23,0.8-34.5c0.1-3.8-0.4-7.7-0.3-11.5c0.3-14.2,0.8-28.4,1.1-42.6c0.1-3.8-0.2-7.7-0.1-11.5
		c0.1-6.5,0.3-13.1,0.4-19.6c0.2-11.5,0.4-23,0.6-34.5c0.4-21.4,0.9-42.8,1.2-64.3c0.3-16.9,0.4-33.9,0.7-50.8
		c0.1-8.5,0.5-16.9,0.8-25.4c0.1-2.9,0.1-5.8,0.1-8.6c-0.2-17-0.1-33.9,0.9-50.8c0-0.8,0.1-1.6,0.1-2.4c0-11.2-0.1-22.4-0.2-33.6
		c0-1.4-0.2-2.8-0.3-4.3c-3.1-0.6-5.6,0.3-8.3,0.9c-0.8,0.2-2,0.3-2.6-0.1c-1.7-1.2-3.3-0.8-5-0.5c-9.4,1.8-18.7,4.2-27.7,7.5
		c-0.9,0.3-1.8,0.7-2.8,0.8c-7,1.2-13.6,3.6-20.3,5.6c-1.6,0.5-3.4,0.6-5.2,0.6c-3.4,0.1-6.6,0.6-9.7,2.2c-1.5,0.8-3.3,1.3-5,1.7
		c-8.9,1.9-17.8,3.8-26.7,5.7c-5.2,1.1-10.3,2.3-15.5,3.3c-3.4,0.7-6.9,1.1-10.4,1.5c-1.7,0.2-3.5,0.5-5.4-0.8
		c0.7-0.8,1.2-1.6,1.9-1.9c0.8-0.4,1.9-0.5,2.8-0.5c5.5,0.2,10.7-1.2,16-2.7c3.8-1.1,7.8-1.5,11.7-2.3c3.3-0.7,6.5-1.4,9.8-2.2
		c2.3-0.5,4.7-1.2,7-1.5c11.3-1.5,22.2-4.4,33.1-7.7c10.2-3.1,20.5-6,31.1-8c1.4-0.3,2.8-0.7,4.2-1.2c7.1-2.4,14.3-4.4,21.9-5.2
		c2.1-0.2,4.2-1.4,6.1-2.4c1.4-0.7,2.5-1.3,3.9-0.2c0.4,0.3,0.9,0.4,1.3,0.5c1.2,0.2,2.8-0.1,2.8,1.8c0,1.8-1.6,1.7-2.7,2.2
		c-0.4,0.2-0.8,0.5-1.6,0.9c-0.2,1.7-0.7,3.5-0.7,5.4c-0.2,12.6-0.3,25.3-0.6,37.9c-0.1,8.1-0.5,16.3-0.6,24.4
		c-0.3,17.1-0.5,34.2-0.8,51.3c-0.4,21.7-0.9,43.5-1.3,65.2c-0.4,22.5-0.7,45.1-1.1,67.6c-0.3,21.9-0.6,43.8-1,65.7
		c-0.3,17.7-0.4,35.5-0.9,53.2c-0.6,18.4-0.5,36.8-0.9,55.1c-0.1,4-0.4,8-0.6,11.9c0,0.3,0.1,0.7-0.1,0.9
		C925.3,701.5,924.4,704.7,921.1,705.4z"/>
	<path d="M19.7,905.9c2.3-1.8,4.4-3.7,6.8-5.3c1.4-0.9,3.2-1.5,4.9-1.9c4.7-1,9.4-2,14.1-2.6c2.5-0.3,5.1,0,7.5,0.7
		c2.1,0.6,4,0.7,6.1,0.3c3.9-0.8,7.8-1.5,11.7-2.3c12.2-2.3,24.5-4.3,36.7-6.9c13.6-2.9,27-6.5,40.6-9.5c9.3-2.1,18.8-3.9,28.1-5.8
		c1.6-0.3,3.1-0.6,4.7-1.1c11.7-3.7,23.8-6.1,35.8-8.9c7.8-1.8,15.6-3.2,23.4-4.8c0.8-0.2,1.6-0.4,2.4-0.3c5,0.6,9.8-0.5,14.7-1.4
		c3.1-0.5,6.2-1.3,9.3-1.9c2.7-0.5,5.3-1.1,8-1.5c7.7-1.1,15.5-2.2,23.2-3.3c0.8-0.1,1.6-0.4,2.4-0.4c1.2-0.1,2.3,0.3,2.6,1.5
		c0.3,1.2-0.5,2.1-1.6,2.5c-0.7,0.3-1.5,0.4-2.3,0.6c-6.9,1.2-13.8,2.6-20.7,3.7c-7.1,1-14.3,1.5-21.4,2.6
		c-8.1,1.2-16.1,2.6-24.1,4.2c-16.9,3.4-33.8,6.9-50.6,10.7c-10,2.2-19.8,5.1-29.7,7.6c-4.3,1.1-8.7,1.9-13.1,2.8
		c-9.2,2-18.4,3.9-27.6,5.9c-14.7,3.2-29.3,6.5-44,9.5c-13.4,2.8-27,5.2-40.5,7.7c-1.1,0.2-2.2,0.3-3.3,0.2
		C22,908.5,20.4,907.8,19.7,905.9z"/>
	<path d="M766.7,333.1c-1.4,0-2.9,0-4.5,0c-16.4-0.4-32.9-0.6-49.3-1.2c-7-0.2-14-0.8-21-1.6c-10.2-1.1-20.4-1.1-30.6-0.9
		c-3.8,0.1-7.7,0.1-11.5,0.1c-1.6,0-3.1-0.2-4.5-0.3c-0.6-2,0.5-2.4,1.6-2.5c5.1-0.3,10.2-0.5,15.3-0.8c3.2-0.2,6.3-0.3,10.4-0.5
		c-3.5-1.7-7.4,0.4-9.4-3.8c1.3-0.3,2.3-0.8,3.2-0.7c6.4,0.4,12.8,0.8,19.1,1.5c7.9,0.9,15.8,2.3,23.7,3.3c3.3,0.4,6.7,0.5,10,0.7
		c14.3,0.9,28.7,1.9,43,2.8c1.3,0.1,2.6,0.1,3.8,0.4C767.6,330.2,767.8,331.3,766.7,333.1z M682.9,325.2c-2.9-1.2-2.9-1.2-5.7-0.8
		C678.9,325.3,680.6,325.9,682.9,325.2z M689.1,328.2c0-0.2,0-0.3,0-0.5c-1.4,0-2.7,0-4.1,0c0,0.2,0,0.3,0,0.5
		C686.4,328.2,687.7,328.2,689.1,328.2z"/>
	<path d="M635.6,100c2,0.2,2.7,1.6,2.9,3.3c0.4,3.3,0.9,6.7,1,10c0.2,3.7,0.1,7.4,0,11c-0.1,3.8-0.5,7.6-0.7,11.5
		c-0.1,1.8-0.5,3.5-0.5,5.3c0.1,9.1,0.3,18.2,0.3,27.3c0,7.3-0.5,14.7-0.7,22c0,1.3-0.3,2.6-0.3,3.8c0.4,9.1,0.9,18.2,1.1,27.3
		c0.2,7.3,0.2,14.7,0.3,22c0,4,0,8,0,12c0,2.4,0.1,4.8-0.1,7.2c-0.1,1.4-0.5,2.8-1.1,4.1c-0.2,0.4-1.1,0.8-1.6,0.7
		c-0.5-0.1-1.2-0.7-1.3-1.1c-0.1-1.1,0-2.2,0.1-3.3c0.4-7.6,1.2-15.3,1.1-22.9c-0.1-17.4-1.4-34.8-0.8-52.3
		c0.3-8.9-0.5-17.9-0.5-26.8c0-9.4,0.5-18.8,0.7-28.3c0.1-3.2,0-6.4-0.1-9.6c-0.1-3.4-0.2-6.7-0.4-10.1c-0.2-3.2-0.5-6.3-0.9-9.5
		C634,102.1,634,100.8,635.6,100z"/>
	<path d="M635.3,419.6c-1.1-1.3-2.1-1.9-2.1-2.6c0-4.9-1.5-9.8-0.7-14.8c0.2-1.2,0-2.6-0.1-3.8c-0.8-6.5-1.2-13-0.7-19.6
		c0.2-2.7,0.2-5.4,0.2-8.1c-0.1-11.6-0.3-23.3-0.3-34.9c0-5.3,0.4-10.5,0.6-15.8c0.2-4.6,0.3-9.3,0.6-13.9
		c0.4-7.5,0.9-14.9,1.4-22.5c0.4-0.2,0.8-0.5,1.2-0.5c2.4,0.1,3.1,0.7,2.7,2.7c-0.3,1.7-0.8,3.4-1,5.2c-0.4,3.6-0.5,7.3-1,11
		c-0.6,5.4-1.5,10.7-2,16.1c-0.3,3.2-0.3,6.4-0.2,9.5c0.2,5.9,0.6,11.8,0.7,17.7c0.1,5.3-0.1,10.5-0.2,15.8c0,1.6,0.1,3.3-0.4,4.7
		c-1.8,5.2-1,10.4-0.3,15.6c0.3,2.2,0.7,4.4,0.8,6.6c0.3,9.4,0.6,18.8,0.9,28.2C635.3,417.1,635.3,417.9,635.3,419.6z"/>
	<path d="M140,489.2c-2.4-2.4-2.3-4.5-2.2-6.5c0.2-3,0.5-6.1,0.8-9.1c1-10.1,0.4-20.1,0.2-30.2c-0.2-9.3-0.4-18.5-0.7-27.8
		c-0.1-2.9-0.6-5.7-1.1-8.5c-0.3-1.5-0.3-2.8,0.8-4c1.1-1.1,2.7-0.8,3,0.7c0.3,1.4,0.4,2.9,0.4,4.3c0.3,13.6,0.7,27.2,0.9,40.7
		c0.1,6.9-0.1,13.7-0.2,20.6c-0.1,5.4-0.4,10.8-0.8,16.3C141,486.7,140.5,487.7,140,489.2z"/>
	<path d="M169.2,404.5c2.4-0.5,3.3,0.1,3.6,1.7c0,0.2,0,0.3,0,0.5c0.1,8.1,0.3,16.3,0.4,24.4c0.1,4.6,0.1,9.3,0.1,13.9
		c-0.2,11-0.5,22.1-0.8,33.1c0,1.4-0.2,2.9-0.7,4.2c-0.2,0.6-1.2,1.3-1.7,1.2c-0.6-0.1-1.2-1-1.4-1.6c-0.3-0.7-0.3-1.6,0-2.3
		c1.8-5.9,1.6-12,1.6-18.1c-0.2-15.8-0.6-31.7-0.9-47.5c0-1.3-0.3-2.5-0.3-3.8C169,408.3,169.1,406.5,169.2,404.5z"/>
	<path d="M118.9,627.2c-4.4-0.2-8.9,1.9-13.2-1.1c-6.6,2.4-13.7,2.2-20.7,2.1c1.8-1.2,3.8-1,5.8-1.1c4.1-0.2,8.2-0.1,12.3-1.6
		c3.1-1.1,6.6-1.2,9.9-1.5c9.1-0.9,18.1-1.7,27.2-2.5c2.7-0.2,5.4-0.2,8.1-0.2c11.8-0.3,23.6-0.6,35.4-0.9
		c8.3-0.3,16.6-0.3,24.9-1.1c4.8-0.5,9.5-0.9,14.3-1c1.7-0.1,3.5,0,5.2,0.5c-6.3,0.3-12.7,0.6-19,1c-5.7,0.3-11.5,0.8-17.2,1.1
		c-11,0.4-22,0.7-33,1.2c-11,0.5-22,1.1-33,1.9c-4.6,0.3-9.1,1.2-13.7,2.2C114.2,627.4,116.7,626.5,118.9,627.2z"/>
	<path d="M129.6,790.2c-2.3-0.2-4.4-0.1-6.4,1.4c-0.9,0.6-2.1,0.9-3.2,1c-3.5,0.4-7,1.1-10.5,1c-4.2-0.1-8.2,0.8-12.3,1.5
		c-4.7,0.7-9.5,1.1-14.2,1.5c10-3.3,20.4-4.9,30.7-6.3c6-0.8,12-1.7,18-2.5c3.6-0.5,7.3-0.7,11-1.2c4.6-0.6,9.1-1.4,13.7-2
		c1.5-0.2,3.1-0.2,4.8,0.2c-1.6,0.4-3.2,0.8-4.9,1c-6,0.8-12,1.4-18,2.3C135.4,788.6,132.5,789.5,129.6,790.2
		C129.5,790.3,129.6,790.2,129.6,790.2z"/>
	<path d="M635.5,475.3c1.9,2.8,1.6,5.7,1.4,8.5c-0.1,2.1-0.4,4.1-0.8,6.2c-2.3,11-2.8,22.1-3.5,33.2c-0.1,1.1-0.1,2.2-0.4,3.3
		c-0.1,0.5-0.7,0.8-1.5,1.6c-0.5-1.1-1.1-1.7-1.1-2.4c0-6.7-0.5-13.3,1.2-19.9c1.5-6,2-12.2,2.8-18.4c0.4-3.3,0.7-6.7,1.1-10
		C634.9,476.7,635.3,476,635.5,475.3z"/>
	<path d="M157.2,706.3c-2.9,1.7-6.2,1.1-9.3,1.9c-2.3,0.6-4.7,0.7-7.1,1.2c-0.9,0.2-1.7,0.6-2.9,1.1c1,0.5,1.6,0.8,2.7,1.3
		c-5.6,0.3-10.6,0.4-15.5,1c-4.9,0.6-9.7,1.8-14.9,2.9c0.7-0.7,1.2-1.3,1.8-1.8c-0.1-0.1-0.1-0.3-0.2-0.4c-0.1-0.1-0.3-0.2-0.4-0.2
		c-10.2,0-20.4,0-30.7-0.6c4.8-0.1,9.6-0.1,14.3-0.2c4.1-0.1,8.3-0.3,12.4-0.4c3-0.1,6-0.3,9.1-0.2c5.5,0.3,10.8-0.8,16.1-1.9
		C140.8,708.2,149,706.8,157.2,706.3L157.2,706.3z"/>
	<path d="M636.2,468c-0.4-0.9-0.7-1.3-0.7-1.7c-0.3-2.7-0.8-5.4-0.9-8.1c-0.3-7-0.5-14-0.8-21c-0.1-3.9-0.3-7.8,1-11.7
		c0.5,2.3,1.1,4.6,1.4,6.9c1.2,11.1,1.1,22.2,0.7,33.4C636.9,466.4,636.6,467,636.2,468z"/>
	<path d="M55.6,5.4C49.8,7,47.8,6.7,18.4,0.4c4.3-0.9,8.1-0.2,11.8,0.1c8.1,0.6,16.1,2.2,24,4.2C54.7,4.9,55.1,5.2,55.6,5.4z"/>
	<path d="M20.1,228.5c-0.5-0.6-0.8-1.1-1.2-1.6c-1.2,0.4-2.5,0.9-4.5,1.6c1.2-2.3,2.9-2.9,4.3-3.8c4.1-2.5,8.2-4.7,13.3-4.6
		c1.4,0,2.9-1,4.3-1.7c5-2.6,10.1-5.2,15.1-7.8c0.3,0.5,0.4,0.6,0.4,0.7c0,0.1-0.1,0.3-0.2,0.4c-9.6,5.3-19.2,10.5-28.9,15.8
		C21.9,227.9,21,228.1,20.1,228.5z"/>
	<path d="M25.7,313.1c12.6-6.4,25.2-12.8,37.9-19.2c0,2.2-1.7,1.8-2.5,2.4c-1,0.7-2.3,1.1-3.4,1.7c-1.1,0.6-2.3,1.1-3.4,1.8
		c-1.1,0.6-2.1,1.3-2.9,2.7c1.9-0.5,3.7-1,5.6-1.5c-2.9,2.7-6.6,3.2-10,4.7c-3.5,1.6-7.1,2.7-10.7,4.2c-3.5,1.4-6.8,3.3-10.4,4.3
		C25.9,313.7,25.8,313.4,25.7,313.1z"/>
	<path d="M574.5,279.7c0.1-0.2,0.2-0.4,0.3-0.4c5-0.5,10.1-1.1,15.1-1.5c1.8-0.2,3.5,0.2,4.1,2.6c-0.4,0.3-0.8,1-1.3,1.1
		c-5.3,0.9-10.5,2.4-15.9,0.6C575.4,281.7,574.9,280.9,574.5,279.7z"/>
	<path d="M343.5,264.6c-1.5,2.9-3.4,4.3-6.9,3.6c-2.6-0.5-5.4-0.4-7.9-0.5c-1.1-1.1-1.2-2-0.3-3.1c1.6-2,3.9-2.1,6.1-2
		C337.5,262.9,341,261.2,343.5,264.6z"/>
	<path d="M282.6,618.1c5.3,0.6,9.8,1,14.2,3c-6.7,0-13.5-0.1-20.2,0c-6.7,0.2-13.4,0.4-20,1c-6.8,0.6-13.6,0.9-20.5,0.5
		c4.6-0.3,9.3-0.7,13.9-0.9c5.6-0.3,11.1-0.4,16.7-0.6c4.8-0.2,9.5-0.3,14.3-0.6C282,620.4,283.6,620.6,282.6,618.1z"/>
	<path d="M63.6,315.1c-4.3,1.5-8.7,2.9-13,4.4c-4.2,1.5-8.5,2.8-12.5,4.7c-4.2,1.9-8.3,3.6-12.7,5c-0.2-0.3-0.4-0.6-0.6-0.8
		c0.4-0.2,0.8-0.4,1.2-0.6c5.3-2.6,10.6-5.2,15.9-7.8c0.6-0.3,1.2-0.7,1.8-0.7c6.2-0.1,11.7-2.8,17.6-4.2c0.7-0.2,1.4-0.3,2.2-0.5
		C63.5,314.7,63.5,314.9,63.6,315.1z"/>
	<path d="M242.7,775c3.7,0,7.5,0.1,11.2,0c7.2-0.2,14.3-0.6,21.5-0.8c6.9-0.1,13.7-0.1,20.6,0c1.2,0,2.4,0.5,4.1,0.8
		c-1.5,1.9-3.2,2-4.4,1c-1.8-1.6-3.8-1.5-5.8-1.4c-4,0.1-7.9,0.5-11.9,0.7c-1.6,0.1-3.2,0.1-4.8,0.2c-6.5,0.2-13.1,0.5-19.6,0.7
		c-3.6,0.1-7.3-0.2-10.9-0.3C242.7,775.5,242.7,775.2,242.7,775z"/>
	<path d="M51.2,400.3c-1.9,0.3-3.8,0.3-5.6,0.9c-5.4,1.8-10.7,3.9-16.1,5.9c-1.3,0.5-2.6,0.8-4.2,0.5c1.3-0.7,2.6-1.6,4-2
		c10.9-3.6,21-9.7,32.7-11c-2.7,0.9-5.4,1.7-8.1,2.6c-1.6,0.5-3,1.2-2.8,3.3L51.2,400.3z"/>
	<path d="M27.1,216.2c2.7-2.8,5.5-5.5,8.5-8.6c-1.8-0.3-3.3-0.5-5.1-0.9c3.5-1.4,11.2-1.1,17.1,0.7c-3.1,1.5-6,0-8.3,0.5
		c-1.8,1.6-3.3,3-4.8,4.4c-0.8,0.8-0.2,1.4,0.3,2l-0.1-0.1C32.4,216.1,29.8,216.2,27.1,216.2C27.1,216.1,27.1,216.2,27.1,216.2z"/>
	<path d="M30.2,385.1c8.8-1,17.4,0.3,26.1,0.4c0.4,0,0.8,0.4,1.5,0.9c-0.8,0.5-1.2,1-1.7,1C47.5,387.5,38.8,386.5,30.2,385.1z"/>
	<path d="M30.1,457.1c2.4-2.6,5.6-4.2,8.8-5.6c2.9-1.3,5.8-2.5,8.7-3.7c1.2,1.3,1.2,1.3,4.6,1.2C44.4,452.2,37.6,455.6,30.1,457.1
		L30.1,457.1z"/>
	<path d="M209.7,706.8c0.9-0.3,1.8-0.8,2.7-0.9c8.1-0.8,16.2-1.4,24.3-2.3c5.1-0.5,10.1-1.4,15.2-2.1c1.7-0.2,3.5-0.3,5.3,0.1
		c-7.6,1-15.1,1.9-22.7,2.9c-3.8,0.5-7.6,0.9-11.4,1.2c-2.7,0.3-5.4,0.4-8.1,0.6C213.1,706.5,211.4,706.6,209.7,706.8L209.7,706.8z"
		/>
	<path d="M148.3,789.4c3.6-1.5,7.4-1.4,11.2-1.8c6.2-0.7,12.3-1.3,18.5-1.9c4.2-0.4,8.5-0.9,12.7-1.1
		C176.6,786.8,162.5,788.5,148.3,789.4L148.3,789.4z"/>
	<path d="M891.3,323.4c-2.1,2.7-4.9,3.5-8.1,5.2c0.9-2,2.2-2.1,3.2-2.7c1-0.6,2-1.2,4-2.4c-9.1-1.8-17.1-0.3-26.1-0.8
		c2.8-2.1,5.4-2.1,7.9-3.8c-0.8,1.3-1.1,1.9-1.7,3c4.6,0.3,8.8,0.5,13.1,0.1C886.2,321.6,888.7,321.2,891.3,323.4z"/>
	<path d="M35.7,435.8c-4.9,3.2-10.3,4.5-15.2,6.9c-1.2,0.6-2.5,0.7-4,0.3c1.8-0.9,3.5-1.9,5.4-2.8c3.4-1.7,6.8-3.3,10.3-4.9
		C33.1,435,34.3,434.1,35.7,435.8z"/>
	<path d="M82.2,231c0.2-1.1,0.2-1.5,0.4-2.5c-8.5,2.8-16.7,5.5-24.9,8.3c7.3-4.2,15.6-6,23.5-8.8c1.4-0.5,3-1.1,4.8-0.1
		C85.5,229.8,84.1,230.3,82.2,231z"/>
	<path d="M46,287.7c-8,0.2-16,0.3-24.1,0.5C25.5,286.6,40.3,285.8,46,287.7z"/>
	<path d="M19.5,233.4c6.1-5,13.3-8,20-12c0.3,0.6,0.6,1,0.5,1C33.5,226.6,26.7,230.5,19.5,233.4z"/>
	<path d="M48,403.2c-2.5,1.3-5,2.8-7.6,3.8c-5,2.1-10,3.9-15.1,5.8c-0.8,0.3-1.7,0.5-2.7,0.3C30.8,408.9,39.2,405.5,48,403.2
		C48.1,403.3,48,403.2,48,403.2z"/>
	<path d="M65.7,297.8c7.3-2,14.5-3.9,21.8-5.9C80.6,295,73.4,297,65.7,297.8z"/>
	<path d="M40.8,798.1c3.8-0.6,7.5-1.4,11.3-1.8c4.8-0.5,9.7-0.7,15.5-1c-1.3,0.7-1.7,1-2.1,1.1c-8.2,0.7-16.4,1.4-24.6,2.1
		C40.8,798.3,40.8,798.2,40.8,798.1z"/>
	<path d="M13.4,631c3-2.7,5.8-0.3,8.8-0.6c2.8-0.4,5.6-0.1,8.7-0.1c-2.2,1.1-2.2,1.1-5.7,1.1c-1.9,0-3.8,0.1-5.7,0
		C17.4,631.3,15.4,631.1,13.4,631z"/>
	<path d="M29.9,236.2c-3.8,2.6-8.1,4-12.5,5.1c2.6-3.4,6.6-4.5,10.1-6.4C28.3,235.4,29.1,235.9,29.9,236.2
		C29.9,236.3,29.9,236.2,29.9,236.2z"/>
	<path d="M44.4,295.6c-5.6,3.1-10.5,7.6-17.3,9C29.3,302.2,36,298.6,44.4,295.6z"/>
	<path d="M73.9,331.9c3.8-0.8,7-3.8,11.7-3.5c-1.6,2.4-4,2.7-5.6,4.1C77.7,334.3,75.9,331.5,73.9,331.9z"/>
	<path d="M29.3,248.6c-6.1,3.4-6.5,3.5-9.7,3c2.3-2.1,4.6-3.5,7.2-4.8C27.6,247.3,28.3,247.9,29.3,248.6z"/>
	<path d="M53.1,254.6c4.1-1.3,8.2-2.5,12.3-3.8c3.2-1,6.4-1.9,10.2-3C71.3,250.7,59.7,254,53.1,254.6L53.1,254.6z"/>
	<path d="M89.4,341.5c-3.6,0.7-7.2,1.3-10.7,2.1c-3.4,0.8-6.6,1.9-10,2.6C75.1,342.7,82.1,341.7,89.4,341.5z"/>
	<path d="M37.4,426c0.3,0.6,0.6,1,1,1.6c-2.8,2.3-6.2,3-9.5,3.8C31.5,429.2,34.1,427.1,37.4,426z"/>
	<path d="M89.9,286c-4.1,0-8.1,0-13,0c1.1-0.8,1.6-1.3,2.2-1.4c3.7-0.6,7.3-0.2,11,0.2C90,285.1,89.9,285.5,89.9,286z"/>
	<path d="M62.7,209.4c-1.5-0.6-2.9-1.2-4.2-1.7c6.7-0.5,6.7-0.5,14.2-3.9c-2.1,1.9-3.8,4.2-6.9,4.6
		C64.8,208.6,63.7,209.1,62.7,209.4L62.7,209.4z"/>
	<path d="M250.9,695.2c-6.9,0.9-13.8,1.8-20.8,1C237,695.8,244,695.5,250.9,695.2C251,695.2,250.9,695.2,250.9,695.2z"/>
	<path d="M53.1,714.4c-4.6,1.3-9.4,2-14.3,0.5C43.5,714.7,48.3,714.5,53.1,714.4z"/>
	<path d="M63.4,420.4c5.2-2.1,10.4-4.1,15.6-6.2c0.1,0.2,0.2,0.3,0.2,0.5c-0.3,0.3-0.6,0.7-1,0.8c-4.8,2-9.7,3.9-14.5,5.8
		C63.6,421,63.5,420.7,63.4,420.4z"/>
	<path d="M91.7,482.5c-3.5,0-7.1,0-10.6,0c3.4-1.6,7-1.2,10.5-1C91.6,481.8,91.6,482.1,91.7,482.5z"/>
	<path d="M53.6,629.1c-5.1,1.7-10.3,1.3-15.5,0.9C43.3,629.7,48.4,629.4,53.6,629.1z"/>
	<ellipse cx="60.8" cy="286.7" rx="14" ry="0.3"/>
	<path d="M63.5,216.1c-4,3.3-8.9,4.9-13.6,7.1C54.5,220.9,58.2,217,63.5,216.1L63.5,216.1z"/>
	<path d="M104.1,717c-5.1,1-10.2,1.9-15.4,2.9c0-0.2-0.1-0.4-0.1-0.7c5.2-1,10.4-2,15.6-3C104.2,716.5,104.2,716.7,104.1,717z"/>
	<path d="M150.2,710.5c4.2-0.3,8.4-0.6,12.7-0.9C158.7,711.6,154.4,710.9,150.2,710.5z"/>
	<path d="M77.2,210.5c1-1.9,2.4-2.9,4.6-2.8c2.4,0.1,4.8,0.1,7.2,0.2c0.7,0,1.4,0.4,1.9,1.2c-2.3-0.2-4.6-0.9-6.9-0.6
		C81.6,208.7,79.4,209.7,77.2,210.5L77.2,210.5z"/>
	<path d="M85.5,421.9c1.9,0.8,2.8,1.1,3.9,1.5c-1.7,4.2-5.4,5.3-8.9,6.8c2.3-1.7,4.6-3.5,7.1-5.3C87,424,86.6,423.4,85.5,421.9z"/>
	<path d="M53.3,799.7c-4.3,2-8.9,1.7-13.4,2C44.4,801,48.8,800.4,53.3,799.7z"/>
	<path d="M60,713.6c4.6-0.3,9.1-0.6,13.7-0.9C69.2,714.5,64.6,713.6,60,713.6z"/>
	<path d="M157.3,706.4c2.2-0.5,4.4-1.1,6.6-1.4c3.5-0.5,7-0.7,10.5-0.8C168.7,705.2,163.1,706.8,157.3,706.4L157.3,706.4z"/>
	<path d="M236.5,617.9c4.5,0,9,0,13.6,0c0,0,0,0.1,0,0.1c-4.5,0.3-9.1,0.6-13.6,0.9C236.4,618.6,236.4,618.3,236.5,617.9z"/>
	<path d="M64.7,387.2c4.5,0.4,9.1,0.7,13.6,1.1c-4.6,0.4-9.1,0.8-13.6-0.1C64.6,387.8,64.7,387.5,64.7,387.2z"/>
	<path d="M65.3,798.3c4-0.5,8.1-1.1,12.1-1.6c0,0.3,0.1,0.6,0.1,0.8c-4.1,0.5-8.1,0.9-12.2,1.4C65.4,798.7,65.4,798.5,65.3,798.3z"
		/>
	<path d="M209.7,706.8c-4.8,0.6-9.7,1.1-14.5,1.7C197.6,706.9,204.3,706.4,209.7,706.8L209.7,706.8z"/>
	<path d="M59.1,349.2c-3.5,2-7.4,2.9-11.2,3.7C51.4,351,55.1,349.8,59.1,349.2z"/>
	<path d="M81,316.3c-3.3,1.8-6.6,3.5-9.9,5.3c1.9-2.5,6.1-4.9,9.6-6C80.7,315.6,80.8,316,81,316.3z"/>
	<path d="M172.3,710.2c3.8-2,7.9-1.1,11.9-1C180.2,709.5,176.3,709.8,172.3,710.2z"/>
	<path d="M62,629.6c4.4-1.9,9-1.2,13.5-1c-2.2,0.2-4.4,0.5-6.5,0.6C66.7,629.4,64.3,629.5,62,629.6z"/>
	<path d="M216.1,623.4c5.3,0,9.6,0,14,0c0,0.1,0,0.2,0,0.3c-4.3,0.3-8.6,0.5-12.8,0.7C217.1,624.4,217,624.2,216.1,623.4z"/>
	<path d="M57.7,342.8c-3.3,2.7-7.2,4.1-11,5.7C50,345.8,53.7,344,57.7,342.8L57.7,342.8z"/>
	<path d="M74.7,355.9c3.4-1.9,6.7-3.8,10.1-5.8C82,353.1,78.5,354.8,74.7,355.9z"/>
	<path d="M830.1,318.4c2.4,0.8,2.8,2.2,2.6,3.6c-0.3,2.8-2.2,4.4-4.6,5.7c0-0.3-0.1-0.7,0-0.8C830.4,324.6,833.2,322.5,830.1,318.4z
		"/>
	<path d="M234.7,776.3c-4.1,0.3-8.2,0.7-12.2,1C226.3,775.4,230.4,775.9,234.7,776.3z"/>
	<path d="M77.1,210.4c-4.3,2.6-8.8,4.4-13.6,5.7l0.1,0.1C67.5,213,72.3,211.6,77.1,210.4L77.1,210.4z"/>
	<path d="M195.4,624.4c4.4,0,8.9,0,13.3,0c0,0.1,0,0.1,0,0.2c-4.4,0.2-8.8,0.5-13.2,0.7C195.5,625,195.5,624.7,195.4,624.4z"/>
	<path d="M66.7,410.6c-3,1.6-6.1,3.2-9.3,4.8C59.2,413.1,61,412.1,66.7,410.6z"/>
	<path d="M56.6,230.1c3-1.7,6.1-3.4,9.4-5.2C64.2,227.6,61.7,229.1,56.6,230.1z"/>
	<path d="M276.1,698.9c-4,0.6-8,1.2-11.9,1.8c0-0.3-0.1-0.5-0.1-0.8c4-0.6,7.9-1.1,11.9-1.7C276,698.4,276.1,698.7,276.1,698.9z"/>
	<path d="M185.6,625.7c-4.1,0-8.1,0-12.2,0c0-0.1,0-0.2,0-0.4c4,0,8,0,12,0C185.4,625.4,185.5,625.5,185.6,625.7z"/>
	<path d="M26.5,346.2c2.3-2.8,5.6-3.9,8.9-5.1c-1.5,0.9-3.1,1.8-4.6,2.6C29.3,344.6,27.9,345.4,26.5,346.2z"/>
	<path d="M70.5,455.8c-2.1,2.7-5.2,3.9-8.4,4.9c1.4-0.8,2.7-1.6,4-2.3C67.6,457.5,69.1,456.6,70.5,455.8z"/>
	<path d="M33.9,232.9c1.8-0.6,3.6-1.2,5.4-1.9c-2.7,2.6-5.5,4.2-9.4,5.2l0.1,0.1c0.8-1.5,3.1-1.7,3.2-3.7
		C33.4,232.7,33.7,232.8,33.9,232.9z"/>
	<path d="M184,703.4c0.8-0.7,1-1,1.2-1c3.4-0.5,6.8-0.9,10.3-0.8C192,702.1,188.3,702.7,184,703.4z"/>
	<path d="M80.1,310.4c3.2-2.5,6.9-2.2,10.7-2.1C87.2,309,83.6,309.7,80.1,310.4L80.1,310.4z"/>
	<path d="M131.3,626.3c3.8,0,7.6,0,11.4,0c0,0.2,0,0.3,0,0.5c-3.8,0-7.7,0-11.5,0C131.1,626.6,131.2,626.4,131.3,626.3z"/>
	<path d="M261.7,617.6c3.5,0,6.9,0,10.4,0c0,0.1,0,0.3,0,0.4c-3.5,0-7,0-10.4,0C261.6,617.9,261.6,617.8,261.7,617.6z"/>
	<path d="M48.1,403.3c1-1,2.1-2,3.1-3l-0.1,0.1c1.9-0.3,3.8-0.6,5.7-0.9l-0.1-0.1C54.7,402.7,51.3,402.7,48.1,403.3L48.1,403.3z"/>
	<path d="M64.7,486c4.3-2.4,5.2-2.6,10-2.4C71.3,484.4,68,485.1,64.7,486L64.7,486z"/>
	<path d="M43.1,475.1c-2.2,2.2-5.1,2.6-8.4,3.8C36.7,476.7,37.9,476.2,43.1,475.1L43.1,475.1z"/>
	<path d="M53.1,254.6c-1.9,0.5-3.8,1.1-5.8,1.5c-1.1,0.2-2.4,0-2.5-1.4c0-0.6,1-1.3,1.5-2c0,0-0.1-0.1-0.1-0.1
		c0.1,1.2,0.4,2.2,1.8,2.2C49.7,254.8,51.4,254.7,53.1,254.6L53.1,254.6z"/>
	<path d="M62.6,209.4c-2.2,2.5-5.1,3.8-8.2,4.9C56.9,212,59.7,210.5,62.6,209.4L62.6,209.4z"/>
	<path d="M35.6,353.1c0,1.7,0,2.6,0,3.8c-1.1,0.1-2.2,0.1-3.4,0.2c0-0.6-0.1-1,0-1.2C33.1,355.1,34,354.3,35.6,353.1z"/>
	<path d="M29.9,348.6c-2.3,1.8-5,2.5-7.9,2.6C24.5,350.1,26.9,348.4,29.9,348.6L29.9,348.6z"/>
	<path d="M57,428.3c-2.3,0.8-4.5,1.6-6.8,2.4c1.7-2,4.1-2.4,6.4-3.3C56.7,427.7,56.9,428,57,428.3z"/>
	<path d="M30.2,800.1c-1,2.1-2.3,2.7-4.5,2C26.6,799.9,28.3,800.3,30.2,800.1z"/>
	<path d="M155.9,626.4c-1.4,0-2.8,0-4.9,0C153,624.9,154.5,625.3,155.9,626.4z"/>
	<path d="M209.2,782.2c-3,0.6-6,1.2-9,1.9C202.9,781.8,206.2,783,209.2,782.2L209.2,782.2z"/>
	<path d="M43.2,475.2c2.6-1.2,5.1-2.4,7.7-3.7C48.6,473.5,46.2,475.1,43.2,475.2L43.2,475.2z"/>
	<path d="M68.6,238.7c1.6-1,3.2-2,5.1-3.2C72.2,237.9,72.2,237.9,68.6,238.7z"/>
	<path d="M83.8,448.4c2-2.6,4.7-4,7.8-4.7l-0.1-0.1C88.9,445.2,86.3,446.8,83.8,448.4L83.8,448.4z"/>
	<path d="M44,242c1.7-0.8,3.3-1.7,5.4-2.7C47.6,241.4,47.6,241.4,44,242z"/>
	<path d="M873.3,332.6c-1.4,0.7-2.9,1.5-4.9,2.5c1.2-2.2,3.1-2.3,4.6-3c0.1,0,0.3,0,0.4,0C873.3,332.2,873.3,332.3,873.3,332.6z"/>
	<path d="M71.5,723.1c2.2-1.4,4.7-1.5,7.9-1.9C76.4,723.1,73.8,722.7,71.5,723.1L71.5,723.1z"/>
	<path d="M851,349.7c-0.3-2-0.9-4,0.9-6.1C851.6,345.9,851.3,347.8,851,349.7z"/>
	<path d="M257.5,778.3c-2,0-4,0-6,0c0-0.1,0-0.2,0-0.3c1-0.1,2-0.2,3.1-0.3c1.1,0,2.1,0,3.2,0C257.7,777.9,257.6,778.1,257.5,778.3z
		"/>
	<path d="M863.1,371.6c-0.5-2.3-1-4.5-1.7-7.4C864,366.7,864.4,368.9,863.1,371.6L863.1,371.6z"/>
	<path d="M56.8,399.5c1.9-1.5,4-2.4,6.7-3C60.9,398.6,60.9,398.6,56.8,399.5L56.8,399.5z"/>
	<path d="M280.5,777.5c-1.3,0.1-2.6,0.3-3.9,0.4c0-0.2-0.1-0.4-0.1-0.6c1.3,0,2.5,0,3.8,0C280.4,777.3,280.5,777.4,280.5,777.5z"/>
	<path d="M27.1,216.1c-0.5,1.7-1.9,2.3-3.7,3.2C23.8,216.7,25.3,216.2,27.1,216.1L27.1,216.1z"/>
	<path d="M77,257.5c1.2-2.1,3.3-3,5.4-3.8C80.9,255.4,79.2,256.8,77,257.5L77,257.5z"/>
	<path d="M48.3,316.7c1.5-0.9,3-1.7,4.6-2.6C52,316.1,50.4,316.7,48.3,316.7z"/>
	<path d="M863,371.6c-0.4,2.4-2.2,3.5-4.3,4.5C860.1,374.6,861.6,373.1,863,371.6L863,371.6z"/>
	<path d="M72.5,435.4c-1.2,0.7-2.5,1.5-3.7,2.2C69.4,435.8,70.8,435.3,72.5,435.4z"/>
	<path d="M83.7,448.4c-1.6,1.1-3.3,2.3-4.9,3.4C79.9,449.8,81.9,449.1,83.7,448.4L83.7,448.4z"/>
	<path d="M30,457c-1.3,1.2-2.7,2.3-5.4,2.6C26.6,457.5,28.3,457.3,30,457L30,457z"/>
	<path d="M72.1,464c-1.2,0.5-2.5,1-3.7,1.4c-0.1-0.2-0.2-0.4-0.3-0.7c1.3-0.6,2.5-1.1,3.8-1.7C72,463.4,72.1,463.7,72.1,464z"/>
	<path d="M29.9,348.6c2.3-1.6,4.8-2.7,7.6-2.9l-0.1-0.1C35.3,347.5,32.7,348.3,29.9,348.6L29.9,348.6z"/>
	<path d="M73.2,475.3c1.3-1.7,3.1-2.4,5.3-2.4C76.7,473.7,74.9,474.5,73.2,475.3L73.2,475.3z"/>
	<path d="M33.9,232.9c-0.2-0.2-0.4-0.3-0.7-0.4c0.2-2.2,2.2-2.4,4-3c-0.6,0.6-1.1,1.1-1.7,1.7C35,231.8,34.4,232.4,33.9,232.9z"/>
	<path d="M46.5,420.4c1.3-0.8,2.6-1.6,3.9-2.4C49.8,419.9,48.2,420.3,46.5,420.4z"/>
	<path d="M60.7,481.9c1.4-0.7,2.7-1.4,4.1-2.2c0.1,0.2,0.2,0.4,0.3,0.6c-1.3,0.8-2.7,1.5-4,2.3C61,482.3,60.9,482.1,60.7,481.9z"/>
	<path d="M50.9,490.1c-0.1,0.1-0.2,0.3-0.3,0.3c-0.7,0.1-1.5,0.2-2.2,0.3c0-0.4,0-0.9,0-1.3c0.7,0.1,1.4,0.2,2.1,0.4
		C50.7,489.8,50.8,490,50.9,490.1z"/>
	<path d="M165.7,625.7c-1.6,0.1-3.3,0.2-4.9,0.4c0-0.2,0-0.4,0-0.6c1.6,0,3.3,0,4.9,0C165.7,625.6,165.7,625.6,165.7,625.7z"/>
	<path d="M129.5,790.3c2.6-0.5,5.2-0.5,7.7,0.1C134.7,790.8,132.1,791.6,129.5,790.3L129.5,790.3z"/>
	<path d="M37.6,345.7c2-0.9,3.9-1.8,5.9-2.7C41.8,344.8,39.8,345.6,37.6,345.7L37.6,345.7z"/>
	<path d="M46.3,252.7c0.5-0.6,0.9-1.3,1.4-1.8c0.8-0.7,1.8-1.2,3-2C49.2,251.2,49.2,251.2,46.3,252.7
		C46.2,252.6,46.3,252.7,46.3,252.7z"/>
	<path d="M83.2,402.4c-1.1,0.5-2.2,0.9-3.3,1.4c-0.1-0.2-0.2-0.3-0.3-0.5c1.1-0.6,2.1-1.2,3.2-1.8C83,401.8,83.1,402.1,83.2,402.4z"
		/>
	<path d="M34.7,214.4c0.4-0.5,0.8-1,1.3-1.3c1-0.6,2.2-1.1,3.9-2c-2,2.1-2,2.1-5.2,3.3C34.7,214.3,34.7,214.4,34.7,214.4z"/>
	<path d="M228.4,779.9c1.2-0.1,2.4-0.2,3.6-0.3c0,0.1,0,0.2,0,0.3c-1.3,0.1-2.5,0.1-3.8,0.2C228.3,780.1,228.3,780,228.4,779.9z"/>
	<path d="M66,442.4c-1.3,1.3-2.7,2.4-4.8,2.1c1.6-0.7,3.3-1.3,4.9-2L66,442.4z"/>
	<path d="M48.5,341.4c2.1-1.1,3.3-1.8,5.1-2.7C52,340.7,52,340.7,48.5,341.4z"/>
	<path d="M50.3,427.4c1.2-1,2.3-1.9,3.5-2.9C53.4,426.7,51.7,426.9,50.3,427.4L50.3,427.4z"/>
	<path d="M842.8,388.2c-0.8,0.6-1.6,1.3-2.4,1.9c-0.1-0.2-0.3-0.4-0.4-0.5c0.8-0.6,1.6-1.3,2.4-1.9
		C842.5,387.8,842.6,388,842.8,388.2z"/>
	<path d="M148.2,789.3c-2,0.3-3.9,0.5-5.9,0.8c0-0.2,0-0.5,0-0.7C144.3,789.4,146.3,789.4,148.2,789.3L148.2,789.3z"/>
	<path d="M41.7,226.5c0.9-0.5,1.8-1,2.7-1.4c0.1,0.2,0.2,0.3,0.3,0.5c-0.9,0.6-1.7,1.2-2.6,1.8C42,227.1,41.8,226.8,41.7,226.5z"/>
	<path d="M57.8,342.9c1-1.5,2.6-2,4.2-2.2C60.8,341.8,59.6,342.8,57.8,342.9L57.8,342.9z"/>
	<path d="M80,310.3c-1.6,0.6-3.1,1.2-4.7,1.8C76.6,310.3,78.3,310.2,80,310.3L80,310.3z"/>
	<path d="M897.6,278.5c-1.1-0.2-2.3-0.4-4.3-0.8C895.6,276.7,896.7,277.2,897.6,278.5L897.6,278.5z"/>
	<path d="M43.3,238.2c-1.3,0.7-2.5,1.5-3.8,2.2c-0.1-0.2-0.2-0.5-0.3-0.7C40.5,239.2,41.9,238.7,43.3,238.2L43.3,238.2z"/>
	<path d="M822.8,429.3c0.4-0.8,0.9-1.5,1.3-2.3c0.1,0.1,0.3,0.1,0.4,0.2c-0.3,0.9-0.7,1.7-1,2.6
		C823.3,429.6,823.1,429.4,822.8,429.3z"/>
	<path d="M426.9,248.3c0.7,0,1.4,0,2.1,0c0,0.1,0,0.2,0,0.3c-0.7,0-1.4,0-2.1,0C426.8,248.6,426.8,248.5,426.9,248.3z"/>
	<path d="M897.5,278.6c1,0.6,2,1.2,3.5,2.1C898.7,280.7,898.1,279.6,897.5,278.6L897.5,278.6z"/>
	<path d="M43.4,238.3c0.8-1.3,2.1-1.9,3.6-2.3C46.1,237.4,44.8,238,43.4,238.3L43.4,238.3z"/>
	<path d="M66.1,442.5c1.4-0.5,2.8-1,4.2-1.5c-1.1,1.8-2.8,1.3-4.3,1.4L66.1,442.5z"/>
	<path d="M58.2,312.2c0-0.1-0.1-0.3,0-0.4c0.5-0.3,1-0.6,1.6-0.8c0,0,0.3,0.3,0.4,0.5c-0.4,0.2-0.8,0.5-1.2,0.6
		C58.8,312.2,58.5,312.2,58.2,312.2z"/>
	<path d="M87.3,214.3c-0.6,0.3-1.2,0.7-1.8,1c-0.1-0.2-0.2-0.3-0.3-0.5c0.6-0.4,1.2-0.8,1.8-1.1C87,213.9,87.1,214.1,87.3,214.3z"/>
	<path d="M213.5,699.1c1.4-0.4,2.8-0.9,4.2-1.3C216.5,699.2,214.9,698.7,213.5,699.1L213.5,699.1z"/>
	<path d="M820.1,332.8c-0.5,0.2-1.1,0.4-1.6,0.5c0.5-0.4,1-0.8,1.4-1.2C820,332.3,820.1,332.6,820.1,332.8z"/>
	<path d="M291.2,697.1c-1.5,0.2-3,0.5-4.5,0.7c0-0.2,0-0.4,0-0.6C288.2,697.2,289.7,697.2,291.2,697.1
		C291.2,697.2,291.2,697.1,291.2,697.1z"/>
	<path d="M37.7,474.1c0.7-0.5,1.5-0.9,2.2-1.4c0.1,0.2,0.2,0.3,0.4,0.5c-0.7,0.6-1.5,1.1-2.2,1.7C38,474.6,37.8,474.4,37.7,474.1z"
		/>
	<path d="M625.5,282c0,0-0.1,0.2-0.1,0.2c1-0.3,2-0.6,3.1-0.9C627.6,282.4,626.7,283.2,625.5,282z"/>
	<path d="M26.1,206.3c-0.8,0-1.7-0.1-2.5-0.1c0-0.2,0-0.4,0-0.6c0.8,0,1.6,0,2.4,0C26,205.8,26,206.1,26.1,206.3z"/>
	<path d="M86.9,311.8c0.6-0.2,1.1-0.4,1.7-0.6c-0.5,0.5-0.9,0.9-1.4,1.4C87.1,312.4,87,312.1,86.9,311.8z"/>
	<path d="M271.4,778.1c-0.7,0-1.5,0-2.2,0c0-0.1,0-0.2,0-0.3c0.7,0,1.4,0,2.1,0C271.3,778,271.3,778,271.4,778.1z"/>
	<path d="M72.3,221.8c0.7-0.4,1.4-0.9,2.1-1.3c0.1,0.2,0.2,0.3,0.3,0.5c-0.7,0.5-1.4,0.9-2.1,1.4C72.5,222.2,72.4,222,72.3,221.8z"
		/>
	<path d="M59.6,327.6c-0.8,0.5-1.6,0.9-2.4,1.4c-0.1-0.2-0.2-0.4-0.4-0.6c0.8-0.5,1.5-1.1,2.3-1.6C59.3,327.1,59.5,327.3,59.6,327.6
		z"/>
	<path d="M73.1,475.2c-1.1,0.9-2.1,1.7-3.2,2.6C70.4,476.1,71.5,475.4,73.1,475.2L73.1,475.2z"/>
	<path d="M837.8,409.7c-0.2,0.6-0.4,1.1-0.5,1.7c-0.1-0.4-0.3-0.7-0.2-1.1c0-0.2,0.3-0.5,0.4-0.7
		C837.6,409.6,837.7,409.7,837.8,409.7z"/>
	<path d="M892.7,309.1c0.4-0.3,0.8-0.7,1.2-1c0.1,0.1,0.3,0.3,0.4,0.4c-0.4,0.4-0.8,0.8-1.1,1.1C893,309.4,892.8,309.3,892.7,309.1z
		"/>
	<path d="M64.6,485.9c-1,0.3-2,0.7-2.9,1c0-0.2-0.1-0.3-0.1-0.5C62.6,486.3,63.7,486.1,64.6,485.9L64.6,485.9z"/>
	<path d="M209.3,782.3c1.2-0.2,2.3-0.5,3.5-0.7c0,0.2,0,0.4,0.1,0.6C211.6,782.2,210.4,782.2,209.3,782.3L209.3,782.3z"/>
	<path d="M903.9,286.8c0.1,0.5,0.2,1.1,0.3,1.6c-0.2,0-0.3,0.1-0.5,0.1c-0.2-0.5-0.4-1.1-0.6-1.6
		C903.4,286.9,903.6,286.8,903.9,286.8z"/>
	<path d="M52.1,420.9c0.8-0.4,1.2-0.7,1.7-0.9c-0.1,0.4-0.2,0.7-0.4,1C53.2,421.2,52.8,421,52.1,420.9z"/>
	<path d="M900.3,302.3c0.1-0.3,0-0.6,0.2-0.7c0.2-0.2,0.6-0.3,0.9-0.4c-0.1,0.3-0.2,0.6-0.3,0.8
		C900.9,302.1,900.6,302.1,900.3,302.3z"/>
	<path d="M71.4,723c-1.2,0.3-2.4,0.6-3.6,0.9c0-0.2-0.1-0.4-0.1-0.6C69,723.2,70.2,723.1,71.4,723L71.4,723z"/>
	<path d="M213.4,699c-1.2,0.3-2.4,0.5-3.5,0.8c0-0.2-0.1-0.5-0.1-0.7C211,699.1,212.3,699.1,213.4,699L213.4,699z"/>
	<path d="M61.1,336.9c-0.5,0.2-1,0.4-1.6,0.7c-0.1-0.2-0.2-0.6-0.2-0.6c0.5-0.3,1-0.5,1.5-0.7C60.9,336.5,61,336.7,61.1,336.9z"/>
	<path d="M91.6,398.7c-1.1,0.4-2.1,0.9-3.2,1.3c0-0.3-0.1-0.5-0.1-0.8C89.4,399,90.6,398.9,91.6,398.7L91.6,398.7z"/>
	<path d="M837.4,396.8c0-0.7,0-1.2,0-1.6c0.1,0.2,0.3,0.4,0.3,0.6C837.7,396,837.6,396.2,837.4,396.8z"/>
	<path d="M50.2,427.4c-1,0.5-2.1,1-3.1,1.6C47.7,427.3,49,427.3,50.2,427.4L50.2,427.4z"/>
	<path d="M62.7,365.2c-0.2,0.1-0.6,0.3-1,0.4c-0.1,0-0.4-0.5-0.4-0.6c0.2-0.4,0.5-0.7,0.8-1C62.2,364.2,62.4,364.5,62.7,365.2z"/>
</g>
</svg>
