<?xml version="1.0" encoding="utf-8"?>
<!-- Generator: Adobe Illustrator 25.4.1, SVG Export Plug-In . SVG Version: 6.00 Build 0)  -->
<svg version="1.1" id="Layer_1" xmlns="http://www.w3.org/2000/svg" xmlns:xlink="http://www.w3.org/1999/xlink" x="0px" y="0px"
	 viewBox="0 0 1146.2 1278.5" style="enable-background:new 0 0 1146.2 1278.5;" xml:space="preserve">
<g>
	<path d="M113.5,714.5c7.1,0.2,14-1.7,20.8-3.1c15.2-3.3,30.5-5.3,46-5.8c1.9-0.1,3.9-0.1,5.7-0.4c3.3-0.6,6.5-1.1,9.9,0.1
		c1.8,0.6,4.1-0.1,6.2-0.4c9.2-1.4,18.4-1.9,27.7-1.6c6.1,0.2,12.1,0.1,18.2,0.1c4.3,0,8.6-0.2,12.9-0.2c4.1,0,8.3-0.1,12.4,0.9
		c2,0.5,4.1,0.3,6.2,0.4c2.8,0.2,3.4,1.1,4.7,3.8c3,6.4,4.5,13.3,6.3,20c0.6,2.3,0.9,4.7,1.4,7c0.2,1,0.5,2.1,0.8,3.4
		c1.5-0.5,2.7-0.8,3.9-1.2c6.6-2,13.1-4.1,19.8-5.8c4-1,8.2-1.1,12.3-1.6c0.8-0.1,1.6,0,2.4-0.3c9.3-3,18.9-3.1,28.4-3.7
		c0.5,0,1,0,1.4-0.1c6.3-1.8,12.8-1.1,19.1-0.4c6.4,0.7,12.7,0.6,19.1,1c8.3,0.6,16.6,0.7,24.9-0.5c4.6-0.7,9.2-1.3,13.8-1.7
		c2.4-0.2,4.8,0.2,7.2,0.3c1.1,0.1,2.3,0.3,3.3,0.1c6.1-0.9,12.1-0.4,18.2-0.1c3.2,0.2,6.4,0,9.6,0c2.5,0,5-0.2,7.6,0.6
		c1.9,0.5,4.2,0.1,6.1-0.4c3.9-1,7.9-1.2,11.9-1c11.8,0.3,23.3-1.2,34.6-4.4c4.5-1.3,9-2.4,13.4-3.5c3.1-0.8,6.2-0.5,9.3,0.6
		c-1,0.3-1.9,0.5-3.7,1c4.7,1.3,8.7,2.2,12.8,2c1.8-0.1,3.4,0.3,5,1.2c4.1,2.3,8.5,3.6,13,4.8c3.1,0.9,5.4,0.4,7.5-2.4
		c4.8-6.5,11.3-10.8,18.9-13.4c10.2-3.4,20.4-6.7,30.7-9.3c7.8-2,15.8-2,23.8-1.5c2.7,0.2,5.4,0.4,8.1,0.3c9.8-0.4,19.5,0.4,29.2,1
		c1.1,0.1,2.3,0.3,3.3,0.1c5.7-1.3,11.5-0.5,17.2-0.3c4.3,0.1,8.6,0.2,12.9,0.3c1.9,0.1,3.8,0.4,5.8,0.6c1.6-1,1.3-2.7,1.3-4.2
		c0.4-15.7,0.8-31.3,1.2-47c0.1-4.5,0-9,0-13.4c0.3-15.5,0.7-31,0.9-46.5c0.2-18.9,0.2-37.7,0.3-56.6c0-1.9-0.2-3.7-0.3-5.8
		c-4-0.6-7.7-0.2-11.3-0.3c-3.7-0.1-7.4,0-11.2-0.5c1-0.3,2-0.7,3.5-1.2c-3.4-0.7-9-0.7-11.1,0.6c-1.1,0.7-2,0.8-3.1,0.8
		c-14.7,0-29.4,0-44.1,0c-0.8,0-1.5-0.1-2.5-0.1c0.5-0.6,0.7-1,1.3-1.7c-0.7-0.1-1.2-0.4-1.7-0.3c-2.9,0.3-5.8,0.3-8.6,0.9
		c-6,1.3-12.1,1.3-18.1,1.3c-7.7,0-15.3,0-23,0c-1.9,0-3.8,0.4-5.2-1.7c-0.3-0.5-1.8-0.6-2.7-0.5c-2.4,0.2-4.8,0.3-7.1,0.8
		c-6,1.2-12.1,1.4-18.1,1.4c-6.6,0-13.1,0-19.7-0.1c-2.5,0-5.1,0.6-7.1-1.8c-0.4-0.5-1.8-0.5-2.7-0.4c-2.5,0.2-5.1,0.5-7.6,0.9
		c-7.8,1.2-15.6,1.5-23.4,1c-3.7-0.2-7.3,0.3-11,0.2c-3.1,0-6.4,0.9-9.1-1.9c-0.5-0.5-1.8-0.4-2.8-0.3c-2.2,0.2-4.4,0.6-6.7,0.8
		c-6.1,0.5-12.1,1-18.2,1.2c-5.6,0.2-11.2,0.2-16.8,0c-2.6-0.1-5.4,0.8-7.6-1.7c-0.4-0.4-1.5-0.3-2.3-0.3c-1.9,0.1-3.8,0.2-5.7,0.5
		c-7.9,1.3-15.9,1.5-23.9,1.3c-4.3-0.1-8.6,0.1-13,0c-2.2,0-4.5,0.3-6.4-1.3c-0.5-0.4-1.5-0.4-2.3-0.5c-0.8-0.1-1.6-0.1-2.4,0.1
		c-12.7,2.5-25.5,1.5-38.3,1.7c-2.5,0-5,0.2-7.4-1.4c-1.3-0.8-3.5-0.6-5.2-0.2c-12.2,2.4-24.6,1.3-36.9,1.5c-2.3,0-4.6,0.1-6.9-1.3
		c-1.4-0.9-3.8-0.6-5.6-0.2c-12.4,2.5-24.9,1.3-37.3,1.5c-2,0-4-0.1-6-1.2c-1.5-0.8-3.8-0.6-5.6-0.2c-12.5,2.6-25.2,1.1-37.8,1.4
		c-1.1,0-2.4,0.1-3.3-0.4c-2.7-1.6-5.5-1.1-8.4-0.7c-4.3,0.5-8.6,1.1-12.9,1.2c-7.7,0.2-15.4,0.1-23-0.1c-1.7,0-3.4-0.8-5.1-1
		c-1.9-0.2-3.8-0.6-5.6-0.3c-12.9,2.4-25.9,1-38.8,1.3c-0.8,0-1.7,0-2.3-0.4c-2.5-1.7-5.2-1.2-7.9-0.7c-6.5,1.2-13,1.4-19.6,1.2
		c-1,0-2-0.4-3.4-0.7c1.2-2.1,2.8-1.9,4.4-1.9c7.2,0,14.4,0,21.6,0c17.8,0,35.5,0,53.3,0c15.8,0,31.7,0,47.5,0c14.2,0,28.5,0,42.7,0
		c17.7,0,35.5,0,53.2,0c15.2,0,30.4,0,45.6,0c17.3,0,34.5,0,51.8,0c21.6,0,43.2,0.1,64.8,0.1c13.4,0,26.9-0.2,40.3-0.2
		c22.1,0,44.1,0.1,66.2,0.1c14.1,0,28.2-0.1,42.2-0.1c23.5,0,47,0.1,70.5,0.1c16,0,32-0.1,48-0.2c3.5,0,7,0.1,10.6,0.1
		c1.9,0,3.8-0.1,5.9-0.2c0.3-1.3,0.6-2.4,0.6-3.5c0.1-6.1,0.1-12.2,0.1-18.2c0-3.7-0.7-4.5-4.5-4.6c-5.6-0.2-11.2,0-16.8-0.1
		c-4.1-0.1-8.3-0.5-12.4-0.7c-0.8,0-1.6-0.3-2.4-0.3c-10.1,1-20.1-1.4-30.2-1c-3.8,0.2-7.7-0.2-11.5-0.4
		c-10.4-0.5-20.7-1.1-31.6-1.7c4.9-1.5,9.6-1.3,14.2-1.3c9.3-0.1,18.5,0.3,27.7,1.8c2.2,0.4,4.5,0.4,6.7,0.4c7.2,0,14.4-0.3,21.6,0
		c7.5,0.2,15,0.9,22.5,1.3c4.5,0.2,8.9,0.2,13.4,0.3c0.9,0,1.8-0.3,3-0.5c0.2-1.2,0.4-2.3,0.4-3.3c0-8.2,0-16.3-0.1-24.5
		c0-1.3,0.1-2.6-0.2-3.8c-2.3-8.3-4.4-16.7-8.2-24.5c-1.9-3.8-4.7-5.8-9.9-4.2c-2.7,0.8-5.4,2-8,3.2c-3.1,1.3-6,3-9.2,4.1
		c-2.5,0.8-5.3,1.4-7.9,1.4c-4.7,0-7-2.5-7.1-7.2c-0.1-5.1,0.6-10.2,1.9-15.2c1.5-5.7,3.3-11.4,4.8-17.1c2.3-8.6,4.7-17.3,6.5-26
		c0.7-3.2,0.1-6.7-0.3-10c-0.3-2.5-1.6-3.3-4.1-2.8c-4.3,0.9-8.2,2.7-11.5,5.6c-8.7,7.6-17,15.6-22.9,25.6c-0.7,1.1-0.7,1.1-3.3,2.1
		c0.1-0.9-0.1-1.7,0.3-2.3c2-3.3,4-6.5,6.1-9.7c1.6-2.4,3.2-4.8,5-7c2-2.4,4.1-4.9,6.5-7c3.9-3.6,8.5-6.2,13.2-8.7
		c2.3-1.2,5-2.1,7.7-2.5c4.1-0.6,6.5,1.4,6.7,5.6c0.3,5.6,0.3,11.2-1.1,16.7c-1.2,4.6-2.8,9.1-4.1,13.8c-1.8,6.5-3.4,13-5,19.5
		c-1.1,4.5-2.2,9-3.2,13.5c-0.4,2-0.7,4.1-0.5,6.2c0.4,3.5,2.2,4.9,5.6,4c2.8-0.7,5.5-1.7,8.1-2.9c1.9-0.8,3.6-2.1,5.3-3.2
		c5.1-3.6,10.9-4.3,16.9-3.8c3.1,0.3,4.9,2.2,6,4.9c1.5,3.7,2.8,7.5,4.2,11.2c0.4,1,0.7,2,1.7,3c0.2-1,0.6-2,0.6-3
		c0.3-5.4,0.4-10.9,0.8-16.3c0.9-11.8,1.9-23.6,2.8-35.4c1-13.1,1.9-26.2,3.2-39.2c1.2-12.3,1.3-24.6,2.1-36.8
		c0.4-5.3,1.1-10.5,1.5-15.7c0.7-8,1.3-15.9,2-23.9c0.3-4,0.7-8,1.1-11.9c1.1-9.7,0.8-19.5,0.8-29.2c-0.1-15.2,0.2-30.4-0.2-45.6
		c-0.2-9.3-1.2-18.5-1.9-27.7c-0.1-1.2-0.7-2.3-1.2-4c-1.2,1.4-2,2.3-2.8,3.2c-1.7-0.7-1.9-2.1-1.6-3.3c0.4-2.2,1-4.4,2-6.3
		c1.4-2.5,3.9-2.3,5,0.4c0.9,2.2,1.8,4.5,2,6.9c0.4,5.7,0.4,11.5,1.5,17.2c-0.6,14.4,1.4,28.7,0,43.1c-0.3,3,0.1,6.1,0.3,9.1
		c0,1,0.2,1.9,0.2,2.9c-0.2,8.8-0.2,17.6-0.6,26.3c-0.3,5.9-1.2,11.8-1.8,17.6c-0.8,8.3-1.7,16.5-2.3,24.8
		c-1.3,17.5-2.4,35.1-3.6,52.6c-0.7,10.5-1.4,21.1-2.3,31.6c-0.4,5.2-1.2,10.5-1.9,15.7c-0.1,1.1-0.3,2.2-0.4,3.3
		c-0.6,10.7-1.1,21.4-1.6,32.1c-0.1,2.2-0.5,4.4-0.6,6.7c-0.3,4.3-0.5,8.6-0.6,12.9c-0.2,5,4.6,10.3,9.4,11.5
		c6.6,1.6,13,1.5,18.8-2.7c1.8-1.3,3.7-2.5,5.6-3.7c1.8-1.1,2.8-2.6,2.6-4.7c-0.2-1.9-0.2-3.8-0.4-5.7c-0.1-1.3-0.3-2.5-0.4-3.8
		c-0.6-15.7-1.3-31.3-1.1-47c0.2-26.4,0-52.8,0-79.2c0-9.8-0.2-19.5,0.3-29.3c0.5-10.4,0.8-20.7,2.1-31.1
		c1.5-11.9,1.9-23.9,3.7-35.8c1.5-10.4,1.2-20.7,1.7-31.1c0.6-13.9,1.6-27.8,2.4-41.6c0.2-3.5,0-7-0.6-10.6
		c-0.4,0.8-0.9,1.5-1.1,2.3c-2.2,9.2-4.3,18.3-5.2,27.8c-0.5,5.4-0.9,10.8-0.8,16.3c0.1,2.7,0,2.7-1.9,5.9c-1.5-0.3-2.7-1.1-3.1-2.5
		c-0.6-1.8-1.2-3.8-0.9-5.6c3.3-16.3,4.5-32.9,9.9-48.8c1.4-4.1,2.1-8.4,3.1-12.6c0.3-1.1,0.6-2.2,0.9-3.2c0.3-1,0.9-1.9,2-1.6
		c0.8,0.2,1.7,1,2.1,1.7c0.4,0.8,0.2,1.9,0.1,2.8c-0.1,1.9-0.4,3.8-0.5,5.7c-0.3,8-0.4,16-0.7,24c-0.5,15.3-1.1,30.7-1.8,46
		c-0.8,17.6-2.2,35.1-4.5,52.5c-1.1,7.9-1.3,15.9-1.9,23.9c-0.4,5.3-0.8,10.5-1.1,15.8c-0.1,1.4-0.2,2.9-0.2,4.3c0,8,0,16,0.1,24
		c0.1,10.1,0.2,20.1,0.2,30.2c0,2.4-0.4,4.8-0.5,7.2c-0.1,2.2-0.1,4.5,0,6.7c0.1,4.3,0.4,8.6,0.4,12.9c0.1,13,0.3,25.9,0,38.8
		c-0.2,7.4,0,14.7,0.9,22c0.5,3.6,0.2,7.3,0.3,11c0,1.7,0.2,3.5,0.3,5.4c1.4,0.5,2.7,1,4.2,1.5c-0.4,0.8-0.6,1.7-1.1,2.2
		c-2.3,2.2-2.5,5-2.4,7.9c0.2,7.7,0.2,15.4,0.3,23c0,1.3,0,2.6,0.2,3.8c0.3,2.1,0.9,2.8,3.1,2.8c3.2,0.1,6.4,0,9.6,0
		c2.2-3.9,2.4-7.9,2.7-11.8c1.2-16.8,3.3-33.4,5.8-50c1-6.3,2.2-12.6,3.3-18.9c0.3-2,0.4-4.1-0.2-6.4c-0.5,0.7-1.1,1.3-1.5,2
		c-2,4.5-3.9,9.1-6,13.6c-0.9,2-2.3,3.8-3.6,5.7c-1,1.5-2.5,1.9-4.2,1.4c-1.4-0.4-2.3-1.2-2.2-2.7c0.2-2.2,0.6-4.4,0.9-6.7
		c0.5,0.3,0.8,0.6,1.3,0.9c0-1.7,0-3.2,0-5.1c0.3-0.3,0.8-0.9,1.3-1.5c0.5-0.5,1-1,1.8-1.7c1.2,4.2-3.1,7.5-0.5,11.8
		c0.9-1.1,1.7-1.7,2.1-2.6c2-4.9,3.8-9.8,5.7-14.8c1.4-3.7,2.7-7.5,4.1-11.2c0.6-1.4,1.1-3.1,3-3.3c3,1.5,3.1,4.2,2.8,7
		c-0.6,6.4-1.3,12.7-2.1,19.1c-1.7,12.8-3.6,25.6-5.5,38.4c-0.6,4.3-1.6,8.5-2.1,12.8c-0.7,6.5-1.2,13-1.7,19.6
		c-0.1,1.2,0.1,2.5,0.2,3.6c2,1.4,3.9,1,5.8,1c4.6,0.1,9.3,0,13.9,0c1.3,0,2.6,0,3.8,0.2c1,0.2,1.8,0.8,1.5,2
		c-0.3,1.1-1.1,1.5-2.2,1.5c-0.3,0-0.6-0.2-0.9-0.2c-7.3-1.4-14.6-1-21.9-0.3c-0.1,0-0.3,0.2-0.9,0.7c-0.3,1.7-0.7,3.8-1,6
		c-1.4,10.9-2.9,21.9-4,32.8c-1,9.5-1,19.1-1.2,28.7c-0.2,13.7-1.1,27.4-1.7,42c-0.7-1.1-1-1.5-1.5-2.2c-0.7,2.1-0.5,3.9-0.3,5.7
		c1.4,8.4,0.9,16.9,0.3,25.4c-0.5,7.2-1.1,14.3-1.6,21.5c-0.1,1.1,0,2.3-0.3,3.3c-2,7.8-1.7,15.8-1.9,23.8c-0.1,2.9-0.6,5.7-0.9,8.6
		c-1.5,12.2-3.2,24.4-4.3,36.7c-0.6,6.3-0.1,12.8,0,19.2c0.1,6.6,0.4,13.1-1.1,19.6c-0.1,0.5-0.2,1-0.2,1.4
		c0.9,8.4-1.3,16.5-1.7,24.8c-0.3,5.7-0.3,11.5,1.4,17.1c1,3.4,1.9,6.8,5.2,8.9c-0.7,1-1.3,1.7-1.8,2.4c-2.6-0.3-3.7-2-4.5-4
		c-2.1-4.7-3.5-9.6-3.3-14.9c0.4-8.3,0.6-16.6,1.5-24.9c1-8.8,0.9-17.6,1-26.3c0.1-12.8,0.4-25.6,1.8-38.3c1.3-11.6,3-23.1,4.3-34.7
		c0.7-6,1.1-12.1,1.3-18.2c0.2-6.1,0.2-12.1,1.6-18.1c0.3-1.2,0.3-2.5,0.2-3.8c-0.4-9.9,0.4-19.8,1.3-29.7c0.4-4.6,0.5-9.3,0.7-13.9
		c0.2-5.6,0.5-11.2,0.7-16.8c0.1-3.7,0-7.4,0-11c0.1-4.2,0.2-8.3,0.3-12.5c0-0.6-0.1-1.3,0.1-1.9c1.6-4,0.8-8.2,1.3-12.3
		c0.1,1,0.3,2.1,0.5,4c1.1-2.2,0.8-3.7,0.5-5.1c-1.2-6.7-0.7-13.4,0.2-20.1c0.8-6.7,1.7-13.3,2.6-20c0.1-1.2,0-2.5,0-4.1
		c-4.1,0.1-7.5-3.1-12-1.4c-0.2,1-0.6,2-0.6,3.1c0,9.4,0.2,18.9,0.2,28.3c0,3.7-0.1,7.4-0.2,11c-0.2,7.7-0.1,15.4-0.7,23
		c-0.9,11.3-2.5,22.6-5.4,33.6c-0.6,2.2-1.1,4.4-4,5.1c-0.8-2-0.4-3.8,0.1-5.6c4-14.3,5.9-28.8,6.1-43.6c0.2-16.3,0.1-32.6,0-48.9
		c0-1.7-0.2-3.5-0.3-5.4c-4.1-1.5-8.2-0.6-12.1-0.8c-4.1-0.3-8.3-0.5-12.4-0.6c-4-0.1-7.9-0.6-12,0.2c-0.3,0.9-0.8,1.6-0.8,2.3
		c0,6.1,0.1,12.1,0.2,18.2c0,1.2,0.4,2.5,0.7,4.1c10.2,0.4,20.3,0,30.9,0.1c-1.1,1.3-1.8,2.3-2.9,3.6c-9,0-18.2,0-27.2,0
		c-1.5,1.8-1.1,3.7-1.1,5.4c-0.3,15-0.8,30-0.3,45.1c0.2,7-0.5,14-0.8,21.1c-0.1,2.2-0.3,4.5-0.4,6.7c-0.1,12.3,0,24.6-0.3,36.9
		c-0.4,18.7-1.3,37.4-1.6,56.1c-0.2,14.9-0.7,29.7,1.2,44.6c1.5,11.7,2.2,23.6,2.9,35.4c0.4,6.2-0.1,12.5-0.1,18.7
		c0,5.8,0.1,11.5,0.1,17.3c0,4.1,1.9,7,5.4,9c3.6,2.1,6.8,4.8,9.4,8.1c2.1,2.8,4.2,5.6,6.2,8.5c1.6,2.4,3.1,4.8,4.3,7.4
		c0.7,1.4,1.6,2,2.9,2.1c3,0.2,6.1,0.5,9.1,0.5c8-0.2,16,0.4,23.9,1.3c4.7,0.6,9.4,1.9,14.3,1.5c1.2-0.1,2.4,0.4,4,0.8
		c0.1-1.5,0.3-2.9,0.3-4.3c-0.5-10.2-1.1-20.4-1.7-30.6c-0.3-5.7-0.7-11.5-1.1-17.2c-0.7-10-1.4-20.1-2.2-30.1
		c-0.2-2.4-0.6-4.8-0.9-7.1c-1.8-15.3-0.9-30.7-0.9-46c0-8.6,0.3-17.3,0.5-25.9c0.3-10.4,1.6-20.7,3.1-31
		c2.1-14.9,3.8-29.8,5.5-44.7c1-8.7,1.5-17.5,2.4-26.3c1.2-11.6,2.8-23.2,3.9-34.8c0.8-7.6,1.5-15.3,1.6-23
		c0.2-18.4,0.2-36.8,0-55.2c-0.1-9.7-0.7-19.5-1-29.2c-0.7-19.2-1.9-38.3-1.3-57.5c0.5-15.7-0.3-31.3-1.5-47
		c-0.6-8.1-1.5-16.2-2.1-24.4c-1.1-14.2-2.2-28.3-1.8-42.6c0.5-14.4,0.7-28.8,1.3-43.1c0.3-7.2,1.1-14.3,2-21.5
		c1.4-11.8,2.3-23.5,2.8-35.4c0.6-13.6,1.3-27.2,1.8-40.7c0.2-4.6-0.1-9.3,0.2-13.9c0.8-14.9,1.7-29.7,2.5-44.5
		c0.3-6.5,0.3-13.1,0.1-19.7c-0.1-3.7-1-7.3-1.5-10.9c-0.3-2.1-0.3-4.2,1.1-6c0.5-0.6,1.1-1.1,2.1-1.9c0.4,1.2,1,2.1,0.9,2.8
		c-0.8,3.4,0,6.6,0.8,9.9c0.7,2.6,0.8,5.4,0.7,8.1c-0.2,7.7-0.8,15.3-0.8,23c0,7.9-1.1,15.6-1.8,23.4c-0.2,2.7,0,5.4,0,8.1
		c0,2.6,0.5,5.2,0.1,7.7c-1.2,7.5-0.5,15-0.9,22.5c-0.5,8.8-1,17.6-1.5,26.3c-0.7,11.3-1.4,22.6-2.2,34c-0.6,7.7-1.3,15.3-2.1,22.9
		c-1.4,13.7-1.8,27.4-1.7,41.2c0,2.1,0.1,4.2,0,6.2c-1,17.1,0.4,34.2,2.3,51.2c1,8.4,1.5,16.9,1.8,25.3c0.5,11.2,0.7,22.4,0.9,33.6
		c0.1,8-0.1,16,0,24c0.1,6.2,0.2,12.5,0.5,18.7c0.3,7.7,0.8,15.3,1.1,23c0.2,5.9-0.3,11.9,0.3,17.7c0.8,8.6,0.2,17.2,0.6,25.9
		c0.2,6.7,0.2,13.4,0.1,20.1c-0.2,18.2-1,36.4-3.3,54.5c-1.7,14-2.7,28-4.2,42c-1.4,12.7-2.7,25.4-4.5,38.1
		c-2.7,18.8-4.6,37.7-5.3,56.8c-0.4,12.7,0.4,25.2,0.2,37.9c-0.2,13.5,1,26.8,2.7,40.1c0.5,4,0.8,8,1,12c1,15.5,2.2,30.9,2.9,46.4
		c0.5,10.7,0.2,21.4,0.3,32.1c0,26.4,0,52.8,0,79.2c0,3.2,0.3,6.3,0.5,9.8c1.7,0.3,3,0.5,4.4,0.7c0.4-0.9,0.7-1.5,0.8-2.1
		c0.5-6.4,1.1-12.7,1.4-19.1c0.7-15.2,1.1-30.3,1.7-45.5c0.1-3.4,0.1-6.7,0.2-10.1c0.3-14.2,0.7-28.5,0.9-42.7
		c0.2-14.4,0.3-28.8,0.4-43.2c0-1.3,0-2.6,0-3.8c0.3-18.9,0.3-37.7,0.9-56.6c0.4-11.8,1.5-23.6,2.3-35.4c0.4-6.9,0.8-13.7,1.3-20.6
		c0.5-6.9,1.2-13.7,1.8-20.5c0.3-3.8,0.6-7.7,0.8-11.5c0.8-12,1.5-23.9,2.3-35.9c0.9-13.1,1.9-26.2,2.6-39.2
		c0.9-16.5,3.8-32.7,5.5-49.1c1.2-12.1,3.2-24.1,3.7-36.2c0.3-8.9,1.7-17.8,2.3-26.8c0.5-8.1,1.1-16.2,0.7-24.4
		c-0.5-9.4-0.2-18.9-0.5-28.3c-0.4-12.9-1.2-25.9-1.8-38.8c-0.3-6.5-0.5-13.1-0.8-19.6c-0.1-3.8-0.3-7.7-0.2-11.5
		c0.4-10-0.8-19.8-1.9-29.6c-0.8-7.3-1.3-14.6-2-22c-0.2-2.2-0.7-4.4-0.8-6.7c-0.4-9.7-0.8-19.5-0.9-29.2
		c-0.1-6.2,0.3-12.4,0.3-18.6c0-3.5-0.2-7-0.2-10.5c-0.1-9.4,0.9-18.8-0.1-28.2c-0.2-1.7,0.1-3.5,0.1-5.3c0-2.4,0-4.8-0.1-7.2
		c0-1.1-0.1-2.2-0.1-3.4c0.2-6.5,0.2-13.1,0.5-19.6c0.2-4.3,0.8-8.6,1.1-12.9c0.7-10.5,1.1-21.1,2.1-31.6c0.8-8.3,2.2-16.5,3.3-24.7
		c1.2-9.5,2.2-19,3.3-28.6c0.2-1.4,0.5-2.8,1-4.2c0.7-1.8,0.9-1.8,3.9-0.9c-0.5,3.6-1.1,7.1-1.6,10.7c0,0.2-0.1,0.3-0.1,0.5
		c-0.3,8-2.1,15.8-3.5,23.7c-1,5.8-1.3,11.7-1.9,17.6c-1.3,13.7-2.5,27.4-3.6,41.1c-0.3,3.3-0.3,6.7-0.3,10.1
		c-0.2,10.1-0.6,20.1-0.6,30.2c0,12.9,0.3,25.9,0.4,38.8c0,5.9-0.3,11.8-0.3,17.7c0,14.2-0.2,28.4,2,42.6c0.9,5.5,1,11.1,1.4,16.7
		c0.9,13.7,1.8,27.4,2.6,41.2c0.3,4.5,0.3,8.9,0.4,13.4c0.3,10.2,0.2,20.5,0.9,30.7c0.7,11.2,0.8,22.4,1.1,33.5
		c0.2,9.8,0,19.5-0.1,29.2c-0.1,6.7-0.9,13.4-1.5,20.1c-0.6,7.2-1.3,14.3-2.1,21.5c-1.1,10.7-2.1,21.3-3.4,31.9
		c-1.3,11.4-3,22.8-4.1,34.3c-1,9.9-1.5,19.8-2.2,29.6c-0.5,6.2-1,12.4-1.5,18.6c-0.1,1.9-0.3,3.8-0.3,5.7c0,10.6-0.7,21.1-1.7,31.6
		c-1.5,15.4-2.4,30.9-3.5,46.4c-0.8,10-1.7,20.1-2.2,30.1c-0.4,8.1-0.4,16.3-0.5,24.5c-0.2,8.2-0.3,16.3-0.5,24.5
		c-0.2,15.8-0.5,31.7-0.7,47.5c-0.2,14.5,0,29.1-0.8,43.6c-0.7,13.4-0.6,26.8-1,40.3c-0.3,9.6-1.1,19.1-1.6,28.7
		c-0.4,8.6-0.8,17.3-1,25.9c0,1.8,0.6,3.6,1.1,5.9c-1.7,2.1-1.8,5.1-2,8.2c-0.8,11.6-1.8,23.3-2.4,34.9c-0.3,4.3-0.1,8.6,0.2,12.9
		c0.2,4-0.5,5-5.3,5.8c-0.3-1.2-0.8-2.3-0.8-3.5c-0.2-7.3-0.3-14.7-0.5-22c-0.4-11.2-0.9-22.4-1.4-33.5c0-0.4-0.3-0.9-0.5-1.4
		c-0.6-0.2-1.1-0.6-1.7-0.6c-12.1-1-24.2-2-36.3-2.9c-0.4,0-0.9,0.2-1.4,0.3c-1.2,1.6-0.7,3.4-0.7,5.1c0.3,7.3,0.7,14.7,1.1,22
		c0.5,9.7,1.2,19.5,1.7,29.2c0.7,15.5,2.7,30.9,7,45.9c1.2,4.3,2.9,8.5,4.2,12.7c0.8,2.4,2.1,3.8,4.8,3.7c5-0.1,9.9,0,14.8,1.2
		c0.5,0.1,1,0.1,1.4,0c5.3-1.1,10.5,0.3,15.7,0.9c6.4,0.7,12.7,1.4,19.1,1.5c3.5,0.1,7,0.6,10.5,1.1c2.2,0.3,4.3,0.9,5.8,2.8
		c-1.5,2.2-1.5,2.2-9.2,2.7c-1.3-3.5-4.5-3.9-7.8-4.1c-4.9-0.3-9.9-0.6-14.8-0.9c-7.2-0.4-14.4-0.7-21.5-1.2
		c-3.7-0.2-7.3-0.6-11-0.9c-1.1-0.1-2.2,0.1-3.7,0.3c0.5,1.3,0.7,2.4,1.3,3.2c2,3,4.7,5.3,7.9,6.9c4.6,2.3,9.3,4.2,14,6.3
		c0.1,0.1,0.3,0.1,0.5,0.1c9.3,3.6,18.9,5.7,28.6,8c1.8,0.4,3.5,1.2,5.1,2.3c3.2,2.2,7,3.4,10.8,3.4c6.3,0.1,11.7,2.8,17.4,4.8
		c0.3,0.1,0.6,0.3,0.8,0.4c3.4,1.3,7,2.4,10.3,3.9c3.1,1.5,6.1,3.4,9.5,5.3c0.4-1.3,0.9-2.3,1-3.3c0.7-18.4,2.7-36.7,1.7-55.1
		c-0.3-6.2-0.6-12.5-0.9-18.7c0-0.8-0.2-1.6-0.4-2.6c-0.7,0-1.3,0-1.9,0c-2.9,0-3.4-0.5-3.7-3.1c-0.4-4,1.1-7.5,2.6-11.1
		c0.5-1.1,1.5-1.6,2.7-1.5c1.3,0.2,2,1.1,2.2,2.2c0.7,3.8,1.7,7.5,1.8,11.3c0.4,14.7,0.8,29.4,0.7,44.1c0,7.3-0.8,14.7-1.3,22
		c-0.2,3.2-0.4,6.3,0.6,9.6c0.5-1.1,1-2.2,1.3-3.4c3.3-10.4,6.6-20.7,12.1-30.2c1.3-2.2,1.9-4.7,2.8-7.1c3.1-8.2,6.2-16.4,9.4-24.6
		c1.8-4.7,5.6-6.8,10.5-6.9c2.2,0,2.9,0.3,3.6,2.4c2.8,8.3,4.4,16.7,3.2,25.5c-0.2,1.7-0.4,3.5-0.1,5.2c1.9,11.4,2.7,22.9,2.2,34.4
		c0,1.1,0.1,2.2,0.1,3.4c0,0.3,0.2,0.6,0.4,1.2c1.4-1,1.4-2.4,1.5-3.6c1.1-8.6,2-17.1,3-25.7c0.3-2.4,0.6-4.8,0.9-7.1
		c0.2-1.9,1.2-3.2,3.1-4.7c0.2,1.1,0.5,1.7,0.4,2.4c-1.2,14.3-2.7,28.6-5.6,42.8c-0.3,1.7-0.7,3.5-1.2,5.1c-0.3,1-0.8,2.1-1.5,3
		c-1,1.4-2.9,1.1-3.4-0.6c-0.3-0.9-0.4-1.9-0.5-2.8c-0.1-4.2-0.1-8.3-0.1-12.5c0-2.9,0.1-5.7,0-8.6c-0.2-6.7-0.5-13.4-0.9-20.1
		c-0.4-6.4-0.9-12.7-1.3-19.1c-0.3-4-1.3-7.9-0.4-11.9c0.5-2-0.7-3.4-2.3-4.3c-1.7-0.9-3.5-1.4-5.4-0.2c-1.6,1.1-2.9,2.5-3.5,4.4
		c-5,16.4-12.7,31.7-18.6,47.8c-2.6,7.2-4.9,14.5-7.4,21.7c-1,2.7-0.5,4.4,1.8,6.6c3.1,3,6.6,4.2,10.6,4.9c6.1,1,12.2,2.5,18.4,3.4
		c8,1.1,16.2,1.7,24.5,1.2c0.1-17,0.2-33.7,0.3-50.5c0.1-16.5-0.4-33.1,0.1-49.8c3.5,0.8,4,1.2,4,3.1c0,1.9-0.4,3.8-0.4,5.7
		c-0.1,6.2-0.1,12.5-0.1,18.7c-0.1,9.6-0.4,19.2-0.4,28.8c0,11.8,0.1,23.7,0.2,35.5c0,2.9,0.7,5.7,2.7,8.5
		c5.4-0.1,10.9-1.4,16.4-1.7c5.4-0.3,10.7-1.4,16.4-2.3c-0.4-3.4-0.7-6.3-1-9.3c-1.3-15.1-2.7-30.3-3.8-45.4
		c-0.4-4.8,0-9.6-0.1-14.4c-0.1-3-0.4-6.1-0.5-9.1c0-1.6,0.2-3.2,0.6-4.7c1.2-3.6,2.9-4.6,7.5-4.9c0.3,1.1,0.6,2.3,0.8,3.3
		c-0.3,0.4-0.4,0.5-0.5,0.6c-4.7,2.2-4.7,2.2-4.9,7.4c-0.3,11,0.1,22.1,1.3,33c0.6,4.9,0.8,9.9,1.2,14.8c0.7,8,1.3,15.9,2,23.9
		c0.1,1.4,0,2.9,1.4,3.9c2,0,2.2-1.8,2.4-3c1.1-4.8,2.1-9.7,3-14.5c2.1-11,2.3-22.2,3.2-33.4c0.8-9.9,2.2-19.7,3.4-29.5
		c0.1-1.1,0.4-2.2,0.7-3.3c1-3.2,2.2-3.8,6.3-3.5c1.9,4.7,1.4,9.7,1.3,14.6c-2.2,1.1-1.2,3-1,4.6c1.6,11.6,2.4,23.2,1.8,34.9
		c-0.4,8.9-0.6,17.9-0.9,26.8c-0.1,2.7,0.5,3.4,3.3,3.4c3.8,0.1,7.6,0,11.4-1.1c4.9-1.3,10.1-1.6,15.1,0.1c0.9-0.5,1.7-1.1,2.7-1.7
		c0.2,0.7,0.4,1,0.3,1.2c-0.7,1.8-2.3,1.9-4,2c-8.1,0.9-16.2,1.9-24.3,2.9c-1.2,0.1-2.4,0.6-3.4,0.9c-1.2,3,1,5.3,0.6,7.9
		c-1.5,0.8-2.5,0.4-3-1c-0.6-2-1-4-1.6-6.2c-4.2-0.1-8.1,0.6-11.9,1.4c-0.9,0.2-1.8,1.2-2.4,2c-2.8,3.6-3.7,3.6-6.8-0.1
		c-0.1-0.1-0.3-0.2-0.9-0.5c-1.8,0.2-4,0.3-6.2,0.6c-6.2,0.8-12.3,2-18.5,2.4c-6.5,0.5-13.1,0.3-19.6,0.3c-4.5,0-9,0.1-13.4-0.4
		c-12.3-1.4-24.3-4-35.2-10.2c-1-0.6-2-1.3-3-1.4c-2.5-0.2-4.2-1.3-5.6-3.2c-0.4-0.5-0.9-0.9-1.5-1.2c-3.9-2.1-7.8-4.5-11.9-6.2
		c-12.6-5-25.4-9.6-38.6-12.9c-1.5-0.4-3.1-0.6-4.7-1c-7.7-1.9-15.6-3.4-23.1-6c-6.7-2.3-13.2-5.7-19.5-9.1
		c-4.3-2.3-7.8-5.6-10-10.1c-1-2.2-2.7-2.8-5-2.8c-11,0.1-22.1,0-33.1,0c-5.3,0-10.5,0-15.8-0.1c-2,0-3.7,0.5-5.3,1.7
		c-2.5,2-5.1,3.9-7.5,5.9c-1.8,1.5-3.5,3.1-4.2,5.7c-0.5,2.1-2,2.7-4.2,1.7c-1.6-0.7-2.7-0.3-3.9,0.6c-3.5,2.5-7,5-10.5,7.6
		c-14.2,10.4-28.4,20.8-41.5,32.5c-4.3,3.8-8.5,7.8-13.7,10.5c-1,0.5-1.7,1.4-2.6,2.1c-4,3.5-7.9,7-11.9,10.5c-1,0.9-2,2-3.2,3.2
		c0.9,1,1.6,1.9,2.4,2.5c4,3.1,8.1,6.2,12.2,9.3c1,0.8,2,1.6,3,2.4c1.3,1.1,1.4,2.4,0.6,4.1c-3-0.8-4.7-3.5-7.3-5
		c-2.5-1.5-4.7-3.3-7.1-5c-2.4-1.8-4.8-3.6-7.1-5.3c-4.8,3.1-12.8,10-14.9,12.8c0.7,0.6,1.3,1.3,2,1.8c8.7,6.2,17.5,12.3,26.3,18.5
		c1.9,1.3,4.3,2.3,4.6,5.1c-0.8,1.4-1.8,1.3-2.9,0.7c-0.8-0.5-1.6-1.1-2.3-1.7c-9.9-7.1-19.8-14.1-29.7-21.2
		c-0.4-0.3-0.8-0.4-1.5-0.8c-2.3,1.4-4.6,2.8-7.1,4.3c-1-3.5,1.5-4.9,3.3-7.1c-1-0.9-1.8-1.7-2.8-2.5c-8.5-6.7-17.1-13.5-25.6-20.2
		c-0.8-0.6-1.5-1.2-2.3-1.8c-8.4-6.2-16.8-12.3-25.1-18.5c-2.3-1.7-4.7-3.2-6.3-5.8c-0.5-0.8-1.4-1.3-2.1-1.9
		c-7.9-5.7-15.8-11.4-23.8-17c-1.8-1.3-3.7-2.5-5.8-3.9c-0.7,1.2-1.2,2.1-1.8,2.9c-2.3,0.5-3.6-1.1-4.7-2.6c-1.1-1.5-2.1-3.2-2.5-5
		c-0.2-0.9,0.9-2.2,1.5-3.6c1.5,0.7,2.7,1,3.7,1.7c4.3,2.8,8.4,5.8,12.8,8.5c7.6,4.8,14.4,10.7,21.3,16.4c2.9,2.4,5.9,4.9,9,7.2
		c7.5,5.7,15.2,11.2,22.6,16.9c10.4,8,20.7,16.1,31,24.1c1.2,1,2.6,1.8,3.7,2.5c4.7-2.3,11-7.9,15.1-13.3c-2.1-3.3-5.9-5.1-8.8-8.7
		c1.2,0.1,1.9-0.1,2.4,0.2c1.9,0.9,3.7,1.8,5.5,2.9c1.4,0.8,2.6,1.8,3.8,2.6c4.7-1.8,8.6-4.5,12.2-7.6c6.8-5.8,13.9-11.3,20.8-17
		c2.8-2.3,5.5-4.9,8.2-7.4c0.7-0.6,1.3-1.4,2.1-2c8.9-6.8,17.6-13.8,26.7-20.3c8.9-6.5,18.5-12.1,26.5-19.8c1.2-1.2,2.7-2.2,4.2-3.4
		c-0.9-1.6-2.3-1.2-3.4-1.2c-9.6,0-19.2,0.1-28.8,0.1c-11.3,0.1-22.7,0.1-34,0.2c-4,0-8,0.3-12,0.4c-1.1,0-2.2,0-3.3-0.1
		c-1.1-0.1-2.2-0.3-3.3-0.3c-12.3,0.1-24.6,0.3-36.9,0.5c-7.2,0.1-14.4,0.1-21.6,0.1c-13.7,0-27.5-0.3-41.2,0.8
		c-11,0.9-22,1.5-33,2.2c-4.1,0.3-8.3,0.1-12.4,0.7c-5.7,0.8-11.3,1.9-17,3.1c-7.2,1.6-14.4,3.1-21.4,5.1c-4.4,1.3-8.7,3.3-12.9,5
		c-0.5,0.2-1,0.8-1.7,1.4c1,0.4,1.9,0.5,2.4,1c0.6,0.6,1.1,1.6,1.1,2.4c0,0.5-1,1.2-1.6,1.4c-4.3,1.1-6.5-0.3-8.6-5.5
		c1-0.7,1.9-1.6,3-2c8.7-3.6,17.2-7.9,26.5-9.6c7.1-1.3,14-3.1,21.3-3.4c2.4-0.1,4.7-0.9,7.1-1.2c5.5-0.8,11.1-2.3,16.6-2.1
		c5.2,0.1,10.1-0.7,15.2-1.2c3.3-0.4,6.7-0.2,10.1,0c6.4,0.3,12.7-0.3,19.1-0.8c7.1-0.5,14.3-1.6,21.5-0.3c2,0.3,4.1-0.2,6.2-0.3
		c2.5-0.1,5.1-0.1,7.6-0.1c6.5,0.2,13.1,1.1,19.6,0.5c5.4-0.5,10.8-0.8,16.2-0.8c3.2,0,6.4,0.3,9.5,0.4c1.7,0.1,3.5-0.1,5.2-0.1
		c3.3,0,6.7-0.2,10,0c6.9,0.4,13.7,0.7,20.6-0.1c7.4-0.8,15-1,22.5-0.1c1.6,0.2,3.2,0,4.8,0c3-0.1,6.1-0.4,9.1-0.2
		c8.6,0.6,17.2,1.4,25.8-0.7c0.3-0.1,0.6-0.1,0.9-0.1c6,0.4,12.1,0.8,18.1,1.2c0.5,0,1,0.1,1.4,0.1c7.8-1.4,15.6,0.2,23.4,0.3
		c2.7,0,5.4-0.2,8.1-0.4c0.9-0.1,1.8-0.4,3-0.8c-0.3-1.2-0.3-2.3-0.7-3.3c-3.3-8.9-6-17.9-7.5-27.2c-1-6.1-1.7-12.3-2.3-18.5
		c-1.3-12.6-2.2-25.2-2.2-37.8c0-4.1-0.6-8.3-0.9-12.4c-0.3-4.8-0.5-9.6-0.8-14.4c-0.1-1.6-0.3-3.1-0.5-4.8
		c-1.2-0.2-2.2-0.5-3.1-0.5c-20.8-0.9-41.5-1.9-62.3-2.7c-13.9-0.5-27.8-0.9-41.7-1.3c-11.7-0.4-23.3-0.9-35-1.2
		c-3.8-0.1-7.7,0.4-11.5,0.4c-9.8,0-19.5-0.1-29.3-0.1c-2.4,0-4.7-0.2-6.8,1.6c-0.9,0.7-3.2,0.5-4.5,0c-3.8-1.7-7.8-1.6-11.8-1.6
		c-7.7,0-15.4,0.1-23,0c-2.1,0-4.2-0.3-6.2-0.8c-0.7-0.2-1.4-1.2-1.7-2c-0.1-0.5,0.7-1.5,1.2-1.7c1.6-0.5,3.4-1,5.1-1
		c5.8,0.2,11.5,0,17.2-0.6c4.1-0.4,8.4,0.1,12.4,1c5.2,1.2,10.4,1.3,15.7,1.5c4.3,0.1,8.6,0.3,13,0.3c7.7-0.1,15.3-0.6,23-0.5
		c10.2,0.2,20.4,0.8,30.7,1.2c6.4,0.2,12.7,1,19.2,0.4c3-0.3,6.1,0,9.1,0.1c5.7,0.2,11.5,0.5,17.2,0.8c4.3,0.2,8.6,0.4,12.9,0.8
		c10.8,1.1,21.7-0.2,32.5,1.5c8.3-0.6,16.6,0.8,24.9,0.9c0.6,0,1.2-0.1,2.1-0.2c1.3-3.7,1-7.6,0.8-11.3c-0.6-12.1-1.5-24.2-2.2-36.4
		c-0.1-1.6-0.2-3.2,0-4.8c0.7-4.5-0.1-8.9-0.9-13.3c-1.2-6.8-1.9-13.6-3.2-20.4c-1.3-6.6-3.1-13.1-4.7-19.6
		c-0.9-3.4-1.2-3.7-4.5-3.9c-7.7-0.3-15.3-1.1-23,0.2c-1.2,0.2-2.6,0.1-3.8,0.2c-13.8,0.1-27.5,0.1-41.3,0.2c-2.5,0-5.1,0.4-7.6,0.6
		c-4.6,0.2-9.3,0.4-13.9,0.6c-7.7,0.4-15.3,0.7-23,1.1c-7.5,0.4-15,1-22.5,1.5c-4.3,0.3-8.6,0.8-12.9,1.3c-0.6,0.1-1.2,0.4-1.8,0.6
		c0.1,0.9,0.2,1.7,0.3,2.4c-0.3,0.2-0.5,0.5-0.7,0.6c-0.9,0.2-1.9,0.3-2.8,0.4c-3.6,0.3-7.3,0.8-11,1c-5.9,0.2-11.8,0.2-17.7,0.2
		c-1.2,0-2.4-0.6-4.2-1c0.7-1,1.1-1.9,1.7-2.3c0.9-0.5,2.1-0.9,3.2-1c5.5-0.9,11.1-1.7,16.6-2.5c3.8-0.5,7.6-1,11.4-1.4
		c6.5-0.6,13-1.2,19.6-1.6c4.3-0.2,8.6,0,12.9-0.1c1.6,0,3.2-0.1,4.7-0.6c4.1-1.3,8.2-1.2,12.3-1.3c9.1-0.2,18.2-0.7,27.3-0.9
		c3-0.1,6.1,0.4,9.1,0.4c2.4,0,4.8-0.2,7.1-0.4c3.5-0.3,7-1,10.5-1c9.1-0.2,18.2-0.2,27.3-0.1c4.2,0,8.3,0.3,12.4,0.5
		c3.5,0.2,7-0.1,10.4-1.5c0.3-2-0.7-3.5-1.6-4.9c-4-5.8-8.4-11.3-14.2-15.4c-1.2-0.8-2.2-1.9-3.4-2.6c-4.4-2.8-5.7-7.1-5.9-11.9
		c0-1.3,0-2.6,0-3.8c0-10.7,0.2-21.4,0-32.1c-0.2-8.1-0.7-16.3-1.5-24.4c-1.3-13.2-3.1-26.4-2.4-39.7c0-0.9-0.1-1.9-0.2-2.9
		c0-0.3-0.3-0.5-0.6-1.1c-6-0.5-12.2-1.3-18.4-1.4c-20.6-0.4-41.2-0.5-61.9-1c-10.7-0.2-20.9,2.2-31,5.4c-5.3,1.7-10.7,3.4-16,5
		c-6.6,2-12.3,5.2-16.9,10.5c-5.1,5.8-11.7,7.5-19.1,6.8c-1.5-0.1-3-0.9-4.4-1.7c-3.5-2-6.9-4.1-10.2-6.3c-2.6-1.7-5.4-2.7-8.6-2.4
		c-4,0.4-8,0.6-11.9,1c-1.4,0.2-2.8,0.6-4.1,1.2c-4.2,2-8.7,3-13.3,3.8c-14.1,2.4-28.3,3.2-42.5,3.5c-9.4,0.2-18.9,0.2-28.3,0.3
		c-6.2,0.1-12.5,0.4-18.7,0.5c-4.6,0-9.3-0.3-13.9-0.4c-5.4-0.1-10.9,0-16.3-0.1c-6.2,0-12.5-0.2-18.7-0.2
		c-8.9,0.1-17.9,0.2-26.8,0.7c-6.8,0.4-13.7,1.2-20.5,2.1c-8.6,1.1-17.1,2.3-25.6,3.9c-5.5,1-10.8,2.8-16.2,4.2
		c-2.3,0.6-4.7,0.9-7,1.3c-1.7,0.3-3.2-0.2-4-1.9c-0.7-1.4-1.5-2.8-1.9-4.3c-0.8-2.9-1.2-5.9-1.9-8.9c-0.4-2.2-0.8-4.3-0.6-6.6
		c0.4-3.4-0.9-6.5-2.6-9.5c-0.7-0.1-1.3-0.3-1.9-0.2c-6.9,0.9-13.7,0.3-20.6,0.2c-9.4-0.2-18.9,0.2-28.3,0.3c-1.4,0-2.9,0-4.3-0.1
		c-4.6-0.6-9.2-0.6-13.9-0.2c-5.7,0.5-11.5,0.7-17.2,1c-4.1,0.2-8.3,0.3-12.4,0.6c-10,0.8-20.1,1.7-30.1,2.6
		c-8,0.7-15.9,1.6-23.9,2.4c-4.6,0.5-9.2,1-13.8,1.4c-2.4,0.2-4.9,0.8-7.1,0.3c-4.1-0.9-8-0.3-11.9,0.5c-6.7,1.3-13.5,2.7-20.2,4.1
		c-3.4,0.8-6.8,1.7-10.2,2.7c-2.1,0.6-4.1,0.7-6.1,0.2c-1.4-0.3-2.2-1.1-2.8-2.3c-0.8-1.8-0.6-3.2,1.3-4c2.4-1,4.8-1.6,7.3-2.4
		c2.5-0.8,5.3-1.2,7.1-3.5l-0.1,0.1c2.7,0,5.4,0.1,8.1,0c2.8-0.2,5.7-0.6,8.5-0.9c3.8-0.4,7.6-0.6,11.4-1.2
		c4.2-0.7,8.3-1.8,12.5-2.7C113.7,714.5,113.5,714.5,113.5,714.5z M778.3,853.7c1,3.4,1.6,6.3,2.6,8.9c2.2,6,4,12.2,4.6,18.6
		c0.9,9.1,1.8,18.1,2.6,27.2c0.4,4.9,0.7,9.9,0.9,14.8c0.5,10.9,0.8,21.7,1.2,32.6c0.1,2.3,0.5,4.7,0.8,7.1c1.3,0.2,2.2,0.4,3.2,0.5
		c10.7,0.8,21.4,1.4,32,2.4c5.4,0.5,5.5-0.7,5.3-5c-0.3-4.3-0.6-8.6-0.6-12.9c0-16.5,0-32.9,0.1-49.4c0-1.9-0.1-3.8,0-5.8
		c0.8-11.5,0.3-23-0.2-34.5c0-0.6-0.4-1.2-0.6-1.8c-1.6,0-3,0.1-4.5,0c-4.1-0.4-8.3-0.5-12.3-1.6c-2.7-0.7-5.2-1.3-7.9-1.3
		c-3.2,0-6.4-0.3-9.6-0.4c-4.5-0.1-8.9-0.2-13.4-0.2C781.4,852.9,780.2,853.3,778.3,853.7z M750.5,468.9c0.3,9.1-0.5,17.6,0.4,26.1
		c0.9,0.3,1.5,0.6,2.1,0.6c10.7,0.5,21.4,1,32,1.4c0.6,0,1.2-0.2,1.7-0.4c1.3-6,0.7-25.1-1.2-29.7c-2.1,1-4.3,2-6.4,3.1
		c-3.8,2-7.7,2.9-12,2.7c-1.6-0.1-3.2-0.1-4.8-0.1c-2.9,0-5.7-0.6-8.2-2.2C753.4,469.9,752.3,469.6,750.5,468.9z M1037.9,1065.2
		c-0.4,1-1,1.9-1.2,3c-0.7,4.6-1.5,9.2-1.8,13.8c-0.5,6.9-0.9,13.7-1,20.6c-0.1,6.9-3,13.4-2.3,20.4c0,0.5-0.1,0.9-0.2,1.4
		c-0.9,4.4-1.8,8.8-2.6,13.2c-0.3,1.7-0.8,3.4-0.9,5.2c-0.2,1.8,0.7,2.8,2.4,2.9c2.8,0.2,5.4-0.6,7.7-2c0.9-0.6,1.6-2,1.8-3.2
		c0.3-1.5,0.2-3.2,0.1-4.8c-0.1-5.6-0.6-11.2-0.1-16.8c0.5-5,0.2-9.9,0.1-14.8c-0.2-8.1-0.1-16.3,0-24.4
		C1039.9,1074.8,1039.6,1070.1,1037.9,1065.2z M837.2,1002.8c0.3,0,0.6,0.1,0.9,0.1c0.1-1.6,0.5-3.1,0.4-4.7c-0.2-8,0.1-16,0.8-23.9
		c0.1-0.9,0.1-1.9,0-2.9c-0.2-1.1-0.9-1.6-2-1.6c-1.1,0-1.9,0.4-2,1.5c-0.1,0.9-0.2,1.9-0.1,2.9c0.3,7.8,0.7,15.6,1.1,23.4
		C836.4,999.4,836.9,1001.1,837.2,1002.8z M719.1,706c-6.7-1.2-17.4-0.9-22,0.6C704.5,707.1,711.5,707.8,719.1,706z M255.5,710
		c0,0.2,0,0.4,0,0.6c1.4-0.1,2.8-0.2,4.2-0.3c0-0.1,0-0.3,0-0.4C258.3,710,256.9,710,255.5,710z"/>
	<path d="M462.8,249.8c-1.1,0.9-2,2.3-3.7,1.8c-1.4-0.5-2.3,0.3-3.5,0.8c-1.7,0.8-3.7,0.9-5.6,1.2c-5.5,0.8-11.1,1.3-16.6,2.5
		c-5.9,1.2-11.7,3.1-17.8,4.7c-0.1,1.6-0.2,3-0.3,4.4c-0.3,4.1-0.6,8.3-0.8,12.4c-0.2,2.9-0.6,5.8-0.3,8.6c1.4,12.3,0.5,24.6,0,36.9
		c-0.1,3.8,0.1,7.8-0.8,11.5c-1.4,5.6-1.4,11.1-1.1,16.7c0.8,13.8-0.6,27.5-0.5,41.2c0,7-1.2,14-1,21c0.2,9.3,0.2,18.5,0.3,27.8
		c0,2.5,0.3,5,1.2,7.4c1.2,0,2.1,0,3.1,0c0.1,0.5,0.3,1,0.3,1.4c0,2.3-0.6,4.4-2,6.3c-0.7,0.9-1.7,1.8-2.8,1.2
		c-0.9-0.4-2.1-1.3-2.2-2.2c-0.6-4.1-1.4-8.2,0.3-12.3c0.4-0.8,0.8-1.9,0.5-2.7c-2.2-7-1.8-14.2-1.7-21.4c0.1-9.4,0.3-18.9,0.7-28.3
		c0.1-3.7,0.9-7.3,1.2-10.9c0.2-2,0.4-4.2,0.1-6.2c-1-7.4-0.4-14.7-0.1-22c0.2-6.5,0.6-13.1,0.7-19.6c0.1-4.8,0.2-9.6,1.4-14.3
		c0.3-1.2,0.4-2.6,0.3-3.8c-1.2-9.8-0.2-19.5,0.1-29.2c0.2-6.1,0-12.1-0.2-18.2c0-1.4-0.5-2.8-0.7-4.2c-2-0.5-3.7,0-5.4,0.4
		c-5.6,1.3-11.2,2.8-16.8,3.8c-7.9,1.4-15.9,1-23.7-1c-0.9-0.2-1.8-0.8-2.6-1.3c-2.9-1.9-3.6-3.6-2.7-6.9c1.2-4.3,3.2-8.4,5.9-12
		c3.2-4,6.9-7.6,11-10.7c4.4-3.3,9.5-5.1,14.7-5.3c10.2-0.4,18.6,5,20.4,16.8c0.5,3.3,0.9,6.6,2.5,9.5c2,1,3.6,0.3,5.3-0.3
		c12.2-3.9,24.9-5.8,37.6-7.2c9.1-1,18.1-1.9,27.2-1.9c3.7,0,7.3,0.3,11,0.4c2.4,0.1,4.8,0.3,7.2,0c3.5-0.3,6.6,0.7,9.6,2.3
		c2.1,1.1,3.7,2.6,4.6,4.8c2.7,6.2,4.4,12.6,4.1,19.5c-0.3,6.5,0.1,13.1,0.2,19.6c0.1,5.1,0.4,10.2-0.8,15.3
		c-0.2,1.1-0.3,2.2-0.2,3.3c0.4,10.7-1.1,21.4-1.4,32.1c-0.1,2,0,4.1,0.1,6.3c1.3,0.2,2.2,0.5,3.1,0.5c7.2-0.1,14.4-0.5,21.1-3.6
		c3.4-1.6,7-2.1,10.7-2.2c2.6,0,5-0.8,7.4-1.7c3.1-1.1,6.4-2.1,9.7-2.5c8.3-1.1,16.4-2.5,24.3-5.1c7.7-2.5,15.5-5.1,23.7-5.9
		c9.5-1,19.1-1.8,28.7-1.5c4,0.1,7.2,1.4,8.7,5.4c0.9,2.4,0.6,4.8-0.4,7c-1,2.2-2.3,4.2-3.5,6.3c-0.6,1-1.2,1.9-1.9,2.7
		c-7,8.2-10,17.8-11.6,28.4c-1.4,9.7-2.3,19.3-2.7,29.1c0,1,0,2-0.3,2.9c-1.6,5.3-1.7,10.7-1.7,16.2c0,1.7-0.2,3.5-0.5,5.2
		c-1.3,7.6-1.2,15.3-1,23c0,0.6,0.2,1.2,0.4,2c1,0.4,2,0.7,3.2,1.1c0,4-1.8,7.2-4,10.5c-2.2-1.7-2.1-3.8-2.1-5.9
		c-0.3-9.6,0.1-19.2,1-28.7c0.9-9.9,1.6-19.7,2.5-29.6c0.9-9.7,2-19.4,3-29.1c0.1-0.9,0.2-2,0.7-2.8c1.8-2.6,1.9-5.7,2.3-8.6
		c0.6-4.4,2.6-8.2,5.7-11.3c3.3-3.3,5.8-7.2,7.5-11.6c1.8-4.6,0.9-6.3-3.8-7.8c-0.6-0.2-1.2-0.4-1.8-0.6c-0.1-0.1-0.3-0.2-0.8-0.5
		c0.6-0.3,1-0.6,1.5-0.9c-0.1-0.1-0.2-0.3-0.3-0.3c-3-0.1-6.1-0.2-9.1-0.3c-2.3-0.1-4.4,0.5-6.5,1.5c-1.1,0.6-2.4,0.9-3.6,1.1
		c-5.5,0.7-11.1,1.2-16.7,2c-2.8,0.4-5.6,1.2-8.4,2c-3.2,0.9-6.5,1.6-9.9,1.7c-2.5,0.1-5.1,0.6-7.5,1.5c-8.8,3.5-18,5.7-27.2,7.7
		c-7.3,1.6-14.6,3.3-22,4.7c-5.2,1-10.4,1.7-15.6,2.5c-2.1,0.3-3.2,1.3-3.4,3.3c-0.4,3.3-0.9,6.7-1.1,10c-0.7,11.3-1.2,22.7-2.1,34
		c-1.5,19.6-2.9,39.2-2.6,58.9c0.1,8-0.1,16,0,24c0,6.1,0.2,6.2,6.1,6.3c2.2,0.1,4.5,0.1,6.7,0.2c0.9,0.1,1.8,0.4,2.8,1.3
		c-0.6,0.2-1.2,0.7-1.9,0.7c-2.9,0.2-5.8,0.2-8.6,0.3c-1.2,0.1-2.4,0.3-3.6,0.4c-0.9,2.9,0.4,5.3,0.8,7.8c0.2,1.1,0.9,2.2-0.4,3
		c-1,0.6-1.9-0.2-2.5-2.2c-0.4-1.4-0.6-2.8-0.8-4.2c-0.2-1.4-0.4-2.8-0.7-4.5c-5.3-0.4-10.3,0-15.7,0.1c-0.2,1.3-0.4,2.3-0.5,3.4
		c-0.1,1.1,0.2,2.3-0.1,3.3c-0.1,0.6-0.8,1.6-1.3,1.6c-0.6,0-1.5-0.6-1.8-1.2c-0.4-0.8-0.4-1.8-0.6-2.8c-0.2-1.2-0.4-2.5-0.7-4.1
		c-2.2-0.1-4.2-0.4-6.2-0.3c-6.4,0.2-12.8,0.5-19.1,0.8c-3.5,0.2-7,0.4-10.5,0.5c-3,0.1-6.1,0.1-9.1,0.2c-8.1,0.2-16.3,0.5-24.4,0.8
		c-0.5,0-1,0.1-1.4,0.1c-7.8,0.1-15.7,0.1-23.5,0.2c-7.4,0.1-14.7,0.2-22,0.5c-11.5,0.4-23,0.9-34.5,0.4c-4.3-0.2-8.6,0.1-12.9,0.3
		c-5.3,0.2-10.5,0.5-15.8,0.8c-5,0.2-9.9,0.4-14.9,0.5c-3,0-6-0.3-9.1-0.3c-3.8,0-7.7,0-11.5,0.1c-13.4,0.6-26.8,1.2-40.2,1.8
		c-0.8,0-1.6,0.1-2.4-0.2c-4.8-1.5-9.5-0.5-14.2,0.2c-5.1,0.7-10.2,0.8-15.3,1c-8.6,0.3-17.3,0.6-25.9,0.7c-1.6,0-3.9,1.2-4.8-1.5
		c-1.9,0.2-3.8,0.3-5.6,0.6c-1.1,0.2-2.1,0.8-3.2,0.9c-16.3,1.3-32.6,1.1-48.9,1.1c-6.1,0-12.1,0.4-18.2,0.5
		c-12.8,0.2-25.6,0.2-38.4,0.3c-0.7,0-1.4-0.3-2.4-0.5c1.2-2.3,3-2.8,4.9-2.8c4.5,0,8.9,0.1,13.4,0.2c1.6,0,3.2,0.4,4.8,0.2
		c9.1-1.1,18.2-0.3,27.3-0.4c1.1,0,2.2,0.1,3.4,0c8.3-0.9,16.6-0.8,24.9-0.6c10.9,0.3,21.7,0,32.6-0.6c8.3-0.5,16.6-0.9,24.9-0.8
		c3,0,6-0.5,9.1-0.6c11.7-0.2,23.3,0,35-0.6c13.1-0.7,26.2-0.5,39.3-0.7c9.3-0.1,18.5-0.8,27.8-1.1c5-0.2,9.9-0.3,14.9-0.1
		c9.6,0.5,19.2-0.3,28.8-0.7c10.4-0.5,20.8-0.6,31.2-0.1c4.3,0.2,8.6-0.2,12.9-0.3c4.5-0.2,8.9-0.3,13.4-0.7
		c9.3-0.8,18.5,0,27.8,0.2c6.5,0.1,13.1-0.8,19.6-1.1c7.3-0.3,14.7-0.5,22-0.7c2.4,0,4.8,0.4,7.2,0.6c2.7,0.2,5.4,0.5,7.8-0.3
		c1.5-1.6,1.2-3.2,0.8-4.8c-4.2-19.7-5.9-39.8-9.1-59.7c-0.9-5.5-1.8-11-2.5-16.6c-0.3-2.4-0.9-4.8-0.5-7.1
		c0.7-4.3-0.5-8.2-1.9-12.1c-1.5-4.4-3.2-8.7-4.6-13.1c-0.6-2.1-0.7-4.4-0.9-6.6c-0.2-1.4-0.2-2.8-0.3-4.3c-0.1-1-0.4-1.9-0.4-2.8
		c0-3.2,0.7-4.3,3.9-5.1c5.3-1.3,10.6-2.5,15.9-3.6c7.8-1.6,15.6-3.2,23.5-4.8c3.6-0.7,3.7-0.9,4-4.7c2-25.5,2.6-51.1,1.9-76.7
		c-0.1-3.3-0.6-6.7-1.6-9.9c-1.5-4.7-4.9-7.8-9.8-9c-3.9-0.9-7.8-1.3-11.8-1.1c-9.3,0.4-18.5,0.3-27.8,0.2
		C465.4,250.8,464,250.1,462.8,249.8c2.6,0.1,5.4,0.4,8.5-0.3c-0.7-0.5-0.9-0.9-1.1-0.8C467.7,249,465.2,249.4,462.8,249.8z
		 M515.2,356.1c-2.2,0.2-3.6,0.2-5,0.5c-11.2,2.4-22.5,4.9-33.7,7.2c-5.6,1.1-6.3,3-4.8,8.5c0.1,0.3,0.2,0.6,0.3,0.9
		c2.6,6.2,4,12.8,5,19.4c0.7,4.4,1.7,8.8,2.4,13.2c1.2,6.9,2.5,13.8,3.5,20.8c1.2,8.1,1.8,16.2,3,24.3c1.7,11.2,3.7,22.4,5.7,33.6
		c0.3,1.7,0.8,3.4,1.4,5.1c0.4,1.3,1.3,2.3,2.8,2.3c4.6,0,9.2-0.4,14-1.2c0-1.9,0-3.5,0-5.1c-0.1-7-0.4-14.1-0.3-21.1
		c0.1-11,0.5-22.1,0.8-33.1c0.2-6.2,0.6-12.5,1-18.7c0.5-7.8,1.1-15.6,1.7-23.4c0.5-7.7,1.1-15.3,1.6-23
		C514.9,363.2,515,360,515.2,356.1z M390.9,233.8c-2.3,0.1-6.1,1.1-9.5,3.4c-1.3,0.9-2.6,1.8-3.9,2.7c-5.5,3.8-9.5,9-12.8,14.6
		c-0.4,0.7-0.7,1.5-0.9,2.2c-0.6,2.4-0.1,3.8,2.3,4.5c5.2,1.5,10.6,2.4,16,1.8c5.5-0.6,11.1-1.7,16.6-1.9c3-0.1,5.7-0.8,8.3-1.7
		c3.7-1.3,4.9-3.6,3.9-7.5c-0.7-2.6-1.6-5.2-2.7-7.7C405.4,237.5,400.2,233.9,390.9,233.8z M114.1,501.5c-1.9,0-3.8,0-5.8,0
		C110.2,502.6,112.1,502.7,114.1,501.5z"/>
	<path d="M902.4,449.3c-1.9-4.9-1.8-9.8-1.3-14.7c0.9-9.2,1.8-18.5,3.4-27.6c2.6-14.7,4-29.4,5.6-44.2c1.7-16.4,2.9-32.8,4.2-49.2
		c1-12.6,1.9-25.2,2.8-37.8c1-14.7,1.8-29.3,3-44c0.8-10.5,2.2-21,3.3-31.5c0.4-3.8,0.5-7.7,0.9-11.5c0.8-7.1,1.2-14.4,2.7-21.4
		c2.4-11.3,2.6-22.9,4.2-34.2c0.8-5.5,1.4-11.1,2-16.6c0.1-0.5-0.2-1.1-0.4-2.6c-0.8,1.6-1.3,2.4-1.7,3.2
		c-3.7,10.1-6.6,20.4-8.7,30.9c-2.4,12.1-4.5,24.2-6.5,36.3c-1.1,6.6-1.9,13.3-3.7,19.8c-0.7,2.4-0.8,5.1-1.1,7.6
		c-0.9,7.1-1.9,14.2-2.8,21.4c-0.9,8.1-1.6,16.2-2.5,24.3c-1,9.2-2,18.4-3.1,27.6c-0.7,6.3-1.3,12.7-2.4,19c-2.8,16.6-4,33.3-6.2,50
		c-0.4,2.8-0.4,5.7-0.7,8.6c-0.3,2.7-0.4,5.5-1.3,8c-1.7,5.2-1.8,10.4-1.2,15.6c0.5,4.5,0.4,8.9-0.1,13.4
		c-0.6,5.7-0.8,11.5-1.2,17.2c-0.1,1.3-0.1,2.6-0.4,3.8c-1.9,7.8-2.1,15.8-2.7,23.8c-0.3,4.5-1.1,8.9-1.5,13.3
		c-0.4,3.8-0.6,7.6-0.9,11.4c-0.5,5.2-1.1,10.5-1.5,15.7c-0.3,4-0.4,8-0.5,12c-0.1,5.3,0,10.6-1.5,15.7c-0.2,0.8-0.3,1.6-0.3,2.4
		c-0.7,12.8-1.5,25.5-2.2,38.3c-0.2,2.7-0.6,5.4-0.8,8.1c-0.6,6.4-1.1,12.7-1.9,19.1c-2.9,24.2-3.3,48.5-3,72.8
		c0.1,7,0.1,14.1,0.2,21.1c0.1,2.9,0.3,5.7,0.5,8.6c0,0.9,0.1,1.9-0.1,2.8c-0.1,0.5-0.7,1.2-1.2,1.2c-0.4,0.1-1.2-0.5-1.4-0.9
		c-0.4-0.9-0.5-1.8-0.5-2.8c-0.2-4.8-0.5-9.6-0.5-14.4c0.1-16.5,0.1-32.9,0.5-49.4c0.2-9.1,0.8-18.2,1.6-27.3
		c1.3-15.8,3-31.5,4.3-47.3c1.4-17,2.4-34.1,3.8-51.2c1-12.9,2.2-25.8,3.5-38.7c0.9-9.4,2.1-18.7,3-28.1c0.2-2.4,0.1-4.8,0.3-7.2
		c0.3-3.5,0.9-7,1.3-10.4c0.2-1.6,0.5-3.2,0.4-4.7c-0.2-8,0.1-16,1.1-23.9c0.5-4,0.9-8,0.8-11.9c-0.2-7.4,1.6-14.6,1.8-22
		c0.2-6.4,0.9-12.7,3.1-18.8c0.6-1.8,0.8-3.8,0.8-5.7c0.1-9.6,1.1-19.1,2.6-28.6c0.4-2.7,0.4-5.4,0.8-8.1c1.9-13.3,3.1-26.7,4.5-40
		c1.6-15.1,4.2-30.1,6.3-45.1c1-7.1,2-14.2,3.1-21.3c1.1-7.1,2.2-14.2,3.7-21.2c4.2-19.9,9.1-39.5,16.8-58.4
		c1.3-3.1,2.7-6.1,2.7-9.6c0-1.2,0.6-2.6,1.3-3.5c2.3-3.1,3.2-6.6,3.8-10.2c0.1-0.9,0.5-1.8,0.8-3.1c1.4,0.3,3,0.2,3.6,0.9
		c1.3,1.6,3.1,1.4,4.5,1.4c1.6,2.1,2.1,4.3,1,6.1c-1.1,1.8-1,3.6-1,5.5c-0.2,4.4-0.4,8.9-1.3,13.5c-0.3-0.9-0.6-1.8-1-2.7
		c-0.2,0.2-0.5,0.4-0.5,0.6c0,2.9-0.4,5.9,0.4,8.6c0.5,1.7,1.1,3.3,1.4,5c1.1,8,0.7,16,0.4,23.9c0,1.3-0.2,2.6-0.2,3.8
		c-0.1,6.5-0.2,13.1-0.3,19.7c-0.7-0.2-1-0.3-1.6-0.5c-0.5,2.6-0.4,5.1,0.3,7.6c2.1,7.5,1.9,15.2,2,22.9c0.1,4.8,0.1,9.6,0.1,14.4
		c0,3-0.3,6-0.5,9.3c-2.2-1.5-2.5-3.2-2.6-5.2c-0.1-7.8-0.2-15.7-0.4-23.5c-0.1-4.5-0.4-8.9-0.4-13.4c0-4.5,0.8-9,0.5-13.4
		c-0.8-11.5,0.3-23-0.4-34.5c-0.2-3.3,0.2-6.7,0.2-10.1c0-9.7,0-19.5,0-29.2c0-1.3,0.3-2.9-1.3-4c-1.7,1-2,2.9-2.4,4.5
		c-1.5,5.2-2.8,10.5-3.2,15.9c-0.3,4.6-1.2,9.2-1.8,13.8c-1.1,7.7-2.3,15.5-3.4,23.2c-0.9,6.3-1.6,12.7-2.4,19
		c-1.4,11.4-2.8,22.8-4.1,34.3c-1,8.9-1.8,17.8-2.7,26.7c-0.1,1.1,0.1,2.3-0.3,3.3c-1.8,4.5-1.3,9.1-1.5,13.7
		c-0.3,6.2-0.7,12.4-1,18.7c-0.3,4.5-0.6,8.9-0.9,13.4c-0.1,1.1,0,2.3-0.3,3.3c-1.8,6.4-1.5,13-1.7,19.5c-0.1,2.4-0.3,4.8-0.5,7.2
		c-0.6,8.8-1.2,17.5-1.9,26.3c-0.3,3.8-0.9,7.6-1.2,11.4c-1.3,13.7-2,27.4-4,41c-2.1,14.6-3.7,29.2-5.6,43.7
		c-1.2,9-2.2,18.1-3.3,27.1C902.8,447.1,902.6,448.2,902.4,449.3z"/>
	<path d="M352.5,969.8c0.8,0.5,1.6,1.4,2.3,1.3c5.1-0.3,10.2-0.6,15.3-1.2c0.9-0.1,1.9-1,2.7-1.8c1.4-1.3,2.6-2.8,4.1-4
		c-0.4,1.9-2.8,2.7-2.6,5.2c2,1.1,4.3,0.7,6.3,0.2c3-0.6,6-0.7,9-0.3c2.9,0.4,5.7,0.1,8.5-0.6c3.2-0.8,6.5-1.1,9.9-1
		c5.1,0.2,10.1-0.5,14.8-0.7c1.9-2.2,1.8-5,4.3-6.8c0.5,0.9,1,1.6,1.1,2.4c0.1,0.9-0.2,1.8-0.4,3.2c4.1-0.9,5.6-4.9,9.3-6.5
		c-1.6,2.6-4.4,3.7-5.5,6.7c1.5,0.1,2.7,0.4,3.9,0.3c5.3-0.3,10.5-0.7,15.8-0.9c2.5-0.1,4.8-0.6,6.4-2.8c0.5,0.7,0.9,1.4,1.4,1.7
		c0.5,0.3,1.3,0.1,1.9,0.2c2.6,0.4,4.8-1.8,7.8-0.7c2.3,0.9,5.4,0,8.1-0.3c2.9-0.3,5.7-0.8,8.5-1.2c2.7-0.4,5.4-0.7,8.1-1.1
		c2.7-0.4,5.4-0.8,8-1.5c4.7-1.1,9.3-2.3,13.9-3.5c4.2-1.2,8.1-2.8,11-6.2l-0.1-0.1c0.7,0.2,1.5,0.7,2.1,0.6c0.7-0.1,1.5-0.6,2.2-1
		c8.5-4.9,14.6-11.8,18.3-20.9c0.2-0.6,0.5-1.3,0.3-1.8c-1.4-3.3,0.6-4.7,3.1-5.9c0.6-0.3,1.1-0.5,1.6-0.7c2,2.2,1.9,4.3,0.6,6.7
		c-3.5,6.8-7.7,13.3-12.5,19.3c-1.1,1.4-2.4,2.7-3.9,3.5c-5.1,2.7-10.1,5.4-15.4,7.6c-12.1,5-25.1,6.1-37.8,8.2
		c-7.1,1.2-14.3,1.3-21.4,2.4c-7.5,1.2-15,0.6-22.4,0.8c-4.7,0.1-4.7,0-8.1,3.2c-0.4-0.6-0.8-1.6-1.4-1.9c-0.6-0.3-1.6-0.1-2.3,0
		c-1.3,0.2-2.1,1.3-1.6,2.4c1.2,3.5,0.4,7-0.2,10.3c-1.1,5.8-0.4,11.4,0.3,17.2c0.8,7.4,3,14.7,3.2,22.3c0.1,5.3-0.3,10.5-1.2,15.7
		c-0.3,1.5-0.5,3.2-0.2,4.7c0.5,3.9,0.1,7.6-0.6,11.4c-1.5,8.2-2.4,16.4-1.9,24.8c0.1,1.3,0.1,2.6-0.2,3.8
		c-1.1,4.7-0.9,9.5-0.6,14.3c0.2,3.6-0.1,7.3,0,11c0.1,5.9,0.3,11.8,0.6,17.7c0.2,4.1,0.4,8.2,0,12.4c-0.3,3.9,0.5,7.9,0.8,11.9
		c0.1,2.4,0.1,4.8,0.1,7.1c0.1,4.6,0.1,9.3,0.3,13.9c0.3,6.4,0.9,12.8-0.6,19.1c-0.4,1.8-0.1,3.8,0,5.7c0.4,7.5-2.5,13.1-8.9,17.3
		c-9,5.8-19,8.1-29.3,9.8c-0.6,0.1-1.3,0.1-1.9,0c-8.3-0.1-16.6-0.3-24.9-0.4c-3.4-0.1-6.6-0.5-9.9-1.6c-3.2-1.1-6.5-1.8-9.7-2.5
		c-2.7-0.6-5.1-1.6-7.1-3.6c-1.6-1.5-3.7-2.4-5.7-3.5c-1-0.6-1.9-1.1-2.8-1.9c3.1,0.6,6.2,1.1,9.2,2.5c2.9,1.4,6,2.1,9.1,2.9
		c1.9,0.5,3.7,0.9,4.9,2.6c0.9,1.3,2.3,1.5,3.8,1.1c1.4-0.4,2.8-0.6,4.2-0.5c4.8,0.2,9.6,0.6,14.3,0.9c2.1,0.1,3.9,0.5,5.8,1.6
		c3.5,2,7.5,2.1,10.9-0.2c1.8-1.2,3.6-1.9,5.6-2.3c0.8-0.2,1.6-0.3,2.4-0.4c8.2-0.7,15.1-5,22-8.9c2-1.2,3.3-2.9,4.2-5
		c1.4-3.3,1.9-6.8,1.9-10.3c0.1-11.7,0.1-23.3,0-35c-0.1-6.2-0.4-12.5-0.7-18.7c-0.3-5.7-0.9-11.5-0.9-17.2
		c-0.2-14.9-0.1-29.7-0.1-44.6c0-3.8,0.5-7.6,0.9-11.5c0.8-7.6,2.1-15.2,2.6-22.9c0.6-8.6,0.8-17.2,0.9-25.9c0-2.7-0.5-5.4-1.2-8
		c-1.6-5.6-2.2-11.3-2.2-17.1c0-6.1-0.3-12.1-0.5-18.2c0-1.1-0.5-2.2-0.8-3.2c-5.4-1.4-11.3-0.6-17.6,2.2c-0.9-2.6-3-1.8-4.7-1.5
		c-1.3,0.2-2.1,1.2-1.8,3c1.1,0,2,0,2.9,0c-1.3,0.5-2.6,0.9-4.3,1.6c0-1.7,0-2.9,0-3.9c-0.5-0.3-0.7-0.6-1-0.6
		c-3.2-0.2-6.4-0.7-9.3,1.1c-0.5,0.3-1.3,0.5-1.8,0.3c-2.8-1.4-5.7-0.4-8.4-0.3c-7.5,0.3-15,1-22.5,1.6c-2.5,0.2-5,0.7-7.6,1
		c-0.5,0.1-1,0.3-1.4,0.3c-7.2-1.2-14.3,0.8-21.5,0.7c-3.4-0.1-6.6,1-10,2.3c-0.2,1.2-0.5,2.4-0.5,3.7c-0.1,3.4-0.3,6.7-0.1,10.1
		c0.4,8,0.7,16-0.9,23.9c-0.3,1.7-0.2,3.5-0.2,5.3c-0.2,5.7-0.5,11.5-0.6,17.2c-0.1,5-0.1,9.9-0.1,14.9c-0.1,8.3-0.3,16.6-0.2,24.9
		c0.1,10.7,0.5,21.4,0.9,32.1c0,1.1,0.2,2.2,0.4,3.3c1.1,6,1.6,12,1.7,18.1c0,4.6,1.3,9.1,2,13.7c0.2,1.6,1,3.2,0.8,4.7
		c-0.6,6,1,11.8,1.7,17.6c0.4,3.2,1.1,6.3,1.3,9.5c0.2,3.3,0.4,6.8-0.2,10c-0.7,4.2,0.4,7.6,2.7,10.8c2,2.8,4.2,5.6,6.4,8.6
		c-6.2-1.6-10.8-7.1-11-13.1c-0.3-10.1-1.6-20.1-2.7-30c-1.1-9.5-2.5-19-3.8-28.5c-2.6-19.7-3.8-39.4-3.4-59.3
		c0.3-11-0.1-22.1,0.2-33.1c0.3-10.2,1.2-20.4,1.5-30.6c0.2-7.3,0.3-14.7-0.3-22c-0.3-3.3-0.8-6.5-0.2-9.8c0.1-0.7,0-1.5,0-2.6
		c-4.7-0.7-9.1-0.4-13,1.7c-1.4-0.4-2.7-1.1-4-1.1c-4.1,0.1-8.3,0.4-12.4,0.9c-2,0.2-4,0.9-6,1.4c-0.6,0.1-1.4,0.5-1.8,0.3
		c-2.7-1.8-5.6-0.6-8.4-0.6c-3.8,0-7.7,0.3-11.5,0.5c-2.6,0.1-2.6,0.1-5,1.4c-1.8-0.4-3.2-1.1-4.6-1c-8.3,0.4-16.6,1-24.9,1.4
		c-7.7,0.3-15.3,0.6-23,0.5c-7.2-0.1-14.4,0.5-21.5,1c-7.5,0.5-15,1-22.5,1.5c-4,0.3-8.1,1.5-12.1-0.3c-0.8-0.4-1.9-0.2-2.8-0.1
		c-4.4,0.6-8.9,1.1-13.3,1.9c-1.8,0.3-3.6,1.3-5.4,1.9c-2.2-2.1-5-1.2-7.6-1.4c-2.9-0.2-5.8-0.2-8.6,0.4c-2.5,0.6-4.8,2.3-7.9,3.8
		c0.4-1.3,0.6-1.9,0.9-2.9c-0.5-0.2-1-0.7-1.5-0.6c-3.7,0.1-7.7-1.1-11,1.7c-3.2,0.4-6.3,0.8-9.4-0.5c-0.5-0.2-0.7-0.9-1.2-1.6
		c0.7-0.5,1.2-1,1.7-1.1c3.6-0.5,6.6-2.3,9.1-4.9c0.4-0.4,1.1-0.6,1.7-0.9c0,0-0.1-0.1-0.1-0.1c-0.7,1-1.5,1.9-2.4,3.2
		c2.1,0.8,3-1.2,4.4-1.2c0,0-0.1-0.1-0.1-0.1c-0.3,0.7-0.6,1.4-1,2.3c2.2,1.1,4.2,0.7,6.2,0.6c1.6-0.1,3.2-0.4,4.8-0.5
		c5.4-0.2,10.7-0.2,16.1-0.4c1.7-0.1,3.5-0.5,5.2-0.6c1.5-0.1,3.1,0.3,4.6,0.1c6.5-0.9,13-0.4,19.4-1c3.3-0.3,6.3-0.9,8.6-3.4
		c0.7-0.8,1.7-1.3,3-1.6c-1,1.1-1.9,2.2-2.9,3.3c1.2,1.6,2.7,1.2,4.1,1.2c6.1-0.3,12.1-0.6,18.2-0.9c2.5-0.1,4.5-0.6,6.3-2.7
		c2-2.2,4.6-3.9,7-5.8c1-0.8,2.1-0.8,3,0.6c-1.6,2.8-5.5,3.4-7.1,6.6c1.7,1,3.3,0.6,4.9,0.5c6.1-0.2,12.1-0.4,18.2-0.8
		c3.7-0.2,7.3-0.5,11-1c1.2-0.2,2.3-0.9,3.9-1.5c4.2,2.8,9.2,1.6,14.1,1.6c2.4,0,3.6-1.8,5.6-3.4c-0.1,0.8-0.1,1.2-0.1,2
		c3.9,0.7,7.8,0.6,11.6-0.4c1.3-0.3,2.3-0.3,3.6,0c1.8,0.4,3.8,0.4,5.7,0.3c3.3-0.2,6.7-0.5,10-0.8c1.6-0.1,3.1-0.5,4.7-0.7
		c0.9-0.1,1.8-0.1,2.7,0c6.6,0.7,13,0.1,19-3.2l-0.1-0.1c0.4,0.9,0.7,1.9,1.9,1.8c1.1-0.1,2.3-0.2,3.3-0.5c1.7-0.6,3.3-0.8,5.1-0.4
		c1.7,0.4,3.5,0.1,5.2-0.1c2.5-0.3,5.1-1.6,7.3-1.1c2.7,0.6,5-0.2,7.5-0.7c0.3-0.1,0.7-0.2,0.9-0.1c5.8,2.7,11.6,0,17.4-0.3
		C347.3,972.1,350.1,971.3,352.5,969.8L352.5,969.8z M89.4,988.1c0-0.3,0.1-0.6,0.1-0.9c-0.9,0-1.9,0.1-2.8,0.1c0,0.2,0,0.4,0,0.7
		C87.6,988,88.5,988.1,89.4,988.1z"/>
	<path d="M151.3,947.9c2.9-1.8,5.9-2.6,9.4-2.7c7.2-0.2,14.3-1.2,21.5-1.7c10-0.8,20.1-1.4,30.1-2.1c13.5-0.9,27.1-1.9,40.6-2.8
		c0.5,0,1-0.1,1.4-0.1c9.6-0.3,19.2-0.6,28.7-1c3.2-0.1,6.4-0.4,9.6-0.6c2.2-0.2,4.5-0.5,6.7-0.5c2.9,0,5.7-0.3,7.9-1.9
		c1.1,0.5,1.9,1.1,2.7,1.2c1.7,0.2,3.5,0.3,5.3,0.1c2.4-0.3,4.7-1.2,7-1.3c2.3-0.1,4.6,0.7,6.9,0.8c5.9,0.2,11.8-0.3,17.6-1.6
		c2-0.4,4.1,0,6.2-0.1c8-0.5,15.9-1.1,23.9-1.6c3.8-0.2,7.6,0.5,11.5-0.3c2.7-0.5,5.4-0.8,8.1-1.1c5.6-0.6,11.1-1.1,16.7-1.8
		c14.9-1.8,29.8-3.6,44.7-5.6c13.8-1.9,27.6-3.8,41.2-6.3c12.6-2.3,25-5.1,37.2-9.2c7.1-2.4,13.5-5.9,19.5-10.1
		c1.5-1.1,2.8-2.6,4.1-4c2.8-3.1,5.5-6.2,8.3-9.3c3.9-4.3,7-9.1,9.9-14.1c1.5-2.6,1.7-5.4,1.6-8.4c-0.2-5.6-0.4-11.2-0.3-16.8
		c0-3.6-1-6.9-2.1-10.3c-2-6.2-5.1-11.6-10.4-15.7c-3.7-2.8-6.8-6.3-10.3-9.3c-1.8-1.6-3.8-2.9-5.8-4.2c-1.6-1-3.4-1.8-5-2.8
		c-5.4-3.1-10.9-6.1-17-7.5c-0.6-0.1-1.3-0.3-1.8-0.6c-6.9-3.7-14.7-4.3-22.2-5.6c-0.6-0.1-1.3-0.1-1.9-0.4
		c-9.5-3.6-19.5-2.8-29.3-4c-3.5-0.5-7-0.6-10.5-1c-4.1-0.4-8.2-0.7-12.4-0.6c-4.8,0.2-9.5-0.6-14.3-0.8c-5.9-0.3-11.8-0.5-17.7-0.8
		c-4.8-0.2-9.6-0.4-14.4-0.6c-4-0.1-8-0.3-12-0.3c-9.9,0-19.8,0-29.7,0.1c-6.2,0.1-12.5,0.3-18.7,0.4c-4.8,0.1-9.6-0.1-14.4,0
		c-5.9,0.1-11.8,0.4-17.7,0.5c-15.8,0.2-31.7,0.2-47.5,0.4c-0.6,0-1.3,0-1.9,0.1c-15,1.9-30,0.8-45,1.8c-11,0.7-22.1-0.6-33,1
		c-1.3,0.2-2.6,0.2-3.8,0.1c-6.7-0.8-13.4,0.2-20.1,0.8c-7.6,0.6-15.3,1.4-22.9,2.3c-10,1.2-20,2.6-29.9,3.9
		c-1.1,0.1-2.2,0.2-3.3,0.3c0.2-0.6,0.3-1,0.4-1.5c-1.9-0.5-3.6-0.2-4.8,1.2c-1,1.1-2.1,1.3-3.3,1.5c-11.2,1.6-22.4,3.3-33.7,4.8
		c-5.1,0.7-10,1.9-14.9,3.7c-1.6,0.6-3.2,1.7-5.3,0.5c0.2-0.7,0.3-1.6,0.7-2c1.1-0.9,2.3-1.8,3.6-2.3c2.7-0.9,5.5-1.9,8.3-2.3
		c10.1-1.6,20.2-3.5,30.3-4.5c12.1-1.2,24-3.8,36-5.5c6-0.9,12-1.4,18.1-1.7c6.5-0.4,13.1-0.2,19.6-0.7c8.6-0.6,17.2-1.6,25.8-2.2
		c6.8-0.5,13.7-0.7,20.6-0.9c3.4-0.1,6.7,0.1,10.1,0.2c1.1,0,2.3-0.1,3.3,0.2c6.7,1.9,13.4,0.5,20,0.1c6.4-0.4,12.7-1.1,19.1-1.5
		c8-0.6,15.9-1.1,23.9-1.5c2.7-0.1,5.4,0.1,8.1,0.2c0,0-0.1-0.1-0.1-0.1c1.5,2.2,3.8,2.1,6.1,2c5.9-0.4,11.8-1,17.7-1.3
		c9.4-0.5,18.8-0.8,28.2-1c5.9-0.2,11.8,0,18.1,0c-0.3,0.4-0.5,0.7-0.9,1.2c0.6,0.2,1.2,0.4,1.7,0.4c2.9-0.1,5.8-0.1,8.6-0.4
		c11.5-1.3,22.9-1.5,34.5-1.4c3.2,0,6.4,0,9.6,0.2c1.9,0.1,3.9,0.3,5.6,1.1c2.9,1.3,5.8,1.5,8.9,1.5c11,0,22.1-0.2,33.1,0.1
		c5.2,0.2,10.4,1.4,15.6,2.1c4.4,0.6,8.9,1.3,13.3,1.7c6.2,0.7,12.4,1.2,18.6,1.9c1.1,0.1,2.2,0.6,3.2,0.8c2.8,0.6,5.6,1.2,8.4,1.9
		c2.2,0.6,4.3,1.1,6.4,2c8.6,3.4,17.1,7.2,25.2,11.6c2.9,1.6,5.7,3.5,8.3,5.6c3.7,3,7.1,6.4,10.9,9.3c4.1,3.1,6.7,7.2,8.7,11.8
		c2.3,5.2,3.3,10.7,3.7,16.3c0.3,4.8,0.2,9.6,0.4,14.4c0.3,10.5-4.2,18.8-11.3,26.1c-3.6,3.7-7.3,7.1-11,10.7c-1,1-2.1,2-3.3,2.8
		c-10.2,6.2-20.2,12.8-32.3,15.1c-2.3,0.4-4.4,1.7-6.6,2.6c-0.4,0.2-1,0.7-1.3,0.5c-3.1-1.9-5.8,0.4-8.7,0.8
		c-5.5,0.7-11,1.7-16.5,2.6c-6.8,1.1-13.5,2.5-20.3,3.5c-11.5,1.8-23,4.1-34.7,4.2c-2.7,0-5,1-6.8,2.5c-2-0.2-3.8-0.6-5.4-0.4
		c-7.3,0.7-14.6,1.7-21.9,2.4c-4.1,0.4-8.3,0.7-12.4,1c-11.6,0.8-23.3,1.5-34.9,2.3c-3.5,0.2-7,0.5-10.5,0.9c-1.5,0.2-3,0.9-3.9,1.2
		c-2-0.4-3.5-0.9-5-0.8c-5,0.1-9.9,0.7-14.8,0.6c-2.6-0.1-4.6,1.8-7.4,1.1c-2.4-0.6-5-0.4-7.6-0.4c-4,0-4,0.1-7.3,2
		c-0.7-0.6-1.2-1.4-1.9-1.6c-1.2-0.2-2.5-0.1-3.8,0c-16.1,0.8-32.2,1.5-48.4,2.4c-7,0.4-14,1.3-21,1.8c-3.8,0.3-7.7,0.4-11.5,0.6
		c-4.6,0.2-9.3,0.4-13.5,3.3c0.1-1,0.1-1.7,0.2-2.7c-2.4-0.8-4.7-0.5-7.1,0c-6.8,1.3-13.6,2.3-20.5,2.2c-3.9-0.1-7,1.6-10.6,3.8
		c0.3-1.1,0.5-1.6,0.7-2.5C158.7,947.2,155,947.6,151.3,947.9L151.3,947.9z"/>
	<path d="M52.8,441.9c0-2.1,1.2-3.2,2.7-3.8c2-0.7,3-2.2,4.1-3.8c2.4-3.7,5.1-7.4,7.5-11.1c1.1-1.6,2.1-3.2,2.9-5
		c3.7-7.7,7.9-15,13-21.8c4.2-5.5,8-11.2,11.9-16.8c9.5-13.7,19.7-26.8,30.8-39.2c3.1-3.4,6.8-6.3,10.1-9.5c1.3-1.2,2.7-2.4,3.6-3.8
		c3.1-5,6.8-9.2,11.5-12.8c2.4-1.9,4.3-4.3,6.7-6.2c2.8-2.3,5.8-4.5,8.8-6.6c1-0.7,2.3-1.2,3.5-1.6c3.9-1.3,7.5,1,7.8,5.2
		c0.2,2.2,0.1,4.5-0.4,6.7c-4.3,21.7-9.4,43.1-16,64.2c-5,15.9-9.4,31.9-13.8,47.9c-1,3.7-1.5,7.5-2.1,11.3
		c-0.2,1.4-0.1,2.9,0.1,4.3c0.3,2,1.4,2.8,3.4,2.3c2-0.6,3.9-1.4,5.7-2.5c4.4-2.7,8.5-5.5,12.5-8.9c5.2-4.4,11.1-8,16.6-12.2
		c3.3-2.5,6.6-5.1,9.5-8.1c6.3-6.5,14.1-10.4,22.2-13.9c2.5-1.1,5-2,7.6-2.9c2.4-0.9,4.8-1.8,7.2-2.5c3.4-1,6.7-1.3,10.3-0.3
		c3.2,0.8,6.7,1.2,10,0.9c5.1-0.4,8.4,2.1,10.7,5.9c3.3,5.4,5.8,11.3,7.4,17.6c1.5,6.2,2.7,12.5,5.8,18.2c0.8,1.5,1.7,3.2,2.9,4.3
		c5.6,4.9,11.6,9,19.4,9.7c1.6,0.1,3.2,0.2,4.8-0.1c5.5-0.7,11.1-1.6,16.6-2.4c1.6-0.2,3.2-0.5,4.6-1.2c5.2-2.8,10.9-3.6,16.4-5.1
		c5.1-1.4,10.2-2.8,14.3-6.4c0.7-0.6,1.7-0.9,2.5-1.2c3.2-1.3,6.5-2.5,9.7-3.9c3.7-1.6,7.2-3.4,10.9-5c1.6-0.7,3.3-1.2,5-1.6
		c1.3-0.4,2.5,0,3.6,1.4c-0.7,0.6-1.3,1.3-2,1.6c-5.5,2.2-11,4.3-16.5,6.4c-1.5,0.6-2.9,1.4-4.4,1.9c-3.9,1.4-7.8,2.8-11.7,4.2
		c-3,1.1-6.1,2-8.9,3.4c-9.9,5-20.4,8.3-31.4,9.9c-9,1.3-17.9,0.8-26.4-2.8c-4.6-1.9-8-4.8-10.6-9.2c-3.4-5.9-6.1-11.9-7.4-18.6
		c-0.8-4.4-2.5-8.6-4.2-12.7c-2.5-5.8-6.5-10.3-12.7-12.2c-1.8-0.6-3.8-0.9-5.6-0.8c-7.1,0.3-13.9,1.5-20.5,4.4
		c-7.9,3.4-15.6,7.4-23,11.9c-2.9,1.7-5.5,3.9-8.1,6c-7.8,6.3-15.5,12.8-23.5,19c-4.8,3.7-10,6.9-15,10.3c-1.3,0.9-2.9,1.5-4.4,1.8
		c-3.3,0.7-5.1-0.6-5.7-4c-1-5.6-0.1-11.2,1-16.7c2.9-14.1,7-27.9,11.3-41.6c6.4-20.3,11.8-40.8,16.3-61.6c0.9-4.2,1.5-8.5,2.2-12.8
		c0.4-2.6,0.3-2.7-1.1-5.6c-1.9,0-3.8,0.5-5.3,1.6c-5.6,3.9-11.7,7.2-16.3,12.5c-3.3,3.7-6.6,7.4-10,11c-4.8,5.1-9.7,10.2-14.6,15.2
		c-7.7,8-13.7,17.2-20.4,26c-4.2,5.6-8.4,11.3-12.5,16.9C85.2,399,76.9,410.9,70,423.8c-2.5,4.6-5.5,9-8.4,13.4
		c-1.2,1.8-2.9,3.4-4.4,5c-0.4,0.4-1.1,0.7-1.7,0.8c-0.4,0.1-1,0-1.4-0.2C53.6,442.6,53.2,442.2,52.8,441.9z"/>
	<path d="M1046.1,1029.3c-4.5-3.3-9.2-3.6-14.1-3.3c-4.3,0.3-8.6,0.5-12.9,0.6c-2.9,0.1-5.7-0.1-8.6-0.1c-1.6,0-3.2,0.2-4.8,0.3
		c-4.8,0.2-9.5,0.8-14.2-0.9c-2-0.8-4.4-0.5-6.6-0.6c-3.7-0.1-7.3-0.6-10.8-1.8c-4.2-1.5-7-4.3-8.1-8.7c-0.8-3.1-1.8-6.1-2.6-9.2
		c-1-4-3.6-6.7-7.1-8.6c-3.6-1.9-7.5-2.8-11.5-3c-4.3-0.2-8.6-0.2-12.9-0.6c-2.8-0.3-5.7-0.8-8.3-1.9c-3.7-1.6-4.5-5.2-1.9-8.3
		c1.8-2.2,4.1-4.1,6.5-5.6c2.7-1.7,5.7-2.8,8.6-4.3c1.7-0.9,3.3-1.9,4.8-3.1c2.1-1.6,3.2-3.9,3.4-6.6c1.2-11.9,2.7-23.8,3.6-35.8
		c0.5-5.9,0.2-11.8-0.1-17.7c-0.6-11.3-1.5-22.6-2.3-33.9c-0.3-4.1-0.9-8.3-1.2-12.4c-0.8-8.9-1.5-17.8-2.2-26.7
		c-0.1-1.1-0.1-2.2,0-3.4c0.7-8.6,0.5-17.2-0.4-25.8c-0.1-1.3,0-2.6,0-3.8c0-5.9-0.1-11.8-0.1-17.7c0-1.4-0.2-2.9,0.1-4.3
		c1.3-6.7,0.8-13.4,0.2-20.1c-0.5-5.8-1.9-11.7-3.3-17.4c-0.9-3.5-1.7-7.1-3.9-10.3c-0.7-1-0.7-2.4-0.8-3.7
		c-0.2-1.8,0.7-3.2,2.4-3.7c2.3-0.6,4.6-1.4,7-1.6c3.8-0.3,7.7,0.1,11.5-0.1c6.4-0.3,12.7-0.8,19.1-1.3c4.8-0.4,9.6-0.7,14.3-1.2
		c1.7-0.2,3.7-0.2,5.1-1.1c4.5-2.9,9.6-3.3,14.6-4.3c2.5-0.5,5-1.2,7.5-1.6c6-1,12-1.9,18-2.8c5.8-0.9,11.7-1.8,17.5-2.9
		c7.3-1.4,14.5-2.3,21.9-2.2c2,0,4.2,0.4,6.1,1c2.4,0.8,3.2,3.5,1.6,5.5c-1.3,1.5-3,2.9-4.8,3.8c-5.3,2.6-10.8,4.8-16.2,7.2
		c-1.3,0.6-2.6,1-4.3,1.6c0-1.2-0.3-2.1,0-2.6c1-1.7,2.3-3,4.3-3.6c3.1-0.9,6.1-2.1,9.1-3.1c2.9-1,5.4-2.6,8-4.9
		c-1.1-0.6-1.6-1.1-2.3-1.3c-0.4-0.2-0.9-0.2-1.4-0.2c-9.6,0.3-19.2-0.1-28.7,1.9c-6.7,1.4-13.4,3-20.2,4.3
		c-10.9,2.2-22,4.2-32.9,6.6c-8.6,1.9-17.4,2.6-26.1,3.9c-2.2,0.3-4.5-0.1-6.7-0.1c-5.9,0.2-11.8,0.4-17.7,0.7
		c-0.6,0-1.2,0.3-1.7,0.5c-1.3,2.1-0.5,3.9,0.2,5.6c1,2.5,2,5.1,3.1,7.6c1.8,4.2,2.3,8.6,2.5,13.1c0.2,6.1,0.6,12.1,0.7,18.2
		c0.1,5.3,0,10.5-0.1,15.8c0,0.8-0.2,1.6-0.1,2.4c1,6.7-0.2,13.4-0.2,20.1c0,4.9,0.2,9.9,0.4,14.8c0.1,3.4,0.2,6.7,0.4,10.1
		c0.7,10.8,1.2,21.7,2,32.5c0.6,8.6,1.4,17.2,2.4,25.8c0.4,3.6,1.3,7.2,0.5,10.9c-0.2,1.2,0.3,2.5,0.4,3.8c0.1,1.6,0.3,3.2,0.2,4.8
		c-0.2,5.3-0.4,10.5-0.7,15.8c-0.1,2.6-0.1,5.1-0.5,7.7c-1.1,8.9-2.4,17.7-3.5,26.6c-0.5,4.3-2.8,7.1-6.8,8.4
		c-4.7,1.6-9.2,3.7-12.9,7.2c-0.6,0.5-1.2,1-1.8,1.6c-3.6,3.6-3.1,6.1,1.9,7.4c3,0.8,6.3,0.9,9.5,1.2c1.4,0.1,2.9-0.2,4.3-0.4
		c6.2-0.9,11.7,0.9,17,3.7c4.4,2.3,6.9,6.1,8.1,10.8c0.4,1.4,0.6,2.8,0.8,4.2c0.9,5.1,4.1,8.9,7.1,12.8c0.4,0.6,1.4,0.7,2.1,1
		c3.8,1.3,7.7,1.9,11.8,1.7c4.8-0.2,9.6-0.5,14.4-0.5c6.4,0.1,12.8,0.5,19.2,0.6c5.3,0.1,10.5-0.2,15.8-0.3c2.1,0,4.2-0.2,6.2,0.1
		c1,0.1,2.3,0.8,2.6,1.6C1047.1,1026.6,1046.4,1027.9,1046.1,1029.3z"/>
	<path d="M889,1104.4c-2.5-0.5-3.3-2.3-3.6-4.1c-0.7-3.3-1.6-6.6-1.6-9.9c-0.1-16.9-0.7-33.9,0.4-50.8c0.7-10.7,1.4-21.4,2.3-32
		c0.4-4.6,1.3-9.2,1.8-13.8c1.3-13.4,2.5-26.7,3.8-40.1c0.5-5.1,1.1-10.2,1.4-15.3c0.3-4.1-0.1-8.4,0.5-12.4
		c0.8-5.4,1.2-10.7,0.5-16.1c-0.3-2.3,0.1-4.8,0.2-7.2c0.2-8.3,0.3-16.6,0.5-24.9c0.1-3.3,0.4-6.7,0.6-10c0.1-1.1,0.2-2.3,0.1-3.3
		c-1.1-7.5-0.7-15-0.7-22.5c0.1-5.6,0-11.2,0.1-16.8c0.1-3.7,0.5-7.3,0.7-11c0.1-1.9,0-3.8-0.1-5.7c-0.1-5.7-0.4-11.5-0.4-17.2
		c0.1-6.4,0.4-12.8,0.7-19.2c0.2-3.8,0.6-7.6,0.9-11.4c0.1-1.3,0.2-2.5,0.2-3.8c0.1-9.4,0.3-18.9,0.4-28.3c0-4.3-0.3-8.6-0.5-12.9
		c0-1.3-0.3-2.6-0.1-3.8c1.1-11.1-1.7-21.9-2.3-32.9c-0.4-7.7-1.6-15.3-3.3-22.8c0-0.2-0.1-0.3-0.1-0.5c-0.7-8.8-2-17.5-2.1-26.3
		c-0.3-19.2-0.2-38.4,0.1-57.6c0.2-11.3,1.2-22.7,1.8-34c0.3-4.8,0.5-9.6,0.9-14.4c0.4-5.1,1.1-10.2,1.6-15.2
		c0.5-4.8,0.8-9.6,1.3-14.3c0.3-3.3,0.9-6.6,1.4-9.9c0.3-2.1,0.6-4.1,0.6-6.2c0.1-7.2,0.8-14.3,2.1-21.1c0.8-0.4,1.4-0.6,2-0.9
		c0.7,6.7-0.2,13.4-1,20c-0.4,3.3-0.8,6.7-1.3,10c-0.7,4.7-1.5,9.5-2.3,14.2c-0.3,1.6-0.6,3.2-0.7,4.7c-0.4,6.4-0.4,12.8-1,19.1
		c-0.9,8.8-0.7,17.6-1.6,26.3c-1,9.8-1.1,19.4-1,29.2c0,3.5-0.5,7-0.7,10.5c-0.1,2.2-0.2,4.4-0.1,6.6c0.1,4.3,0.3,8.6,0.4,12.9
		c0.2,7.8,0.2,15.7,0.5,23.5c0.2,4.6,0.9,9.2-0.1,13.8c-0.1,0.6-0.1,1.3,0.1,1.9c2.8,7.8,3.4,11.2,3.1,17.9
		c-0.1,1.4,0.1,2.9,0.3,4.3c1,6.1,2.1,12.3,3.1,18.4c0.2,1.3,0.5,2.5,0.5,3.8c0.3,7.7,0.6,15.3,0.7,23c0,2.4-0.3,4.8-0.8,7.1
		c-0.7,3.5-0.9,7-0.3,10.5c1.3,7.6,1.6,15.2,0.6,22.9c-0.7,5.9-0.5,11.8-1.2,17.7c-0.5,4-1.2,7.9-0.9,11.9c0.2,3,0.4,6.1,0.6,9.1
		c0.1,2.4,0.3,4.8,0.3,7.2c-0.1,7.3-0.2,14.7-0.4,22c0,1.9-0.1,3.9-0.5,5.7c-1,4.8-0.6,9.5-0.4,14.3c0.3,5.9,0.4,11.8,0.5,17.7
		c0.1,2.6,0.1,5.1,0.1,7.7c0.1,5.4,0,10.8-0.6,16.3c-0.5,4.3-0.1,8.6-0.1,12.9c0,4.8,0,9.6,0,14.3c-0.1,4.6-0.2,9.3-0.4,13.9
		c-0.1,2.5-0.6,5.1-0.8,7.6c-0.4,5.7-0.7,11.5-1.1,17.2c-0.3,4.6-0.6,9.2-1,13.9c-0.1,1.1-0.6,2.1-0.8,3.2c-0.2,1.1-0.6,2.2-0.5,3.3
		c1,5.2-0.4,10.2-0.9,15.3c-0.5,4.4-1,8.9-1.5,13.3c-0.6,5.6-1.2,11.1-1.8,16.7c-0.3,3.2-0.4,6.4-0.7,9.6
		c-0.9,10.7-1.2,21.4-1.2,32.1c0,10.2,0,20.5,0.4,30.7c0.1,3.2,0.4,6.4,1.8,9.3C889.3,1100.8,889.7,1102.5,889,1104.4z"/>
	<path d="M967.3,575c0-3-0.2-6,0-9.1c0.4-6.2,1.2-12.4,1.5-18.6c0.2-3.4,0.5-6.7,1.8-9.9c0.9-2.4,1.1-5,0.8-7.6
		c-0.6-4.9-0.4-9.9,0.2-14.8c1.2-8.9,2-17.8,2.9-26.7c0.2-2.4,0.2-4.8,0.1-7.2c0-14.9-0.1-29.7-0.2-44.6c0-3.4-0.3-6.7-0.4-10.1
		c-0.5-12.6-0.4-25.3,1.2-37.8c0.1-0.8,0.2-1.6,0.2-2.4c0.4-13.1,0.6-26.2,1.2-39.3c0.7-16-0.4-32-0.1-48
		c0.3-18.1,0.5-36.1,1.1-54.2c0.4-12.8,1.6-25.5,2.3-38.3c0.4-7.7,0.7-15.3,1.2-23c0.8-12.3,1.8-24.6,2.8-36.8
		c0.9-10.5,1.9-21,3-31.5c0.9-9.2,1.7-18.5,3-27.6c1.3-9.3,2.1-18.7,4.4-27.9c1.2-4.9,2-10.1,1.2-15.2c-0.4-2.7,0.8-5,2-7.2
		c0.2-0.5,1.1-1,1.5-0.9c0.7,0.2,1.5,0.8,1.7,1.4c0.3,0.8,0.2,1.9,0.1,2.8c-1,6.6-1.9,13.3-2.9,19.9c-1,6.5-2.1,12.9-3,19.4
		c-0.9,7-1.6,14-2.4,21c-0.6,5.4-0.8,10.9-2.1,16.1c-2.5,9.4-1.9,19-2.9,28.5c-0.1,1.4,0,2.9-0.2,4.3c-1.8,14-2.8,28-3.5,42
		c-0.3,7.8-1.1,15.6-1.6,23.4c-0.5,10.1-0.7,20.1-1.4,30.2c-1.2,17.2-1,34.5-1,51.8c0,15.8,0.1,31.6-0.1,47.5
		c-0.1,10.1-0.2,20.1-1.5,30.2c-0.7,5.2-0.8,10.5-0.9,15.8c-0.3,9.1-0.3,18.2-0.7,27.3c-0.8,15.2,1,30.4,0.4,45.5
		c-0.4,10.2-0.2,20.5-0.9,30.7c-0.7,10.7-2.2,21.3-3.2,32c-0.5,5.4-0.9,10.8-1.3,16.2c-0.7,8.8-1.4,17.5-2.2,26.3
		c-0.2,2.2-0.8,4.3-1.2,6.5C967.9,575.2,967.6,575.1,967.3,575z"/>
	<path d="M745.3,153.7c1.7,0.6,2.8,1.1,4.4,1.7c-1,1-1.5,1.9-2.2,2.1c-1,0.4-2.2,0.2-3.3,0.3c-3.8,0.2-4.3-2.6-2.4-5
		c1.5-1.9,3.1-3.8,5-5.1c4.8-3.4,8.4-8,11.4-12.8c1.8-2.8,2.9-6.5,3.2-9.9c0.6-6.6,3.1-12.4,6.2-18c7-12.8,14.2-25.4,22.9-37.1
		c3.7-5,8-9.6,12-14.3c6.2-7.3,13.3-13.8,20.6-20.1c3.1-2.7,5.9-5.9,8.9-8.7c4.4-4.1,8.6-8.7,13.6-12.1c4.8-3.3,10.5-5.3,16.3-6.5
		c8.5-1.8,17.1-2.5,25.6-3.2c1.1-0.1,2.3-0.3,3.3-0.2c6.5,1.1,12.7-0.3,19-1.6c1.6-0.3,3.2-0.6,4.7-0.6c10.1-0.6,20.1-1.1,30.2-1.6
		c1.4-0.1,3.1-0.3,4.2,0.3c2.4,1.3,4.6,0.7,7,0.4c3.9-0.6,8-1.9,11.8-1.5c10.4,0.8,20.8-0.2,31.1,0.6c2.1,0.1,4.5-0.7,6.2,1.5
		c2.5-0.1,5.2,0.3,7.6-0.4c5.2-1.4,10.4-1.3,15.7-0.8c1,0.1,1.9,0.2,2.9,0.2c6.5,0.1,13.1,0.2,19.6,0.3c2.9,0,5.6,0.4,8.5,1.3
		c2.3,0.8,5,0.4,7.6,0.6c1.3,0.1,2.5,0.1,3.8,0.3c0.3,0,0.7,0.7,0.6,1.1c0,0.4-0.5,0.7-0.8,1c-0.1,0.1-0.3,0.1-0.5,0.1
		c-3.6-0.1-7.3-0.1-10.9-0.2c-3-0.1-6-0.4-9.1-0.5c-5.4-0.3-10.8-0.5-16.3-0.7c-0.8,0-1.6,0-2.4,0.1c-6.6,0.9-13.1,0.4-19.5-0.8
		c-0.9-0.2-1.9-0.2-2.9-0.2c-7.7,0.2-15.3,0.8-23,0.5c-7.8-0.3-15.6,0.4-23.4,0c-1,0-1.9,0.1-2.9-0.2C954.4,2.6,949.2,3.7,944,4
		c-6.1,0.3-12.1,0.6-18.2,1c-5.6,0.4-11.1,1-16.7,1.4c-5.4,0.5-10.8,0.9-16.2,1.3c-6.1,0.5-12.1,0.9-18.2,1.4
		c-5.6,0.4-11.1,1.4-16.5,2.6c-6.2,1.4-11.7,4.3-16.2,8.8c-1.9,1.9-3.8,3.9-5.7,5.8c-5.9,6.3-12.2,12.2-18.6,18
		c-8.1,7.3-15.9,14.9-22.2,23.8c-0.3,0.4-0.5,0.8-0.9,1.1c-5.6,5.6-9.3,12.5-13.2,19.3c-3.7,6.4-7.2,12.8-10.9,19.2
		c-2.2,3.9-3.6,8.2-4.7,12.5c-0.8,2.9-1.8,5.8-2.4,8.8c-1.2,5.4-4.2,9.6-7.9,13.5c-2.6,2.6-5.2,5.2-7.8,7.8
		C746.9,151.3,746.3,152.3,745.3,153.7z"/>
	<path d="M266.7,1110c0.8-0.9,1.5-1.7,2.6-2.9c-6.4-0.4-12.2-1-18.1-1.2c-15.2-0.5-30.4-0.8-45.5-1.3c-14.9-0.5-29.7-1.3-44.6-1.5
		c-14.7-0.2-29.4-0.3-44.1,0.2c-11.5,0.3-22.9,1.6-34.4,2.4c-6.2,0.4-12.4,0.8-18.6,1.2c-4.1,0.3-8.2,0.8-13.3,1.3
		c1.5,1,2.2,1.7,3,1.8c3.6,0.5,7.3,0.9,10.9,1.1c2.5,0.2,5-0.2,8.1,0.2c-0.9,1.4-1.5,2.2-2.1,3.1c-4.1,0-8.1,0.1-12.1,0
		c-4.5-0.2-8.8-1.6-12.8-3.6c-2.4-1.2-2.4-3.8,0.1-4.7c2.5-0.9,5.2-1.4,7.9-1.6c6.5-0.5,13.1-0.8,19.6-1.2c3.7-0.2,7.3-0.7,11-1
		c3.2-0.3,6.4-0.6,9.5-0.9c4.5-0.3,8.9-0.6,13.4-0.8c7.2-0.2,14.4-0.2,21.6-0.4c4.1-0.1,8.3-0.3,12.4-0.5c1.6-0.1,3.2-0.2,4.8-0.2
		c14.9,0.4,29.7,0.8,44.6,1.1c2.2,0.1,4.5-0.1,6.7,0c4.9,0.1,9.9,0.3,14.8,0.5c1.8,0.1,3.5,0.3,5.3,0.4c11.3,0.4,22.7,0.9,34,1.3
		c1.6,0.1,3.2,0.1,4.8,0c7.6-0.7,15,0.3,22.4,1.4c0.6,0.1,1.3,0.2,1.9,0.4c1.5,0.6,1.8,2.4,0.7,3.5c-2.5,2.6-10.1,4.2-13.5,2.9
		C267.4,1111,267.2,1110.6,266.7,1110z"/>
	<path d="M708.8,1278.1c-0.3-2.5,0.6-4.1,2.1-5.5c1.9-1.7,3.7-3.5,5.7-5.1c14.2-11.7,28.3-23.4,42.5-35.1c4.2-1.6,6.7-5.2,9.6-8.3
		c0.5-0.6,1.2-1.1,1.8-1.6c7.7-6.7,15.3-13.6,23.2-20.1c10.9-9.1,22.1-17.9,33.1-26.9c1.2-1,2.4-2.1,3.6-3.2
		c3.9-3.8,7.8-7.6,11.7-11.4c0.4-0.4,0.7-0.9,0.6-1.9c-2.8,2-5.5,4-8.4,6.1c-1.2-2.4-0.8-4.3,1.2-5.6c6.5-4.4,12.9-8.8,19.5-13.1
		c1.2-0.8,2.6-1.3,3.9-1.7c1.6-0.4,2.9,1.1,2.3,2.6c-0.3,0.9-0.9,1.7-1.5,2.4c-1.6,1.7-3.3,3.4-5.1,5c-8,7.2-15.9,14.4-24,21.4
		c-6.7,5.7-13.7,11-20.5,16.6c-2.9,2.3-5.6,4.8-8.4,7.2c-14.9,12.8-29.8,25.7-44.7,38.5c-10.2,8.7-20.5,17.3-30.8,26
		c-1.4,1.2-2.8,2.5-3.8,4.5c0.9-0.4,1.8-0.7,2.6-1.3c5-4,10-8,15-12c1.3-1,2.5-2.5,4.7-2.3c0.6,2.3-0.7,3.7-2.2,4.9
		c-3.9,3.1-7.6,6.4-11.7,9.2c-5,3.4-10.3,6.5-15.4,9.7c-1.1,0.7-2.3,1.3-3.5,1.5C710.9,1278.6,709.8,1278.2,708.8,1278.1z"/>
	<path d="M127.2,1276.8c-1.2-1.2-1.5-2.2-0.5-3.2c1.1-1,2.2-1.8,3.5-2.6c9-5.5,17.7-11.4,26-18c2-1.6,2.1-1.5,6.5-2.1
		c-2.5,4.7-8.4,5.3-11.3,10.2c1.2-0.2,2-0.2,2.6-0.4c1.2-0.5,2.3-1.1,3.4-1.7c10-6,20-12,30-18.1c4.5-2.7,8.8-5.8,13.5-8.3
		c9.8-5.3,18-12.7,27-19c5.4-3.8,10.6-7.8,15.9-11.5c11-7.7,22-15.4,32.1-24.3c3.1-2.8,6.5-5.2,9.7-7.9c1.6-1.3,2.9-2.7,3.3-5
		c0.5-2.7,3.2-4,5.9-3.9c1.5,0.1,2.5,0.9,2.8,2.2c0.1,0.7-0.5,1.9-1.1,2.4c-6.3,5.1-12.8,10.2-19.1,15.3c-2.6,2.1-5.1,4.4-7.7,6.4
		c-5,3.9-10.1,7.9-15.2,11.7c-10.8,8-21.4,16.2-32.6,23.7c-14.9,10-29.4,20.5-45.3,28.8c-3,1.6-5.8,3.4-8.7,5.1
		c-3,1.8-6.1,3.5-9.6,4.3c-1.1,0.2-2.2,0.7-3,1.4c-7,6.5-15.6,9.8-24.2,13.3C129.7,1276.2,128.3,1276.5,127.2,1276.8z"/>
	<path d="M51.8,1231.3c-1.1-1.4-1.1-2.6,0-3.6c0.9-0.9,2-1.6,3.1-2.3c17.5-12.1,35.8-23,54.4-33.2c2.9-1.6,5.7-3.5,8.7-5
		c3.5-1.8,7.5-3,10.8-5.1c3.2-2,5.9-4.7,9.3-6.7c12.5-7.5,25.1-14.7,38.1-21.3c5.7-2.9,11-6.5,16.4-9.9c4.7-2.9,9.4-6.1,14.2-9
		c10.4-6.3,20.8-12.6,31.2-18.8c2.3-1.4,4.7-2.6,7.2-3.9c0.9-0.5,2-0.5,2.4,0.6c0.4,1-0.1,1.7-1.1,2.3c-12.5,7.7-25,15.4-37.6,23
		c-9.3,5.7-18.5,11.3-27.9,16.8c-7.7,4.5-15.7,8.5-23.5,13c-14.8,8.5-29.5,17.2-44.3,25.8c-9.4,5.5-18.6,11.4-28.3,16.1
		c-7.9,3.8-14.6,9.2-21.7,13.9c-2.5,1.7-4.7,3.8-7.1,5.7C54.8,1230.8,53.7,1231.7,51.8,1231.3z"/>
	<path d="M994.7,655.5c-2.1-2.8-2.4-5.9-2.3-8.9c0.4-12,0.1-24,2.2-35.9c0.3-1.6,0.3-3.2,0.3-4.8c0.2-13.6,2.2-27.1,3.5-40.6
		c0.5-4.9,0.8-9.9,1.2-14.8c1.1-11.9,2.3-23.9,3.4-35.8c0.6-6.5,1-13.1,1.4-19.6c0.9-15.5,1.9-30.9,2.7-46.4
		c0.7-13.1,1.2-26.2,1.7-39.3c0.3-8.6,0-17.2-1.2-25.8c-0.2-1.3-0.2-2.6-0.1-3.8c0-0.5,0.7-0.9,1.2-1.4c0.5,0.5,1.1,0.7,1.2,1.1
		c1.1,4.2,2.1,8.3,2.1,12.7c-0.1,7.7-0.1,15.3,0,23c0.1,5.4,0.2,10.8-1.3,16.2c-0.5,1.8-0.4,3.8-0.6,5.7c-0.4,5.7-0.7,11.5-1,17.2
		c-0.1,2.4-0.3,4.8-0.3,7.2c-0.1,8-0.2,16-1.5,23.9c-0.2,0.9-0.2,1.9-0.2,2.9c-0.4,16.8-1.8,33.5-3.7,50.2
		c-1.3,11.6-2.2,23.2-3.2,34.8c-0.8,8.3-1.6,16.5-2.3,24.8c-1.3,15.8-2.8,31.5-2.4,47.4c0,1.9,0.4,3.8,0.6,5.7
		C996.3,652.6,996.6,654.1,994.7,655.5z"/>
	<path d="M107.9,1227.3c0.6-0.5,1-0.9,1.3-1.2c12-7.3,24.2-14.2,36.9-20.4c1.2-0.6,2.7-0.8,4.1-1.1c2.5-0.4,4.9-1,7.1-2.5
		c1.7-1.2,3.5-2.2,5.4-3.1c13.3-6.3,26.1-13.5,38.8-20.8c17.7-10.2,35.5-20.2,52.8-31.1c3.9-2.5,7.7-5.1,11.6-7.6
		c0.8-0.5,1.6-1.1,2.4-1.6c1-0.6,2.1-1,2.9,0.3c0.6,1.1-0.1,1.8-0.9,2.4c-3.5,2.5-6.8,5.3-10.5,7.6c-8.6,5.3-17.2,10.4-25.9,15.4
		c-15.7,9.1-31.5,18.2-47.3,27.2c-5.7,3.2-11.5,6.2-17.4,9.2c-18.2,9.3-36.4,18.5-54.6,27.8C112.2,1228.9,110.2,1229.7,107.9,1227.3
		z"/>
	<path d="M565.8,1114.7c-1.1,1.4-1.6,2.7-2.4,2.8c-0.9,0.1-2.3-0.5-2.8-1.3c-0.8-1.3-1.4-2.9-1.5-4.4c-0.2-1.8,1.3-3,3.1-2.5
		c1.2,0.3,2.4,0.9,3.5,1.6c10,5.5,18.9,12.5,27.6,19.8c8.6,7.1,17.4,14,26.2,21c0.6,0.5,1.4,0.8,2.2,1.3c0.9-0.7,1.9-1.2,2.7-2
		c6.6-6.5,13-13.2,19.7-19.6c4.5-4.3,9.3-8.3,13.9-12.5c1.1-1,2.2-1.9,3.1-2.9c5.1-5.9,10.1-11.9,15.1-17.9c0.1-0.1,0.2-0.2,0.3-0.4
		c1.2-1.2,2.5-1.5,3.4-0.7c1,0.9,0.7,2.1,0.1,3c-0.6,0.9-1.3,1.9-2,2.7c-4.7,4.8-9.1,9.9-14.2,14.2c-7.2,6.1-13.6,13-20,19.9
		c-5.1,5.5-10.3,10.9-15.5,16.4c-2,2.1-2,2.1-1.8,5.1c-2.2,0.7-4.4,1.3-6.9,2c-1.2-1.2-2.2-2.8-0.3-5c-6.2-4.6-12.2-9.1-18.1-13.6
		c-5.8-4.5-11.4-9.3-17.3-13.7C578,1123.3,572.2,1118.5,565.8,1114.7z"/>
	<path d="M905.4,1255.8c-1.9-1.2-2.2-2.4-1.4-3.7c0.8-1.2,1.7-2.3,2.8-3.3c5.6-5,11.4-9.8,17-14.8c5.7-5.1,11.6-10.1,16.9-15.6
		c10-10.3,19.7-20.9,29.4-31.6c3-3.3,5.7-6.9,8.4-10.4c1-1.2,1.7-2.7,2.9-4.6c-1.6,0.1-2.4,0-3.2,0.3c-5.3,1.9-9.9,5.1-14.4,8.5
		c-0.7,0.5-1.3,1.4-1.7,2.2c-0.6,1.2-1.2,2.4-2.7,2.3c-1.8,0-2.3-1.4-2.7-3.1c0.7-0.7,1.3-1.6,2.2-2.2c4.4-3.1,8.8-6.4,13.4-9.2
		c2.4-1.4,5.3-2.1,8.1-2.8c2-0.5,4.1-0.4,6.1,1.2c0.4,2.6-0.9,4.6-2.3,6.5c-2.8,3.7-5.5,7.5-8.5,11c-7.5,8.7-15.1,17.4-23.7,25.1
		c-1.7,1.5-3.1,3.2-4.6,4.9c-9.2,10.2-19.8,19-30,28.3c-2.6,2.4-4.9,5-7.4,7.4C908.4,1253.2,906.9,1254.4,905.4,1255.8z"/>
	<path d="M940.8,1165.7c-2.3,3.4-4.8,5.1-7.5,6.8c-3.4,2.1-6.6,4.5-9.7,7c-12.8,10.5-25.6,21.1-38.4,31.7
		c-7.4,6.1-14.8,12.2-22,18.5c-1.4,1.2-2.5,3-3.1,4.7c-0.5,1.3-1.1,2.2-2.2,2.9c-7.9,5.1-15.8,10.3-23.7,15.4
		c-1.6,1-3.2,2.1-5.4,1.2c-0.2-2.2,1.1-3.4,2.5-4.4c6.1-4.6,12.2-9.2,18.4-13.7c4.2-3.2,8.4-6.3,12.7-9.5
		c7.2-5.3,13.6-11.6,20.1-17.6c5.7-5.3,12.2-9.8,18.3-14.7c4.2-3.4,8.3-6.9,12.6-10.3c6.4-5.1,12.8-10.1,19.3-15
		c1.4-1,3.1-1.7,4.7-2.4C938.1,1165.9,939.1,1166,940.8,1165.7z"/>
	<path d="M437.4,1190.5c0.9-1.8,1.9-2,3.1-1.4c1.3,0.7,2.5,1.5,3.6,2.3c8.5,5.9,17.1,11.8,25.5,17.9c5,3.7,9.7,7.8,14.5,11.8
		c0.6,0.5,1.2,1,1.9,1.5c5.2,3.7,10.5,7.3,15.7,10.9c5.4,3.8,10.7,7.6,16,11.4c0.4,0.3,0.9,0.5,1.1,0.9c1.6,3.3,5,4.2,7.9,5.8
		c5,2.9,9.8,5.9,14.7,9.1c5.2,3.4,10.4,6.8,15.6,10.3c1.3,0.9,2.6,1.8,4,2.8c-0.4,1-0.6,1.9-0.9,2.7c-0.4,0-0.8,0.1-1,0
		c-15.4-10.3-31.3-19.8-46-31.1c-3.7-2.8-7.5-5.4-11.4-8c-14.3-9.4-27.9-19.8-41.3-30.3c-4.8-3.7-9.9-7-14.9-10.5
		C442.7,1194.6,439.7,1193.1,437.4,1190.5z"/>
	<path d="M811.1,1119.6c-0.6,1.2-1.1,2.1-1.6,2.9c-1.8-0.3-3.3-0.8-4.9-0.8c-3.3,0-6,1.1-8.1,4.1c-1.6,2.3-3.8,4.4-6,6.2
		c-10.5,8.7-20.8,17.5-31.7,25.7c-5.8,4.4-11.4,9.2-17.2,13.6c-5.9,4.4-11.8,8.8-17.6,13.2c-1.8,1.3-3.5,2.7-4.3,5
		c-0.4,1.1-1.5,2.1-2.5,2.8c-4.4,2.9-8.9,5.7-13.4,8.3c-1.2,0.7-2.7,0.9-4.1,1.1c-1,0.1-1.9-1.1-1.4-2c0.6-1.1,1.3-2.4,2.3-2.9
		c9.2-4.7,16.6-11.9,25.3-17.3c4-2.4,7.6-5.2,10.8-8.6c2.4-2.5,5.5-4.4,8.2-6.6c7.8-6.1,15.6-12.2,23.3-18.4
		c5.6-4.5,11-9.2,16.7-13.7c5-4,10.1-7.8,15.2-11.6c1.1-0.9,2.4-1.6,3.7-2.2C806.3,1117.4,808.6,1117.4,811.1,1119.6z"/>
	<path d="M1026,671.2c-1.4,0.5-2.3-0.3-2.6-1.4c-0.4-1.4-0.6-2.8-0.5-4.2c0.4-9.6-0.8-19.1-1.7-28.7c-0.1-1.4-0.2-2.9-0.3-4.3
		c-0.1-7.2-0.3-14.4-0.1-21.6c0.4-14.2,0.9-28.4,1.5-42.6c0.3-8.3,0.8-16.6,1.3-24.9c0.7-11,1.5-22,2.2-33c0.4-6.7,1-13.4,1.2-20.1
		c0.6-15,0.8-30,1.5-45c1-19.2,0.6-38.3,0.9-57.5c0-1.2,0.2-2.5,1-3.8c0.2,0.6,0.6,1.3,0.7,1.9c0.1,1.6,0.1,3.2,0.1,4.8
		c-0.1,5.7-0.1,11.5-0.3,17.2c-0.1,4-0.4,8-0.6,11.9c-0.1,1.1,0,2.2,0,3.3c0.1,3.2,0.3,6.4,0.3,9.6c0,4.3-0.2,8.6-0.3,12.9
		c0,0.8,0.1,1.6,0,2.4c-1.1,8.6-0.3,17.2-1.2,25.8c-0.2,1.9-0.2,3.8-0.2,5.7c0,5.4,0.3,10.9-0.9,16.2c-0.1,0.3-0.1,0.6-0.1,1
		c-0.3,5.7-0.7,11.5-1,17.2c-1.1,19.1-2.4,38.3-3.3,57.4c-1,21.1-1.8,42.2-1,63.3c0.3,7.5,1.2,15,1.9,22.5c0.2,1.9,0.3,3.8,0.5,5.7
		C1025.4,665.6,1025.7,668.2,1026,671.2z"/>
	<path d="M947,633.3c-0.3-0.9-0.8-1.6-0.9-2.3c-0.5-7.3-2.3-14.5-1.2-21.9c0.4-2.6-0.2-5.4-0.4-8.1c-0.2-2.9-0.6-5.7-0.6-8.6
		c0-9.3,0.5-18.5-0.9-27.8c0-0.2,0-0.3,0-0.5c1.1-12.6-1.3-25.2,0-37.8c0.2-2.2,0.1-4.5-0.1-6.7c-0.3-4.8-0.4-9.6,0.7-14.3
		c0.3-1.5,0.3-3.2,0.1-4.8c-0.9-7.9,0.2-15.6,0.6-23.4c0.1-2.4,0.4-4.8,0.3-7.2c-0.2-5.3-0.3-10.5,0.6-15.8c0.2-1.2,0-2.5,0-3.8
		c0.1-5.6,0.1-11.2,0.2-16.7c0.1-3.3,0.4-6.7,0.7-9.7c2.2,13.8,2.4,9.8,1.3,24c-0.2,3,0,6.1-0.2,9.1c-0.3,4.9-0.9,9.8-1.2,14.8
		c-0.2,4-0.1,8-0.1,11.9c0,4.3,0,8.6-0.1,12.9c0,1.8-0.2,3.5-0.3,5.3c-0.3,6.9-0.8,13.7-1,20.6c-0.1,4.6,0.1,9.3,0.3,13.9
		c0.1,2.2,0.4,4.5,0.4,6.7c0.1,6.1,0.2,12.1,0.2,18.2c0,3.8-0.4,7.6-0.4,11.5c0,3.5-0.1,7.1,0.6,10.5c1.5,8.1,1.3,16.2,1.6,24.4
		c0.3,6.5,0.6,13.1,0.9,19.6C948.4,629.1,948.6,631.2,947,633.3z"/>
	<path d="M1056,32.5c0.9,1.6,1.1,3.3,0.2,4.5c-1.2,1.6-1.1,3.2-1.4,5c-0.6,3.9-1.3,7.9-2,11.8c-1.5,8.3-3.3,16.6-4.5,25
		c-1,6.6-1.3,13.3-2,20c-1.1,11.9-2.4,23.8-3.4,35.7c-0.4,4.3-0.4,8.6-0.5,12.9c-0.2,5.1-0.3,10.2-0.5,15.3c-0.1,3.7-0.1,7.3-0.3,11
		c-0.2,4.1-0.5,8.3-1.3,12.5c-0.2-0.8-0.4-1.5-0.5-2.3c-1.1-6.7-0.7-13.4-0.5-20.1c0.1-2.4,0.1-4.8,0-7.2c0-3,0.3-6,1-9
		c0.7-2.8,0.8-5.7,0.8-8.5c0.1-7-0.3-14,0.6-21c0.7-4.9,0.8-9.9,1.2-14.8c0.2-2.4,0.7-4.7,1-7.1c0.6-5.4,1-10.8,1.7-16.2
		c1.7-11.9,3.6-23.7,5.3-35.5c0.4-2.4,0.5-4.8,0.7-7.1C1051.9,34.9,1053,33,1056,32.5z"/>
	<path d="M948.5,370.7c0.2-9.9,0.4-19.8,0.5-29.7c0-4.5,0-8.9,1-13.3c0.7-3,0.7-6,0.1-9c-1-6-1.2-12.1-1.1-18.1
		c0.1-5.3-0.1-10.5-0.2-15.8c-0.1-4,0-8,1.2-11.8c0.3-0.9,0.3-1.9,0.1-2.8c-2.3-10.1-1.9-20.3-2.2-30.5c-0.1-3.2-0.4-6.4-0.3-9.6
		c0-3.2,0.3-6.3,0.5-10.5c1.6,2.6,1.8,4.6,2.1,6.5c0.5,3.8,0.9,7.6,1,11.5c0.1,10.7,0,21.4,0.1,32.1c0,4.6,0.7,9.2,0.7,13.9
		c0,11-0.1,22-0.2,33.1c0,4.5,0,8.9,0,13.4c0,6.7,0.1,13.4-0.2,20.1c-0.3,7.8-0.9,15.6-1.3,24C949.4,372.5,948.9,371.6,948.5,370.7
		L948.5,370.7z"/>
	<path d="M552.2,1215.5c-1.2-0.7-2.5-1.3-3.7-2.1c-13-8.7-26.1-17.4-39-26.2c-5.8-4-11.3-8.4-17-12.4c-9.7-6.8-19.5-13.4-29.2-20.1
		c-1.3-0.9-2.5-1.1-4.1-0.8c-2.3,0.5-4-0.8-5.4-2.5c-0.5-0.6-0.8-1.9-0.5-2.6c0.3-0.7,1.5-1.4,2.2-1.3c1.5,0.2,3.2,0.6,4.5,1.3
		c15.8,9.3,30.4,20.5,45.6,30.9c4.6,3.2,9,6.7,13.4,10c1,0.8,2,1.6,3.1,2.2c6.8,3.7,12.7,8.6,18.9,13c3,2.2,6.1,4.1,9.1,6.2
		C551.8,1212.3,553.1,1213.4,552.2,1215.5C552.2,1215.5,552.2,1215.5,552.2,1215.5z"/>
	<path d="M146.4,1124.6c0,2.4-0.3,3.8-2.2,4.9c-6.3,3.4-12.7,6.8-18.7,10.6c-11.4,7.3-22.4,15.3-34.3,21.8c-3.2,1.8-6.4,3.6-9.6,5.5
		c-6.8,4.1-13.6,8.3-20.4,12.5c-2.2,1.3-4.2,2.9-6.5,4.1c-1.4,0.7-2.9,1.2-4.5,1.5c-0.6,0.1-1.7-0.4-1.9-0.9c-0.2-0.5,0.1-1.6,0.6-2
		c0.9-0.9,2-1.6,3.2-2.1c3.9-1.8,7.8-3.7,11.1-6.6c0.4-0.3,0.8-0.7,1.2-0.7c3.9-0.5,6.4-3.3,9.4-5.4c3-2.1,6.2-3.9,9.4-5.7
		c10.2-5.7,20.5-11.1,30-18c2.3-1.7,4.9-2.9,7.4-4.4c5.1-3,10.1-6.1,14.8-9.7C138.4,1127.6,141.7,1125.4,146.4,1124.6z"/>
	<path d="M151.2,947.9c-2.9,0.6-6.1,0.2-8.8,1.8c-3.8-1.4-7.6,0.1-11.4-0.1c-1.9-0.1-3.8,0.5-5.6,0.7c-0.9,0.1-1.9,0.4-2.8,0.4
		c-5.6,0-11.2-0.1-16.8-0.3c-3.7-0.1-6.8,0.9-9.7,3.3c-5.3,4.3-10.9,8.3-16.6,12.6c-0.6-0.9-1.1-1.6-1.8-2.5
		c6-3.6,11.9-6.9,17.7-11.9c-1.6-0.3-2.5-0.5-3.3-0.5c-3.4-0.1-6.7-0.1-10.1-0.1c-10.1,0-20.1,0.1-30.2,0.1c-3.8,0-7.7-0.1-11.5-0.2
		c-1.9,0-3.8,0-5.5,1.2c-0.8,0.6-2.1,0.8-3,0.6c-1.3-0.3-2.2-1.3-2.2-2.8c1.3-1.7,3.1-1.3,4.9-1.3c6.4,0.3,12.8,0.6,19.2,0.8
		c3.7,0.1,7.4,0.2,11,0.1c12.6-0.5,25.2-1.4,37.8-0.2c1.3,0.1,2.5-0.2,3.8-0.3c10-0.8,20.1-1.6,30.1-2.4c2.2-0.2,4.5-0.3,6.7-0.8
		c2-0.4,3.8-1.3,5.9-2.1c-0.1,0.9-0.3,2-0.5,3.2C149.5,947.5,150.4,947.7,151.2,947.9L151.2,947.9z"/>
	<path d="M963.3,678.2c-0.9-0.7-2-1.1-2.1-1.7c-0.7-2.4-1.2-4.9-1.6-7.5c-0.2-1.6-0.2-3.2-0.1-4.8c0.4-12.3,0-24.6,1.5-36.9
		c0.6-5.1,0.8-10.2,1.2-15.3c0.1-1.1,0.1-2.3,0.5-3.3c1.1-2.6,1-5.3,1-8c0-6.9,1-13.8,2.9-20c0.4,5.8,0.2,10.8-0.5,15.9
		c-0.6,4.9-1,9.8-1.5,14.8c-0.1,1.4-0.1,2.9-0.4,4.3c-1.6,7.7-1.6,15.6-1.7,23.4c0,4.5-0.8,8.9-1.1,13.3c-0.1,1.7-0.1,3.5,0.1,5.2
		c0.2,2.7,0.7,5.4,0.9,8.1C962.9,669.7,963.1,673.6,963.3,678.2z"/>
	<path d="M552.2,1215.5c1.5,0.4,3.1,0.6,4.5,1.3c8,4,15.9,8.2,23,13.7c1,0.8,2.1,1.4,3.2,2.1c5.7,3.3,11.4,6.4,17,9.9
		c2.9,1.8,5.4,4.4,8.2,6.8c-1.5,1.3-2.4,0.6-3.3,0.1c-4-2.3-8-4.6-12-7c-8.7-5.3-17.4-10.6-26.1-16.1c-4.2-2.6-8.1-5.6-12.2-8.5
		C553.7,1217.2,553,1216.2,552.2,1215.5L552.2,1215.5z"/>
	<path d="M1031.5,295.3c-0.2-1.1-0.6-2.3-0.6-3.4c0.2-4.9,0.5-9.9,0.8-14.8c0.2-2.9,0.5-5.7,0.6-8.6c0.1-3.4,0.2-6.7,1.3-9.9
		c0.5-1.5,0.5-3.2,0.4-4.7c-0.1-6.3,0.5-12.4,1.7-18.6c0.2-0.9,0.4-1.9,0.5-2.8c0.6-10.7,1.3-21.4,1.9-32c0.1-2.7,0.4-5.3,2.2-7.9
		c0.7,5.7,0.4,11.1,0,16.5c-0.3,4.6-1,9.2-1.5,13.8c-0.2,1.4-0.4,2.9-0.8,4.2c-1.5,4.5-1.5,9.1-1.5,13.7c0,2.7-0.2,5.4-0.4,8.1
		c-0.4,4.5-0.8,8.9-1.3,13.3c-0.3,2.5-0.7,5.1-0.9,7.6c-0.4,4.3-0.7,8.6-0.9,12.9c-0.2,3.3-0.1,6.7-0.2,10.1c0,0.9-0.3,1.7-0.5,2.6
		C1032.1,295.3,1031.8,295.3,1031.5,295.3z"/>
	<path d="M0,502.9c0.1-2.5,1.3-3.5,3.4-3.3c2.7,0.2,5.4,0.6,8.1,0.8c2.5,0.1,5,0,7.6-0.1c2.1-0.1,4.1-0.3,6.2-0.3
		c6.7,0.2,13.4,0.5,20,0.8c1.7,0.1,3.4,0.2,6.2,0.4c-1.6,1.3-2.2,2.1-3.1,2.5c-0.8,0.3-1.9,0.3-2.8,0.3c-9.1-0.1-18.1-0.3-27.2-0.2
		c-4.3,0-8.6,0.3-12.9,0.6C3.2,504.5,3.2,504.6,0,502.9z"/>
	<path d="M1031.5,301.7c0.2,0.7,0.7,1.4,0.7,2.1c0.1,1.7,0.3,3.5,0.1,5.3c-1,6.5-0.1,13.1-0.3,19.6c-0.3,8.6-0.1,17.2-0.2,25.8
		c-0.1,5.9,0.1,11.8,0.1,17.7c0,1.7,0.3,3.5-1,5.6c-0.5-0.9-1.1-1.5-1.1-2.1c0-3.4,0.1-6.7,0.1-10.1c0.1-10.7,0.3-21.4,0.4-32.1
		c0.1-10.1,0.1-20.1,0.2-30.2c0-0.5,0.2-0.9,0.3-1.4C1031,301.8,1031.2,301.8,1031.5,301.7z"/>
	<path d="M1082.8,1141.5c2-2.9,4.2-3.6,7-3.5c8.9,0.1,17.8-0.7,26.8,0.2c1,0.1,2,0.4,4.1,0.9c-1.7,0.8-2.4,1.3-3,1.4
		c-3,0.3-6,0.6-9.1,0.7c-7.5,0.2-15,0.2-22.5,0.4C1085.1,1141.6,1084.1,1141.5,1082.8,1141.5z M1100.2,1139.2c0-0.1,0-0.3,0-0.4
		c-0.6,0-1.2,0-1.8,0c0,0.1,0,0.3,0,0.4C1099,1139.2,1099.6,1139.2,1100.2,1139.2z"/>
	<path d="M948.4,370.6c0,3.3,0.2,6.6,1.1,9.9c0.5,1.8,0.6,3.8,0.5,5.7c-0.5,10.8-1,21.6-1.5,32.4c0,0.9-0.2,1.8-0.3,3.4
		c-1.6-2.9-1.8-5.5-1.7-8c0.1-8.3,0.2-16.6,0.6-24.8C947.2,383.1,948,376.9,948.4,370.6L948.4,370.6z"/>
	<path d="M540.4,492.5c13.3-2.6,26.7-2.1,40.1-2.1c-0.3,0.5-0.6,1-1.2,2.1C566.7,492.5,553.5,492.5,540.4,492.5z"/>
	<path d="M96.4,714.6c9.6-3.1,19.7-3,29.6-4.2c-3,1.3-5.9,3-9.3,3.2c-1.1,0.1-2.1,0.6-3.2,0.9c0,0,0.2-0.1,0.2-0.1
		c-3,0.3-6,0.5-9,0.9c-3.6,0.5-7.2,1.2-10.8,1.7c-1.6,0.3-3.2,0.3-4.3-1.2c0.1-0.1,0.3-0.3,0.4-0.4
		C92.2,715.6,94.4,715.8,96.4,714.6L96.4,714.6z"/>
	<path d="M627.8,492.3c-7.3,1-13.9,0.1-20.5,0.2c-6.5,0.1-13.1,0-20.5,0C603,489.8,621.8,489.6,627.8,492.3z"/>
	<path d="M1131.4,1138.2c3.8,0.2,7.1,0.4,10.4,0.6c2.2,0.1,3.3,1.4,4.4,3.4c-5.5,0.7-10.4-0.6-15.8-0.9
		C1130.7,1140.2,1131,1139.4,1131.4,1138.2z"/>
	<path d="M90,715.5c-0.1,0.1-0.3,0.3-0.4,0.4c-5.5,1.2-11.2,1.3-16.4,3.4l0.1-0.1c-2.9,0.6-5.9,1.1-9.4,1.8c1.1-0.8,1.8-1.6,2.7-1.8
		c4.1-1.2,8.3-2.3,12.4-3.3c2.9-0.7,5.9-1.1,8.9-1.6c2.8-0.5,5.7-1.1,8.4,0.3l0-0.1C94.3,714.8,92.2,715.1,90,715.5z"/>
	<path d="M55.6,988.5c1.6-3,1.6-3,4.8-5.1c-0.2,0.3-0.5,0.7-0.7,1c-0.3,0.5-0.7,1-1.4,2c4.6-0.5,7.2-3.7,10.6-5.1
		C64.7,985.7,61.3,987.5,55.6,988.5z"/>
	<path d="M170.5,964.8c4.7-4.5,10.8-6.8,16-10.5C184.2,956.9,174.2,963.5,170.5,964.8z"/>
	<path d="M504.4,953.5c0,0.8,0,1.5,0,2.2c2.2,1.3,3.6-0.7,5.8-0.8c-1.7,2.3-3.8,2.8-6.1,2.2c-1.2-1.2-0.7-2.4-0.3-3.6
		c0-0.1,0.2-0.2,0.4-0.2C504.2,953.3,504.3,953.4,504.4,953.5z"/>
	<path d="M391.1,961.7c2.2-2,4.3-4.1,6.5-6.1c0.2-0.1,0.5-0.1,1.5-0.2C396.2,957.8,394.1,960.3,391.1,961.7z"/>
	<path d="M211.4,954.4c-2.9,2.4-5.9,4.7-8.8,7.1C204.7,957.9,208,956.1,211.4,954.4C211.5,954.5,211.4,954.4,211.4,954.4z"/>
	<path d="M292.2,945.6c-2,2.5-4.2,4.7-7.4,5.5C287.3,949.2,289.8,947.4,292.2,945.6z"/>
	<path d="M484,953.5c-0.6,1.4-1.3,2.8-1.9,4.2c0,0.1,0.1,0.3,0.2,0.7c0.6,0.1,1.3,0.3,2.3,0.4c-0.9,1.4-2,1.3-3.4,0.8
		C480.5,956.9,482.1,955.1,484,953.5C484.1,953.6,484,953.5,484,953.5z"/>
	<path d="M525.3,928.4c-2.4,2.6-4.4,4.6-6.5,6.9C520,932.2,521.1,931.1,525.3,928.4z"/>
	<path d="M338.1,955.3c-1.4,2.9-4.3,4.1-7,5.5c1.1-0.9,2.1-1.9,3.2-2.7C335.5,957.2,336.9,956.3,338.1,955.3L338.1,955.3z"/>
	<path d="M201.9,972.7c2.1-2.3,5.1-3,7.8-4.2C207.4,970.4,205,972.2,201.9,972.7L201.9,972.7z"/>
	<path d="M248.9,966.9c-2,2.2-4.1,4.4-6.1,6.6C244.4,969.8,245.4,968.9,248.9,966.9L248.9,966.9z"/>
	<path d="M233.1,949.1c-1.9,1.3-3.8,2.6-5.6,3.9C228.5,950.5,230.6,949.6,233.1,949.1z"/>
	<path d="M83.8,981.4c2.1-2.8,4.5-5.2,7.7-6.7l-0.1-0.1C89.3,977.3,87,979.9,83.8,981.4L83.8,981.4z"/>
	<path d="M526.3,949.7c1.7-2.2,3.4-4.4,5.6-7.5c-0.2,2.8-1.8,3.4-2.7,4.4C528.4,947.8,527.3,948.7,526.3,949.7L526.3,949.7z"/>
	<path d="M376.3,951.9c-1.6,1.2-3.2,2.5-4.8,3.7C372.5,953.7,374,952.2,376.3,951.9z"/>
	<path d="M109.1,959.8c1.6-1.2,3.1-2.5,4.7-3.7c-0.6,2.4-2.7,3-4,4.4C109.5,960.2,109.3,960,109.1,959.8z"/>
	<path d="M480.5,939.8c1.1-1.1,2.3-2.3,3.4-3.4c0.1,0.1,0.3,0.2,0.4,0.4c-1.1,1.2-2.3,2.3-3.4,3.5
		C480.8,940,480.7,939.9,480.5,939.8z"/>
	<path d="M299.4,954.1c-1.2,1.1-2.5,2.3-3.7,3.4c-0.2-0.2-0.3-0.3-0.5-0.5c1.2-1.2,2.4-2.4,3.7-3.6
		C299,953.6,299.2,953.8,299.4,954.1z"/>
	<path d="M236.5,962.1c1.2-2.2,3.1-3.7,5.3-4.8C240.3,959.3,238.8,961.2,236.5,962.1L236.5,962.1z"/>
	<path d="M126,978c-1.3,1.1-2.6,2.3-3.8,3.4c-0.1-0.2-0.3-0.3-0.4-0.5c1.2-1.2,2.5-2.5,3.7-3.7C125.6,977.5,125.8,977.8,126,978z"/>
	<path d="M104.2,980.9c1.3-1.2,2.5-2.4,3.8-3.6c0.2,0.2,0.3,0.4,0.5,0.6c-1.3,1.2-2.5,2.4-3.8,3.7
		C104.6,981.3,104.4,981.1,104.2,980.9z"/>
	<path d="M295.9,973.6c1.6-1.7,3.3-3.4,4.9-5.1C299,971.8,299,971.8,295.9,973.6C295.8,973.6,295.9,973.6,295.9,973.6z"/>
	<path d="M152.5,956.6c-1.2,0.9-2.4,1.8-3.8,2.9C149.7,957.5,149.7,957.5,152.5,956.6z"/>
	<path d="M201.9,972.7c-1.2,1-2.5,1-4.1,0.3c0.8-1.9,2.4-2.5,4-3.1l-0.1-0.1C201.4,970.7,199.8,971.8,201.9,972.7L201.9,972.7z"/>
	<path d="M506.1,928.8c0.8-0.9,1.6-1.8,2.4-2.7c0.1,0.1,0.3,0.2,0.4,0.3c-0.7,0.9-1.4,1.9-2.1,2.8
		C506.6,929.1,506.3,929,506.1,928.8z"/>
	<path d="M380.6,960.7c1-0.9,2-1.8,3-2.6c0.2,0.2,0.3,0.3,0.5,0.5c-1,0.9-1.9,1.7-2.9,2.6C381,961,380.8,960.9,380.6,960.7z"/>
	<path d="M314.7,929.5c-0.9,0.8-1.9,1.5-2.9,2.3c-0.1-0.5-0.2-0.9-0.1-1c0.9-0.7,1.8-1.3,2.7-1.9
		C314.4,929.1,314.6,929.3,314.7,929.5z"/>
	<path d="M498.8,938.1c-0.7,0.7-1.4,1.5-2.2,2.2c-0.2-0.2-0.4-0.4-0.6-0.6c0.7-0.8,1.4-1.6,2.1-2.4
		C498.3,937.6,498.5,937.8,498.8,938.1z"/>
	<path d="M555.4,944.9c0.5-1,1-1.9,1.4-2.9c0.2,0.1,0.3,0.1,0.5,0.2c-0.2,0.5-0.3,1.1-0.5,1.6c-0.2,0.5-0.6,1-0.9,1.6
		C555.8,945.2,555.6,945,555.4,944.9z"/>
	<path d="M283.2,968.4c-0.7,0.8-1.5,1.5-2.2,2.3c-0.2-0.1-0.3-0.3-0.5-0.4c0.7-0.8,1.4-1.6,2.1-2.4C282.8,968,283,968.2,283.2,968.4
		z"/>
	<path d="M484.1,953.6c0.8-1.2,1.5-2.5,2.3-3.7C486.3,951.6,485.4,952.7,484.1,953.6C484,953.5,484.1,953.6,484.1,953.6z"/>
	<path d="M323.7,951.1c-0.8,0.6-1.6,1.2-2.4,1.8c-0.1-0.2-0.3-0.4-0.4-0.6c0.8-0.6,1.5-1.3,2.3-1.9
		C323.4,950.6,323.5,950.8,323.7,951.1z"/>
	<path d="M123.2,965c-1.1,1.1-2.1,2.2-3.2,3.3C120.5,966.5,121.5,965.4,123.2,965L123.2,965z"/>
	<path d="M247.9,952.9c-0.6,0.5-1.3,1-1.9,1.5c-0.1-0.1-0.2-0.2-0.3-0.4c0.6-0.5,1.2-1.1,1.8-1.6
		C247.6,952.6,247.8,952.7,247.9,952.9z"/>
	<path d="M141.2,965.3c-0.5,0.5-1.1,1-1.6,1.4c-0.1-0.1-0.2-0.1-0.2-0.2c0.6-0.5,1.1-1,1.7-1.4C141.1,965.2,141.2,965.3,141.2,965.3
		z"/>
	<path d="M91.5,974.6c1-1.1,2.1-2.2,3.1-3.3C94.2,973.1,93,974.1,91.5,974.6L91.5,974.6z"/>
	<path d="M255.2,974.1c0.6-0.5,1.2-1.1,1.9-1.6c0.1,0.2,0.3,0.3,0.4,0.5c-0.6,0.5-1.3,1-1.9,1.5
		C255.4,974.4,255.3,974.3,255.2,974.1z"/>
	<path d="M305.8,964.7c0.3-0.3,0.6-0.7,0.9-1c0.3-0.2,0.8-0.4,1.2-0.5c-0.2,0.4-0.4,0.8-0.6,1.1c-0.3,0.3-0.7,0.6-1.1,0.8
		C306.1,965,305.9,964.9,305.8,964.7z"/>
	<path d="M156.1,975.2c0.7-0.6,1.4-1.2,2.1-1.8c0.2,0.2,0.3,0.4,0.5,0.5c-0.7,0.6-1.4,1.2-2.1,1.8
		C156.4,975.5,156.3,975.4,156.1,975.2z"/>
	<path d="M131.7,958.8c-0.7,0.5-1.4,1-2.1,1.5c-0.1-0.2-0.2-0.3-0.4-0.5c0.7-0.6,1.3-1.1,2-1.7C131.4,958.3,131.5,958.5,131.7,958.8
		z"/>
	<path d="M399.9,943.5c0.7-0.5,1.3-1.1,2-1.6c0.1,0.1,0.3,0.3,0.4,0.4c-0.6,0.6-1.3,1.1-1.9,1.7C400.2,943.8,400,943.6,399.9,943.5z
		"/>
	<path d="M252.9,964.1c0.8-1.3,1.8-2.4,3.8-3.3C255.5,962.7,254.3,963.5,252.9,964.1L252.9,964.1z"/>
	<path d="M354.2,943.3c-0.6,0.5-1.1,1-1.7,1.5c-0.2-0.2-0.3-0.3-0.5-0.5c0.6-0.4,1.1-0.8,1.7-1.2C353.9,943.1,354,943.2,354.2,943.3
		z"/>
	<path d="M456.2,943.3c-0.7,0.6-1.4,1.2-2.2,1.7c-0.1-0.2-0.3-0.3-0.4-0.5c0.7-0.6,1.4-1.2,2.1-1.8
		C455.9,942.9,456,943.1,456.2,943.3z"/>
	<path d="M267,965.3c-0.5,0.4-0.9,0.8-1.4,1.2c-0.1-0.1-0.2-0.3-0.3-0.4c0.5-0.4,0.9-0.8,1.4-1.2C266.7,965,266.8,965.2,267,965.3z"
		/>
	<path d="M290.1,777.7c1.4-0.2,2.8-0.4,4.1-0.6c0,0.2,0,0.3,0,0.5C292.8,777.7,291.4,777.7,290.1,777.7
		C290,777.7,290.1,777.7,290.1,777.7z"/>
	<path d="M234.9,968.4c0.4-0.4,0.8-0.9,1.2-1.3c0.2,0.2,0.4,0.4,0.6,0.6c-0.4,0.4-0.8,0.8-1.3,1.3
		C235.3,968.8,235.1,968.6,234.9,968.4z"/>
	<path d="M214.6,965.6c0.6-0.3,1.3-0.6,1.9-0.8c0.1,0.2,0.2,0.3,0.2,0.5c-0.6,0.4-1.2,0.8-1.9,1.2
		C214.8,966.2,214.7,965.9,214.6,965.6z"/>
	<path d="M900.4,447.9c0,0.7,0,1.4,0,2.2c-0.1,0-0.1,0-0.2,0c0-0.7,0-1.4,0-2.2C900.3,447.9,900.4,447.9,900.4,447.9z"/>
	<path d="M85.8,983.3c0.6-1.3,1.6-2.1,3.5-3C88.2,982.2,87.2,983,85.8,983.3L85.8,983.3z"/>
	<path d="M212.6,961.7c0.5-0.3,0.9-0.5,1.4-0.8c0.1,0.1,0.2,0.3,0.3,0.4c-0.4,0.3-0.9,0.7-1.3,1C212.9,962.2,212.8,962,212.6,961.7z
		"/>
	<path d="M344.1,980c-0.2-0.2-0.4-0.4-0.5-0.6c0.3-0.2,0.7-0.4,1-0.6c0.1,0.3,0.3,0.6,0.3,0.8C344.8,979.9,344.4,979.9,344.1,980z"
		/>
	<path d="M123.2,964.9c0.7-0.8,1.3-1.5,2-2.3C125.2,964.1,124.4,964.8,123.2,964.9C123.2,965,123.2,964.9,123.2,964.9z"/>
	<path d="M236.4,962.1c-0.7,0.8-1.3,1.5-2,2.3C234.6,963,235.2,962.3,236.4,962.1C236.5,962.1,236.4,962.1,236.4,962.1z"/>
	<path d="M442.9,938.8c0.4-0.3,0.9-0.6,1.3-1c0.1,0.1,0.2,0.3,0.3,0.4c-0.4,0.3-0.9,0.7-1.3,1C443.1,939.1,443,939,442.9,938.8z"/>
	<path d="M419.7,938.3c-0.5,0.4-1,0.8-1.5,1.1c-0.1-0.2-0.3-0.3-0.4-0.5c0.5-0.4,0.9-0.9,1.4-1.3
		C419.4,937.9,419.6,938.1,419.7,938.3z"/>
	<path d="M420.6,955.7c-0.4,0.3-0.9,0.6-1.3,0.9c-0.1-0.1-0.2-0.2-0.3-0.4c0.4-0.4,0.8-0.8,1.2-1.2
		C420.3,955.2,420.5,955.5,420.6,955.7z"/>
	<path d="M226.5,970.9c-0.4,0.4-0.8,0.7-1.2,1.1c-0.1-0.1-0.2-0.3-0.4-0.4c0.4-0.4,0.8-0.7,1.2-1.1
		C226.3,970.7,226.4,970.8,226.5,970.9z"/>
	<path d="M464.6,936.3c-0.1,0.2-0.2,0.5-0.4,0.6c-0.2,0.2-0.5,0.2-0.8,0.3c0.2-0.3,0.3-0.7,0.5-0.9
		C464,936.2,464.4,936.3,464.6,936.3z"/>
	<path d="M342,952.5c-1.3,0.9-2.6,1.9-3.9,2.8l0.1,0.1C339.4,954.5,340.7,953.5,342,952.5L342,952.5z"/>
	<path d="M252.8,964c-1.3,1-2.6,1.9-3.9,2.9l0.1,0.1C249.8,965.3,251.1,964.4,252.8,964L252.8,964z"/>
	<path d="M211.5,954.5c0.8-0.8,1.5-1.6,2.3-2.4c0.2,0.2,0.3,0.5,0.5,0.7C213.3,953.4,212.4,953.9,211.5,954.5
		C211.4,954.4,211.5,954.5,211.5,954.5z"/>
	<path d="M570.6,920.4c-0.2,0.4-0.5,0.7-0.7,1.1c-0.1-0.1-0.4-0.4-0.4-0.4c0.2-0.3,0.5-0.6,0.8-0.9
		C570.3,920.2,570.5,920.3,570.6,920.4z"/>
	<path d="M542.7,915.6c-0.5,0.3-1,0.6-1.5,0.9c-0.1-0.1-0.2-0.3-0.3-0.4c0.4-0.4,0.9-0.8,1.3-1.2
		C542.3,915.1,542.5,915.4,542.7,915.6z"/>
	<path d="M352.6,969.8c0.7-0.7,1.3-1.4,2-2.1c0.1,0.2,0.3,0.4,0.4,0.5C354.2,968.8,353.4,969.3,352.6,969.8L352.6,969.8z"/>
	<path d="M342,952.6c0.7-0.7,1.4-1.5,2.1-2.2C344,951.7,343.2,952.3,342,952.6L342,952.6z"/>
	<path d="M201.8,969.8c0.8-0.7,1.6-1.4,2.4-2.1C203.9,969.1,202.9,969.5,201.8,969.8C201.7,969.7,201.8,969.8,201.8,969.8z"/>
	<path d="M276.1,958c-0.9,0.7-1.4,1.4-1.6,1.3c-1.1-0.5,0-0.7,0.2-1C274.9,958.1,275.2,958.1,276.1,958z"/>
</g>
</svg>
