<?xml version="1.0" encoding="utf-8"?>
<!-- Generator: Adobe Illustrator 25.4.1, SVG Export Plug-In . SVG Version: 6.00 Build 0)  -->
<svg version="1.1" id="Layer_1" xmlns="http://www.w3.org/2000/svg" xmlns:xlink="http://www.w3.org/1999/xlink" x="0px" y="0px"
	 viewBox="0 0 1275.4 1337.1" style="enable-background:new 0 0 1275.4 1337.1;" xml:space="preserve">
<g>
	<path d="M476.6,500c-2.3-0.9-4.5-0.6-6.7-0.3c-4.7,0.7-9.5,1.5-14.2,2.3c-1.4,0.2-3.2,0.9-3.5-1.6c-2.1-0.8-3.7-2.5-6.5-1.8
		c-7.9,2.2-16.2,1.7-24.3,2.3c-4.8,0.4-9.6,0.5-14.4,0.7c-3.9,0.2-4.3,0.2-7.4-1.1c-0.5-2,0.6-3,2.2-3.6c1.5-0.5,3.1-0.9,4.6-1.3
		c5.9-1.5,11.8-2.9,17.7-4.4c1.2-0.3,2.4-0.4,3.8-0.6c0.1,1.1,0.2,1.9,0.4,2.9c-1.9,0.9-3.8,1.7-5.6,2.5c0.2,1.4,1.2,1,1.9,1
		c13.7-0.5,27.5-0.9,41.2-1.5c3.5-0.1,6.9-0.7,10.6-1.1c0.2-1.4,0.5-2.5,0.5-3.5c0-4.3-0.1-8.6-0.2-13c0-2-0.9-3.4-2.9-3.9
		c-2-0.6-4-1.3-6-1.5c-7.8-0.9-15.6-1.5-23.4-2.3c-2.2-0.2-4.4-0.5-6.6-0.9c-0.6-0.1-1.1-0.8-1.9-1.5c3.4-2.8,7.3-1.9,10.8-2.5
		c3.6-0.6,7.3-0.7,11.4-1.1c0.9,1,2.1,2.2,3.5,3.6c2.2,0.3,4.6,0.5,6.9,1c2.3,0.5,4.6,1.3,7.2,2c0.3-1.1,0.7-1.9,0.7-2.8
		c-0.1-11.2-0.2-22.4-0.5-33.6c-0.1-3-0.9-6-1.8-8.9c-3.1-11.1-6.4-22.1-9.6-33.1c-0.9-3.2-1.7-6.5-2.3-9.8c-0.3-1.3,0-2.8,0-4.5
		c-1-0.1-2.3-0.3-3.5-0.3c-13,0-25.9,0-38.9,0c-3.4,0-6.7-0.3-10.1-0.4c-8.2-0.2-16.3-0.3-24.5-0.4c-11.2-0.1-22.4-0.1-33.6-0.1
		c-3.2,0-6.3,0.2-9.8,0.3c2.8,2.1,5.4,3.4,8,3.2c3.4-0.2,6.2,1.3,9,2.6c0.3,1.2,0.5,2.3,0.8,3.5c-0.8,0.8-1.6,1.7-2.6,2.7
		c-7.3-2.5-14.7-5.2-22.1-7.6c-5.5-1.8-11-3.2-16.6-4.8c-1.4-0.4-2.8-0.9-4-1.6c-1.6-0.9-2.7-2.2-2.8-4.2c2.4-1.9,5.2-1.7,7.9-1.7
		c5.3,0,10.5,0.4,15.8,0.6c4.5,0.2,8.9,0.4,13.4,0.5c15.5,0.3,31,0.5,46.5,0.8c4.3,0.1,8.6,0.2,13,0.2c36.3,0,72.6,0,108.9,0.1
		c13.3,0,26.5,0.1,39.8,0.4c14.9,0.3,29.7,0.7,44.6,1.1c0.3,0,0.6,0,1,0c4.3,0,4.3,0,7.7-2.8c1.2,1,2.2,2.2,3.6,2.8
		c1.3,0.5,2.8,0.3,4.3,0.3c2.1,0.1,4.2,0,6.2,0.1c2.9,0.2,5.7,0.1,8-2.2c0.3-0.3,0.9-0.2,1.5-0.3c0.8,0.9,1.5,2.2,2.5,2.6
		c1.4,0.6,3.1,0.6,4.7,0.6c21.1,0.8,42.2,1.6,63.3,2.2c9.4,0.3,18.9,0.1,28.3,0c1.7,0,3.2-0.4,4.9-1.3c4.6-2.6,9.6-2.2,14.3-0.3
		c1.6,0.6,1.8,2.6,1.8,4.2c0,1.6-1.1,2.6-2.7,2.9c-1.7,0.3-3.5,0.7-5.2,0.7c-10.6,0-21.1,0-31.7-0.1c-1.1,0-2.3-0.2-3.3-0.5
		c-4.2-1.4-8.5-1.8-12.8-1.2c-8.5,1.2-16.9,0.3-25.4,0.1c-11.8-0.3-23.7-0.8-35.5-1.2c-1.6-0.1-3.2,0-5.1,0
		c-5.4,11.8-13.1,22.4-17,35.1c1.8,1.7,3.6,3.5,5.3,5.3c0.8,0.8,1.5,1.7,1.9,2.7c0.2,0.6-0.2,1.7-0.6,2.1c-0.5,0.4-1.4,0.3-2.2,0.3
		c-0.4,0-0.8-0.5-1.1-0.8c-2.2-2.5-4.8-4.6-7.9-6.1c-2.3-1.1-4.4-2.6-6.6-3.8c-3.3-1.7-6.6-3.3-10-4.6c-2.4-0.9-4.8-1.7-7.3-2.1
		c-8.1-1-16.1-2.2-24.3-2.2c-5.9,0-11.8-0.4-17.6-0.6c-0.5,0-1,0-1.4,0c-4.9,0.3-4.9,0.2-6.7,5.1c-1.1-1.3-2-2.5-3.2-4
		c-6.8,0.8-14,0.9-20.8,5.6c-2.2-0.5-4.8,0.4-7.5,1.4c-3,1.2-6,2.2-9,3.4c-4.8,1.9-8.9,5.1-12.7,8.4c-2,1.8-3.1,4.1-3.1,6.8
		c0.3,9.3-1,18.5,0.4,27.8c0.4,2.5,0.2,5.1-0.1,7.7c-0.2,2.3,0,4.1,2.5,5.1c1.7,0.7,2.5,2,1.5,4.2c-0.9,0.3-2.1,0.6-3.5,1.1
		c-0.9,5.3-0.2,10.5,0.3,15.7c1.6,0.3,2.9,0.2,4.1,0.7c0.7,0.3,1.5,1.3,1.6,2.1c0,0.7-0.7,1.9-1.3,2.2c-1.2,0.6-2.7,0.8-4.5,1.3
		c-0.1,2.4-0.5,4.8-0.4,7.1c0.3,13.6,0.8,27.2,1,40.8c0.2,10.9,0.1,21.7,0.3,32.6c0.1,7,0.4,14.1,0.6,21.1c0.1,2.7,0.2,5.4,0.2,8.2
		c-0.2,16.3-0.1,32.6,0.8,48.9c0.2,4-0.1,8-0.2,12c0,1-0.2,1.9-0.2,2.9c0.3,11.8,0.6,23.7,0.9,35.5c0.1,2.3-0.1,4.8,2.7,6.1
		c1,0.4,1,2.3,0,2.9c-3.1,1.7-2,4.2-1.8,7c2.6,0.9,5.2,1.7,7.7,2.7c1.7,0.7,3.4,1.8,4.9,2.9c0.4,0.3,0.5,1.5,0.4,2.1
		c-0.1,0.4-1,0.9-1.5,0.9c-1.2-0.1-2.5-0.4-3.6-0.9c-2.5-1-4.9-2.4-7.9-2.3c-1.8,3.4-0.6,6.5,0.1,10.2c1.8,0.1,3.5,0.1,5.2,0.1
		c1.1,0,2.2-0.2,3.3-0.1c1.1,0,1.7,0.7,1.9,1.8c0.2,1.1-0.3,1.9-1.2,2.3c-0.9,0.4-1.8,0.6-2.7,0.9c-1.1,0.4-2.1,0.8-3.2,1.1
		c-2.9,0.6-3.8,2.5-3.8,5.3c0.1,5,0.1,9.9,0.3,14.9c0.2,5.1,0.6,10.2,0.9,15.2c2.3,1.6,4.8,0.9,7.1,0.8c12.3-0.6,24.6-1.4,36.9-1.9
		c7-0.3,14.1-0.4,21.1-0.7c4.1-0.2,8.3-0.9,12.4-1c15-0.4,30.1-0.5,45.1-0.8c1.6,0,3.1-0.2,4.8-0.4c0.9-4.4,1.4-8.5,1.2-12.6
		c-0.7-14.9-1.6-29.7-2.4-44.5c-0.3-5.9-0.8-11.8-1-17.7c-0.6-16.6-1.2-33.2-1.5-49.9c-0.5-25.7-0.3-51.5-1.1-77.2
		c-0.7-25.7-1.6-51.5-1.4-77.2c0.1-10.1,0.7-20.1,0.9-30.2c0.2-8.5,0.2-17,0.2-25.4c0-2.4-0.4-4.8-0.7-7.2c-0.2-1.9-0.5-3.8-0.7-5.9
		c1.1-0.4,1.9-0.9,2.7-0.9c1.4,0.1,1.8,1.3,1.9,2.4c0.4,5.4,0.8,10.8,1,16.3c0.2,4.5,0,9-0.1,13.4c0,2.4,0.1,4.7-0.9,7.1
		c-0.5,1.1-0.3,2.5-0.3,3.8c-0.1,6.7-0.1,13.4-0.2,20.1c-0.1,8.2-0.1,16.3-0.2,24.5c0,2.9-0.4,5.7-0.6,8.6c-0.1,2.1-0.1,4.2,0,6.2
		c0.7,16.6,2,33.2,2,49.8c0.1,17.7,0.6,35.5,0.7,53.2c0,15.7,0.3,31.3,0.8,47c0.5,13.4,1.6,26.8,2.4,40.2c0.9,16,2,31.9,1.5,47.9
		c-0.1,2.4,0,4.7,0,7.4c1.2,0.1,2.1,0.2,3,0.2c7.2-0.1,14.4,0,21.6-0.3c7.2-0.2,14.4-0.8,21.5-1.1c1.9-0.1,3.8,0,5.8,0
		c1.7,0,3.1,0.6,4,2.6c-1.3,0.3-2.4,0.7-3.6,0.7c-10.7,0.4-21.4,0.8-32.1,1.2c-6.7,0.3-13.4,0.7-20.5,1.1c-0.3,1.5-0.7,2.8-0.8,4.2
		c-0.2,3.2-0.1,6.4-0.2,9.6c-0.1,1.6-0.3,3.2-0.6,4.7c-0.2,1.1-0.8,2.4-2.1,2c-0.6-0.2-1.1-1.4-1.2-2.3c-0.2-0.9,0.1-1.9,0.2-2.9
		c0.2-4.2,0.3-8.3,0.4-12.5c0-0.8-0.2-1.5-0.3-2.5c-1.2-0.2-2.3-0.5-3.3-0.5c-8.5,0.2-16.9,0.5-25.4,0.7c-7.2,0.2-14.4,0.3-21.6,0.5
		c-15.7,0.5-31.3,1.1-47,1.7c-8.6,0.3-17.3,0.7-25.9,1.1c-3.6,0.2-3.9,0.5-4.2,4.3c-0.1,1.2-0.4,2.4-0.7,4.6c-1-1.4-1.6-1.9-1.7-2.5
		c-0.3-1.7-0.3-3.4-0.5-5.4c-1.4-0.1-2.7-0.3-3.9-0.3c-10.9,0.5-21.7,1-32.6,1.5c-1,0-1.9,0.2-2.9,0.2c-17.9,0.4-35.8,0.8-53.7,1.1
		c-1.6,0-3.2-0.1-4.7-0.6c-0.7-0.2-1.4-1.3-1.6-2c-0.1-0.4,0.8-1.3,1.5-1.5c0.8-0.3,2-0.6,2.8-0.3c5.6,1.8,11.4,1.2,17.1,1.1
		c14.2-0.2,28.4-0.8,42.7-1.3c9.6-0.3,19.2-0.8,28.8-1.2c2-0.1,4.1-0.3,6.2-0.5c0.2-1.1,0.5-1.9,0.4-2.7c-0.1-9.6-0.2-19.2-0.4-28.8
		c0-0.6-0.4-1.2-0.6-2.1c-2.4,0.5-4.6,0.3-6.3,2.6c-1.9,2.6-6,2.7-9.5,0.6c0.6-2,2.3-2.3,3.9-2.8c2.4-0.7,4.8-1.5,7.1-2.6
		c3.1-1.4,4.4-3.8,4.8-6.6c0.5-3.7,0.8-7.6-0.3-11.7c-1.7-0.4-3.4-0.9-5.1-1.1c-15.9-1.6-31.9-2.1-47.9-1.9
		c-6.2,0.1-12.5,0-18.7-0.1c-1.1,0-2.5,0.1-2.7-1.3c-0.2-1.7,1.4-1.9,2.6-2.1c10.6-1.2,21.3-2.4,31.9-3.6c6.7-0.8,13.3-1.6,20-2.3
		c3.2-0.3,6.4-0.6,9.5-0.7c3.3-0.2,6.6-0.5,9.9-1.6c0.2-0.7,0.5-1.3,0.5-1.9c-1.2-70-2.3-140.1-3.5-210.1
		C477.1,501.2,476.8,500.6,476.6,500z M610.6,413.1c1.9-3.9,3.5-7.2,5.2-10.5c2.9-5.7,5.9-11.3,8.8-17c0.9-1.8,2.3-3.5,1.5-6
		c-5-0.3-9.9-0.6-14.8-0.9c-1.9-0.1-2.7,1.3-3.4,2.8c-3.1,7.3-7.6,14.1-9.4,22c-0.1,0.5-0.9,0.9-1.6,1.6c-1.3-2.1-0.6-3.9-0.1-5.4
		c2.2-5.8,4.4-11.6,6.7-17.4c0.4-1.1,1.4-2.2,0.3-3.8c-0.6-0.1-1.4-0.3-2.1-0.3c-8,0-16,0-24,0.2c-1.6,0-3.1,0.6-4.7,0.9
		c-2.2,0.5-3.1,1.8-3.2,4.1c-0.1,3-0.5,6-0.6,9.1c-0.1,3.3,0,6.6,0,10c5.3,1.6,10.6,2.4,16,2.7c7,0.5,13.5,2.2,19.7,5.5
		C606.5,411.5,608.3,412.1,610.6,413.1z M465.3,378.6c0.2,0.7,0.2,1.2,0.4,1.6c3,7.9,5.9,15.8,9,23.7c0.7,1.8,0.8,3.6,0.7,5.6
		c-0.3,4.2,0.3,8.3,5.1,10.1c0.7,0.2,1.3,0.8,1.7,1.1c0.6-0.3,0.9-0.4,1.2-0.5c7-5.5,14.8-9.3,23.3-11.8c0.7-0.2,1.2-0.8,2-1.3
		c-2-10-4.7-19.6-7.7-29.3c-11-0.6-21.7,0.6-32.3,0.4C467.5,378.1,466.4,378.4,465.3,378.6z M537,378.7c-1.1,4.2-0.4,19.2,1.2,23.4
		c9.2-0.9,18.5,0.3,27.9-0.7c0.9-7.8,1.9-15.4-0.1-22.7C558.8,377.5,541.2,377.6,537,378.7z M533.5,378.1
		c-8.5-0.3-16.4-0.5-24.4-0.7c-0.7,0-1.5,0.4-2.3,0.6c-0.1,2.2,0.9,3.9,1.5,5.7c0.4,1.5,1.2,3.1,1,4.6c-0.7,5.4,1,10.4,2.2,15.6
		c0.2,1,0.9,2,1.4,3.1c7-1.4,14.1-1.7,20.8-5.1C533.9,394.2,534.3,386.4,533.5,378.1z M445.4,722.2c3.5,0.9,7,1.3,10.4,0.7
		c6.6-1.2,13-0.1,19.5,0.8c1.5,0.2,3.1,0.3,4.6,0.5c1.1-2,1.3-3.6-0.2-5.3c-1.2,0-2.5-0.1-3.8,0c-3.2,0.4-6.3,0.9-9.5,1.4
		c-1.2,0.2-2.5,0.3-3.7,0.1C456.9,719.3,451.2,720.8,445.4,722.2z M450.5,718.6c0.3,0.3,0.4,0.4,0.6,0.4c0.6,0,1.2-0.1,1.7-0.2
		c0,0,0-0.7,0-0.7c-0.6-0.1-1.1-0.1-1.7-0.1C451,718.1,450.9,718.3,450.5,718.6z"/>
	<path d="M120.8,1241.6c2.1-4.4,5.1-6.8,7.7-9.6c1.5-1.6,3.1-3.2,4.6-4.8c2.1-2.2,4-4.5,6.2-6.7c13.4-13.1,26.8-26.1,40.2-39.2
		c7.8-7.6,15.3-15.4,23.1-22.9c9.8-9.4,19.7-18.8,29.6-28c2.3-2.2,5.1-3.9,7.5-6c4.2-3.6,8.4-7.4,12.5-11.1c2.8-2.5,2.8-3.8-0.1-6.6
		c-0.3-0.3-0.6-0.7-1-1.4c2.2-1.3,2.6-3.3,2.4-5.6c-0.4-6.2-0.9-12.4-1.1-18.6c-0.1-2.7,0.2-5.4,0.5-8.1c0.5-4.5,0.3-8.9-0.7-13.4
		c-6.7-0.3-12.9-0.1-18.1,4.7c-2.3,2.1-5.1,3.8-7.8,5.6c-1.3,0.9-2.7,1.6-4.2,2.4c-1.4-1.6-1.2-2.9,0.1-3.9c1.4-1.1,2.9-2,4.5-2.8
		c3.2-1.5,6.3-3,8-6.4c0.7-1.4,2.1-2.4,3.9-2.5c2.5-0.2,4.5-1.6,6.4-3c15.9-11.6,31.7-23.3,47.7-34.7c7.7-5.5,15.2-11.2,23.3-16
		c6.3-3.7,12.1-8.4,18.2-12.5c2-1.4,2.2-2.9,0.9-5.3c-1.3,0.1-2.7,0.4-4,0.4c-1.4-0.1-2.7-0.5-4.5-0.8c1.8-3.8,5.2-2.5,7.7-3.8
		c1.2-2.2,0.7-4.6,0.4-6.9c-1-7.4-2.2-14.8-1.4-22.4c0.1-0.6-0.2-1.2-0.3-1.7c-1.9-0.6-2.9,0.7-4,1.5c-5.5,4.1-10.9,8.4-16.5,12.3
		c-9.8,6.8-19,14.7-30.2,19.4c-1.3,0.6-2.7,1.2-3.7,2.2c-5.2,4.9-11.3,8.4-17.2,12.2c-5.9,3.8-12,7.4-17.9,11.1
		c-0.8,0.5-1.6,1-2.4,1.5c-6.7,4.3-13.3,8.9-20.2,12.9c-6.3,3.6-11.7,8.3-17.7,12.4c-2.6,1.8-5.3,3.6-7.9,5.4
		c-5.2,3.7-10.5,7.3-15.5,11.2c-5.5,4.4-11.2,8.5-17.4,11.9c-1.4,0.8-2.7,1.7-3.9,2.8c-6,5.3-11.8,10.8-18,15.8
		c-6.4,5.1-11.9,11.1-17.4,17.2c-0.5,0.6-1.5,0.8-2.8,1.5c0.4-3.3,1.1-5.4,3.2-7.3c4.1-3.5,8.2-7.1,12-11
		c6.4-6.6,13.4-12.3,20.8-17.7c6.6-4.8,13.3-9.4,19.9-14.2c2.3-1.7,4.4-3.7,6.7-5.5c1-0.8,1.9-1.7,3-2.4
		c9.9-5.6,18.4-13.3,28.3-18.9c6.6-3.7,12.5-8.2,18.4-12.9c2.4-1.9,5.1-3.3,7.7-4.9c5.3-3.3,10.7-6.4,15.9-9.8
		c8-5,15.9-10.1,24.2-14.6c3.2-1.7,6-4.1,9-6.2c2-1.4,3.7-3.1,5.8-4.1c4.4-2.1,8.1-5.1,11.9-8c8.9-6.5,17.6-13.3,26.9-19.2
		c6.7-4.3,13.4-8.6,19.8-13.4c5.9-4.5,12.6-8.2,18.9-12.1c2.7-1.7,5.5-3.2,8.3-4.8c3-1.7,6.1-3.4,9.1-5.2c1.1-0.6,2.2-1.4,3.2-2.1
		c5.2-4,10.3-8.1,15.4-12.2c1.1-0.9,2.1-2,3.1-3c2.2-2.1,2.5-2.1,5.9,0.3c-0.6,0.7-1,1.5-1.7,2.1c-8.3,6.5-16.8,12.7-26.1,17.8
		c-3.1,1.7-5.8,4-8.7,5.9c-4,2.6-7.9,5.5-12.1,7.7c-7.2,3.8-13.8,8.7-20.4,13.4c-3.2,2.3-6.6,4.5-10.1,7c0.2,1.1,0.3,2.3,0.5,3.5
		c0.3,2.7,0.7,5.4-1.6,7.7c-0.3,0.3-0.6,0.8-0.7,1.2c-0.4,3.6-1.1,7.3-0.9,10.9c0.1,2.8,1.2,5.6,1.9,8.4c0.4,1.7,1.6,2.3,3.2,2.3
		c0.8,0,1.6-0.3,2.4-0.4c7-0.8,14-1.5,21-2.2c3-0.3,6-0.8,9-1.1c7.9-0.9,15.9-1.9,23.8-2.8c0.8-0.1,1.6,0,2.4-0.2
		c10.6-2.4,21.6-2.7,32.3-4c4-0.5,8-0.6,12-0.8c7.2-0.4,14.4-0.4,21.5-1.9c2.5-0.5,5.1-0.4,7.6-0.5c11.5-0.5,23-1.2,34.5-0.2
		c0.2,0,0.3,0,0.5,0c7-0.7,14-1.3,21-1.1c0.3,0,0.6-0.2,1.3-0.6c1.2-4.4,0.4-9.2,0.9-13.9c0.5-4.9,0.8-9.9,1.1-14.8
		c0.3-4.8,0.4-9.5,0.6-14.6c-1.2-0.2-2.3-0.6-3.3-0.6c-14.5,0.3-29.1-0.5-43.6,0.8c-10.7,1-21.4,1.3-32.1,2c-3.5,0.2-7,0.8-10.5,1.1
		c-12.4,1.2-24.8,2.4-37.2,3.6c-0.8,0.1-1.6,0.2-2.4,0.1c-7.7-0.5-15.3,1.1-22.8,2.4c-2.6,0.5-5.2,1.5-7.8,2
		c-1.7,0.3-3.5,0.2-5.2,0.1c-0.5,0-1.3-0.8-1.2-1.2c0.1-0.7,0.5-1.5,1-1.9c0.6-0.5,1.5-0.7,2.2-0.8c8.6-1,17.1-2.2,25.7-3
		c13.5-1.3,27.1-2.4,40.6-3.6c5.3-0.5,10.5-0.8,15.8-1.2c5.6-0.5,11.1-1,16.7-1.5c0.8-0.1,1.6-0.2,2.4-0.2
		c10.5-0.4,21.1-0.8,31.6-1.2c2.1-0.1,4.1,0,6,0c0.2-0.4,0.4-0.6,0.3-0.6c-0.1-0.1-0.2-0.3-0.3-0.3c-2.2-0.4-4.4-0.9-6.6-1.3
		c-2.7-0.4-5.4-0.8-8.1-1.1c-0.2,0-0.3,0-0.5,0c-2.9-0.3-5.7-0.4-8.1-2.1c0.1-4.1,0.2-4.4,3.4-5.4c6.6-1.9,13.3-3.5,20.2-4
		c2.1-0.1,4.1-0.5,6.2-0.8c5.5-0.8,11-1.7,16.6-2.3c5.7-0.6,11.5-0.9,17.2-1.4c1.4-0.1,2.8-0.5,4.2-0.7c1.1-0.2,2.2-0.6,3.3-0.7
		c6.5-0.5,13.1-0.9,19.6-1.4c2.9-0.2,5.7-0.5,8.6-0.6c6.9-0.3,13.7-0.4,20.6-0.9c10.8-0.8,21.6-2.1,32.5-2.7
		c7.8-0.4,15.6-1.5,23.4,0.8c0.6,0.2,1.4,0.3,1.9,0.1c4.3-1.9,9.2-1,13.6-2.4c0.9-0.3,1.9-0.4,2.8-0.4c11.4-0.2,22.7-0.3,34.1-0.4
		c0.3,0,0.6,0.1,0.9,0.2c-1.2,2.2-3.2,2.4-5.4,2.4c-13.9,0.5-27.8,0.9-41.7,1.5c-9.1,0.4-18.2,1-27.3,1.6c-12,0.8-23.9,1.6-35.9,2.4
		c-6.5,0.4-13.1,0.7-19.6,1.3c-14.2,1.2-28.3,2.5-42.5,3.8c-3.4,0.3-3.9,0.9-4,4.1c-0.1,2.5,0,5.1,0,7.3c1.7,1.8,3.6,1.5,5.3,1.6
		c2.1,0.1,4.1,0.5,6,1.6c1.2,0.7,2.7,1,4.1,1.2c4.1,0.4,8.3,0.8,12.4,0.8c5.3,0.1,10.5,1.2,15.7,2.1c0.4,0.1,0.8,0.4,1.5,0.9
		c-0.3,0.7-0.5,1.5-1,1.9c-1.2,1-2.9,1.2-4.1,0.5c-3.8-2.6-8.2-2-12.4-2.7c-7.6-1.2-15.3-1.1-23-1.1c-1.1,0-2.2,0-3.4,0.1
		c-1.3,0.1-2.1,0.8-2.4,2c-0.3,1.6-0.6,3.1-0.7,4.7c-0.6,10.7-1.2,21.4-1.7,32.1c-0.1,1.7-0.6,3.5,0.7,5.4
		c8.4,1.9,17.5,1.6,26.7,5.1c-1.4,0.8-2.1,1.6-2.8,1.5c-3.5-0.3-7-0.4-10.4-1.3c-4.5-1.2-8.5-1.9-14.3-1.3
		c-1.3,3.4-1.9,6.9-1.9,10.6c0,8.3,0.2,16.6,0.1,24.9c-0.1,7.5-0.4,15-0.6,22.5c-0.1,2.2-0.2,4.5-0.2,6.7c0,1.8,0.3,3.5,1.7,4.8
		c4.1-0.4,8.2-1.3,12.2-0.9c3.8,0.4,7.9,0.4,12,2c-0.6,0.8-0.9,1.6-1.3,1.7c-1.7,0.2-3.5,0.5-5.1,0.3c-5.4-0.5-10.8-1.3-16.1-1.9
		c-0.7-0.1-1.5,0.2-2.1,0.3c-1.4,1.6-1,3.3-1,4.8c-0.1,9,0,17.9-0.1,26.9c-0.1,5.7-0.4,11.5-0.6,17.2c0,1.7,0.3,3.4,0.4,5.2
		c0.9,0.3,1.5,0.7,2.1,0.7c8.7,0.8,17.5,1.1,26.3,1c2,0,4.2-0.5,5.8,1.1c-0.3,1.6-1.4,2.3-2.8,2.3c-1.4,0.1-2.9,0.1-4.3,0
		c-8.3-0.6-16.6-1.2-24.9-1.8c-0.4,0-0.9,0.2-1.4,0.3c-1.5,1.6-1.1,3.7-1.1,5.5c0,7.2,0.2,14.4,0.2,21.6c0,3.2-0.3,6.4-0.2,9.6
		c0.1,3.8,0.4,7.7,0.5,11.5c0.4,12.5,1.2,24.9,1,37.4c-0.3,17.3,0.5,34.5,0.4,51.8c-0.1,8.5-0.3,16.9,0,25.4
		c0.4,13.7,1,27.5,1.5,41.2c0.2,5.1-0.1,10.2,1.1,15.3c0.1,0.6,0.1,1.5-0.2,1.8c-0.5,0.4-1.6,0.6-1.9,0.4c-0.6-0.6-1.1-1.6-1.2-2.5
		c-0.4-2.7-0.7-5.4-0.8-8.1c-0.5-11.7-1.1-23.3-1.5-35c-0.2-7.7,0-15.3,0-23c0-5.6-0.2-11.2-0.2-16.8c0-13.6,0.1-27.2,0.1-40.8
		c0-4-0.1-8-0.2-12c0-0.5-0.1-1-0.1-1.4c-0.3-14.5-0.6-29.1-0.9-43.6c-0.2-11.5-0.2-23-0.4-34.5c0-1.4-0.3-2.8-0.5-4.6
		c-1.6-0.2-3-0.4-4.4-0.5c-11.5-0.2-23-0.2-34.5-0.4c-6.5-0.1-13.1-0.7-19.6-0.4c-10.9,0.5-21.7,0.8-32.6,0.6
		c-2.1,0-4.2-0.2-6.2-0.2c-4.3,0-8.6-0.1-12.9,0.1c-10.4,0.4-20.8,1-31.1,1.5c-1.9,0.1-3.8,0.2-5.7,0.3c-1.6,0.1-3.3,0.4-4.8,0
		c-5-1.5-9.9-0.6-14.7,0.2c-6.6,1.2-13.3,1.7-20,2.1c-10.2,0.7-20.4,1.6-30.6,2.5c-9.4,0.8-18.8,1.7-28.2,2.5
		c-2.9,0.3-5.7,0.6-8.6,0.9c-3,0.3-6,0.6-9.1,0.8c-1.4,0.1-2.9-0.1-4.1,1.3c0.4,0.4,0.7,0.8,1.4,1.6c-1.7,1.7-3.2,4-5.3,5.1
		c-2.1,1.1-4.1,2.4-6.1,3.7c-9.1,6.1-16.7,13.9-24.6,21.3c-5.5,5.2-10.7,10.6-16.5,15.4c-5.4,4.5-10.2,9.7-15.2,14.6
		c-12.2,12.2-24.2,24.6-36.8,36.4c-8.3,7.7-15.9,16.2-24.2,23.9c-2.8,2.6-4.9,5.8-7.4,8.8c-0.8,1-1.5,2.1-2.5,2.8
		C123.3,1242,122.3,1241.6,120.8,1241.6z M257,1102.7c4.6,1.1,8.7,0.7,12.8,0.3c5.7-0.7,11.4-1.2,17.2-1.7
		c8.3-0.8,16.5-1.6,24.8-2.3c4.6-0.4,9.2-0.8,13.8-1.2c2.2-0.2,4.5,0.1,6.7-0.3c5.4-1,10.8-1.1,16.2-1.3c6.1-0.2,12.1-0.6,18.2-0.9
		c6.5-0.3,13.1-0.5,19.6-0.7c1.4-0.1,2.9-0.1,4.3-0.2c4.1-0.2,8.3-0.6,12.4-0.7c6.7-0.1,13.4-0.1,20.1-0.1c6.1,0,12.1-1,18.2-0.1
		c1.4,0.2,2.9-0.2,4.3-0.3c4.3-0.1,8.6-0.1,12.9-0.1c2.1,0,4.1,0.3,6.2,0.3c5.3,0,10.5-0.1,15.8-0.3c2.7-0.1,5.4-0.4,8.1-0.3
		c8.8,0.3,17.5,0.8,26.3,1.2c2.1,0.1,4.1,0.2,6.2,0.3c1.6,0,3.2,0.1,4.8,0c2.1-0.2,2.6-0.8,2.8-3.1c0-0.5,0-1,0-1.4
		c0.1-15.5,0.1-31,0.2-46.5c0-1.2-0.3-2.4-0.5-3.7c-4.3-1.4-8.2,1.2-12.1,0.5c-4-0.7-7.9,0-11.9,0.1c-3.8,0.2-7.7,0.8-12-0.6
		c2.6-1.9,5.1-1.9,7.4-1.9c7-0.2,14.1-0.1,21.1-0.3c2.5,0,5.1,0.2,7.8-0.9c0.2-2.6,0.5-5.1,0.5-7.6c0-7.2-0.3-14.4-0.2-21.6
		c0.2-12,0.6-24,0.9-36c0-1.1-0.2-2.1-0.3-3.4c-1.3-0.1-2.4-0.4-3.5-0.4c-10.1,0.1-20.1,0.1-30.2,0.3c-7,0.1-14.1,0.3-21.1,0.8
		c-15.8,1.3-31.5,2.8-47.3,4.3c-10.2,1-20.3,2-30.5,3.3c-11.7,1.5-23.4,3.3-35.1,4.7c-6.5,0.8-12.4,2.7-17.9,6.2
		c-4.3,2.8-8.5,5.6-12.8,8.5c-8.5,5.7-16.7,11.9-25.6,16.9c-6,3.3-10.9,7.7-16.1,11.8c-8.9,6.8-18.1,13.2-27.1,19.8
		c-4.4,3.2-8.7,6.5-13,9.9c-0.1,0.1,0,0.6,0,1c0.4,0.1,0.9,0.5,1.2,0.4c3.5-1.3,6.9-0.4,10.4,0c1.9,0.2,3.9,0.1,5.7-0.4
		c8.9-2.2,18.1-1.5,27.1-2.8c6.2-0.9,12.4-1.3,18.6-1.9c2.2-0.2,4.5-0.8,6.7-0.6c3.4,0.3,6.7-0.2,10-0.8c1.7-0.3,3.5-0.5,5.2-0.5
		c7.8-0.1,15.6-0.3,23.4-1.7c8.8-1.6,17.8-0.6,26.7-1.9c0.9-0.1,1.9,0.1,2.9,0.1c5.1,0.1,10.2-0.1,15.3-1c9.9-1.8,20-2.4,30.1-2.5
		c0.8,0,1.6,0.5,2.4,0.8c-2.7,1.2-5.4,1.6-8,1.8c-9.9,0.7-19.8,1.4-29.6,2.1c-13.1,0.9-26.1,1.8-39.2,2.8
		c-7.2,0.6-14.3,1.4-21.5,2.1c-5.2,0.5-10.5,1.1-15.7,1.6c-3.5,0.3-7,1-10.5,0.7c-5.8-0.6-11.5,0.3-17.1,1.5
		c-3.1,0.6-6.3,1.3-9.4,1.6c-7.6,0.8-15.3,1.4-22.9,2.1c-2.9,0.3-3.6,0.8-3.4,3.5c0.3,4.5-0.3,8.9-1.3,13.3
		c-0.5,2.5-0.6,5.1-0.6,7.6c0,4.8,0.2,9.6,0.4,14.4C256.4,1099.2,256.7,1100.7,257,1102.7z M491.8,908.3c-1.1,1.4-1.8,2.5-2.5,3.5
		c0.3,0.1,0.6,0.3,0.9,0.4c12.9,0.9,25.9,0.7,38.7,2.6c1.5,0.2,2.4-0.6,2.7-2.1c0.6-2.9,1.3-5.9,1.9-9c-0.8-0.1-1.4-0.3-2-0.2
		c-9.8,1.4-19.6,2.9-29.4,4.2C498.6,908.1,495.3,909.6,491.8,908.3z M309.3,1100.3c2.7,0.7,5.4,0.7,7.8-0.9
		C314.4,1099.7,311.8,1100,309.3,1100.3z M246.8,1056.8c1.6,1.3,2.5,1.1,4,0.3C249.4,1057,248.5,1057,246.8,1056.8z"/>
	<path d="M848.4,261.5c-0.2,2.4-0.3,4.7-0.5,6.8c1.8,1.8,3.6,1.3,5.3,1.4c7,0.2,14,0.3,21,0.8c8,0.5,15.9,0.7,23.9,0
		c7.1-0.6,14.3-0.1,21.5,0c1,0,1.9,0.3,2.9,0.2c12.1-0.7,24.2,0.6,36.4,0.6c3.5,0,7-0.1,10.4-1.1c2.1-0.6,4.4-0.1,6.7-0.2
		c8.3-0.2,16.6-0.5,24.8-0.6c6.2-0.1,12.4,0.2,18.7,0.3c1.8,0,3.6,0.4,4.8-1.4c2.9,2.3,6,2,9.2,1.6c0.5-0.1,0.9-1.1,1.6-1.9
		c0.9,0.9,1.9,2.1,3.7,1.7c4.9-1.1,9.8-0.8,14.8-0.6c1.6,0,3.3,0.2,3.9-1.9l-0.1,0.1c1.1,1.2,2.3,2.1,4.1,2c0.9-0.1,1.9,0.1,2.9,0
		c3.9-0.3,8-1.4,11.8-0.6c3.8,0.8,7.5,0.8,11.3,1.1c4,0.3,7.9,0.5,11.9,0.6c3,0,6-0.2,9-0.4c1.7-0.1,1.9-1.4,1.9-2.8l-0.1,0.1
		c1.8,1.5,3.9,2,6.2,2c8.3-0.1,16.6-0.1,24.9,0.1c5.7,0.1,11.5,0.4,17.2,0.6c4.6,0.2,9.2,0.4,13.9,0.5c1.6,0,3.2,0,4.8-0.3
		c6.9-1.6,14-0.9,21-1.1c4.8-0.2,9.6-0.5,14.3-0.9c0.8-0.1,1.5-0.4,2.3-0.7c0.5-5.1-2.4-9.5-2.2-14.6c0.2-4.8-1.3-9.7-1.8-14.6
		c1.4,1.2,1,3,1.3,4.5c0.4,1.5,0.4,3.2,0.7,4.7c0.2,1.7,0.5,3.5,0.7,5.2c0.3,1.7,0.6,3.5,0.9,5.2c0.3,1.6,0.7,3.1,1.1,4.7
		c0.4,1.7,0.9,3.4,1.4,5.3c1.6,0.1,3,0.3,4.4,0.4c5.3,0.1,10.5,0.2,15.8,0.3c1.1,0,2.2,0.2,3.3,0.3c2.5,0.2,4.9,1.4,7.3-0.6
		c0.5-0.4,2,0.6,3,0.5c5.9-1,11.8,0.4,17.7,0.6c1.7,0.1,3.4,0.7,5,1.3c0.7,0.3,1.2,1.3,1.9,2.3c-0.9,0.6-1.5,1.4-2.1,1.4
		c-2.9,0-5.9,0.5-8.5-0.4c-3.6-1.2-7.2-1.2-10.9-1.3c-3.6-0.1-7.3,0-11.3,0c-0.1,1.3-0.2,2.5-0.3,4.5c-1.1-2-1.7-3.1-2.5-4.7
		c-17.8-0.6-35.5-0.1-53.5,0.6c-0.6,1.7-1.2,3.1-1.9,5.1c-1.1-1.8-1.8-3.1-2.8-4.8c-2.6,0-5.3-0.1-8,0c-7.3,0.3-14.7-0.2-22-0.3
		c-10.5-0.2-21.1,0.2-31.6,0.3c-4,0-8,0.2-12,0.1c-13.3-0.2-26.5-0.5-39.8-0.7c-3.2,0-6.4,0.9-9.5,0.5c-8-1.1-15.9-0.1-23.9-0.3
		c-9.1-0.3-18.2-0.1-27.3,0.1c-12.9,0.3-25.9,1.1-38.8,1.3c-9.7,0.2-19.5-0.2-29.2-0.3c-1.9,0-3.8,0.1-5.7,0.1c-3,0-6.1,0-9.1-0.1
		c-4.3,0-8.6-0.2-12.9-0.2c-6.9,0-13.7,0.1-20.6,0c-9.6-0.1-19.2-0.3-28.8-0.5c-3.7-0.1-7.3-0.2-11-0.2c-1.2,0-2.5,0.1-3.6,0.2
		c-0.6,2.2-1.1,4-1.6,5.8l0.1,0.1c0-1.7,0-3.5,0-5.3c-1.7-1.6-3.6-1.2-5.5-1.2c-7.4-0.1-14.7,0-22.1-0.2c-14.1-0.3-28.1-0.7-42.2-1
		c-1.6,0-3.1,0.3-4.7,0.6c-0.3,0-0.6,0.4-0.8,0.3c-5.8-2.4-12-0.6-17.9-1.2c-6.2-0.6-12.5-0.5-18.7-0.6c-6.1-0.1-12.2-0.2-18.2-0.2
		c-1.6,0-3.1,0.1-4.8,0.2c-0.7,2.4-1.4,4.4-2,6.5c-0.2,0-0.4,0-0.6-0.1c0-1,0-2,0-3c0-0.9,0.2-1.9,0.3-3c-0.8-0.3-1.6-0.8-2.3-0.8
		c-9.4-0.2-18.9-0.3-28.3-0.4c-0.3,0-0.6,0.2-1.4,0.5c-1.3,3.3-2.8,7-4.6,11.6c-0.7-2.9,0.6-4.4,1-6c0.4-1.8,0.9-3.6,1.5-5.7
		c-1.5-0.3-2.6-0.6-3.6-0.7c-2.4-0.1-4.8-0.1-7.2-0.1c-4.1-0.1-8.3,0.1-12.4-0.5c-3.6-0.5-4-0.3-6.8,1.4c-0.6-0.5-1.2-1.4-1.7-1.4
		c-2,0.3-3.8,0.2-5.7-0.2c-2-0.4-4.1-0.1-6.2-0.2c-6.6-0.2-13.1-0.5-19.7-0.7c-19.8-0.7-39.6-1.5-59.4-2.1c-2.6-0.1-5.1-0.2-7.7,0.2
		c-2.1,0.3-4.2,1.2-6.6,2c-1-1.8-2.9-2.1-5-2.1c-4.3-0.1-8.6-0.4-12.9-0.7c-0.8,0-1.6-0.1-2.4,0c-14.2,1.1-28.4,0.6-42.7,0.7
		c-21.6,0.1-43.2,0.4-64.8,0.6c-2.6,0-5.1,0.1-7.7-0.1c-2.3-0.2-4,0.7-5.1,2.7c-0.7,1.2-1.6,2.1-3,2.8c0.7-1.5,1.3-3,1.9-4.5
		c-1-1.5-2.4-1.1-3.6-1.1c-7.5,0-15,0-22.5,0.1c-8,0.1-16,0.3-24,0.4c-9.9,0.2-19.8,0.1-29.7,0.4c-12.8,0.4-25.6,1-38.4,1.4
		c-10.5,0.4-21.1,0.8-31.6,1.2c-2,0.1-4.2,0-5.9,1.4c0,2.1,1.3,3.5,2.6,4.5c2.4,1.8,4.9,3.7,7.6,4.9c5,2.1,10.1,4,15.3,5.5
		c4.7,1.3,9.7,2,14.6,2.9c1.4,0.3,2.9-0.1,3.7,2.1c-0.8,0.3-1.7,0.8-2.4,0.7c-11.3-1.9-22.8-3.4-33.4-8.3c-4.8-2.2-9.1-4.6-11.2-9.9
		c-0.3-0.8-1.2-1.3-2.1-2.2c-0.6,0.9-1.2,1.4-1.4,2.1c-0.6,1.8-1.9,1.9-3.4,1.9c-1.3,0-2-0.8-2.4-2c-0.5-1.5-0.3-3,1-3.9
		c1.5-1.1,3.3-1.8,5.4-2.9c0.6-1.8,1.3-3.8,2-6c1.8,1.4,1.8,1.4,2.7,4.2c1.6,1.1,3.4,0.6,5.1,0.4c12.9-1.2,25.9-0.9,38.8-0.6
		c-1.5,0.2-2.9,0.4-4.4,0.6c2.5,1.3,5.2,1.6,7.3,0.2c4.5-2.9,9.6-2.3,14.4-2.6c4.1-0.3,8.3,0.3,12.4,0.4c1.6,0,3.2-0.1,4.8-0.3
		c5.1-0.7,10.2-1,15.3-0.8c7,0.2,14-0.2,21.1-0.2c1.9,0,2.9-1.2,3.8-2.5c2.5-3.5,4.9-7.1,7.3-10.7c0.4-0.5,0.8-1,1.6-2.1
		c-0.3,1.5-0.5,2.3-0.6,3.1c0.6,0.2,1.1,0.3,1.7,0.5c-2.4,4.2-6.8,6.7-9.6,11.3c1.8,0.1,3,0.3,4.2,0.3c6.9-0.1,13.8-0.2,20.6-0.2
		c2.9,0,5.8,0.2,8.6,0.6c5.2,0.8,9.5-0.3,12.2-5.3c0.2-0.4,0.6-0.7,1.5-0.9c-0.5,1.5-1,2.9-1.4,4.4c1.1,1.3,2.3,1.3,3.4,0.4
		c1.1-1,1.9-2.1,3.8-2c1,0.1,2-1.4,3.3-2c-0.9,1.2-1.8,2.4-2.9,4.1c1.5,0.3,2.5,0.7,3.5,0.7c4.5,0.1,9,0.1,13.4,0
		c4.5-0.1,4.5-0.1,7.1-3.5c0,0.9,0,1.6,0,2.4c2.1-0.3,2.1-0.3,5.8-3.6c-1,1.9-1.6,2.9-2.2,4c1.7,1.3,3.5,1.1,5.2,1
		c9.6-0.6,19.2-1.1,28.7,0.1c0.2,0,0.3,0,0.5,0c4.7-0.6,9.5-1.1,14.2-1.3c1.7-0.1,3.1-0.4,4.8,0.4c1,0.5,2.5,0.3,3.8,0.3
		c8.5,0.2,16.9,0.4,25.4,0.4c4,0,8-0.6,12-0.7c3-0.1,5.9-1,8.9,0.1c0.9,0.3,2.5-0.4,3.5-1c1.3-0.9,2.4-2.1,4.1-3.8
		c-1.1,1.9-1.8,3.1-2.4,4.3c1.2,1.9,3,1.6,4.5,1.3c5.4-0.9,10.8-0.6,16.2,0c3.2,0.4,6.4-0.1,9.6,0.1c3,0.2,6.2,0.4,8.8,1.6
		c1.9,0.9,3.9,1.4,5.8,1.8c3,0.7,5.4,0,6.4-3.1c2,0.2,3.8,0.5,5.7,0.7c4.6,0.3,9.3,0.2,13.8,1c2.9,0.5,4.6,0,5.7-2.9
		c0.4,1.2,0.7,2.2,1.1,3.5c2,0,3.9,0,5.8,0c2.6,0,5.1-0.3,7.7-0.2c2,0.1,3.4-0.7,4.4-2.3l-0.1-0.1c0.1,1.2,0.5,2.1,1.9,2.3
		c2.2,0.3,4.4,0.7,6.6,1c2.2,0.3,4.2,0.1,5.4-2.4c0.5,2.4,2.2,3,3.9,3.3c2.8,0.4,5.7,0.7,8.5,0.8c3.1,0.1,6.1-0.2,8-3.2
		c0.2-0.4,0.8-0.5,1.2-0.8c0,0-0.2-0.1-0.2-0.1c2.8,2.9,4.1,3.1,7.9,1.3c1.8,0.6,3.4,1.4,5,1.5c6.1,0.6,12.3,0.8,18.7-0.5
		c0.3-1.4,0.7-2.7,0.9-4.1c0.2-1.1,0.2-2.2,0.2-3.3c-0.2-4.3,0.3-8.5,3.1-12l-0.1-0.1c-0.6,4.4-1.2,8.9-1.8,13.3
		c-0.3,2-0.8,4.1,0,6.2c2.3,1.1,4.7,0.8,7.1,0.7c1.4-0.1,2.2-1.1,2.4-2.6c0.1-1.1,0.1-2.1,0.6-3.2c0,1.3-0.1,2.5,0,3.8
		c0.1,1.2,0.7,2.3,2,2.3c5.6,0.3,11,1.6,16.9,1.3c0.4-1.5,0.8-2.8,1.2-4.2c0.4,1.2,0.9,2.5,1.3,3.7c1.8,1.2,3.6,0.7,5.3,0.5
		c5.9-0.7,11.8-1.2,17.7-0.2c0.6,0.1,1.3,0,1.9,0.1c1.6,0.1,2.2-1.1,2.7-3c0.7,2.2,1.6,3.6,3.8,3.2c1.1-0.2,2.2-0.1,3.3-0.2
		c4-0.3,7.9-0.1,11.9,0.3c8.4,0.9,16.9,1.3,25.3,1.9c1.3,0.1,2.6,0.1,3.8-0.1c7.8-1.3,15.6-1,23.4-0.7c0.8,0,1.6,0,2.4,0
		c1.3-0.1,2-0.8,2.2-2.1C847.8,265.3,848.1,263.5,848.4,261.5L848.4,261.5z M357.8,264.4c0,0.1-0.1,0.2-0.1,0.3
		c0.1,0.1,0.3,0.2,0.4,0.2c2.2,0,4.4,0,6.6-0.2c0.7-0.1,1.4-0.7,2.1-1.1c-0.1-0.2-0.2-0.4-0.3-0.7
		C363.6,263.4,360.7,263.9,357.8,264.4z M446.4,263.7c-5.1-0.9-5.1-0.9-7.3,0.9C441.6,265.5,443.7,264.8,446.4,263.7z M514,263.3
		c2.8,1.2,5.8,1.5,8.7,0C519.8,263.3,516.9,263.3,514,263.3z"/>
	<path d="M892.8,120.2c-0.1,1.5-0.3,2.8-0.3,4c0,6.4,0.1,12.8-0.1,19.2c-0.1,5.4-0.6,10.8-0.9,16.3c-0.2,4-0.3,8-0.4,12
		c0,2-0.3,3.7-2.6,4.6c-1.2-1.6-1-3.2-0.9-4.7c0.1-3,0.1-6.1,0.4-9.1c1.4-12.9,0.4-25.9,0.8-38.8c0-0.9-0.3-1.8-0.5-3.2
		c-0.9,0.6-1.7,0.8-2.2,1.3c-3.6,3.6-7.2,7.2-10.7,11c-3.6,4-7.2,8.2-10.5,12.4c-0.8,1-1,2.7-0.9,4.1c0.2,3.2,0.9,6.3-1.4,9.2
		c-0.6,0.7-0.3,2.2-0.4,3.3c-0.6,5.7-1.1,11.4-1.7,17.2c-0.2,1.6-0.2,3.2-2,4.6c-0.5-0.7-1.3-1.4-1.3-2c0-2.7,0.1-5.4,0.3-8.1
		c0.2-3.8,0.4-7.7,0.6-11.5c0.2-3.6-0.6-7-2.9-9.8c0.1-0.4,0.1-0.8,0.3-1c3.6-3.2,4.5-4.1,1.7-9.5c-3.9-7.6-9.2-14.2-14.9-20.5
		c-0.9-1-2.7-1.2-4.4-1.8c0.7-2,1.5-4.1,3-6c1.5-1.9,2.4-4.1,3.8-6.1c5.7-7.7,11-15.7,17.6-22.7c1.6-1.7,3-3.7,4.1-5.2
		c0.3-3.2-3.5-4.8-1.4-7.8c2.3-1.4,4.1-0.6,5.7,1.4c1.6,2,3.2,4,5.2,6.6c0.3-1.4,0.6-2,0.6-2.7c-0.5-11.3-0.6-22.7-1.5-34
		c-0.8-10.2-0.8-20.4-0.6-30.7c0-1.6,0.2-3.2,0.5-4.7c0.1-0.5,0.8-1.2,1.2-1.2c0.7,0.1,1.6,0.5,1.8,1.1c1.2,3.2,1.9,6.6,0.5,9.8
		c-1.1,2.6-1.1,5.2-1,8c0.1,4,0.1,8,0.2,12c0,2.2,0,4.5,0.2,6.7c0.2,2.4,0.7,4.7,1.2,7.9c1.3-3.6,1.9-6.6,1.8-9.7
		c-0.1-6.2-0.1-12.5,0.2-18.7c0.1-3.5,0.3-7,2.2-10c2.2-0.5,2.6,0.7,2.9,2.3c1.6,7.8,3.3,15.6,5,23.4c0.3,1.5,0.8,3,1.4,5.3
		c1-1.4,1.8-2.1,2.2-3c4.2-8.7,6.3-18,7.2-27.7c0.3-3.2,0.9-6.3,1.6-9.4c0.4-1.8,1-3.8,3.8-4.1c0.3,0.6,0.9,1.2,0.9,1.9
		c-0.3,12.3,2.5,24.5,2.7,36.8c0.1,11.3,0.1,22.7,0.2,34c0,2.1,0,4.2,0.4,6.2c0.3,1.8,1.3,2.3,3.2,2.2c2.2-0.2,4.4-0.9,6.6-0.9
		c10.5,0,21.1,0.1,31.6,0.5c5.7,0.2,11.4,0.6,17.2-0.1c4.5-0.6,9.2,0,13.9,0.1c1.1,0,2.3,0.4,3.3,0.2c6.9-0.8,13.7,0.2,20.6,0.6
		c4.4,0.3,8.6,0.1,12.9-0.6c1.4-0.2,2.8-0.6,4.3-0.6c13.1,0,26.1-1.6,39.3-1.1c2.8,0.1,5.7-0.6,8.5-0.9c2.7-0.3,5.4-1.2,8-0.9
		c6.3,0.7,12.5,0.1,18.7-0.2c0.5,0,1-0.1,1.4-0.1c2.3,0,3.3,1.3,2.3,3.4c-0.7,1.6-1.9,2.9-2.9,4.3c-6.2,7.9-12.5,15.8-18.7,23.7
		c-0.6,0.8-1,1.9-1.6,3c3.6,1.2,6.1-1.2,9.1-1.8c1,1.7-0.1,2.8-1.3,3.4c-1.4,0.7-3.1,0.9-4.6,1.2c-3.2,0.7-6.6,0.7-9.4,3.1
		c-1.5,1.3-3.4,0.8-5-0.8c-0.9-0.9-1.7-1.4-2.9-1.4c-1.4-0.1-2.9-0.1-4.3-0.1c-1.4,0-2.9,0.2-4.3,0.1c-15.2-0.7-30.3,0.4-45.5,0
		c-9.4-0.2-18.9,0.2-28.3,0.4c-2.4,0-4.8,0.1-7.2,0c-14.1-0.1-28.1-0.1-42.1,2.1c-1.3,0.2-2.5,0.2-3.8,0.2c-11,0.5-22,0.9-33,1.4
		C896.1,119.5,894.5,119.9,892.8,120.2z M877.5,81.7c0.8,1.6,1.5,2.7,2,3.9c1.9,4,4.1,8,5.4,12.2c1.1,3.6,2.8,6.3,6,8.3
		c0.8,0.5,1.5,1.2,2.2,1.8c3.3,3.3,7,5.6,11.9,5c0.8-0.1,1.6,0.2,2.4,0.3c4.6,0.4,9.2,0.7,13.9-0.2c5.2-1,10.5-1.1,15.8-1.1
		c7.3,0,14.7-0.5,22-0.7c1.2,0,2.6-0.1,3.7,0.4c4.4,1.8,9,2.2,13.6,1.4c6.2-1.1,12.4-1.3,18.6-1c1.8,0.1,3.5,0,5.3,0.1
		c5.9,0.1,11.8,0.1,17.7,0.4c5.7,0.3,11.5,0.9,17.2-0.4c1.8-0.4,3.8-0.5,5.7-0.4c8,0.1,16,0,24,0.4c4.3,0.2,7.2-1.2,9.7-4.7
		c5.7-8.1,11.9-15.9,18.9-22.9c0.6-0.6,1-1.5,1.6-2.5c-2.3-1.3-4.6-1.1-6.8-1.1c-14.2,0.6-28.4,1.3-42.6,2c-4,0.2-8,0.1-12,0.4
		c-7.3,0.5-14.6,1.2-22,0.9c-10.5-0.4-21.1,0.1-31.6-0.3c-10.7-0.3-21.4-0.3-32.1-0.2c-9.6,0.1-19.1-0.6-28.7,0.1
		c-6.8,0.5-13.7,0.1-20.6,0c-2.2-0.1-4.4-0.5-6.6-1.1c-1.5-0.4-3-1.2-3.6-3.2c0.7-0.6,1.4-1.3,2.1-1.9c6,3.6,11.3,4.5,17.4,3
		c0-3.2-0.1-6.5,0-9.9c0.4-14.4-0.3-28.8-1-43.1c-0.1-1.9-0.3-3.8-0.6-5.7c-0.1-0.8-0.5-1.7-0.8-2.7c-0.4,0.4-0.6,0.5-0.6,0.6
		c-0.1,0.8-0.3,1.6-0.4,2.4c-1.2,7.3-2.8,14.5-6.1,21.1c-1.1,2.1-2.4,4.2-3.9,6c-1.4,1.7-3.7,1.3-4.9-0.6c-0.5-0.8-0.8-1.7-1-2.7
		c-0.6-3-1.1-6-1.7-8.9c-0.4-2.1-0.9-4.3-1.6-7.2c-1.6,2.7-1.3,4.8-1.4,6.7c-0.3,5.9-0.6,11.8-0.6,17.7c-0.1,7.4-2.6,14.4-2.5,21.8
		C880.9,78.2,879.8,80.2,877.5,81.7z M864.6,138.6c2.7-2.9,5.5-5.9,8.3-8.9c2.8-2.9,5.7-5.8,8.6-8.8c-1.7-1.6-3.3-1.1-4.9-1.1
		c-2.4-0.1-4.8,0.1-7.2-0.1c-2.6-0.2-3.9-1.1-3.8-2.2c0.2-1.9,1.7-2.6,3.2-3.2c0.9-0.3,1.9-0.5,2.8-0.6c3.8-0.3,7.6-0.5,11.4-0.8
		c1.4-0.1,2.9,0.1,4.3-0.1c0.8-0.1,1.6-0.5,3.4-1.2c-9.4-8.4-16.6-17.5-23.9-26.6c-2,0.4-2.7,1.9-3.6,3.2
		c-5.1,6.5-10.2,13.1-15.3,19.7c-1.1,1.4-1.9,2.9-2.7,4.5c-0.4,0.8-0.7,1.9-0.4,2.7c0.7,2.6,1.4,5.1,3.3,7.3
		c3.8,4.1,7.4,8.3,10.2,13.3C859.8,137.8,861.6,139.1,864.6,138.6z"/>
	<path d="M816.7,710.6c2.9,1.4,3.1,3.9,3.4,6.3c0.5,4.1,0.7,8.3,1,12.4c1.2,13.4,2.6,26.7,3.5,40.1c1,15,4,29.8,5.3,44.7
		c0.3,2.9,0.8,5.7,1.1,8.6c0.2,2.1,0.1,2.1-1.7,4.3c-1.5-1.2-1.8-2.9-2-4.6c-1-6.5-1.9-13-2.7-19.5c-1.2-9.5-2.3-19-3.4-28.6
		c-0.9-8.6-1.8-17.2-2.5-25.8c-0.5-5.3-0.7-10.5-1.2-15.8c-0.1-0.9-0.5-1.7-1.5-2.5c-0.2,1.2-0.5,2.3-0.6,3.5
		c-0.5,12.5-1.1,24.9-1.4,37.4c-0.2,8.6-0.1,17.3-0.1,25.9c0.1,22.1,0.3,44.1,0.3,66.2c0,3-0.4,6.1-0.6,9.1c-0.1,1.7-0.2,3.4-0.3,6
		c1.3-1.1,2.3-1.4,2.6-2.1c0.9-1.9,1.7-3.8,2.3-5.8c3.2-9.4,6.1-18.9,9.5-28.2c2-5.4,4.4-10.6,6.9-15.8c1.1-2.3,2.8-4.3,4.4-6.3
		c2.8-3.6,4-7.3,3.3-12c-0.8-5.2-0.6-10.5-0.8-15.8c-0.3-9.9-0.6-19.8-0.8-29.7c-0.2-12.5-0.4-24.9-0.2-37.4
		c0.2-14.9,0.7-29.7,1.2-44.6c0.1-1.7,0.6-3.4,0.8-5.2c0.2-1.3,0.6-2.5,0.4-3.8c-0.8-9.6,0.5-19.2,0.9-28.7
		c0.4-10.9,1.5-21.7,1.5-32.6c0-11.8,0.7-23.6,1.1-35.5c0.1-3.4-0.1-6.7-0.2-10.1c-0.3-5.7-0.4-11.5-1-17.2c-0.4-3.9-1.1-7.8-3-12
		c-0.8,0.9-1.6,1.5-1.9,2.2c-0.8,2.3-1.4,4.6-1.9,6.9c-1.1,4.6-2.1,9.3-3.1,14c-3.1-0.8-3.4-1-3-2.9c0.6-3.5,1.3-6.9,2.2-10.3
		c0.8-3.1,1.7-6.2,2.6-9.2c0.4-1.2,0.9-2.4,1.7-3.4c2.1-3.1,5.5-2.9,7.3,0.4c0.8,1.5,1.3,3.3,1.5,5c0.7,7.6,1.4,15.3,1.7,23
		c0.3,8.8,0.1,17.6,0.1,26.4c0,1.8-0.1,3.5-0.2,5.3c-0.7,14.2-1.3,28.4-2.2,42.6c-0.9,13.9-2.1,27.7-3.1,41.6
		c-0.4,6.4-0.4,12.8-0.6,19.2c-0.2,7.5,0.3,15-1.5,22.5c-0.2,0.9-0.1,1.9-0.1,2.9c0.5,12.8,0.9,25.6,1.4,38.3
		c0.1,1.6,0.2,3.1-0.8,4.6c-0.4,0.7-0.3,1.9-0.1,2.8c1.5,8.1,1.5,16.2,1.9,24.4c0.7,15.5,1,31,1.5,46.5c0.1,3.5,0.3,7,0.5,10.5
		c0.1,1.1,0.4,2.2,0.8,3.2c1.1,3.2,0.2,6.2,0.2,9.2c-2,0.5-2.8-0.4-3.1-1.4c-0.4-1.4-0.4-2.8-0.5-4.3c-0.2-6.6-0.3-13.1-0.5-19.7
		c0-0.6-0.2-1.2-0.5-2.6c-0.7,1.1-1.1,1.5-1.2,2c-1.8,7.2-5.1,13.8-8.4,20.3c-2.8,5.7-6,11.3-9.1,16.9c-0.5,1-1.1,2.1-1.9,2.7
		c-3.7,2.8-4.2,7-5.2,11.3c1,0.4,1.8,0.7,3.1,1.3c-3.4,0.5-4.7,2.8-5.6,5.5c-0.5,1.5-1.1,3-1.9,4.4c-0.3,0.6-1.3,1.1-1.8,1
		c-0.6-0.1-1.3-1-1.4-1.6c-0.3-2-0.3-4.1-0.4-6.5c-1-0.3-2-0.7-3.1-0.8c-2.9-0.1-5.7-0.1-8.6-0.1c-6.1,0-12.1,0-18.7,0
		c2.7-2.1,5.5-2.3,8.2-2.3c6.1,0,12.2,0,18.2-0.1c5.3-0.1,5.7-0.6,4-5.5c-3.2-9.6-4.8-19.5-6.1-29.5c-0.5-3.3-1.1-6.6-1.4-10
		c-0.3-3.3-0.7-6.7-0.4-10c0.4-4.7-0.3-9.2-1.1-13.8c-0.5-3.3-0.8-6.6-1.1-10c-0.4-5.6-0.7-11.2-1.2-16.7c-0.2-1.8-0.3-3.7-1.6-5.9
		c-1.1,2.4-1.3,4.3-1.3,6.2c0,7,0.2,14.1,0.3,21.1c0,3.7-0.1,7.3,0,11c0,1.9,0,3.8,0.3,5.7c2,10.9,3.5,21.8,4.3,32.8
		c0.3,4.8,1.5,9.5,2.4,14.2c0.3,1.9,1,3.7-0.6,5.7c-0.6-0.7-1.2-1.2-1.5-1.8c-1.8-3.3-2.6-6.9-2.9-10.5c-1.3-15-2.5-29.9-3.8-44.9
		c-0.4-4.1-1-8.3-1.3-12.4c-0.1-2.8,0.4-5.7,0.4-8.6c0.1-2.9,0.1-5.7-0.2-8.6c-0.4-4.2-0.5-8.3,0.8-12.3c0.4-1.1,1.1-2.2,1.6-3.1
		c3.5,0.2,5,2.3,5.4,5c0.6,3.5,1.1,7,1.3,10.5c0.8,12.1,1.1,24.3,2.1,36.4c0.9,10,2.6,20,4,29.9c0.5,3.3,1,6.6,1.6,9.9
		c0.2,0.8,0.7,1.6,1.4,3.3c0.5-1.8,0.9-2.6,1-3.5c0.3-5.7,0.8-11.5,0.9-17.2c0.1-12.5,0-25-0.1-37.4c-0.1-6.1-0.7-12.1-0.7-18.2
		c-0.1-16.6-0.3-33.3,0.2-49.9c0.3-10.5,0.6-21.1,2.6-31.5C814.3,715.1,814.4,712.6,816.7,710.6z M839.7,824.9
		c-3.5,3.6-4.7,8.3-6.7,12.5c-2,4.2-3.7,8.5-5.1,12.9c-1.4,4.4-3.5,8.7-3.7,13.5c7.3-10.8,11.4-23,15.7-35.1
		C840.3,827.5,840.9,826.3,839.7,824.9z"/>
	<path d="M801.9,324.6c4-0.4,7.9-1.1,11.9-1.2c12-0.3,24-0.8,36-0.4c10.9,0.4,21.6-1.3,32.5-1.2c8.1,0.1,16.3-0.7,24.4-1
		c1.9-0.1,3.8,0.1,5.7,0.1c1.6,0,3.2,0.2,4.8-0.1c5.4-0.9,10.8-0.6,16.3-0.7c9.9-0.1,19.8,0,29.4-3.5c3.8-1.4,7.6-1,11.2,0.6
		c2.2,0.9,4.3,1,6.5,1c7.2-0.1,14.4,0,21.6-0.2c7-0.2,14-0.8,21-1.1c3.2-0.1,6.4,0.1,9.6,0.1c1.8,0,3.5,0.2,5.3-0.1
		c6.4-1,12.7-0.5,19.1-0.2c6.4,0.3,12.8,0,19.1-0.2c6.7-0.3,13.4-0.7,20.1,0.1c1.4,0.2,2.9,0.4,4.3,0.1c7.3-1.2,14.7-0.5,22-0.1
		c4.5,0.2,8.9,0.4,13.4,0.5c5.3,0.1,10.5,0,15.8,0.1c2.7,0.1,5.4,0.6,8.1,1c1.9,0.2,3.8,0.4,5.7,0.6c2.7,0.2,5.4,0.2,8,0.3
		c1.1,3.4,0.8,4.2-1.7,4.1c-3.5-0.1-7-0.5-10.5-1c-16.2-2-32.4-3.2-48.8-2c-5.2,0.4-10.5-0.2-15.8-0.3c-16,0-32,0-48,0
		c-8.9,0-17.9-0.3-26.8-0.1c-10.5,0.2-21.1,0.9-31.6,1.3c-3,0.1-6.1,0.3-9.1,0.3c-1.9,0-3.2,0.6-4.4,2.2
		c-6.7,9.2-14.5,17.5-23.3,24.7c-5.6,4.6-11.1,9.1-16.4,14c-5,4.7-9.7,9.7-14.4,14.8c-2.7,3-4.7,6.5-5.9,10.3
		c-1.2,3.8-0.3,5.5,3.7,6c5.7,0.7,11.5,1,17.2-0.1c8.2-1.6,16.3-3.1,24.1-6.2c2.6-1.1,5.5-1.5,8.4-2.1c5.8-1.2,11.5-2.5,17.4-3.5
		c3.6-0.6,7.3-0.8,11-0.9c1.7,0,3.5,0.4,5.1,1.1c3.9,1.6,5.7,4.5,5.3,8.7c-0.1,1.5-1.1,2.9-1.9,4.2c-2.2,3.5-4.9,6.8-6.9,10.4
		c-3.2,5.7-1.6,11.1,4.2,14.1c3.3,1.7,6.8,2.8,10.2,4.2c7.7,3,15.4,6.2,23.2,8.9c4.9,1.7,9.3,4.3,13.7,6.9c2.6,1.5,2.6,1.9,1,5.8
		c-0.8-0.3-1.8-0.5-2.5-1c-9-6.3-19.3-9.9-29.4-13.9c-1.3-0.5-2.9-1-3.8-1.9c-2.1-2.3-4.9-2.9-7.7-3.7c-2.1-0.6-4.3-1.2-6.3-2.1
		c-6.1-2.9-8.1-7.9-6.9-14.6c0.9-4.8,3.5-8.5,6-12.4c1-1.6,2.2-3.2,2.9-4.9c1.3-3.6,0.1-5.7-3.7-5.9c-3.6-0.2-7.4,0-11,0.5
		c-9.3,1.3-18.5,3.4-27.6,6.1c-7.5,2.3-15.3,3.5-22.8,5.4c-6.3,1.6-12.5,2.2-19,1.8c-7.9-0.5-11.4-6.1-7.9-13.3c1-2.1,2.3-4.2,3.9-6
		c8.6-10.1,18.2-19.3,28.3-27.9c8-6.9,15.8-14.1,22.8-22c1.7-1.9,3.7-3.6,3.9-6.7c-0.9-0.3-1.7-0.7-2.6-0.8
		c-8-0.3-15.9,0.2-23.7,2.4c-12.8,3.6-25.1,8.6-37.2,14c-14.9,6.7-29.4,14.1-44,21.2c-1.9,0.9-3.5,2.3-5.3,3.2
		c-3.4,1.8-6.9,3.4-10.3,5.1c-1.4,0.7-2.9,1.4-4.2,2.2c-4.3,2.7-8.6,5.5-12.9,8.2c-2.3,1.4-4.6,2.8-6.3,5c-1.7,2.2-4.2,2.7-7.2,1.6
		c1.4-2.7,2.5-5.3,5.6-6.1c0.4-0.1,0.9-0.4,1.3-0.7c11-8.6,23.8-14.3,35.6-21.6c1.7-1.1,3.7-2,5.7-2.5c7-1.7,12.9-5.4,19-8.9
		c5.6-3.1,11-6.6,17-8.9c8.3-3.2,16.6-6.6,24.9-9.9c1-0.4,2-0.9,2.9-1.4c-0.4-1.5-1.5-1.2-2.3-1.2c-3.4,0-6.7,0.1-10.1,0
		c-5.1-0.1-10.2-0.6-15.3-0.6c-4.1,0-8.3,0.1-12.4,0.5c-7,0.7-14,1.6-21,1.5c-4.6-0.1-9.3,0.4-13.9,0.5c-1.5,0-3.2,0.5-4.3-1.3
		c-0.2-0.4-1.2-0.4-1.8-0.4c-4.3,0.1-8.7-0.1-12.9,0.6C824.4,326,813.1,325.4,801.9,324.6z"/>
	<path d="M584.3,207.5c1.7-4.6,5.1-8.1,7.8-12c1.1-1.6,2.1-3.2,3.1-4.8c1.3-2,2.5-4.1,3.8-6.1c0.8-1.3,1.6-2.7,2.7-4.5
		c-1.8-0.2-3-0.5-4.2-0.5c-6.1,0-12.1,0.1-18.2,0.2c-4,0-8,0.1-12,0.1c-2.9,0-5.8,0.1-7.3,3.3c-0.1,0.2-0.5,0.3-0.8,0.4
		c-0.1,0-0.3,0-0.6-0.1c0-0.8,0-1.7,0-2.8c-0.9-0.1-1.7-0.2-2.5-0.2c-5.8,0-11.5,0.1-17.3,0c-2.6-0.1-4.1,0.9-5.5,3
		c-1.4,2.1-3.1,4-4.7,5.9c-0.4,0.2-0.9,0.5-1.3,0.7c-1.6,1.3-3.2,2.6-4.7,4c-2,1.8-3.9,3.6-6.1,5.2c5.1-6,10.9-11.3,15.9-18.1
		c-3.6-1-6.7-0.5-9.6-0.3c-2.3,2.8-3.2,6.6-7.5,7c-0.3,0.2-0.6,0.3-0.9,0.5c1.8-2.3,3.6-4.7,5.6-7.1c-0.7-0.3-1.1-0.6-1.5-0.5
		c-49.5,1.3-99.1,0.9-148.7,3.1c-1.1,0-2.2,0.4-3.1,0.6c-0.2,0.3-0.4,0.5-0.4,0.6c-0.2,5.4-0.2,5.4-5.4,6.5
		c-1.6,0.3-3.2,0.6-4.7,0.6c-11.3-0.1-22.7-0.3-34-0.6c-1.2,0-2.6-0.3-3.7-0.8c-0.7-0.3-1.6-1.3-1.7-2c-0.1-0.7,0.6-1.8,1.3-2.3
		c1.2-0.8,2.6-1.4,4-1.6c6.3-1.1,12.6-2.1,18.9-3c4.1-0.6,8.2-0.9,12.9-1.3c-0.8-1.2-1.2-2-1.8-2.6c-1.1-0.9-2.3-1.7-3.5-2.5
		c-4.2-2.7-8.3-5.4-12.5-8.1c-1.7-1.1-3.3-1.9-5.6-0.5c-0.2,1.3-0.3,2.8-0.5,4.3c-2.6,0.5-3.6,0.1-4.3-1.5c-0.8-1.7-0.6-3.9,0.5-4.9
		c2.9-2.8,8.2-2.7,11.2,0.2c2.3,2.2,5,4.1,8.2,4.8c5.6,1.3,10.4,4.2,14.5,8.1c1.6,1.6,3.3,2.3,5.6,2.2c3-0.2,6.1,0.1,9.1-0.3
		c9.7-1.1,19.5-0.5,29.2-0.8c4.5-0.1,8.9-0.4,13.4-0.6c2.6-0.1,5.1-0.3,7.7-0.3c16.8,0,33.6,0,50.4,0c0.3,0,0.6,0,1,0
		c9.4-0.7,18.8-0.9,28.3-0.8c11.7,0.2,23.3,0,35-0.2c5.8-0.1,11.5-0.6,17.2-0.7c14.4-0.1,28.8,0,43.1,0c0.5,0,1,0.1,1.4,0
		c5-1.2,10.1-0.3,15.1-0.5c5.1-0.3,10.2,0.1,15.3,0.1c5.1,0,10.2-0.2,15.3-0.2c5.1,0,10.2,0.2,15.3,0.3c2.4,0,4.8-0.2,7.2-0.2
		c5.4-0.1,10.9-0.1,16.3-0.2c4,0,8-0.1,12,0c7,0.1,14.1,0.2,21.1,0.2c2.2,0,4.5,0.8,6.4-1c0.1-0.1,0.6-0.1,0.7,0
		c1.4,1.7,3.3,0.7,4.9,0.9c3.2,0.3,6-2.1,9.6-0.9c3.1,1,6.6,0.6,10,0.7c4,0.1,8-0.1,12-0.1c6.6,0.1,13.1,0.3,19.7,0.3
		c4.5,0,8.9-0.3,13.4-0.3c5.1,0.1,10.2,0.4,15.3,0.7c8.3,0.5,16.6,1.1,24.9,1.5c1.2,0.1,2.5-0.5,3.7-0.6c1.1-0.1,2.3-0.1,3.3,0.3
		c0.6,0.2,1.1,1.1,1.2,1.8c0.1,0.4-0.5,1.3-1,1.5c-1.2,0.4-2.5,0.7-3.7,0.7c-2.6,0.1-5.1,0-7.7,0c-1.4,0-2.8,0.1-4.3,0.2
		c-1.3,2.6-0.2,5.3-1,7.7c0-1.7,0.1-3.5,0-5.2c-0.1-2-0.7-2.7-2.5-2.9c-6.3-0.5-12.7-1-19-1.4c-1.1-0.1-2.1,0.3-3.6,0.4
		c-0.6,6.4,0.2,12.6-0.8,18.7c0-3.8,0-7.5,0-11.3c0-1.8,0.1-3.5-0.1-5.3c-0.2-2.1-0.8-2.8-3-3c-2.7-0.2-5.4-0.3-8.1-0.3
		c-9.1,0-18.2,0-27.3,0c-4.2,0-8.3-0.1-12.5-0.2c-1.1,0-2.2-0.1-3.4,0c-2.1,0.1-4.1,0.4-6.2,0.3c-1.8,0-3.3,1.7-5.6,0.3
		c-1.6-0.9-4-0.4-6.1-0.4c-0.8,0-1.5,0.2-2.6,0.4c-0.8,3.7-1.5,7.2-2.4,10.8c-0.7,2.8-0.9,5.7-2.8,8.1c0,0,0,0.1,0,0.1
		c1.1-6.2,2.3-12.5,3.5-19.1c-6.6-0.9-12.9-0.4-19.4-0.3c-0.6,1.7-1.2,3.2-1.7,4.8c-0.1-1.4-0.2-2.8-0.3-4.5
		c-4.4-0.7-8.6-0.1-13.3-0.3c-1.3,3-2.6,6-4.3,9.7c-0.7-2.6,0.4-3.8,0.9-5.2c0.4-1.3,0.9-2.6,1.3-3.8c-1.4-1.5-2.9-1.2-4.3-1.2
		c-6.5,0-13.1,0.1-19.6,0.2c-0.2,0-0.3,0-0.5,0c-5-0.1-5-0.1-8.4,3.2c0-0.8-0.1-1.5-0.1-2.4c-0.4-0.2-0.8-0.6-1.2-0.6
		c-4.1-0.1-8.3-0.1-12.4-0.1c-1.8,0-3,0.7-3.6,3.2c-0.4-1.1-0.5-1.6-0.8-2.4c-3.1-0.3-6.3-0.7-9.6-0.9c-3-0.2-5.1,0.8-6.7,3.6
		c-3.1,5.4-6.6,10.6-9.9,15.8c-1,1.6-1.9,3.2-4.4,4.6c0.5-1.5,0.7-2.3,1-2.9c2.7-4.9,5.2-9.9,8.9-14.2c1.4-1.6,2.8-3.5,2.9-6
		c-4.3-0.7-8.4-0.3-12.5-0.3c-1.5,0-2.2,1.1-2.9,2.2c-2.7,4.2-5.4,8.3-8.1,12.4c-2.7,4-5.7,7.7-7.5,12.2c-0.4,1.1-1.5,1.9-2.3,2.9
		C584.9,208.7,584.6,208.1,584.3,207.5z M361,187.2c-1-2.9-2.8-2.8-4.6-2.7c-6.7,0.3-13.4,0.6-20,1.1c-2.2,0.1-4.4,0.7-6.6,1.2
		c-0.7,0.2-1.3,0.8-2.8,1.6c10.7,0,20.4,0,30.1,0C358.3,188.2,359.5,187.6,361,187.2z"/>
	<path d="M782,881.8c-2.1-1.5-2.4-3.5-2.5-5.4c-0.2-3.8-0.1-7.7,0-11.5c0.2-4.9,0.7-9.9,0.8-14.8c0.2-10.4,0-20.8-0.6-31.1
		c-0.4-6.5,0.2-13.1,0.3-19.6c0-1.2-0.1-2.4-0.3-4.7c-1.1,1.7-1.7,2.4-2,3.2c-1,3.2-2,6.4-2.8,9.7c-1.4,6.1-2.2,12.3-3.8,18.3
		c-2.9,10.8-3.7,22-6,33c-1.7,8-3.3,16-5,23.9c-0.3,1.5-1.1,3-0.2,5.1c2.3,0.1,4.8,0.3,8.2,0.5c-4.6,1.4-8.4,2.5-12.4,3.6
		c-2.7-1.6-5.9-1.5-9.1-1.4c-5.3,0.2-10.5,0.4-15.8,0.5c-2.7,0-5.3-0.3-8-0.6c4.9-1.6,9.9-2.4,15.1-2.2c3.8,0.2,7.7-0.1,11.5-0.2
		c1.1,0,2.1-0.4,3.6-0.6c0.7-4.7-1.1-9.1-1.7-13.6c-0.3,1.9-0.5,3.8-0.8,5.6c-0.2,1.1-0.3,2.4-1.8,2.4c-1.2,0.1-1.5-1-1.8-1.9
		c-0.2-0.6-0.5-1.1-0.8-1.7c-0.7,0.4-1.2,0.7-1.8,1.1c-2.1-1.7-2.9-4.2-3.5-6.6c-1.2-5.3-2.4-10.6-3.3-15.9
		c-2.8-16.6-6.5-32.9-10.8-49.1c-3.9-14.7-6.8-29.6-9.6-44.5c-1.4-7.3-1.6-14.9-2.2-22.4c-0.1-1.4,0-2.9,0.5-4.2
		c0.2-0.7,1.3-1.6,2-1.6c0.7-0.1,1.8,0.7,2.2,1.4c0.7,1.4,1.2,3,1.5,4.5c1.4,6.1,2.6,12.2,4.1,18.2c1.9,7.8,4,15.5,6,23.2
		c1.6,6.2,3.3,12.3,4.9,18.5c1.1,4.5,2.2,9,1.5,13.7c-0.1,0.9,0.2,1.9,0.6,2.8c2,5.5,2.7,11.1,2.9,16.9c0.2,8.1,1.3,16.3,4.5,23.9
		c0.4,0.9,0.9,1.7,1.4,2.5c0.1,0.2,0.5,0.3,0.9,0.5c0.2-0.4,0.6-0.8,0.6-1.2c1.4-8.5,3.2-17,2.7-25.7c-0.5-8.2,0.5-16.3,1.3-24.4
		c0.9-9.4,1.7-18.8,2.7-28.1c1-9.1,2-18.1,3.3-27.1c0.9-6.5,2.2-12.9,3.5-19.3c0.4-1.9,0.5-4.2,2.6-5.9c0.6,0.7,1.5,1.4,1.5,2
		c0,2.2,0,4.5-0.5,6.6c-4.3,18.6-6.9,37.4-8.3,56.4c-0.8,10.5-1.6,21-2.2,31.6c-0.2,3.2,0.2,6.4,0.2,9.6c0.1,13.1,0.2,26.2,0.3,39.3
		c0,1.6,0.1,3.1,0.2,5c1.9-0.5,1.9-1.8,2.1-3c1.2-6.6,2.4-13.2,3.7-19.8c1.8-9.1,3.8-18.1,5.5-27.2c1.2-6.1,1.8-12.4,3.2-18.4
		c1.3-5.7,3.2-11.4,5.1-16.9c0.6-1.9,1.8-3.7,3-5.4c0.6-0.8,1.7-1.1,3-1.9c0.5,1.5,1.1,2.4,1.1,3.5c0.2,2.4,0.1,4.8,0.1,7.2
		c0,12.6-0.2,25.3-0.1,37.9c0.2,13.4,0.6,26.8,0.9,40.3c0,1.1,0.2,2.3-0.1,3.3C783.5,880.2,782.6,881,782,881.8z M721.6,757.7
		c-0.4,0-0.7,0-1.1,0c0.2,1.9,0.3,3.7,0.6,5.6c0.5,3.3,1.2,6.6,1.8,9.9c1.8,9.4,3.7,18.8,6.2,28c2.9,10.9,5.1,22.1,7.6,33.1
		c0.3,1.5,0.9,3,1.4,4.4c0.8-1.4,1-2.8,0.8-4.1c-1-7.3-1.8-14.6-3.4-21.7c-2.6-12-5.7-23.9-8.6-35.8
		C725.3,770.6,723.4,764.2,721.6,757.7z M741.7,857.8c0.2,6.3,2.4,13.9,5.1,16.6C745.9,868.4,744.7,863.1,741.7,857.8z"/>
	<path d="M265.1,316.8c3.7-4.5,5-4.9,8.9-2.2c2.5,1.7,4.7,3.8,6.9,5.8c1.8,1.7,2.9,3.8,3.2,6.3c0.2,1.1,0.5,2.1,0.7,3.1
		c0.5,0.2,0.9,0.4,1.1,0.3c6.8-3.1,14.1-2,21.3-2.5c1.3-0.1,2.6-0.1,3.8-0.2c1.6-0.1,3.4-1,4.7,0.9c0.2,0.4,1.2,0.3,1.8,0.3
		c1.6,0,3.2,0.1,4.8-0.1c4.9-0.4,9.9-0.6,14.8-1.4c6.3-1,12.7-0.9,19.1-1.3c6.8-0.5,13.7-0.6,20.6-0.8c6.9-0.1,13.8-0.4,20.6,0
		c12.3,0.8,24.6-0.9,36.9-0.1c7.5,0.5,15,0.1,23.1,0.1c-2.8,0.7-5.3,0-8.1,1.8c5,0.6,9.1-0.4,13.2-0.7c4.3-0.3,8.6-0.7,12.9-0.9
		c4.3-0.2,8.6-0.3,12.9-0.4c4.3,0,8.6,0.1,12.9,0.1c4.3,0,8.6,0,13.5,0c-2.3,0.6-4.1,1.1-7,1.9c3.9,0.9,6.7,0.6,9.5,0.4
		c5.9-0.6,11.8-1.4,17.7-1.6c6.7-0.3,13.4-0.1,20.1-0.2c5.6-0.1,11.2-0.3,17.9-0.5c-2.6,0.6-4.1,0.8-5.6,1.3c-0.4,0.2-0.6,1.1-0.9,2
		c-16.4,0-33.1,0-49.7,0c-27.8,0.1-55.6,0.2-83.5,0.3c-12.3,0-24.6-0.1-36.9,0.1c-9.7,0.1-19.5,0.5-29.2,0.8
		c-20.1,0.6-40.3,1.2-60.4,1.9c-4,0.1-7.9,0.7-12.5,1.1c1.5,1.8,3.3,1.8,4.8,2c1.2,0.2,2.8-0.1,3,1.7c0.1,1.2-1.3,2.5-3.1,2.3
		c-3.2-0.3-6.3-1-9.4-1.8c-1.4-0.3-2.7-1-4.3-1.6c-0.5,1.5-1,3-1.6,4.4c-3.7,9.9-8.1,19.5-13,28.8c-4.3,8-8,16.4-11.6,24.7
		c-1.3,3-1.8,6.4-2.4,9.7c-0.5,2.7,0.9,4.6,3.2,5.9c0.7,0.4,1.4,0.8,2.2,1c5.2,1.6,10.3,3.5,15.8,3.6c1.7,0,3.5,0.4,5.2,0.8
		c7.6,1.9,15.3,3.1,23.2,3.8c5.9,0.5,11.6,2,17.3,3.6c9.1,2.6,13.6,9.1,14.8,18.1c0.7,5.1,0.7,10.2-0.2,15.3
		c-2.1,11.7-1.7,23.6-1.2,35.4c0.2,5.7,1.2,11.4,1.6,17.2c0.3,4.1,1.9,7.7,3.2,11.5c0.7,2.3,1,4.6,1.7,6.9c1.2,4.3,2.5,8.6,3.9,12.8
		c0.5,1.7,1.4,3.2,0.3,5.4c-0.8-0.6-1.6-1-2.1-1.7c-0.6-0.9-0.9-2-1.2-3.1c-1.7-6-3.4-12-5.1-18c-0.8-2.8-1.6-5.5-2.3-8.3
		c-2.3-8.7-3-17.6-2.9-26.6c0.1-4-0.2-8,0-12c0.3-7.2,1-14.3,1.2-21.5c0.2-4.6,0-9.2-0.2-13.9c-0.2-2.9-1.5-5.5-3.1-8
		c-1.8-2.8-4.2-4.8-7.5-5.6c-4.2-1.1-8.4-2.1-12.6-3.1c-0.9-0.2-2.2-0.2-2.7-0.7c-1.9-2.2-4.5-2-6.9-2.2c-7-0.7-14-1.1-21-2
		c-6.8-0.9-13.6-2.2-20.1-4.3c-6.5-2-8.4-5.1-7.6-11.8c0.5-4,1.8-7.7,3.5-11.4c7.1-15,14.2-30.1,21.2-45.1c2.1-4.4,3.2-9.1,2.7-13.9
		c-0.1-1.5-0.5-3.2-1.3-4.5c-2.2-3.8-5.2-6.9-9.3-8.6C269,317.1,267.2,317.2,265.1,316.8z M385.9,327.4c1.2-0.1,2.5-0.1,3.7-0.2
		c1.3-0.1,2.5-0.3,3.8-0.5c1-0.2,2.1-0.4,3.1-0.5C392.8,325.8,389.2,324.9,385.9,327.4z"/>
	<path d="M934.9,699.9c0.4,0.7,0.9,1.3,1.3,2c2.3,4.4,6.1,5.5,10.5,4.7c6.2-1.1,12.2-2.7,17.6-6c7.1-4.3,14.4-8.4,21.3-12.9
		c5.6-3.6,11.1-7.5,15.1-13.1c3.3-4.5,7.2-8.5,9.7-13.6c3.1-6.5,5.2-13.1,3.4-20.4c-0.2-0.9-0.3-1.9-0.3-2.9
		c0.1-3.7-1.3-6.7-3.1-9.9c-2.6-4.4-4.8-9-6.9-13.7c-1.6-3.6-1.3-7.2,1.2-10.4c0.9-1.1,1.7-2.3,2.7-3.4c5.9-6.1,11.6-12.4,17.7-18.2
		c10-9.4,17.6-20.2,22.5-33c2.7-6.9,3.9-14.1,3.5-21.6c-0.1-2.8,0.8-5.8-0.9-8.4c-2.5,0.6-3.5,0-4-2.2c-0.6-2.4,0.6-4.4,2.7-4.8
		c1.9-0.3,3.9,0.5,4.8,2.5c0.7,1.6,1.2,3.3,1.4,5c0.4,4.3,0.6,8.6,0.7,12.9c0,2.2-0.1,4.6-0.8,6.6c-3.6,9.9-7.1,19.9-12.9,28.8
		c-3,4.6-6.5,8.6-10.4,12.5c-6.8,6.7-13.4,13.7-20.1,20.6c-1.4,1.5-2.6,3.2-3.8,4.9c-1.7,2.5-1.8,5.1-0.3,7.7
		c1.7,2.9,3.4,5.8,5.2,8.6c2.7,4.2,4.1,8.6,3.8,13.6c-0.1,1.1,0,2.3,0.3,3.3c2.1,7.5,0.8,14.6-2.2,21.5c-2.1,4.9-5.1,9.3-8.9,13
		c-4.7,4.6-9.2,9.4-14.2,13.6c-6,5-12.4,9.6-19.6,12.8c-2.5,1.1-5.3,2-7.4,4.2c1.3,1.4,2.6,0.5,3.7,0.5c3.5-0.2,3.8,0.1,5.5,3.2
		c2.6,4.6,3.6,9.4,3.4,14.7c-0.2,6.5,0.1,13.1,0.3,19.6c0,0.3,0.3,0.6,0.6,1.2c0.7-0.5,1.6-0.9,2.1-1.6c5.1-7.7,10.8-15.1,15.1-23.4
		c0.7-1.4,1.7-2.7,2.6-4c5.5-7.5,10.9-15,16.5-22.4c2-2.7,4.3-5.2,6.6-7.6c5.6-5.7,11.3-11.3,16.9-16.9c1-0.9,2.1-1.7,3.4-2.6
		c1.2,2.1-0.1,3.2-1,4.1c-2.8,3-5.5,6.3-8.7,8.9c-6.1,5.1-10.6,11.5-15.6,17.5c-3.9,4.7-7.8,9.3-11.2,14.3
		c-5.1,7.4-9.7,15-14.5,22.6c-2.5,3.9-5,7.8-7.6,11.6c-0.8,1.2-1.9,2.2-3.1,3c-2.2,1.4-4.6,0.3-5.2-2.2c-0.2-1.1-0.2-2.2-0.2-3.3
		c-0.1-6.1-0.1-12.1-0.3-18.2c-0.1-3-0.3-6.1-0.8-9.1c-0.7-4.4-2.7-5.8-7-5c-1.4,0.3-2.9,0.6-4.1,1.2c-5.4,2.7-11.1,5.1-16.1,8.4
		c-4,2.6-7.4,6.1-10.7,9.5c-3.6,3.7-6.7,7.7-10.1,11.6c-1,1.2-1.8,2.6-3.9,3.1c-0.8-2.3-0.7-4.2,1-6c5.3-5.6,10.3-11.4,15.8-16.7
		c2.7-2.6,6.1-4.6,9.3-6.7c1.8-1.2,3.8-2.2,5.6-3.3c-0.3-1.9-1.3-2.5-2.7-2.4c-2.4,0.1-4.8,0.1-7.2,0.2c-5.1,0.2-8.4-2.4-10.7-7.1
		c0.9-0.5,1.7-0.9,2.4-1.3L934.9,699.9z"/>
	<path d="M889.9,728.6c0,0.8,0.1,1.7,0,2.6c-1.2,7.3-2.4,14.5-3.7,21.7c-0.1,0.8-0.2,1.6-0.5,2.3c-1.9,5.5-2,11.3-2.6,17
		c-0.9,9.1-2.2,18.1-3.2,27.1c-1,8.7-1.7,17.5-2.6,26.2c-0.8,7.6-1.8,15.2-2.7,22.9c-0.1,1.2-0.2,2.5-0.3,4.7
		c2.4-3.3,3.6-6.2,4.8-9.1c3.2-8.1,7.2-15.6,13-22.2c0.9-1.1,1.9-2.2,2.5-3.5c2.8-7,7.9-12.4,12.1-18.4c1.9-2.7,4.2-5.2,6.3-7.9
		c1.2-1.6,2.3-3.4,3.4-5.2c1.2-1.9,2.2-4,3.6-5.6c3.8-4.3,7.8-8.4,11.8-12.6c0.4-0.4,1-0.7,2-1.3c0.3,1.1,0.9,2,0.6,2.6
		c-0.5,1.1-1.4,2.1-2.1,3.1c-4.3,5.4-8.1,11.1-11.5,17.4c1.8,2.3,0.8,4.5,0,7c-1.3,4.3-1.8,8.7-2.5,13.2
		c-2.5,17.1-5.1,34.2-7.5,51.2c-0.6,4.1-0.7,8.3-1.1,12.4c-0.1,1.2-0.4,2.2-2.3,2c-0.9-2-0.8-4.2-0.4-6.4c1-6.6,2-13.3,3-19.9
		c0.9-6.2,1.8-12.3,2.6-18.5c1.4-10.6,2.9-21.2,4.3-31.8c0.1-0.4,0-0.9,0-2c-1,1-1.7,1.5-2.1,2.2c-3.1,5.7-6.5,11.4-9.3,17.3
		c-6.3,13.6-12.3,27.4-18.5,41.1c-1,2.2-2.1,4.3-2.5,6.8c0.5-0.6,1.1-1.2,1.5-1.9c0.7-1.3,1.2-2.6,1.9-3.9c0.7-1.3,1.6-2.4,3.5-2.1
		c1.2,1.4,1,3,0,4.3c-4.2,5-5.4,11.5-8.8,16.9c-1.3,2-2.6,4-4,5.9c-0.4,0.6-1.2,0.9-1.8,1.3c-1.9-1.1-1.5-2.6-1.1-3.9
		c1.3-4.1,2.4-8.3,4-12.3c7.7-19,15.3-38,24.7-56.2c1.6-3.1,3.1-6.3,4.6-9.5c0.2-0.4,0.2-0.9,0.4-2.2c-1.3,1-2.2,1.5-2.7,2.3
		c-2.8,4.1-5.5,8.2-8.1,12.4c-5,8.3-10,16.8-14.9,25.2c-1.4,2.3-2.7,4.7-3.7,7.3c-2.8,7.3-5.4,14.7-8.2,22c-1,2.7-2.1,5.3-3.3,8
		c-0.3,0.7-0.9,1.2-1.7,2.4c-0.4-1.3-0.8-2-0.7-2.6c0.3-2,0.4-4.2,1.2-6.1c1.4-3.2,1.8-6.5,2.2-9.8c0.3-2.5,0.6-5.1,1-7.6
		c2.7-18.7,5.1-37.4,6.7-56.2c1.1-12.7,2.5-25.5,4.2-38.1c1.2-9.3,2.9-18.6,4.5-27.9c0.2-1.2,0.5-2.5,1.1-3.7
		C887.4,728.5,888.4,727.9,889.9,728.6z"/>
	<path d="M569.7,439.7c-0.8-4.8-0.7-5,2.7-6.4c1.2-0.5,2.4-1,3.6-1.3c0.9-0.2,2.1-0.2,2.7,0.2c4.1,3.6,9.3,2.9,14,4.2
		c1.2-1,2.3-1.9,3.7-3.1c0.7,1,1.6,1.8,1.9,2.7c0.3,1,0.2,2.2,0.2,3.3c-0.2,16-0.4,32-0.5,48c-0.1,10.4,0.2,20.8,0.2,31.2
		c0,3.7-0.4,7.3-0.5,11c-0.4,12.9-0.7,25.9-1.1,38.8c-0.6,17.6-1.2,35.2-1.8,52.7c-0.3,9.1-0.7,18.2-1,27.3c-0.1,1.8-0.4,3.6,0.9,5
		c1.2,1.4,1.1,2.9,0.4,4.5c-0.8,1.9-1.6,3.7-2.5,6c-1.2-1.1-2-1.8-3.3-2.9c-6.6,0.3-13.8,0.5-20.9,0.9c-2,0.1-3.9,1-6.2,1.6
		c-0.2-0.4-1-1.1-1.1-1.9c-0.3-5.7-0.5-11.5-0.5-17.3c-0.1-6.2,0-12.5,0.1-18.7c0-1.4-0.1-2.9,0-4.3c0.3-10.1,0.6-20.1,0.8-30.2
		c0.1-2.1,0-4.2-0.1-6.2c-0.9-13.6-0.9-27.1-0.1-40.7c0.2-4.1-0.2-8.3-0.2-12.5c0-4.3,0-8.6,0.1-12.9c0.1-3,0.2-6.1,0.3-9.1
		c0.2-4.8,0.5-9.6,0.8-14.4c0.1-1.1,0.2-2.2,0.2-3.4c0.2-13.1,0.4-26.2,0.6-39.3c0.1-3.5,0.2-7,0.3-10.5c0.1-2,0.5-3.8,3-4.8
		c0.3,1,0.8,1.8,0.8,2.6c-0.2,4.8-0.5,9.6-0.8,14.4c-0.1,1-0.2,1.9-0.3,2.9c-0.4,13.9-0.8,27.8-1.3,41.7c-0.4,10.2-1,20.4-1.4,30.7
		c-0.2,6.5-0.2,13.1-0.2,19.7c-0.1,9.8-0.1,19.5-0.1,29.3c0,2.1-0.1,4.2,0.1,6.2c1,13.3,0.2,26.5,0,39.8c-0.2,8.5,0.1,16.9,0.3,25.4
		c0,2.2,0.5,4.4,0.9,7c2.5,0.1,4.7-0.2,6.8,0.3c2.1,0.5,4.1,1.8,6.4,1.5c3.3-0.4,6.6-0.8,9.9-1.4c1.8-0.3,2.7-1.7,2.9-3.4
		c0.4-3.5,0.8-7,1-10.5c0.5-12.6,1-25.2,1.4-37.9c0.2-6.9,0.3-13.7,0.6-20.6c0.4-10.5,1-21.1,1.4-31.6c0.3-7.5,0.3-15,0.4-22.5
		c0.2-7.8,0.5-15.7,0.7-23.5c0-1.9-0.1-3.8-0.1-5.8c-0.2-14.1-0.3-28.1-0.5-42.2c-0.1-5.3,0-10.5,0-15.8c0-3.5-0.3-5.2-5.3-5.9
		c-5.4-0.8-10.8-0.7-16.1,0.9C572.5,439.1,571.3,439.4,569.7,439.7z"/>
	<path d="M540.5,660.7c-0.8-1.1-1.4-2-2.3-3.1c-2.8,0.8-5.7,0.2-8.7-0.6c-3.6-1-7.4-0.3-10.9,0.5c-5.7,1.1-11.4,0.7-17.4,0
		c-0.3-1-1.1-2.1-0.9-2.9c1.4-5.7,0.9-11.4,0.9-17.1c-0.1-9.3,0.6-18.5,1.6-27.7c0.9-7.9,1.2-15.9,1.3-23.9
		c0.2-11.8,0-23.7-0.2-35.5c-0.2-11.8-0.7-23.6-1-35.5c-0.2-8.8,0-17.6-0.1-26.4c-0.2-13.4-0.5-26.9-0.7-40.3c0-2.7-0.3-5.2-3.6-6.2
		c0.5-1.4,0.8-2.6,1.3-3.8c2.2-0.2,4.3-0.4,6.3-0.5c9.7-0.5,19.5-0.9,29.2-1.3c1.7-0.1,3.5-0.2,5.2,1.7c-1,0.2-1.7,0.5-2.3,0.4
		c-4-0.8-7.8,0.1-11.7,1.2c-4.9,1.3-10.1,1.3-15.2,1.8c-1.9,0.2-3.7,0.1-5.3,0.2c-1.6,2-1.1,3.8-1,5.5c0.3,7.2,0.7,14.4,1,21.6
		c0,1,0.1,1.9-0.1,2.9c-1,5.2-0.5,10.5-0.4,15.8c0.1,4.3-0.1,8.6-0.1,12.9c0.1,5.8,0.2,11.5,0.4,17.3c0.2,4.8,0.5,9.5-0.1,14.3
		c-0.4,3,0.1,6,0.3,9.1c0.1,3.8,0.3,7.7,0.4,11.5c0.2,6.4,0.4,12.8,0.7,19.2c0.2,4.2,0.5,8.3-0.4,12.4c-0.4,1.5-0.3,3.2-0.3,4.8
		c0.2,6.2,0,12.4-0.8,18.6c-0.9,7.3-0.8,14.7-1.1,22c-0.1,2.2-0.3,4.5-0.3,6.7c0,4.9,0.1,9.9,0.4,14.8c0.1,2.2,0.6,2.6,3,3
		c7,1.4,13.9,1.5,20.9,0.2c2.2-0.4,4.5-0.5,6.6-1c3.6-0.8,4.4-1.9,4.5-5.6c0-1.9,0.3-3.9,0-5.7c-0.4-2.6,2.1-4.6,1.3-7.4
		c-0.7-2.3-1-4.7-1.1-7.1c-0.2-4.5-0.1-9-0.1-13.4c0-5.6,0-11.2,0-16.8c0-2.4-0.5-5,0.3-7.1c1.3-3.4,0.7-6.5,0.6-9.9
		c-0.1-4.6,0.1-9.3,0.5-13.9c0.6-6.2,1.3-12.4,1-18.7c-0.1-3.3,0.4-6.7,0.6-10c0.1-1.4,0-2.9,0-4.3c-0.1-6.2-0.3-12.5-0.3-18.7
		c0-7.5,0.1-15,0.1-22.5c0-0.8-0.2-1.6,0-2.4c1.3-6.7-0.2-13.4-0.1-20.1c0.1-6.7,0.4-13.4,0.8-20.1c0.2-4,0.7-8,1.2-11.9
		c0.3-2.2,1.4-3.2,2.4-2.8c1.6,0.7,1.2,2.2,0.9,3.4c-0.7,3.3-1.3,6.6-2.4,9.8c-0.7,2-1,4-0.8,6.1c0.3,4,0.8,8,1,11.9
		c0.2,4.6,0,9.3,0,13.9c-0.1,4.6-0.1,9.3-0.3,13.9c-0.2,3-1,6-1.1,9c-0.1,4.5,0.1,8.9,0.2,13.4c0.1,2.4,0.6,4.8,0.6,7.1
		c0.1,6.6,0,13.1-0.1,19.7c0,2.5-0.5,5.1-0.7,7.6c-0.4,4.3-0.9,8.6-1,12.9c-0.4,11-0.2,22.1-0.8,33.1c-1,16.5,0.3,32.9,0.2,49.3
		c0,1,0,1.9,0.1,2.9C543.2,652.8,542.2,656.6,540.5,660.7z"/>
	<path d="M370.4,860.7c4.6-0.3,9.2-0.6,13.9-0.9c1.6-0.1,3.2-0.1,4.8-0.1c13.3-0.1,26.5-0.4,39.7-1.1c14.3-0.7,28.8-0.1,43.1-0.2
		c3.2,0,6.4-0.4,9.5-0.6c1.6-0.1,3.2-0.3,4.8-0.3c8.5,0,16.9-0.1,25.4,0c5.3,0.1,10.5,0.4,15.8,0.6c4.5,0.2,8.9,0.5,13.4-0.5
		c0.5-0.1,1-0.1,1.4-0.1c13.6,0.1,27.2,0.3,40.8,0.4c5.9,0.1,11.8,0.1,17.7,0.2c4.5,0.1,9,0.1,13.4,0.3c10.4,0.5,20.7,1.3,31.1,1.7
		c6.1,0.3,12.1,0,18.2,0.2c16.1,0.6,32.3,1.2,48.4,1.9c1.1,0,2.2,0.2,3.3,0.5c0.5,0.2,1,0.9,1.1,1.4c0,0.5-0.4,1.3-0.8,1.5
		c-3.1,1.4-6.4,1.9-9.7,0.7c-1.6-0.6-3.3-1.1-5-1.3c-2.4-0.3-4.8-0.2-7.2-0.3c-16.1-0.6-32.3-1.2-48.4-1.8
		c-12.8-0.5-25.6-0.9-38.3-1.3c-16-0.5-32-0.9-47.9-1.3c-4.1-0.1-8.3,0.3-12.5,0.3c-15,0-30.1-0.2-45.1-0.1c-16,0.1-32,0.6-48,0.9
		c-17.6,0.4-35.2,0.7-52.7,1.3c-15.5,0.5-31,1.4-46.5,2.1c-1.9,0.1-3.9-0.1-4.8,2.3c-0.2,0.6-1.2,1.1-1.9,1.1
		c-4.3,0.1-8.6,0.1-12.9,0c-1.2,0-2.2-0.7-2.4-1.9c-0.2-1.6,0.8-2.5,2.1-2.8c2.6-0.6,5.3-1.1,8-1.3c4.4-0.5,8.9-0.7,13.4-1.1
		c4.9-0.4,9.9-0.8,14.8-1.2C370.4,860.3,370.4,860.5,370.4,860.7z"/>
	<path d="M1092.6,1252.4c-1.4,0.2-2.8,0.5-4.2,0.6c-12.5,0.7-24.9,0.7-37.4-0.4c-0.3,0-0.7,0-1-0.1c-4.6-2-9.4-0.9-14.1-0.8
		c-15,0.2-30-0.3-45-2.3c-1.7-0.2-3.5-0.4-5.3-0.4c-18.1-0.4-36.1-0.8-54.2-1c-8.1-0.1-16.3,0.3-24.5,0.4c-6.9,0-13.7-0.2-20.6-0.4
		c-1.7,0-3.7,0.3-4.4-2c-0.4-1.5,0.5-2.3,3.8-3.4c4.5-1.6,9.1-3.1,13.6-4.7c0.9-0.3,1.6-0.8,2.6-1.3c-2.5-1.6-3.2-1.8-6.1-2.1
		c-16.4-2-32.8-2.1-49.3-1.8c-12.9,0.3-25.9,0.2-38.8,0.8c-14.4,0.7-28.7,1.5-43,3.1c-16.2,1.8-32.2,4.6-48.4,6.9
		c-1.7,0.2-3.5,0.4-5.6,0.6c0-1-0.3-2,0.1-2.5c0.7-0.8,1.7-1.6,2.6-1.8c5.2-0.8,10.4-1.4,15.7-2c8.7-1,17.5-1.2,26.1-3.7
		c1.4-0.4,2.8-0.6,4.3-0.7c12.9-0.7,25.7-3.4,38.7-2.8c2.5,0.1,5.1,0.3,7.6,0.8c3.2,0.6,6.4,0.5,9.4-0.8c2.7-1.2,5.5-1.5,8.4-1.4
		c2.7,0.1,5.4,0.3,8.1,0.4c2.7,0.1,5.4,0,8.1,0c8.8-0.1,17.6-0.2,26.4-0.2c1.5,0,3.2,0.5,4.6,1.1c2.2,1,4.3,1.2,6.5,0.3
		c5-2.1,10.1-1,15.1-0.2c3.8,0.6,7.6,1.3,11.3,1.9c0.8,0.1,1.6,0.2,2.4,0.4c1.6,0.3,2.6,1.2,2.9,2.8c0.3,1.5-0.6,2.5-1.8,3.1
		c-2.2,1.2-4.6,2.2-6.9,3.2c-1.4,0.6-3.1,0.5-4.4,2.4c1.1,0.3,2,0.7,2.8,0.7c9.3,0.1,18.5,0.1,27.8,0.1c1.8,0,3.5,0.2,5.3,0
		c11.2-0.9,22.4-0.1,33.5,0.3c8.5,0.3,16.9,1,25.3,1.5c10.4,0.7,20.7,1.6,31.1,2.1c12.4,0.6,24.9,0.5,37.4,1.4
		c10.4,0.8,20.8,0.6,31.1,0.9c0.8,0,1.5,0.1,2.3,0.2C1092.7,1251.7,1092.6,1252.1,1092.6,1252.4z"/>
	<path d="M733.9,674.1c0-1.3,0.4-2.6-1.2-3.2c-2.2-0.9-4.3-2-6.6-2.9c-5.3-2-7.6-6.1-7.9-11.5c-0.3-5.6-0.2-11.2-0.4-16.8
		c-0.2-8.4-2.2-11-10.3-13.2c-6.3-1.7-12.7-3.1-19.4-2.5c-3.8,0.3-7.7,0.1-11.5,0.1c-0.7-1.6-1-3.3-3-3.2c-1.1,0.1-2.2,0-3.4-0.1
		c-1-0.1-1.9,0-2.9-0.3c-2.8-0.7-3.8-2.6-2.3-5c1.7-2.7,3.5-5.6,5.9-7.4c7.9-6.2,16.1-12,24.4-17.8c5-3.5,10.3-6.5,15.3-9.9
		c2.5-1.7,4.8-3.7,6.9-5.9c2.2-2.3,1.7-4.3-1.2-5.6c-1.6-0.7-3.3-1.2-5-1.5c-10.4-2-20.9-2.1-31.5-1.5c-6.2,0.4-12.5,0.3-18.7,0.2
		c-2,0-4.1-0.8-5.9-1.6c-2-0.9-2.5-2.2-1.8-4.3c0.6-1.9,1.4-4,2.7-5.6c2-2.5,4.3-4.7,6.6-6.9c1.2-1.2,2.7-1.6,4.6-0.5
		c0,2.7,0,5.5,0,8.3c-0.2,0.1-0.3,0.1-0.5,0.2c-0.6-1.3-1.3-2.6-2-4.1c-4,1.5-6.3,4.2-7.2,8c2.3,1.6,9.5,4.8,11.2,4.8
		c2.6-0.1,5.5,0.5,7.2-2.5c0.2-0.4,1.1-0.8,1.6-0.8c4.2-0.1,8.5-0.7,12.4,0.1c4,0.8,7.7,0.7,11.7,0.4c5.9-0.4,11.7,0.8,17,4
		c4.8,3,5.6,7.5,1.5,11.5c-3.1,3-6.6,5.6-10.1,8c-9.1,6.3-18.3,12.2-27.4,18.5c-4.3,3-8.4,6.4-12.5,9.7c-1.2,1-2.5,2.1-2.5,4
		c1,1.7,2.8,1.8,4.5,1.9c2.7,0.1,5.4,0.1,8.2,0.2c7.2,0.3,14.4,0.5,21.5,0.8c4.2,0.2,8.2,1.4,11.9,3.3c4.1,2,6.5,5.6,7.7,9.9
		c1.2,4.4,1.2,8.8,0.3,13.3c-0.5,2.7-1,5.4-1,8.1c-0.1,3.6,1.3,6.5,4.5,8.5c3.1,2,6.2,4,9.2,6c1.2,0.8,2.5,1.5,3.4,2.6
		c1.5,1.8,3.4,2.4,5.4,2.8c6.9,1.2,13.8,2.4,20.9,1.6c4.7-0.6,9.6,0.3,14.3-1.1c5.1,1.5,9.8-0.5,14.6-1.5c0.9-0.2,1.7-0.7,2.4-1.6
		c-1.5,0.1-3,0.3-4.6,0.4c0-0.2-0.1-0.3-0.1-0.5c5.8-1.6,11.5-3.6,17.4-4.8c3.3-0.7,6.5-1.4,9.6-2.9c0.8-0.4,1.8-0.7,2.7-0.9
		c0.2-0.1,0.6,0.2,1.1,0.4c0.5,1.8-0.4,3-2.1,3.6c-5.9,2.1-11.7,4.2-17.7,5.9c-4.9,1.4-10,2.3-14.9,3.4c-5.2,1.1-10.3,2.8-15.5,3.2
		c-7.5,0.6-15,0.3-22.5,0c-2.1-0.1-4.3-1.1-6.3-2C739.5,677,736.7,675.5,733.9,674.1z"/>
	<path d="M93.3,1060.3c-0.3-1.5-0.8-2.4-0.5-2.8c1-1.4,2-3,3.4-3.9c6.2-4.4,12.6-8.7,18.9-13c6.3-4.4,12.5-8.9,18.8-13.3
		c8.5-5.9,17.1-11.8,25.7-17.6c0.9-0.6,1.9-1.2,2.9-1.7c5.2-2.2,9.5-5.8,14.2-8.9c4.5-3,9.2-5.8,13.8-8.7c1.5-0.9,3.2-1.6,4.4-2.8
		c3.2-3,6.9-5.1,10.7-7.2c3.1-1.7,6-3.7,8.9-5.6c0.7-0.4,1.3-1,2-1.3c5.8-2.1,10.5-6.1,15.6-9.3c6.9-4.3,14-8.3,21-12.5
		c2.6-1.6,5.1-3.3,7.7-4.8c5.3-3.2,10.6-6.5,16.1-9.5c3.9-2.2,8-3.9,12-6c1.1-0.6,2-1.5,3-2.3c1.8-1.5,3.5-3.3,5.6-4.5
		c7.8-4.7,15.7-9.2,23.6-13.7c1.9-1.1,3.9-2.2,6-3.1c8.9-3.7,17.1-8.6,24.9-14.2c4.8-3.4,10.1-6.2,15.4-8.7c5.2-2.5,10-5.6,14.6-9.1
		c3.1-2.4,6-5.3,9.8-6.9c1.3,1.2,1.3,2.3,0.1,3.3c-4.6,3.5-9,7.2-13.8,10.3c-6.7,4.3-13.6,8.3-20.6,12.3
		c-9.2,5.2-18.4,10.3-27.6,15.4c-2.1,1.2-4.1,2.5-6.2,3.7c-3.3,1.9-6.7,3.6-10.1,5.4c-1.4,0.8-2.9,1.4-4.2,2.2
		c-11.3,6.9-22.7,13.7-34,20.7c-5.4,3.3-10.8,6.8-16.2,10.2c-3.9,2.4-7.6,5.3-12.3,6.3c-1.2,0.3-2.2,1.2-3.3,1.9
		c-3.7,2.5-7.4,5-11.1,7.6c-0.7,0.5-1.3,1-2,1.3c-10.1,4.7-18.6,11.8-28,17.5c-4.5,2.7-8.9,5.6-13.4,8.5c-3.4,2.2-6.8,4.2-10,6.6
		c-7.2,5.4-14.8,10-22.8,14c-1,0.5-2,1-2.8,1.8c-6.6,6.1-14.2,10.8-21.8,15.6c-7,4.5-13.8,9.3-20.5,14.1c-1.4,1-3,2-4.6,2.5
		c-3.7,1-6.6,3.1-9,6C96.4,1057.3,95.2,1058.3,93.3,1060.3z"/>
	<path d="M1227.8,410.6c-8.3,0-16.6,0-24.9,0c-3,0-6.1-0.2-9.1-0.3c-1.3,0-2.6,0-3.8,0c-7,0.3-14,0.5-21.1,0.8
		c-1.8,0.1-3.5,0.1-5.2,0.4c-8.5,1.5-16.9,3.6-25.4,4.7c-11.6,1.5-22.7,5.3-34.5,5.9c-0.6,0-1.2,0.3-1.9,0.6
		c-0.2,5.5-0.5,10.9-0.5,16.3c0,7.2-0.3,14.3-1.6,21.4c-1,5.4-0.8,11.1-1,16.7c-0.1,3.2,0,6.4-0.2,9.6c-0.6,9.7-1.2,19.4-1.9,29.2
		c-0.6,8.4-1.3,16.9-2.1,25.3c-0.5,5.1-0.8,10.2-1.9,15.2c-1.3,5.9-1,11.7-0.3,17.6c0.1,1.1,0.7,2.3-0.8,2.9
		c-1.1,0.5-2.2-0.3-2.5-2.1c-0.4-2.5-0.7-5.1-0.4-7.6c0.8-9.9,1.8-19.7,2.7-29.6c1-10.5,2.1-21,2.9-31.5c0.8-9.7,1.1-19.4,1.9-29.1
		c0.9-10.7,1.8-21.3,1.8-32.1c0-0.6-0.1-1.3,0.2-1.9c2.3-5.5,0.3-11-0.1-16.5c-0.2-2.8-0.9-3.3-3.7-3.1c-3.5,0.3-7,0.9-10.4,1.4
		c-3.8,0.6-7.5,1.3-11.3,1.7c-1.5,0.2-3.2,0.5-4.7-0.8c-0.4-1.9,0.2-3.4,2-4.2c4-1.9,8-4.1,12.2-5.5c5-1.6,10.1-1.6,14.8,1.2
		c2.2,1.3,4.5,1.7,6.9,1.4c1.9-0.2,3.9-0.3,5.7-0.8c7.6-2.2,15.3-3.3,23.1-4.3c1.4-0.2,2.8-0.5,4.2-0.8c5.8-1.3,11.5-2.6,17.3-3.8
		c2.8-0.6,5.7-0.3,8.5,0.7c3.9,1.4,6.5,1.1,10.2-0.5c-0.1-0.7-0.2-1.4-0.4-2.4c5.7-0.1,11.3-0.2,16.9-0.3c1.8,0,3.5,0.2,5.3-0.1
		c6.1-1,12.1-0.7,18.2-0.1c2.1,0.2,4.1,0.2,6.2,0.3c1.9,0.1,3.7,0.3,5.9,0.4c-0.5,0.7-0.8,1-1.3,1.7
		C1224.6,409.6,1226.2,410.1,1227.8,410.6z"/>
	<path d="M715.8,823c-1.7,0.5-3.4,0.1-5.1-0.4c-9-2.9-18.3-4.3-27.8-5c-5.9-0.4-11.7-1.6-17.6-2.2c-6.7-0.7-13.4-1.1-20.1-1.6
		c-1.7-0.1-3.5-0.5-5.2-0.6c-3.5-0.2-7-0.4-10.5-0.5c-1.4-0.1-2.9,0.2-4.3,0.1c-13.7-0.3-27.5-0.6-41.2-1c-2.2-0.1-4.5-0.3-6.7-0.4
		c-2.9-0.1-5.7-0.3-8.6-0.3c-16.1,0.3-32.3,1-48.4,0.7c-13-0.2-25.8,1.6-38.7,1.8c-10.2,0.1-20.4,1.5-30.6,0.9
		c-3.5-0.2-7,0.5-10.5,0.8c-0.6,0.1-1.3,0.3-1.9,0.3c-13.9,0.6-27.8,1.3-41.7,1.7c-5.9,0.1-11.8,0.1-17.7,1.1
		c-1.3,0.2-2.5,0.4-3.8,0.7c-2.9,0.9-5.3,0.1-7.4-2.3c1.3-1.6,3-1.7,4.7-1.7c8.1-0.2,16.3-0.4,24.4-0.6c2.1-0.1,4.1-0.2,6.2-0.4
		c2.5-0.2,5.1-0.5,7.6-0.5c13.1,0.1,26.2-0.9,39.2-1.8c9.4-0.6,18.8-0.7,28.3-1.1c9.7-0.4,19.5-1,29.2-1.3c11.5-0.4,23-0.6,34.5-0.8
		c13.6-0.2,27.2-0.3,40.7-0.4c3.4,0,6.7,0,10.1,0.1c16.6,0.5,33.2,0.8,49.8,1.6c6.8,0.3,13.7,1.3,20.5,2.1c1.3,0.1,2.5,0.5,3.8,0.5
		c9.2,0,18.1,1.8,27.1,3.3c6,0.9,11.8,2.5,17.9,2.7C715.5,818.4,716.1,819.6,715.8,823z"/>
	<path d="M842.6,222.3c2.2,0,4.4,0.1,6.6,0c6.5-0.5,13-1.5,19.5-1.7c9.6-0.4,19-2.7,28.5-3.2c2.5-0.1,5.1-0.1,7.7-0.1
		c1,0,2,0.1,2.9-0.1c7.4-2.1,14.9-1.3,22.4-1.8c4.1-0.3,8.3-0.6,12.4-1c0.8-0.1,1.6-0.4,2.4-0.4c7.8-0.1,15.6-2,23.4-1
		c1.1,0.1,2.2-0.1,3.3-0.2c4.9-0.1,9.9-0.2,14.8-0.3c6.5-0.2,13.1-0.6,19.6-0.9c8.6-0.4,17.2-0.8,25.9-0.3
		c14.5,0.7,29.1,0.7,43.6,0.7c6.9,0,13.7,0.7,20.6,1.3c3.8,0.3,7.6,0.8,11.4,1.3c1.7,0.2,3.5,0.3,4.4,2.5c-3,1.5-6-0.3-8.9-0.1
		c-3,0.2-6,0-9.3,0c0,1.5,0,3,0,5c-1-2.2-1.8-3.8-2.7-5.7c-4.4-0.3-8.9-0.8-13.3-1c-8.1-0.4-16.3-0.7-24.4-0.8
		c-23.7-0.4-47.3-0.5-71,0.7c-13.1,0.6-26.2,1.3-39.2,2.2c-8.8,0.6-17.5,1.6-26.3,2.4c-4.6,0.4-9.2,0.8-13.9,1.1
		c-5.3,0.3-10.5,0.4-15.8,0.9c-6.8,0.6-13.6,1.6-20.5,2.5c-4.3,0.5-8.5,1.3-12.8,1.7c-2,0.2-3.8,0.6-4.5,2.8c-2.5-2.1-2.5-2.1-5.3-2
		c-1.6,0-3.2,0.1-4.8,0.1c-1,0-1.9,0-2.9-0.3c-1.3-0.3-2.4-0.9-2.6-2.4c-0.1-1.3,0.5-2.2,1.5-2.8c1.5-0.9,3.1-1.8,4.7-2.4
		c6.6-2.5,13.1-5,19.7-7.4c2.2-0.8,4.6-1.2,6.9-1.7c5.1-1.3,10.3-2.4,15.3-4c5.5-1.9,11.1-2.9,16.9-2.5c2.5,0.2,5.1,0.1,7.7,0.2
		c0.5,0,1,0.6,1.4,1c-0.4,0.6-0.8,1.5-1.3,1.6c-1.4,0.4-2.8,0.6-4.2,0.6c-6.9-0.2-13.7,1.2-20.5,2.1c-5.4,0.7-10.6,2.3-15.7,4.2
		c-7.2,2.6-14.4,5.2-21.6,7.8c-0.9,0.3-1.7,0.7-2.5,1.1C842.5,221.9,842.5,222.1,842.6,222.3z"/>
	<path d="M934.4,1040c0.8-2.4,2.3-2.9,3.9-3c3.8-0.3,7.6-0.4,11.5-0.6c2.9-0.1,5.8-0.1,8.6-0.3c16.9-1.5,33.9-2.6,50.8-1.5
		c14.4,1,28.7-0.7,43.1,0.6c9.4,0.9,18.7,1.9,28.1,2.9c1.6,0.2,3.2,0.5,4.8,0.4c8.9-0.4,17.5,0.9,26.1,2.7c3.7,0.8,7.6,0.9,11.3,1.7
		c2.8,0.6,5.4,1.8,8,3c1.8,0.8,2,2.5,0.5,3.8c-1.1,0.9-2.4,1.7-3.7,2.1c-2.5,0.6-5,0.9-7.5,1.3c-12.1,1.6-24.2,1.9-36.3,2.7
		c-13.2,0.8-26.5,1.7-39.7,2.6c-1.3,0.1-2.6,0.3-3.8,0.1c-8.2-0.7-16.3,0.7-24.4,1.6c-3.8,0.4-7.6,0.8-11.4,1.2
		c-8.3,0.9-16.5,1.9-24.9,2.9c0.5-0.9,0.9-1.8,1.4-2.8c13.5-2.1,27-3.4,40.6-3.7c5.6-0.1,11.1-1,16.7-1.6
		c12.7-1.3,25.4-2.6,38.3-2.7c0.8,0,1.6-0.1,2.4,0.1c5.5,1.3,10.8,0.2,16.2-0.6c6.2-0.9,12.4-1.6,18.5-2.4c3.2-0.4,6.3-0.8,9.5-1.2
		c0.7-0.1,1.4-0.6,2.6-1.1c-2.7-2-5.4-2.3-7.9-2.8c-13-2.9-26.2-3.9-39.4-5c-25.8-2.2-51.7-2.8-77.6-2.3c-9.4,0.2-18.9,0.3-28.3,0.5
		c-6.7,0.2-13.4,0.5-20.1,0.9c-1.4,0.1-2.8,0.5-4.2,0.8C943.4,1041.3,939,1041.8,934.4,1040z"/>
	<path d="M1081.3,194.7c1.4-1.7,2.3-3.5,3.6-4.1c1.8-0.8,4-0.9,6.1-1c21.9-1,43.8-0.9,65.7-0.8c6.1,0,12.2,0.2,18.2,0
		c10.3-0.4,20.5,0.4,30.6,1.2c2.9,0.2,5.8-0.2,8.6,0.3c3,0.5,6.1,0.2,9.1,0.3c3,0.1,6.1,0.1,9.1,0.2c5.6,0.2,11.2,0.5,16.8,0.9
		c3.7,0.2,4,0.7,4.9,5.3c-2.5,0.7-4.9,2.4-7.8,0.4c-0.8-0.6-2.1-0.5-3.2-0.5c-7.7-0.2-15.3-0.5-23-0.6c-5.9-0.1-11.7-0.4-17.6-0.8
		c-5.9-0.5-11.8-0.3-17.6-0.5c-6.7-0.2-13.4-0.4-20.1-0.6c-1.7,0-3.4,0.2-4.6,0.2c-2.1,2.1,0.3,5.2-3,6.9c0-2.4,0-4.3,0-6.3
		c-3.3-0.7-23.3-0.6-29.9,0.1c-0.3,0.8-0.6,1.6-1,3c-0.7-1.1-1.3-1.9-2-3c-0.9-0.1-2-0.2-3.1-0.3c-5.8-0.1-11.5-0.2-17.3-0.1
		c-4.3,0.1-8.6,0.6-12.9,0.9C1087.8,196,1084.7,196.6,1081.3,194.7z M1161.8,191.7c3,0.5,6,1,9,0
		C1167.8,190.7,1164.8,191.2,1161.8,191.7z"/>
	<path d="M259.1,876.6c3.9-4.7,9.3-7,14.6-9.6c7.6-3.7,15.1-7.6,22.6-11.5c1.7-0.9,3.2-2.1,4.6-3.4c7.8-7.1,15.5-14.3,22.2-22.5
		c1.1-1.4,2-2.9,2.8-4.4c3-6.4,6.2-12.6,8.8-19.2c4.5-11.5,7.6-23.4,6.1-36c-0.8-6.7-3.2-12.7-7-18.2c-2.3-3.4-4.8-6.7-7.2-10.1
		c-1-1.4-0.7-2.8,0.9-4.1c2.5-2,4.9-4.1,7.5-6c5.3-4,9.6-8.9,14.1-13.6c0.7-0.7,1.3-1.4,1.7-2.3c5.2-10.4,10.5-20.8,14.1-32
		c3.8-11.9,6.5-24,7.9-36.5c1.6-14.5,2.1-29,1.5-43.5c-0.3-6.1-1-12.1-1.5-18.1c-0.1-0.8-0.2-1.6-0.1-2.4c0.3-1.5,1.3-2.1,3-1.7
		c0.2,0.6,0.5,1.2,0.5,1.8c0.4,8.5,0.7,16.9,1,25.4c0.2,6.2,0.2,12.5,0.3,18.7c0,0.5,0.1,1,0,1.4c-1.7,15.1-2.5,30.2-6.7,45
		c-2.7,9.6-5.6,19-9.9,28c-2.2,4.4-4.7,8.7-7.2,13c-0.9,1.5-2.1,2.8-3.4,4c-2.6,2.2-4.7,4.8-6.4,7.7c-2,3.3-4.6,6.1-7.6,8.6
		c-1.9,1.6-3.9,3.2-5.2,5.3c2.6,5.2,5.2,10.2,7.7,15.1c0.9,1.9,2,3.6,2.8,5.6c0.7,1.6,1.3,3.3,1.4,5c0.3,4.3,0.3,8.6,0.5,12.9
		c0.3,7-1.1,13.7-3.9,20c-0.5,1.2-1,2.4-1.3,3.6c-2.5,10.4-7.8,19.6-13.1,28.6c-4.3,7.3-10.4,13.4-17.2,18.5
		c-4.8,3.6-10.1,6.8-15.2,10.1c-1.9,1.2-3.8,2.3-5.8,3.4c-8.3,4.8-17,8.8-25.7,12.7C260.6,876.3,259.8,876.3,259.1,876.6
		L259.1,876.6z"/>
	<path d="M701.2,978.1c-0.8-2.1-2.3-2.1-3.5-1.1c-6.4,5.5-14.6,7-22,10.1c-8.4,3.5-16.9,6.9-25.2,10.4c-2.4,1-4.6,2.6-7,4
		c1.1,2,2.7,1.7,4,1.5c4.1-0.4,8.3-0.9,12.3-1.7c12.7-2.4,25.4-5.1,38.1-7.4c12.2-2.3,24.5-4.5,36.8-6.5c4.6-0.8,9.2-0.9,13.8-1.4
		c2.4-0.2,4.8-0.3,7.1-0.9c5.1-1.4,10.3-2.1,15.6-2.6c4.6-0.5,9.2-1.2,13.8-1.8c3.6-0.5,7.3-0.4,11.9-0.1c-1.6,1.2-2.7,1-3.6,1.3
		c-1.1,0.3-2.2,0.6-3.3,0.7c-9.6,1.3-19.3,2.5-28.9,4c-15.2,2.3-30.3,4.7-45.4,7.2c-6.6,1.1-13.2,2.6-19.7,3.8
		c-0.3,0.1-0.6,0.2-0.9,0.2c-9.9,0.2-19.1,3.7-28.7,5.5c-6.4,1.2-12.9,2.3-19.4,3.2c-2.3,0.3-4.8,0.1-7.2,0.1
		c-1.7,0-3.2-0.5-4.1-2.3c1.3-3.6,4-6,7.4-7.6c5.9-2.8,11.9-5.5,18-7.9c13.4-5.2,26.9-10,40.4-15.2c4.7-1.8,9.3-4,13.8-6.8
		c-0.8,0-1.6-0.1-2.4,0c-5.1,1.1-10.4,2-15.4,3.6c-5,1.6-9.8,3.9-14.6,5.9c-1.3,0.5-2.6,1.3-3.9,1.7c-0.4,0.1-1.3-0.2-1.6-0.6
		c-0.2-0.4-0.1-1.3,0.2-1.7c0.5-0.6,1.2-1.1,1.9-1.4c2.6-1.2,5.2-2.7,7.9-3.5c10.9-3.2,21.8-6.3,32.7-9.2c2.3-0.6,4.7-0.7,7.1-0.7
		c1.8,0,2.7,2,1.6,3.5c-0.6,0.9-1.6,1.6-2.5,2.1C718,970.5,709.9,974.2,701.2,978.1z"/>
	<path d="M536.9,760c-1.9,0.6-2.9-0.3-3.1-1.6c-0.5-2.2-0.9-4.4-0.8-6.6c0.2-5.7,0.8-11.5,1.2-17.2c0.2-2.4,0.4-4.8,0.4-7.2
		c-0.2-12-0.4-24-0.7-35.9c0-0.8-0.2-1.5-0.3-2.6c-0.8,0-1.4-0.2-1.9,0c-3.8,1.7-7.8,1.2-11.8,1.1c-1.1,0-2.1-0.6-3.2-0.9
		c-1.1-0.3-2.1-0.7-3.2-0.7c-2.5-0.1-3.5,0.9-3.5,3.4c0.1,2.1,0.1,4.1-0.9,6.1c-0.5,0.9-0.4,2.2-0.4,3.3c-0.1,9.4,0,18.9-0.3,28.3
		c-0.2,5.4-0.7,10.8-1.4,16.2c-0.8,5.7-0.6,11.5-0.3,17.2c0,0.6,0.4,1.2,0.7,2c1.6-0.2,3.2-0.4,4.8-0.4c6.1-0.3,12.1-0.7,18.2-0.9
		c4-0.1,8,0.2,11.6-2.2c0.3-0.2,0.9,0,1.8,0c0,1.1,0.2,2.2-0.1,3.2c-0.4,1.2-1.5,1.3-2.7,1.5c-2.3,0.3-4.6,0.9-7,0.5
		c-3.6,2.7-7.9,1.1-11.8,1.5c-1.3,0.1-2.6,0.2-3.8-0.1c-4.5-1-8.1,0.6-11.1,3.9c-0.4,0.4-1,0.7-1.8,1.3c-1.5-2.5-2.1-5-2.2-7.8
		c-0.5-9,0.7-17.9,1.2-26.8c0.6-8.9,0.9-17.9,1.2-26.8c0.1-1.6,0.2-3.4-0.5-4.7c-1.9-4.1-1.7-8.4-2-12.7c-0.3-4.6,1.3-6.4,6-6.8
		c3.8-0.4,7.6-0.6,11.5-0.7c3.5-0.1,7-0.5,10.3-1.8c1.6-0.6,3.3-1.4,5.5-0.3c0.2,0.9,0.6,2.1,0.6,3.3c0.1,14.9,0.3,29.7,0.3,44.6
		c0,4.1-0.6,8.3-0.7,12.4c-0.1,4,0.2,7.9,0.4,11.9C536.9,757.9,536.9,759,536.9,760z"/>
	<path d="M231.2,230.5c-0.4-0.3-0.9-0.4-1.2-0.8c-3.9-5.7-9.9-7.1-16.1-8.1c-3-0.5-6-0.5-9.1-0.8c-3.7-0.3-7.3-0.8-10.7-2.5
		c-3.4-1.7-4.6-3.7-3.7-7.4c1.2-5.1,2.5-10.3,4.5-15.1c2.9-6.9,6.3-13.6,9.7-20.3c4.4-8.7,8.1-17.7,11.6-26.8
		c1.6-4.2,2.4-8.6,2.6-13.1c0.3-7.6-4.3-12.9-11.8-13.5c-6.2-0.5-12.4-0.7-18.4,1.9c-5.1,2.2-10.4,4.1-15.5,6.3
		c-6.7,3-11.9,8-17,13.1c-2,1.9-3.1,4.1-0.7,6.7c0.8,0.9,0.7,1,0.1,4c-3.5,0.1-5.8-2.1-5.4-5.3c0.5-4.1,2.4-7.6,5.7-10.2
		c3.4-2.6,6.8-5.5,10.5-7.6c7.1-4,14.3-7.8,21.7-11.1c3.4-1.5,7.5-1.5,11.2-2.1c0.9-0.2,1.9,0,2.9-0.1c8.2-1.5,13.6,2.8,18.2,8.8
		c2.3,3,2.5,6.6,1.9,10.1c-0.8,4.5-1.6,9.2-3.1,13.5c-2.3,6.6-5.1,13.1-8.1,19.5c-3.7,8-7.9,15.7-11.7,23.6
		c-1.7,3.6-3.4,7.3-4.3,11.2c-2,9.4-0.8,11.2,8.8,12.8c2.3,0.4,4.8,0.1,7.2,0.3c2.7,0.2,5.4,0.5,8,1.2
		C225.2,220.3,230,223.7,231.2,230.5L231.2,230.5z"/>
	<path d="M1189.9,371.5c-8.1-2.2-16.5-1.2-24.7-1.3c-50.8-0.3-101.6-0.3-152.5-0.3c-10.5,0-21.1,0.3-31.6,0.9
		c-6.7,0.4-13.3,1.5-20,2.3c-1.3,0.2-2.9,1-3.8-0.8c-0.6-1.1,0.6-2.3,3-3c1.8-0.5,3.7-0.9,5.6-1.1c4.1-0.4,8.3-0.7,12.4-0.9
		c2.2-0.1,4.5,0.3,6.7,0.3c3.2,0,6.4-0.1,9.5-0.4c3.2-0.3,6.3-1.2,9.5-1c9.1,0.6,18.2-0.4,27.3-0.1c6.7,0.3,13.4,1,20.1,1.4
		c2.5,0.1,5.1,0,7.6-0.3c4-0.3,8-1.4,11.9-1.1c8,0.5,16-0.3,23.9-0.1c5,0.1,9.9,0.1,14.9,0.3c1.3,0,2.5,0.3,3.7,0.7
		c3.1,1,6.2,0.9,9.5,0.4c3.9-0.6,8-1.4,11.9-1.1c8.5,0.8,16.9-0.2,25.4,0.1c5.9,0.2,11.8,0.6,17.7,0.9c3.5,0.2,7,0.3,10.5,0.4
		c0.6,0,1.3-0.1,1.9-0.1c1.9,0.1,2.8,0.7,2.8,1.9C1193.1,370.9,1191.7,371.8,1189.9,371.5z"/>
	<path d="M565.9,765.4c1.2,0.3,2,0.3,2.7,0.6c4.2,1.9,8.4,1.7,12.5-0.2c2.2-1,4.2-2.3,6.3-3.5c1.5-0.9,2.2-2.2,2.2-4
		c-0.2-5.6-0.4-11.2-0.6-16.8c-0.1-4.2-0.3-8.3-0.3-12.5c0-9.4,0-18.9,0-28.3c0-3.8,0-7.7-0.1-11.5c0-0.6-0.3-1.2-0.5-2
		c-5.3-0.8-10.5,0.6-15.8,0.4c-5.1-0.2-10.2-0.6-15.1-1c-2.1,1.2-2.7,3-2.8,5c-0.1,1.8-0.1,3.5-0.1,5.3c0.3,17.7,0.6,35.5,0.9,53.2
		c0,1.9,0.3,3.8-0.7,6.1c-0.8-0.6-1.9-0.9-2.1-1.5c-0.5-1.3-0.6-2.8-0.7-4.2c-0.2-7.8-0.3-15.7-0.6-23.5c-0.3-8.5-0.5-16.9-1.1-25.4
		c-0.4-4.7,0.9-9.2,1.5-13.7c0.4-2.7,2.3-4.1,5.1-4.2c1.3,0,2.6-0.1,3.8-0.1c9.6,0.2,19.2-0.3,28.6-2.3c1.8-0.4,5.6,2,6.1,3.9
		c0.2,0.7-0.2,2.3-0.7,2.5c-2.9,1.1-2.5,3.4-2.5,5.6c-0.1,9.1-0.1,18.2-0.1,27.3c0,3.2-0.1,6.4,0,9.6c0.2,5.4,0.5,10.8,0.7,16.3
		c0.2,4.3,0.3,8.6,0.2,12.9c0,3-1.5,5.2-4.3,6.4c-5.3,2.3-10.7,4.1-16.6,4.5c-2.2,0.2-4.2-0.4-5.6-2.1
		C566,767.8,566.1,766.7,565.9,765.4z M571,686.3c-4.1-1.1-5.3-1-7.9,0.5C566.1,686.5,568.5,686.4,571,686.3z"/>
	<path d="M221,1250.7c5.8-1.9,11.8-2.4,17.9-2.7c9.1-0.4,18.2-0.9,27.3-1.4c0.3,0,0.6-0.1,1-0.1c10.7,0.5,21.3-0.8,32-0.6
		c4,0.1,8-0.4,12-0.5c9.2,0,18.5,0.2,27.7,0.2c7.5,0,15-0.3,22.5-0.3c10.5,0,21.1,0.3,31.6,0.4c7.5,0,15-0.2,22.5-0.2
		c3.7,0,7.3,0.3,11,0.4c1,0,1.9,0.1,2.9,0c6.4-0.9,12.7-0.6,19.1-0.1c4.4,0.3,8.9,0.3,13.4,0.1c8.3-0.5,16.6-0.6,24.9,0.2
		c4.4,0.4,8.9-0.2,13.4,0.1c3.8,0.2,7.6,1,11.3,1.6c0.4,0.1,0.7,0.6,1.3,1c-0.7,0.9-1.3,1.7-2.1,2.8c-7.9-2.3-15.9-1.9-23.9-2.1
		c-5.3-0.2-10.5-1-15.7-1.4c-2.5-0.2-5.1-0.5-7.6-0.2c-12.6,1.5-25.2,0.8-37.8,0.8c-2.9,0-5.9,0.4-8.6-0.2
		c-6.9-1.6-13.6-0.4-20.5-0.1c-11.3,0.4-22.7,0.4-34-0.8c-4.7-0.5-9.6-0.4-14.3-0.2c-12.1,0.6-24.3,1-36.4-0.3
		c-7.1-0.7-14,0.4-21,0.9c-8.8,0.7-17.5,0.8-26.3,0.1c-3.6-0.3-7.4-0.4-11,0.3c-10.3,1.9-20.7,2-31,2.5
		C221.9,1251,221.5,1250.8,221,1250.7z"/>
	<path d="M1179.8,807.6c0.3-1.6,0.3-2.3,0.6-3c2.7-7.8,5.8-15.5,9.3-23c3.6-7.9,6.1-16.2,5.1-25c-0.2-2.2-0.6-4.4-1.1-6.6
		c-1.2-5-4.5-8.2-9.4-9.1c-4.7-0.9-9.5-1.2-14.2-1.7c-2.4-0.2-4.8,0-7.2-0.2c-5.6-0.4-7-2.3-5.9-7.8c0.6-2.8,1.6-5.5,2.8-8.1
		c0.9-2.2,2.3-4.2,3.5-6.3c4.6-7.4,8.4-15.1,11.5-23.1c3.5-9.3,3.8-18.8-1-27.8c-4.3-8.2-11-12.7-20.5-12.2c-0.6,0-1.3-0.1-2.1-0.1
		c-0.3-0.8-1-1.8-0.8-2.5c0.2-0.8,1.1-1.8,1.9-1.9c1.8-0.4,3.8-0.8,5.6-0.5c2.8,0.6,5.5,1.6,8.1,2.7c2.4,1,4.2,2.8,5.1,5.4
		c0.9,2.7,2.7,4.7,4.8,6.5c4,3.6,4.9,8,4,13.1c-0.4,2.3-0.6,4.7-0.6,7.1c-0.1,6-1.5,11.7-3.8,17.2c-1.6,3.8-3.5,7.6-5.7,11
		c-3.2,5-5.8,10.3-8.1,15.7c-0.7,1.7-1.1,3.6-1.5,5.1c1.5,2.4,3.5,2.3,5.4,2.4c4.5,0.2,8.9,0.4,13.4,0.8c2.4,0.2,4.7,0.8,7,1.3
		c0.6,0.1,1.3,0.4,1.8,0.7c4.3,3.6,8.7,6.9,9.9,12.9c2.1,10.3,0.4,20-3.5,29.5c-3.2,7.7-6.7,15.2-9.9,22.8
		C1183.3,804.9,1182,805.9,1179.8,807.6z M1186.7,738.9c-5.8-2.3-10.6-1.9-15.4-0.8C1176.1,738,1180.7,740.2,1186.7,738.9z"/>
	<path d="M30.5,752.8c0.4,5.1,4.3,7.7,8,10.1c1.2,0.8,3.1,0.3,4.7,0.6c0.7,0.1,1.8,0.5,1.9,1c0.1,0.8-0.1,1.9-0.7,2.5
		c-0.5,0.7-1.5,1.2-2.4,1.3c-2.8,0.5-5.4-0.1-7.6-2c-3.3-2.9-5.1-6.3-5.4-10.8c-0.4-5.9-1-11.7-1.1-17.7c-0.1-5.3-0.7-10.5-1.5-15.7
		c-0.7-4.5-3.1-8.3-6.4-11.5c-4.8-4.7-9.5-9.5-14.3-14.2c-2.6-2.6-4-5.6-4.7-9.2c-1.6-8-1.3-15.9,0.6-23.8
		c2.6-10.7,6.4-21.1,10.2-31.5c1-2.7,2.3-5.3,1.1-8.3c-0.2-0.6,0.1-1.6,0.4-2.3c1.5-3.5,3-7,5.6-10.3c1,0.3,2,0.6,3.1,0.9
		c0,0.7,0.1,1.2,0,1.6c-4.4,12.8-8.9,25.6-13.4,38.5c-2.9,8.5-5.1,17.1-5.3,26.2c-0.2,5,0.7,9.5,4.3,13.3c2.9,3,5.5,6.2,8.3,9.2
		c2.9,3.2,6,6.2,8.7,9.5c1.6,2,3.8,4,2.8,7.2c-0.2,0.6,0.3,1.6,0.7,2.2c2.2,3,2.7,6.5,2.9,10c0.3,6.5,0.3,13.1,0.3,19.6
		C31.3,750.5,30.7,751.7,30.5,752.8c0.5-2.7-0.1-5.2-1.5-7.7C29,747.8,29.3,750.4,30.5,752.8z"/>
	<path d="M966.5,69.3c-1.7-0.8-1.5-2.2-1.7-3.4c-0.7-7.5-1.2-15-2-22.4c-0.9-7.8-2-15.5-3.2-24.1c-1.1,1.2-1.9,1.7-2.2,2.4
		c-1.7,4.2-3,8.4-4.8,12.5c-1.7,3.8-3.7,7.4-5.6,11.1c-0.5,1-1.3,1.8-2.1,2.6c-1.3,1.1-2.5,1-3.9-0.1c-2-1.7-3.6-3.7-4.4-6.2
		c-1.1-3.2-2-6.4-3.1-9.6c-0.4-1.3-0.4-2.9-2.3-3.7c-0.1,1.2-0.4,2.2-0.3,3.3c0.5,9.4,1.1,18.8,1.6,28.2c0.1,2.1,0.3,4.1,0.3,6.2
		c0,1.6-0.1,3.2-1.6,4.5c-0.5-0.3-1.1-0.6-1.4-1.1c-0.3-0.7-0.5-1.5-0.5-2.3c-0.7-16.3-1.4-32.6-2-48.9c-0.1-1.6,0.2-3.2,0.5-4.7
		c0.1-0.5,0.9-1,1.4-1.1c0.5-0.1,1.3,0.3,1.6,0.8c0.7,1.3,1.1,2.6,1.6,4c2.6,7.9,5.3,15.8,7.9,23.6c0.4,1.3,0.7,2.8,2.4,3.7
		c0.6-0.6,1.5-1.1,1.9-1.8c3.9-7.7,8.7-15,10.9-23.4c0.3-1.2,0.9-2.4,1.7-3.4c1.1-1.6,3.4-1.5,4.4,0.2c0.7,1.2,1.2,2.7,1.4,4
		c0.9,6.3,1.7,12.7,2.5,19c0.8,6.8,1.6,13.6,2.2,20.5c0.2,2.7,0,5.4-0.2,8.1C967.4,68.4,966.8,68.8,966.5,69.3z"/>
	<path d="M134.5,1260.2c-3.5,0-6.5,0-9.6,0c0-0.8,0.1-1.3,0.1-2.1c1.2-0.2,2.4-0.4,3.6-0.7c3.6-0.7,4.2-1.2,4.8-4.9
		c0.3-1.4,0.4-2.8,0.6-4.5c1.1-0.4,2.2-0.8,3.3-1.2c2.4,2.8,0.2,6.2,2.1,9.2c0.9,0,2,0.1,3.1,0c6.9-0.4,13.7-0.7,20.6-1.2
		c3.8-0.3,7.6-1,11.4-1.4c8.6-1,17.1-2.6,25.7-2.5c1,0,2.1,0.2,3.1,1.1c-1.8,0.2-3.6,0.5-5.4,0.7c-1.7,0.2-3.5,0.4-5.2,0.6
		c-3.5,0.3-7,0.6-10.5,1c-1,0.1-1.9,0.3-2.9,0.3c-10.1-0.1-20,2-30,3.3c-2.2,0.3-4.5,0.2-6.7,0.4c-2.9,0.3-3.6,0.9-3.7,3.9
		c-0.1,3.4-0.3,6.7,0.1,10.1c0.7,6.3,1.7,12.6,2.6,19c0.5,3.5,1.2,6.9,1.7,10.4c0.1,0.9,0.3,2,0.1,2.9c-1.1,4.6-0.1,8.9,1.1,13.2
		c1.5,5.4,1,10.8,0.1,16.2c-0.4,2.3-1.6,3.4-4.2,3.1c-2-5.9-1.8-12.1-3.1-18.4c2.8-1.5,3.4-4.1,2.9-6.9c-1-6.3-1.2-12.6-2.6-18.9
		c-2-9-3.1-18.3-3.1-27.6C134.5,1263.7,134.5,1262.3,134.5,1260.2z"/>
	<path d="M397.5,589.9c1.7-0.3,3.3-0.7,5-0.9c1.4-0.1,2.9-0.1,4.3,0.1c5.1,0.8,10.2,0.3,15.2-0.7c2.2-0.4,4.4-0.5,6.7-0.5
		c5.4,0,10.9,0.1,16.3,0.1c2.8,0,5.4,0.8,7.7,2.2c3,1.9,3.1,4.9,0.2,7c-1.4,1-3,1.9-4.6,2.5c-6.4,2.4-12.9,4.6-19.4,6.9
		c-1.9,0.7-4,0.7-5.6,2.5c3.8,1.2,5.9,1.1,18-0.5c5.8-0.8,11.6-1.3,17.7-2c-0.5,2.4-1.7,3.5-3.5,3.9c-3.3,0.6-6.6,1.5-9.9,1.7
		c-9.9,0.7-19.8,1.2-29.7,1.7c-2.4,0.1-4.8,0.2-6.5-2.4c1-2.5,3.1-3.6,5.3-4.3c4.2-1.5,8.5-2.7,12.8-4.1c6.1-2,12.1-4,18.1-6.2
		c1.6-0.6,3.3-1.2,4.2-3.1c-1.8-2-4.3-2.4-6.6-2.4c-5.4-0.2-10.9-0.5-16.2,0.8c-1.8,0.5-3.8,0.5-5.7,0.5c-6.4,0.1-12.8,0.2-19.2,0.2
		c-1,0-2,0.1-2.8-0.2c-0.8-0.3-1.3-1.1-2-1.7C397.4,590.7,397.4,590.3,397.5,589.9z"/>
	<path d="M715.7,491.3c1.3-0.7,2.1-1.1,2.9-1.6c3.2-1.8,6.7-3,9.1-6c1-1.2,2.7-1.7,4-2.6c2.8-2.1,5.7-4.1,8.3-6.5
		c2.6-2.4,2.9-5.3,0.8-8.2c-1.4-1.9-3.2-3.7-5.1-4.9c-4.6-2.9-9.4-5.3-14.1-8c-2.1-1.2-4.2-2.4-6.2-3.6c-4.7-2.8-4.8-11.7,0.3-14.8
		c1-0.6,1.9-1.3,2.9-1.7c5.1-1.8,10.2-3.6,15.4-5.3c1.2-0.4,2.5-0.4,3.7-0.9c6-2.2,12.3-1.3,18.5-1.6c1.6-0.1,3.2,0.4,4.2,1.8
		c0.8,1,1.1,2.2,0.2,3.1c-2.2,2.3-4.7,4.3-8.2,4.2c-0.2,0-0.5-0.4-0.9-0.6c0.5-1,0.9-2.1,1.5-3.2c-0.6-0.4-0.9-0.9-1.3-0.9
		c-5-0.4-9.9,0.2-14.7,1.3c-2.8,0.6-5.5,1.1-8.5,1c-2.1-0.1-4.3,0.9-6.3,1.8c-1.7,0.8-3.2,2.1-4.7,3.3c-2.8,2.4-2.9,6.2-0.1,8.8
		c2.4,2.2,5.3,3.6,8.3,4.6c6.4,2.2,12.1,5.6,17.2,10.2c4.8,4.4,5.2,10.3,0.8,15.2c-3.3,3.8-7.6,6.4-11.8,8.9
		c-3.5,2.2-7.3,4-10.9,5.9C719.5,491.8,718.1,492.9,715.7,491.3z"/>
	<path d="M236.4,752c-0.7-2.7,0.1-4.9,1.2-6.8c2.2-3.7,4.4-7.4,7-10.8c4.8-6.2,9.9-12.2,14.7-18.4c1.8-2.3,3.2-4.7,4.7-7.2
		c0.6-1.1,1-2.4,1.1-3.6c0.4-3.6-0.8-5-4.4-5.4c-1.7-0.2-3.5-0.2-5.3-0.3c-1.7-0.1-3.5-0.1-4.9-1.7c-0.1-2.4,1.6-3.7,3.2-5
		c7.3-5.7,14.6-11.5,22.6-16.1c6.5-3.7,11-9.1,15.2-15c0.9-1.3,1.7-2.7,0.6-4.7c-4.1,1.3-6,5.4-9.7,7.4c-1-1.4-1.5-2.7-0.2-4.2
		c2.8-3.1,5.8-6,9.8-7.5c2.6-1,3.9-0.2,4.2,2.7c0.4,3.9-0.9,7.3-3.2,10.3c-4.7,6.2-10.6,11-17,15.3c-5.2,3.5-10.4,6.9-15.5,10.4
		c-2.4,1.7-2.4,1.7-2.6,5.2c3.7,0.5,7,1.5,9.7,4.4c1.9,2.1,2.2,4.2,1.1,6.5c-0.9,1.9-2.1,3.6-3.3,5.2c-6.3,8.3-12.6,16.5-18.9,24.8
		c-2.8,3.7-5.4,7.5-6.2,12.3C240,752.2,239.5,752.3,236.4,752z"/>
	<path d="M661,715.8c-0.8-1.5-0.9-2.7,0.5-3.2c1.3-0.5,2.8-0.7,4.2-0.9c9.1-0.9,18.1-1.7,27.2-2.5c5.4-0.5,10.8-1.1,16.2-1.4
		c7.2-0.5,14.3-0.7,21.5-1.1c5.4-0.3,10.8-0.7,16.2-1c8.8-0.5,17.5-1.1,26.3-1.4c9.4-0.3,18.9-0.2,28.3-0.2c0.7,0,1.5,0.4,2.1,0.8
		c1.2,0.9,0.9,2.8-0.5,3c-1.9,0.3-3.8,0.3-5.7,0.2c-2.1-0.1-4.1-0.6-6.1-0.6c-7.3,0.1-14.7,0.3-22,0.5c-0.6,0-1.3,0.1-1.9,0
		c-6.4-1-12.7,0.4-19.1,0.6c-2.9,0.1-5.7,0.4-8.6,0.6c-6.4,0.4-12.7,0.8-19.1,1.2c-7.2,0.5-14.3,1-21.5,1.5c-4,0.3-7.9,0.8-11.9,1.2
		c-2.1,0.2-4.1,0.6-6.2,0.9c-1.1,0.2-2.2,0.3-3.3,0.5c-1.5,0.4-3,1.3-4.5,1.4C669.1,716.2,664.9,715.9,661,715.8z"/>
	<path d="M775.4,1098.3c-0.2-2.4-1.9-2.7-3.7-2.7c-4.2-0.1-8.3-0.2-12.5-0.4c-2.7-0.1-5.4-0.4-8.1-0.6c-3.4-0.3-6.6-0.2-10,0.3
		c-8.4,1.2-16.8,1.9-25.3,0.9c-1.4-0.2-2.8,0-4.4,0.5c0.6,0.2,1.3,0.4,1.6,0.5c-6.5,0.6-13.3,1.3-20.1,2c-0.3,0-0.6,0.1-0.9,0.1
		c-7,0.4-14,0.8-21.1,1.1c-2.8,0.1-4.1-0.5-3.9-1.6c0.3-1.8,2-1.9,3.3-2.2c7-1.7,14.1-2.9,21.3-3.2c7.3-0.4,14.6-1.2,22-1.5
		c6.4-0.3,12.8-0.3,19.2-0.5c1.9,0,3.9,0.2,5.7,0c5.9-0.9,11.8-0.1,17.6,0.8c4.9,0.7,9.8,1.3,14.7,2.1c1.5,0.2,3.1,0.8,4.5,1.5
		c1.3,0.8,1.4,2.1,0.2,3.2L775.4,1098.3z"/>
	<path d="M1044.2,664.1c0.2-0.7,0.2-1.6,0.6-2c1.6-1.8,3.2-3.7,5.1-5c5.7-4.1,11.5-8,17.4-11.9c2.8-1.8,6.1-2.8,9.5-2.7
		c6,0.1,11.8,4.6,13.5,10.4c0.4,1.4,0.9,2.7,1.6,4c1.5,2.6,2.8,5.3,3.6,8.3c0.6,2.2,2.1,4.2,3.6,6.1c2.1,2.8,4.4,5.5,6.6,8.2
		c1.1,1.3,2.3,2.7,3.5,3.9c3,2.9,6.5,4.5,10.7,4.7c9.5,0.6,17.9-2.5,25.9-7.3c1.1-0.7,2.1-1.5,3.2-2.1c0.6-0.3,1.4-0.3,2.7-0.5
		c-0.4,1.2-0.4,2.1-0.8,2.5c-1.2,1.2-2.5,2.5-4.1,3.3c-4.2,2.3-8.4,4.7-12.8,6.5c-8.5,3.4-16.9,2.6-24.9-1.9
		c-2.4-1.4-4.4-3.2-5.6-5.7c-0.1-0.1-0.1-0.3-0.2-0.4c-5.2-6.3-8.5-13.8-12-21.1c-2-4.3-5.2-8-8-11.9c-1.8-2.4-4.3-3.2-7.2-2.6
		c-5,1-9.9,2.5-14.2,5.5c-4.2,2.9-8.1,6.2-12.2,9.3c-1.5,1.1-3,2.2-4.5,3.3C1044.8,664.5,1044.5,664.3,1044.2,664.1z"/>
	<path d="M170.1,441.3c-1.3-0.3-2.7-0.5-4-0.9c-4.2-1.5-8.4-3.1-12.5-4.8c-1.6-0.6-3.2-1.5-4.7-2.4c-7.2-4-8.2-11.2-6.1-16.9
		c1.5-4,3.3-8,5.1-11.9c2.4-5,5-10,7.4-15c1-2,2.5-4.3,1.2-6.3c-1.4-2.3-4.1-0.9-6.2-0.7c-3.7,0.3-7.3,0.8-10.9,1.5
		c-1.9,0.3-3.7,0.9-5.5,1.6c-4.6,1.7-9.3,3.4-13.9,5.3c-4.1,1.7-8.3,2-12.7,2.2c-0.3,0-0.6,0-1,0c-1.6-0.2-3.4,0-4.1-1.8
		c-0.3-0.7,0.1-1.9,0.7-2.5c1.4-1.6,4.1-2,5.7-1.1c0.3,0.1,0.6,0.3,0.8,0.5c1.8,2.3,4.2,2.1,6.5,1.1c2.4-1,4.7-2,6.8-3.3
		c4-2.5,8.2-4.2,12.9-4.6c1.7-0.2,3.4-0.7,5-1.4c4.9-2,10-2,15.1-1.6c3.2,0.3,4.4,1.8,4.4,5.1c0,3.3-1,6.3-2.5,9.2
		c-3.2,6.4-6.5,12.8-9.6,19.3c-1.1,2.3-1.9,4.7-2.4,7.2c-0.9,4.2,0.8,7.5,4.3,9.9c1.3,0.9,2.8,1.5,4.2,2.3c1.6,1,4.1,0.8,4.6,3.5
		c0.1,0.6,1.9,1,2.9,1.4c3,1.1,5.9,2.2,8.6,4C170.3,440.6,170.2,440.9,170.1,441.3z"/>
	<path d="M1128,789.2c-0.9,2.3-2.8,3.3-4.6,4.2c-7.3,3.7-15,6.2-22.9,8.4c-2.1,0.6-4.4,0.6-6.6,0.5c-2.9-0.1-4.6-1.5-4.7-4.4
		c-0.1-2.5,0.3-5.1,1-7.5c2-6.9,4.4-13.7,6.4-20.6c1.2-4.1,2.2-8.3,3-12.6c1.3-7-0.7-8.8-7.3-6.8c-4.4,1.3-9,2.4-11.9,6.6
		c-1.4,2-3.7,1.2-6.1,1.2c0.1-1.5,0.2-2.9,0.2-4.1c5.4-4.1,11.1-6.7,17.4-8.3c2-0.5,4.1-0.8,6.1-0.6c3.4,0.2,4.4,1.6,4.4,4.9
		c0.2,12-2.8,23.4-7.2,34.5c-1.2,3.1-2.3,6.3-3,9.6c-0.8,3.8,0.7,5.5,4.5,5.4c3.2-0.1,6-0.9,9-2.6c6-3.3,12.4-5.9,18.6-8.7
		C1125.7,787.8,1126.9,787.6,1128,789.2z"/>
	<path d="M1078.2,1084.4c-2.1,1-4,1.1-5.8,0.8c-14.4-2-28.8-4.1-43.2-5.9c-8.6-1-17.2-1.4-25.8-2.3c-10.2-1.1-20.4-1.8-30.4-4.1
		c-2.3-0.5-4.6-1.3-6.8-2.1c-1.3-0.5-2.6-1.4-2.5-3.1c0.1-1.7,1.4-2.4,2.7-3.1c1.3-0.7,1.3-0.6,4.3,0.2c-1.3,0.9-2.3,1.8-3.8,2.9
		c1,0.7,1.6,1.6,2.4,1.7c3.3,0.7,6.6,1.2,9.9,1.6c4.6,0.6,9.2,1,13.8,1.5c4.4,0.5,8.9,1,13.3,1.5c11.1,1.1,22.3,2.2,33.4,3.4
		c1.6,0.2,3.2,0.5,4.7,0.7c9.1,1.5,18.3,2.9,27.4,4.4C1073.8,1082.9,1075.9,1082.9,1078.2,1084.4z"/>
	<path d="M957.5,480.4c0.9-2,1.6-3.6,3.7-4.2c2.1-0.6,4.2-0.4,6,0.7c1.6,1,3,2.3,4.6,3.4c2.8,2,3.6,4.8,3.2,8c-0.3,2-0.7,4.1-1.5,6
		c-2.2,4.9-4.4,9.9-7.8,14.2c-3.7,4.7-5.2,10.2-5.5,16c-0.1,2.6,0.2,4.8,3.1,5.8c1.1,0.4,2,1.2,1.5,2.6c-0.5,1.5-1.9,2.1-3.5,1.6
		c-2.8-0.8-5.2-3.7-5.3-6.7c-0.1-4,0.7-8,2.3-11.7c1.7-3.8,3.6-7.5,5.4-11.2c1.9-3.9,3.8-7.7,5.7-11.6c1.2-2.6,1.2-5.3,0.6-8
		c-0.7-3.3-2.3-4.5-5.7-4.7c-1.6-0.1-3.2,0.1-4.8,0.1C958.9,480.9,958.4,480.6,957.5,480.4z"/>
	<path d="M1127.6,888.7c1.2-1.4,2.5-2.2,4.1-2.2c0.6,0,1.3-0.1,1.9,0c9.4,0.4,18.8,0.8,28.2,1.3c4.8,0.3,9.5,0.9,14.3,1.3
		c0.9,0.1,1.9,0,2.9-0.1c5.6-0.4,11.2-0.7,16.7-1.2c3.2-0.3,6.3-0.7,9.5-1.2c2.4-0.4,4.3-1.3,6.3-3c3-2.5,6.8-4.3,11-2.8
		c0.7,2-0.5,2.9-1.7,3.6c-3.9,2.2-7.9,4.6-12.3,5c-7.6,0.8-15.2,2.3-22.9,1.4c-8.3-1-16.5-0.7-24.8-0.5c-8.9,0.2-17.9-0.5-26.8-0.9
		C1131.9,889.4,1129.8,889,1127.6,888.7z"/>
	<path d="M49,284.2c2,1.1,3.5,0.4,4.9-0.7c1-0.8,1.8-1.8,2.9-2.5c0.6-0.4,1.6-0.1,2.6-0.1c-1.9,5.4-5.5,8.3-9.6,8
		c-0.9-0.1-1.9-0.3-2.8-0.7c-2.9-1.4-3.4-4.3-0.8-6.1c6-4.1,11.7-8.7,19.2-10.4c9.9-2.2,19.7-5.4,29.8-8.2c0.1,0.9,0.2,1.9,0.3,3.3
		c-2.1,0.8-4.3,1.8-6.6,2.4c-5.9,1.6-11.7,3.1-17.7,4.4c-6.3,1.4-12.1,4.2-17.9,6.6C51.6,281.2,49.8,282.1,49,284.2z"/>
	<path d="M658.2,688.9c11.7-0.6,22.7-1.2,33.7-1.8c4.8-0.2,9.6-0.3,14.4-0.4c0.6,0,1.3,0,1.9,0.1c1.3,0.2,2.5,0.6,2.6,2.3
		c0,1.2-0.9,2-2.8,1.9c-3.7-0.2-7.3-0.6-10.9-0.8c-1.6-0.1-3.2-0.3-4.8-0.2c-8.3,0.5-16.5,1.2-24.8,1.8c-6.2,0.4-12.4,0.9-18.6,1.3
		c-1.1,0.1-2.3,0.1-3.3-0.1c-0.6-0.2-1.1-1-1.3-1.7c-0.1-0.4,0.5-1.3,0.9-1.4c1.5-0.4,3.1-0.8,4.7-0.9
		C652.8,688.8,655.9,688.9,658.2,688.9z"/>
	<path d="M1121.1,965.4c1.7-1.5,3.6-1.3,5.5-1.2c4.8,0.1,9.6,0.5,14.3,0.5c8.8-0.1,17.5-0.5,26.3-0.5c6.4,0,12.8,0.6,19.1,0.5
		c15.5-0.2,30.9-0.7,46.4-1.1c1.8-0.1,3.5,0.1,4.7,1.8c-1,1.8-2.7,1.6-4.2,1.6c-2.9,0-5.7-0.4-8.6-0.2c-7,0.3-14,0.1-21.1-0.4
		c-4.8-0.3-9.6-0.2-14.4-0.2c-6.5,0-13.1,0.1-19.6,0.2c-0.5,0-1,0-1.4,0c-13.4-1.8-26.8-0.4-40.2-0.8
		C1125.8,965.4,1123.4,965.4,1121.1,965.4z"/>
	<path d="M1126.7,1098.9c-1.1,2-3.1,2.4-4.9,2.9c-8,2.2-15.8,4.8-24.2,4.6c-0.8-1.7,0.3-2.5,1.3-2.8c2-0.6,4-1,6.1-1.4
		c4.9-1,9.7-1.8,14.6-2.8c0.8-0.2,1.6-0.8,3-1.4c-1.5-0.9-2.3-1.6-3.2-1.9c-6.2-1.7-12.3-3.3-18.5-4.8c-6.1-1.5-12.2-2.7-18.2-4.1
		c-1-0.2-1.9-0.7-3.6-1.3c3.3-1.3,6.1-1.1,8.7-0.5c11.2,2.6,22.6,4.5,33.2,9C1123.2,1095.4,1125.8,1096.1,1126.7,1098.9z"/>
	<path d="M432.3,704.1c0.2-1.5,0.4-2.6,0.7-4c13.2-3.1,26.7-4.3,40.3-4.1c1,0,2,0.6,3,1c-0.5,2.2-2.1,2.2-3.5,2.3
		c-4.8,0.2-9.6,0.3-14.4,0.5c-2.7,0.1-5.4,0.1-8.4,1.6c0.9,0.7,1.6,1.2,2.3,1.7c0.8,0.5,1.5,1,2.9,1.8c-1.5,0.7-2.5,1.5-3.4,1.4
		c-5.3-0.3-10.5-0.7-15.8-1.2C435,705,434,704.5,432.3,704.1z"/>
	<path d="M259,876.5c-8,4.1-16.7,6.1-25.6,7.6c-9.5,1.6-19.1,1.7-28.6-0.1c-5.8-1.1-10.9-3.4-15.5-7.1c-0.5-0.4-0.9-0.9-1.3-1.4
		c-0.2-0.2-0.2-0.6-0.4-1.2c0.6-0.5,1.2-1.1,2-1.8c0.9,0.7,1.7,1.2,2.4,1.8c7.9,6.6,17,9.2,27.2,7.7c1.1-0.2,2.2-0.3,3.3-0.3
		c7.8,0.3,15.2-1.5,22.7-3.1C249.8,877.5,254.5,877.2,259,876.5L259,876.5z"/>
	<path d="M1077.9,206.1c-2-1.4-2.2-3.3-2-5.2c0.2-3,0.5-6,1-9c0.6-3.6,0.9-7.2,0.4-10.9c-0.9-6.3-1.2-12.7-0.7-19.1
		c0.3-4.1,0.1-8.3,0.2-12.4c0.1-2.7,0.1-5.4,0.4-8.1c0.4-3,0.9-6-0.2-9c-0.6-1.8,0-3.4,2.3-4.2c0.2,0.7,0.6,1.3,0.6,1.8
		c-0.1,8.1-0.2,16.2-0.3,24.4c-0.2,13.9-0.3,27.7-0.4,41.6c0,2.2,0.2,4.5,0.2,6.7C1079.4,203.8,1079.6,205.1,1077.9,206.1z"/>
	<path d="M775.3,1098.2c0.1,0.8,0.3,1.5,0.5,2.7c-3.3,3.5-8.9,3.9-13,7.5c4.4,1.1,7.8-1.7,11.5-1.4c0.6,1.8-0.1,2.8-1.4,3.3
		c-1.6,0.6-3.3,1.2-5,1.5c-5,0.9-10,1.5-14.8,0.5c-0.9-1.8-0.3-3,0.8-3.7c1.4-1,3-1.8,4.6-2.5c4-1.6,8.1-3,12.1-4.5
		c2.4-1,2.4-1,3.2-4c0.6,0.3,1.1,0.5,1.7,0.8L775.3,1098.2z"/>
	<path d="M1198,1260.3c2.8-1.7,5.7-1.7,8.5-1.3c10.6,1.4,21.1,3.1,31.7,4.6c0.5,0.1,1,0.2,1.3,0.5c0.4,0.4,0.7,1,0.8,1.6
		c0,0.3-0.5,0.9-0.8,1.1c-0.6,0.2-1.2,0.3-1.9,0.3c-1.3-0.1-2.5-0.2-3.8-0.5c-10.5-1.8-21.1-3.6-31.6-5.4
		C1200.8,1260.9,1199.4,1260.6,1198,1260.3z"/>
	<path d="M1191.8,1259.1c-4.6,0.5-37.9-2.5-42.3-3.7c4.5-1.4,7.8-1.7,12.2-1.2c5.4,0.5,10.8,1,16.2,1.6c3.7,0.4,7.3,0.9,10.9,1.1
		C1190.5,1256.9,1190.5,1258.7,1191.8,1259.1z"/>
	<path d="M1101.8,1253.5c4.9-2.3,21.5-2,41.8-0.1c-1.7,0.5-2.5,0.9-3.4,1c-3,0.2-6.1,0.5-9.1,0.5c-8.8-0.1-17.6-0.4-26.4-0.7
		C1103.7,1254.2,1102.7,1253.8,1101.8,1253.5z"/>
	<path d="M1019.6,886.5c-13.1,3-26.4,2.3-39.6,2.2c1.7-1.7,3.6-2.2,5.7-2.2C997,886.5,1008.3,886.5,1019.6,886.5z"/>
	<path d="M1121.2,886.4c-5.9,1.9-12,2.3-18,2.2c-4.1-0.1-8.3,0-12.4,0c-3.2,0-6.4,0-9.6-0.1c-0.7,0-1.4-0.4-2.9-0.9
		c1.4-0.7,2.1-1.2,2.8-1.3c2.2-0.2,4.4-0.5,6.7-0.4c10.4,0.1,20.7,0.3,31.1,0.5C1119.6,886.4,1120.4,886.4,1121.2,886.4z"/>
	<path d="M625.4,324.5c-4,1.7-8,2.9-12.4,2.9c-9.7-0.1-19.5,0.1-29.2,0.1c-0.9,0-1.8-0.1-2.7-0.4
		C595.8,324.4,610.6,324.8,625.4,324.5L625.4,324.5z"/>
	<path d="M1029.4,887.3c0.7-0.3,1.4-0.7,2.1-0.8c1.6-0.2,3.2-0.4,4.8-0.4c10.2,0,20.4,0,30.6,0.1c0.6,0,1.2,0.1,1.8,0.5
		c-5,0.9-10,1.7-15,1.7c-3.7,0-7.3,0-11,0.1c-4.4,0.1-8.8,0.2-13.2-0.1C1029.5,888.1,1029.5,887.7,1029.4,887.3z"/>
	<path d="M869.1,887.4c-6.8,1.7-12.5,2.4-18.5,1.9c-5.1-0.4-10.2,0.2-15.3,0.3c-1.5,0-3.1-0.2-4.8-1c0.6-0.4,1.1-1,1.7-1
		c1.7-0.3,3.5-0.4,5.2-0.4c9.3,0,18.5,0,27.8,0.1C866.2,887.2,867.2,887.3,869.1,887.4z"/>
	<path d="M638.3,326.1c15.9-3.1,31-1.4,45.9-2.2c-4.4,0.8-8.7,1.7-13.1,2.3c-2.7,0.4-5.4,0.3-8.1,0.4c-5.1,0.2-10.2,0.2-15.3,0.4
		C644.9,327.1,642.1,327,638.3,326.1z"/>
	<path d="M918.7,887c-12.4,2.7-25,2.4-37.5,2.4c-0.7,0-1.4-0.4-3.1-0.8c3.6-1.3,6.3-2,9.2-1.9c8.7,0.1,17.5,0.2,26.2,0.4
		C915.2,887.1,917,887,918.7,887z"/>
	<path d="M967.7,887.3c-5.8,1.6-11.7,2.8-17.8,1.9c-2-0.3-4.1-0.1-6.2,0.1c-4.8,0.6-9.5-0.1-14.6-0.3c3-1.8,5.3-2.4,9-2.3
		c9.4,0.1,18.8,0.3,28.2,0.5C966.8,887.2,967.2,887.2,967.7,887.3z"/>
	<path d="M732.4,324.1c-3.8,0.7-7.7,0.3-11.3,2.1c-0.5,0.3-1.3,0.1-1.9,0.1c-7.8,0-15.6,0-23.4-0.1c-0.6,0-1.1-0.1-1.7-0.4
		C706.9,323,719.7,324,732.4,324.1z"/>
	<path d="M293.4,245.6c5.1-4.7,11.1-8.3,16.5-12.7c5.3-4.3,10.6-8.6,15.9-13c0.6,1.6-0.2,2.6-1.2,3.4c-2.4,2-4.9,4.1-7.4,6
		c-6.7,5.1-13.5,10.1-20.3,15.1c-0.9,0.7-1.8,1.3-2.7,1.9C293.9,246.1,293.7,245.9,293.4,245.6z"/>
	<path d="M748.8,325.4c11.5-2.5,23.1-1.4,34.6-1.5c-6.6,1.1-13.1,3.1-20,1.9c-2.3-0.4-4.8,0.1-7.1,0.2
		C753.8,326.2,751.3,326.3,748.8,325.4z"/>
	<path d="M231.1,230.6c4.6,2.6,5.8,7.1,6.4,11.7c0.6,4.2,0.1,8.5-0.1,12.8c-0.9-1.7-1.3-3.5-1.4-5.3c-0.2-3.4-1.1-6.5-2.6-9.6
		C231.9,237.1,230.6,234,231.1,230.6L231.1,230.6z"/>
	<path d="M119.3,1258.8c-1.6,2.1-2.7,3.5-3.9,5.1c-3.7-0.2-7.4-0.2-10.9-1.7c0.3-2.4,1.9-2.5,3.2-2.6
		C111.2,1259.2,114.9,1259.1,119.3,1258.8z"/>
	<path d="M939.8,262.2c0-4.4,0.1-8.9,0-13.3c-0.2-4.2,0.4-8.5-0.6-13.2c-2.4,3.6-1.3,7.6-3,10.9c-0.2-4.4,1.3-11.7,3.3-16.3
		c0.2,0,0.3,0,0.5,0c0.1,0.1,0.2,0.2,0.2,0.4c0,10.5,0,21,0,31.5C940,262.2,939.9,262.2,939.8,262.2z"/>
	<path d="M697.8,207.3c-0.1-3.8-0.2-7.4-0.9-11.1c-0.7-3.8,0.3-7.5,1.5-11.6c1.5,1.2,0.9,2.5,1,3.6c0.1,1.2,0,2.5,0,3.7
		c0.8,0.1,1.2,0.2,1.9,0.2c-0.3,1.2-0.6,2.5-1,3.7c-0.4,1.4-0.9,2.7-1.3,4.1c-0.3,1.2-0.3,2.5-0.5,3.8
		C698.2,204.9,698,206.1,697.8,207.3z"/>
	<path d="M302.9,255.7c0-0.3-0.1-0.7,0-0.8c3.4-3.1,6.8-6.2,10.2-9.3c0.3,0.8,0.4,1.3,0.6,1.9c0.8-0.2,1.5-0.5,2.3-0.7
		C316.5,248.1,307,254.6,302.9,255.7z"/>
	<path d="M1015.6,241.6c0-10.1,0.8-14.4,3.2-17.3c1.4,3.2,2,7.5,1.8,15.4c-0.7-4.5-1.2-7.9-1.9-12.5
		C1016.2,232.7,1017.5,237.7,1015.6,241.6z"/>
	<path d="M514.3,188.4c0.3-0.2,0.6-0.3,0.9-0.5c0.1,0.6,0.4,1.4,0.1,1.8c-1.9,2.9-3.7,5.9-6,8.5c-0.9,1-2.7,1.2-4.3,1.5
		C508.3,196,510.3,191.3,514.3,188.4z"/>
	<path d="M881.7,972.8c-7.5,0.7-15,1.5-22.5,2.2c-0.1-0.2-0.1-0.4-0.2-0.7c0.6-0.2,1.2-0.6,1.8-0.6c5.2-0.6,10.4-1.3,15.6-1.8
		C878.2,971.8,880.1,971.5,881.7,972.8z"/>
	<path d="M801.8,219.8c0,11.7,0,23.5,0,35.2c-0.1,0-0.2,0-0.2,0c0-11.7,0-23.5,0-35.2C801.6,219.8,801.7,219.8,801.8,219.8z"/>
	<path d="M842.8,975.9c-5.4,0.9-10.7,3.1-16.8,1.2C832,975.2,837.4,975.7,842.8,975.9z"/>
	<path d="M810.5,979.5c3.9-2.6,7.8-2.8,12.9-0.8C819,979.2,815,980.9,810.5,979.5z"/>
	<path d="M871.4,234.8c0.1,0.6,0.3,1.2,0.3,1.8c0.2,6.8,0.3,13.6-0.2,20.4c0-1.7,0.1-3.4,0-5.1c-0.2-3.6-0.6-7.2-0.9-10.9
		c-0.1-2,0-4,0-6.1C870.9,234.8,871.2,234.8,871.4,234.8z"/>
	<path d="M402.9,201.8c-2.6,3.2-5.1,6.4-7.8,9.5c-1.6,1.9-3.6,3.5-5.5,5.1C394.1,211.5,397.8,206.1,402.9,201.8
		C403,201.9,402.9,201.8,402.9,201.8z"/>
	<path d="M776.7,205.2c0-6.2,0-13.2,0-20.3C777.1,185.4,776.7,205.2,776.7,205.2z"/>
	<path d="M905.8,227.4c0.9,4.8,2.1,8.5-0.7,13c0-4.1,0-7.4,0-10.8C905.2,229.3,905.4,228.9,905.8,227.4z"/>
	<path d="M403,201.9c0.9-1.3,1.6-2.7,2.7-3.8c2-2,4.1-3.9,6.3-5.9c-0.2,0.7-0.6,1.4-0.4,1.9c0.2,0.7,0.8,1.2,1.4,2
		C408.5,196.3,405.8,199.2,403,201.9L403,201.9z"/>
	<path d="M268.8,247.9c-2.2,1.6-3.9,3.4-7,3.6c0.8-2.6,2.8-3.7,4.4-5.4C267.1,246.7,267.8,247.2,268.8,247.9z"/>
	<path d="M1113.4,964.9c-5.5,0.2-11.1,0.5-16.6,0.7c0-0.1,0-0.2,0-0.4c2.7-0.2,5.4-0.3,8-0.5c2.8-0.2,5.7-0.4,8.5-0.6
		C1113.4,964.3,1113.4,964.6,1113.4,964.9z"/>
	<path d="M428.2,218.9c2.3-2.7,4.7-5.4,7.3-8.4C434.5,214.6,431.8,218,428.2,218.9z"/>
	<path d="M287.3,250.6c-2.7,3.2-6.3,5.1-9.9,7C280.2,254.6,283.6,252.4,287.3,250.6z"/>
	<path d="M934.4,254.8c-0.9,4.3-1,8.9-4.7,12C932.1,263.1,932.4,258.6,934.4,254.8z"/>
	<path d="M667,193.6c-1.3-0.5-1.9-0.8-2.8-1.2c0.7-1.6,0.8-3.6,2.8-5C668.1,189.6,667.5,191.4,667,193.6z"/>
	<path d="M691.8,222.9c-1,4.2-1.9,8.4-2.9,12.7c-0.3-0.1-0.6-0.1-0.8-0.2c1-4.2,1.9-8.4,2.9-12.6
		C691.2,222.8,691.5,222.9,691.8,222.9z"/>
	<path d="M720.4,198.6c-0.3,8.1-0.5,9-2.9,12C717.5,206,719.9,202.6,720.4,198.6L720.4,198.6z"/>
	<path d="M353.8,250.6c-1.8,1-3,2.5-5.1,2.4c0.1-2.2,1.7-3.1,2.8-4.4C352.5,248.9,350.9,251.9,353.8,250.6z"/>
	<path d="M490.9,216.2c-2.7,3.7-4.7,6.7-7.1,10C484.4,222.8,486.5,219.8,490.9,216.2z"/>
	<path d="M584.3,207.5c0.3,0.6,0.6,1.2,0.9,1.8c-2.2,2.4-4.4,4.8-6.6,7.3c-0.1,0-0.2-0.1-0.3-0.1c0.5-1,1-1.9,1.6-2.9
		c0.6-1.1,1.3-2.2,2-3.2C582.6,209.4,583.5,208.5,584.3,207.5z"/>
	<path d="M692.8,214c0.7-3.6,1.4-7.3,2.1-10.9c0.2,0,0.5,0.1,0.7,0.1c-0.7,3.6-1.4,7.3-2.1,10.9C693.3,214.1,693.1,214,692.8,214z"
		/>
	<path d="M776.2,216.9c-0.4,4.2-0.8,8.3-1.2,12.5c-0.2,0-0.4,0-0.6-0.1c0.4-4.1,0.8-8.3,1.3-12.4C775.8,216.8,776,216.8,776.2,216.9
		z"/>
	<path d="M653.3,234.6c-1.2,3.6-2.4,7.1-3.7,10.7c-0.2-0.1-0.5-0.2-0.7-0.2c1.2-3.6,2.3-7.3,3.5-10.9
		C652.8,234.3,653,234.4,653.3,234.6z"/>
	<path d="M849.5,247.2c0-4,0-7.9,0-11.9c0.1,0,0.2,0,0.2,0c0,3.9,0,7.9,0,11.8C849.7,247.2,849.6,247.2,849.5,247.2z"/>
	<path d="M822.7,250.5c0.2,4,0.4,7.9-0.5,11.7C822.4,258.2,822.6,254.4,822.7,250.5z"/>
	<path d="M916.2,969.6c2.2-0.2,4.6-0.4,6.9-0.6c-2.3,1.4-3.2,1.5-6.6,1.3c-0.1,0-0.3-0.1-0.4-0.2C916.1,970,916.1,969.8,916.2,969.6
		z"/>
	<path d="M848.2,231.9c-0.3,4-0.5,7-0.7,10.5C846.4,238.2,846.4,237.8,848.2,231.9z"/>
	<path d="M905.6,248.9c0,3.5,0,7,0,10.5c-0.1,0-0.2,0-0.2,0c0-3.5,0-7,0-10.4C905.5,248.9,905.5,248.9,905.6,248.9z"/>
	<path d="M988.2,225.8c0.6,2.5,1.1,4.9,1.8,8c-1-0.6-1.6-0.8-1.6-1.1c-0.3-2.3-0.6-4.6-0.8-6.9C987.7,225.9,988,225.9,988.2,225.8z"
		/>
	<path d="M603,210.2c-1.1,2-1.4,4.4-4.4,4.4C600,211.4,600,211.4,603,210.2z"/>
	<path d="M426.2,198c1.7-1.9,3.3-3.8,5.2-5.9c-0.9,2.3-0.9,2.3-2,3.4c-0.9,0.9-1.8,1.7-2.8,2.6C426.5,198,426.3,198,426.2,198z"/>
	<path d="M1108.9,228.8c0,3.2,0,5.9,0,8.7c-0.4-2.6,0.3-5.4-1.4-7.7C1107.7,229.6,1107.9,229.5,1108.9,228.8z"/>
	<path d="M331,229.7c2.2-2.4,4.5-4.7,6.7-7.1C336.1,225.6,334,228.1,331,229.7L331,229.7z"/>
	<path d="M1071.4,223.6c-0.5,1.1-1.3,2.2-1.5,3.4c-0.3,1.3-0.1,2.8-0.2,4.2C1069.1,226.6,1069.1,226.1,1071.4,223.6z"/>
	<path d="M329.3,248.4c-1.6,1.9-3.2,3.9-5,6C325.4,251.2,325.4,251.2,329.3,248.4z"/>
	<path d="M380.3,256.2c0.4-1.5,0.7-2.3,1-3.4c0.7,0.6,1.2,1.3,1.7,1.4c0.7,0.1,1.4-0.4,2.4-0.7C384.4,255.3,382.9,255.7,380.3,256.2
		z"/>
	<path d="M1172.4,211.5c-1.7-2-1.6-4.4-1-6.9C1171.7,206.9,1172,209.2,1172.4,211.5z"/>
	<path d="M346.4,230.2c1.4-2,3.1-3.7,5.2-5.6C349.9,227.7,349.9,227.7,346.4,230.2z"/>
	<path d="M180.1,446.3c-1.8,1.9-1.8,1.9-4.4,0.1C177.1,445.6,178.4,445.6,180.1,446.3z"/>
	<path d="M497.9,208.1c-1.4,1.7-2.9,3.4-4.7,5.5C494.6,210.1,494.6,210.1,497.9,208.1z"/>
	<path d="M503.7,215.2c1.1-2.4,2.5-4.5,4.6-6.2C507.3,211.4,506,213.7,503.7,215.2L503.7,215.2z"/>
	<path d="M1093.6,228.7c0,2.6,0,5.3,0,7.9c-0.1,0-0.1,0-0.2,0c0-2.7,0-5.4,0-8C1093.5,228.6,1093.5,228.6,1093.6,228.7z"/>
	<path d="M1056.7,965.1c2.5,0,5,0,7.5,0c0,0,0,0.1,0,0.1c-2.5,0-5,0-7.4,0C1056.7,965.2,1056.7,965.2,1056.7,965.1z"/>
	<path d="M1110.2,267.2c-0.3-3.6-0.5-7.3-0.8-10.9c0.2,0,0.5,0,0.7,0C1110.1,260,1110.1,263.6,1110.2,267.2L1110.2,267.2z"/>
	<path d="M1054.9,247.5c-0.4-2.3-0.7-4.6-1.1-6.9C1055.3,242.7,1055.4,245.1,1054.9,247.5z"/>
	<path d="M711,232.5c0.1-3,1.2-5.8,2.3-8.6C712.7,226.8,712.9,229.9,711,232.5L711,232.5z"/>
	<path d="M1088.2,965.1c-2,0-3.2,0-4.8,0C1085.4,964.4,1085.4,964.4,1088.2,965.1z"/>
	<path d="M337.1,240.8c-1.5,1.1-3,2.3-3.7,2.9c0.7-0.7,1.9-2,3.2-3.3C336.8,240.4,336.9,240.6,337.1,240.8z"/>
	<path d="M658.9,214.5c-0.6,2.2-1.2,4.4-1.8,6.6C656.9,218.7,657.4,216.5,658.9,214.5z"/>
	<path d="M1251.2,280.1c1.7,1.6,2,2.8,1.3,4.6C1251,283.5,1250.5,282.3,1251.2,280.1z"/>
	<path d="M562.3,239.2c1.4-2.1,2.8-4.2,4.2-6.3C565.4,236.2,565.4,236.2,562.3,239.2L562.3,239.2z"/>
	<path d="M678.2,263.3l0.2,0.1c-0.6-2.9-0.6-2.9,2.2-3.1C680.5,261.7,679.5,262.6,678.2,263.3z"/>
	<path d="M463.4,187.9c0.1,1.9-0.9,3-2,4.3C460.7,189.5,460.7,189.5,463.4,187.9z"/>
	<path d="M330.9,229.6c-1.3,2.1-3.5,3.3-5.4,4.8C327.2,232.5,328.6,230.5,330.9,229.6L330.9,229.6z"/>
	<path d="M1022.7,965.2c2.1,0,4.2,0,6.3,0c0,0.1,0,0.1,0,0.2c-2.1,0-4.2,0-6.3,0C1022.7,965.3,1022.7,965.3,1022.7,965.2z"/>
	<path d="M1005.6,966.2c-0.9,0-1.8,0-3,0C1004,965.4,1004,965.4,1005.6,966.2z"/>
	<path d="M955.4,239.5c0,2.2,0,4.5,0,6.7c-0.1,0-0.1,0-0.2,0c-0.1-2.2-0.2-4.5-0.3-6.7C955.1,239.5,955.2,239.5,955.4,239.5z"/>
	<path d="M519.9,250.2c1.2-1.3,2.3-2.6,3.8-4.3C522.5,248.7,522.5,248.7,519.9,250.2z"/>
	<path d="M355,207.6c1.6-2.6,4-4.4,6.7-5.7l-0.1-0.1C359.8,204.1,357.7,206.2,355,207.6L355,207.6z"/>
	<path d="M477.8,192.2c0.6-2.3,2.4-3.5,4.3-5.2C480.6,190.2,480.6,190.2,477.8,192.2L477.8,192.2z"/>
	<path d="M477.8,192.2c-1.2,1.6-2.4,3.2-3.7,4.8c-0.2-0.2-0.4-0.3-0.6-0.5C474.9,195,476.4,193.6,477.8,192.2
		C477.8,192.2,477.8,192.2,477.8,192.2z"/>
	<path d="M369.3,229c1-1.1,2-2.2,3.3-3.6C372.5,227.8,370.5,228,369.3,229z"/>
	<path d="M980.5,966.2c1.7,0,3.5,0,5.2,0c0,0,0,0.1,0,0.1c-1.7,0-3.4,0-5,0C980.7,966.3,980.6,966.2,980.5,966.2z"/>
	<path d="M503.6,215.1c-0.5,2.4-2,4.1-3.7,5.6C500.6,218.5,502,216.7,503.6,215.1L503.6,215.1z"/>
	<path d="M1230.8,207.2c-0.1-1.1-0.3-2.3-0.5-3.5c0.4,0,0.8,0,0.9,0.1c0.3,0.7,0.6,1.4,0.7,2.1c0.1,0.4-0.2,0.8-0.3,1.2
		C1231.3,207.2,1231.1,207.2,1230.8,207.2z"/>
	<path d="M370.2,241.3c0.8-1.3,1.7-2.5,2.9-4.3C373.1,239.4,371.6,240.3,370.2,241.3z"/>
	<path d="M515.2,252.6c0.8-1.8,1.7-3.6,2.5-5.3C517.6,249.5,517,251.4,515.2,252.6L515.2,252.6z"/>
	<path d="M386.8,211.9c1-0.9,2-1.7,3-2.6c0.1,0.1,0.3,0.3,0.4,0.4c-0.9,0.9-1.8,1.7-2.8,2.6C387.3,212.2,387.1,212.1,386.8,211.9z"
		/>
	<path d="M306.1,212c1-0.9,1.9-1.7,2.9-2.6c0.1,0.2,0.3,0.3,0.4,0.5c-0.9,0.9-1.9,1.8-2.8,2.7C306.4,212.4,306.3,212.2,306.1,212z"
		/>
	<path d="M1135,263.8c0,0.7-0.5,1.6-1.9,1.7C1133.8,264.8,1134.5,264.1,1135,263.8z"/>
	<path d="M282.1,232.6c1.2-1.3,2.4-2.7,3.7-4C285.1,230.5,283.9,231.8,282.1,232.6L282.1,232.6z"/>
	<path d="M638.3,276.9c0.6,0.9,3.1,1.9,0.2,3.4C638.4,278.9,638.3,277.9,638.3,276.9z"/>
	<path d="M1072.3,238.2c0-1.4,0-2.8,0-4.2c0.1,0,0.1,0,0.2,0c0,1.4,0,2.8,0,4.2C1072.4,238.2,1072.3,238.2,1072.3,238.2z"/>
	<path d="M567,253.6c-0.8,0.6-1.6,1.1-3.1,2.2c0.2-1.6,0.2-2.4,0.3-3C565.3,253.1,566.1,253.4,567,253.6L567,253.6z"/>
	<path d="M324.4,199.1c-1.1,0.7-2.2,1.3-3.2,2c-0.1-0.2-0.3-0.4-0.4-0.6c1-0.8,2-1.6,3-2.4C323.9,198.5,324.1,198.8,324.4,199.1z"/>
	<path d="M934.9,699.9l-0.2,0.1c-0.1-0.1-0.3-0.2-0.4-0.3c-0.1-0.7-0.2-1.3-0.3-2c0.4,0.1,1,0.1,1.2,0.3
		C936,698.8,935.7,699.4,934.9,699.9z"/>
	<path d="M515.1,252.6c0.7,2.8,0.7,2.8-1.7,4.5C513,255.1,514.2,253.9,515.1,252.6L515.1,252.6z"/>
	<path d="M374.8,203.3c-1,0.8-2,1.7-3.1,2.5c-0.1-0.2-0.3-0.3-0.4-0.5c1-0.9,2-1.8,3-2.8C374.5,202.9,374.7,203.1,374.8,203.3z"/>
	<path d="M823.8,236.4c0,1.4,0,2.8,0,4.2c-0.1,0-0.1,0-0.2,0c0-1.2,0-2.5,0-3.7C823.7,236.7,823.8,236.6,823.8,236.4z"/>
	<path d="M397.7,204c-0.9,0.6-1.9,1.3-2.8,1.9c-0.1-0.2-0.2-0.3-0.4-0.5c0.9-0.7,1.9-1.3,2.8-2C397.4,203.6,397.6,203.8,397.7,204z"
		/>
	<path d="M955.8,262.3c-0.1-1.4-0.1-2.8-0.2-4.3c0.2,0,0.4,0,0.6,0c0,1.4,0,2.8,0,4.3C956.1,262.3,956,262.3,955.8,262.3z"/>
	<path d="M646.4,199.8c-0.5,1.1-1,2.2-1.5,3.3c-0.2-0.1-0.3-0.1-0.5-0.2c0.4-1.1,0.9-2.2,1.3-3.3
		C645.9,199.7,646.1,199.8,646.4,199.8z"/>
	<path d="M1021.8,253.8c1.5,2,0.6,4.2,0.3,6.4C1022.1,258,1022,255.9,1021.8,253.8L1021.8,253.8z"/>
	<path d="M411.3,245.3c0.6-1,1.2-2,1.8-3c0.2,0.1,0.4,0.2,0.6,0.4c-0.6,1-1.2,2-1.8,3C411.7,245.5,411.5,245.4,411.3,245.3z"/>
	<path d="M580.5,184.5c0.7-0.8,1.3-1.5,2-2.3c0.1,0.1,0.3,0.2,0.4,0.3c-0.8,0.8-1.5,1.6-2.3,2.4
		C580.6,184.7,580.5,184.6,580.5,184.5z"/>
	<path d="M562.2,239.1c-0.4,1.9-1.5,3.3-2.9,4.6C559.6,241.7,561,240.4,562.2,239.1L562.2,239.1z"/>
	<path d="M1057.4,267.2c-0.3-2.2-0.6-4.3-0.8-6.5c0.3,0,0.5,0,0.8,0C1057.3,262.9,1057.3,265.1,1057.4,267.2L1057.4,267.2z"/>
	<path d="M1034,257.5c0,1.1,0,2.2,0,3.3c0,0-0.1,0-0.1,0c0-0.9,0-1.9,0-2.8c0-0.2,0-0.3,0-0.5C1033.9,257.4,1034,257.5,1034,257.5z"
		/>
	<path d="M824.8,224.9c0,1,0,2.1,0,3.1c-0.1,0-0.2,0-0.3,0c0-1,0.1-2.1,0.1-3.1C824.7,224.9,824.8,224.9,824.8,224.9z"/>
	<path d="M1245.8,216.4c0-0.9,0-1.8,0-2.7c0.1,0,0.2,0,0.4,0c0.1,0.8,0.1,1.7,0.2,2.5c0,0.1-0.1,0.3-0.2,0.4
		C1246.1,216.6,1246,216.5,1245.8,216.4z"/>
	<path d="M421.3,241.7c-0.5,0.6-1.1,1.3-1.6,1.9c-0.1-0.1-0.2-0.2-0.4-0.3c0.5-0.7,1-1.3,1.5-2C421,241.5,421.2,241.6,421.3,241.7z"
		/>
	<path d="M848.5,261.6c0-1.8,0-3.7,0-5.5c0.2,0,0.4,0,0.6,0C848.8,257.9,848.6,259.7,848.5,261.6L848.5,261.6z"/>
	<path d="M470,256c-0.6,0.2-1.1,0.4-1.7,0.4c-0.1,0-0.3-0.6-0.5-0.9c0.5-0.1,1.1-0.3,1.7-0.4C469.6,255.1,469.8,255.6,470,256z"/>
	<path d="M450.4,189c-0.7,0.7-1.3,1.3-2,2c-0.2-0.1-0.3-0.3-0.5-0.4c0.6-0.7,1.2-1.4,1.9-2.1C450,188.7,450.2,188.9,450.4,189z"/>
	<path d="M1073.2,254.8c0-0.8,0-1.6,0-2.4c0,0,0.1,0,0.1,0C1073.3,253.2,1073.3,254,1073.2,254.8
		C1073.3,254.8,1073.3,254.8,1073.2,254.8z"/>
	<path d="M567,253.7c0.7-1.3,1.8-2.3,3.5-2.4C569.4,252.1,568.2,252.8,567,253.7C567,253.6,567,253.7,567,253.7z"/>
	<path d="M585.3,231.6c-0.5,1.5-1.4,2.6-3.5,4.2C582.9,233.5,583.8,232.3,585.3,231.6L585.3,231.6z"/>
	<path d="M625.4,324.5c1.7-0.2,3.4-0.4,5-0.6c0,0.2,0,0.3,0,0.5C628.8,324.5,627.1,324.5,625.4,324.5L625.4,324.5z"/>
	<path d="M1021.9,253.7c-0.3-1.8-0.6-3.7-0.8-5.5c0.3,0,0.5,0,0.8-0.1C1021.8,250.1,1021.8,251.9,1021.9,253.7
		C1021.8,253.8,1021.9,253.7,1021.9,253.7z"/>
	<path d="M661.3,201.7c0.3-1,0.6-1.9,0.9-2.9c0.2,0.1,0.4,0.1,0.5,0.2c-0.3,0.9-0.6,1.9-0.9,2.8
		C661.7,201.8,661.5,201.8,661.3,201.7z"/>
	<path d="M354.9,207.5c-1,1.1-2.1,2.1-3.1,3.2c-0.2-0.2-0.4-0.5-0.5-0.7C352.5,209.2,353.8,208.4,354.9,207.5L354.9,207.5z"/>
	<path d="M486.3,236.6c0.6-0.6,1.1-1.3,1.7-1.9c0.2,0.1,0.3,0.2,0.5,0.4c-0.5,0.7-1.1,1.4-1.6,2.1
		C486.6,237,486.4,236.8,486.3,236.6z"/>
	<path d="M811.3,208.7c-0.1,0.4-0.2,0.9-0.4,1.3c-0.1,0.3-0.4,0.5-0.6,0.7c0-0.3,0-0.6,0-0.9c0.1-0.4,0.3-0.8,0.5-1.3
		C810.9,208.7,811.1,208.7,811.3,208.7z"/>
	<path d="M773,245.4c0,1,0,2,0,3.1c-0.1,0-0.2,0-0.3,0c0-1,0.1-2,0.1-3.1C772.9,245.4,772.9,245.4,773,245.4z"/>
	<path d="M1032.9,246.5c0-1,0-2,0-3c0.1,0,0.1,0,0.2,0c0,1,0,2,0,3C1033,246.5,1033,246.5,1032.9,246.5z"/>
	<path d="M344.1,205.1c-0.7,0.6-1.3,1.1-2.2,1.8C342.4,205.5,342.4,205.5,344.1,205.1z"/>
	<path d="M825.5,209.9c0-0.7,0.1-1.4,0.1-2.1c0.1,0,0.2,0,0.3,0c0,0.8,0,1.5,0,2.3C825.7,210,825.6,210,825.5,209.9z"/>
	<path d="M988.8,243.8c0-0.7,0-1.5,0-2.2c0.1,0,0.1,0,0.2,0c0,0.7,0.1,1.5,0.1,2.2C989,243.8,988.9,243.8,988.8,243.8z"/>
	<path d="M816.3,188.2c-0.3,0.8-0.6,1.6-0.9,2.4c-0.2,0-0.3-0.1-0.5-0.1c0.2-0.8,0.5-1.7,0.7-2.5C815.9,188,816.1,188.1,816.3,188.2
		z"/>
	<path d="M590.7,230.9c0.3-0.5,0.6-1.1,0.9-1.6c0.1,0.1,0.3,0.1,0.4,0.2c-0.2,0.6-0.4,1.2-0.6,1.8
		C591.1,231.1,590.9,231,590.7,230.9z"/>
	<path d="M527.2,190c0.4-0.2,0.9-0.5,1.3-0.7c0,1.4-0.7,2.5-2.1,4C526.8,191.8,527,190.9,527.2,190z"/>
	<path d="M1208.7,220.5c0,0.6,0.1,1.3,0.2,2c-0.1,0-0.1,0-0.2,0C1208.7,221.8,1208.7,221.1,1208.7,220.5z"/>
	<path d="M742.9,258.2c0-0.8,0.1-1.6,0.1-2.4c0.2,0,0.3,0,0.5,0c-0.1,0.8-0.1,1.6-0.2,2.4C743.2,258.2,743.1,258.2,742.9,258.2z"/>
	<path d="M1043.6,965.5c-0.6,0-1.2-0.1-1.8-0.1c0.6-0.2,1.2-0.3,1.8-0.5C1043.6,965.1,1043.6,965.3,1043.6,965.5z"/>
	<path d="M477.5,247.3c0.4-0.6,0.8-1.1,1.3-1.7c0.3,0.3,0.5,0.5,0.8,0.8c-0.5,0.5-1,1-1.5,1.4C477.8,247.6,477.6,247.5,477.5,247.3z
		"/>
	<path d="M358.6,218.5c-0.5,0.5-0.9,1-1.4,1.5c-0.1-0.1-0.3-0.3-0.4-0.4c0.5-0.5,1-1,1.5-1.5C358.3,218.2,358.5,218.4,358.6,218.5z"
		/>
	<path d="M1032.6,228.5c0-0.8,0-1.6,0-2.3c0.2,0,0.4,0,0.7,0c0,0.8,0.1,1.6,0.1,2.3C1033.1,228.4,1032.8,228.4,1032.6,228.5z"/>
	<path d="M361.7,201.9c0.7-0.8,1.3-1.6,2-2.4C363.6,201,362.9,201.7,361.7,201.9L361.7,201.9z"/>
	<path d="M419.3,234.8c-0.3,0.5-0.5,0.8-0.6,1.2c0-0.3,0-0.7,0.1-1C418.7,234.9,419,234.9,419.3,234.8z"/>
	<path d="M454.7,200.5c0.3-0.5,0.5-0.8,0.7-1.1c0,0.3,0,0.6-0.1,0.9C455.2,200.4,455,200.4,454.7,200.5z"/>
	<path d="M610.9,228.5c-0.3,0.5-0.6,1-0.9,1.5c-0.1-0.1-0.3-0.1-0.4-0.2c0.2-0.6,0.5-1.1,0.7-1.7
		C610.6,228.3,610.7,228.4,610.9,228.5z"/>
	<path d="M1191.7,199.2c0,0.4-0.1,0.9-0.1,1.3c-0.1,0-0.1,0-0.2,0c0-0.5,0-1,0-1.4C1191.5,199.2,1191.6,199.2,1191.7,199.2z"/>
	<path d="M1166.2,407.6c0.4,0,0.9,0,1.3,0.1c-0.4,0.2-0.9,0.4-1.3,0.6C1166.3,408,1166.2,407.8,1166.2,407.6z"/>
	<path d="M380.1,199c0.1-0.3,0.2-0.6,0.3-0.7c0.3-0.1,0.7,0,1,0c-0.2,0.2-0.4,0.5-0.6,0.6C380.7,198.9,380.4,198.9,380.1,199z"/>
	<path d="M679.6,198.3c0.3-0.6,0.6-1.2,1-1.8c0.1,0.1,0.3,0.2,0.4,0.2c-0.3,0.6-0.6,1.2-0.9,1.8
		C679.9,198.5,679.8,198.4,679.6,198.3z"/>
	<path d="M291.5,225.1c-0.4,0.3-0.9,0.7-1.3,1c-0.1-0.2-0.2-0.3-0.4-0.5c0.4-0.3,0.9-0.7,1.3-1C291.2,224.8,291.3,225,291.5,225.1z"
		/>
	<path d="M710.9,232.4c-0.2,1.1-0.3,2.2-0.5,3.3c-0.3-0.1-0.5-0.2-0.8-0.2C710.1,234.5,710.6,233.5,710.9,232.4L710.9,232.4z"/>
	<path d="M714.1,246.3c0-1.2,0-2.5,0-3.7c0.2,0,0.3,0,0.5,0C714.4,243.8,714.2,245,714.1,246.3L714.1,246.3z"/>
	<path d="M440.3,217.2c-0.5,0.9-0.9,1.8-1.4,2.7C438.7,218.5,439.1,217.6,440.3,217.2L440.3,217.2z"/>
	<path d="M492,221.5c0.3-0.4,0.5-0.8,0.8-1.2c0.1,0.1,0.2,0.2,0.4,0.3c-0.3,0.4-0.5,0.8-0.8,1.2C492.3,221.6,492.2,221.5,492,221.5z
		"/>
	<path d="M683.7,251c0-0.3-0.1-0.6,0-0.8c0.1-0.3,0.4-0.4,0.6-0.7c0,0.4,0.1,0.8,0.1,1.1C684.4,250.8,684,250.9,683.7,251z"/>
	<path d="M282,232.5c-0.7,0.7-1.5,1.4-2.2,2.1c-0.1-0.2-0.3-0.4-0.4-0.5C280.3,233.6,281.2,233.1,282,232.5L282,232.5z"/>
	<path d="M846.1,279.3c0.1,1.2,0.1,2.4,0.2,3.6c-0.2,0-0.4,0-0.5,0C845.9,281.7,846,280.5,846.1,279.3L846.1,279.3z"/>
	<path d="M1010.2,232.6c0,0.7,0.1,1.4,0.1,2.1c-0.2,0-0.4,0.1-0.6,0.1c-0.1-0.7-0.3-1.4-0.4-2.2
		C1009.6,232.7,1009.9,232.7,1010.2,232.6z"/>
	<path d="M528.2,241.5c-0.5,0.6-0.8,1-1.2,1.4c0-0.4,0-0.8,0.1-1.2C527.1,241.6,527.5,241.6,528.2,241.5z"/>
	<path d="M1014.9,250.7c0,0.7,0,1.4,0,2.2c-0.1,0-0.3,0-0.4,0c0-0.7,0-1.4,0-2.2C1014.6,250.7,1014.8,250.7,1014.9,250.7z"/>
	<path d="M408.7,218.1c0.5-0.9,0.9-1.7,1.4-2.6c0.2,0.1,0.4,0.3,0.6,0.4C410,216.7,409.3,217.4,408.7,218.1L408.7,218.1z"/>
	<path d="M716.5,227.9c0,0.6,0,1.1,0,1.7c-0.1,0-0.2,0-0.3,0c0-0.6,0-1.1,0-1.7C716.3,227.9,716.4,227.9,716.5,227.9z"/>
	<path d="M338.6,209.8c-0.4,0.4-0.9,0.7-1.3,1.1c-0.1-0.1-0.2-0.2-0.4-0.3c0.4-0.4,0.8-0.9,1.2-1.3
		C338.3,209.4,338.5,209.6,338.6,209.8z"/>
	<path d="M425.1,236.8c-0.2,0.4-0.5,0.8-0.7,1.2c-0.1-0.1-0.3-0.2-0.4-0.2c0.2-0.4,0.5-0.8,0.7-1.2
		C424.8,236.7,424.9,236.8,425.1,236.8z"/>
	<path d="M408.7,218.1c-0.2,0.6-0.4,1.2-0.7,1.7c-0.2,0.3-0.6,0.6-1.3,0.5C407.4,219.5,408.1,218.8,408.7,218.1
		C408.7,218.1,408.7,218.1,408.7,218.1z"/>
	<path d="M393.3,190.8c-0.5,0.3-1,0.6-1.4,0.8c-0.1-0.2-0.2-0.3-0.3-0.5c0.5-0.3,1-0.6,1.4-0.8C393.1,190.4,393.2,190.6,393.3,190.8
		z"/>
	<path d="M649.9,190.4c0.3-0.5,0.6-1,0.9-1.5c0.2,0.1,0.3,0.2,0.5,0.3c-0.3,0.5-0.6,1-1,1.5C650.2,190.5,650.1,190.4,649.9,190.4z"
		/>
	<path d="M379.3,230c-0.3,0.4-0.6,0.8-1,1.2c-0.1-0.1-0.3-0.2-0.4-0.3c0.3-0.4,0.6-0.8,0.9-1.3C378.9,229.8,379.1,229.9,379.3,230z"
		/>
	<path d="M326.7,238.2c0-0.1-0.1-0.3-0.1-0.4c0.2-0.2,0.4-0.4,0.7-0.6c0.1,0.2,0.2,0.5,0.2,0.5C327.2,238,326.9,238.1,326.7,238.2z"
		/>
	<path d="M872.9,262.3c0.1,0.6,0.1,1.3,0.2,1.9c-0.2,0-0.4,0-0.5,0c0-0.7-0.1-1.3-0.1-2C872.6,262.3,872.7,262.3,872.9,262.3z"/>
	<path d="M440.4,217.2c0.5-0.9,0.9-1.8,1.4-2.7c0.2,0.1,0.4,0.3,0.6,0.4C441.7,215.7,441,216.4,440.4,217.2L440.4,217.2z"/>
	<path d="M360.6,238.7c0.3-0.4,0.5-0.8,0.8-1.2c0.1,0.1,0.3,0.2,0.4,0.3c-0.3,0.4-0.6,0.8-0.8,1.1
		C360.8,238.8,360.7,238.7,360.6,238.7z"/>
	<path d="M585.3,231.7c0.4-0.9,0.9-1.8,1.3-2.7c0.2,0.1,0.4,0.3,0.6,0.4C586.6,230.1,585.9,230.9,585.3,231.7L585.3,231.7z"/>
	<path d="M642.9,262.4c0.2-1,0.5-2.1,0.7-3.1c0.2,0.1,0.4,0.2,0.6,0.2C643.8,260.5,643.3,261.4,642.9,262.4
		C642.9,262.4,642.9,262.4,642.9,262.4z"/>
	<path d="M749,186.7c0,0.5,0,1,0,1.5c0,0-0.1,0-0.1,0c0-0.5,0-1,0-1.5C748.9,186.7,748.9,186.7,749,186.7z"/>
	<path d="M414.3,210.8c0.3-0.3,0.6-0.7,0.9-1c0.1,0.1,0.3,0.2,0.2,0.3c-0.2,0.4-0.5,0.7-0.8,1C414.6,210.9,414.5,210.8,414.3,210.8z
		"/>
	<path d="M465.5,207c-0.3,0.5-0.6,0.9-0.9,1.4c-0.2-0.1-0.3-0.2-0.5-0.3c0.3-0.4,0.6-0.9,0.9-1.3C465.2,206.8,465.3,206.9,465.5,207
		z"/>
	<path d="M331.1,234.1c0.4-0.3,0.8-0.5,1.2-0.8c0.1,0.2,0.2,0.3,0.3,0.5c-0.4,0.2-0.8,0.5-1.3,0.7
		C331.3,234.4,331.2,234.2,331.1,234.1z"/>
	<path d="M482.2,1039.9c-2.5,0.5-4.9,1.3-7.4,1.5c-8.1,0.5-16.2,0.8-24.4,1.1c-0.9,0-1.9,0-3-0.6c0.6-0.3,1.1-0.7,1.7-0.9
		c1.7-0.4,3.4-0.8,5.2-0.9c9.2-0.5,18.5-0.9,27.7-1.3C482,1039.2,482.1,1039.6,482.2,1039.9z"/>
</g>
</svg>
