<?xml version="1.0" encoding="utf-8"?>
<!-- Generator: Adobe Illustrator 25.4.1, SVG Export Plug-In . SVG Version: 6.00 Build 0)  -->
<svg version="1.1" id="Layer_1" xmlns="http://www.w3.org/2000/svg" xmlns:xlink="http://www.w3.org/1999/xlink" x="0px" y="0px"
	 viewBox="0 0 1208.8 1328" style="enable-background:new 0 0 1208.8 1328;" xml:space="preserve">
<g>
	<path d="M499.9,1222.4c-1.1,0.3-2.2,0.5-3.1,1.1c-0.5,0.3-1,1.3-0.9,1.9c0.1,0.6,0.9,1.4,1.5,1.6c1,0.2,2.1-0.1,3.2-0.2
		c1,2,0.2,3-1.4,3.5c-5.4,1.6-10.7,1.7-15.6-1.6c-0.5-0.3-1-0.8-1.4-1.3c-1.1-1.3-1-2.8,0.4-3.8c1.1-0.8,2.5-1.4,3.8-2
		c1.5-0.6,3-0.9,4.6-1.4c0.2-1,0.4-2,0.5-2.9c0.4-12.9,0.8-25.8,1.2-38.7c-1.4-1.2-2.8-0.5-4.1,0.1c-5.5,2.1-11,4.3-16.5,6.5
		c-6.5,2.6-12.9,5.7-19.6,7.7c-6.9,2.1-13.2,5.6-20,7.9c-0.6,0.2-1.1,0.6-1.7,0.9c1.5,2.3,8.6,7.9,14.7,11.9
		c5.3,3.5,10.5,7.3,15.9,10.8c5.3,3.5,10.8,6.8,16,10.6c-3-0.3-5.7-1.2-8.2-2.7c-11.9-6.9-23.4-14.5-34.7-22.3
		c-1.8-1.3-3.8-2.4-5.5-3.9c-2.4-2.1-4.7-2-7.5-0.7c-3.8,1.7-7.7,3.1-11.6,4.5c-0.9,0.3-1.8,0.6-2.8,0.8c-1.4,0.3-2.1-0.5-2.5-2.2
		c4.6-3.8,11.1-4,16.3-7.3c-1.5-2.6-4.2-3.5-6.3-5.2c-1.9-1.6-4.8-1.8-6.4-4.4c0.5-0.7,1-1.5,1.6-2.3c2.2,0.4,3.4,1.8,5,3
		c2.7,2,5.4,3.9,8.1,5.9c1.6,1.2,3.3,1.2,4.9,0.1c2.3-1.5,5.1-1.8,7.6-2.7c5.8-1.9,11.4-4.1,17.1-6.3c10.3-4,20.5-8,30.8-12
		c1.9-0.7,3.9-1.6,5.9-2c3.6-0.7,5.1-2.9,5.5-6.2c0.8-5.5,1.5-11.1,2.6-16.6c0.9-4.8,2.3-9.6,3.6-14.5c0.7,0.4,0.9,0.6,1.4,0.9
		c1.1-1.3,0.9-2.8,1.1-4.3c0.5-4,0.8-8,1.7-11.8c1.1-4.7,2.7-9.2,4.2-13.8c0.2-0.5,0.7-1.1,1.2-1.4c2.9-1.7,2.9-4.2,2.5-6.9
		c-2.4-1.5-4.8-1.6-7.4-1.4c-7.5,0.5-15,0.7-22.5,1.1c-0.9,0-1.9,0.2-3.1,0.4c-1.3,3.6-2.7,7.1-4,10.6c1.1,1.3,1.9,2.4,2.7,3.4
		c-6.3,6.9-13.9,11.4-22.1,15.4c-1.8-2.2-4.1-2.7-6.6-1.4c-1.4,0.7-2.9,1.4-4.2,2.3c-7.5,5.3-15.7,9.3-24.1,12.7
		c-3.8,1.6-7.5,3.5-11.3,5.2c-9.5,4.3-18.9,8.5-28.4,12.8c-5.2,2.4-10.5,4.7-15.7,7.1c-0.9,0.4-1.7,1.1-3.1,2.1
		c5.3,0.6,8.3-3.2,12.3-3.6c1.2,0.8,1,1.7,0.1,2.4c-2.7,2.1-5.6,3.7-9,4.4c-2.6,0.5-5.4,0.6-8.1,0.6c-1.2,0-2.7-0.3-3.1-1.8
		c-0.4-1.5,0.7-2.4,1.8-3c2.6-1.7,5.2-3.1,8.3-3.6c2.6-0.4,4.9-1.3,6.7-3.4c0.7-0.8,1.7-1.4,2.7-1.9c4.5-2.1,9-4.1,13.6-6
		c6.6-2.9,13.2-5.7,19.8-8.6c4.4-1.9,8.8-3.8,13.2-5.7c1.3-0.6,2.6-1.2,3.9-1.9c14.1-7.6,28.1-15.2,42.2-22.7
		c2.1-1.1,3.7-2.4,4.6-4.6c0.6-1.3,1.5-2.4,2.4-3.6c1.4-2,2.4-4.1,2.2-6.9c-1-0.2-1.8-0.6-2.7-0.6c-4.8,0.1-9.6,0.4-14.4,0.4
		c-10.7,0.2-21.4,0.2-32.1,0.4c-6.7,0.1-13.4,0.4-20.1,0.6c-3.2,0.1-6.4,0.2-9.6,0.3c-9.7,0.3-19.5,0.7-29.2,1
		c-1.8,0.1-3.6,0.2-5.3-0.1c-7.5-1.4-15,0.2-22.4,0.8c-7.3,0.5-14.7,0.9-22,1.3c-1.6,0.1-3.2,0.1-4.8,0.3c-2.5,0.3-2.8,0.9-2.2,3.9
		c-1.1,1.5-2.7,1.6-4.3,1.5c-4.3-0.3-8.6-0.7-12.9-1.1c-1.9-0.2-3.9-0.8-4.9,1.6c-0.1,0.2-0.5,0.5-0.8,0.5c-3.7,0-5.6,2.8-7.9,4.9
		c-4.6,4.2-9,8.6-13.6,12.8c-2.7,2.5-5.6,4.7-8.5,7c-1.1,0.9-2.3,1.8-3.1,2.9c-3.3,4.4-7.3,8-11.5,11.5c-3.1,2.5-6,5.2-8.6,8.4
		c0.8-0.3,1.7-0.5,2.4-0.9c2.1-1.2,4.1-2.5,6.1-3.8c1.5-1,3-1.6,4.9-1.1c1.1,0.3,2.6,0.1,3.8-0.3c4.7-1.6,9.3-3.5,13.9-5.1
		c9.8-3.5,18.5-9.4,28.2-13.1c12.8-4.9,25.2-11,38.2-15.4c5.4-1.9,10.9-3.8,16.3-5.5c1.3-0.4,2.8-0.6,4.2-0.5c0.7,0.1,1.6,0.9,2,1.7
		c0.6,1-0.2,1.9-1.1,2.3c-1.1,0.5-2.4,1-3.6,1.2c-9.5,1.8-18.4,5.3-27,9.6c-1.3,0.6-2.5,1.4-3.7,2.2c-2.1,1.5-4.2,2.6-7.1,1.7
		c-1.3-0.4-3,0.6-4.5,1.2c-9.4,4-18.7,8.2-28.2,12.2c-12.4,5.2-24.8,10.2-37.2,15.3c-0.1,0.1-0.3,0.1-0.5,0.2
		c-3.2,0.8-3.9,3.8-0.8,6c1.4,1,2.8,2.1,4.2,3.2c0.7,0.6,1.4,1.2,2.7,2.3c-2.5,0.1-3.7-0.9-5-1.7c-3-1.8-5.8-3.9-8.9-5.5
		c-1.4-0.8-3.3-0.9-5-0.9c-1,0-2,0.8-2.8,1.6c-11.2,10-22.6,19.8-33.6,30c-5.3,4.9-9.8,10.6-14.9,15.6c-9.7,9.5-18.6,19.8-27.3,30.2
		c-6.1,7.4-12.4,14.6-19.8,20.9c-1.6,1.4-3,2.9-3.6,5.4c1.5,0.1,2.2-1.1,3.2-1.7c1.1-0.6,2.2-1.3,3.4-2c0.6,1.4,1,2.7,1.6,4.1
		c4.8,1.2,9.5,0,13.8-2c4.4-2,8.9-3.6,13.5-4.8c8.3-2.2,16.6-4.7,24.9-6.8c6.2-1.6,12.5-2.9,18.6-4.5c4-1.1,7.9-2.6,11.8-4
		c3.5-1.2,6.9-2.4,10.4-3.7c2.7-1,5.4-1.9,8.1-2.9c1.8-0.7,3.6-1.4,5.4-2c5.7-1.7,11.4-3.2,17.1-4.8c1.9-0.5,3.6-1.1,5.1-2.5
		c1-0.9,2.4-1.5,3.8-1.9c4.5-1.6,9-3.3,13.6-4.6c4.6-1.3,9.2-2.4,13.8-3.5c0.7-0.2,1.4-0.4,2.6-0.8c-2.9-3.8-6.9-5.6-10.1-8.4
		c-3.3-3-7.1-5.5-10.6-8.3c-3.3-2.7-6.5-5.6-9.7-8.5c-3.3-3-6.7-6-9.8-9.1c-3-3-6.7-5.3-8.7-9.2c1.7-1.4,2.8-0.5,3.7,0.2
		c4.3,3.5,8.7,7.1,12.8,10.8c4.2,3.9,8.1,8.1,12.7,11.6c3.3,2.5,6,5.7,9.1,8.5c1,1,2.2,1.9,3.3,2.7c4.3,3.1,8.5,6.2,12.8,9.3
		c0.6,0.5,1.4,0.9,1.9,1.5c3,3.6,7.1,5.9,10.7,8.8c9,7.2,17.9,14.5,26.8,21.7c3.8,3.1,7.7,6.3,11.5,9.5c2,1.7,4,2,6.6,1.2
		c9.1-3,18.4-5.4,27.9-6.9c2.9-0.5,5.8-1.8,8.6-2.8c1.7-0.6,3.1-0.9,4.1,1.3c-0.4,1.4-1.3,2.3-2.9,2.5c-11.2,1.4-21.8,5-32.4,8.4
		c-1,0.3-2,0.8-3.5,1.5c1.1,1.2,1.8,2.1,2.7,2.9c1.5,1.4,3.2,2.7,4.5,4.3c0.5,0.5,0.3,1.6,0.5,3.2c-1.4-0.8-2.2-1.1-2.9-1.6
		c-2.4-1.9-4.7-3.8-7.1-5.7c-1.6-1.4-3.2-1.6-5.3-1c-7.7,2.6-15.5,4.9-23.3,7.4c-1.8,0.6-3.7,1.2-5.5,1.6c-4.1,0.8-8.1,1.7-11.8,3.7
		c-1.1,0.6-2.4,0.8-3.6,1.2c-7.7,2.5-15.4,5.3-23.3,7.4c-6.3,1.7-12.3,4.5-18.9,5.1c-3.7,0.3-6.3,2.9-9.2,4.8
		c-1.3,0.9-2.7,1.7-4.1,2.2c-8.8,2.9-17.6,5.7-26.5,8.5c-2.1,0.7-4.2,1.4-6.5,0.1c0-2,0.9-3.3,2.8-4c1.8-0.6,3.6-1.3,5.4-1.9
		c3.5-1.2,7-2.2,10.5-3.4c14.1-4.7,28.2-9.4,42.3-14c1.9-0.6,4-0.7,6-1.1c1.4-0.3,2.8-0.7,4.1-1.2c3.9-1.5,7.7-3.2,11.6-4.5
		c2.4-0.8,5-1,7.5-1.5c4.6-0.8,9.1-1.9,13.2-4.2c7-4.1,14.7-6.1,22.4-8.2c1.7-0.5,3.3-0.9,5.4-1.4c-0.8-1.2-1.1-2.2-1.8-2.7
		c-3-2.4-6.2-4.6-9.2-6.9c-3.8-2.9-7.5-5.9-11.3-8.9c-2.5-2-5-4-7.4-6.1c-4-3.4-8-6.9-12-10.3c-1.2-1-2.6-1.9-3.8-2.9
		c-1.5-1.2-3-2.2-3.9-4.1c-1.2-2.5-2.9-2.5-4.9-0.5c-0.8,0.8-1.4,1.7-2.2,2.8c-3.4-1.1-6.5,0-9.7,1.1c-8,2.8-16.1,5.2-24.1,7.9
		c-3.6,1.2-7.2,2.7-10.8,3.9c-12.5,4.4-25,9-37.6,12.9c-14,4.4-28.2,8.1-42.4,12.1c-5.7,1.6-11.4,3.2-17.1,4.8c-2.5,0.7-5,1-7.5,1.6
		c-6.5,1.6-13,3.1-19.5,4.9c-1.6,0.4-3,1.8-4.3,2.9c-1.9,1.5-3.6,2.5-6.1,1c-0.8-0.5-2.2-0.1-3.3-0.3c-0.8-0.2-1.6-0.9-2.3-1.3
		c0.4-2.2,1.8-2.8,3.4-3.1c2.7-0.4,4.5-2,6.1-4.2c3.7-4.8,7.6-9.4,12.5-13.2c0.7-0.6,1.3-1.4,1.9-2.1c2.1-2.8,4.2-5.6,6.4-8.4
		c3.9-4.8,7.8-9.8,12-14.3c8-8.7,15.7-17.6,24.5-25.6c6.7-6.1,12.9-12.8,19.4-19.2c2.4-2.3,5-4.4,7.5-6.7
		c8.9-8.1,17.7-16.2,26.7-24.2c4.4-3.9,9.1-7.5,13.7-11.3c4.4-3.7,8.8-7.4,13.2-11.1c1.2-1,2.2-2.3,3.3-3.5
		c3.2-3.5,6.4-7.1,9.7-10.6c0.9-0.9,1.9-1.8,3-2.4c3.2-1.7,5.3-4.4,7.2-7.5c-1.8-2.4-6.2,0.6-7.1-3.5c1.3-1.6,3-1.7,4.8-1.8
		c8-0.5,15.9-1.2,23.9-1.7c10-0.6,20.1-1.4,30.1-1.3c7.7,0.1,15.3-0.2,23-0.8c11.1-0.8,22.3-1,33.5-1.2c8-0.1,16,0.4,24,0.2
		c8.1-0.1,16.3-0.7,24.4-1.1c1.3-0.1,2.5-0.2,3.3-1.5c1.3-2.2,3.6-3,5.9-3.9c9.1-3.6,18.7-5.6,28.1-8c6.3-1.6,5.6-0.2,8.1-7.2
		c4.4-12,8.6-24.1,12.7-36.2c4.3-12.6,8.2-25.2,12.4-37.8c7.1-21.6,14.3-43.1,23.2-64c2-4.7,4.3-9.3,6.3-14c1.8-4.4,3.4-9,5.2-13.4
		c1.1-2.8,2.5-5.5,3.9-8.2c0.4-0.8,1.1-1.7,2.3-1.2c1.4,0.6,1.2,1.8,0.8,2.9c-0.9,2.2-1.9,4.4-2.9,6.6c-2,4.4-3.9,8.8-6,13.1
		c-8,16.2-14.1,33.2-20.5,50.1c-0.6,1.6-1.1,3.4-2,4.9c-3.1,5.5-4.4,11.6-6.1,17.6c-1.4,5.2-3.3,10.3-5,15.5
		c-0.2,0.8-0.6,1.5-0.8,2.2c-4.7,17.1-11.4,33.6-16.9,50.4c-1.1,3.3-2.5,6.6-3.7,9.9c-0.8,2.1-1.4,4.2-2.2,6.4
		c3.7,1.2,7.1,0.3,10.4,0.2c2.4-0.1,4.8-0.3,7.2-0.1c4.4,0.3,7.6,2.6,9,6.8c1.8,5.3,2.9,4.8,7.3,4.6c7.5-0.4,15-1.4,22.5-0.9
		c4.1,0.3,8.3-0.4,12.5-0.4c10.9-0.1,21.8-0.2,32.6-0.2c0.9,0,2.2-0.2,2.8,0.3c2.3,1.8,4.8,1.3,7.3,1.1c1.4-0.1,2.9-0.1,4.3-0.2
		c9.1-0.8,18.1-1.6,27.2-2.4c1.3-0.1,2.5-0.3,3.8-0.4c11.7-0.3,23.3-0.6,35-1c6.4-0.2,12.8-0.5,19.2-0.7c5.1-0.1,10.2,0,16.1,0
		c-4,0.7-7.3,1.3-11.2,2c4.1,1.1,15.5,0.4,22.2-1.2c-2.5-0.2-3.9-0.3-5.4-0.4c0-0.1,0-0.3,0-0.4c1.3-0.1,2.6-0.2,3.8-0.2
		c1.3,0,2.6,0.1,3.8,0.1c3.5,0,7,0.1,10.5,0c13.1-0.4,26.2-0.8,39.3-1.2c16.6-0.5,33.2-1,49.9-1.4c3.5-0.1,7,0.1,10.5,0
		c4.2-0.1,8.3-0.3,12.5-0.3c9.3-0.1,18.6,0,27.8,0c18.2,0,36.5-0.1,54.7-0.1c20.3,0.1,40.6,0.3,60.9,0.6c6.7,0.1,13.4,0.2,20.1,0.5
		c2.8,0.1,5.7,0.6,9.5,1.1c-1.7,1.2-2.5,1.8-3.4,2.5c0.7,1,1.3,1.8,1.9,2.7c-0.4,0.4-0.6,0.7-0.9,0.8c-0.9,0.1-1.9,0.2-2.9,0
		c-7-1.2-14-1-21-1.1c-23-0.2-46-0.6-69.1-0.8c-16.6-0.1-33.3,0-49.9,0c-18.7,0-37.4,0-56.1,0.2c-11.7,0.1-23.3,0.6-35,0.9
		c-9.7,0.2-19.5,0.2-29.3,0.4c-7.8,0.1-15.7,0.5-23.5,0.6c-7.2,0.1-14.4-0.1-21.6,0.1c-16.3,0.3-32.6,0.7-48.9,1.2
		c-10.4,0.3-20.8,0.9-31.1,1.3c-5.1,0.2-10.2,0-15.4,0.1c-14.1,0.4-28.1,0.9-42.2,1.4c-0.6,0-1.3,0.1-1.9,0
		c-13.8-0.9-27.5,0.9-41.2,0.6c-1.6,0-3.2,0.1-4.9,0.2c-0.3,1.1-0.8,2-0.8,2.9c0.4,7.7-2,14.8-4.2,22c-2.5,8.4-5.1,16.8-7.7,25.2
		c-0.5,1.5-0.9,3.1-1.7,4.5c-2.4,4.1-2.7,8.8-4.2,13.2c-0.4,1.3-0.5,2.9-0.2,4.3c1,4.8-0.4,9.5-0.6,14.3c-0.1,2-0.5,4.2-1.5,6
		c-1.6,2.7-1.7,5.5-1.1,8.3c1.1,5.1,1.6,10.1,0.2,15.2c-0.1,0.5-0.1,1-0.1,1.4c0.1,2.9,1.3,4,4.2,3.7c2.4-0.3,4.7-0.7,7.1-0.9
		c8.6-0.7,17.2-1.4,25.8-2.1c2.2-0.2,4.4-0.4,6.5-0.6c1.5-4.8-0.5-9.6,1.6-14c0.1-0.2,0.6-0.1,1.1-0.3c1.9,4.3,0.4,9.1,1.9,13.7
		c1,0.2,2.1,0.6,3.1,0.6c5.4-0.1,10.9-0.3,16.3-0.6c6.9-0.4,13.7-1,20.6-1.3c6.4-0.3,12.8-0.5,19.2-0.6c3.7-0.1,7.3,0.3,11,0.2
		c5.1-0.1,10.2-0.5,15.3-0.8c2.9-0.2,5.7-0.6,8.6-0.7c12.3-0.7,24.6-1.6,36.9-0.1c3.1,0.4,6.4,0,9.6-0.3c4-0.3,7.9-1,11.9-1.2
		c7.3-0.3,14.7-0.3,22.1-0.3c1.9,0,3.8,0.2,6.1,1.8c-1.6,0.2-2.5,0.3-3.3,0.3c-12.3,0.1-24.6,0.2-36.9,0.5
		c-6.9,0.2-13.7,0.7-20.6,1.1c-0.8,0-1.6,0.3-2.4,0.3c-9.3-0.3-18.5,0.4-27.8,0.8c-7,0.3-14.1,0.5-21.1,0.8
		c-12.6,0.6-25.2,1.3-37.8,1.9c-1.6,0.1-3.2,0.1-4.8-0.1c-8.5-0.8-16.9,0.9-25.2,2c-0.1,0-0.2,0.2-0.6,0.5c-0.9,2.1-0.5,4.5-0.3,6.9
		c0.2,2.4,0.4,4.8,0.8,7.1c0.4,2.4,1.2,4.7-1.2,6.6c-0.6,0.5-0.7,1.8-0.7,2.7c0,5.4,0.1,10.9,0.2,16.3c0.1,9.9,1.5,19.8,0.6,29.7
		c-0.2,1.7,0,3.5,0,5.3c-0.1,3.2,0.6,6,3.6,7.7c0.2,0.1,0.2,0.6,0.5,1.2c-2.5,2-2.5,4.9-2.4,7.9c0,0.9-0.5,1.7-0.8,2.9
		c-2.3-1.9-1.1-4.6-2.9-6.6c-0.8,0.1-1.9,0.2-2.9,0.5c-4.6,1.2-9.3,2.5-13.9,3.8c-1.8,0.5-3.7,1.1-5.4,1.9
		c-13.6,6.3-27.9,10.3-42.5,13.1c-1.2,0.2-2.6,0.9-3.4-0.7c-0.5-1,0.7-2.6,2.3-3.2c0.7-0.3,1.6-0.4,2.3-0.5c6.6-0.3,12.9-2,19-4.4
		c5.2-2,10.8-3,16.1-4.6c5.3-1.7,10.6-3.5,15.9-5.5c2.3-0.9,4.6-1.6,6-4.2c0.9-1.7,3.7-2.3,5.8-3.5c0.7-2.9,0.3-5.9-0.2-8.9
		c-1.8-10.8-1.3-21.7-1.7-32.5c-0.2-4.6,0.1-9.2,1.2-13.8c0.5-2.1,0.4-4.4,0.5-6.6c0.1-3.2,0.1-6.4,0.2-9.6c0.1-3-0.2-6-1-9
		c-0.9-0.1-1.5-0.2-2.1-0.2c-5.1,0.2-10.2,0.4-15.3,0.8c-7,0.5-14,1.1-21,1.6c0.7-0.4,1.3-0.9,2-1.3c-0.1-0.2-0.2-0.5-0.3-0.7
		c-1.4,0.4-2.8,0.8-4.2,1.1c0,0.3,0.1,0.5,0.1,0.8C498.2,1222.4,499,1222.4,499.9,1222.4z M510.1,1092.3c-5.3-4.1-11-4.9-17-4.2
		c-2.1,0.2-4.1,0.5-6.1,0.8c-1.1,0.2-2.3,0.4-3,1.1c-0.9,1-1.7,2.3-0.9,3.8c0.3,0.2,0.6,0.4,0.9,0.5c7.7,1.7,15.5,1.1,23.3,0.5
		C508.9,1094.7,509.6,1093.6,510.1,1092.3z M480.2,1090.7c-4.4-0.3-9,0.7-13.2,3c3.9,2.3,7.8,1.5,11.5,0.5
		C480.1,1093.8,480.5,1092.3,480.2,1090.7z M812.1,1088.5c-9.5-0.9-12.9-0.6-16.6,1.4C801,1089.5,806,1089,812.1,1088.5z
		 M486.6,1226.6c1.3,0.6,2.3,1.2,3.4,1.4c0.9,0.2,1.9-0.1,2.1-1.3c0.3-1.4-0.6-2.5-1.9-2.5C488.9,1224.3,487.8,1224.6,486.6,1226.6z
		 M503.3,1086.8c-2.3-0.7-4.5-1.1-6.7,0C498.8,1086.8,501.1,1086.8,503.3,1086.8z M901.6,1088.7c1.9,0,3.9,0,5.8,0
		C905.5,1087.7,903.5,1088.2,901.6,1088.7z"/>
	<path d="M258,878.2c-10.1,4-19.5,7.5-28.7,11.6c-11.7,5.1-23.2,10.8-34.9,16c-7,3.1-14.2,5.7-21.2,8.9c-6.8,3.1-13.5,6.6-20.2,10
		c-3.7,1.9-7.4,3.8-11.1,5.7c-7.3,3.6-14.6,7.2-22,10.6c-5.4,2.5-10.8,4.9-16.4,6.8c-8,2.8-14.9,7.3-22,11.6
		c-7.4,4.4-15,8.5-22.6,12.6c-1.8,0.9-3.9,1.4-6,1.4c-2.9,0.1-4.1-2.3-2.8-4.9c3.4-6.7,9.2-11,15.4-14.7
		c8.8-5.4,17.8-10.7,26.8-15.8c4.6-2.6,9.5-4.5,14.3-6.6c6.7-2.9,13.7-5.4,20.3-8.5c6.7-3.1,13.1-6.6,19.6-10
		c5-2.6,9.8-5.3,14.9-7.7c3.9-1.8,8.1-2.9,12.1-4.6c16.4-7.1,32.8-14.2,49.2-21.5c10.1-4.5,20-9.1,30.5-12.6
		c0.9-0.3,1.7-0.8,2.5-1.2c1.1-2.3,0.6-4.5,0.3-6.7c-0.9-6.4-0.9-12.7,0.2-19.1c0.2-1.4,0-2.9-0.3-4.3c-2.3-11.2-1.7-22.6-1.3-33.9
		c0.1-2.4,0-4.8,0.3-7.2c0.6-4.9,1.5-9.8,2.2-14.7c0.3-1.9,0.4-3.8,0.5-5.7c0.6-8.8,1.1-17.5,1.7-26.3c0.4-5.9,1.1-11.8,1.6-17.7
		c0.3-3.5,0.8-7,1-10.5c0.4-7,0.7-14,1-21.1c0.3-7.7,0.4-15.3,0.7-23c0-1.1,0.2-2.2,0.6-3.3c0.2-0.4,1-0.8,1.5-0.8
		c0.5,0,1.1,0.6,1.4,1c0.3,0.5,0.3,1.2,0.3,1.9c0.1,6.1,0.2,12.1,0.3,18.2c0,0.3,0.1,0.7,0,1c-2.4,10.9-1.5,22-2.5,32.9
		c-1.3,13.4-3,26.7-4.4,40c-0.9,8.4-1.7,16.9-2.1,25.3c-0.6,12.8-1.1,25.6-1,38.4c0.1,10.5,1.3,21.1,2,31.6c0,0.6,0.4,1.2,0.6,2
		c1-0.1,1.9-0.1,2.7-0.4c1.7-0.6,3.3-1.2,4.9-2c5.9-2.8,11.8-5.7,17.7-8.6c0.7-0.3,1.4-0.8,2.2-1c4.7-1.4,9.5-2.8,14.2-4.2
		c0.8-0.2,1.7-0.6,2.3-0.4c2.5,1.1,4.6-0.1,6.8-0.9c0.1,0.5,0.3,0.7,0.2,1c-0.3,2.7-0.1,3.2,1.9,3.3c2.4,0.1,4.8,0.1,7.2-0.2
		c8.1-1,16.3-1.3,24.4-0.2c2.3,0.3,4.5,0.2,6.6-0.8c3.8-1.8,7.7-1.9,11.7-1.3c3.2,0.4,6.3,0.2,9.5-0.1c7.2-0.7,14.4-0.6,21.5,0.9
		c2.9,0.6,5.5,0.4,8.4-0.4c3.3-0.9,6.9-0.5,10.4-0.5c2.9,0,5.7,0.3,8.6,0.2c6.9-0.3,13.8,0.1,20.5,1.6c2.6,0.6,5,0.7,7.5-0.1
		c3.1-1,6.3-0.9,9.5-0.6c2.5,0.3,5.1,0.4,7.6,0.5c6.2,0.3,12.5,0.4,18.7,0.8c4,0.3,8,0.8,11.9,0.1c0.9-0.2,1.9-0.3,2.9-0.2
		c9.9,0.6,19.8,1.1,29.7,1.9c3.7,0.3,7.3,0.7,11,0.1c1.2-0.2,2.5-0.2,3.8-0.2c10.1,0.4,20.1,0.9,30.2,1.3c0.8,0,1.6,0.1,2.4,0
		c12.1-1.2,24.3-0.7,36.4,0c1,0.1,1.9,0.2,2.9,0.1c12.1-1.2,24.3-0.8,36.4-0.9c1.3,0,2.5-0.2,3.8-0.3c1-0.1,1.9-0.5,2.8-0.5
		c8.3,0.1,16.6-1.2,24.9-0.4c2.5,0.2,5.1-0.2,7.6-0.5c2.5-0.2,5.1-0.6,7.6-0.9c4-0.3,8-0.6,12-0.8c1.3-0.1,2.7,0,4,0.8
		c-2.9,0.4-5.9,1-8.8,1.2c-8.6,0.5-17.2,0.9-25.8,1.2c-16.8,0.7-33.6,1.1-50.3,2c-12.2,0.7-24.3,0.3-36.4,0.1
		c-5.4-0.1-10.9,0.4-16.3,0.3c-14.9-0.2-29.7-0.5-44.6-0.8c-7.7-0.2-15.3-0.8-23-1c-10.9-0.4-21.7-0.6-32.6-0.9
		c-10.4-0.3-20.8-0.6-31.2-0.9c-2.7-0.1-5.4,0-8.2,0c-13.4-0.3-26.8-0.7-40.3-0.9c-4.3-0.1-8.6,0.1-12.9,0.3
		c-12.5,0.3-24.9,0.4-37.4,1c-11.3,0.6-22.6,1.6-33.9,2.5c-4.5,0.4-8.7,1.8-12.6,4.1c-10.8,6.3-22,11.7-33.7,16.2
		c-1.9,0.7-3.8,1.7-5.5,2.5c-0.1,0.8-0.3,1.3-0.3,1.7c1,5.7,2.2,11.3,2.9,17c0.6,4.4,0.7,8.9,0.7,13.4c0,14.4-0.2,28.8-0.4,43.2
		c-0.2,9.9-0.4,19.8-0.8,29.7c-0.4,9.5,0.7,18.8,2.3,28.1c1.2,7.1,2,14.3,2.4,21.4c0.8,13.6,1.5,27.1,1.8,40.7
		c0.3,13.6,0.1,27.2,0.1,40.8c0,1.4,0.2,2.9-1.5,3.9c-1.4-0.6-1.5-1.8-1.4-3.1c0.1-2.4,0.4-4.8,0.4-7.2c-0.1-13.1-0.5-26.2-0.6-39.3
		c-0.2-20-1.8-39.9-4-59.8c-0.1-1-0.3-1.9-0.5-2.8c-1.5-8.4-1.8-16.8-1.8-25.3c0-10.1,1-20.1,1.2-30.2c0.2-10.9-0.1-21.7-0.2-32.6
		c0-4.3,0.1-8.6,0.1-13c0-6.4-0.7-12.8-2.5-19C259.6,882.3,258.8,880.5,258,878.2z M202,897.9c3.4-0.3,6.3-1.3,8.5-4
		C207.4,894.7,204.5,896,202,897.9z"/>
	<path d="M828.7,578.3c-1.8-3.1-2.1-6.6-2.6-9.9c-0.5-3.4-0.5-6.9-0.8-10.7c-1.1-0.2-2.2-0.5-3.2-0.6c-15.3-1.1-30.7-0.8-46-0.5
		c-5.9,0.1-11.8,0.1-17.7-0.3c-11-0.7-22.1,0.1-33.1,0c-12.3-0.1-24.6-0.5-36.9-0.5c-8.2,0-16.3,0.5-24.5,0.5c-12,0-24-0.5-36-0.5
		c-7.5,0-15,0.5-22.5,0.5c-12.2,0-24.3-0.5-36.5-0.4c-7.7,0-15.3,0.6-23,0.8c-11.5,0.3-23,0.8-34.5,0.8c-6.3,0-12.4,0.6-18.7,1
		c-12.9,0.8-25.9,1.3-38.8,1.9c-10.8-2.6-21.2,1.2-31.9,1.4c-12.6,0.2-25.2,0.6-37.8-0.1c1-0.2,2.1-0.3,3.1-0.5
		c-3-0.6-5.8-0.7-8.8,0.3c-2.4,0.8-5,1.2-7.5,1.3c-13.6,0.4-27.2,0.5-40.8,0.8c-19.8,0.5-39.6,1.1-59.5,1.8c-1.6,0-3.1,0.4-5,0.6
		c-0.1,3.2-0.2,6-0.3,8.8c-0.2,7.7-0.7,15.3-0.6,23c0,5.1,0.7,10.2,1.1,15.3c0.3,3.8,0.5,7.7,0.6,11.5c0.1,1.9-0.1,3.8-1.6,5.3
		c-1.9-0.1-2.5-1.2-2.6-2.8c-0.1-3,0-6.1-0.3-9.1c-0.4-5.1-0.9-10.2-1.5-15.2c-0.1-1-0.6-2.4-1.3-2.9c-1.7-1.1-2-2.8-2.4-4.5
		c-1.3-5.2-1.5-10.4-1.6-15.7c0-1.7,0.7-2.7,2.3-3.2c0.6-0.2,1.2-0.4,1.7-0.5c1.1-3.1,1.3-6,1.2-9c-4.7-1-22.5,1.1-28.3,3.2
		c-0.3-0.8-1-1.6-1-2.4c0-0.6,0.8-1.4,1.4-1.7c1.1-0.5,2.4-1,3.7-1.1c6.4-0.2,12.7-2.1,19.1-0.6c0.8,0.2,1.6,0.1,2.4,0.1
		c2.4-0.1,3.2-0.6,3.7-3c0.8-3.9,1.2-7.9,0.1-12.1c-1.1-0.2-2.2-0.5-3.3-0.4c-4.3,0.2-8.6,0.5-12.9,1c-1,0.1-2.2,0.7-2.8,1.5
		c-1.2,1.5-2.7,1.6-4.3,1.6c-3.2-0.1-6.4-0.4-9.6-0.2c-9.1,0.6-18.2,1.3-27.2,2c-0.4,0-0.9,0.4-1.7,0.8c-0.1,1.5-0.4,3.2-0.4,5
		c-0.1,12.6-0.1,25.3-0.1,37.9c0,1.3,0.1,2.6-0.2,3.8c-0.2,1-0.7,2.1-2.1,2.1c-1.5-0.8-1.1-2.3-1.1-3.4c0.1-13.6,0.3-27.2,0.5-40.8
		c0-1.4-0.1-2.8-0.2-4.2c-2.3-1.1-4.4-0.2-6.4-0.4c-2-0.2-4.2,0.5-6.3-1.6c1-0.6,1.8-1.4,2.7-1.6c1.5-0.3,3.2-0.2,4.8-0.4
		c1.7-0.2,3.4-0.5,5.3-0.8c0.2-1.3,0.5-2.4,0.6-3.5c0.6-15.3,1.3-30.7,1.8-46c0.3-8.6,0.3-17.3,0.3-25.9c0-1.6-0.6-3.2-0.6-4.7
		c0-4.3,0.1-8.6,0.3-12.9c0-1,0.7-2,1.8-1.7c0.7,0.2,1.6,1.1,1.8,1.9c0.3,1.4,0.3,2.9,0.1,4.3c-0.6,5.6-0.5,11.2-0.2,16.7
		c0.2,3.3-0.2,6.7-0.3,10.1c-0.2,5.8-0.3,11.5-0.5,17.3c-0.2,4.8-0.5,9.6-0.8,14.3c-0.1,2.4-0.2,4.8-0.3,7.2
		c-0.2,5.3-0.4,10.5-0.6,15.8c-0.1,1.6-0.1,3.2,0,4.8c0,0.6,0.4,1.2,0.5,1.6c0.3,0.3,0.4,0.4,0.6,0.4c0.1,0.1,0.3,0.2,0.4,0.2
		c0.6,0,1.3,0.1,1.9,0.1c19.2-1.9,38.4-3.9,57.9-5.9c0.3-1.3,0.6-2.3,0.7-3.4c0.2-2.9,0.4-5.7,0.4-8.6c0.1-12,0.4-24,0.2-36
		c-0.2-10.3,0.7-20.4,1.3-30.6c0.1-1.7,0-3.5,0-5.4c-5.1-2.6-10.5-4.7-15.7-9.2c4.9,1.6,8.5,3.6,12.3,5.2c2,0.9,4.1,1.6,6.2,2.4
		c0.4,0.2,1,0.1,1.3,0.4c3,2.5,6.8,3.6,10.3,4.9c2.4,0.9,4.9,1.3,7.4,2c1.5,0.4,1.6,0.4,2,2.8c-6.6-0.4-12.1-4.1-18-5.6
		c-0.3,0.2-0.4,0.3-0.5,0.4c-0.1,0.1-0.2,0.2-0.3,0.4c-0.1,0.6-0.3,1.2-0.4,1.9c-0.6,8.9-1.6,17.8-1.8,26.8
		c-0.4,16.5-0.5,32.9-0.6,49.4c0,0.4,0.3,0.9,0.5,1.6c0.7,0.1,1.4,0.5,2.2,0.5c4.6,0,9.3,0.1,13.9-0.1c2.9-0.1,5.8-0.2,8.6-0.8
		c4.3-0.9,8.5-1.2,12.8-1.3c8.6-0.2,17.2-0.7,25.9-0.9c3.8-0.1,7.6,0.3,11.5,0.4c1.3,0,2.5-0.2,3.8-0.4c2.7-0.4,5.3-1,8-1.1
		c15-0.7,30-1.4,45-2.1c10.4-0.5,20.8-0.9,31.1-1.6c17.1-1.1,34.1-2.5,51.2-3.6c11.8-0.8,23.6-1.4,35.4-2.1
		c15.3-0.9,30.6-1.8,46-2.5c11.5-0.5,23-0.6,34.5-0.7c14.9-0.1,29.7-0.1,44.6,0.1c16,0.3,32,0.9,47.9,1.4c8.5,0.3,16.9,0.5,25.4,0.7
		c9.7,0.3,19.5,0.7,29.2,0.9c10.9,0.2,21.7,0.1,32.6,0c9.9,0,19.8,0.1,29.7-0.1c4.1-0.1,8.3-0.7,12.4-1c1.6-0.1,2.6-0.9,3.4-2.3
		c0.6-1.1,1.3-2,2.4-3.6c0.6,1.4,1.3,2.2,1.3,2.9c-0.4,4.7,0.8,9.2,1.6,13.7C828.8,553,828.7,565.6,828.7,578.3z M817.6,533.3
		c-1.7,0.1-3.3,0.2-4.9,0.3c-1.6,0.1-3.2,0.3-4.8,0.4c-5.8,0.1-11.5,0.1-17.3,0.1c-16.3,0-32.6,0.3-48.9-0.4
		c-20.9-0.9-41.9-1.2-62.8-1.7c-18.7-0.5-37.4-1.1-56.1-1.3c-14.1-0.1-28.1,0.1-42.2,0.5c-13.6,0.3-27.2,0.8-40.7,1.4
		c-6.2,0.3-12.4,0.9-18.7,1.2c-5.7,0.3-11.5,0.3-17.2,0.7c-12,0.8-23.9,1.7-35.9,2.5c-7.3,0.5-14.7,0-22,1.2c-2,0.3-4.1,0.6-6.2,0.7
		c-15,0.6-30,2.5-45,1.9c-1.6-0.1-3.2,0.2-4.8,0.4c-7.3,0.5-14.7,0.9-22,1.6c-14,1.4-28.1,0.4-42.1,1.7c-14.6,1.4-29.4,1.4-44.1,2.1
		c-4.3,0.2-8.6,0.7-12.9,1.1c-2.8,0.3-3.4,0.9-3.5,3.6c-0.1,2.6,0,5.1,0.2,7.7c0.2,3,1.4,3.9,4.3,3.7c3.8-0.3,7.6-0.9,11.4-1.1
		c7.8-0.4,15.7-0.7,23.5-0.8c11.7-0.1,23.3-1.6,35-0.5c0.5,0,1,0,1.4-0.1c11.2-0.4,22.3-0.9,33.5-1.2c9.6-0.2,19.2,0,28.8-0.2
		c14.4-0.4,28.8-0.9,43.1-1.4c5-0.2,9.9-0.4,14.8-0.6c2.6-0.1,5.1-0.1,7.7-0.2c13.1-0.6,26.2-1.2,39.3-1.8
		c5.9-0.3,11.8-0.4,17.7-0.6c15.3-0.4,30.7-0.9,46-1.3c5.1-0.1,10.2,0.4,15.3,0.1c14.9-0.8,29.7,0.7,44.6,0c19.5-0.9,39,0.6,58.5,0
		c9.7-0.3,19.5-0.1,29.3-0.1c3,0,6.1,0.3,9.1,0.4c5.1,0.1,10.2,0.2,15.3,0.2c6.4,0,12.8,0,19.2,0c2.2,0,4.5,0,6.7,0
		c2.9-0.1,5.7-0.3,8.6-0.2c13,0.1,25.9,0.3,38.8,0.4c1.3,0,2.9,0.5,4.3-1.2C819.1,546.5,820.2,539.7,817.6,533.3z M320.7,561.5
		c2,0.7,4,0.8,6,0c-1.4-0.3-2.8-0.4-4.2-0.3C321.9,561.2,321.3,561.4,320.7,561.5z M822.9,535.2c0.1-0.3,0.3-0.4,0.2-0.6
		c-0.1-0.3-0.2-0.6-0.3-0.9C822.8,534.2,822.8,534.6,822.9,535.2z"/>
	<path d="M836.8,934.2c-1.8-3.9-3.7-7.8-5.3-11.8c-5.4-14-10.6-28.1-15.9-42.1c-0.5-1.3-1.2-2.5-2.3-4.9c-0.2,1.8-0.5,2.5-0.4,3.1
		c1,6.3,2,12.6,2.9,19c0.2,1.1,0.4,2.2,0.5,3.3c1,8.4,1.8,16.8,3.1,25.2c1.4,8.5,2.3,17.1,5.3,25.3c0.9,2.4,1.1,5,1.6,7.5
		c0.6,2.9,1.4,5.5,3.9,7.7c2.9-2.4,2.9-5.6,2.9-9.1c0.7,0.5,1.3,0.7,1.3,1c0.1,3.5,0.2,7,0,10.5c-0.1,1.8-2.1,2.8-3.5,1.7
		c-1.6-1.2-3.3-2.7-4.1-4.5c-3.5-7.7-6.9-15.5-8.2-24c-2.3-14.9-4.5-29.7-6.7-44.6c-0.3-1.9-0.8-3.7-1.3-6.3
		c-1.6,2.2-1.6,4.1-1.9,5.8c-1.1,7.1-1.9,14.3-3.1,21.3c-1.9,11-3.7,22.1-6.3,33c-2.4,10.3-5.6,20.4-10.2,29.9
		c-2.7,5.6-6,10.9-9.2,16.6c0.6,0.1,1.4,0.5,2.2,0.3c1.7-0.3,3.4-0.9,5.1-1.4c6.7-2.1,13.4-4.1,20.1-6.3c5.6-1.8,11.2-3.9,16.8-5.7
		c1.8-0.6,3.6-1.3,5.9-0.2c-0.8,0.9-1.3,1.7-2,2.1c-2.2,1-4.4,2-6.6,2.7c-11.2,3.7-22.5,7.4-33.7,11.1c-0.9,0.3-1.8,0.6-2.8,0.7
		c-5,0.4-9.8,1.5-14.3,3.8c-0.4,0.2-0.9,0.1-1.4,0.1c-0.3,0-0.5-0.3-0.8-0.5c-0.5-1.3,0-2.3,1.1-2.8c5.9-3,9.1-8.9,13.9-13.1
		c0.9-0.8,1.4-2.1,1.8-3.3c2.2-6,4.5-12,6.6-18c5-14.6,7.6-29.7,10.4-44.8c1.6-8.5,2.6-17.1,3.8-25.6c0.2-1.4,0.1-2.8,0.2-5.1
		c-1.3,1.2-1.9,1.9-2.6,2.4c-3.1,2.4-6.2,2.3-9.1-0.2c-2.7-2.3-4.8-5.3-5.7-8.7c-1.5-5.9-4.2-11.4-6.3-17c-1-2.6-1.7-5.1-1.6-7.9
		c0.1-4-0.8-7.9-2-11.6c-5.6-2-10.3-2-19.9-0.2c-0.1,0.3-0.3,0.7-0.2,0.8c3.2,4,4.4,8.8,6.1,13.5c1.2,3.3,1.5,6.8,1.4,10.4
		c-0.1,4.1,0.1,8.3,0.7,12.4c0.4,2.6,1.8,5,2.9,7.5c0.4,1,1.3,1.8,1.8,2.8c0.5,0.9,0.5,2.1-0.6,2.5c-0.7,0.3-1.8,0.1-2.6-0.2
		c-0.5-0.2-1-0.8-1.3-1.4c-1.6-3-3.3-5.9-3.5-9.4c-0.3-4.8-0.8-9.6-0.8-14.4c0-9-3.2-16.6-9.4-22.9c-5.4-5.6-11.3-10.7-18.4-14.3
		c-1.8-0.9-3.5-2.2-5.5-3.5c0.9-1.2,1.5-2,2.1-2.8c0.6,0.2,1.1,0.2,1.5,0.5c7.3,4,14.2,8.6,20.4,14.2c1.8,1.6,3.6,2.5,6,2.4
		c5-0.2,9.9-0.1,14.9-0.2c1.2,0,2.4-0.5,3.8-0.8c0-2.5-0.1-4.7,0-6.9c0.3-6.7,0.6-13.4,0.9-20.1c0.1-1.7,0.3-3.5,0.7-5.2
		c1.1-4.3,4.5-5.5,8-2.9c2,1.5,3.2,3.5,4.4,5.6c4,7.2,6.4,15,9.6,22.4c1,2.3,1.4,4.9,4.3,6c0.6,0.2,1,1.5,1.3,2.4
		c1.1,3,2.1,6,3.2,9.2c6.4,0.6,12.6,0.4,18.9-0.1c0.1-1.3,0.4-2.2,0.3-3.1c-0.5-2.5-0.9-5.1-1.8-7.4c-1.6-4.4-2.9-8.8-4-13.3
		c-1.4-5.8-4.7-10.8-8-15.7c-0.7-1.1-2.1-1.8-3.8-2.2c0.2,0.8,0.2,1.8,0.8,2.3c2,1.6,2.1,3.4,0.8,5.6c-2.7-0.1-4.6-1.3-5.5-3.8
		c-0.8-2.4-1.1-5,0.6-7.3c1.2-1.7,3.2-2.3,5.1-1.5c1,0.4,2,1,2.8,1.8c4.1,4.3,7.5,9.1,9,15c0.5,2.1,0.1,4-0.2,6
		c-0.3,2.5,3.1,2.5,3.6,4.7c1.3,5.4,3.8,10.6,2.5,16.7c4.8,2.1,9.1-0.9,13.5-0.3c1.2-2.6,1.4-5,1.7-7.3c0.8-6.5,1.2-13.1,2.2-19.5
		c1-6.6,0.6-13.1,0.1-19.6c-0.1-1.9-0.3-3.8-0.3-5.7c0-0.9,0.1-1.9,0.5-2.8c0.4-1,1.2-2.2,2.5-1.6c0.6,0.3,1,1.5,1.1,2.4
		c0.5,4.9,0.7,9.9,1.2,14.8c0.1,1.4,0.6,2.8,1.1,4.1c1.4,3.2,2.8,6.5,4.4,9.6c1,1.8,2.2,3.7,3.7,4.9c3.5,2.8,5.8,6.3,8,10.1
		c3.4,5.7,3.4,7,0.8,13c3.8,3.1,8.3,2.7,12.8,2.5c0.9,0,2-1.1,2.4-2c2.3-4.9,5.4-9.4,6-15.1c0.4-3.8,2.2-7.3,4-10.7
		c2-3.8,3.6-7.8,5.3-11.8c2.4-5.6,4.6-11.3,6.9-16.9c0.6-1.4,1.5-2.8,2.5-4.4c1,0.5,2,0.8,2.6,1.4c1.4,1.4,1.5,3-0.1,4.1
		c-3.7,2.5-5.2,6.4-6.7,10.2c-5.5,13.8-10.9,27.7-16.3,41.5c-0.3,0.9-0.5,1.8-0.7,2.9c4.5,1.6,9.1,0.1,13.6,1.8
		c-0.1,0.9-0.3,1.9-0.4,3.3c-5.1,0-10,0-14.7,0c-3.6,4.9-4.7,9.8-3.8,15.1c1.2,6.9,2.6,13.8,2.5,20.9c0,1.7,0.5,3.5,0.8,5.2
		c0.3,1.7,0.7,3.5,0.7,5.2c0,12.3,3.2,24,5.4,36c0.8,4.3,2.1,8.3,3.6,12.4c1.5,3.9,2.3,8,3.5,12c0.1,0.5,0.2,0.9,0.2,1.4
		c0.3,4.4-1,5.9-5.4,5.8c-1.1,0-2.2-0.1-3.3-0.3c-1.5-0.3-3-0.7-5.3-1.2c3-1.8,5.7-0.6,8.6-1.4c-5.6-0.4-10.7-1.2-15.6-0.9
		c-5.6,0.3-11.1,1.5-16.6,2.5c-7.2,1.4-14.3,3.1-21.1,6.1c-2.4,1.1-5.5,0.7-8.4,0.5c1.7-0.8,3.3-1.8,5.1-2.5
		c6.1-2.3,12.3-4.6,18.5-6.7c5.8-2,11.9-2.2,18-1.9c5.1,0.2,10.2,0.9,15.3,1.4c2.2,0.2,4.4,0.6,6.7-0.1c0.8-2.2,0-4.2-0.9-6
		c-4.5-8.6-6.1-18.1-8.4-27.4c-0.3-1.2-0.4-2.5-0.3-3.8c0.4-6.6-0.9-13-2.1-19.5c-1.2-6.3-2.7-12.5-2.6-19c0.1-3-1.6-5.4-3.7-7.6
		c-1.6,1.2-1.9,3-2.4,4.6c-2.6,8.1-5.1,16.2-7.8,24.2c-2.2,6.7-4.6,13.3-6.9,19.9c-1.2,3.5-2.7,6.9-4,10.3
		c-1.5,3.7-2.9,7.5-5.8,10.4c-1.2,1.3-1.6,2.7-1.7,4.3c-0.2,2.2-0.5,4.5-0.9,6.6c-0.2,0.8-0.8,1.7-1.5,2.3c-0.9,0.7-1.9,0.3-2.4-0.6
		c-0.4-0.7-0.5-1.5-0.6-2.3c-0.9-7.6-1.7-15.2-2.5-22.9c-0.4-3.3-0.7-6.7-1.1-10c-0.1-0.6-0.4-1.1-0.8-2.3c-0.7,2.3-1.2,3.9-1.7,5.6
		c-3.2-0.1-3.6-2.5-4.4-4.5c2.8-0.1,3.9-1.9,4-4.4c0.1-1.3-0.2-2.5-0.2-3.8c-0.2-5.1-0.5-10.2-0.5-15.3c0-3.8-0.2-7.6-1.3-11.4
		c-0.7-2.3-1.4-4.6-1.5-7c-0.5-9-3.3-17.5-4.5-26.3c-0.4-2.8-1.2-3.2-4.2-3.5c-4.3-0.5-7.2,2.1-10.3,4.3c-2.6,2-2.8,2.6-1.7,5.7
		c2.3,6.1,4.7,12.2,6.9,18.3c1.1,3.1,1.9,6.4,2.8,9.6c0.8,2.7,1.4,5.6,2.5,8.2c1.2,3,3,5.7,4,8.7c0.9,2.7,0.6,5.7,1.5,8.3
		C835.1,928.5,836.9,931,836.8,934.2z M848.5,953.9c3.9-0.1,5.6-2.4,6.9-5.6c2.9-7.1,6-14.1,9.1-21.1c1.8-4.1,3.3-8.3,4-12.8
		c0.2-1.1,0.5-2.2,0.9-3.2c3.2-9.7,6.5-19.4,9.8-29.1c1-3,2.2-6,1.1-9.3c-0.3-1,0-2.2,0.1-3.2c2.4-1.6,5.8-2.4,4.7-6.7
		c-1.1-0.1-2.3-0.4-3.5-0.5c-9.6-0.1-19.2-0.2-28.8-0.2c-1.4,0-2.7,0.3-4.3,0.5c-0.5,3-1,5.7-1.3,8.4c-1.2,10.8-2.2,21.6-3.5,32.4
		c-0.4,3.2-0.3,6.3,0.3,9.5c1.1,6.3,2,12.6,2.7,19c0.7,6.7,1,13.4,1.5,20C848.2,952.7,848.4,953.3,848.5,953.9z M784.9,846
		c-2.1,2.7-2.3,2.7-2,5.3c0.4,3.5,0.9,7,1.5,10.4c0.7,3.4,1.8,6.8,2.4,10.2c1.1,6.7,4.9,12,8.9,17.2c0.4,0.5,0.9,0.9,1.4,1.3
		c2.9,2.3,4.8,2,6.3-1.5c1.3-3.1,2.3-6.3,3.5-9.4c2.2-5.7,1.5-11.2-0.5-16.7c-2.2-0.7-4.3-1.4-6.2-2c-0.4-3.8,3.3-3.2,4.8-5.4
		c-0.6-1.9-1.1-4.1-1.9-6.1c-2.9-7.6-5.7-15.2-8.9-22.7c-1.7-4-3.8-7.7-5.9-11.5c-0.9-1.6-2.3-3.1-4.8-2.6c-1,3.9-2.1,7.7-3.1,11.5
		c-0.2,0.6-0.1,1.3-0.1,1.9c0.3,5.3,0.4,10.5,1.5,15.7C782.4,843.5,782.7,845.4,784.9,846z M870.8,851.2c-3-9.4-9.9-16-15-23.7
		c-0.6-0.9-1.3-1.6-2.1-2.6c-1.3,4.3-3.5,24.7-3,28.5C857.5,854.8,864.3,856.1,870.8,851.2z M840.6,891.4c4-7.7,3.6-16,4.6-24.2
		c0.2-1.4,0-2.8,0-4.3c-3-0.8-5.7-0.7-8.4-0.3c-1.5,0.2-2.1,1.3-1.8,2.8c0.2,0.8,0.4,1.5,0.7,2.3c2.2,5.2,3.2,10.6,4,16.2
		C840,886.4,840.3,888.9,840.6,891.4z M816.6,863.4c-0.1-0.3-0.2-0.5-0.3-0.8c-0.7,0.2-1.5,0.4-2.2,0.6c0.2,0.4,0.4,0.7,0.5,1.1
		C815.2,864,815.9,863.7,816.6,863.4z"/>
	<path d="M642.7,804.2c0.3,1.7,0.7,3.4,1,5.1c0.5,2.4,1,3,3.4,3.3c1.3,0.1,2.6,0.1,3.8,0.1c8,0,16,0.1,24,0c2.9,0,5.7-0.3,8.6-0.5
		c1.9-0.1,3.8-0.4,5.7-0.5c7.3-0.4,14.7-0.7,22-1.1c1.6-0.1,3.3-0.4,4.8,0c2.7,0.7,4.6-0.4,6.5-2c3-2.4,6.1-4.7,9-7.1
		c2.9-2.4,6.2-3.9,9.7-5.2c3.2-1.1,6.3-2.3,9.4-3.5c1.9-0.8,3.7-1.8,5.5-3.8c-1.6-0.5-2.7-1.1-3.9-1.2c-6.3-0.7-12.7-1.3-19-2.1
		c-9.7-1.2-19.4-1.5-29.1-2.2c-3.3-0.2-6.6-1.1-10.1-1.7c-1.5,4.3-0.2,9-1.7,13.4c-0.1-0.7-0.2-1.4-0.2-2.2c0.1-2.7,0.1-5.4,0.4-8.1
		c0.2-1.9,0.4-3.7-0.7-5.5c-0.5-0.7-0.7-2-0.3-2.7c1.9-3.8,1.3-7.8,1.4-11.8c0-1.4,0-2.9,0.5-4.3c0,1.8-0.1,3.6,0,5.4
		c0.1,1.8-0.4,3.8,0.8,5.8c0.8-0.5,1.5-0.8,2.1-1.2c2.1-1.5,4-3.2,6.1-4.6c3.7-2.4,7.5-4.9,11.4-7c4.5-2.4,9.1-4.6,13.8-6.7
		c5-2.2,10-4.2,15.1-6.1c1.3-0.5,2.8-0.6,4.2-0.6c2.2,0,4.4,0.3,6.7,0.5c2.4,0.2,3.7,2,2.6,4c-2,3.7-5,6.4-8.8,8.1
		c-1.3-1.6-0.5-2.5,0.2-3.3c1.2-1.4,2.5-2.7,4.2-4.6c-1.5-0.3-2.2-0.5-2.9-0.5c-5.3,0.3-10.5,0.8-15.2,3.6c-0.4,0.2-0.9,0.4-1.3,0.6
		c-11.3,3.5-20.7,10.5-30.6,16.6c-1.6,1-3.1,2.3-4.5,3.6c-0.7,0.6-1,1.5-1.6,2.5c1.1,0.6,1.8,1.2,2.7,1.4c10.5,2,21.1,3.7,31.9,3.2
		c5.9-0.3,11.8,0.5,17.6,1.4c3,0.5,6,0.8,9,1.3c1.6,0.3,3.2,0.6,4.6,1.2c2.1,0.9,2.4,3,0.7,4.7c-0.6,0.6-1.2,1-1.9,1.4
		c-3.3,1.6-6.6,3.3-10,4.6c-9.4,3.7-18.1,8.7-26.3,14.7c-2.9,2.2-4.9,4.9-5.2,8.8c-0.2,1.8,0.3,3.2,1.7,4.1c1.6,1.1,3.3,2,5.9,3.6
		c-1.9-0.2-2.8-0.1-3.5-0.5c-2-1-4.2-1.9-5.7-3.4c-1.8-1.8-3.4-2.2-5.9-1.5c-3,0.8-10-1.5-12-3.6c-2.3-2.5-5.1-3.6-8.4-3.5
		c-10.6,0.2-21.1,0.5-31.7,0.6c-3.2,0.1-6.4-0.1-9.6,0c-1.6,0-3.1,0.4-4.6,0.7c-0.3,0-0.6,0.4-0.8,0.3c-5.8-1.7-11.7-0.5-17.5-0.8
		c-5.9-0.2-11.8,0-17.7,0c-5.9,0-11.8,0.1-17.7,0.2c-5.9,0-11.8,0-17.8,0.1c-1.7,0-3.5,0.2-5.5,0.3c-0.2,1.4-0.5,2.6-0.6,3.8
		c-0.1,1.2,0,2.4-0.6,3.7c-0.4-2.3-0.8-4.5-1.1-6.9c-0.8-0.3-1.3-0.7-1.9-0.7c-4.5-0.2-8.9-0.3-13.4-0.3c-2.7,0-4.9,0.7-6.5,3.2
		c-1.6,2.4-3.9,4.2-7.7,3.8c0.5-0.9,0.8-1.4,1.1-2c-1.5-3.8-4.4-4.9-8.3-4.8c-6.1,0.2-12.1-0.1-18.2-0.2c-1,0-1.9-0.1-2.9,0
		c-12.9,0.9-25.9-0.1-38.8,0.1c-3.9,0-7.9,0.1-11.8,0c-3.8-0.1-7.7-0.2-11.5-0.3c-4-0.1-8-0.1-12-0.1c-3.8,0-7.7-0.1-11.5-0.1
		c-4,0-8,0-12,0c-19.2,0-38.4-0.1-57.6-0.1c-4.1,0-8.3-0.3-12.3,1.1c-0.6,0.2-1.2,0-1.8,0c-7.9-0.1-15.6,1.3-23.2,2.8
		c-0.4,0.1-0.8,0.4-2,1c7,1.4,13.6-0.8,19.7,0.9c0.4,2-1,2.6-2.1,3c-4.2,1.4-8.5,2.7-12.8,3.9c-7,1.8-14,3.4-21,5.1
		c-0.7,0.2-1.2,0.7-1.6,1.8c2.7,0,5.3,0,8,0c12.3,0.1,24.6,0.2,36.9,0.3c6.8,0.1,13.3-1.1,19.8-2.9c0.6-0.2,1.2-0.2,1.9-0.3
		c0.3,1.8-0.7,2.7-1.9,3.1c-2.3,0.8-4.6,1.5-6.9,1.7c-9.7,0.5-19.5,0.9-29.2,0.9c-9.6,0-19.2-0.6-28.8-0.9c-2-0.1-4.2,0.1-5.7-1.9
		c0.6-2.2,2.5-2.4,4.1-2.9c6.8-1.9,13.6-3.6,20.4-5.4c2.8-0.7,5.5-1.4,8.5-2.2c-0.7-1.6-1.9-1.4-2.8-1.4c-4.5,0-9,0.4-13.4,0.1
		c-11.2-0.6-22.3,0.8-33.4,1.9c-1.4,0.1-2.8,0-5.3-0.1c1.5-1.3,2.1-2.1,2.7-2.2c3.3-0.4,6.7-0.4,10-0.9c8.7-1.1,17.4-2.5,26.1-3.6
		c9.2-1.2,18.4-2.2,27.6-3.3c1.6-0.2,3.1-0.7,4.6-1c0.3-0.1,0.6-0.5,0.8-0.5c3.8,1.2,7.6-0.3,11.4,0.1c3,0.3,6.1-0.1,9.1-0.1
		c2,0,2.9-1,3.4-3c0.2,2,1.2,3.2,3.2,3.3c3.5,0,7,0.1,10.5,0c1.6,0,3.2-0.4,4.8-0.4c6.7,0.1,13.4,0.3,20.1,0.3
		c4.9,0,9.9-0.2,14.8-0.3c2.4,0,4.8-0.2,7.2-0.1c7,0.2,14.1,0.6,21.1,0.7c5.3,0.1,10.5-0.1,15.8-0.3c1.3-0.1,2.6-0.8,3.9-1.2
		c1,0.5,2.2,1.5,3.4,1.6c6.1,0.2,12.1,0.1,18.2,0c0.3,0,0.6-0.3,1.2-0.5c1.2-3.8-0.1-8,0.7-13c0,2.6-0.1,4.3,0,6
		c0.1,1.6,0.1,3.2,0.5,4.8c0.6,2.5,1.3,3.1,4,3.1c4-0.1,8-0.4,12-0.4c8,0,16,0.2,24,0.3c6.2,0.1,6.9-0.6,7.1-6.7
		c0.1-2.9,0-5.8,0-8.6c0-0.4-0.2-0.9-0.5-1.7c-4-0.2-8.1-0.4-12.2-0.6c-2.4-0.1-4.8,0-7.2-0.2c-0.7-0.1-1.6-1-1.9-1.8
		c-0.5-1.1,0.5-1.9,1.4-2.1c1.8-0.5,3.7-0.9,5.6-1.1c3.6-0.5,7.3-0.9,10.9-1.4c1.6-0.2,3.1-0.6,4.6-0.9c1.5-3.4,1.6-6.7,1.9-10.1
		c0.5-5.6,1.1-11.1,1.4-16.7c0.2-3.2,0-6.4-0.5-9.5c-0.4-3.1-1.6-3.6-4.7-2.7c-1.4,0.4-2.7,0.9-4,1.6c-7.4,3.8-13.2,9.5-18.1,16.2
		c-0.9,1.2-1.2,2.4-0.6,4c0.9,2.3,0.3,3.3-1.4,4.5c-1.1,0.7-2.4,1.4-3.5,0.5c-0.7-0.6-1.1-2-0.9-2.9c0.2-1.5,0.6-3.2,1.4-4.5
		c1.3-2.2,2.8-4.3,4.5-6.2c2.1-2.4,3.2-5,3-8.2c-0.2-4-0.1-8,0.1-12c0.9,4.6-0.5,9.5,1.1,14c0.5,0.1,0.9,0.4,1.1,0.3
		c3.3-2.4,7.1-4.1,10.1-7.1c3-3.1,7-4.4,11.3-4.6c2.1-0.1,2.8,0.6,3.3,2.7c2,8.7,1.8,17.4,0.9,26.2c-0.3,3-0.8,6-1.1,9
		c-0.2,1.7-0.4,3.5,0.8,5.4c7.6,0.1,15.1-1.8,22.7-2.2c1.5-2.6,0.7-5.1,0.6-7.7c-1.2-0.5-2.4-1-4.1-1.7c1.6-0.6,2.6-1,3.9-1.5
		c0-1.9,0-3.9,0-5.9c0.2,0,0.4,0,0.5,0c0.1,0.9,0.1,1.8,0.2,2.7c0.3,3.6,0.7,4.3,4.2,4.4c5.6,0.1,11.1,0.6,16.9-0.3
		c1.1-3.1,0.3-6.1,0.4-9.1c0.1-3,0-6.1,0.4-9.1c0.1,4,0.2,8,0.3,12c0,1,0,1.9,0.1,2.9c0.3,3.3,0.9,3.9,4.1,3.9
		c6.2,0,12.4-0.1,18.8-0.2c0.5-1.9,0.9-3.5,1.4-5.7c0.5,2.1,0.8,3.6,1.2,5.5c5,0.1,9.9,0.4,14.8-0.1c2.1-0.2,4.1-0.4,6.2-0.3
		c4.9,0.2,5.4-0.3,5.4-5.3c0-4.3,0-8.6,0.6-12.9c0,5.7,0,11.4,0,17.1c3.5,2,7.2-0.2,11.4,1.8c-4.3,0.2-7.6,0.3-10.6,0.5
		c-1.6,2.3-0.5,4.4-1,7c-0.3-2.4-0.6-4.3-0.8-6.3c-0.8-0.3-1.4-0.6-2-0.6c-6.9,0-13.7,0.1-20.6,0.1c-1.9,0-3.6,0.2-3.9,3.9
		c-1.4-2.7-2.7-3.3-4.6-3.6c-5.8-0.7-11.5-0.2-17.2,0.3c-3.2,0.3-6.4,0-9.5-0.4c-4.9-0.7-9.8-0.3-14.7,0.3c-1.4,2.5-0.7,4.8-0.2,7.4
		c1.8,0,3.5,0,5.2,0c0.5,2.5,0,3.7-1.9,4.1c-1.4,0.3-2.8,0.5-4.3,0.5c-6.9-0.2-13.7,0.7-20.4,2.2c-1.4,0.3-2.8,0.5-4.6,0.8
		c-1.1,5.6-2.2,11.2-3.2,16.8c-0.2,1.2,0,2.4,0.1,3.9c1.3,0.1,2.2,0.3,3.1,0.1c7.9-1.3,15.9,1.2,24.2-0.9c0-3.3,0-6.6,0-9.9
		c1.1,2.3,0.7,4.5,0.7,6.8c0,3,0.5,3.7,3.6,3.9c5.4,0.3,10.8,0.9,16.3-0.1c1.6-0.3,3.2-0.4,4.8-0.3c11.8,0.1,23.7,0.4,35.5,0.4
		c4.9,0,9.9-0.5,14.8-0.9c0.6,0,1.2-0.4,1.9-0.6C642.8,809.2,642.8,806.7,642.7,804.2L642.7,804.2z M716.5,814.3
		c-3,0.1-5.2,0.2-7.3,0.4c-0.6,0.1-1.1,0.6-2.1,1.3c2,0.6,3.4,0.9,4.6,1.5c1.1,0.6,2.1,1.5,3.5,2.5
		C715.6,818.2,715.9,816.7,716.5,814.3z"/>
	<path d="M234.8,1046.1c1.2,3.8,2.1,7.6,1.7,12.1c-0.9-0.7-1.5-1.2-2.2-1.7c-1.5,3.9,0,7.6,0.8,11.2c0.2,0.8,1.2,1.5,1.9,2
		c1.8,1.4,1.8,3.2,1,5.5c-0.8-0.5-1.7-0.8-2-1.4c-0.7-1.2-1.4-2.6-1.7-3.9c-1.2-5.8-2.3-11.6-3.2-17.4c-1.7-11.8-3.2-23.7-3.7-35.7
		c-0.1-1.4-0.3-2.8-0.5-4.4c-1.8,0.9-1.7,2.2-1.9,3.4c-1.6,8.5-2.9,17-4.7,25.4c-1.9,9.1-4.2,18-6.1,27.1c-0.6,2.9-0.6,6-0.6,9
		c0,2.2,0.8,3.8,3.3,4.6c3.1,1,3.3,2.4,0.9,4.8c-1.3,1.3-2.9,2.5-4.5,3.5c-3.2,2.1-6.5,4.1-9.8,5.9c-1.9,1-4.1,1.7-6.1,2.5l0.1,0.1
		c1.8-1.5,3.6-3.1,5.6-4.4c3.3-2.3,6.7-4.3,10.1-6.5c1-0.7,2-1.5,2.9-2.3c-1.3-1.5-2.8-2.5-3.4-4c-0.7-1.9-1-4.1-0.9-6.1
		c0.3-4,0.8-8,1.7-11.8c3.5-15.3,6.8-30.6,9.2-46.1c0.9-6,2.1-12,3.1-18c0.5-3.2-0.2-15.4-0.9-18.7c-1.7-1.2-3.3-0.4-4.9,0.3
		c-9.1,3.7-18.7,5.5-28,8.3c-7.8,2.4-15.9,3.7-22.9,8.1c-3.9,2.5-8.4,3.9-12.5,6.1c-5.6,3-11.1,6.3-16.7,9.4
		c-1.5,0.9-3.1,1.7-4.7,2.4c-0.7,0.3-1.7,0-3.3-0.1c1-1.2,1.4-2.2,2.1-2.5c3.6-1.6,6.5-4.1,9.4-6.6c1.2-1.1,2.5-2,3.8-2.9
		c4.5-3.3,9.1-6.5,13.7-9.7c1.7-1.2,3.5-2.3,5.3-3.3c7.7-3.9,14.9-8.6,21.8-13.9c4.6-3.6,10-6.3,15.1-9.1c3.9-2.1,14.2-8.2,17.4-11
		c-1.7,0.2-2.9,0.2-4,0.5c-9.4,2.7-18.8,5.3-27.2,10.4c-1.5,0.9-3.1,1.7-4.8,2.2c-7.2,2.1-13.4,6-19.4,10.2
		c-8.1,5.6-16.3,11.3-24.4,16.9c-1.2,0.8-2.4,1.6-3.7,2.2c-4.9,2.3-8.7,6.1-12.2,10c-2.7,3-2.8,7-2.5,10.9c0.1,1.6,0.5,3.2,0.8,4.7
		c0.7,3.8,0.7,7.6,0.7,11.4c0,6.2,0.8,12.4,1.2,18.6c0.2,3.8,0.4,7.7,0.6,11.5c0,0.7-0.2,1.4-0.3,2.6c-1.5-1.6-2-3.1-2.1-4.7
		c-0.4-4.5-0.8-8.9-1.1-13.4c-0.5-10.5-0.9-21.1-1.4-31.6c0-0.3-0.1-0.6-0.1-1c-0.1-2.4-0.3-4.8-3.7-5.7c1.1-1.8,2-3.3,2.6-4.4
		c-0.1-5.6-0.3-10.9-0.4-16.2c-0.1-5.8,0-11.5,0-17.3c0-1.8,0-3.5,0.1-5.3c0-1.3,0-2.8,1.7-2.9c1.4,0,1.6,1.4,1.7,2.5
		c0.7,4.1,0.7,8.2,0.6,12.4c-0.2,7,0.1,14,0.3,21.1c0,0.4,0.4,0.8,0.7,1.5c0.9-0.4,1.9-0.6,2.6-1.1c3.2-2.6,6.5-5.1,8.8-8.8
		c1.2-1.9,2.9-3.4,4.4-5c7.4-8.1,14.7-16.5,22.4-24.4c5.2-5.4,11-10.2,16.6-15.3c1.6-1.5,3.2-3.1,4.8-4.7c2.8-2.8,5.5-5.8,8.5-8.4
		c5.2-4.4,10.8-8.5,16.1-12.9c3.6-2.9,7.1-6,10.7-8.9c0.9-0.7,1.7-1.4,2.7-2c1.3-0.7,2.5-0.6,3.4,1.1c-0.4,0.6-0.6,1.6-1.3,2.2
		c-1.9,1.7-3.8,3.5-5.9,4.9c-5.6,3.9-11.5,7.5-17,11.5c-2.8,2-5.3,4.6-7.9,7c-1.1,1-2,2.1-3.1,3c-10.3,7.8-18.4,17.8-27.5,26.7
		c-6.2,6-11.9,12.5-17.8,18.7c-0.6,0.7-1.2,1.4-1.5,2.7c0.6-0.2,1.2-0.4,1.8-0.7c4.8-2.5,9.7-4.8,13.3-9c7.4-4.1,14.8-8.2,22.2-12.3
		c3.7-2,7.4-3.7,11.2-5.5c2.6-1.2,5.1-2.7,7.8-3.6c4.4-1.5,8.8-2.8,13-4.7c2.5-1.2,5.6-1.3,8.4-1.7c4.2-0.6,4.5-0.9,4.9-4.9
		c1-11.5,2.4-22.9,5.3-34.1c0.7-2.6,1.6-5.2,0.9-8.3c-1.1,0-2.2-0.3-3.2-0.1c-1.2,0.3-2.4,0.8-3.6,1.3
		c-15.1,6.2-30.1,12.4-45.2,18.6c-2.1,0.8-4.2,1.4-6.4,2.1c-2.2,0.7-4.3,1.6-4.8,4.2c-0.4,1.9-2.1,2.2-3.6,2.8
		c-7.5,3.1-15.1,6.1-22.6,9.3c-7.3,3.1-14.6,6.5-21.9,9.8c-2.2,1-4.4,1.8-6.6,2.8c-1.5,0.6-3,0.9-5.1,0.3c0.8-0.9,1.2-1.9,1.9-2.2
		c4.1-1.6,7.5-4.3,11.1-6.7c2.5-1.7,5.3-3,8.1-4.1c7.7-3.2,15.4-6.2,23.1-9.4c6.1-2.5,12-5.3,18.1-7.8c5.8-2.4,11.6-4.6,17.4-6.9
		c3.3-1.3,6.4-2.8,9.7-4.2c4.4-1.9,8.8-3.8,13.2-5.6c3.8-1.6,7.6-3.4,11.5-4.9c2.7-1,5.5-1.8,8.3-2.2c3.1-0.4,4.4,1.1,3.4,4
		c-2.2,6.2-2.5,12.8-3.9,19.2c-1.9,8.6-2.4,17.4-2.4,26.2c0,1,0,1.9-0.2,2.9c-1.6,6.7,0.3,13.3-0.3,20.8c1.4-0.9,2.5-1.1,2.7-1.7
		c0.9-2.6,1.9-5.2,2.2-7.8c1.3-10.8,2.9-21.6,2.4-32.5c0-0.6-0.1-1.3,0-1.9c1.6-8.4,0.1-16.9,1-25.3c0.3-2.7,0.8-5.3,1.3-8.5
		c1,0.7,1.9,0.9,2.1,1.4c0.3,0.9,0,1.9,0.1,2.8c0,1.6,0,3.2,0.3,4.8c1.1,5.9,1,11.8,0.4,17.7c-0.2,1.7-0.2,3.5-0.4,5.3
		c-0.4,3-0.8,6-1.2,9c-0.6,3.9-1.3,7.9-1.7,11.8c-0.5,5.2-0.6,10.5-0.9,15.8c-0.1,1.9,0,3.8,0.9,5.6c3.3,0.6,5.4-2,8.1-2.5
		c1.3,3.2,1.2,3.9-1.1,5.1c-1.5,0.9-3.2,1.6-4.8,2c-2,0.6-3,1.8-3.3,3.7c-0.4,2.8-0.9,5.7-1,8.5c-0.1,3,0.3,6.1,0.5,9.1
		c0.3,3.2,0.1,6.3-0.9,9.5c-1.4-5.1-1.2-10.2-0.7-15.4c0.3-3.3,0.3-6.7,0.4-10c0-0.9-0.4-1.7-0.7-2.8c-2.1,0.5-2.4,2-2.6,3.3
		c-0.7,4.1-1.3,8.2-1.8,12.3c-0.6,5.4-0.7,10.8,0,16.3c0.5,3.6,0.2,7.4,0.5,11c0.5,5.2,1.3,10.5,1.9,15.7c0.2,1.7,0.6,3.6,0.2,5.2
		c-0.9,4.3,0.1,5.5,2,9.4C234.8,1050,235.1,1048.1,234.8,1046.1L234.8,1046.1z M163.7,996.1c1.7,0.6,2.8,0,3.9-0.5
		c1.7-0.8,3.4-1.7,5.2-2.4c6.3-2.3,12.6-4.5,18.9-6.7c4.5-1.5,9-3.1,13.6-4.1c4.9-1.1,9.6-3.3,14.8-3.3c3.2,0,5.2-2.2,5.3-5
		c0.1-4.9-0.1-9.9-0.2-14.8c0-0.2-0.4-0.4-0.8-0.9c-0.9,0.4-1.8,0.9-2.8,1.4c-12,7.2-24.1,14.4-36.1,21.6c-6,3.6-12,7.3-17.9,11
		C166.3,993.4,164.7,994.2,163.7,996.1z M229.2,980.4c-0.3-0.1-0.5-0.1-0.8-0.2c-0.1,0.6-0.3,1.2-0.3,1.9c0,0.1,0.5,0.2,0.8,0.3
		C229,981.7,229.1,981,229.2,980.4z"/>
	<path d="M815.1,644.5c-0.6,0.5-0.8,0.9-1,0.9c-5.7,0.4-11.3,1.7-17.1,1.6c-11.2-0.3-22.4-0.3-33.6-0.6c-1.7,0-3.4-0.6-5.1-0.8
		c-1.2-0.2-2.5-0.5-3.7-0.3c-16.3,1.8-32.6,0.9-48.9,1.2c-2.4,0-4.7,0.2-7-0.9c-1-0.5-2.5-0.3-3.8-0.2c-16.7,1.8-33.6,0.8-50.3,1.1
		c-1.3,0-2.7,0.1-3.8-0.3c-3.1-1.3-6.3-0.8-9.5-0.5c-4.3,0.3-8.6,0.7-12.9,0.8c-10.9,0.4-21.7,0.7-32.6,0.8c-2.2,0-4.7,1.1-6.4-1.5
		c-1.7,0.1-3.6-0.2-5.2,0.3c-2.8,0.9-5.6,1.1-8.5,1.2c-13.8,0.2-27.5,0.3-41.3,0.4c-1.4,0-2.9,0-4.3-0.5c-2.8-1-5.6-0.8-8.5-0.5
		c-5.6,0.5-11.1,1.2-16.7,1.3c-11.2,0.3-22.4,0.3-33.6,0.4c-1.1,0-2.2,0-3.5,0c0.4-0.6,0.6-1,1-1.6c-2.5-0.3-4.7-0.7-6.9,0.8
		c-0.9,0.6-2.1,0.7-3.2,0.7c-17.9,0.9-35.8,1.2-53.7,1c-1.3,0-2.6,0-3.8,0c-15.3,0.7-30.7,1.2-46,2c-15.5,0.8-31,1.8-46.5,2.5
		c-11.3,0.5-22.7,0.8-34,1.2c-2.7,0.1-5.4,0.2-8.1,0.6c-1.4,0.2-2.7,0.9-4,1.3c-0.6,0.2-1.2,0.4-1.8,0.3c-1.3-0.1-2.7-0.2-3-1.8
		c-0.3-1.7,1.1-2.4,2.3-2.5c3.6-0.5,7.3-0.8,10.9-1c2.1-0.1,4.1,0.4,6.2,0.3c2.5,0,5.1,0,7.6-0.5c4-0.8,7.9-1,11.9-1.1
		c7-0.2,14-0.7,21.1-1c0.6,0,1.2-0.4,1.5-0.5c-0.1-5.8-0.1-11.4-0.2-16.9c-0.1-3.6,0.7-7,1.7-10.4c2.4-8.1,5-16.2,8.6-23.9
		c0.1-0.1,0.1-0.3,0.2-0.4c0.5-1,1.1-2,2.5-1.9c1.2,0.1,2.1,0.7,2.4,2c1.6,6.1,6.2,8.2,11.8,8.9c4.1,0.5,8.3,0.7,12.4,0.7
		c1.8,0,3.7-0.8,5.4-1.7c7.5-4,14.5-8.8,20.9-14.3c6.2-5.3,12.8-10.1,20-14c1.5-0.9,3.1-1.7,4.8-2.2c2.2-0.7,3.7,0.5,4.1,2.7
		c0.1,0.6,0.1,1.3,0.1,1.9c0,7.2,0.1,14.4-0.2,21.6c-0.3,6.1,1.1,11.8,3.3,17.3c0.8,2,2.5,3.6,4,5.7c-0.3,1.1-0.7,2.4-1.2,3.9
		c-4.8-2.5-6.6-6.7-8-11.2c-2-6.6-2.5-13.5-2.3-20.4c0.1-4.8-0.1-9.6-0.2-14.4c0-0.8-0.3-1.6-0.4-2.7c-1,0.2-1.9,0.2-2.7,0.5
		c-0.9,0.3-1.7,0.9-2.5,1.5c-8.2,5.6-16.4,11.1-23.9,17.6c-5.8,5-12.3,9.2-19.9,11.1c-1.1,0.3-2.2,0.8-3.2,0.7
		c-4.8-0.3-9.6-0.4-14.3-1.1c-4-0.6-7.7-2.2-10.4-6c-0.8,1.1-1.5,1.7-1.8,2.4c-1.8,3.9-3.7,7.8-5,11.9c-1.2,3.6-1.9,7.4-2.3,11.2
		c-0.5,5.1,0.9,10.1,1.2,15.1c1.6,0.5,2.8,0.8,4.2,1.2c0.1,1.1,0.3,2.2,0.4,3.3c3.4,0,6.5,0,9.7,0c1,0,2.5-0.8,2.7,1.2
		c1.4-0.1,3,0.3,4.2-0.2c6.2-3,12.8-2.2,19.3-2.2c2.2,0,4.5-0.3,6.7-0.4c2.7-0.2,5.4-0.4,8.1-0.5c6.9-0.1,13.8,0,20.6-0.1
		c3.7-0.1,7.3-0.7,11-0.7c16.6-0.2,33.2-0.3,49.9-0.5c2.9,0,5.7-0.5,8.6-0.5c16.6-0.1,33.3-0.1,49.9-0.2c6.9-0.1,13.7-0.4,20.6-0.6
		c1.1,0,2.2-0.1,3.4-0.1c11.7,0.1,23.3,0.2,35,0.2c9.9-0.1,19.9,0.1,29.7-0.6c10.4-0.7,20.8-0.1,31.2-0.1c6.6,0,13.1-0.4,19.7-0.4
		c12.8,0,25.6,0.1,38.4,0.2c6.6,0,13.1-0.2,19.7-0.2c13.3,0.1,26.5,0.3,39.8,0.3c5.3,0,10.6-0.4,15.8-0.3c14.4,0.2,28.8,0.7,43.1,1
		c2.4,0.1,4.8,0,7.2,0C813.3,644.2,814,644.3,815.1,644.5z M396.9,648.3c-1.7-1-3.3-1-4.9,0C393.6,648.3,395.3,648.3,396.9,648.3z"
		/>
	<path d="M828.9,586.1c1.3,2.4,1.6,4.2,1.7,6.1c0.4,3.7,0.7,7.3,0.9,11c0.3,5.3,0.6,10.5,0.8,15.8c0.3,8.8,0.4,17.6,0.6,26.3
		c0.1,3.8,0.2,7.7,0.5,11.5c0.1,1.5,0.5,3.1,0.8,4.7c1.2,0.2,2.1,0.5,3,0.6c7,0.3,14.1,0.7,21.1,0.8c7.7,0.1,15.3,0,23,0
		c6.9,0,13.8,0.1,20.6,0.1c0.8,0,1.6,0,2.4,0.1c1.2,0.3,1.9,1.1,1.7,2.7c-1.5,1.3-3.5,0.9-5.3,0.9c-11.7-0.1-23.3-0.2-35-0.4
		c-8.5-0.2-16.9-0.5-25.4-0.6c-1.9,0-3.8,0.4-5.7,0.6c-0.8,0.1-1.7,0.4-2.3,0.1c-3.1-1.2-6.3-0.9-9.5-0.9c-20,0.1-40,0.2-60,0.6
		c-13.9,0.2-27.8,0.9-41.7,1.3c-7.2,0.2-14.4,0.1-21.6,0.3c-20.5,0.6-40.9,1.3-61.4,2c-17.4,0.6-34.8,1.3-52.2,1.8
		c-13.6,0.4-27.2,0.6-40.8,0.8c-15.5,0.2-31,0.1-46.5,0.2c-5.2,0-5.7,0.6-5.8,5.7c0,2.5,0.5,5-0.9,8.3c-0.6-1.4-1.2-2-1.1-2.5
		c0.3-2.1,0.7-4.1,1.1-6.1c0.3-1.6,0.8-3.1-0.6-5.1c-1.4-0.1-3.1-0.3-4.8-0.3c-10.2,0-20.5,0-30.7,0c-8.8,0-17.6,0-26.4-0.1
		c-23.2-0.1-46.4-0.2-69.6-0.3c-4.3,0-8.6-0.4-12.9-0.5c-1.7-0.1-3.5,0.1-5.1,0.1c-1.7,3.8-1.5,7.5-2.1,11.1c0-1,0-2.1,0-3.1
		c0-1.3,0.1-2.6,0-3.8c-0.1-1.2-0.5-2.4-0.8-3.8c-4-0.5-7.7-1.3-11.2,1.1c-1.8,1.3-5,0.6-6.6-0.8c-0.9-0.8-0.7-2.4,0.3-3.4
		c1.3-1.2,2.9-1.2,4.5-1.2c6.4,0.1,12.8,0.4,19.2,0.5c3.5,0.1,7,0,10.5,0c6.2,0.1,12.4,0.2,18.7,0.3c1.9,0,3.8,0.1,5.7,0
		c3.2-0.1,6.4-0.5,9.6-0.4c12.8,0.7,25.6,0.6,38.4,0.4c16.1-0.2,32.3,0.3,48.4,0.4c3.7,0,7.4,0,11-0.2c2-0.1,4.2-1.3,6-0.9
		c1.9,0.4,3.7,0.9,5.6,0.9c11.7,0.1,23.3,0.2,35,0.1c7.7-0.1,15.3-0.4,23-0.6c0.5,0,1,0,1.4,0c15.7-0.2,31.3-0.3,47-0.5
		c3.4,0,6.7-0.5,10-0.6c10.1-0.4,20.1-0.9,30.2-1.2c9.7-0.3,19.5-0.2,29.2-0.8c20-1.4,39.9-0.7,59.9-1.2c11.8-0.3,23.6-1.1,35.5-1.4
		c8.6-0.2,17.3,0.1,25.9,0.1c1.8,0,3.5,0.2,5.3,0.1c8.3-0.2,16.6-0.3,24.9-0.5c1.1,0,2.2-0.2,3.5-0.3c0.2-1.2,0.5-2.3,0.5-3.3
		c0-4.8-0.1-9.6-0.1-14.4c0-2.1-0.1-4.2,0.2-6.2c0.9-5.3,0.1-10.5-0.4-15.8c-0.5-5.9-0.9-11.8-1.4-17.7c-0.3-3.5-0.5-7-0.9-10.5
		C827.5,591.5,827.6,589.1,828.9,586.1z"/>
	<path d="M544.5,466.5c-0.8,0-1.6-0.1-2.3,0c-3.9,0.8-7.2-1.1-10.6-2.2c-1.8-0.6-2.9-2.1-2.8-4c0.1-2.2,0.1-4.6,0.9-6.6
		c2.6-6.7,6.9-12.2,12.3-16.9c1.7-1.4,3.5-2.2,5.7-1.9c2.8,0.3,4.1,1.5,4,4.4c-0.1,3.7-0.4,7.3-0.6,11c-0.1,3.1-1.1,6.3-0.2,9.7
		c1.1-0.1,2.1-0.1,2.9-0.4c3.2-1.4,6.4-3,9.6-4.4c4.5-2,9.1-3.8,13.7-5.7c0.4-0.2,0.9-0.3,1.4-0.3c4.5-0.4,7.7-0.6,7.1,6.3
		c-0.6,7.3-1.3,14.6-4.1,21.6c-0.7,1.8-0.6,4.1-0.7,6.1c0,1.6,0.3,3.2,0.4,4.8c0.1,2.6,1.2,4.5,3.1,6.2c1.5,1.3,2.8,3,4.1,4.6
		c2.6,3.6,4.3,5.1,8.9,7.3c1.9-1.2,2.6-3.4,3.3-5.5c1.2-3.1,2.2-6.4,3.3-9.5c2-5.7,4.3-11.4,7.9-16.4c1.4-1.9,3-3.8,4.8-5.3
		c2.8-2.4,6.1-3.3,9.9-2.6c4.7,0.9,7.2,4.1,6.7,8.9c-0.1,0.9-0.5,1.9-0.6,2.8c-0.2,1.6-0.4,3.2-0.2,4.8c0.4,3.4,1.9,5,5.2,5.1
		c2.8,0.1,5.7-0.3,8.5-0.6c3.3-0.4,6.6-1.1,10-1.4c2.4-0.2,3.2,0.4,3.7,2.8c0.5,2.5,0.6,5.1,0.8,7.6c0.2,3.4,1,4.5,4.3,5.3
		c1.4,0.3,2.8,0.5,4.3,0.5c10.1,0.3,20.1,1.1,30.1,2.6c3.9,0.6,8,0.6,11.9,1.3c3,0.5,5.8,1.6,8.8,2.2c2.2,0.5,4.4,0.9,6.6,1.1
		c3,0.3,6.1,0.4,9.1,0.7c2,0.2,2,0.3,4,2.3c-0.9,1.5-2.3,2.1-4,2c-1.6,0-3.2,0-4.8-0.3c-9.5-1.9-19.1-3.9-28.6-5.7
		c-4.5-0.8-9.2-1.3-13.8-1.5c-5.7-0.3-11.5-0.1-17.3-0.4c-3.2-0.2-6.4-0.8-9.4-1.6c-4.6-1.2-5.6-2.9-5.4-7.6
		c0.1-1.8,0.1-3.5,0.1-5.3c0-0.4-0.3-0.9-0.4-1.4c-1.6-1.3-3.4-0.4-5.1-0.3c-1.7,0.1-3.4,0.4-5.3,0.7c-0.2-0.8-0.3-1.3-0.5-2.2
		c-2.3,0.2-4.5-0.3-6.7,1.8c-2.5,2.4-7.8-0.4-8.4-4.2c-0.4-2.7-0.3-5.4-0.5-8.1c-0.2-2.1-0.2-4.2-0.7-6.1c-0.7-2.8-2.1-3.6-5-3
		c-1.7,0.3-3.4,1.1-4.8,2c-3.2,2.2-5.7,5.2-7.2,8.8c-2.2,5.1-4.5,10.2-5.9,15.7c-1.1,4.3-3.4,8.3-5.5,12.2c-1.7,3.1-3.2,3.3-6.3,1.3
		c-1.9-1.2-3.7-2.5-5.4-4c-5.6-4.9-8.5-11.1-8.8-18.5c-0.2-6.2-0.3-12.5-0.2-18.7c0-2.3,0.9-4.7,1.3-7c0.3-1.9,0.8-3.8,0.8-5.6
		c0-2.5-1.1-3.4-3.7-3c-1.7,0.3-3.5,0.8-5,1.5c-6.9,3.2-13.8,6.6-20.8,9.8c-1.8,0.8-2.7,2.1-2.9,4c-0.3,2.5-0.5,5.1-1,7.6
		c-0.5,3.3-0.5,6.6-1.9,9.8c-0.8,1.7-0.4,4.1-0.2,6.2c0.3,3,0.2,6-0.3,9.1c-0.8,5.2-1.3,10.5-1.8,15.7c-0.2,1.8-0.3,3.5-1.8,5
		c-0.8-0.3-1.7-0.5-2.7-0.9c-0.5-2.6-0.1-5.1,0.2-7.6c0.7-5.1,1.4-10.1,2-15.2c1-8.6,2-17.1,3-25.7
		C545,470.5,545.5,468.6,544.5,466.5z M547.1,439.7c-0.8-0.2-1.2-0.3-1.4-0.3c-0.6,0.2-1.2,0.4-1.7,0.8c-4.7,3.8-8.4,8.3-10.2,14.2
		c-0.3,0.9-0.4,1.9-0.5,2.8c-0.1,2.4,0.7,3.5,3.1,4.1c1.4,0.4,2.8,0.5,4.2,0.8c4.7,1.1,5.9,0.3,6.4-4.6c0.1-0.8,0.1-1.6,0.1-2.4
		c0.1-4.3,0.2-8.6,0.3-12.9C547.4,441.4,547.2,440.6,547.1,439.7z"/>
	<path d="M982.2,451c-4.2-2.8-4.3-3-3-7.3c0.7-2.4,2.2-4.6,1.8-7.2c-1.1-1.4-2.5-1.1-3.7-1c-5.9,0.7-11.7,1.5-17.6,2
		c-3.3,0.3-6.7,0.4-10,0.5c-1.4,0-2.9-0.2-3.9-1.5c0.1-0.5,0.3-1.1,0.5-1.8c-0.4-0.1-0.9-0.4-1.3-0.4c-5.4-0.1-10.9-0.1-16.3-0.1
		c-3.8,0-7.7,0-11.5,0.2c-5.9,0.3-11.8,0.8-17.7,1.2c-0.3,0-0.5,0.3-0.9,0.7c0.9,1.9,3.5,0.4,4.5,2.4c-0.3,1.9-1.4,3.2-3.7,3.2
		c-1.3,0-2.6-0.2-3.8-0.5c-3.4-0.9-6.8-1.8-10.2-2.8c-0.7-0.2-1.5-0.7-1.9-1.4c-0.3-0.5-0.2-1.7,0.2-2.1c0.6-0.6,1.6-1.1,2.5-1.2
		c7.7-1.3,15.3-3.2,23.2-3c12.1,0.3,24.3-0.7,36.4,0.4c3.1,0.3,6.4-0.3,9.5-0.4c5.3-0.2,10.5-0.3,15.8-0.4c2.2,0,4.5,0.1,6.7,0.1
		c2.4,0,4.4-0.5,5.1-3.3c0.3-1.3,1.4-1.6,2.9-1.1c0.4,1,0.8,2.2,1.3,3.7c1.4,0.1,2.8,0.2,4.2,0.2c6.4-0.3,12.8-0.7,19.1-1.2
		c2.5-0.2,5.1-0.7,7.5-1.3c5.8-1.3,11.5-0.2,17,1.3c0.7,0.2,1.3,1.2,1.9,1.8c-1.1,1.8-2.8,2-4.3,2.4c-6,1.3-11.9,2.1-18.1,1.9
		c-8-0.3-16-0.4-24-0.5c-1.2,0-2.5,0.2-3.8,0.3c-1.3,2.5-1.2,5.1-1.5,7.6c-0.4,2.9-0.1,6-1.2,8.5c-2.3,5.2-1.5,10.3-1,15.5
		c0,0.5,0.1,1,0.1,1.4c-0.6,9.9-1,19.8-2,29.6c-0.5,5.3-0.7,10.5-0.5,15.8c0.1,2.9,0.1,5.7,0,8.6c0,2.9-0.1,5.8-0.2,8.6
		c-0.2,5.1-0.5,10.2-0.7,15.3c-0.1,3.7,0,7.3,0.1,11c0.3,11.3,0.9,22.7-0.3,34c-0.4,3.8,0.2,7.7,0.2,11.5
		c0.2,10.9,1.1,21.7-0.1,32.6c-0.4,3.1,0.2,6.4,0.2,9.6c0.1,8.8,0.8,17.6,0.1,26.4c-0.8,9.6-0.8,19.2-1.6,28.7c-0.2,1.9,0,3.8,0,5.4
		c1.6,1,3.2,1.5,3.8,2.6c0.6,1.1,0.5,2.8,0.5,4.2c0,1.4-0.2,2.9-0.6,4.3c-2.1,7.2-4.9,14.2-5.8,22.6c-1-1.4-1.7-2-2-2.7
		c-0.3-0.7-0.3-1.6-0.1-2.4c1.4-6.6,1.5-13.3,1.6-20c0.1-2.5-0.4-5.1,1.3-7.4c0.4-0.5,0.2-1.6,0-2.3c-1.1-5.7-0.3-11.5,0.1-17.2
		c0.3-4.1,0.5-8.3,0.6-12.4c0.1-3.5-0.1-7,1.2-10.4c0.5-1.2,0.2-2.8,0-4.2c-0.9-5.6-1-11.1-0.6-16.7c0.3-4.4,0.1-8.9-0.1-13.4
		c-0.1-3-0.3-6,0.6-9c0.4-1.3,0.4-2.9,0.1-4.2c-1.5-6.3-1.1-12.7-0.8-19.1c0.1-3.2,0.1-6.4,0-9.6c-0.2-4.1-0.8-8.3,0.8-12.3
		c0.4-0.9,0.1-2.2-0.1-3.3c-1.3-6-1-12.1-0.7-18.2c0.2-4.3,0.2-8.6,0.3-12.9c0.1-2.7-0.2-5.5,0.4-8.1c0.6-2.9,0.3-5.7,0.2-8.6
		c-0.2-5.9,0-11.8,0.1-17.7c0.1-3.3,0.3-6.7,0.5-10c0.2-3.8,0.6-7.6,0.8-11.4c0.1-1.6,0.2-3.2,0.2-4.8c-0.3-6.2,0-12.5,0.8-18.7
		C982.1,458.2,982,454.6,982.2,451z M978.2,721.4c2.1-4,2.3-8.4,0.5-11.4C977.7,713.8,977.7,717.6,978.2,721.4z"/>
	<path d="M17.3,655.8c0.6-2.8,2.1-3.3,3.7-3.5c3.9-0.3,7.8-1.3,11.8,0.5c1.8,0.8,4.1,0.6,6.1,0.5c7.3-0.1,14.7-0.4,22-0.4
		c3.5,0,7,0.3,10.5,0.5c1.4,0.1,2.9,0.2,4.3,0.2c13.1-0.1,26.2-0.3,39.3-0.3c3.3,0,6.7,0.3,10.1,0.4c1.8,0.1,3.5,0.3,5.3,0.1
		c9.3-0.5,18.5-0.4,27.8,0.5c1.6,0.2,3.2,0,4.8,0.1c4.1,0.2,8.3,0.4,12.4,0.7c4.9,0.5,9.8,0.4,14.9,0.4c0.7-2.6,1.3-4.8,1.8-6.9
		c2.3-0.5,3.2,0.4,3.4,2.1c0.2,1.6,0.3,3.2,0.4,4.9c3.8,1.8,7.4,3.6,11.8,3.6c2.2,0,4.4,0.5,6.6,1.1c0.6,0.2,1.3,1.4,1.4,2.2
		c0.1,0.4-1,1-1.8,1.6c-5.1-4.4-11.1-4.2-17.1-4.3c-1.5,3.5-1.9,7-1.6,10.2c1,11.3,0,22.7,1,34c0.4,4.3,0.7,8.6,0.9,12.9
		c0.1,2.4,0.1,4.8-0.3,7.2c-0.6,3.7-0.5,7.3-0.1,11c0.3,2.7,0.8,5.4,0.6,8.1c-0.7,9.8,0.2,19.5,0.2,29.2c0,1.1,0.2,2.3,0,3.3
		c-1.3,6-0.4,12.1-0.2,18.1c0.3,11,0.6,22.1,0.1,33.1c-0.3,6.7-0.2,13.3,0.8,20c0.5,3.8,0.7,7.5,1.5,11.3c0.9,4.1,0.2,8.6,0.1,12.9
		c0,0.4-0.2,1-0.5,1.3c-0.3,0.3-0.8,0.4-1.2,0.5c-0.2,0-0.7-0.3-0.7-0.5c-0.2-0.9-0.4-1.8-0.5-2.8c-2.1-28.6-2.1-57.2-2-85.8
		c0.1-25.1,0-50.2-1.5-75.3c-0.6-10.4-0.5-20.8-0.7-31.2c-0.1-3.2,0-6.4-1.8-9.3c-0.6-1-0.5-2.5-0.7-3.7c-0.1-1.4-0.2-2.8-0.3-4.6
		c-3.7-1.1-7.4-1.6-11.3-1.7c-5.9-0.3-11.8-0.7-17.7-1.2c-1.4-0.1-2.8,0-4-1.1c-0.4-0.4-1.5-0.2-2.2-0.1c-7.1,0.7-14.2,1.9-21.4,0.7
		c-0.8-0.1-1.6-0.2-2.4-0.1c-8.3,1-16.5,0.6-24.9-0.2c-4.4-0.4-8.9,0.3-13.4,0.4c-4,0.1-8-0.1-11.9-0.1c-1.1,0-2.2-0.3-3.3-0.1
		c-8.4,1.1-16.9,0.6-25.3,0c-4.9-0.4-9.9,0-14.8,0.3c-4.6,0.3-9.2,0.8-13.8-0.3C21.5,655.9,19.6,656,17.3,655.8z"/>
	<path d="M916.9,300.7c1.2-3.3,3-5.2,4.4-7.3c1.4-2,3.8-3.4,4.4-6.5c-3.1-0.6-5.9-1.1-8.7-1.7c-3.7-0.8-7.5-1.5-11.2-2.6
		c-4.3-1.3-8.3-3.4-11.2-7.1c-0.6-0.7-1.3-1.4-2.1-1.9c-7.8-5.5-10.6-13.7-10.9-22.5c-0.4-11.6,1.9-22.8,8.4-32.9
		c5.2-8.2,11.3-15.4,18.5-21.9c1.8-1.6,3.5-3.3,5.2-5c3-3,6.1-5.6,10-7.3c1.7-0.7,3.4-1.8,4.9-2.9c5.2-4.1,11.2-6.9,17.2-9.4
		c7.8-3.3,15.9-5.8,24.3-7.3c1.4-0.2,2.9-0.3,4.3-0.4c1.4-0.1,2.2,0.7,2.3,1.9c0.1,0.6-0.4,1.4-0.9,2c-0.2,0.3-0.9,0.3-1.3,0.3
		c-8.7,0.6-17.1,2.3-25.3,5.1c-3.2,1.1-6.2,2.5-9.2,4.1c-8.1,4.2-16,8.6-23.1,14.5c-2.7,2.2-5.7,4.1-8.5,6.3c-1.5,1.2-2.9,2.6-4,4.1
		c-3.8,5.1-7.6,10.3-11.1,15.6c-6.5,9.9-9.9,20.8-8.9,32.7c0.6,7.1,3.4,13.3,8,18.6c1.6,1.9,3.5,3.7,4.3,6.2
		c0.8,2.2,2.8,3.3,5.2,3.6c2.7,0.3,5.3,0.9,8,1.4c5.2,1,10.3,2,15.5,3.1c2,0.4,3.4-0.5,4.5-2c2.2-3.1,4.5-6.2,6.8-9.3
		c1-1.3,1.7-3,4.2-3.9c-1.6,5.8-6.8,8.8-8.6,13.6c0.5,0.5,0.6,0.8,0.9,0.9c11.2,0.9,21.5-1.6,31.4-6.9c2.1-1.1,4.2-2.3,6.5-3
		c5.2-1.5,9.7-4.2,13.9-7.4c6.4-4.8,13.2-9.1,18.8-14.8c3.3-3.3,6.8-6.4,9.6-10c2.4-3.1,4-6.9,5.9-10.4c3.3-5.9,5.7-12.1,6.8-18.9
		c1.3-8.1,1.1-16-2.3-23.5c-1.2-2.7-3.4-5-5.3-7.3c-1.5-1.8-3.3-3.4-4.8-5c0.7-1.9,1.8-2.1,2.8-1.2c2.4,2.1,5,4.2,6.7,6.8
		c2.6,4,4.3,8.5,5.4,13.2c2,8.5,1,16.8-1.1,25.1c-0.3,1.4-0.9,2.7-1.6,4c-2.5,4.5-5,8.9-7.6,13.4c-2.1,3.6-4.7,6.8-7.8,9.7
		c-1.2,1.1-2.3,2.2-3.3,3.5c-7.4,9.6-17.3,16-27.7,21.8c-1.3,0.7-2.6,1.2-3.8,2c-10.7,6.6-22.5,9.7-34.8,11.6c-3,0.5-6,0.9-9,1
		c-2.1,0.1-3.6,0.8-4.8,2.6c-1.7,2.5-3.5,5-5.3,7.4C921,298,919.9,299.6,916.9,300.7z"/>
	<path d="M1183,891.7c-4.2,0.8-8.1,1.1-11.8,0.5c-8.9-1.5-17.8-1.7-26.7-1.8c-20.8-0.3-41.6-0.3-62.4-0.1
		c-16.6,0.1-33.3,0.5-49.9,1.1c-21.9,0.8-43.7,2.1-65.5,4.8c-9.2,1.1-18.4,2.5-27.5,3.8c-1.9,0.3-3.7,0.8-6.4,1.3
		c1.1,0.6,1.5,0.9,2,1c0.6,0.2,1.2,0.3,1.8,0.4c-0.4,0.5-0.9,1,0.3,1c0.6,0,1.3,0.1,1.9,0.1c0.6,0,1.3,0.1,1.9,0.1
		c0.6,0,1.3,0,1.9,0c0.6,0,1.3,0,1.9-0.1c6.1-0.4,12,1.4,18.1,1.7c1.8,0.1,2.2,1.6,2.5,2.8c-1.1,1.5-2.4,1.1-3.6,1
		c-7.8-0.8-15.5-2-23.4-2.4c-7.3-0.5-14.7-0.2-22-0.3c-1.4,0-2.9,0.1-4.3-0.2c-1.6-0.3-2.2-2.3-1-3.3c1.1-0.8,2.4-1.6,3.8-1.9
		c7.5-1.7,15-3.3,22.5-4.7c3.3-0.6,6.7-0.7,10-1.2c4.3-0.6,8.5-1.6,12.8-2.1c5.4-0.6,10.8-0.7,16.2-1.2c4.8-0.4,9.5-1.1,14.3-1.7
		c0.8-0.1,1.6-0.4,2.4-0.4c6.7-0.4,13.4-0.8,20.1-1.2c3.5-0.2,7-0.3,10.5-0.4c4-0.1,8,0.1,12,0c4.5-0.1,9-0.2,13.4-0.5
		c12-0.9,23.9-1.4,35.9-1.1c2.6,0.1,5.1-0.2,7.7-0.1c2.2,0,4.4,0.3,6.6,0.5c1.1,0.1,2.2,0.2,3.3,0.2c9.9-0.3,19.8-0.7,29.7-0.9
		c3.8-0.1,7.7,0.2,11.5,0.5c7.8,0.5,15.6,1.2,23.4,1.7c4.5,0.3,8.9,0.1,13.4,0.2C1181.9,888.7,1181.9,888.8,1183,891.7z
		 M926.5,904.5c-1.7-0.7-3.3-0.9-6,0C923.2,904.5,924.9,904.5,926.5,904.5z"/>
	<path d="M844.6,342.5c0-0.9-0.2-1.9,0-2.7c1.5-5.2,1.5-10.5,1.2-15.7c-0.6-11.1,0.6-22,2.1-33c1.3-9.5,1.9-19.1,2.5-28.6
		c0.9-12.6,1.9-25.2,2.5-37.8c0.6-12.8,0.8-25.6,1.2-38.4c0.4-13.9,0.8-27.8,1.2-41.7c0.1-3.7,0.6-7.3,0.9-11c1-11,1.8-22,2-33
		c0.1-8.3,0.7-16.6,1.1-24.9c0.5-11,0.5-22-0.2-33.1c0-0.5-0.2-0.9-0.4-1.3c-0.4-0.2-0.6-0.5-0.9-0.5c-6.4,0.5-12.7,1.3-19.1,1.5
		c-6.1,0.1-12.1-0.3-18.2-0.8c-3.6-0.3-7.3-1.1-10.8-1.9c-2.4-0.5-4.5-1.6-5.3-4.8c3.9,0.7,7.4,2,11,3.1c1.7,0.5,3.4,1,5.1,1.1
		c5.2,0.6,10.5,0.9,15.7,1.6c4.5,0.6,8.8,1,13.2-1c1.7-0.8,3.7-0.8,5.6-1.2c1.2-0.3,2.4-0.6,3.8-1c0.5-8.2,0.4-16.1-1.6-24.5
		c-1.4,0.9-2.4,1.2-2.8,1.9c-2.2,3.3-4.3,6.7-6.5,10.1c-0.7,1.1-0.9,2.8-2.8,3.3c-1-1.6-1.1-3.3-0.2-4.9c2.3-3.8,4.7-7.6,7.2-11.3
		c0.7-1,1.9-1.7,3-2.2c1.9-0.9,3.4-0.3,4.5,1.5c1.4,2.4,1.8,5,1.8,7.8c0,5,0.3,9.9,0.5,14.9c0,0.7,0.4,1.5,0.7,2.4
		c6.4-0.3,12.2-2.6,18.3-3.6c-5.6,3.5-12,4.9-18.4,6.9c0,2,0,3.8,0,5.5c0,3.5,0,7-1.2,10.4c-0.4,1.2-0.2,2.8,0,4.2
		c1.1,5.2,1.1,10.4,0.4,15.7c-0.7,4.9-0.4,9.9-0.4,14.8c0,5.9,0.3,11.8-1.3,17.6c-0.5,1.7-0.3,3.5-0.3,5.2
		c0.1,5.1-0.2,10.2-0.8,15.3c-0.7,6.3-0.5,12.8-1,19.2c-1.5,16.8-1.1,33.5-1.4,50.3c-0.2,9.7-1,19.5-1.5,29.2
		c-0.4,8.3-0.6,16.6-1.3,24.9c-1.1,14-2.2,28.1-3.9,42c-1.5,12.4-2.1,24.8-1.9,37.3c0,3-0.6,6-1,9c-0.1,0.8-0.9,1.4-1.4,2.2
		C845.2,342.7,844.9,342.6,844.6,342.5z"/>
	<path d="M327.7,482.2c-1-0.5-1.7-0.8-2.6-1.2c0.2-0.7,0.3-1.4,0.6-1.9c4-4.8,9-8,14.7-10.4c7.7-3.2,15.4-6.3,23-9.7
		c2.9-1.3,5.7-2,8.8-1.7c2.4,0.2,4.8,0.3,7.2,0.4c4.9,0.2,6.8,4.1,6.2,7.9c-0.2,1.2-0.6,2.6-1.2,3.6c-1.6,2.4-3.2,4.8-5.2,6.8
		c-5.3,5.6-10.1,11.6-14.4,17.9c-0.8,1.2-1.4,2.5-1.7,3.9c-0.3,1.1,0.5,1.9,1.6,1.9c1.1,0,2.2-0.3,3.3-0.6c8.9-3,18.3-4.4,27.1-8
		c1.8-0.7,3.7-1,5.5-1.5c7.9-2.1,13.2,2,17,7.6c1.1,1.6,1.1,4,1.6,6c0.9,4.2,2.6,7.8,6.1,10.5c2.3,1.7,4.7,2.6,7.5,2.4
		c8-0.6,15.8-2.4,23.7-3.7c3.8-0.6,7.6-0.9,11.4-1.5c1.5-0.2,2.8-0.9,4.3-1.3c1.5-0.4,3.2-0.5,4.7-1c6-2,12.1-3,18.4-3
		c4.4,0,8.5-1.3,12.5-3c1.9-0.8,3.8-1.7,5.8-2.4c1.9-0.6,3.2,0.1,3.5,1.5c0.3,1.2-0.4,2.2-2.1,2.7c-2.6,0.8-5.1,1.8-7.8,2.3
		c-7.5,1.4-14.9,3.5-22.6,4.4c-6.5,0.8-12.9,1.9-19.4,3.1c-8.1,1.5-16.2,3.6-24.3,4.9c-4.1,0.7-8.3,0.5-12.4,0.6
		c-2.2,0.1-3.9-1.3-5.5-2.5c-4.6-3.5-6.5-8.6-7.8-13.9c-0.5-2.2-0.9-4.4-1.5-6.5c-0.6-2.4-2.2-3.6-4.7-4.1
		c-4.3-0.8-8.3,0.3-12.2,1.5c-8.8,2.8-17.6,5.7-26.5,8.4c-2.1,0.6-4.4,0.9-6.6,1c-2,0.1-3.9-0.6-4.7-2.6c-0.8-2-0.3-3.9,1.1-5.3
		c6.3-6.2,9.9-14.5,16.6-20.4c2.1-1.8,3.6-4.5,4.9-7c2-4.1,0.2-6.9-4.4-7c-2.9-0.1-5.8,0.2-8.6,0.6c-2.4,0.4-4.7,1-6.9,1.9
		c-6.1,2.4-12.2,4.8-18.1,7.6C337.4,473.7,332,476.8,327.7,482.2z"/>
	<path d="M833.2,416.2c-1,2.4-2,4.9-3.1,7.6c0.9,0.6,1.7,1.2,2.7,1.8c5.4,3,11.1,5.7,16.3,9.2c5.8,3.9,9.6,9.3,8.9,16.9
		c-0.3,3.3-0.3,6.7-0.8,10c-1.5,10.2-6.6,18.5-13.8,25.7c-2.4,2.4-4.8,4.7-6.9,7.3c-3.5,4.2-7.6,8-12.4,10.4
		c-6.7,3.3-13.7,6.1-21.4,6.2c-3.8,0-7.7-0.2-11.5-0.2c-4.7,0-9.1-1.3-13.6-2.7c-4.6-1.5-7.9-4.7-10.8-8.5c-3.8-4.8-6.5-10.2-8.5-16
		c-1.9-5.5-1.5-11-0.5-16.6c1.2-6.9,4.9-12.5,9.5-17.5c6.6-7.2,14.8-12.1,23.4-16.4c4.7-2.4,9.6-1.8,14.5-0.8c1.2,0.2,2.4,1,3.3,1.8
		c2.4,2.2,2,3.8-1.5,5.8c-0.6-0.6-1.1-1.3-1.8-1.9c-0.4-0.4-0.9-1-1.4-1.2c-4.6-1.4-9.3-2.9-13.9-0.3c-10.3,5.6-19.9,12.3-26.4,22.4
		c-1.3,2.1-2.3,4.7-2.6,7.1c-0.6,5.6-0.7,11.2,0.9,16.7c0.3,1.1,0.7,2.1,1.2,3.1c1.3,2.5,2.7,5.1,4.1,7.6c3.8,7,9.5,11.5,17.4,13
		c2,0.4,4,0.8,6.1,1.3c-0.6,0.5-1,0.9-1.8,1.6c1.2,0.3,2,0.7,2.9,0.8c4.5,0.6,9-0.4,13.3-1.4c10.6-2.4,20.2-6.8,28.3-14.4
		c6.3-6,11.4-12.9,16.8-19.6c1.6-1.9,2.5-4.5,3.3-6.9c1.8-6,2.3-12.2,2.1-18.5c0-0.9-0.2-1.9-0.6-2.8c-2.7-6.2-6.6-11.4-12.7-14.5
		c-4.4-2.2-9.1-3.8-13.8-5.8c-0.9,0.8-1.9,1.4-2.5,2.3c-4,5.4-8,10.8-11.9,16.2c-5.5,7.7-10.8,15.4-16.3,23.1c-0.7,1-1.7,1.7-3,3
		c-0.4-1.2-1.1-2-0.9-2.5c0.5-1.3,1.2-2.6,2.1-3.7c7.7-10.4,15.4-20.8,23.1-31.2c1.2-1.6,2.5-3.1,2.2-5.6c-0.1-1,1-2.7,1.9-3
		c3.8-1.3,5.6-4.6,7.9-7.4c0.5-0.6,1-1.2,1.5-1.7C832.8,416,833,416.1,833.2,416.2z"/>
	<path d="M83.9,887.2c4.1,0.9,7.4,1.5,10.6,2.4c5.6,1.5,6.5,3.8,3.3,8.6c-1.2,1.8-2.8,3.6-4.5,4.8c-5,3.7-10.2,7.2-15.4,10.5
		c-7.5,4.6-15,9.2-22.7,13.4c-8.7,4.7-16.7,10.5-25.4,15.4c-5,2.8-9.9,5.8-14.9,8.7c-1.5,0.9-3,1.7-5.5,1.2c1.2-1,1.9-1.7,2.7-2.2
		c5-3.2,10-6.4,15.1-9.3c5-2.9,10.1-5.5,15.1-8.2c1.4-0.8,2.8-1.5,4.1-2.5c8.9-6.8,18.5-12.5,28.4-17.7c2-1,3.8-2.3,5.7-3.5
		c2.4-1.5,4.9-3.1,7.2-4.7c2.5-1.8,5-3.5,7.2-5.6c2.7-2.6,2-5.5-1.7-6.4c-3.1-0.8-6.3-0.9-9.5-1.1c-1.6-0.1-3.2,0.1-4.8,0
		c-0.7-0.1-1.7-0.6-1.8-1.2c-0.2-0.8,0.1-1.9,0.6-2.5c0.8-0.9,1.9-1.7,3-2.3c8.1-4.8,16.3-9.5,24.3-14.4c6.4-3.9,12.6-8.2,19-12.1
		c4.8-2.9,9.2-6.4,13.3-10.1c0.9-0.9,1.9-1.8,2.6-2.8c1.5-2.1,1-4.4-1.2-5.7c-0.9-0.6-2.1-1.1-3.1-1.1c-4.1,0-8.4-0.3-12.4,0.4
		c-6,1.1-11.6,3.4-16.8,6.6c-0.5,0.3-1.1,0.3-2.1,0.6c-0.3-2.8,0.9-4.5,2.9-5.7c3.4-2.1,7.1-3.6,11.1-4.3c1.7-0.3,3.4-0.6,5.1-1
		c3.6-0.9,7.2-1.3,10.9-1.3c3.2,0,5.8,1.4,8.3,3.2c1.6,1.1,2.2,2.7,1.9,4.6c-0.4,2.6-1.1,5-3.1,6.9c-2.5,2.3-4.8,4.8-7.5,6.7
		c-10.4,7.2-20.5,14.8-31.9,20.4c-5.6,2.8-10.7,6.3-16,9.6C85.5,885.6,85,886.2,83.9,887.2z"/>
	<path d="M512.4,611.3c4.3-1.8,8.6-3.5,12.8-5.3c4.4-1.8,8.9-3.6,13.3-5.5c0.5-0.2,0.9-0.8,1.5-1.3c-1.4-1.3-2.9-1-4.2-0.8
		c-6.7,0.7-13.4,1.3-20,2.4c-5.8,1-11.5,2.6-17.3,4c-4,1-8.1,2.1-12.1,2.8c-2,0.3-4.1,0.1-6.1-0.3c-2-0.4-2.7-2.5-1.3-4.1
		c1.1-1.3,2.6-2.4,4-3.4c1.8-1.3,3.8-2.4,5.6-3.7c0.7-0.5,1.1-1.4,1.6-2.1c-1.3-1.6-2.8-1.2-4.1-1.2c-13.2,0.9-26.3,2.9-39.3,5.4
		c-3.9,0.7-7.7,2.2-11.5,3.1c-4.8,1.1-9.6,2.1-14.5,3.1c-0.8,0.2-1.7,0.2-2.4-0.2c-0.7-0.4-1.7-1.1-1.8-1.9
		c-0.1-0.7,0.6-1.7,1.1-2.4c0.4-0.4,1.1-0.6,1.7-0.7c4.6-0.8,9.1-1.6,13.7-2.4c2-0.3,4.1-0.5,6.1-0.9c6.7-1.4,13.4-2.9,20.1-4.4
		c0.5-0.1,0.9-0.2,1.4-0.2c6.5,0.3,12.6-1.8,18.9-2.6c4.2-0.5,8.3-0.1,12.3,0.9c3.6,0.9,4.3,3.2,1.7,5.9c-1.8,2-4.1,3.6-6.1,5.4
		c-0.7,0.6-1.3,1.3-2.3,2.5c1.3,0.1,2,0.4,2.7,0.3c6.3-1,12.6-2,18.9-3.1c2.6-0.5,5.5-0.3,7.1-3.1c2.6-0.5,5.3-1.2,7.9-1.6
		c4.3-0.6,8.5-1,12.8-1.4c3-0.3,6-0.4,9.1-0.4c1.7,0,3.2,0.9,3.6,2.6c0.5,1.7-0.4,3.1-1.8,4.1c-0.8,0.6-1.6,1.1-2.5,1.4
		c-9.3,3.8-18.6,7.5-28,11.3c-0.6,0.2-1.3,0.2-1.9,0.3l0,0.1c0.4-0.7,0.8-1.5,1.2-2.2C513.8,611.7,513.1,611.5,512.4,611.3z"/>
	<path d="M410,882.5c0.2,1.4,0.4,2.4,0.4,3.5c0.1,6.6,0.1,13.1,0.1,19.7c-0.1,9.3-0.3,18.5-0.2,27.8c0,2.2,0.5,4.4,1.1,6.6
		c0.7,2.4,1,4.6-0.4,6.9c-0.5,0.7-0.6,1.8-0.7,2.7c-0.1,4.1-0.1,8.3-0.2,12.5c-0.1,5.9-0.2,11.8-0.3,17.7
		c-0.1,8.9-0.1,17.9-0.5,26.8c-0.6,16-1.5,31.9-2.3,47.9c-0.1,1.5,0,3.1,0,4.9c2.1-2.5,1.4-6.1,4-8.4c0.8,1,1.4,1.9,1.9,2.6
		c-2.2,9.7-4.3,19.2-6.6,28.6c-0.5,2.2-0.8,4.7-2.9,6.2c-1.9-0.7-1.3-2.2-1.2-3.3c0.3-3,0.9-6,1.1-9c0.6-8.8,1.1-17.5,1.7-26.3
		c0.3-4.9,0.8-9.9,1.1-14.8c0.4-7.5,0.7-15,0.9-22.5c0.3-10.7,0.7-21.4,0.8-32.1c0.1-11.7-0.2-23.3-0.4-35c0-2.2-0.4-4.5-1.1-6.6
		c-1.2-3.7-1.7-7.5-1.6-11.3c0.4-12.3,0.9-24.6,1.4-36.9c0.1-1.7,0.5-3.5,0.8-5.2C407.2,883.9,407.9,882.9,410,882.5z"/>
	<path d="M1014.5,828.8c-1.5,0.2-2.6,0.7-3.1,0.4c-1.1-0.8-2.4-1.9-2.9-3.1c-1.5-4-3.2-7.9-3.6-12.4c-0.5-6.4-1.2-12.7-2-19
		c-0.7-5.7-3.8-9.7-8.7-12.5c-1-0.5-2-1.1-3.1-1.2c-5.1-0.7-10.1-1.3-15.2-1.9c-1.1-0.1-2.2-0.1-3.4-0.2c-3.8-0.5-4.8-2.9-2.6-6.1
		c0.8-1.2,1.8-2.3,2.9-3.2c7-6.1,13.3-12.9,20.8-18.4c1.5-1.1,2.8-2.6,4-4.1c0.8-1,0.1-2.3-1.1-2.6c-0.8-0.1-1.6-0.1-2.4-0.1
		c-9.1,0.1-18.2,1.1-27,3.8c-6.1,1.9-12.1,4-18.2,6.2c-3,1.1-5.8,2.6-8.4,4.6c-1.9,1.5-4.6,2-7.2,3.1c-0.7-1-1.2-1.7-2-2.8
		c1.2-1,2.1-2.2,3.3-2.7c7.3-3.2,14.7-6.3,22.1-9.2c6-2.4,12.4-3.3,18.7-4c4.5-0.5,8.8-1.3,13.2-2.4c3-0.8,6-1.1,9-0.3
		c5.2,1.4,6.5,5.3,2.6,9.2c-2.8,2.8-5.9,5.4-8.9,8c-5,4.3-10.1,8.4-15,12.7c-1.5,1.3-3.9,2.6-2.7,5c1,2,3.4,1.1,5.3,1.2
		c2.9,0,5.8-0.3,8.6,0c2.7,0.3,5.3,1,7.8,1.9c7.5,2.8,10.7,8.8,11.6,16.2c0.7,5.4,0.9,10.8,1.3,16.2c0.3,4.3,1.1,8.5,3.5,12.3
		C1012.9,824.7,1013.4,826.4,1014.5,828.8z"/>
	<path d="M910,753.8c-3.8,0.5-6.3-1-8.8-3.1c-5.9-4.9-12-9.5-18.1-14.2c-2-1.6-4.3-2.6-6.9-3.1c-4.6-1-8.8-3-12-6.6
		c-1.7-1.9-3.5-2-5.6-1.2c-4,1.6-8,3.2-11.9,4.9c-3.9,1.7-7.7,3.8-11.6,5.5c-10.7,4.7-23.5-1.8-25.8-14.4c-0.4-2.5-0.4-5.1-0.5-7.6
		c-0.1-1.6,0.2-3.2-1.2-4.8c-0.7,0.5-1.6,0.9-2.1,1.6c-2.7,4.2-4.7,8.7-4.4,13.9c0,0.5,0,1,0,1.4c0.2,7.2,1.1,9.1,6.1,13.7
		c-0.9,2.5-1.6,3.1-3.4,2.9c-1.9-0.3-3.4-1.3-4.1-3c-1.4-3.3-3.1-6.6-2.6-10.5c0.2-1.5,0-3.2-0.3-4.7c-0.6-3.3,0-6.3,2-9.1
		c1.8-2.5,3.4-5,5.1-7.5c0.6-0.9,1.3-1.8,2.2-2.5c2.3-1.7,4.9-1.1,5.6,1.7c0.8,2.7,1.2,5.6,1.4,8.5c0.2,3.1,0.6,6,1.6,8.9
		c1.5,4.3,4.6,6.8,8.9,8c4.4,1.2,8.9,1.1,13.1-0.8c3.9-1.7,7.8-3.8,11.7-5.5c4-1.7,8-3.2,12-4.7c2.5-0.9,4.6-0.6,6.4,1.6
		c3.1,3.6,7,5.9,11.7,7.1c5,1.3,9.1,3.8,12.8,7.9c3.6,4,8.3,6.9,12.6,10.2C906.2,749.9,908.3,751.5,910,753.8z"/>
	<path d="M717,905.1c-1.3-1.8-0.8-3.6-0.1-5.4c2.1-5.7,1.7-6.3-4.2-6.9c-1.4-0.1-2.9-0.3-4.3-0.2c-7.2,0.6-14.4,0-21.5-0.1
		c-7.5-0.1-15,0.6-22.5,1c-12.9,0.8-25.8,2.3-38.7,1.6c-4.4-0.2-8.9,0.6-13.4,1c-4.6,0.4-9.2,1.1-13.8,1.3
		c-9.3,0.4-18.5,0.5-27.8,0.7c-1.3,0-2.6,0-3.8-0.3c-6.4-1.8-12.7-0.6-18.9,0.9c-0.6,0.1-1.2,0.4-1.9,0.3c-1.1-0.1-2.4-0.4-2.5-1.8
		c-0.2-1.5,1.1-1.7,2.2-1.9c0.8-0.1,1.6-0.1,2.4-0.1c7.7-0.1,15.3-0.1,23-0.2c9.7-0.2,19.5-0.7,29.2-0.9c12.2-0.2,24.2-1.6,36.3-2.5
		c9.9-0.8,19.8-1.2,29.7-1.5c5.3-0.2,10.5,0.3,15.8,0.2c4.9-0.1,9.9-0.7,14.8-0.9c5.3-0.2,10.5-0.4,15.8-0.5c2.6,0,5,0.6,7.2,2.2
		c1.8,1.3,2.4,2.8,2.1,4.9c-0.3,1.9-0.6,3.8-0.7,5.7C721.3,905.3,721,905.5,717,905.1z"/>
	<path d="M742.5,615.3c-0.3-2.1-2.1-2.8-3.5-3.8c-1.7-1.1-3.7-1.9-5.4-3c-1.6-1-3.2-2.1-4.5-3.5c-2.8-3.2-2.4-7.9,0.7-10.7
		c3.1-2.8,6.6-5,10.7-6.1c2.9-0.8,5.8-1.8,8.7-2.8c7.4-2.4,14.8-3.9,22.6-2c1.5,0.4,3.2,0.1,4.8,0.3c3.3,0.4,6.4,1.5,7.4,5
		c1.1,3.8,0.1,7.3-2.6,10.2c-1,1.1-1.4,1-4.4-0.6c0.9-1.3,1.8-2.6,2.6-3.9c1.4-2.4,1-4.2-1.3-5.7c-0.9-0.6-2-1-3.1-1.2
		c-12.8-2.6-25.1-0.7-36.9,4.7c-1.7,0.8-3.3,1.9-4.8,3.2c-2.9,2.5-2.8,5.8,0.2,8.2c0.7,0.6,1.7,1,2.4,1.5c1.5,1.2,2.9,2.4,4.4,3.6
		c1.1,0.9,2.1,1.9,3.2,2.8c1.3,1.1,1.9,2.5,2.2,4.1c0.2,1.6-0.2,2.9-1.7,3.6c-1.6,0.8-3.2,1.6-4.8,2.2c-9.1,3.8-18.3,7.6-27.4,11.4
		c-1.9,0.8-3.8,1.6-6,2.6c0.2,1,0.4,1.9,0.6,2.8c-1.4,2.2-3.4,3-6.1,2.4c-1.2-0.3-2.1-0.8-2.5-1.9c-0.5-1.3,0.1-2.3,1.1-2.9
		c1.7-1.2,3.4-2.4,5.3-3.2c11-4.8,22-9.5,33-14.2C739.2,617.6,741.3,617.3,742.5,615.3z"/>
	<path d="M339.8,1316.8c2.6-4.5,2.6-4.4,7.3-6.1c7.1-2.5,14-5.3,21.2-7.4c7.2-2.1,14.2-4.8,21.7-5.9c2.8-0.4,5.6-1.4,8.3-2.1
		c5.2-1.4,10.5-2.9,15.7-4.2c2-0.5,4.1-0.4,6.1-0.7c1.3-0.2,2.5-0.4,3.7-0.7c4.1-1.3,8.2-2.7,12.3-3.9c2.4-0.7,4.8-1.7,7.5-1.1
		c0.3,0.1,0.6,0,0.9-0.1c5.5-1.6,11.2-2.8,16.4-5c5.4-2.2,10.8-3.8,16.5-5c2.8-0.6,5.6-1,8.1-2.6c0.9-0.6,2.1-0.8,3.2-0.9
		c0.5,0,1.2,0.5,1.5,1c0.2,0.4,0.1,1.4-0.2,1.7c-1.1,0.9-2.3,1.8-3.6,2.2c-8.6,2.6-17.2,5-25.8,7.4c-1.5,0.4-3.1,0.5-4.7,0.8
		c-1.1,0.2-2.3,0.2-3.3,0.6c-11.4,4.3-23.3,6.6-35.1,9.6c-6,1.5-12,3-18.3,3.6c-4.9,0.5-9.6,2-14.2,4c-3.6,1.6-7.5,2.7-11.4,3.6
		c-7.1,1.8-13.9,4.6-20.9,7C348.6,1314,344.2,1315.3,339.8,1316.8L339.8,1316.8z"/>
	<path d="M116.8,576.8c-1.9-6.9-1.8-13.9-1-20.9c0.4-3.5,0.7-7,0.9-10.5c0.3-5.4,0.8-10.8,1.9-16.2c0.4-2,0.5-4.1,0.5-6.2
		c-0.1-9.9,0.3-19.8,1.2-29.7c1-11.4,1.8-22.9,2.8-34.4c0.4-4.9,1.1-9.8,1.8-14.7c0.2-1.3,0.5-2.5,1-3.7c0.3-0.6,1-1.5,1.6-1.5
		c0.8,0,1.9,0.4,2.4,1.1c0.6,0.8,1.1,2,1.1,3.1c0.1,3.4,1.1,6.6,2.3,9.8c1,2.6,0.5,5-0.7,7.3c-0.1,0.2-0.6,0.2-1.2,0.5
		c-1.6-3-1.3-6.7-3.2-9.7c-1.5,1.1-1.4,2.6-1.5,4c-0.7,8.3-1.4,16.5-2,24.8c-0.8,10.2-1,20.4-2.3,30.6c-1.5,12.4-1.6,24.9-2.8,37.3
		C118.6,557.4,117.7,567.1,116.8,576.8z"/>
	<path d="M453.1,1248.4c-2.8,1.2-4.3,0.1-5.7-0.9c-5-3.5-10.2-6.7-14.8-10.6c-11-9.4-23.8-16.2-35.7-24.2c-0.4-0.3-0.8-0.5-1.3-0.7
		c-12.7-5.5-23.8-13.7-34.9-21.8c-5.6-4.1-11.2-8-16.7-12c-1.6-1.2-3.3-2.4-4.2-5.2c1.5,0.4,2.7,0.4,3.5,0.9
		c5.5,3.6,11.3,6.6,16.2,11.1c1.4,1.3,3.1,2.2,4.7,3.4c6.8,5,13.6,10.1,20.4,15.1c1.5,1.1,3.2,2.1,5,2.8c7.6,3.3,15.1,6.9,21.8,12
		c2.2,1.6,4.6,2.9,6.9,4.3c8.5,4.9,15.4,11.9,23.3,17.6c2.8,2.1,5.4,4.4,8.7,5.9C451.2,1246.4,451.9,1247.3,453.1,1248.4z"/>
	<path d="M513.3,614c-2,1-4.1,1.9-6,2.9c-1.1,0.6-2,1.4-3.4,2.4c3,1.3,5.5,1.5,8,1.2c9.8-1.3,19.7-1.3,29.6-1.3
		c5.9,0,11.8-0.7,17.6-0.9c4-0.1,8,0,12,0c4.7,0,9.2-0.5,13.6-2.3c1.3-0.5,2.8-1.2,3.9,0.9c-0.6,0.6-1.2,1.4-2,1.7
		c-2.1,0.8-4.2,1.6-6.4,1.8c-7.6,0.7-15.3,1.3-22.9,1.7c-10.5,0.6-21.1,1.1-31.6,1.4c-7.2,0.2-14.4-0.1-21.6-0.2
		c-1.6,0-3.2-0.4-4.7-0.9c-2.1-0.8-2.5-3.3-0.6-4.6c2.4-1.6,5-2.9,7.5-4.1c1.7-0.8,3.5-1.4,5.3-2.2
		C512.4,612.3,512.8,613.2,513.3,614L513.3,614z"/>
	<path d="M112.1,375.1c6.6,1.9,12.9,4.7,18.8,8.1c5.8,3.3,11.6,6.8,17.3,10.2c1,0.6,2.1,1,2.8,1.8c3,3.3,7.1,4.7,11,6.6
		c4.3,2.1,8.4,4.6,12.6,6.9c0.8,0.5,1.7,0.9,2.5,1.4c6.3,3.7,12.6,7.5,19,11.1c4.2,2.4,8.4,4.7,12.7,6.7c7.3,3.4,13.9,7.8,20.7,12
		c3.2,2,6.6,4,9.8,5.9c1.2,0.7,2.5,1.4,4.2,2.4c-2,0.7-3.2-0.1-4.3-0.7c-5.3-2.9-10.6-5.9-15.9-8.9c-6.9-3.9-13.9-7.9-20.8-11.8
		c-6.7-3.8-13.3-7.6-19.9-11.4c-1.4-0.8-2.8-1.5-4.2-2.3c-3.5-1.9-7-3.9-10.4-5.8c-2.5-1.4-5-2.8-7.5-4.2
		c-15.4-8.7-31.3-16.6-46.2-26.3C113.6,376.3,112.9,375.6,112.1,375.1L112.1,375.1z"/>
	<path d="M913.2,307.6c-1.2,1.9-2.3,3.8-3.6,5.6c-7.5,10.5-15,21-22.7,31.5c-3.4,4.6-7.1,9-10.6,13.6c-2.8,3.7-5.4,7.5-8,11.3
		c-7.5,10.5-15,21.1-22.5,31.6c-2,2.9-4.1,5.7-6.2,8.5c-0.7,0.9-1.6,1.7-3,2.1c0.4-0.8,0.7-1.7,1.2-2.4c4.4-6.5,8.7-13,13.2-19.4
		c11.7-16.2,23.5-32.3,35.2-48.4c1.4-1.9,2.8-3.9,4.2-5.8c6.2-8.3,12.3-16.7,18.5-25c1-1.4,2.2-2.6,3.3-3.9
		C912.5,307.1,912.9,307.4,913.2,307.6z"/>
	<path d="M487.8,716.7c0.5,0.5,1,0.9,1.6,1.4c0.5-0.6,0.9-1.1,1.4-1.7c0.6,0.5,1.3,1.5,2.2,1.8c1.5,0.4,3.2,0.5,4.7,0.5
		c3,0,6.1,0,9.1-0.1c2.1,0,4.2,0.1,6.2-1.4c0.3-6,0.4-12.2,1-18.4c0.6-6.1,1.8-12.2,2.9-18.9c1,3.2,1.1,6.2,0.8,9.9
		c-0.8,10.2-1.4,20.4-2.1,30.5c-0.3,4.6-0.5,9.2-1.3,13.9c-0.2-0.6-0.6-1.3-0.7-1.9c-0.2-2.5-0.2-5.1-0.4-7.7
		c-0.1-1.2-0.3-2.5-0.5-3.5c-2.3-1.1-4.3-0.7-6.4-0.2c-2.2,0.5-4.3,0.7-6.4-0.8c-1.1-0.7-2.8-0.9-4.1-0.7
		c-5.6,0.8-11.1-0.3-16.7,0.1c-5.1,0.3-10.2,0.6-15.3,0.8c-7.5,0.4-15,0.7-22.5,1c-1.9,0.1-4-0.2-4.3,2.8c-0.2-1.7-1.3-2.3-2.8-2.2
		c-4,0.3-8,0.6-11.9,0.8c-1.7,0.1-3.4,0-5.2-0.7c1.5-0.1,3-0.3,4.5-0.4c6.5-0.4,13-0.7,19.6-1c5.7-0.3,11.5-0.8,17.2-1
		c7.8-0.3,15.6-0.5,23.4-0.8c1.3,0,2.6,0,3.8-0.1C486.9,718.6,487.8,717.9,487.8,716.7z"/>
	<path d="M112.2,375c-6.4-3.5-12.8-7-19.2-10.6c-5.1-2.9-10.1-6.1-15.2-9c-2.8-1.6-5.8-3-9.8-3.7c2.3,4.3,5.3,7,8.7,9.7
		c-0.1,0.5-0.1,1.2-0.3,1.8c-0.1,0.6-0.3,1.1-0.5,1.6c-0.6,0-1,0.1-1.1,0c-3.2-3.3-6.6-6.5-9.6-10c-2-2.3-1.8-2.5-0.2-6.1
		c2-0.9,4-0.5,5.9,0.4c3.5,1.5,7.1,3,10.3,4.9c9.7,5.8,19.3,11.7,29,17.6C111.4,372.4,112.6,373.2,112.2,375L112.2,375z"/>
	<path d="M798.6,33.1c-3.7-1.8-4.5-5.3-4.6-8.8c-0.1-1.5,0.9-3.5,2.1-4.6c3.6-3.4,7.3-6.7,11.3-9.6c1.9-1.4,4.3-2,6.6-2.7
		c4-1.2,7.9-2.3,11.5-4.5c4.2-2.5,9.1-2.9,13.9-2.9c0.8,0,1.6,0.7,2.7,1.2c-1.1,2.1-2.7,2.9-4.6,3.3c-4.5,0.9-9.1,1.7-13.6,2.6
		c-1.6,0.3-3.2,0.4-4.6,1c-4.7,2.1-9.3,4.2-13.8,6.6c-1.8,0.9-3.4,2.4-4.9,3.8c-2.2,2.2-3.6,4.9-2.9,8.2c0.1,0.3,0.2,0.6,0.2,0.9
		C797.6,30.9,797.8,31.8,798.6,33.1z"/>
	<path d="M534.6,1273.5c-2.1-0.7-3.4-2.3-4.7-3.8c-1.8-2.1-4-3.6-6.4-4.9c-3.5-1.9-6.9-4-10.4-6c-5.7-3.2-11.5-6.3-17.2-9.5
		c-3.5-2-6.9-4.1-10.3-6.2c-2.7-1.7-5.4-3.4-8.4-5.3c1.7-1,3-0.6,4.2,0.1c5.9,3.2,11.7,6.5,17.6,9.8c1.7,0.9,3.4,1.9,5,2.8
		c7.3,4.2,14.7,8.3,21.9,12.8c3.1,1.9,5.8,4.5,8.6,6.8C535.7,1270.9,535.6,1271.2,534.6,1273.5z"/>
	<path d="M337.5,1169.6c-2.3,0.5-3.9-0.6-5.3-1.7c-3.4-2.7-6.7-5.5-9.9-8.3c-2.8-2.4-5.5-4.6-9-6.1c-4-1.8-7.9-4.3-10.4-8.2
		c-0.5-0.7-0.7-2.3-0.5-2.5c0.8-0.5,2-0.9,3-0.7c1,0.2,2,1,2.8,1.7c5.7,4.6,11.6,9,17.1,13.9
		C329.6,1161.4,332.4,1166.6,337.5,1169.6z"/>
	<path d="M531,933c0-2.5-0.2-5.1,0-7.6c0.8-10.5,1.8-21,2.8-31.5c0.1-1.5,0.9-3,1.6-4.4c0.2-0.3,1.2-0.6,1.6-0.4
		c0.4,0.2,0.8,0.9,0.9,1.5c0.1,0.4,0,1-0.2,1.4c-1.7,2.9-1.4,6.2-1.6,9.3c-0.2,3.7-0.6,7.3-0.9,11c-0.3,4.8-0.4,9.6-0.7,14.3
		c-0.1,1.6-0.2,3.2-0.7,4.7c-0.3,0.9-1.3,1.5-2,2.2C531.6,933.4,531.3,933.2,531,933z"/>
	<path d="M124.8,1071.7c0.5,0.5,1.4,0.9,1.4,1.4c0.2,4.6,1.1,9.1,0.8,13.8c-0.3,4.9,0.4,9.9,1,14.8c0.9,8.4,2.1,16.8,3.1,25.2
		c0.2,2,0,4.1-0.6,6.3c-0.3-1.3-0.7-2.6-1-3.9c-0.3-1.2-0.5-2.5-0.7-3.8c-0.7-5.1-1.4-10.1-2-15.2c-0.5-4-0.7-8-1-11.9
		c-0.5-5.6-1-11.1-1.4-16.7c-0.2-3.2-0.4-6.3-0.5-9.5C124,1072.1,124.4,1071.9,124.8,1071.7z"/>
	<path d="M192.5,1101.4c-0.7,1.1-1.1,2.4-2,3.1c-2.5,2-5.1,3.9-7.8,5.5c-4.5,2.7-9.2,5.1-13.8,7.6c-1.3,0.7-2.6,1.4-4,1.6
		c-3.8,0.6-6.8,2.6-9.9,4.5c-2.8,1.8-5.7,3.6-8.7,5c-4.3,1.9-8.3,4.1-11.2,8.3c0.4-3.7,2.5-6.4,5.8-7.9c5.3-2.5,10.6-5,15.8-7.7
		c7.7-3.8,15.3-7.8,23-11.7c0.6-0.3,1.1-0.6,1.7-0.9c2.8-1.8,5.7-3.5,8.5-5.3C190.9,1102.9,191.7,1102.2,192.5,1101.4L192.5,1101.4z
		"/>
	<path d="M670.5,685.7c-0.2,1.5-0.3,3-0.5,4.5c-1.2,8.2-2.6,16.4-2.7,24.8c0,2-0.1,2,2.2,3.3c-2.1,0.2-2.8,1.4-2.8,3.2
		c-0.1,4.9-0.2,9.9-0.2,14.8c0,4.1,0.2,8.3,0.2,12.4c0,0.4-0.3,0.8-0.8,2.1c-0.4-1.7-0.6-2.5-0.7-3.3c-0.3-2.2-0.5-4.4-0.7-6.6
		c0-0.4,0-0.9,0-1.3c0.2-2.7,0.7-5.4,0.6-8.1c-0.1-7.2,0-14.3,0.7-21.5c0.7-7.3,1.6-14.6,3.2-21.8c0.2-0.9,0.5-1.8,0.8-2.6
		C670.1,685.7,670.3,685.7,670.5,685.7z"/>
	<path d="M1163,1218.3c2.6-1.5,4.3-1.2,6-1c8,1.1,16.1,2.3,24.1,3.4c1.1,0.1,2.3,0.2,3.3-0.1c3.9-1,7.5,0.6,11.2,1.5
		c0.4,0.1,0.6,0.7,1.2,1.3c-0.8,0.4-1.4,1-2,1c-2.9-0.1-5.8-0.1-8.6-0.5c-10.7-1.5-21.4-3.1-32.2-4.6
		C1165.3,1219.2,1164.6,1218.8,1163,1218.3z"/>
	<path d="M886.7,29.3c1.4-1.1,2.4-1.8,3.3-2.7c1.8-1.6,3.7-3.1,5.2-5c3.1-4,2.6-7.7-1.1-11c-3.8-3.4-8.4-5.1-13.3-6.3
		c-1.2-0.3-2.3-0.7-3.4-1.8c0.7-0.1,1.4-0.4,2-0.2c3.6,0.9,7.1,1.9,10.7,2.8c4.8,1.2,7.7,4.5,9.4,8.8c1.2,2.9,0.2,5.9-1.5,8.2
		c-2.4,3.4-5.6,6.1-9.6,7.7C888.3,29.9,887.9,29.6,886.7,29.3z"/>
	<path d="M339.8,1316.7c-4.1,1.8-8.1,3.6-12.1,5.5c-0.7,0.3-1.4,0.9-1.8,1.5c-2.7,3.9-6.7,4.5-10.9,4.2c-0.6,0-1.6-0.7-1.8-1.2
		c-0.2-0.6,0.2-1.6,0.6-2.1c0.8-0.8,1.7-1.4,2.7-1.8c5.8-2.2,11.6-4.3,17.4-6.5C336.1,1315.4,338,1315.6,339.8,1316.7L339.8,1316.7z
		"/>
	<path d="M310,726.5c-0.2,4.8-0.5,9.6-0.7,14.3c0,1.1,0.2,2.2,0.3,3.3c0.1,0.4,0.4,1,0.3,1.3c-2.3,3.3-0.7,7.1-1.3,10.7
		c-0.7,3.6-0.7,7.3-1.1,10.9c-0.7-6.7,1-13.4,0.3-20.4c-5.9,0.6-11.3,2.1-16.5,4.7c1.5,0.2,3,0.4,4.2,0.5c-1.5,0.2-3.3,0.4-5.3,0.7
		c-1.1,4.7-0.5,9.2-1.3,13.6c0-5.2,0-10.5,0-16c6-2.4,12.8-2.7,19.2-5.4c0.3-4.2,0.6-8.3,1-12.4C309.3,730.3,309.8,728.4,310,726.5
		L310,726.5z"/>
	<path d="M115.7,585.9c0.1,1.6,0.4,3.1,0.4,4.7c0,3.5-0.1,7-0.1,10.5c0,3-0.6,6,1.4,8.8c0.5,0.7-0.2,2.4-0.7,3.5
		c-0.6,1.3-1.8,1.8-3.2,1.2c-0.2-0.3-0.5-0.5-0.5-0.8c0.1-8,0.2-16,0.3-23.9C113.4,588.3,113.3,586.6,115.7,585.9z"/>
	<path d="M494.4,748c-1.5,0.3-3.1,0.5-4.8,0.8c-0.4,1.6-0.7,3.1-1.4,5.8c-0.7-2.5-1-3.8-1.4-5.4c-3.8-1.6-7.8-0.7-11.7-0.7
		c-3.8,0-7.6,0.1-11.5,0.1c-3.9,0-7.8,0-11.7-0.2c5.7-1,11.4-0.6,17.1-0.6c5.7,0,11.4-0.2,17.5-0.2c1-2.6,1.9-5.1,2.8-7.7
		c1.3,1.3-0.1,2.5-0.1,3.8c0.1,1.9,0.4,2.5,2.3,3c1,0.3,2,0.5,3,0.7C494.5,747.6,494.4,747.8,494.4,748z"/>
	<path d="M389.9,678.9c1.5,7.3,2.1,14.6,2.1,22c-2.3-3.9-0.2-8.6-2.6-13.4c-1.6,5.9-1.6,11.1-2,16.2c-0.4,5.1-0.7,10.2-1.1,16.2
		c-1.3-7.8,0.3-14.5,0.5-21.2c0.2-6.7,1.4-13.3,2.2-19.9C389.2,678.9,389.6,678.9,389.9,678.9z"/>
	<path d="M642.8,804.2c-0.4-1.5-0.7-3-1.2-4.9c-4.6-1-9.3-0.1-13.9,0.1l0.1,0.1c0.4-0.2,0.8-0.6,1.3-0.6c6-0.4,12-0.8,18-1.1
		c3.5-0.2,7-0.1,10.5-0.3c2.7-0.2,5.3-0.7,8.1-1.1c1.2-4.5-0.6-8.9,0.8-13.2c0.2,5,0.4,9.9,0.6,14.7c-7,0.4-14,0.7-21,1.1
		c-0.9,0.1-1.8,0.4-2.9,0.6C643,801.1,642.8,802.7,642.8,804.2L642.8,804.2z"/>
	<path d="M564,744.7c-0.9-21.1-0.6-42,2.7-62.9c-0.7,10.5-1.6,20.9-2.1,31.4C564.1,723.7,564.2,734.2,564,744.7z"/>
	<path d="M770.7,689c7.1,0.3,13.6,0.7,20.1,1c0.1,0.2,0.1,0.3,0.2,0.5c-0.7,0.3-1.4,0.8-2,0.8c-4.6-0.2-9.2-0.6-13.8-0.9
		c-1.4-0.1-2.8,0.1-4.5,0.2c-0.2,2.4-0.4,4.4-0.6,6.9c-0.4-2.5-0.8-4.5-1.2-6.7c-4.6-0.3-9-0.5-13.4-0.8c4.4-1.1,8.9,1.3,13.6-1.6
		c0.2-2,0.4-4.3,0.6-6.7c0.1,0,0.3,0,0.4,0C770.3,683.9,770.5,686.2,770.7,689z"/>
	<path d="M310.1,726.6c0-0.2,0-0.3,0-0.5c-0.1-4.7,0.7-6.5-5.9-6.9c-3.8-0.2-7.5-1.1-11.2-2c5.5-0.5,10.7,1.7,16.4,1.4
		c0.4-1.5,0.7-2.9,1.2-5c0.1,1.2,0.1,1.9,0.2,2.5c0.4,3.1,0.7,3.4,3.8,3.7c1.6,0.1,3.2,0.1,4.8,0.4c4.4,0.8,8.8,1.6,13.1,3
		c-3.2-0.4-6.4-0.8-9.6-1.2c-2.8-0.4-5.6-1-8.5-1.4c-1-0.1-2.1,0.1-3.4,0.1C310.6,722.8,310.3,724.6,310.1,726.6
		C310,726.5,310.1,726.6,310.1,726.6z"/>
	<path d="M769.9,1211.6c-11,0-21.3,0-31.5,0c0-0.2-0.1-0.3-0.1-0.5c1.8-0.3,3.7-0.6,5.5-0.8c5.4-0.3,10.8-0.6,16.2-0.8
		C763.2,1209.4,766.3,1209.5,769.9,1211.6z"/>
	<path d="M641.1,722.9c1,2.1,1.5,4.4,1.3,6.8c0,0.8-0.2,1.6-0.3,2.4c-0.8,5.8-1.5,11.6-1.8,17.5c-0.1-1.1-0.2-2.1-0.4-3.2
		c-0.4-2.5-1.3-3.2-4-2.8c-2,0.3-4,0.6-6.1,0.6c2.1-0.9,4.3-1.1,6.6-1.3c2.7-0.3,3.3-0.8,3.4-3.6c0.2-4.1,0.2-8.3,0.3-12.4
		c0-1.2,0-2.5,0-3.7C640.4,723,640.8,723,641.1,722.9z"/>
	<path d="M234.9,1046c-1.8-4.4-1.8-9.1-1.3-13.7c0.5-4.5,0.7-8.9,0-13.3c-0.3-1.9-0.1-3.8-0.1-5.7c0-0.5,0.4-1,0.9-2.2
		c0.5,1.1,1,1.6,1,2.1c0,2.1,0.2,4.2-0.1,6.2c-0.9,5.2-0.6,10.5-0.4,15.7C235.1,1038.8,234.9,1042.4,234.9,1046L234.9,1046z"/>
	<path d="M330.6,704c-5.4,0.6-10.7,1.3-16.1,1.9c-1.9,0.2-2.9,1-3.1,2.9c-0.2,0-0.5,0-0.5-0.1c-0.6-2-2.2-2-3.8-1.8
		c-3.6,0.4-7.3,0.8-11.9,1.4c5.6-2.1,10.7-1.6,15.5-2.8c0.3-2,0.5-3.6,0.8-6.2c0.2,1.8,0.2,2.5,0.3,3.3c0.1,0.8,0.3,1.5,0.4,2.6
		C318.4,704.9,324.3,703.5,330.6,704z"/>
	<path d="M572.1,749.5c1.5-0.3,3.1-0.7,4.6-0.9c3.3-0.4,6.6-0.7,9.8-1c1.7-3.8,0.4-7.6,1.3-11.5c0.8,3.8-0.5,7.5,0.9,11.3
		c2.4,0,4.5,0,6.7,0c-6.2,1.4-6.2,1.4-7.8,3.6c-0.3-1.9-1.7-2.1-3.2-2C580.3,749,576.2,749.3,572.1,749.5
		C572.1,749.4,572.1,749.5,572.1,749.5z"/>
	<path d="M365.7,691.8c1,3.1-0.7,6.3,2.4,8.1c-1.8,0.6-1.8,2-1.8,3.5c0,7-0.1,14.1-0.1,21.1c0,1.4,0,2.8-0.4,4.2c0-2.4,0-4.8,0-7.1
		c0-2.6-0.1-5.1-0.1-7.7c0-2.4,0-4.8,0-7.2c0-2.5,0.3-5-0.9-7.3C366.6,697.2,364.9,694.7,365.7,691.8z"/>
	<path d="M814,1210.2c-0.5,0.3-0.8,0.7-1.2,0.7c-7.5,0.2-15,0.4-23.5,0.5C795.7,1209.4,810,1208.8,814,1210.2z"/>
	<path d="M130,1153.8c-0.8-3.6-0.6-7.4,0.3-11c0.1-0.6,0.8-1.1,1.5-1.8c0.4,0.8,0.7,1.2,0.7,1.6c-0.1,3.3-0.3,6.6-0.5,9.9
		C131.9,1153.5,131.6,1154.3,130,1153.8z"/>
	<path d="M746.4,847.2c-9.3,1.6-16.5,2-20.1,1.1C729.5,847.1,740.5,846.4,746.4,847.2z"/>
	<path d="M857.7,1210.5c-5.5,0-11,0-17.5,0C846.8,1209.3,852.3,1209,857.7,1210.5z"/>
	<path d="M907.7,755.9c2.1,1.3,4.2,2.7,6.4,3.9c2.2,1.1,5,0.6,7,2.8C916,764,912.1,762.2,907.7,755.9z"/>
	<path d="M311.8,693.9c0.5-8.2,1.1-16.4,1.6-24.5c0.2,0,0.4,0,0.6,0c-0.5,8.2-1.1,16.3-1.6,24.5C312.1,693.9,312,693.9,311.8,693.9z
		"/>
	<path d="M1010.4,170.6c-4.5,0.2-8-0.2-11.7-2.2c0.6-0.6,1-1.3,1.4-1.3C1003.7,167.2,1006.8,168.4,1010.4,170.6z"/>
	<path d="M352.4,700.9c-4.3,0.9-8.6,1.8-12.9,2.8c-0.2,0.1-0.3,0.8-0.6,1.8c-0.2-1.6-0.4-2.7-0.4-3.7c0-1.3,0.2-2.5,0.6-3.8
		c0.1,1,0.3,2.1,0.4,3.3C344,702.2,348.2,700.9,352.4,700.9z"/>
	<path d="M363.5,789.4c0,3.3,0,6.6,0,10c0,1.6,0.4,2.9,2.3,3c-0.9,0.6-1.8,1.2-2.8,1.9c-0.2-0.2-0.6-0.9-1.1-1.2
		c-0.7-0.4-1.5-0.4-2.8-0.7c2.5,0.1,3.6-0.7,3.6-2.8c0-3.3,0-6.7,0-10C363,789.5,363.2,789.5,363.5,789.4z"/>
	<path d="M601.2,746.6c6-0.7,12.1-1.4,19.2-2.3C615.6,746.5,609.4,747.3,601.2,746.6z"/>
	<path d="M757.7,713.3c3.9-0.2,7.8-0.4,12-0.6c0.2-2.1,0.4-3.9,0.6-5.7c1.2,1.8,1.1,3.8,1.3,5.9c-2.4,1.2-4.7,0.5-7,0.5
		c-2.2,0.1-4.4,0.2-6.6,0.3C757.8,713.6,757.7,713.4,757.7,713.3z"/>
	<path d="M589.3,701.5c-0.2,8.1-0.5,16.2-0.7,25.2c-1.4-2.7-0.8-4.8-0.8-6.6c0-5.1,0.4-10.2,0.8-15.3
		C588.6,703.7,589.1,702.6,589.3,701.5L589.3,701.5z"/>
	<path d="M387.2,791.3c0.6,5.9,1.2,11.8,1.9,17.7C387.2,805.1,386.7,800.2,387.2,791.3z"/>
	<path d="M337.7,724.4c0.2-1.8,0.3-3.2,0.4-4.5c0.3,3,2.4,3.7,4.9,4.2c2.5,0.6,5.4,0.4,7.9,2.5C346.4,725.8,342.3,725.2,337.7,724.4
		z"/>
	<path d="M311.3,780.6c-1.9,0.8-4.4-0.6-5.6,2c-1.2-0.7-2.4-1.4-3.5-2c4.4-0.1,3.6-4,4.6-6.9c0,1.9,0,3.7,0,5.8
		C308.3,779.9,309.8,780.2,311.3,780.6z"/>
	<path d="M746.5,715c-4.6,0.5-9.4,1-14.8,1.5c0.9-0.6,1.1-1,1.3-1c4.4-0.5,8.8-0.9,13.2-1.3c0.1,0,0.3,0.1,0.5,0.1
		C746.7,714.4,746.6,714.5,746.5,715z"/>
	<path d="M692.1,718.5c-2-0.1-3.2-0.2-4.6-0.3c0.2-0.2,0.4-0.4,0.6-0.4c1.4-0.1,2.9-0.2,4.7-0.3c0,2.4,0,4.7,0,7c0,2.2,0,4.5,0,6.7
		c-0.2,0-0.4,0-0.6,0C692.1,727.1,692.1,723,692.1,718.5z"/>
	<path d="M692,677.6c1.5,3,1.8,7.1,1,12.7c-0.5-0.9-0.9-1.4-0.9-1.9c0.3-3,0.5-5.9-1-8.8C691,679.4,691.7,678.6,692,677.6z"/>
	<path d="M572.1,749.4c-2.2,0.4-4.3,0.8-6.5,1.2c-1.5,3.2,0,6.4-0.7,10.3c-0.4-4.3-0.8-7.8-1.2-11.7
		C566.3,748.6,569.2,749.5,572.1,749.4L572.1,749.4z"/>
	<path d="M693.6,695.1c-0.3,6.1-0.5,11.1-0.8,16.2C692.3,706.2,691.6,701.1,693.6,695.1z"/>
	<path d="M274.2,780.6c4.6-0.9,9.7,0.7,14.6-1.6c0.1,0.8,0.1,1.6,0.2,2.4C283.8,781.1,278.9,780.8,274.2,780.6z"/>
	<path d="M386.4,726.3c-0.2,4.6-0.4,9.2-0.7,13.8C385.1,735.5,384.8,730.8,386.4,726.3z"/>
	<path d="M710.1,717.2c2.4-1.3,6.1,1.1,7.1-3c1.2,1.8,1.2,1.8,4.1,2.2C718.6,717.7,718.6,717.7,710.1,717.2z"/>
	<path d="M610,800c-0.3,0.1-0.5,0.4-0.8,0.4c-4.7,0.6-9.3,1.1-14,1.3c1.3-1.5,3-1.1,4.5-1.2c1.7-0.1,3.5-0.1,5.2-0.2
		C606.6,800.2,608.3,800.1,610,800L610,800z"/>
	<path d="M4.4,954.2c-2.6,1.9-3.6,2.1-4.2,1.1c-0.6-1.1-0.2-2.8,0.9-3.3C3.1,951,3.5,952.9,4.4,954.2z"/>
	<path d="M432.9,749c-4.6,0-8.7,0-12.8,0C424.2,748.9,428.3,746.4,432.9,749z"/>
	<path d="M583.3,801.9c2-1,5,0.9,6.4-2.7c0.3,1.6,0.4,2.7,0.7,4c-1.4-0.4-2.5-0.9-3.7-1c-1.1-0.1-2.2,0.3-3.2,0.4
		c-0.1,0-0.3-0.2-0.3-0.3C583.1,802.2,583.2,802,583.3,801.9z"/>
	<path d="M716.4,692.4c-2.2-4.5-5.6-2.4-9-3.1c2,0,3.3,0.1,4.7,0c1.5-0.1,3-0.4,4.8-0.7C716.7,689.6,716.6,690.5,716.4,692.4z"/>
	<path d="M362.7,781.8c0-4.5,0-9.1,0-13.6c0.2,0,0.4,0,0.6,0c0,4.6,0,9.1,0,13.7C363,781.8,362.9,781.8,362.7,781.8z"/>
	<path d="M716.9,736.4c0.1-1.6,0.2-2.2,0.2-2.9c3.3,0,6.4,0,9.1,0C723.6,734,720,732.7,716.9,736.4z"/>
	<path d="M616.4,674.5c1,4.2,1.9,7.4-1.1,10.8C615.7,681.7,616,678.6,616.4,674.5z"/>
	<path d="M385.8,762.1c-0.5-3.9-1-8.1,0-12.2C385.8,754,385.8,758,385.8,762.1z"/>
	<path d="M742.8,676.9c1,3.4,0.1,5.9,0.6,9.3C742.2,682.9,740.8,680.6,742.8,676.9z"/>
	<path d="M402.9,748.9c3.4-0.2,6.8-0.3,10.2-0.5c0,0.2,0,0.4,0,0.6C409.7,749,406.3,749,402.9,748.9
		C402.9,748.9,402.9,748.9,402.9,748.9z"/>
	<path d="M610.1,800c5.9-0.4,11.7-1.6,17.7-0.6c0,0-0.1-0.1-0.1-0.1c-2.6,0.2-5.3,0.6-7.9,0.6C616.5,800.1,613.2,800,610.1,800
		L610.1,800z"/>
	<path d="M544.4,674.8c0,3.3-0.4,6.6-1.1,9.9c0-3.3,0-6.6,0-9.9C543.6,674.8,544,674.8,544.4,674.8z"/>
	<path d="M386.1,772.8c0.1,3.6,1.1,7.3,0.3,11C385.6,780.1,385.7,776.5,386.1,772.8z"/>
	<path d="M541.7,707.5c0.2-3.5,0.4-7,0.6-10.4C543.1,699.9,543.1,702.2,541.7,707.5z"/>
	<path d="M414.3,681.7c0,3.4,0,6.8,0,10.3c-0.2,0-0.3,0-0.5,0c0-1,0-2,0-3.1c0-1.1,0.1-2.2,0.1-3.3c0-1.3,0-2.5,0-3.8
		C414,681.8,414.2,681.7,414.3,681.7z"/>
	<path d="M541.1,730.3c0-3.2,0-6.3,0-9.5c0-0.1,0.2-0.2,0.7-0.6c0,1.9,0,3.6,0,5.2c0,1.6,0,3.2,0,4.8
		C541.6,730.2,541.3,730.3,541.1,730.3z"/>
	<path d="M588.8,784.4c0,3.1,0,6.3,0,9.6c0.1,0,0,0-0.1,0.1c-0.1-0.1-0.2-0.3-0.2-0.4c0-3,0-6,0-9
		C588.6,784.5,588.7,784.4,588.8,784.4z"/>
	<path d="M438.5,691.5c-0.1,2.8-0.3,5.6-0.4,8.4c-0.1,0-0.1,0-0.2,0c0-2.9,0-5.8,0-8.7C438.1,691.2,438.3,691.3,438.5,691.5z"/>
	<path d="M411.4,811.3c-1.3-3.4-0.7-6-0.5-8.5C411.4,805.2,412.5,807.7,411.4,811.3z"/>
	<path d="M277,752.6c3-1.6,5.6-0.8,7.9-1.5C282.8,752.4,280.5,753.2,277,752.6z"/>
	<path d="M290.4,802.8c-1.9,1.6-3.9,1.3-5.9,0.8c1-0.6,2-1.3,3.1-2.1C288.3,801.9,289.4,802.4,290.4,802.8L290.4,802.8z"/>
	<path d="M1145.2,1215.8c-2.2-0.3-4.3-0.5-6.9-0.8C1141.2,1213.9,1141.2,1213.9,1145.2,1215.8z"/>
	<path d="M412,793.1c0.4,2-0.3,3.6-0.8,5.4C409.8,796,409.8,796,412,793.1z"/>
	<path d="M666,761.3c0,3.1,0,6.2,0,9.3c-0.2,0.1-0.4,0.2-0.4,0.2c-0.1-0.1-0.2-0.3-0.2-0.4c0-3,0-6,0-9
		C665.5,761.4,665.8,761.3,666,761.3z"/>
	<path d="M320.8,802.8c-2.8,0-5.6,0-8.3,0c0-0.1,0-0.2,0-0.3c2.8,0,5.6,0,8.3,0C320.8,802.6,320.8,802.7,320.8,802.8z"/>
	<path d="M338.9,751.7c0-2.6,0-5.2,0-7.9c0,0,0.1,0,0.1,0c0.1,1.2,0.1,2.5,0.2,3.7c0.1,1.4,0.2,2.8,0.3,4.2
		C339.3,751.7,339.1,751.7,338.9,751.7z"/>
	<path d="M339.9,774.5c0-2.8,0-5.6,0-8.4c0.1,0,0.2,0,0.3,0c0,2.8,0,5.6,0,8.5C340.1,774.5,340,774.5,339.9,774.5z"/>
	<path d="M334.1,780.7c-2.5,0-4.9,0-7.4,0c0-0.1,0-0.2,0-0.3c2.5,0,4.9,0,7.4,0C334.1,780.5,334.1,780.6,334.1,780.7z"/>
	<path d="M282.3,710.2c-0.6,1.1-0.9,1.7-1.3,2.6c0.7,0.7,1.4,1.5,2.9,3c-1.6-0.8-2.4-1-2.8-1.5C279.9,712.8,280,712.3,282.3,710.2z"
		/>
	<path d="M286.7,666.9c-0.7-1.6-0.9-3.2,0.5-4.9C288.2,664,288.2,665.5,286.7,666.9z"/>
	<path d="M439.7,676c0.6,1.8,0,3.4-1,5.1c0-1.7,0-3.3,0-5C439.1,676.1,439.4,676.1,439.7,676z"/>
	<path d="M591,678.2c-0.1,2.3-0.2,4.7-0.4,7C590.1,682.9,589.9,680.5,591,678.2z"/>
	<path d="M290.4,802.9c2-0.1,4-0.3,6-0.4C294.4,804.1,292.4,803.1,290.4,802.9L290.4,802.9z"/>
	<path d="M336.6,802.4c2,0,4.1,0,6.1,0c0,0.1,0,0.3,0,0.4c-2,0-4.1,0-6.1,0C336.7,802.6,336.6,802.5,336.6,802.4z"/>
	<path d="M589.3,701.5c0-3.1,0-6.2,0-9.4C590,695.3,590.1,698.4,589.3,701.5L589.3,701.5z"/>
	<path d="M378.3,781.5c-2,0-4,0-6,0c0,0,0,0,0,0C374.3,781.5,376.3,781.5,378.3,781.5C378.3,781.5,378.3,781.5,378.3,781.5z"/>
	<path d="M672.6,739.2c1.9-0.3,3.6-0.7,6.3-1.1c-2.3,1.7-4.1,1.3-5.8,1.4C672.9,739.4,672.8,739.3,672.6,739.2z"/>
	<path d="M490.5,707.8c0.2-1.3,0.5-2.7,0.7-4c0.2,0,0.4,0,0.6,0.1c-0.1,1.3-0.2,2.7-0.3,4C491.2,707.8,490.9,707.8,490.5,707.8z"/>
	<path d="M693.1,750.9c0-2.4,0-4,0-5.5c0.1,0,0.1,0,0.2,0c0,1.4,0,2.9,0,4.3C693.3,749.9,693.3,750,693.1,750.9z"/>
	<path d="M364.9,739.9c0-1.7,0-3.4,0-5.1c0.2,0,0.3,0,0.5,0c0,0.9,0,1.7,0,2.6c0,0.8-0.1,1.7-0.1,2.5
		C365.1,739.9,365,739.9,364.9,739.9z"/>
	<path d="M323.4,741.7c2.1-0.9,4.3-1.8,6.4-2.7C328.1,741,325.6,741,323.4,741.7L323.4,741.7z"/>
	<path d="M692.1,737.4c-1.5,0-2.9,0-4.4,0c0,0,0-0.1,0-0.1c1.5-0.1,3-0.2,4.5-0.3C692.2,737.1,692.2,737.2,692.1,737.4z"/>
	<path d="M900.8,1210.3c-1.4,0-2.1,0-2.8,0c0-0.2-0.1-0.4-0.1-0.6c0.4-0.1,0.9-0.3,1.3-0.3C899.6,1209.5,899.9,1209.8,900.8,1210.3z
		"/>
	<path d="M1123.4,1213c1.5,0.1,3.1,0.1,4.6,0.2c0,0.1,0,0.3,0,0.4c-1.5,0-3,0-4.5,0C1123.4,1213.4,1123.4,1213.2,1123.4,1213z"/>
	<path d="M412.1,785.8c0.3-1.2,0.5-2.4,0.8-3.7c0.2,0,0.5,0.1,0.7,0.1c-0.2,1.2-0.4,2.5-0.6,3.7
		C412.7,785.9,412.4,785.9,412.1,785.8z"/>
	<path d="M749.2,689.9c-0.9,0.1-1.9,0.2-2.8,0.3c0-0.3,0-0.5-0.1-0.8c0.9-0.1,1.9-0.1,2.8-0.2C749.2,689.4,749.2,689.7,749.2,689.9z
		"/>
	<path d="M658.6,741.3c-1.2,0.1-2.5,0.1-3.7,0.2c0-0.1,0-0.2,0-0.4c1.3,0,2.6,0,3.9,0C658.7,741.2,658.6,741.2,658.6,741.3z"/>
	<path d="M716.5,680.1c-0.1,0.8-0.1,1.6-0.2,2.4c-0.2,0-0.4,0-0.6,0c0-0.8,0-1.6,0-2.4C716,680.1,716.2,680.1,716.5,680.1z"/>
	<path d="M416.3,767.6c-0.2,1-0.4,1.9-0.6,2.9c-0.2-0.1-0.5-0.1-0.7-0.2c0.2-1,0.5-1.9,0.7-2.9C415.9,767.5,416.1,767.6,416.3,767.6
		z"/>
	<path d="M363.5,756.6c-0.1,1.2-0.1,2.4-0.2,3.6c-0.1,0-0.1,0-0.2,0c0-1.2,0-2.4,0-3.5C363.2,756.6,363.4,756.6,363.5,756.6z"/>
	<path d="M364.3,748c0,1,0,2,0,3c-0.2,0-0.4,0-0.5,0c0-1.1,0-2.1,0-3.2C364,747.9,364.2,747.9,364.3,748z"/>
	<path d="M612.8,728.9c0,1.2,0,2.4,0,3.5c0,0-0.1,0-0.1,0c0-1.2,0-2.4,0-3.5C612.7,728.9,612.8,728.9,612.8,728.9z"/>
	<path d="M463.8,693.8c0-1.3,0-2.5,0-3.7c0.1,0,0.3,0,0.4,0c-0.1,1.1-0.1,2.1-0.2,3.2C464,693.5,463.9,693.6,463.8,693.8z"/>
	<path d="M490.3,730.9c0.1-1.3,0.1-2.7,0.2-4c0.1,0,0.2,0,0.3,0c0,1.4,0,2.7,0,4.1C490.7,730.9,490.5,730.9,490.3,730.9z"/>
	<path d="M680.2,688.2c-0.5,0-0.9,0.2-1.3,0.1c-0.1,0-0.2-0.5-0.3-0.8c0.4-0.1,0.9-0.2,1.3-0.2C680,687.3,680,687.8,680.2,688.2z"/>
	<path d="M287.2,675.2c-0.5-0.2-1-0.4-1-0.5c0.1-0.6,0.2-1.1,0.4-1.7c0.4,0.2,1,0.3,1,0.5C287.6,674,287.4,674.5,287.2,675.2z"/>
	<path d="M288,719.2c-0.2-1.1-0.3-2.1-0.5-3.2c0.3,0,0.5-0.1,0.8-0.1c0,1.1,0,2.1,0,3.2C288.2,719.2,288.1,719.2,288,719.2z"/>
	<path d="M289.3,740.4c0,0.9,0,1.8,0,2.7c-0.1,0-0.2,0-0.4,0c0-0.9-0.1-1.8-0.1-2.7C289,740.4,289.1,740.4,289.3,740.4z"/>
	<path d="M614.7,704.7c-0.1,0.8-0.2,1.5-0.3,2.3c-0.2,0-0.4,0-0.6,0c0.1-0.7,0.2-1.5,0.2-2.2C614.3,704.7,614.5,704.7,614.7,704.7z"
		/>
	<path d="M487.9,790.3c0,0.9,0,1.8,0,2.7c0,0-0.1,0-0.1,0c0-0.9,0-1.8,0-2.7C487.8,790.2,487.9,790.2,487.9,790.3z"/>
	<path d="M641.2,792c0-1.1,0-2.1,0-3.2c0.1,0,0.3,0,0.4,0c0.1,1.1,0.1,2.1,0.2,3.2C641.6,792,641.4,792,641.2,792z"/>
	<path d="M463.3,781.2c0.2,0.8,0.4,1.6,0.6,2.4c-0.3,0.1-0.5,0.1-0.8,0.2c-0.1-0.9-0.2-1.7-0.4-2.6
		C462.9,781.2,463.1,781.2,463.3,781.2z"/>
	<path d="M489,703.7c0,1,0,2,0,3.1c-0.1,0-0.1,0-0.2,0c0-1,0-2,0-3.1C488.8,703.7,488.9,703.7,489,703.7z"/>
	<path d="M613.6,716.1c0,1.8,0,2.5,0,3.1c-0.2,0-0.3,0-0.5,0C613.3,718.5,613.4,717.9,613.6,716.1z"/>
	<path d="M192.6,1101.5c1.7-0.9,3.3-1.9,5-2.8l-0.1-0.1C196.3,1100.4,194.6,1101.2,192.6,1101.5L192.6,1101.5z"/>
	<path d="M273.8,803.7c-0.7,0-1.5,0-2.2,0c0-0.1,0-0.2,0-0.2c0.8,0,1.5,0,2.3,0C273.8,803.6,273.8,803.7,273.8,803.7z"/>
	<path d="M288.9,709.2c-0.6,0.4-0.9,0.6-1.2,0.8c-0.2-0.4-0.4-0.7-0.5-1.1c0-0.2,0.5-0.6,0.6-0.5
		C288.1,708.5,288.4,708.8,288.9,709.2z"/>
	<path d="M340.2,787.1c0,0.7,0,1.4,0,2.1c-0.1,0-0.2,0-0.3,0c-0.1-0.7-0.2-1.4-0.3-2C339.8,787.2,340,787.1,340.2,787.1z"/>
	<path d="M288.3,734c0-0.7,0-1.4,0-2c0.1,0,0.3,0,0.4,0c0.1,0.7,0.2,1.4,0.4,2.1C288.8,734,288.6,734,288.3,734z"/>
	<path d="M323.4,741.7c-1.2,1-2.7,1-4.2,1.3C320.4,741.6,321.9,741.5,323.4,741.7L323.4,741.7z"/>
	<path d="M462.1,713c0,0.9,0,1.7,0,2.6c-0.1,0-0.2,0-0.2,0c0-0.9,0-1.7,0-2.6C461.9,713,462,713,462.1,713z"/>
	<path d="M674.9,718c1.4,0,1.8,0,2.2,0c-0.1,0.1-0.3,0.2-0.4,0.2C676.4,718.2,676.1,718.2,674.9,718z"/>
	<path d="M728.2,689.5c-0.6,0-1.1,0-1.7,0c0-0.1,0-0.1,0-0.2c0.6,0,1.1,0,1.7,0C728.2,689.4,728.2,689.4,728.2,689.5z"/>
	<path d="M464.6,803.2c0.1,0.4,0.2,0.8,0.1,1.2c0,0.2-0.4,0.3-0.7,0.4c-0.1-0.4-0.3-0.8-0.3-1.2
		C463.7,803.4,464.2,803.3,464.6,803.2z"/>
	<path d="M462.1,759c0,0.6,0.1,1.1,0.1,1.7c-0.1,0-0.3,0-0.4,0c0-0.6-0.1-1.1-0.1-1.7C461.8,759,462,759,462.1,759z"/>
	<path d="M742.2,699.8c0.2,1,0.4,1.4,0.4,1.8c0,0.2-0.2,0.4-0.4,0.6c-0.1-0.1-0.2-0.3-0.2-0.4C742.1,701.3,742.1,700.9,742.2,699.8z
		"/>
</g>
</svg>
