<?xml version="1.0" encoding="utf-8"?>
<!-- Generator: Adobe Illustrator 25.4.1, SVG Export Plug-In . SVG Version: 6.00 Build 0)  -->
<svg version="1.1" id="Layer_1" xmlns="http://www.w3.org/2000/svg" xmlns:xlink="http://www.w3.org/1999/xlink" x="0px" y="0px"
	 viewBox="0 0 1128.4 1188.3" style="enable-background:new 0 0 1128.4 1188.3;" xml:space="preserve">
<g>
	<path d="M368,557.4c4.5,0.3,8.9-0.1,13.2-1.5c2.4-0.8,5-1.1,7.5-1.2c11.5-0.3,23-0.6,34.5-0.7c15.5-0.1,31-0.3,46.5,0
		c6.5,0.1,13,1.1,19.8,1.8c-0.6,0.5-1.1,0.8-1.5,1.1c0.3,0.3,0.6,0.6,0.8,0.6c2.9,0.1,5.8,0.4,8.6,0c5-0.7,9.9,0.2,14.8,0.6
		c3.3,0.3,6.7,0.5,10,0.3c1.7-0.1,3.5-0.7,4.9-1.6c3.3-1.9,5.5-0.4,6.3,2.5c1.2,4.3,2.4,8.7,2.8,13.1c0.6,7.6,0.6,15.3,0.7,23
		c0.1,5.8-0.1,11.5-0.2,17.3c0,1-0.2,1.9-0.1,2.9c1.1,10.8,0.2,21.7,0.7,32.5c0.2,4.1-0.2,8.3-0.2,12.4c0,4,0.1,8,0.2,12
		c0,1.3,0.2,2.6,0.1,3.8c-0.7,14.2-1.6,28.4-2.1,42.6c-0.3,9.4-0.1,18.9-0.1,28.3c0,1.4,0.3,2.8,0.5,4.6c1.5,0,2.7,0.1,3.9,0
		c2.1-0.2,4.1-0.8,6.2-0.8c8.8,0.2,17.6-0.9,26.3-1.3c3.8-0.2,7.7,0,11.5,0c1.1,0,2.3,0.1,3.3-0.2c0.8-0.3,1.6-1.1,1.8-1.9
		c0.3-1.2,0.2-2.5,0.2-3.8c-0.3-14.5-0.8-29.1-2.2-43.6c-0.2-2.3,0.1-4.8-2.9-6c-1.1-0.5-1.2-2.5,0-3.3c2.1-1.4,1.8-3,1.7-5
		c-0.5-6.7-0.9-13.4-1.4-20.1c-0.1-1.8-0.3-3.5-0.5-5.3c-0.5-5.1-1.1-10.2-1.7-15.3c-0.1-1.2-0.4-2.4-0.7-3.5
		c-4.5-1-6.7,4.2-10.9,3.3c0-1.5,0-2.9,0-4.2c4-3.2,8.7-4.3,13.4-5.4c10.6-2.5,21.1-5,31.7-7.4c4.2-0.9,8.5-1.6,12.7-2.4
		c5.8-1.1,11.6-2.2,17.4-3.3c0.4-0.1,0.8-0.5,1.3-0.8c-0.1-1.6-0.9-2.7-2.4-3.2c-1.4-0.4-2.8-0.8-4.1-1.3c-7.5-2.7-9.6-8.5-5.4-15.5
		l-0.1-0.1c0.1,2.1,0.4,4.1,0.4,6.2c0,2.8,1.5,4.4,4,5.4c1.5,0.5,3,0.9,5,1.5c0.4-1.8,0.8-3.3,1.1-4.6c-1.3-1.3-2.8-2.2-3.5-3.5
		c-0.8-1.8,0-3.7,0.7-5.5c1.2-3.1,3.1-5.5,5.9-7.4c3.8-2.7,7.5-5.5,12.3-6c2.1-0.2,4.1-0.3,6.2-0.4c4.3-0.1,8.6,0.1,13-0.1
		c3-0.1,6-0.7,9.2-1.1c1.1-5.2,1.5-10,0.9-15c-1.4-11.6-2.9-23.1-4.2-34.7c-0.8-7.6-1.4-15.3-2.1-22.9c-0.1-1.4-0.4-2.8-0.7-4.3
		c-0.6-3.8-1.3-7.5-1-11.4c0.1-1.6-0.1-3.2-0.4-4.8c-1.6-7.7-2.4-15.5-2.8-23.3c-0.2-4.8-0.6-9.6-0.8-14.4c-0.1-1.2,0.3-2.4,0.5-4.1
		c1.1,0.6,1.9,0.8,2.4,1.3c1.6,1.9,2.6,4.1,2.4,6.6c-0.4,6.4,0.6,12.8,1.1,19.1c0.5,6.4,0.9,12.7,1.2,19.1
		c0.3,6.2,0.4,12.5,0.9,18.7c0.5,6,1.5,12.1,2.2,18.1c0.6,5.2,1.2,10.5,1.8,15.7c1.2,9.7,2.3,19.4,3.7,29c1.1,7,1.3,7,8.5,7.7
		c2.2,0.2,4.5,0.4,6.7,0.7c0.8,0.1,1.7,0.4,2.1,0.9c0.4,0.5,0.6,1.5,0.5,2.2c-0.1,0.5-0.8,1.1-1.2,1.2c-1.1,0.2-2.2,0.1-3.3,0.1
		c-3-0.1-6.1,0-9.3,0.7c0,4.1,1.4,7.6,3.1,11c0.4,0.9,2.1,1.4,3.3,1.6c5.5,0.8,11.1,1.4,16.6,2.1c0.9,0.1,1.8,0.3,2.6,0.5
		c0.5,2.1-0.9,2.5-2.1,2.8c-3.4,0.9-6.9,1.6-10.3,2.4c-1.5,0.4-3,0.8-4.9,1.4c0.3,1.3,0.3,2.4,0.7,3.3c1.2,2.6,2.5,5.2,3.9,7.7
		c1.5,2.8,2.9,5.7,2.7,9.1c0,0.8,0.7,1.7,1,2.4c0.6,0.1,1,0.2,1.2,0.1c4.1-1.6,4.8-1.3,5,2.9c0.6,10.7,1.2,21.4,1.7,32.1
		c0.2,4.3,0.4,8.6,1.3,13c1.8,0.5,3.4,1,5.1,1.5c2.4,0.7,4.5,1.8,5.7,4.1c0.3,0.5,0.5,1.2,0.5,1.8c0,0.4-0.2,0.9-0.3,1.4
		c-0.2,0.6-0.5,1.2-1,2.3c-2.8-4.1-5.5-6.3-9.9-6.3c-0.1,1.4-0.4,2.6-0.4,3.8c0.2,10.1,0.5,20.1,0.5,30.2c0.1,9.3-0.2,18.5-0.2,27.8
		c0,4.3,0.3,8.6,0.3,12.9c0.1,8.2,0.3,16.3,0,24.5c-0.4,8.7,1.6,16.8,4.4,24.9c0.4,1.1,0.9,2.1,1,3.2c0.1,0.6-0.6,1.3-1.1,2.4
		c-0.9-0.9-1.8-1.5-2.1-2.2c-0.8-2.2-1.6-4.5-2-6.9c-1.4-9-3-18-2.4-27.2c0.5-7.5,0.5-15,0.8-22.5c0-0.6,0.1-1.3,0-1.9
		c-1-8.3-0.7-16.6-0.7-24.9c0-4.3,0.4-8.6,0.3-12.9c-0.3-10.4-0.9-20.7-1.4-31.1c0-0.3-0.3-0.6-0.6-1.4c-3.4-1.2-7.1-2.4-10.8-3.9
		c-3.9-1.5-7.6-3.3-11.5-4.8c-3.7-1.4-6.9-3.9-10.9-4.8c-1.3,1.8-0.9,3.6-0.9,5.2c0,15,0,30.1-0.1,45.1c0,11.4-0.2,22.7,0,34.1
		c0.2,8.6,0.9,17.2,1.5,25.8c0.5,8.1,1.1,16.3,1.7,24.4c0.1,1.3,0.2,2.6,0.4,3.8c0.3,1.6,1.2,2.5,2.8,2.9c4.4,1.3,5.1,2.1,5.3,6.5
		c0.2,5,0.1,9.9,0.1,14.9c0,19-0.1,38.1,0.1,57.1c0,5.7,0.8,11.5,1.2,17.2c0.1,2.5,0.3,5.1,0,7.6c-0.7,5.8,0.5,11.5,1.3,17.1
		c0.2,1.7,1.1,2.6,2.9,2.6c6.7,0.1,13.4,0.4,20.1-1.1c1.3-1.7,0.8-3.7,0.7-5.6c-0.6-10.2-1.4-20.4-1.9-30.6
		c-0.9-17.1-1.8-34.2-2.5-51.3c-0.3-6.4-0.3-12.8-0.4-19.2c0-1.1,0-2.3,0.2-3.3c0.4-1.8,2.7-3.2,4.5-2.6c0.6,0.2,1.3,0.9,1.6,1.6
		c0.4,0.9,0.4,1.9,0.4,2.8c0.8,15.8,1.7,31.6,2.5,47.4c0.5,10.1,1.2,20.1,1.7,30.2c0.1,0.9,0,1.9,0,2.9c-0.5-0.3-0.9-0.4-1.7-0.8
		c0.4,5.7,0.6,11.1,1.2,16.4c0.9,8.1,2,16.2,3,24.3c0.2,1.6,0.2,3.2,0.2,4.8c0,3.3,0,6.7,0,10.2c-0.6,0.6-1.4,1.5-2.5,2.7
		c-0.4,0-1.3-0.1-2.4-0.1c-2.7-8.2-1.7-17-3.6-25.6c-3.4,1-6.5,0.5-9.6,0.1c-4.4-0.5-8.9-0.3-13.2,0.9c-0.2,0.6-0.5,1.1-0.5,1.5
		c0.2,13.3,0.3,26.5,0.5,39.8c0.2,9.1,0.5,18.2,0.6,27.3c0.2,10.9,0.1,21.7,0.3,32.6c0.3,18.7,0.7,37.4,1,56.1
		c0.1,4.2,0.1,8.3-0.1,12.5c-0.2,3.8-1,4.4-5.8,4.9c0-1.1-0.1-2.2,0-3.3c0.2-1.5-1.1-0.8-1.5-1.3c-1.2-1.5-2.2-3.2-2.1-5.2
		c0.1-3.4,0.1-6.7,0.2-10.1c0.2-4-0.2-7.9-0.9-11.9c-0.9-5-1-10.2-1.2-15.3c-0.2-8-0.2-16-0.3-24c0-0.6-0.1-1.3,0-1.9
		c1.2-8.9,0.6-17.9,0.2-26.8c-0.3-5.6-0.7-11.2-0.7-16.8c-0.1-13.4,0.1-26.9,0.1-40.3c0-4.8,0-9.6,0-14.4c0-0.9-0.2-1.9-0.4-2.6
		c-1.5-1.5-3.2-1-4.7-1c-6.6,0.2-13.1,0.5-19.7,0.6c-9,0.2-17.9,0.3-26.9,0.4c-14.1,0.2-28.1,0.3-42.2,0.7
		c-12.8,0.4-25.6,1.2-38.3,1.8c-7.3,0.3-14.7,0.6-22,1c-8.5,0.4-16.9,0.7-25.4,1.3c-10.8,0.8-21.7,1.7-32.5,2.7
		c-0.9,0.1-1.8,0.4-2.7,0.5c-1.2,2-0.9,3.9-0.7,5.8c0.8,10.3-0.3,20.4-2.3,30.5c-0.2,0.9-0.4,1.9-0.6,2.8c-0.3,1-1,1.7-2.1,1.5
		c-1.3-0.2-1.3-1.3-1.2-2.2c0.4-2,0.7-4.1,1.3-6.1c1.8-5.7,1.9-11.6,1.9-17.6c0-3.2-0.2-6.4-0.4-9.6c0-0.8-0.3-1.5-0.5-2.2
		c-3-0.6-5.8-1.1-8.6-1.7c-0.6-0.1-1.2-0.3-1.8-0.7c-0.9-0.5-1-2-0.1-2.4c1.3-0.6,2.6-1.1,4-1.3c1.4-0.3,2.9-0.3,4.3-0.4
		c0.3,0,0.5-0.3,1-0.6c0.3-3.1-0.3-6.2-1.4-9.2c-3.1-7.9-8.3-14-15.9-17.8c-1.7-0.9-3.6-1.3-5.5-1.5c-4.3-0.4-8.6-0.6-12.9-0.8
		c-3.5-0.2-7-0.3-10.5-0.7c-4.7-0.6-6.5-2.7-6-7.5c0.2-2.2,0.8-4.5,1.8-6.4c2.3-4.4,4.7-8.7,7.4-12.9c3.7-5.6,7.8-10.9,11.5-16.5
		c1.7-2.5,3.2-5.2,4.2-8.1c2.3-7.1-0.6-10.9-8.1-10.5c-7,0.3-14.1,0.6-21.1,1.3c-3.5,0.3-6.9,1.4-10.2,2.4c-4.1,1.3-8.1,2.8-12.5,3
		c-3.7,0.2-7.2,1.5-10.1,4c-1.2,1-2.6,1.8-4,2.6c-2.4,1.5-4.9,2.9-7.3,4.5c-1.4,0.9-2.3,0.7-3.1-0.8c0.2-1.9,1.6-3.1,3-4.1
		c1.7-1.1,3.6-2,5.5-2.8c5.3-2.1,10.7-4.4,16.1-6.2c8.3-2.8,16.6-5.9,25.3-7.3c1.3-0.2,2.5-0.2,3.8-0.3c4-0.3,8-0.7,12-0.7
		c3,0,6,0.4,9,0.8c1.2,0.2,2.5,0.5,2.9,2.1c-2.3-0.2-4.4-0.4-6.5-0.6c-0.1,0.2-0.1,0.5-0.2,0.7c1.2,0.4,2.5,0.9,3.7,1.3
		c2.2,0.8,3.6,2.3,3.7,4.5c0.1,2.5,0.2,5.1-0.3,7.6c-0.7,3.9-2.3,7.7-4.7,11c-2.3,3.3-4.6,6.5-7.1,9.7c-4.1,5.2-7.4,10.8-10.1,16.8
		c-0.6,1.4-1.1,3-1.3,4.6c-0.3,1.9,0.5,3.2,2.4,3.5c2.8,0.5,5.7,0.8,8.6,1c5,0.3,10.1-0.1,16,1.6c-4.5,0-8.2,0-11.9,0
		c0.1,1.5,1.1,1.3,1.7,1.3c3.7,0.2,7.3,0.1,11,0.4c7.2,0.6,14,2.2,17.5,9.6c0.5,1.1,1.3,2.2,2,3.3c3,4.3,5.1,8.8,5.7,14.1
		c0.1,0.9,0.6,1.8,1,2.9c2.1-0.1,4.1-0.3,6.2-0.4c1.9-0.1,3.8-0.2,5.7-0.3c5.7-0.3,11.5-0.5,17.2-0.8c3.5-0.2,7-0.5,10.5-0.8
		c4.8-0.4,9.5-1,14.3-1.1c14.2-0.4,28.4-0.7,42.6-1.1c1.3,0,2.6-0.1,3.8-0.3c6-1.3,12-1.4,18.1-1.3c10.7,0.1,21.4-0.1,32.1,0.1
		c5.5,0.1,10.9,0.2,16.2-0.9c0.9-0.2,1.9-0.2,2.9-0.2c13.3,0,26.5,0,39.8-0.1c1.4,0,2.8-0.1,3.9-0.2c1.5-1.3,1.2-2.6,1.1-3.9
		c-0.5-5.6-1-11.2-1.5-16.7c-1.2-12.9-2-25.8-1.8-38.8c0.2-11.8,0.4-23.7,0.4-35.5c0-7.2-0.3-14.4-0.2-21.6
		c0.3-12.8-1.3-25.5-1.9-38.3c-0.4-8.9-1.1-17.9-1.4-26.8c-0.2-4.9,0.1-9.9,0.1-14.9c0-7.7-0.1-15.3-0.1-23c0-7.4,0.3-14.7,0.2-22.1
		c0-6.7-0.2-13.4-0.5-20.1c0-1.1-0.5-2.1-0.7-3c-2.4-0.9-3.3,1.4-5.3,1.9c-1.3-1.4-3.1-1.2-5.1-0.8c-12.4,2.5-24.7,4.9-37.1,7.4
		c-14.3,2.8-28.5,5.6-42.8,8.4c-1.4,0.3-2.7,0.8-4.1,1.2c-0.1,1.4-0.4,2.5-0.3,3.5c0.5,9.3,1.2,18.5,1.6,27.8
		c0.3,6.5,0.4,13.1,0.6,19.7c0.1,2.1-0.1,4.2,1.7,6.1c1-0.2,2.3-0.3,3.4-0.7c4.2-1.6,8.5-1.6,12.8-1.1c4.2,0.5,8.3,0.6,12.4,0
		c1.1-0.2,2.2-0.1,3.3,0c1.6,0.2,2.6,1.1,2.5,3.1c-1.3,1.3-3.1,1.4-4.7,1.7c-6.2,0.8-12.4,1.4-18.6,2.2c-4.1,0.5-8.3,0.6-12,2.3
		c-1,4.5,0.3,41,1.7,45.7c1.8,0.6,3.8,0.8,5.9,0.8c6.1-0.2,12.1-0.4,18.2-0.2c5.6,0.2,11.1,0.4,16.8-0.1c4.4-0.4,8.9-0.1,13.4-0.1
		c1.9,0,3.8,0.4,5.5,1.8c-1.2,2.2-3.4,3-5.1,4.2c-1.1,0.7-2.9,0.1-3.3-1.1c-0.8-2.3-2.6-2.1-4.3-2.2c-5.3,0-10.6,0-15.8,0.1
		c-8.8,0.1-17.6,0.3-26.4,0.5c-1.6,0-3.1,0.2-4.6,0.3c-1,2-0.6,3.7-0.5,5.5c0.3,7.7,0.5,15.3,0.7,23c0.1,2.4,0,4.8-2,6.5
		c-2.8-1.5-4.6-4.1-4.2-6.3c0.4-2,2.1-0.8,3.5-1.3c1-9,0.2-18-0.7-26.7c-1.8-1.5-3.7-1.1-5.4-1.1c-6.1,0.1-12.2,0.1-18.2,0.5
		c-15.5,0.9-31,1.8-46.5,1.7c-3.2,0-6.4,0.3-9.6,0.7c-7.9,1.1-15.9,2-23.9,2.1c-5.4,0.1-10.8,0.7-16.3,0.8c-2.6,0.1-5.5,0.9-7.8-1.1
		c-3.2,0.3-6.5,0-9.5,1c-3.9,1.2-7.8,1.7-11.8,2c-8.4,0.6-16.9,1.2-25.4,1.8c-6.1,0.4-12.1,0.6-18.2,1c-14.7,1.1-29.3,2.2-44,3.3
		c-0.8,0.1-1.6,0.2-2.4,0.2c-15.1-0.3-29.9,2.8-44.9,4c-8,0.7-15.9,1.6-23.8,2.3c-1.3,0.1-2.6,0.1-3.8,0.1c0.1-0.4,0.3-0.9,0.5-1.7
		c-1.8,0.6-3.7,0-5.9,1.6c2.4,0,4,0,5.6,0c-3.3,0.5-6.6,1-9.9,1.4c-11.9,1.5-23.8,3-35.8,2.6c-1.3,0-2.6-0.1-3.8-0.4
		c-0.4-0.1-0.8-0.9-1-1.4c-0.1-0.3,0.3-1,0.6-1.1c1.2-0.4,2.4-0.9,3.7-0.9c12.3,0.3,24.6-1.1,36.8-2.1c8-0.7,15.8-2.1,23.8-3
		c6.3-0.7,12.7-1.3,19.1-1.7c13.7-0.9,27.4-1.8,41.1-3.4c9.2-1.1,18.5-1.5,27.7-2.2c2.5-0.2,5.1-0.4,7.6-0.6
		c1.7-0.2,3.2-0.7,4.8,0.9c0.8,0.8,3.1,0.3,4.6,0.1c5.7-0.7,11.4-1.6,17.1-2.3c6.5-0.7,13-1.2,19.6-1.7c9.7-0.7,19.5-1.4,29.2-2
		c1-0.1,1.9-0.3,2.9-0.2c10.9,0.3,21.7-1.3,32.5-1.5c9.6-0.2,19.1-1.4,28.7-2.1c0.5,0,1-0.1,1.4-0.1c10.5-0.3,21.1-0.5,31.6-0.8
		c5.7-0.2,11.5-0.6,17.2-0.9c2.1-0.1,4.2-0.1,6.2-0.2c1.6-0.1,3.1-0.2,5-0.4c0.6-8.7-0.6-17.1-0.7-25.6c-0.1-8.3,0.5-16.6-1.3-25.3
		c-1.1-0.1-2.3-0.5-3.5-0.5c-7.2,0.3-14.4,0.6-21.6,0.9c-7.8,0.4-15.6,0.8-23.5,1.2c-1.3,0.1-2.5,0.2-4,0.3
		c-0.3,1.1-0.7,2.2-0.7,3.2c0,3.5,0.1,7,0.2,10.5c0,2.1,0.2,4.2,0.1,6.2c-0.1,1.4-0.5,2.8-2.5,3.4c-1.6-3.8-0.8-7.6-0.8-11.3
		c0-3.8,0.2-7.6-0.2-11.1c-0.7-0.4-0.9-0.7-1.2-0.7c-0.5-0.1-0.9-0.2-1.4-0.2c-24.6,1.2-49.2,2.4-73.8,3.6c-0.4,0-0.9,0.3-1.5,0.6
		c-0.2,1.2-0.4,2.4-0.5,3.7c-0.4,4.8-0.8,9.6-1.2,14.3c-0.3,3.9,0.2,7.7,1,11.4c0.3,1.4,0.5,2.8,0.6,4.2c0.1,1-0.4,1.8-1.6,2
		c-1.2,0.2-1.8-0.5-2-1.5c-0.2-1.4-0.3-2.8-0.3-4.3c0.1-9.3,0.4-18.5,0.5-27.8c0-0.6-0.2-1.2-0.4-2c-1-0.1-1.9-0.4-2.8-0.3
		c-4,0.1-8,0.3-12,0.5c-5.7,0.4-11.5,0.8-17.2,1.2c-8.1,0.6-16.3,1.2-24.4,1.8c-2.1,0.2-4.1,0.6-6.2,0.5c-2.6,0-4.1,1.3-5.3,3.4
		c-5,8.9-10.1,17.8-15.1,26.7c-1.3,2.3-2.1,5-5,6.7c-0.1-1.1-0.5-2.1-0.3-2.8c0.7-2,1.5-3.9,2.5-5.7c2.4-4.5,4.8-9,7.3-13.5
		c0.6-1.1,1.3-2.4,2.3-3.1c3.6-2.5,4.2-6.5,5.7-10.6c-2-0.1-3.5-0.9-3.9,1.7c-0.3,1.7-1.7,2.2-3.3,2.2c-2.1,0-4.2,0.1-6.2,0
		c-4.1-0.3-8.3-0.6-12.4-1c-1.9-0.2-3.9-0.4-4.2-3.1c1.6-1.5,3.6-1.9,5.7-2.1c8-0.7,15.9-1.4,23.9-2c2.5-0.2,4.3-1,5.2-3.3
		c0.3-0.7,0.7-1.5,1.1-2.1c2.7-3.7,2.5-7.3,0.3-11.2c-1.6-2.9-2-6.2-2.1-9.7c-0.4-11.7,3.6-22.3,6.7-33.2c1.6-5.6,2.9-11.1,2.3-17
		c-0.1-1.1-0.2-2.2-0.4-3.3c-0.5-5.1-3.2-8.8-7.8-10.6c-4.9-2-9.9-3.5-15-5c-3.7-1.1-7.3-2.1-10.4-4.6c-2.8-2.2-4.2-4.9-4.5-8.6
		c-0.4-6.9,0.8-13.7,1.9-20.5c0.1-0.5,1.1-1.3,1.6-1.3c0.5,0,1.5,0.9,1.5,1.5c0,2.1-0.2,4.1-0.6,6.2c-0.8,3.8-1.2,7.6-1,11.4
		c0.4,5.5,3.3,9.2,8.3,11.3c2.9,1.3,6,2.2,9.2,2.3c5.2,0.2,10.2,1.3,14.2,5c4.1,3.9,7.1,8.4,6.9,14.6c-0.2,6.1-1,12-3.1,17.8
		c-3.3,9.5-5.4,19.4-6.5,29.4c-0.4,3.4-0.1,6.7,1.4,9.8c2.9,5.8,3.4,11.6-0.1,17.3c-0.3,0.5-0.4,1.1-0.8,2.1
		c1.1,0.2,1.9,0.6,2.8,0.6c8.3-0.3,16.6-0.4,24.9-1.7c6.1-1,12.4-0.8,18.6-1.2c5.1-0.3,10.2-0.6,15.3-0.9c1.5-0.1,2.3-1,2.3-2.5
		c0-0.8-0.1-1.6-0.1-2.4c0.1-5.3,0-10.5,0.2-15.8c0.2-6.4,0.6-12.8,0.9-19.1c0.2-4.3,0.6-8.6,0.8-12.9c0.1-1.8,0.1-3.5,0-5.3
		c-0.6-7.5-0.6-15-0.2-22.5c0.3-5.1,0-10.2,0.1-15.3c0-4.5,0.2-8.9,0.2-13.4c0-3-0.3-6.1-0.4-9.1c-0.1-5.7-0.1-11.5-0.1-17.2
		c0-5.1,0.2-10.2,0.2-15.3c0-1.2-0.4-2.4-0.8-4.6c-2,3.3-3.5,5.7-5.1,8.3c-2.2-1.5-2.2-3-1.5-4.8c1.7-4,3.2-8,5-11.9
		c1-2.1,1-4.3,1-6.5c0-5.9,0.1-11.8,0.2-17.7c0-1.1,0.3-2.2,0.5-3.2c1.8-0.6,2.6,0.4,3,1.6c0.3,1.2,0.4,2.5,0.4,3.8
		c-0.1,12.5-0.3,24.9-0.3,37.4c0,1.9-2,2.8-1.5,4.9c0.5,2,0.4,4.1,0.6,6.2c0.2,1.9,0.7,3.8,0.8,5.7c0.3,4.1,0.5,8.3,0.5,12.5
		c0,7.5-0.1,15-0.3,22.5c-0.1,2.2-0.8,4.4-1,6.6c-0.2,2.5-0.7,5.1-0.3,7.6c2.4,14.7,1.5,29.4,0.4,44c-0.5,7.3-1.4,14.6-0.8,22
		c0.3,3.6-0.3,7.3-0.4,11c0,1.6,0.1,3.1,0.2,5c1.5,0.2,2.7,0.5,3.9,0.5c7.7-0.1,15.3,0.4,22.9-1.2c2.5-0.5,5.1-0.4,7.6-0.4
		c9.4-0.3,18.8-0.7,28.3-1c3.8-0.1,7.7,0.1,11.5,0.3c3,0.1,3.7-0.5,3.8-3.5c0.2-5.3,0-10.6,0.2-15.8c0.4-12.9,0.8-25.9,1.3-38.8
		c0.1-3.7,0.5-7.3,0.4-11c-0.1-24.5-0.3-48.9-0.5-73.4c-0.1-8.8,0.1-17.6-0.1-26.4c-0.2-5.7-0.9-11.5-1.6-17.2
		c-0.3-2-1.3-3.8-1.9-5.5c-0.8-0.2-1.2-0.4-1.4-0.3c-4.2,2-8.6,2-13.1,1.5c-5.2-0.6-10.5-0.9-15.7-1.4c-1.7-0.2-3.3-0.2-4.9-1.3
		c-1.2-0.8-3.1-0.7-4.7-0.8c-8.5-0.3-16.9-0.6-25.4-0.8c-6.9-0.1-13.7,0-20.6-0.2c-3.3-0.1-6.6-0.5-10.7-0.8c1.3-1,2-1.6,3-2.4
		c-2.9-0.7-5.3-0.3-7.4,0.9c0,0.7,0,1.2,0,1.6c-0.3,0.2-0.5,0.4-0.8,0.4c-7.7,0.4-15.3,1.2-23,1.2c-8.6,0-17.2,0.5-25.8,0.8
		c-4,0.1-8-0.4-11.6-2.4L368,557.4z M598.1,677.3c-5.9-2.8-6.9-9.3-10.7-13.9c-0.5,3.8,0.9,21.6,2,25.2c0.4,0.1,0.9,0.4,1.3,0.3
		c4.6-0.6,9.2-1,13.7-2.1c7.3-1.8,14.7-3.1,22.2-3.4c2.9-0.1,5.8-0.6,8.3-1.9c4.8-2.5,9.9-3.3,15.3-3.4c1.2,0,2.5-0.4,3.7-0.8
		c3.2-0.9,6.4-2.1,9.6-2.7c4.5-0.9,9.2-1.3,13.7-2c4.8-0.7,7.3-3.4,7.3-8.4c-0.1-8.1-0.4-16.3-0.6-24.4c0-0.8-0.1-1.6-0.3-2.4
		c-0.5-2.3-1.2-2.9-3.6-3.1c-1.9-0.2-3.8-0.1-5.7-0.3c-6.4-0.7-12.5-2.8-17.9-6.3c-2.7-1.8-5.4-2.3-8.6-1.6
		c-5.9,1.3-11.9,2.5-17.9,3.4c-9.6,1.6-18.9,4.8-28.7,5.5c-0.6,0-1.2,0.4-1.8,0.6c-1.2,0.3-2.4,0.6-3.7,0.8c-2,0.3-4.1,0.5-6.1,1
		c-3.8,0.9-4.1,1.8-4,5.8c0.2,4.8,2.4,8.9,3.8,13.3c1.9,5.8,4.2,11.4,8.6,15.8C599.6,673.9,599.5,675.5,598.1,677.3z M721,682.9
		c1.3-3.3,1.2-6.7,0.8-10.2c-0.7-6.5-1.3-13-2-19.5c-0.3-3.5-0.7-7-0.9-10.5c-0.1-2.1-1.1-3.2-3-3.7c-4.8-1.3-9.6-2.3-14.6-2
		c-3.2,0.2-6.4,0-9.6-0.1c-0.8,0-1.6,0-2.5-0.9c-1.2-1.3-2.4-0.8-2.8,0.7c-0.3,1.1-0.4,2.2-0.4,3.3c0.2,8.1,0.6,16.3,0.7,24.4
		c0,3.4,0.9,5.9,4.2,7.2c0.7,0.3,1.3,0.9,1.9,1.4c4,3.4,8.7,5.3,13.7,6.5c3.1,0.7,6.1,1.7,9.2,2.5
		C717.4,682.4,718.9,683.6,721,682.9z M651.7,604.9c2.7,1,5,0.9,7.1,0.5c5.7-1.2,11.5-0.9,17.2,0c4.9,0.8,9.4-0.5,14-2.1
		c0.7-3.8,0.9-7.4,0-10.9c-2.1-1.9-4.2-2.1-6.8-1.8c-7.6,0.9-14.7,3.3-21.6,6.3C657.9,598.4,654.3,600.7,651.7,604.9z M689.8,607.3
		c-1.8-0.1-3.4-0.2-4.9-0.3c-10.4-0.5-20.7,0.4-31,1.1c-1.9,0.1-3.8,0.1-5.5,1.6c-0.1,0.9-0.4,1.8-0.4,2.8c0,2.5,0.9,3.5,3.3,3.8
		c0.8,0.1,1.6,0,2.4,0c3.8-0.1,7.7-0.3,11.5-0.2c7.2,0.2,14.3-0.6,21.4-1.9c1-0.2,2.1-0.6,3.3-0.9
		C689.8,611.3,689.8,609.5,689.8,607.3z M692.5,624c1,1.4,1.6,3.2,2.8,3.8c4.3,2,8.8,3.7,13.3,5.2c2,0.7,3.2-0.8,2.4-2.7
		c-2.2-4.6-4.5-9.2-6.8-13.7c-0.4-0.7-1.6-1.5-2.2-1.4c-3.5,0.7-7.4,0.2-10.1,3.6c-1.8-1.2-3.8-1.9-5.6-0.2c-1.8,1.5-1.7,4.1,0,6.8
		C688.3,624.6,690.2,623.2,692.5,624z M681.6,620.8c-4,0.6-7.6,0.9-11.2,1.6c-3.6,0.8-7.5,0.5-11,2.5c4.7,4.3,17.5,8.1,23.5,7.2
		C683.4,628.5,683.1,625,681.6,620.8z M663,592.4c-0.4-0.3-0.5-0.5-0.6-0.5c-0.5-0.1-0.9-0.2-1.4-0.3c-7.4-0.2-12,4.3-16,9.8
		c-1.1,1.5-0.8,3.3,0.2,3.9c1,0.6,2.6,0.2,3.7-1.4c3.1-4.7,7.4-7.8,12.5-10C662,593.6,662.4,592.9,663,592.4z M694,592.2
		c-0.6,2.6-1.1,8.9-0.6,10.3c0.3,0.8,1,1.7,1.8,1.9c0.9,0.3,2-0.1,3.1-0.2C697.6,598.2,696.5,595,694,592.2z M701.3,611.6
		c-1.2-4.5-2.4-5-7.6-3.8c-0.4,1.7-0.9,3.5,0.5,5.2C696.7,613.5,698.8,612.6,701.3,611.6z M665.2,620.1c-4.1-1-10.8-0.8-13.8,0.3
		C656.1,622.9,660.2,622.4,665.2,620.1z M686.5,629.7c-1.1,1.6-0.9,3,0.9,3.4c2.2,0.5,4.6,0.7,7.4-0.1
		C692.1,630.5,689.4,629.9,686.5,629.7z M704.1,608.7c0.4,0.7,0.7,1.7,1.2,1.8c1.9,0.2,3.8,0.3,6.1-1.6
		C708.5,608.1,706.5,607.6,704.1,608.7z M594.7,753.9c-0.2-0.5-0.3-0.9-0.5-0.9c-0.5,0-1.1,0.1-1.6,0.2c0.1,0.3,0.2,0.9,0.4,0.9
		C593.5,754.1,594.1,754,594.7,753.9z"/>
	<path d="M779,448c3,0.4,5.1,2.4,7.4,4.2c1.7,1.3,3.1,3.2,5.7,3.8c0.2-1.1,0.5-2,0.4-2.9c-0.4-11-0.8-22-1.3-33
		c-0.1-2.6-0.3-5.1-0.4-7.7c-0.5-11.8-0.9-23.6-1.4-35.4c-0.2-3.8-0.5-7.6-0.7-11.5c-0.1-1.1-0.1-2.3-2-2.7
		c-1.6,6.8-1.4,13.8-2.9,20.6c-2.4-0.1-3.1-1.3-3.1-2.8c0-2.6,0.2-5.1,0.4-7.6c0.4-4.8,0.8-9.5,1.1-14.3c0.1-0.9,0.1-2-0.3-2.8
		c-1.2-2.8-1.9-5.7-2.2-8.8c-0.2-2-1.6-3.5-3.3-4.4c-7.2-3.8-14.4-7.6-21.5-11.6c-3.3-1.9-6.3-4.3-9.4-6.4c-1.3-0.9-2.6-1.8-4-2.6
		c-6.5-3.7-13.1-7.3-19.6-11c-6-3.3-12.1-6.6-18-9.9c-7.4-4.2-14.6-8.5-22-12.7c-6.2-3.6-12.5-7-18.8-10.5c-1.8-1-3.8-1.6-5.6-3.8
		c1.2,0,2-0.2,2.5,0c4.7,2.5,9.3,4.9,13.9,7.6c8.6,5,17,10.1,25.6,15.1c2.9,1.7,6.1,2.8,9,4.4c5.1,2.7,10,5.6,15.1,8.3
		c1.1,0.6,2.2,1.5,3.5,0.3L727,310c2.9,4,6.9,6.5,11.2,8.8c3.2,1.7,6.4,3.6,9.5,5.6c2.8,1.8,5.4,3.3,8.9,1.7c1.4-0.6,3-0.6,4.6-0.9
		c-0.3-50.6,0.5-100.7,3.4-151.2c-1.3-0.2-2.3-0.4-3.4-0.4c-4.3,0.1-8.6,0.3-12.9,0.5c-0.2,0-0.3,0-0.5,0c-8.2-2-16.1,0.6-24.2,1.6
		c-1.7,0.2-3.5,0.3-5.3,0.4c-10.8,0.7-21.7,1.4-32.5,2c-2.2,0.1-3.7,0.9-4,3.8c-0.4-1-0.6-1.7-0.9-2.6c-3.9-0.7-7.9-0.6-12.1,1.1
		c0.7,1.4,1.4,2.7,2.1,4.1c-2.4-0.6-2.6-3.3-4.7-4.4c-0.7,0-1.8-0.1-2.9,0c-10.5,1.1-21,2.2-31.4,3.4c-0.5,0.1-1,0.1-1.4,0.1
		c-10.8-0.8-21.3,2.2-31.9,3.4c-7.1,0.8-14.3,1.6-21.4,2.6c-14.2,1.9-28.5,3.8-42.7,5.8c-2.5,0.3-5,0.5-7.4,1.8
		c0.6,2.5,4.1,2.3,4,5.1c-1.4,1-2.6,0.2-3.9-0.4c-2-1-4-2.1-5.9-3.1c-1.3-0.7-2.7-0.9-4.5,0.3c1.4,0.5,2.6,0.8,3.6,1.3
		c0.5,0.2,1,1,1,1.4c-0.1,0.7-0.7,1.7-1.2,1.8c-2.7,0.7-5.4,0.3-8-0.7c-2.6-1-4.9-2.3-5.7-5.3c2.4-0.2,4.2-1.4,6.4-2.8
		c-2.3-1.5-4.2-2.8-6.7-2.6c-0.1,0.6-0.3,1.1-0.3,1.5c0.1,0.8,0.3,1.5,0.5,2.3c-0.1-0.1-0.2-0.2-0.3-0.4c-1.1-4.5-4.6-6.6-8.5-8.3
		c-2.1-0.9-3.9-2.1-5.9-3.2c-1.4-0.7-2.7-1.7-4.6-1.3c-0.3,0.6-0.7,1.3-1.3,2.3c0.1-3.1-1.7-4.2-3.9-5.1c-6.2-2.7-12.3-5.4-18.4-8.2
		c-2.3-1-4.7-1.8-6.7-4.1c1.1-0.6,1.9-1,2.9-1.6c-0.6-12.9-1.2-25.9-1.8-39c1,6.3,1.5,12.6,1.6,19c0.1,5.6,0.7,11.2,1.1,16.7
		c0.1,1.2,0.7,2.4,1.2,3.9c1.8-1.2,1.9-2.8,1.9-4.3c0.4-6.9,0.8-13.7,1.1-20.6c0-0.8,0-1.6,0.2-2.4c0.7,9.7-0.2,19.3-1.1,28.8
		c3.2,2.7,15,8.1,20.2,9.4c1.2-1,0.8-2.5,0.9-3.9c0.1-1.3,0-2.5,0-3.9c0.1,0.3,0.3,0.6,0.2,0.8c-1.1,5.9,1,9.8,7,11.5
		c1.8,0.5,3.4,1.8,5.1,2.6c1.6,0.7,3.3,1.1,5.3,1.7c0.2-1.5,0.5-2.6,0.4-3.6c-0.5-6.7-1.1-13.4-1.6-20.1c-0.3-3.7-0.4-7.3,0.1-11
		c0.3,4.7,0.9,9.4,0.9,14.1c0,6.3,1.3,12.4,1.8,18.6c0.2,2.6,1.5,4,3.7,5c2,0.9,4,2.1,6,3c2.2,1,4.4,1.9,6.9,1.4
		c3.5-0.7,3.6-0.6,4.3-4.5c0.4,0.9,0.6,2.1,1.3,2.6c0.6,0.5,1.8,0.5,2.7,0.4c4.8-0.6,9.5-1.2,14.2-1.9c4-0.5,7.9-1,11.9-0.1
		c1.7,0.4,3.5,0.2,5-1c2.2-1.8,4.8-2.3,7.6-2.5c1.3-0.1,2.5-0.4,3.8-0.4c11-0.7,21.8-3.1,32.9-3.4c6.5-0.2,13-1.4,19.5-2.1
		c4.6-0.5,9.2-1,13.8-1.7c2.2-0.3,4.9,0.5,6.4-2.1c0.1-0.1,0.8,0.1,1.2,0.1c5.9,0.5,11.7,0.2,17.6-0.6c3.8-0.5,7.6-0.7,11.1-1
		c0.6,0.7,1,1.6,1.4,1.5c2.2-0.3,4.5-0.5,6.5-1.3c2.1-0.9,4.3-1.5,6.5-1.1c5.2,0.8,10.1-1.1,15.2-1.4c1.5-1.5,3.2-0.6,4.8-0.6
		c4.3,0,8.6,0,12.9-0.4c12.4-1,24.8-2,37.3-2c1.9,0,3.8-0.5,5.7-0.7c2.1-3.9,2.2-7.9,1.4-11.8c-0.2-1-0.6-1.9,0.1-2.6
		c0.9-0.8,2.1-1.6,3.2-1.8c0.6-0.1,1.8,0.9,2,1.6c0.6,2.3,0.9,4.7,1.3,7c0.3,2,0.5,4.1,0.7,6.2c1.5,0.1,2.6,0.3,3.6,0.3
		c1.6,0,3.1-0.1,4.7-0.2c1.5-2.5,0.7-4.9,0.8-7.2c0.1-2.2,0-4.4,0-7.8c1.1,5.6-0.4,10.4,1.8,14.5c0.5,0.2,0.8,0.5,1.1,0.5
		c6-0.5,12.1-1,18.1-1.4c5.9-0.5,11.8-1.3,17.7-1.3c5.2,0,10.1-1.2,15.2-1.8c0.4-0.1,0.9-0.4,1.4-0.6c0-0.7,0-1.5,0-2.3l0,0.1
		c0.8,2.2,2.3,3.1,4.8,3c3.5-0.2,7,0,10.5-0.3c2.8-0.2,5.8,0.2,8-2.2c0.1-0.2,0.6-0.1,0.9-0.1c0.7,0.2,1.5,0.7,2.2,0.7
		c4-0.2,7.9-0.6,11.9-0.9c1.4-0.1,2.9-0.2,4.3-0.3c6-0.5,12.1-1.1,18.1-1.6c2.5-0.2,5.1-0.5,7.6-0.5c8,0,15.9-1.2,23.5-3.5
		c0.6-0.2,1.2-0.5,1.8-0.5c7.9,0.7,15.5-1.5,23.2-2.5c2.8-0.4,3.1-0.7,3.5-3.6c0.4-3.2,0.7-6.3,1.2-9.5c0.5-3.9,0.6-8,3.1-11.7
		c-3.4-2.5-6.7-4.9-10-7.3l-0.1,0.1c1.3,0,2.6-0.2,3.8,0c2.1,0.3,4,0.9,5.6-1.2c0.7-0.9,2.1-0.4,2.7,0.9c0.5,1.2,1.1,2.3,1.6,3.5
		c2.2,6,4.4,12,6.7,17.9c1.1,3,1.9,6.1,4.3,8.4c0.3,0.3,0.5,0.8,0.7,1.3c1.4,3.9,2.7,7.8,4.1,11.7c0.7,1.8,1.6,3.5,2.3,5.2
		c1,2.5,2,5,3,7.5c0.6,1.3,1.2,2.6,2,3.8c2.3,3.5,4.6,6.9,6.9,10.4c1,1.6,1.9,3.3,2.6,5.1c0.7,1.8,0.4,3.4-1.9,4.7
		c-1.4-3-2.7-5.9-4.3-8.8c-1.6-2.9-3.6-5.7-5.1-8.6c-1.6-3-2.8-6.1-4.2-9.1c-1.5-3-3.1-5.9-5.3-8.6c0.1,0.6,0,1.3,0.2,1.9
		c1,2.7,2.1,5.4,3,8.1c1.4,4.1,2.7,8.2,4.1,12.2c0.5,1.5,1.2,3,1.9,4.4c2.3,4.9,4.2,9.9,5.7,15.2c1.2,4.4,3.3,8.6,5,12.9
		c0.5,1.2,1,2.4,1.4,3.6c5,14.5,10,28.9,14.9,43.4c1.7,5,3.1,10.1,4.7,15.1c0.8,2.6,1.8,5.1,2.8,7.6c1.6,3.9,2.6,7.9,2.8,12.1
		l0.1-0.1c-0.6-1.1-1.3-2.2-1.7-3.4c-4.6-13.5-9-27-13.7-40.4c-2-5.7-4.3-11.4-6.5-17c-2.2-5.7-4.4-11.3-6.6-17
		c-0.6-1.6-1.2-3.3-1.6-5c-1.4-7-4.2-13.4-7.3-19.7c-0.7-1.4-1.5-2.9-1.7-4.5c-0.4-4.1-2.1-7.7-3.8-11.3c-3-6.2-5.1-12.8-7.1-19.3
		c-0.8-2.4-1.7-4.8-2.6-7.2c-0.3-0.7-0.8-1.6-1.4-1.8c-2.6-0.9-5,0.6-7.4,1c-1.6,0.3-2,1.9-2.2,3.4c-0.3,2.7-0.9,5.4-0.9,8.1
		c-0.1,12.2-1.7,24.2-2.6,36.3c-0.3,4.3,0.1,8.7-0.3,12.9c-1.1,12-0.5,23.9-0.3,35.9c0.1,8.6,0.5,17.3-0.1,25.9
		c-0.6,9.1-0.2,18.2-0.1,27.3c0,1,0.1,1.9,0.1,2.9c-0.1,3.7,1.2,6.5,4.7,8.2c1.5,0.7,3.1,1.6,4.3,3.4c-3.2,0.8-5.3-2.1-8.1-1.8
		c-1.1,2.2-0.9,4.7-1.3,7c-0.2,1.3-0.2,2.6-0.7,3.8c-0.3,0.8-1.1,1.6-1.9,1.9c-1.2,0.4-2.2-0.5-2.6-1.6c-0.4-1-0.8-2.1-1-3.2
		c-0.3-1.7-0.6-3.5-0.8-5.2c-0.4-3.6-0.7-7.3-3.2-10.4c-0.5-0.6-0.4-1.8-0.6-2.6c2.3-2.6,4.6-0.4,6.9-0.3c1.5-1.3,1.2-3,1.2-4.5
		c0-6.9-0.2-13.7-0.2-20.6c0-12.9,0.2-25.9,0.3-38.8c0-10.1-0.2-20.1,0.1-30.2c0.2-8.5,0.9-16.9,1.3-25.4c0.1-2.9,0.2-5.8,0.2-8.6
		c-0.1-6.1,0-12.1,1.1-18.2c0.2-1.3,0-2.8,0-4.5c-3,0.2-5.9,0.4-8.7,0.7c-7.6,0.9-15.2,2-22.8,2.9c-7.8,0.9-15.5,1.8-23.3,2.6
		c-8.6,0.8-17.2,1.4-25.8,2.2c-2.6,0.3-5.5-0.1-7.7,1.9c-0.8-0.3-1.6-0.9-2.5-0.9c-1.6-0.1-2.1,0.9-1.7,2.4
		c-1.5-1.5-3.2-2.3-5.5-1.9c-2.2,0.4-4.5,0.3-6.7,0.5c-1.8,0.1-3.5,0.4-4.7,1.9c-3.3-1.8-4.6-1.7-7,0.8c-0.8-0.4-1.6-1.2-2.4-1.2
		c-2.7,0-5.4,0.1-8.1,0.3c-2.8,0.2-3.4,0.7-3.6,3.4c-0.4,4.4-1.2,8.9,0.3,13.3c0.7,1.9-0.4,3.7-0.6,5.5c-0.6,4.7-0.8,9.5-0.8,14.3
		c0.1,6.7,0.6,13.4,0.7,20.1c0.1,3.7-0.3,7.3-0.4,11c-0.1,2.7-0.3,5.4-0.1,8.1c0.6,6.2,1,12.4,0.8,18.6c-0.2,7.6,0.6,15.3,1.3,23
		c0.4,4.8,0.5,9.5-0.3,14.3c-0.9,5.3,0.8,10.4,1.5,15.5c2.4,1.3,4.7,0.9,6.8,0.7c7.3-0.8,14.6-0.9,21.9-2.5
		c5.9-1.3,12.1-1.1,18.1-1.8c9.2-1,18.4-2.3,27.6-3.3c2.7-0.3,5.4-0.1,8.1-0.3c2-0.2,4.4-0.1,6-1c4.7-2.6,9.8-2.8,14.8-3.2
		c3-0.2,6.1,0.2,9-1c0.4-0.2,1.1-0.3,1.4-0.1c0.6,0.4,1.3,0.9,1.6,1.5c0.2,0.4-0.1,1.5-0.5,1.6c-1.2,0.6-2.7,1.5-3.9,1.4
		c-7.3-0.8-14.3,1.3-21.4,2.2c-11.7,1.5-23.4,3.6-35.1,5c-13,1.6-26.1,2.8-39.1,4.1c-3.8,0.4-7.6,0.7-11.4,1.2
		c-3.2,0.4-3.7,1-3.8,4.3c0,1,0.1,1.9,0,2.9c-0.2,1.3-1,1.9-2.7,1.7c-1-2.2-2.2-4.6-3.2-6.9c-3.6-0.6-25.7,2.2-34.9,4.3
		c0,0.5,0.1,1.1,0.1,1.6c0.1,0.5,0.3,0.9,0.4,1.5c-1.7,1.9-3.6,2.2-6,1.3c-6.4-2.5-12.9-1.4-19.4-0.9c-0.3,0-0.6,0.2-0.8,0.4
		c-0.1,0.1-0.1,0.3-0.3,0.7c0.4,0.4,0.9,1.1,1.5,1.4c8.4,4.3,16.8,8.6,25.1,13c1,0.5,1.8,1.7,2.6,2.6c0.2,0.2,0.3,0.6,0.4,0.9
		c0.5,8.3,6.9,13,11.3,18.9c0.7,0.9,1.4,1.7,2,2.7c2.4,4.4,6,6.9,11,7.4c0.4,0,0.9,0.3,1.4,0.4c-0.2,0.6-0.5,1.2-0.7,1.7
		c0.7,0.3,1.4,0.5,3,1.2c-2.4,0.8-3.8,1.2-5.4,1.7c0.3,0.8,0.4,1.4,0.8,1.9c2.4,3.6,4.8,7.2,7.4,10.6c4.1,5.3,8.4,10.5,12.6,15.7
		c3.8,4.8,7.4,9.6,11.2,14.4c0.3,0.3,0.7,0.5,1.4,0.9c1.2-4.2-1.4-8-0.5-12.9c0.5,2.7,0.8,4.6,1.2,6.5c0.6,2.7,1,5.4,1.8,7.9
		c0.6,1.8,1.6,3.5,2.8,4.9c3.3,4.1,6.8,8.1,10.1,12.2c3.8,4.7,7.6,9.5,11.4,14.2c0.8,1,1.4,2.1,3,2.1c0.6,0,1.5,1.2,1.7,1.9
		c1,4,3.7,7,6,10.2c6.2,8.7,12.2,17.6,18.3,26.4c1.5,2.1,3,4.2,4.4,6.3c1,1.4,2.2,2.2,4,2.2c5.8-0.1,11.5-0.1,17.3,0
		c1.9,0,3.7,0.6,5.6,0.8c2.7,0.3,5.4,0.5,8.1,0.6c1.3,0,2.6-0.8,2.8-2.2c0.5-3.2,3.1-4.8,5.3-6.4c1.5-1.1,3.2-2.1,5-2.8
		c2.9-1.1,4.2-3.2,4.5-6.2c0.3-2.8,0.7-5.6,1.4-8.3c-0.2,3.6-0.4,7.3-0.6,11.1c1.8,0.6,3.5-0.1,5.1-0.3c1.5-0.2,3.1-0.4,4.6-0.6
		c2,3,2.9,6.1,3.7,9.2c0.7,2.5,2.2,3.7,4.6,4.3c4.4,1.1,8.4,1.2,12.8-0.2c1.2-1.5,0.8-3.3,0.8-5c0.1-9.3,0.1-18.5,0.1-27.8
		c0-1.9-0.2-3.8,1.6-5.9c1.1,4.5,2,8.5,0.6,12.8c-0.2-0.7-0.3-1.4-0.5-2.1c-0.1-0.6-0.2-1.1-0.6-1.6c-0.5,9.9-1.3,19.7,0.1,29.9
		c2.1-0.2,3.8-0.3,5.6-0.4c0.4-1.7,0.7-3,1.1-4.7c0.2,1.6,0.3,2.8,0.5,4.2c1.5,0.5,3,0.9,4.5,1.4c0,1.8-0.9,2.6-2.3,2.7
		c-1.7,0.2-3.5,0.3-5.3,0.4c-4.3,0.2-4.8,0.8-4.8,5.3c0,2.4,0.1,4.8,0.1,7.2c0,2.1,0,4.1,1.3,6c0.4,0.6,0.1,1.7,0.1,2.7
		c-1.9-0.1-1.9-1.4-1.9-2.4c-0.1-4.3,0-8.6-0.1-13c0-1.4,0-2.8,0-4.1c-3.7-1.2-10-1.2-14.1-0.2c-0.3,2.4,0.6,4.7,1.5,6.9
		c2.2,5.3,5,10.3,8.6,14.9c3.5,4.4,6.9,8.8,10.4,13.2c2.5,3.1,4.9,6.2,7.8,9.8c-1.1-0.2-1.8-0.2-2.4-0.4c-0.4-0.2-0.8-0.5-1.1-0.9
		c-3.9-5.4-9.3-9.6-12.7-15.6c-2.1-3.7-5.1-7-7.3-10.7c-2.7-4.5-5.1-9.2-7.2-14.1c-1.2-2.8-2.9-3.8-5.8-3.8c-7.8,0.1-15.7,0-23.5,0
		c-4.8,0-9.6,0-14.1,0c-1.8,2.3-1.1,4.6-1.2,6.4c-4.9-2.2-10.1-1.5-15.7-2c1.2,3.7,3.4,6,5,8.6c1.6,2.6,3.1,5.2,4.8,7.7
		c1.7,2.6,4,4.9,4.5,8.4c-0.5-0.5-1-0.9-1.4-1.5c-4.3-6.1-8.7-12.2-13-18.4c-4.2-6.2-3.5-5.6-10.3-6c-1.8-0.1-3.5-0.2-5.2-0.5
		c-0.9-0.1-1.7-0.7-2.5-1.1c1.1-2.1,1.1-2.1,8.2-5.5c-0.5-1-0.9-2-1.4-2.8c-4.1-6.3-8.1-12.6-12.4-18.8c-2.3-3.3-4.9-6.3-7.3-9.5
		c-7.3-9.7-14.9-19.2-22.7-28.5c-7.6-9.1-14.9-18.3-22.4-27.5c-6.7-8.2-13.6-16.1-20.1-24.4c-4.7-6-8.9-12.4-13.4-18.7
		c-2.8-4-6.4-7.1-10.3-9.9c-0.3-0.2-0.9-0.1-1.7-0.2c-0.2,1.1-0.6,2.1-0.5,3.2c0.4,13.6,0.9,27.2,1.3,40.7
		c0.3,9.3,0.4,18.5,0.7,27.8c0.2,5.6,0.5,11.2,0.7,16.8c0.1,3.6,2.5,6,4.8,8c4.3,3.7,7.4,8.3,10.5,13c1,1.5,1.6,3,1.5,5.3
		c-1-0.4-1.9-0.5-2.3-1c-1-1.2-1.7-2.6-2.6-4c-2.8-4.3-5.6-8.5-8.5-12.7c-0.5-0.7-1.5-1-2.4-1.5c-1.4,2.2-1.1,4.3-1.1,6.3
		c0,6.2,0.1,12.5,0.2,18.7c0.1,6.2,0,12.5,0.1,18.7c0.1,8.2,0.4,16.3,0.4,24.5c0,2.7,0.9,4.6,3.4,5.4c1,2.9-1.3,3.3-3.1,4.3
		c-0.1,1.6-0.4,3.3-0.3,5.1c0.1,7.4,0.3,14.7,0.5,22.1c0.3,12.1,0.7,24.3,1,36.4c0.1,3-0.6,6.2-0.1,9.1c1.1,6.4-0.2,12.7,0.7,19.1
		c0.5,3.6-0.1,7.3,0.2,11c0.5,8.1-0.6,16.3,0.7,24.4c0.4,2.4,0.4,5-1.3,7.3c0-2.7,0-5.4,0-8.1c0-9.7,0.2-19.5-0.6-29.2
		c-0.6-7.3-0.2-14.7-0.3-22.1c0-1,0.1-1.9,0-2.9c-1.3-11.6-0.8-23.3-1.2-35c-0.3-11.8-0.7-23.6-0.9-35.5c-0.1-3.2-0.8-6-3.2-8.2
		c-0.7-0.6-1.3-1.4-2-2.1c-5.1-5.1-10.2-10.1-15.2-15.3c-5.8-6.1-11.5-12.4-17.2-18.6c-2.4-2.6-4.7-5.2-7-7.9
		c-4.7-5.5-9.7-10.6-15.4-15c-0.8-0.7-1.9-1.1-3.1-1.8c-1.2,2.8-3.4,3.8-6.1,4.1c-3,0.3-5.4-0.1-6.9-3.1c-0.7-1.4-1.6-2.6-3.5-3
		c-1.7-0.3-2.8-1.8-2.9-3.5c-0.3-5-3.2-8.1-7.4-10.3c-0.5-0.3-0.8-0.9-1.5-1.7c2.6-0.4,3.9,2,6.3,1.6c0.1-0.7,0.4-1.6,0.4-2.4
		c-1.4-18-2.9-36-3-54.1c0-5.3-0.1-10.6,0.1-15.8c0.1-2.6-0.9-4.1-3.2-5.3c-4.4-2.3-8.7-4.8-12.9-7.4c-8.9-5.3-17.9-10.6-26.7-16
		c-9.7-5.9-19.3-11.9-29.1-17.7c-6.3-3.8-12.7-7.3-19.1-11c-1.4-0.8-3.2-1.3-4.1-3.8c1.4,0.4,2.3,0.5,3.1,0.9
		c3.2,1.7,6.5,3.5,9.6,5.4c7.3,4.4,14.4,8.9,21.7,13.2c9,5.3,18,10.3,27,15.5c9.5,5.6,19,11.2,28.5,16.8c1.5,0.9,2.8,2.1,5,1.9
		c0.4-1.5,0.7-3,1.1-4.8c2.1-0.5,3.5-1.7,3.9-4c0.2-1,0.4-0.9,2.9-1.5c0.1,1.3,0.6,2.6,0.3,3.7c-1.2,4.8-0.1,8.8,3.3,12.3
		c0.4,0.4,0.5,1.1,0.9,2c-1.1,0.2-2,0.3-3.3,0.5c0.1,1,0.1,2.1,0.5,3.1c2,5.8,3.5,11.6,3.5,17.8c0,2.3,0.7,4.7,1.4,7
		c1.8,6.5,2.2,13.2,2,20c0,1.2,0.1,2.6-2.1,3c-1.7-5.6-1.2-11.6-2.2-17.3c-1-5.8-1.3-11.7-3.9-17.2c-0.1,0.8-0.3,1.6-0.2,2.5
		c0.5,11,1.4,22,3.1,32.9c0.5,3.6,0.1,7.3,0.1,11c0,1.1-0.3,2.2-0.2,3.3c0.1,2.6,1.1,4.6,3.5,5.8c4.3,2,7.5,5.3,10.4,9
		c2.6,3.2,5.8,5.9,8.6,9c1.8,2,3.5,4.1,5.2,6.2c1,1.2,2,2.5,3,3.7c0.8,1,2,1.8,2.4,2.9c1.2,3.5,3.9,5.5,6.8,7.1
		c3.6,2.1,6.3,4.9,8.7,8.1c2.2,3,4.6,5.6,7.3,8.2c3.7,3.5,7,7.4,10.5,11.2c2.3,2.6,4.5,5.4,6.8,8c0.4,0.4,1,0.7,1.8,1.2
		c0.4-1.1,0.9-1.9,1-2.8c0.1-3.4,0-6.7-0.1-10.1c-0.3-18.5-0.7-37.1-0.9-55.6c0-3-1-5-3.3-6.9C785.9,454.6,782.5,451.2,779,448
		L779,448z M823.5,313c0-1.6,0.1-3,0-4.5c-0.3-5.9-0.6-11.8-0.8-17.7c-0.4-14.9-0.9-29.7-1.1-44.6c-0.3-24.1-0.4-48.3-0.7-72.4
		c0-1.4-0.4-2.7-0.6-4.2c-15.1-0.5-29.6,1.8-44.2,3.1c-0.9,0.1-1.7,0.7-2.6,1c-0.5,2.3,0.5,4,1.2,5.7c0.9,2.4,1.9,4.7,2.7,7.2
		c1.3,4.1,3.2,7.6,6.9,10.1c0.4,0.2,0.5,0.8,0.9,1.3c-0.9,0.9-1.7,1.8-2.6,2.8c-4.2-2.2-7-5.2-8.4-9.6c-1.7-5.4-3.5-10.8-5.6-17
		c-0.4,2-0.7,3-0.8,4.1c-0.8,13.6-1.7,27.1-2.1,40.7c-0.5,17.9-0.7,35.8-0.9,53.7c-0.2,11.5-0.2,23-0.3,34.5c0,1.4,0.1,3,0.8,4.1
		c0.9,1.6,0.9,2.9,0.5,4.6c-0.6,3-0.9,6,0.3,9.3c1.3,0,2.6,0.2,3.8,0c4.9-0.7,9.8-1.5,14.7-2.4c6.8-1.2,13.5-2.3,20.4-2.9
		c4.6-0.4,9.1-1.5,13.4-2.2C819.8,313.9,819.8,313.9,823.5,313z M713.4,460.5c1.6-2.7,2.9-5.2,2.6-8.2c-0.5-5.6-0.9-11.1-1.5-16.7
		c-1.3-12.5-2.6-25.1-3-37.7c-0.1-3.7-0.2-7.5-1-11.2C708.7,397.1,711,453,713.4,460.5z M950.7,505c4.1,1.8,14.2,2.2,19.9,1
		c0.2-3.1-0.8-5.7-3.2-8C961.4,498.9,956.4,501.9,950.7,505z M963.6,136.7c-0.2,4.9-2.4,9.5-1.8,14.6c2.7,0.5,5.1,0.7,7.2-1.1
		C968,144.7,965.9,139.2,963.6,136.7z M727.9,469.8c-2.3-3.8-4.6-6.3-6.6-7.2c-0.6-0.3-1.7-0.3-2.1,0.1c-0.9,0.9-0.2,1.8,0.6,2.4
		C722.3,466.7,724.7,468.5,727.9,469.8z M720.3,468.8c-0.6,1.9,0,3.3,1.4,3.8c1.7,0.7,3.7,1.7,6,0.2
		C725.6,470.4,723.3,469.2,720.3,468.8z"/>
	<path d="M293.9,212.8c-1.7,0.5-3-0.4-4.5-1.2c-1.8-1-3.4-2.3-5.9-2.5c-0.1,1.1-0.3,2-0.3,2.9c1,14.5,2.1,29,2.9,43.5
		c0.7,13.1,1.2,26.2,1.4,39.3c0.4,21.1,0.6,42.2,0.6,63.3c0,12.9-0.5,25.9-0.8,38.8c0,1.7,0.1,3.5,0.2,5.3c1.2,0.5,2.3,1,3.6,1.6
		c-0.1,2.3-0.3,4.8-0.4,7.5c1,0.1,1.8,0.3,2.5,0.3c6.5-0.3,13.1-0.7,19.6-0.9c2.9-0.1,5.7,0.4,8.6,0.4c2.9,0,5.8-0.1,8.5-0.8
		c4.4-1.1,8.8-1.3,13.3-1.3c5.7-0.1,11.5-0.5,17.2-0.7c7.3-0.2,14.7-0.3,22-0.6c6.1-0.3,12.1-0.8,18.2-1.2c0.6,0,1.2-0.4,2.2-0.7
		c0.3-2.6,0.7-5.3,0.8-7.9c0.2-9.3,0.5-18.5,0.4-27.8c0-13.1,0-26.2-0.5-39.3c-0.5-11.6-1.6-23.3-2.6-34.9c-0.2-2.5-1.1-5-1.6-7.5
		c-0.7-3.3-1.2-6.6,0.8-9.9c-3.1-2.7-6.2-5.2-10-7c-6.9-3.3-13.5-7.3-20.2-11.1c-4.4-2.5-8.8-5.3-13.2-7.9
		c-8.7-5.1-17.4-10.2-26-15.4c-8.2-4.9-16.4-10-24.6-14.9c-2.6-1.6-5.3-2.9-8-4.4c-1.7-0.9-3.5-1.8-3.7-4.1c1.6,0.6,3.4,1,4.9,1.8
		c5.9,2.9,11.6,6.1,17,9.8c5.4,3.7,11.3,6.7,16.9,10.1c3,1.8,5.8,3.9,8.8,5.8c2.6,1.6,5.2,3.2,7.9,4.5c5.3,2.6,10.3,5.8,15.4,8.7
		c10,5.7,19,12.9,29.6,17.6c1.6,0.7,3,1.8,4.5,2.8c1.2,0.8,2.3,1.7,3.5,2.5c13.7,8,27.3,15.9,41,23.8c3.5,2,6.9,4.1,10.3,6.1
		c6.7,4,13.4,8,20.1,12.2c5.1,3.2,9.8,7.1,15.4,9.6c-3.1-1.2-6.4-2-9.3-3.6c-6.7-3.6-13.3-7.6-19.9-11.5
		c-7.8-4.7-15.5-9.6-23.3-14.2c-10.5-6.2-21-12.1-31.6-18.2c-0.6-0.4-1.4-0.6-2.8-1.2c4.9,42.1,4.6,83.7,3.7,125.2
		c1.9,1.5,3.8,1.1,5.7,0.9c23.7-2.3,47.5-2.4,71.3-3.5c8-0.4,16-0.6,23.9-1c4-0.2,8-0.5,12-0.7c1.4-0.1,2.6-0.3,3-1.8
		c0.8-3.4,2.1-6.7,1.7-10.3c-0.4-4.1-0.7-8.3-0.7-12.4c0-6.9,0.2-13.7,0.6-20.6c0.2-3.4-0.9-5.5-4-7.2c-8.3-4.4-16.4-9.3-24.6-14
		c-1.2-0.7-2.4-1.6-3.6-2.3c-1.4-0.8-2-2-2-3.6c4.8,2.6,9.6,5.1,14.3,7.9c12.1,7.1,24.2,14.3,36.2,21.6c8.8,5.3,17.7,10.4,26.2,16
		c5.4,3.6,11,6.4,16.6,9.6c7.5,4.2,14.8,8.9,22.2,13.4c3.4,2.1,6.8,4.1,10.3,6.2c6.9,4.1,13.7,8.2,20.6,12.2
		c9.6,5.7,19.3,11.3,28.6,16.8c2.3,0.2,3.9-2.4,6.1,0c0-0.1,0.3,0.3,0.3,0.8c0.1,2.8,1.8,4.2,4,5.5c4.7,2.7,9.3,5.6,14,8.4
		c1.5,0.9,3.1,1.6,4.7,3.8c-1.5-0.4-2.4-0.4-3-0.8c-4.7-2.6-9.4-5.4-14.2-8.1c-1.6-0.9-3.3-1.7-5-2.6c-2,1.6-1.8,3.7-2.2,5.5
		c-1.8,8.3-3.4,16.6-5.1,24.9c-4.1,20.5-8.1,41.1-12.5,61.6c-2.4,11.2-5.3,22.4-8.1,33.5c-2.6,10.7-5.4,21.4-8,32.1
		c-0.4,1.5-0.6,3.1-0.9,4.7l0.1,0.1c-0.5-8.4,1-16.5,3-24.6c4.6-18.9,9.8-37.7,13.3-56.9c3-16.3,6.3-32.6,9.6-48.9
		c1.9-9.4,4.1-18.7,6.1-28.1c0.2-1.1,0.3-2.3,0.5-4.3c-3.7,2.8-4.4,6.8-7.1,9.4c-1.9-1.5-1.6-3.2-0.9-4.8c0.7-1.6,1.6-3.1,2.5-4.6
		c0.6-1.1,1.3-2.2,2-3.3c-1-2.4-3.1-3.3-5-4.4c-10.9-6.4-21.8-12.7-32.7-19.1c-1.9-1.1-3.7-2.6-5.5-3.8c-0.8-0.5-1.5-1.2-2.4-1.6
		c-12.5-5.7-24-13.4-35.8-20.3c-13.9-8.1-27.7-16.6-41.5-24.9c-3.4-2.1-7-3.9-10.5-5.8c-0.5-0.3-1.2-0.3-2.1-0.6
		c-0.2,1.5-0.4,2.7-0.5,3.9c-0.3,7.8-0.4,15.7-0.7,23.5c-0.1,3-0.2,6-0.9,9c-0.7,2.8-0.2,6-0.2,9.2c2.5,1,5.1,0.5,7.6,0.5
		c16-0.3,32-0.7,47.9-1c1.1,0,2.2,0,3.4,0c1.7,0,2.6,0.9,2.7,3c-1.4,0.2-2.8,0.5-4.2,0.5c-7.5,0-15-0.3-22.5-0.2
		c-7.2,0.1-14.4,0.5-21.6,0.8c-4.5,0.2-8.9,0.4-13.5,0.6c-2.1,4.8,0.1,10.3-2.7,15.4c-0.7-0.9-1.4-1.3-1.6-2
		c-0.8-3.1-1.2-6.3-0.5-9.5c0.2-1,0.2-2.1,0.3-3.6c-1.5-0.2-2.7-0.4-4-0.4c-5.8,0-11.5-0.2-17.3,0c-4.8,0.2-9.6,0.7-14.3,1.1
		c-3,0.2-6.1,0.4-9.1,0.5c-8.8,0.4-17.6,0.7-26.4,1.1c-1.1,0-2.3,0.1-3.4,0c-4.8-0.5-9.5-0.2-14.3,0.3c-7,0.7-14,1-21,1.5
		c-1.7,0.1-3.4,0.4-4.9,0.6c-1.7,3.3,1.4,7.3-2.6,9.6c-2.5-2.5-0.9-5.9-2-8.9c-0.9-0.1-2-0.5-3-0.5c-6.7,0-13.4-0.2-20.1,0.1
		c-5.3,0.2-10.5,1.1-15.7,1.4c-12.1,0.6-24.3,0.8-36.4,1.4c-7.8,0.4-15.6,1-23.4,1.6c-1.6,0.1-3.2,0.3-4.8,0.4
		c-12.4,0.7-24.9,1.2-37.3,2.1c-10.5,0.7-21,1.8-31.5,2.6c-3.3,0.3-6.6,0.3-10,1.2c0.5,0.3,1,0.7,1.5,0.7c4.9,0.7,9.8,1.4,14.7,2.1
		c1.2,0.2,2.6,0.4,3.6,1c0.6,0.4,1,1.6,1,2.4c0,0.5-1.1,1.2-1.7,1.2c-1.4,0.1-2.9,0-4.3-0.4c-11.1-2.9-22.4-3.3-33.8-2.7
		c-11.6,0.6-23.3,1.5-34.9,2.3c-1.3,0.1-2.6,0.1-3.8,0.1c-1.2,0-1.2-0.1-2.5-2.5c0.3-0.3,0.6-0.8,1-0.8c8.8-1.6,17.5-3.7,26.5-4
		c7.9-0.3,15.5-2,23.3-2.8c8.6-0.9,17.2-1.4,25.8-2c1.6-0.1,3.2-0.4,4.8-0.4c3.8-0.1,7.7-0.1,11.5-0.2c4.3-0.2,8.6-0.5,12.9-0.9
		c5.1-0.5,10.2-1,15.2-1.6c1.1-0.1,2.1-0.4,3.4-0.7c0.1-1.4,0.3-2.7,0.3-3.9c0.4-12.6,0.8-25.2,1-37.9c0.1-9.6-0.1-19.2-0.1-28.8
		c0-3.4,0.3-6.7,0.3-10.1c0-5.4,0-10.9-0.1-16.3c-0.1-4.5-0.4-8.9-0.6-13.4c-0.2-5.4-0.5-10.9-0.7-16.3c0-1.1-0.2-2.2-0.1-3.4
		c0.7-11.2-1.1-22.3-1.8-33.5c-0.5-8-0.9-16-1.2-23.9c-0.1-2.4-0.1-4.8,0.3-7.2c0.4-2.6-0.1-5.1-0.8-7.6c-0.6-2.1-1.9-3.5-3.8-4.6
		c-6-3.4-11.9-6.9-17.8-10.4c-1.3-0.8-2.5-1.8-3.5-3.5c0.8,0,1.7-0.3,2.4,0c3.1,1.3,6.1,2.8,9.1,4.3c1.7,0.8,3.3,1.8,4.9,2.6
		c1.4-1.9,2.3-3.7,3.7-5.1c1.5-1.5,3.3-1.1,4.2,0.9c0.8,1.9,1.5,3.9,1.7,6c0.4,3.9,2.5,6.4,5.9,8.1C290,209,292.2,210.6,293.9,212.8
		z"/>
	<path d="M368.2,557.3c-1.1,0.1-2.2,0.2-3.7,0.4c1.8,0.6,3.2,1.1,4.6,1.6c0,0.2-0.1,0.5-0.1,0.7c-9.3,0.3-18.7,0.7-28,1
		c-0.3,0-0.6-0.1-1-0.1c-9.8,0.9-19.8,0.5-29.6,2.2c-0.3,0-0.5,0.3-1.1,0.7c0.4,0.7,0.6,1.7,1.2,2.2c7.2,5.6,9.6,13.7,11.3,22.1
		c0.5,2.6,0.2,5.4-0.3,8.1c-0.6,3-0.2,5.7,1,8.4c2.1,4.6,4.4,9.2,6.8,14.3c-1.2-0.6-2-1.2-2.9-1.5c-0.4-0.1-1,0.3-1.6,0.4l0.1-0.1
		c-2.4-3.8-4.8-7.6-5-12.3c0-0.6-0.3-1.3-0.2-1.9c0.7-7.5-1.6-14.6-3.3-21.7c-1.8-7.1-6.1-12.6-12.9-15.8c-0.6-0.3-1.2-0.7-1.8-0.7
		c-4-0.1-7.2-2.4-10.9-3.5c-3.9-1.2-7.2-3.4-10-6.3c-1.5-1.6-3.1-3.2-4.8-4.7c-2-1.9-3.8-4-4.5-6.7c-0.9-3.8-4.1-5.6-6.1-8.4
		c-0.4-0.5-1.4-0.9-2.1-0.9c-5.6,0.1-11.2-0.4-16.6,1.4c-1.6,0.5-3.4,0.7-5.2,0.8c-2.5,0.1-5.1,0-7.7-0.1c-2.9-0.1-4.2-1.1-4.5-3.9
		c-0.1-1.1,0-2.3,0.3-3.3c1.1-3,2.1-6,3.6-8.9c2.3-4.6,4.8-9,7.2-13.6c3.7-7.3,6.3-15,8.7-22.8c0.9-2.7,1.6-5.5,2.4-8.3
		c1.6-5.3,1.2-10.8,0.5-16.2c-0.4-2.9-1.5-3.7-4.6-3.6c-1.7,0-3.2,0-4.1-1.7c-0.9-1.6-2.5-1.9-4.1-2c-1.3-0.1-2.6-0.1-3.8,0
		c-7.5,0.5-15,1-22.5,1.5c-1,0.1-1.9,0.1-2.9,0.3c-6.9,1.2-13.8,2.4-20.7,3.8c-4.2,0.8-8.3,2.5-12.7,2c-1.4-0.1-2.9,0.2-4.2-1.3
		c0-1.6,0.7-2.8,2.4-3.4c2.9-1,5.7-2.1,8.6-2.9c0.8-0.2,2-0.2,2.7,0.3c1.8,1.2,3.6,1,5.5,0.7c1.9-0.3,3.8-0.8,5.7-1
		c4.1-0.6,8.1-1.5,12.3-0.2c1,0.3,2.2,0.3,3.3,0.4c3.4,0.1,4-0.2,6.4-3.6c5.7,0.2,11.5-1.4,17.4,0.1c1,0.3,2.2-0.1,3.3-0.2
		c3-0.3,6-0.7,9-0.8c3-0.1,6.1-0.1,9.1,0c2.2,0,4.5,0.3,6.7,0.3c2.7,0,5.4-0.2,8.1-0.3c1.7-0.1,3.5-0.4,5.2-0.5
		c2.4-0.1,4.8-0.1,7.2-0.2c0.8,0,1.6-0.3,2.4-0.2c7,1.1,14-0.8,21,0c8.5,0.9,16.9,0.2,25.4,0.2c2.1,0,4.2,0.2,6.2,0.3
		c1.3,0.1,2.6,0.2,3.8,0.2c7.2-0.3,14.3-0.6,21.5-0.9c6.4-0.3,12.8-0.5,19.1-0.7c3.7-0.2,7.3-0.6,11-0.7c6.9-0.2,13.7-0.1,20.6-0.3
		c4.2-0.1,8.3-0.4,12.4-0.7c1.8-0.1,3.7-0.6,5.2-0.1c5.6,1.8,11.1,0.2,16.6,0.1c1.3,0,2.5-0.2,3.8-0.3c15.7-0.4,31.3-0.9,47-1.2
		c8.5-0.2,16.9-0.1,25.4-0.1c0.5,0,1,0,1.4,0c13.4,1.6,26.8,0,40.2,0c12.9,0.1,25.9,0.1,38.8,0.3c6.7,0.1,13.4,0.3,20.1,0.8
		c3.1,0.2,6.1,1.2,9.4,1.9c0.3,1.6,0.6,3.1,1,4.8c-2.2,2.2-5,2.1-7.2,1.1c-6.7-3-13.8-2.4-20.8-2.5c-39.8-0.4-79.6-0.7-119.4-0.6
		c-21.3,0-42.5,1-63.8,1.6c-9.3,0.2-18.5,0.3-27.8,0.6c-11.7,0.3-23.3,0.9-35,1.2c-12.9,0.3-25.9,0.5-38.9,0.5
		c-22.1,0.1-44.1,0.1-66.2,0.2c-1.4,0-2.9-0.2-4.2,1.2c0.1,0.7,0.2,1.4,0.5,2.2c2.2,6.8,2.1,13.5-0.3,20.2
		c-1.3,3.8-2.4,7.6-3.4,11.5c-2.2,7.9-5.7,15.3-9.2,22.6c-2,4.2-4.3,8.2-6.3,12.4c-1,2.1-2,4.4-2.6,6.7c-0.7,2.4,0.8,4,3.3,4
		c0.8,0,1.6-0.1,2.4-0.3c2.4-0.4,4.7-0.8,7.1-1.4c4.4-1.1,8.8-1.5,13.3-1.2c5.1,0.3,9.4,2,11.2,7.4c0.2,0.4,0.3,1,0.7,1.3
		c5.1,4.1,8.3,10.1,13.4,14.2c3.5,2.8,7.3,4.6,11.5,5.6c0.9,0.2,1.9,0.3,2.9,0.2c3.6-0.4,7.3-1,10.9-1.3c4.3-0.3,8.5-1,12.7-1.7
		c3.2-0.5,6.7,0.2,10,0.2c5.4,0,10.9-0.3,16.3-0.3c7.3-0.1,14.7,0,21.1,0c-0.2,0.1-1.2,0.6-2.3,1.1L368.2,557.3z"/>
	<path d="M836.6,807.7c-3,0.7-4.3,2.9-5.6,5.1c-3.4,6-6.1,12.3-8.1,18.9c-3.4,11-5.8,22.3-7.5,33.7c-0.8,5.5-2.1,11-2.9,16.5
		c-0.9,6.3-1.4,12.7-2.1,19.1c-0.6,6.2-1.2,12.4-1.7,18.6c-0.4,5.9-0.6,11.8-0.8,17.7c-0.1,1.4,0.2,2.9,0,4.3
		c-1.5,8.4-0.4,16.9-0.4,25.3c0,8.3,0.1,16.6,0,24.9c0,4.9-0.4,9.9-0.4,14.8c-0.1,3,0.1,6.1,0.1,9.1c0.1,3.8,0.6,7.7,0.3,11.5
		c-0.6,6.6,0.1,13.1,0.6,19.6c0.3,3.7,0.3,7.3,0.4,11c0,1.1,0,2.3-0.5,3.3c-1.5,3.4-1,6.9-0.4,10.4c0.5,2.8,0.9,5.7,0.9,8.6
		c-0.1,12-0.5,24-0.7,36c0,2.2-0.4,4.1-3.4,4.7c-0.3-1.1-0.8-2.1-0.8-3.2c-0.2-17.9-0.3-35.8-0.5-53.7c-0.1-9.6-0.5-19.2-0.5-28.8
		c0-13.4,0.3-26.9,0.3-40.3c0-5.6-0.4-11.2-0.2-16.8c0.6-18.7,1.4-37.4,2.1-56.1c0.2-4.5,0.3-9,0.3-13.4c0.3-25.7,0.6-51.5,0.9-77.2
		c0-2.6-0.1-5.1-0.2-7.7c-0.1-1.1-0.4-2.1-0.8-4.1c-1,1.5-1.8,2.3-2,3.2c-1.1,5-2.2,10-3,15c-0.9,6-1.4,12.1-2.2,18.1
		c-0.2,1.7-0.7,3.5-1.3,5.1c-0.2,0.5-1.3,0.8-1.9,0.9c-0.3,0-0.9-1-0.9-1.4c0.2-3.3,0.6-6.7,1-10c0.6-5.4,1.3-10.8,1.9-16.2
		c0.7-5.8,2.5-11.2,4.6-16.6c1.3-3.3,3.1-4.6,5.1-4c1.6,0.5,2.2,2.5,1.8,5.9c-0.2,1.6-0.3,3.2,0.1,4.7c1.7,5.8,1.6,11.7,1.4,17.6
		c-0.4,9.7-0.3,19.5,0.7,29.4c0.3-0.7,0.7-1.4,0.9-2.2c0.8-2.6,1.7-5.1,2.4-7.7c0.4-1.5,0.6-3.1,0.6-4.7c-0.1-6.6,1.3-13,3.3-19.3
		c0.3-1.1,0.5-2.3,1.2-3.1c2.5-2.6,2.9-6,4-9.1c1.6-4.7,3.2-9.4,5.2-13.9c1.1-2.6,3-4.9,4.8-7.1c1.3-1.6,3.2-2.3,5.2-1.6
		c2.1,0.8,3.3,2.5,3.5,4.8c0.1,1.1,0.1,2.2,0.1,3.3c0.1,7.8,0.2,15.7,0.2,23.5c0,3.5-0.1,7,0,10.6c0,3.2,0.2,6.4,0.3,9.6
		c0,0.5,0.1,1,0,1.4c-0.3,6.5-0.2,13.1-0.9,19.6c-0.9,7.5-0.6,15-0.6,22.5c-0.1,14.2-0.3,28.5-0.2,42.7c0.1,12.1,0.5,24.3,0.9,36.4
		c0.2,5.9,0.7,11.8,0.9,17.7c0.1,2.4-0.5,4.8-0.5,7.2c0.1,4.5,0.4,8.9,0.6,13.4c0.4,10.4,0.7,20.8,1,31.2c0.1,1.6,0.2,3.2,0.3,4.9
		c1.1,0.6,2.2,1.2,3.5,1.9c-0.4,3-0.4,6.2-1.3,9c-1.1,3.3-0.9,6.6-1,9.9c-0.2,7.3-0.4,14.7-0.7,22c-0.1,1.2-0.4,2.6-1.1,3.6
		c-0.4,0.6-1.6,0.8-2.8,1.3c-0.2-1.4-0.5-2.4-0.5-3.5c0.2-13,0.5-25.9,0.7-38.9c0.1-4-0.3-8-0.4-12c-0.3-15.2-0.4-30.4-0.8-45.6
		c-0.3-11.7-1.2-23.3-1.6-35c-0.2-7.7,0-15.3,0-23c0-3.4-0.4-6.7-0.4-10.1c0-15.8-0.1-31.7,0.1-47.5c0.2-23.7,0.5-47.3,0.7-71
		C837.8,811,838.1,809.3,836.6,807.7z"/>
	<path d="M971.8,832.4c-3.3,6.9-5.5,14.2-7.5,21.5c-2,7.4-3.8,14.8-5.8,22.5c-0.7-0.5-1.1-0.9-1.6-1.2c-1,3.3-1.5,6.5-0.8,9.9
		c0.9,4.5-0.5,8.9-1.1,13.3c-1,8.2-2.3,16.4-3.5,24.7c-0.6,4-1.2,7.9-1.7,11.9c-0.4,3.2-0.8,6.3-1,9.5c-0.5,6.9-0.8,13.7-1.2,20.6
		c-0.3,4.8-0.6,9.5-2.2,14.1c-0.5,1.3-0.4,2.9-0.2,4.3c0.8,6.1,0.3,12.1-0.2,18.2c-0.6,8.3-0.8,16.6-1,24.9
		c-0.2,6.6,0.1,13.1-1.1,19.6c-0.2,0.9-0.2,1.9-0.2,2.9c-0.3,14.7-0.5,29.4-0.7,44.1c0,1.9,0,3.8-0.2,5.7c-0.1,1.5-0.7,2.8-2.9,2.8
		c-1-1.6-0.9-3.5-0.8-5.4c0.2-13.1,0.4-26.2,0.6-39.3c0.3-16.5,0.9-32.9,1.2-49.4c0.4-18.7,0.3-37.4,0.9-56.1
		c0.5-16.3,0.7-32.6,2.2-48.9c1.6-17.3,2.8-34.7,4.3-52.1c0.3-3.7,1-7.3,1.5-10.9c0.2-1.7,0.2-3.4-0.4-5.4c-0.5,0.7-1,1.3-1.3,2.1
		c-0.5,1.2-0.6,2.5-1.3,3.6c-0.4,0.6-1.5,0.9-2.5,1.4c-0.2-1.1-0.5-1.7-0.3-2.2c1.6-6,3.2-12,5.1-18c0.9-3,1.2-3,4.7-4.9
		c0.4,1,0.9,2,1,3c0.3,5.5-0.2,10.9-1.6,16.2c-0.4,1.5-0.8,3.1-0.9,4.7c-0.5,7-0.9,14-1.4,21.1c-0.2,2.7-0.6,5.4-0.8,8.1
		c-0.7,8.1-1.1,16.3-2,24.4c-1.4,11.8-1.9,23.6-2,35.4c0,1.4-0.2,2.9-0.6,4.3c-1.2,4.1-1.5,8.2-0.8,12.3c0.3,2.1-0.2,4.4,1.4,7.5
		c0.3-2.7,0.5-4.2,0.7-5.8c0.9-8.4,1.8-16.8,2.7-25.2c0.3-2.5,0.4-5,2.1-7.2c0.6-0.7,0.5-2.1,0.4-3.2c-0.6-9.2,1-18.2,3.1-27.1
		c1.3-5.4,3.1-10.8,3.7-16.3c0.6-6.1,2.3-11.9,3.9-17.8c1.4-5.1,2.8-10.2,4.6-15.1c1.5-4,3.6-7.8,5.5-11.7c0.3-0.6,0.7-1.1,1.1-1.5
		c1.5-1.3,3.8-0.6,4,1.4c0.3,2.9,0.4,5.7,0.3,8.6c-0.1,8.8-0.3,17.6-0.6,26.4c-0.1,4.8-0.5,9.6-0.8,14.4c-0.8,15.5-1.7,31-2.5,46.4
		c-0.3,5.4-0.2,10.9-0.2,16.3c-0.1,21.3-0.1,42.5-0.2,63.8c-0.1,11.7-0.4,23.3-0.5,35c-0.1,6.4,0.1,12.8,0.1,19.2
		c-0.1,8.2-0.2,16.3-0.3,24.5c-0.1,12.2-0.1,24.3-0.2,36.5c0,1.1,0,2.3-0.3,3.3c-0.4,1.4-1.1,2.7-3.2,2.5c-0.1-0.6-0.4-1.1-0.4-1.7
		c0.3-5.3,0.9-10.5,0.9-15.8c0-18.5,0-37.1,1.1-55.6c0.3-4.5,0-9-0.1-13.4c-0.1-9.3-0.5-18.5-0.1-27.8c0.4-11.2,0.3-22.4,0-33.6
		c-0.2-10.1,0.2-20.1,0.3-30.2c0.1-7,0.2-14.1,0.2-21.1c-0.1-14.4,0.7-28.8,1.6-43.1c0.8-13.6,1-27.2,1.4-40.7
		c0-1.6-0.2-3.1-0.2-4.7C972.5,832.5,972.2,832.4,971.8,832.4z"/>
	<path d="M648.6,8.2c-4.7,0.7-7.3,4.4-10.1,7.6c-0.8,0.9-0.8,2.7-0.9,4.1c-0.1,7.7,0,15.3,0,23c0,10.2,0,20.4,0,30.6c0,3,0,6,0,9
		c-0.1,0-0.2,0-0.2,0c0-2.2,0-4.5,0-6.7c0-2.4-0.2-4.8-0.2-7.2c-0.2-9.7-0.4-19.5-0.6-29.2c0-1.4,0.1-2.9,0.3-4.3
		c0.7-5-0.1-9.9-0.5-14.8c0-0.4-0.4-0.8-0.8-1.5c-0.6,0.7-1.1,1.3-1.4,1.9c-0.5,1-0.6,2.2-1.2,3.1c-0.6,1-1.7,1.7-2.8,1.1
		c-0.7-0.4-1.4-1.4-1.4-2.2c0-1.9,0.5-3.8,0.7-5.7c3.4-0.5,5.5-2.4,7.2-6.1c-1.4,0.3-2.2,0.4-2.8,0.7c-5.6,3-11.5,5.3-17.2,8.1
		c-2,1-3.9,2.2-5.6,3.5c-0.7,0.5-1,1.6-1.3,2.4c-0.6,1.5-1,3-1.5,4.5l0.1,0.1c0.1-1.6,0.1-3.1,0.2-4.9c-2.5-0.6-4.3-0.1-6.4,1.3
		c-3.3,2.2-6.9,3.9-10.4,5.9c-6.7,3.8-5.9,2.7-5.8,9.9c0.1,17.7,0,35.5-0.2,53.3c-0.1-1.4-0.2-2.8-0.2-4.2
		c-0.1-16.9-0.1-33.9-0.2-50.8c0-1-0.3-2.1-0.6-3.3c-2.6,0.2-4.2,1.2-4.7,3.6c-0.6,3.1-1.2,6.3-1.8,9.4c-0.4,1.9-0.7,3.7-1.3,5.6
		c-0.3-5,1.1-9.8,1.9-15.3c-1.2,0.3-2,0.3-2.6,0.6c-3.2,1.7-6.5,3.5-9.6,5.4c-1.3,0.8-2,2.4-3.3,3.2c-1.2,0.7-2.7,0.7-4,1.3
		c-1.7,0.8-3.3,2-5,2.7c-2.7,1.2-3.8,3.4-3.7,6.1c0.3,8.3,0.8,16.6,1.1,24.9l0.1-0.1c-0.3-1.4-0.6-2.8-0.7-4.2
		c-0.4-6.7-0.8-13.4-1.2-20.1c-0.1-0.9-0.3-1.8-0.5-2.7c-2.1-0.8-3.6,0.1-5.1,1c-6.3,3.8-12.5,7.7-18.8,11.5c-1.7,1-2.5,2.3-2.4,4.3
		c0.1,4.3,0,8.6-0.3,12.9c-1.2-4.7,0-9.6-1.1-14.5c-1,0.3-1.8,0.4-2.4,0.7c-2.7,1.4-5.2,3.1-8,4.3c-9.9,4.3-18.4,10.9-27.6,16.4
		c-15.5,9.2-31.2,18.3-46.7,27.4c-8.9,5.3-17.8,10.7-26.7,16.1c-0.8,0.5-1.4,1.2-2.4,1.9c2.5,2.9,6.2,2.9,8.9,4.7
		c2.6,1.8,5.5,3.2,8.4,4.6c3,1.5,6.1,2.7,9.1,4.3c2.8,1.5,5.6,3.1,8.3,4.8c2.8,1.8,5.5,3.8,8.9,6.3c-1.8-0.6-2.9-0.8-3.9-1.3
		c-5.9-2.9-11.8-5.8-17.6-8.7c-6.7-3.4-13.6-6.4-20-10.3c-6.8-4.1-14.2-6.6-21.2-10c-5.7-2.8-11.5-5.6-17.2-8.5
		c-2.5-1.3-5.1-2.6-7-5c-0.7-0.9-2-1.5-3.2-2c-7.9-3.1-15.4-7-22.9-11.1c-3.8-2.1-7.4-4.4-11-6.8c-6-3.9-12-7.9-18-11.8
		c-0.1-0.1-0.3,0-0.7,0c-0.4,1.9,1,2.8,2.1,3.9c2.2,2.1,4.5,4.1,6.8,6.1c7.4,6.6,14.5,13.5,23,18.8c2.2,1.4,4.3,2.6,7,2.8
		c1.5,0.1,3.1,0.9,4.3,1.8c0.7,0.5,0.8,1.9,1.1,2.8c-1.5,1.5-3,0.9-4.3,0.5c-4-1.4-7.7-3.2-10.9-5.9c-6.9-5.7-13.8-11.4-20.7-17.1
		c-5.7-4.7-10.3-10.5-15-16.2c-0.4-0.5-0.7-1.1-1-1.6c-0.5-1.3,0.5-2.7,2-2.4c0.8,0.1,1.6,0.3,2.3,0.7c4.6,2.6,9.3,5,13.7,7.9
		c4.3,2.7,8.4,5.9,12.6,8.8c0.9,0.6,1.9,1.1,2.9,1.7c5.3,2.9,10.6,5.8,15.9,8.8c0.8,0.5,1.8,1,2.3,1.7c1.5,2.6,4,3.6,6.6,4.6
		c6.6,2.6,12.8,5.7,19,9.1c8,4.4,16.4,8,24.6,11.8c1,0.5,2.1,0.6,3.4,0.9c2-3.8,5.3-5.9,8.7-8.1c1.3-0.9,2.5-2,3.8-2.9
		c4.4-2.9,8.7-5.9,13.2-8.7c0.7-0.5,1.9-0.8,2.7-0.5c1.9,0.6,3.5,0,5-0.9c4.3-2.5,8.7-4.8,12.6-7.8c4.6-3.5,9.6-6.4,14.6-9.2
		c7.5-4.2,15-8.5,22.5-12.7c1.9-1.1,3.9-2.2,5.8-3.3c4.4-2.5,9-4.7,13-8c3.1-2.5,6.7-4.7,10.9-5.6c2.2-0.5,2.9-1.5,2.9-3.8
		c0-1.6-0.2-3.1-0.3-4.7c-2.5-0.4-1.7,2.4-3.2,2.9c0.7-3.3,0.6-3.4,2.8-5.8c0.5,0.8,1.1,1.5,1.3,2.3c0.3,1.8,0.4,3.7,0.6,5.9
		c1-0.2,1.6-0.1,2.1-0.4c6.8-3.9,13.6-7.8,20.3-11.8c2.1-1.2,4.1-2.6,3.5-6.2c1.3,1.1,2,2,2.9,2.1c0.8,0.1,1.8-0.4,2.6-0.9
		c7.4-4.2,14.7-8.4,22.1-12.6c2.4-1.4,4.4-3.2,5.3-5.9c0.4-1,1-1.9,1.8-3.2c1,1.2,1.8,2,2.8,3.2c3.2-0.7,6-2.6,8.9-4.2
		c3.7-1.9,7.3-3.9,10.9-6c1.9-1.1,3.6-2.6,5.1-3.8c2.2-0.8,4.3-1.4,6.3-2.4c5.6-2.7,11.1-5.6,16.6-8.4c1.8-0.9,1.9-1.4,1-3.8
		c-0.1-0.3-0.1-0.7,0.4-1.3c0.6,1,1.2,2,1.9,3.1c2.9-0.2,5-2,7.5-3.1c2.2-0.9,4.2-3,7-1.8c0.4,2.2-1,3.2-2,4.3c-1,1.1-2.2,2-1.7,3.7
		L648.6,8.2z"/>
	<path d="M763.4,781.8c0,1.1,0.1,1.9,0,2.7c-0.6,7.3-0.9,14.7-1.9,22c-1.9,14.3-1.4,28.7-2.2,43.1c-1.1,20.6-1.4,41.2-1.8,61.8
		c-0.1,3-0.5,6-0.6,9.1c-0.1,5.3-0.3,10.6,0.1,15.8c0.8,11.8,0.6,23.6,0.4,35.5c-0.1,6.4,0,12.8,0,19.2c0,1.6,0,3.2-0.1,4.8
		c-0.2,5.4-0.5,10.9-0.7,16.3c0,0.7-0.1,1.5-0.3,3.2c-1.5-2.7-1.1-4.8-1.5-6.7c-0.4-2-0.7-4.1-1.5-6.1c-0.1,1-0.2,2-0.2,2.9
		c0.1,3,0.4,6.1,0.5,9.1c0.1,1.9,0.2,3.7,1.4,5.5c0.7,1,0.7,2.4,0.8,3.7c0.7,13.6,0.4,27.2-0.5,40.7c-0.4,6.4-0.4,12.8-0.6,19.2
		c-0.2,6.7-0.4,13.4-0.5,20.1c0,0.6-0.2,1.2-0.3,2c-0.6-0.8-0.9-1.2-1.5-2c-0.4,3.2-0.1,5.9,0.7,8.7c1,3.5,1.7,7.1,2.4,10.7
		c0.1,0.7-0.2,1.5-0.4,2.5c-1.3-0.1-2.4-0.2-3.8-0.3c-0.3-1.2-0.6-2.4-0.8-3.6c-0.6-5.2-0.8-10.5-0.7-15.8
		c0.1-9.1-0.2-18.2-0.3-27.3c0-3.7,0.1-7.3,1.1-10.9c0.5-1.7,0.4-3.5,0.4-5.2c0-6.7-0.4-13.4-0.2-20.1c0.2-8.3,1.1-16.6,1.4-24.9
		c0.2-5.9,0-11.8-0.1-17.7c-0.1-4.5-0.3-9-0.3-13.4c0-3,0.3-6.1,0.4-9.1c0.1-3.7,0.2-7.3,0.2-11c-0.2-9.9-0.9-19.8-0.7-29.7
		c0.4-17.6-0.3-35.2,0-52.7c0.1-3.7,0.4-7.3,0.6-11c0.1-3.4,0.4-6.7,0.3-10.1c-0.2-14.1,0.2-28.1,1.6-42.2c0.4-3.8,0.4-7.7,0.8-11.5
		c0.7-8.3,1.5-16.5,2.2-24.8c0.2-2.5,1.3-3.4,3.7-3C761.5,781,762.2,781.4,763.4,781.8z M757.6,798.9c-0.1,0-0.2,0-0.4,0
		c0,1.9,0,3.7,0,5.6c0.1,0,0.2,0,0.4,0C757.6,802.6,757.6,800.8,757.6,798.9z M754.3,917.9c0.8-1.7,0.9-3.4,0-5
		C754.3,914.6,754.3,916.3,754.3,917.9z M753.4,907.6c0.2,0,0.4,0,0.6,0c0-0.6-0.1-1.3-0.1-1.9c-0.2,0-0.4,0-0.6,0
		C753.3,906.3,753.3,907,753.4,907.6z"/>
	<path d="M786.7,1132.8c-1.5-1-1.6-2.6-1.8-4.2c-0.6-4.4-1.2-8.9-1.6-13.3c-1.3-16.3-2.6-32.5-3.8-48.8c-0.2-2.9-0.2-5.8-0.3-8.6
		c-0.5-11.3-1-22.7-1.4-34c-0.4-11.5-1.4-23-1.1-34.5c0.2-5.7-0.4-11.5-0.7-17.3c-0.6-14.9-1-29.7-0.1-44.6c0.2-3-0.1-6.1-0.1-9.1
		c-0.1-13.9-0.7-27.8-0.2-41.7c0.6-14.9-0.8-29.7-0.3-44.6c0.2-5.4,0.7-10.8,1.2-16.3c0.1-1.2,0.4-2.6,1.1-3.6
		c0.4-0.6,1.7-0.9,2.5-0.8c0.4,0,1.1,1.2,1.1,1.8c-0.2,8.9-0.6,17.9-0.7,26.8c-0.2,9.4-0.2,18.9-0.1,28.3c0,3.8,0.3,7.6-0.5,11.4
		c-0.6,2.9-0.5,6-0.6,9.1c-0.2,6.4-0.3,12.8-0.4,19.2c0,3.2,0,6.4,0,9.6c0,10.2,0,20.5,0.1,30.7c0,4.2,0.5,8.3,0.3,12.5
		c-0.6,13.1,0.4,26.2,1.1,39.3c0.6,10.1,0.6,20.1,1.1,30.2c0.4,9.6,1.1,19.1,1.6,28.7c0.1,2.2,0.1,4.5,0.2,6.7
		c0.8,12.6,1.4,25.2,2.4,37.8c0.6,7.5,1.8,14.9,2.7,22.4c0.2,1.3,0.4,2.5,0.4,3.8C789,1131.1,788.5,1132.4,786.7,1132.8z"/>
	<path d="M71.1,525.7c-1.4,0-2-0.7-1.9-2.1c0.2-3.3,0.3-6.7,0.5-10c0-0.8,0-1.6-0.1-2.4c-0.8-6-6-8.8-11.2-5.7
		c-3.1,1.9-6,4.2-8.7,6.7c-3.5,3.2-6.8,6.8-10,10.3c-1.5,1.6-2.8,3.5-4,5.4c-3,4.7-5.6,9.7-8.8,14.3c-6.3,8.6-10.6,18.2-14.2,28.2
		c-3.6,10.1-6.3,20.5-7.9,31.1c-1.1,7.6-1.2,15.3-1,23c0.1,3.9,1.9,5.1,5.7,3.6c1.9-0.7,3.7-1.9,5.5-3c2.9-1.7,5.7-3.5,8.6-5.2
		c5.8-3.5,11.3-7.3,15.8-12.4c2.7-3.1,5.8-5.4,9.5-7.2c1.1-0.5,2.4-1.1,3.6-1.3c3.6-0.6,6.5-0.6,7.6,4.3c0.6,2.6,1.2,5.3,1.2,8
		c0,6.3-1,12.4-3.1,18.4c-1.5,4.4-2.6,8.9-3.9,13.3c-3.9,13.2-7.8,26.3-11.9,39.5c-1.6,5.2-3.7,10.2-5.2,15.4
		c-1,3.3-1.3,6.9-1.8,10.3c-0.3,2.4,0.3,4.4,2.5,5.8c0.5,0.3,0.8,0.9,1.2,1.4c-0.7,2.5-2.6,2.8-4.5,2.7c-1.4-0.1-1.9-1.2-1.9-2.4
		c0-2.4-0.1-4.8,0.3-7.2c2.3-12.1,5.1-24.1,8.9-35.8c3.4-10.5,6.5-21.1,9.6-31.7c2.1-7.4,4.1-14.8,5.5-22.3c0.7-4,0.4-8.3,0-12.4
		c-0.2-2.9-1.4-3.4-4.3-2.8c-3.5,0.8-6.5,2.4-9.3,4.6c-8,6.4-16.2,12.4-24.4,18.6c-1.5,1.2-3,2.3-4.6,3.4c-2.4,1.7-5,2.6-8.1,2.4
		c-4.1-0.3-5.7-1.4-5.8-5.4c-0.3-6.2-0.6-12.5-0.1-18.7c1-11,3.1-21.8,7.1-32.2c1.3-3.3,1.9-6.8,3-10.1c2.5-7,6-13.4,9.6-19.8
		c4.1-7.2,9-14,14-20.6c1.1-1.4,2-2.9,3.3-4.1c3.4-3.2,6-7,8.7-10.8c2.4-3.3,5.9-5.8,9-8.5c1.6-1.3,3.5-2.1,5.8-1.5
		c1,0.3,2.2-0.1,3.3-0.3c4.1-0.4,6.8,1.3,7.9,5.3c0.4,1.4,0.5,2.8,0.5,4.3c0.1,3.5,0.2,7,0.3,10.5C73,522.9,73,522.9,71.1,525.7z"/>
	<path d="M862.9,839.1c-3.5-2.2-3.7-2.3-3.3-5.4c0.6-4.6,1.6-9.1,2.4-13.7c0.3-1.9,0.6-3.8,0.9-5.7c0.3-1.7,0.2-3.5,1.4-4.9
		c1.7-0.2,2.6,0.6,2.8,2c0.2,1.3,0.2,2.6,0.1,3.8c-0.4,13.6-0.8,27.2-1.3,40.7c-0.4,10.5-1.3,21.1-1.8,31.6
		c-0.4,9.3-0.5,18.5-0.7,27.8c-0.2,11.5-0.2,23-0.3,34.5c0,6.9,0,13.8,0.1,20.6c0.3,16.8,0.7,33.6,1.2,50.3
		c0.3,10.2,0.8,20.4,1.1,30.7c0.3,9.4,0.3,18.9,0.5,28.3c0.1,5.1,0.1,10.2,0.5,15.3c0.1,2.2,1,4.3,1.5,6.5c0.3,1.1,0.8,2.1,0.9,3.2
		c0.2,2-0.5,3.4-2.9,4c-0.4-0.7-1.1-1.5-1.3-2.3c-0.7-3.9-1.7-7.8-1.8-11.8c-0.2-7.3,0.1-14.7,0.1-22.1c-0.1-10.9-0.4-21.7-0.6-32.6
		c-0.2-7.7-0.3-15.3-0.6-23c-0.4-10.1-1-20.1-1.4-30.2c-0.2-4.5,0-8.9,0-13.4c0-7.8-0.2-15.7-0.1-23.5c0-12.6,0.1-25.3,0.2-37.9
		c0-7.4,0-14.7,0.2-22.1c0.5-13.1,1.1-26.2,1.7-39.3C862.6,846.9,862.8,843.1,862.9,839.1z"/>
	<path d="M888.5,1112.8c-2.2,0.7-3,0-3.2-1.3c-0.2-1.4-0.3-2.9-0.2-4.3c0.1-9.9,0.4-19.8,0.5-29.7c0.2-17.3,0.3-34.5,0.3-51.8
		c0.1-16.8,0-33.6,0-50.4c0-11.8-0.2-23.7,0.1-35.5c0.5-18.9,1.2-37.7,1.9-56.5c0.2-6.2,0.9-12.4,1.3-18.7c0.1-1.3,0.2-2.6,0.1-3.8
		c-0.1-0.8-0.3-2-0.8-2.1c-2.7-0.8-2.1-2.9-1.9-4.7c0.8-6,1.6-12,2.5-18c0.6-4.1,1.1-8.2,1.7-12.3c0.4-2.6,1.3-3.7,2.5-3.4
		c1.9,0.5,1.7,2.2,1.7,3.6c-0.4,10.1-0.1,20.2-1.4,30.2c-1.4,10.2-1.5,20.4-2.1,30.6c-0.3,5.1-0.1,10.2-1.6,15.2
		c-0.7,2.2-0.4,4.8-0.2,7.1c0.4,5.6,0.6,11.1-0.3,16.7c-0.5,3.4-0.4,7-0.4,10.5c0,5.8,0.3,11.5,0.3,17.3c0,1.4,0.1,2.9-0.3,4.3
		c-1.3,4.4-1,8.9-0.7,13.3c0.3,4.9,0.5,9.9-0.2,14.8c-0.3,1.6-0.2,3.2-0.1,4.8c0.2,5.6,0.5,11.2,0.9,16.8c0.3,3.2,0,6.3-0.6,9.5
		c-0.5,2.5-0.6,5.1-0.3,7.6c0.6,6.1,0.7,12.1,0.2,18.2c-0.5,4.9,0.2,9.9,0.3,14.8c0.2,6.4,0.5,12.8-0.7,19.1c-0.5,2.6,0,5.4,0.2,8.1
		c0.4,5.3,0.7,10.5,0.2,15.8c-0.3,3,0.1,6,0.3,9.1C888.3,1109.3,888.4,1111,888.5,1112.8z"/>
	<path d="M194.8,1040.5c-1.1-0.6-2-0.9-2.8-1.4c-4.3-3.3-8.5-6.8-12.8-10.1c-2.9-2.3-5.2-5.2-7.4-8.1c-3.5-4.7-5.1-9.9-5.2-15.6
		c0-4.8,0.1-9.6,1-14.3c1.7-8.9,5.7-16.6,12.4-22.7c3.1-2.8,6.3-5.4,9.4-8.2c0.8-0.7,1.8-1.4,2.4-2.3c2.1-3.3,4.9-5.8,7.7-8.5
		c1-1,2-2.1,2.8-3.2c4.5-5.9,3.5-13-2.7-17c-4.3-2.8-8.9-5-13.4-7.5c-2.1-1.2-4-2.6-6-3.9c-1.4-1-2-2.5-2-4.2
		c-0.1-3.1,0.3-6,2.1-8.7c2.6-4,4.9-8.3,7.8-12.1c3.7-5,7.7-9.8,12.7-13.6c1.8-1.4,3.4-2.9,4.9-4.5c3.4-3.5,7.6-5.9,12.2-7.3
		c3.3-1,6.6-1,9.8,0.6c1.6,0.8,2.5,2.1,2.3,3.8c-0.5,4.6-1.9,9-4.3,13c-0.2,0.3-0.8,0.4-1.5,0.7c-1.4-2.2-0.5-4.3,0.1-6.4
		c0.6-2,1.3-3.9,1.9-5.9c-2.7-2.6-5.8-2.1-8.7-1.4c-1.5,0.4-2.9,1.3-4.3,2c-1.7,0.9-3.4,1.7-5,2.7c-1.1,0.7-2.2,1.4-3,2.3
		c-6.7,7.5-13.3,15.1-19.9,22.7c-2.2,2.5-3.4,5.4-3.9,8.6c-0.5,2.7,0.2,4.8,2.6,6.1c1.8,1,3.7,1.9,5.6,2.7c2.1,0.9,4.2,1.7,6.3,2.4
		c5.4,1.9,9.2,5.7,11.9,10.6c2.6,4.8,1.5,9.6-0.9,14.2c-2.8,5.2-7.1,9.3-11.9,12.3c-7.7,4.9-13.2,11.5-18,19
		c-5.7,8.9-8.6,18.6-6.6,29.2c0.8,4.2,2,8.5,3.8,12.3c1.9,4,6.4,6.1,8.3,10.3c2.8,1.6,5.5,3.2,8.3,4.7c1,0.5,2.1,0.7,3.1,1.1
		C196.5,1036,196.7,1036.7,194.8,1040.5z"/>
	<path d="M274.9,896.3c1.1-3.8,1.3-4.1,4.2-3.8c1.7,0.1,3.6,0.3,5.1,1.1c4.1,2.1,8.3,4.2,11.1,8c4.1,5.5,7.2,11.3,7.5,18.3
		c0,1,0.1,1.9,0.3,2.9c2.3,10.1,0.1,19.7-3.7,29c-3.6,9.1-7.6,18-12.4,26.4c-0.5,0.9-1,2-1.6,3.2c1,0.5,1.9,0.8,2.6,1.3
		c2.8,1.8,5.7,3.5,8.3,5.6c2.2,1.8,4,4.1,5.8,6.4c1,1.2,1.8,2.8,2.1,4.3c0.9,5.3,1.7,10.7,2.3,16.1c0.5,4.8-0.9,9.3-3.4,13.2
		c-2.7,4.1-5.5,8.2-8.8,11.9c-5.1,5.6-11.6,8.2-19.3,7.9c-2.2-0.1-4.5,0.3-6.7,0.3c-1,0-2-0.4-3.3-0.7c0.4-2.3,1.4-3.5,3.5-3.5
		c1.6,0,3.2-0.1,4.8-0.1c4.2,0.1,8.2-1.1,12.1-2.5c4.6-1.6,7.4-5.4,10.6-8.8c0.7-0.7,1.1-1.5,1.8-2.3c8.1-10,6.5-25.7,0.6-33.2
		c-1.7-2.1-3.3-4.3-5.2-6.3c-2.4-2.7-5.5-4.4-9.2-4.6c-1.6-0.1-3.3,0-4.3-1.8c-0.2-1.8,0.9-3.2,1.9-4.6c8.4-12,14-25.4,18.1-39.5
		c1.6-5.5,0.8-11.1,0.5-16.7c-0.5-8.2-4.6-14.8-9.3-21.2c-2.2-3-5.4-4.4-9-4.8C279.3,897.8,276.8,898,274.9,896.3z"/>
	<path d="M348.4,984.3c-1.4,0-2.6,0-3.9,0c-5.4,0-10.9,0.2-16.3,0c-2.2-0.1-4.4-0.6-6.4-1.5c-3.3-1.4-5.2-4.3-5.5-7.8
		c-0.5-6.1-0.1-12.1,3-17.7c1.6-2.9,2.4-6.2,3.5-9.4c2.5-7.8,5.3-15.4,9-22.7c1.6-3.1,3.4-6.1,5.3-9.1c1.2-1.9,3-3.3,5.4-3.6
		c2.5-0.4,4.3,0.6,4.5,3c0.2,2.2,0,4.4-0.4,6.6c-0.1,0.7-1.2,1.2-1.9,1.9c-2.3-2.1-0.1-5.1-2.2-7.3c-0.8,0.5-1.9,0.8-2.4,1.6
		c-1.7,2.5-3.5,5-4.8,7.7c-5,10.7-9.5,21.6-13.1,32.9c-1.2,3.8-2.3,7.7-2.2,11.7c0.1,5.4,2.4,8.4,7.8,9.1c4.1,0.5,8.3,0.4,12.4,0.4
		c2.1,0,4.1-0.3,6.2-0.4c5.3-0.1,6.6,1.1,6.2,6.5c-0.2,2.8-1,5.6-2,8.3c-2.2,6-4.8,11.9-6.9,17.9c-1.4,4.1-2.2,8.3-3.3,12.5
		c-0.2,0.9-0.3,1.9-0.3,2.9c-0.1,4.1,1.2,5.9,5.3,6.8c6.3,1.3,12.7,1.9,18.7-1.3c0.5-0.3,1.2-0.3,2.3-0.6c-0.3,1.2-0.2,2.3-0.7,2.7
		c-1.1,1.1-2.5,2-3.9,2.6c-4.8,2-9.9,2.3-15.1,1.7c-3.5-0.4-6.1-2.6-8.8-4.6c-1.2-0.9-1.4-2.4-1.4-3.9c-0.1-4.2,0.2-8.3,1.4-12.3
		c1.3-4.1,2.8-8.1,4.4-12.2c2-5.2,4-10.4,6-15.7C349.2,989,349.6,987,348.4,984.3z"/>
	<path d="M1004.8,277.1c-3,0.8-2.7-2-4.4-3.2c-0.2,1-0.5,1.8-0.5,2.6c0.3,5.7,0.6,11.5,1.1,17.2c0.5,5.9,0.6,11.8-0.3,17.7
		c-0.4,2.3,0,4.8,0.2,7.1c0.6,5.4,1.8,10.7,0.6,16.2c-0.3,1.2-0.1,2.6,0.1,3.8c0.4,2.3,1.7,3.8,4.2,3.7c1.7-0.9,1.5-2.7,1.8-4.2
		c0.6-3.9,1.2-7.9,1.9-11.8c0.1-0.6,0.5-1.1,1-1.6c1,5.9-0.9,11.5-1.2,17.3c-0.3,5.9-1,11.8-1.4,17.7c-0.4,5.9-0.6,11.8-1.3,17.6
		c-0.1-4.3-0.3-8.7,0.4-13c0.6-3.4,1.1-6.8-0.8-10.3c-0.8-1.5-0.5-3.7-0.7-5.9c-1-0.1-2-0.2-3.3-0.4c0,2.7,0,5,0,7.4
		c0,1.3,0.1,2.6,0.1,3.8c0,1-0.5,1.9-1.7,1.9c-1.2,0-1.7-0.7-1.8-1.8c-0.1-2.6-0.1-5.1-0.2-7.7c0-1.1-0.1-2.2,0-3.4
		c0.1-2.4-1-3.8-3.1-4.9c-4.5-2.4-8.9-5-13.4-7.4c-6-3.4-11.5-7.5-16.8-13.2c1.5,0.4,2.2,0.5,3,0.8c8,3.3,15.7,7.1,22.6,12.5
		c2,1.6,4.3,2.6,7.4,2.8c0.1-1.7,0.3-3.1,0.3-4.5c-0.2-8.1-0.4-16.3-0.6-24.4c-0.4-14.2-0.7-28.4-1.2-42.7
		c-0.2-5.6-0.6-11.2-0.8-16.8c-0.1-1.4,0.1-2.9,0.4-4.3c0.1-0.4,0.9-0.8,1.5-0.9c0.3-0.1,1,0.4,1.1,0.8c0.2,1.1,0.4,2.2,0.4,3.3
		c-0.2,4.8,0.8,9.2,3.3,13.3c1.8,2.9,2.6,6.1,2.1,9.6C1004.6,273.7,1004.8,275.3,1004.8,277.1z"/>
	<path d="M503.4,241.9c4.8,0.3,8.8,2.6,12.8,5c6.2,3.7,12.4,7.3,18.3,11.4c4,2.8,8.3,4.5,12.7,6.6c12.7,5.9,25.5,11.9,37.4,19.4
		c2,1.3,4.3,2.1,6.4,3.2c5.1,2.6,10.3,5.2,15.4,7.8c1.7,0.9,3.4,1.7,5.1,2.6c4,2.2,8.1,4.6,12.1,6.8c1.4,0.8,2.8,1.5,4.3,2.1
		c6.5,2.4,12.6,5.4,18.6,8.8c8.4,4.6,16.9,9.1,25.4,13.5c2.5,1.3,5.3,2.2,7.9,3.4c9.5,4.5,18.9,9.3,27.8,15c1.1,0.7,2.1,1.5,3.3,1.9
		c6.6,2.7,12.2,6.9,18.1,10.7c10.6,6.8,21.2,13.6,31.9,20.4c2,1.3,4.1,2.3,6.1,3.4c-0.7,1.9-1.7,1.9-2.8,1.3
		c-1.1-0.6-2.1-1.5-3.2-2.2c-8.9-5.7-17.8-11.3-26.6-17c-4.5-3-8.9-6.2-13.4-9.3c-1.4-1-2.9-2-4.4-2.8c-12-6.3-24.1-12.5-36.2-18.7
		c-5.1-2.6-10.3-5-15.5-7.6c-2.2-1.1-4.3-2.1-6.4-3.3c-6.9-3.7-13.6-7.6-20.6-11.2c-6.1-3.1-12.5-5.7-18.6-8.9
		c-17.6-9.1-35-18.5-52.6-27.7c-5.9-3.1-11.9-6.2-18.1-8.9c-10.1-4.5-19.6-10.1-29.1-15.7c-4.4-2.6-8.8-5.3-13.1-7.9
		C505.4,243.4,504.4,242.6,503.4,241.9z"/>
	<path d="M411.1,1188.3c-3-0.6-3.4-2.3-3.4-4.1c0-2.4,0.1-4.8,0.2-7.2c0.2-9.9,0.4-19.8,0.6-29.7c0.1-6.1,0.2-12.1,0.3-18.2
		c0.1-11.5,0.3-23,0.3-34.5c0-7.7-0.2-15.3-0.2-23c-0.1-10.5-0.1-21.1-0.1-31.6c0-6.2-0.1-12.4-0.1-18.7c0-2.1,0.7-3.7,3.2-3.8
		c1.5,0.8,1.3,2.2,1.2,3.4c-0.1,4.5-0.5,8.9-0.5,13.4c-0.1,15.2,0,30.3,0,45.5c-0.1,21.4-0.3,42.8-0.5,64.2
		c-0.1,7.8-0.5,15.6-0.7,23.5c0,1.3-0.3,2.8,0.2,3.8c2,4,0.8,8.2,0.9,12.3C412.4,1185.1,411.6,1186.6,411.1,1188.3z"/>
	<path d="M242.9,1029.2c0-3.4,0-6.7,0-10.1c0-1.8,0.4-3.5,1.9-4.7c1-0.7,2.1-1.2,3-0.2c0.5,0.6,1,1.9,0.7,2.5
		c-3.3,5.7-2,11.8-1.9,17.8c0,0.8,0.2,1.6,0.2,2.4c0,12.5,1.9,24.8,2.9,37.2c0.7,8.7,0.9,17.5,1.2,26.3c0.3,9.1,0.2,18.2,0.9,27.3
		c0.6,8.6,0.6,17.2,2.6,25.7c0.1,0.6,0.3,1.4,0.1,1.9c-0.4,0.8-1.1,1.5-1.8,1.9c-0.2,0.1-1.3-0.8-1.5-1.4c-0.7-2.6-1.3-5.3-1.6-8
		c-0.5-4.3-0.8-8.6-1-12.9c-0.7-18.2-1.2-36.4-2.2-54.6c-0.7-12.6-2-25.1-3-37.7c-0.3-4.5-0.5-8.9-0.8-13.4
		C242.7,1029.2,242.8,1029.2,242.9,1029.2z"/>
	<path d="M198.3,828.9c-1.6,0.8-3.1,0.4-4.6-0.1c-4.2-1.2-8.5-1.5-12.8-0.9c-2.8,0.3-5.6,1.3-8.1,2.6c-8.4,4.6-16.7,9.3-24.8,14.5
		c-6,3.8-12.2,7-19,8.8c-4.4,1.2-9.1,1.4-13.7,1.9c-2.6,0.3-5-0.5-7.4-1.6c-8.6-4-16.2-9.5-23.4-15.6c-0.5-0.4-0.9-0.9-1.3-1.4
		c-1.1-1.3-2.5-2.5-1.2-4.5c0.2-0.3-0.4-1.1-0.6-1.7l-0.1,0.1c2.1,1.4,4.3,2.7,6.3,4.2c4,3.1,7.7,6.9,11.9,9.6
		c4.8,3.1,9.9,5.9,15.6,7.2c4.3,1,8.6-0.1,12.7-1.4c6.8-2.3,13.2-5.5,19.3-9.5c4.4-2.9,9.1-5.2,13.7-7.9c1.9-1.1,3.8-2.4,5.4-3.9
		c4.2-3.7,9.5-4.4,14.6-5.5c0.8-0.2,1.8,1,2.8,1.3c1.1,0.3,2.2,0.1,3.3,0.4C190.8,826.3,194.8,826.7,198.3,828.9L198.3,828.9z"/>
	<path d="M347.7,790.2c-1.1-0.1-1.8-0.1-3-0.2c1.1-0.6,1.7-1,2.3-1.3c4.5-2.5,9-4.8,13.4-7.4c2.1-1.2,3.8-1.5,5.6,0.5
		c-0.1,1.6-0.9,2.6-2.4,3.6c-7.8,5.1-16.8,7.7-25.2,11.6c-4.8,2.2-9.6,4.2-14.5,6.2c-8.4,3.4-17.3,4.6-26.1,5.5
		c-5.2,0.6-10.5,0.5-15.8,0.9c-3.3,0.2-6.7,0.5-10,1.2c-2.6,0.6-5.1,1.9-7.4,3.2c-2.6,1.6-5,3.4-7.3,5.4c-2.7,2.4-5.9,3.1-9.2,3.6
		c-0.5,0.1-1.1-0.2-1.9-0.4c1-2.7,2.2-4.4,5.2-5.1c2.4-0.6,4.4-2.3,6.6-3.7c2.4-1.5,4.6-3.4,7.1-4.7c4.2-2.3,8.9-2.7,13.5-2.2
		c5,0.5,9.7-0.1,14.5-1.9c3.6-1.4,7.8-1.5,11.8-1.4c3.3,0.1,6.2-0.6,9.2-1.8c4.6-1.8,9.4-3.1,14.2-4.3c6.2-1.5,12.2-3.8,18.1-6.1
		C346.7,791.2,347,790.8,347.7,790.2z"/>
	<path d="M412.1,190.7c-3.8-1.7-7.6-3.2-11.3-5.1c-9.9-5.2-19.8-10.4-29.5-15.8c-5.1-2.9-9.9-6.4-14.8-9.7c-1.5-1-2.9-1.9-4.4-2.8
		c-4.9-2.7-9.7-5.5-14.7-8c-4.1-2.1-8.4-3.9-12.6-5.8c-2.6-1.2-5.3-2.2-7.9-3.3c-3.2-1.4-5.3-4-7.5-6.5c-0.4-0.5-0.6-1.6-0.3-2.1
		c0.3-0.5,1.3-1,1.9-0.9c0.9,0,1.9,0.4,2.7,0.8c4.3,2.2,8.5,4.4,12.7,6.6c1.5,0.8,3,1.9,4.4,2.8c3.1,2,6.5,3.5,10.3,3.6
		c2.7,0.1,4.9,1.2,5.3,3.9c0.4,2.3,1.9,3.2,3.5,4.2c4.8,2.9,9.6,5.7,14.4,8.6c6,3.7,11.8,7.5,17.8,11.3c1.3,0.8,2.8,1.5,4.2,2.3
		c3.2,1.7,6.5,3.4,9.8,5.1c1.6,0.8,3.1,1.7,4.6,2.5c0.7,0.4,1.5,0.6,2.1,1.1c3.2,2.3,6.4,4.6,9.6,6.9
		C412.3,190.4,412.2,190.5,412.1,190.7z"/>
	<path d="M1107.1,537c0-2.2,0-4.5,0.1-6.7c0.1-2.2-0.1-4.6,0.7-6.6c1.1-3.1,0.4-5.6-1.1-8.2c-1.3-2.4-2.7-4.7-4-7.1
		c-2.2-4.1-4.3-8.2-6.4-12.3c-4.5-9-8.9-18-13.4-27c-0.9-1.9-1.9-3.7-2.8-5.5c-1.1-2.2-1.6-4.3,0.8-5.7c-0.1-3.1-1.6-5.5-2.8-7.9
		c-1.2-2.6-2.3-5.3-3.5-7.9c-1.1-2.4-1.3-5.3-3.9-7.3c-0.5,1-0.9,1.8-1.2,2.7c-0.2,0.9-0.3,1.8-0.4,3c-1.2-1.5,0.7-3.9-2.3-4.6
		c0.8-2.7,1.6-5.3,2.5-8.7c0.9,1.4,1.4,2,1.8,2.8c4.2,9.5,8.3,19,12.5,28.5c1.8,4.1,3.9,8.1,5.6,12.2c3.6,8.2,7,16.4,10.6,24.6
		c1.7,3.8,3.3,7.6,5.5,11.2c5.6,9.3,9.9,19.3,14.5,29.2c0.5,1.1,0.7,2.3,1.3,4.4c-3.7-2.3-4.6-5.5-6.1-8c-1.5-2.6-2.8-5.3-5.3-7.9
		c-1.8,4.1-2.3,7.7-0.8,11.7C1108.6,536,1107.8,536.5,1107.1,537L1107.1,537z"/>
	<path d="M918.6,821.5c0.5-1.9,1-3.9,1.5-5.9c0.2-0.6,0.2-1.4,0.6-1.8c0.7-0.6,1.6-1.1,2.4-1.1c0.5,0,1.2,0.9,1.4,1.6
		c0.3,0.9,0.3,1.9,0.2,2.8c-0.2,9.1-0.4,18.2-0.7,27.3c-0.3,8-0.8,15.9-1.2,23.9c-0.8,12.7-1.7,25.5-2.5,38.2
		c-0.1,1.4-0.1,2.9-0.1,4.3c-0.2,14.7-0.4,29.4-0.6,44.1c0,0.8-0.2,1.5-0.9,2.4c-0.4-1.4-0.8-2.8-1.1-4.2c-0.3-1.4-0.5-2.8-0.5-4.3
		c0-6.2,0.1-12.4,0.1-18.7c0-3.7,0-7.3,0-11c0-3.2,0.4-6.3,1.4-9.4c0.7-2.4,0.8-5.1,0.6-7.6c-0.6-7.3-1.4-14.6-0.7-22
		c1.2-12.9,1.1-25.8,3.1-38.7c0.7-4.8-0.2-9.9-0.6-14.8C920.7,825.1,919.6,823.6,918.6,821.5z"/>
	<path d="M1004.2,902.4c-1.4-5.5-2.2-10.8-1.8-16.3c0.8-10.2,1-20.4,2.2-30.6c1.2-9.5,1.2-19.1,1.6-28.7c0.1-2.6,0.2-5.1,0.3-7.7
		c0.1-1.8,0-3.4-1.2-5c-0.7-0.9-0.9-2.4-0.8-3.6c0.3-3.3,0.9-6.6,1.4-10c0.1-0.8,0.4-1.6,1-2.1c0.5-0.5,1.4-0.7,2.1-0.6
		c0.5,0,1.1,0.8,1.2,1.3c0.2,1.1,0.3,2.2,0.3,3.3c-0.1,4.2-0.1,8.3-0.3,12.5c-0.4,8.4-1,16.9-1.6,25.3c-1.1,16.9-2.3,33.8-3.5,50.7
		C1005,894.8,1004.6,898.6,1004.2,902.4z"/>
	<path d="M237.1,617.4c0.4-2,1-3.9,3.3-5c2.5,2.3,5.2,2.3,8.2,0.9c3.8-1.8,7.7-3.2,11.9-3.3c6.4-0.2,9.9,2.2,11.9,8.2
		c1.4,4.1,1.8,8.4,1.7,12.7c0,2.5,0,5.1,0.3,7.6c0.2,2.2,1.4,3.1,3.6,3.1c2.3,0,4.4-0.4,6.4-1.7c0.6-0.4,1.3-1,2.1-1.1
		c0.5-0.1,1.3,0.2,1.6,0.6c0.3,0.4,0.4,1.4,0.1,1.7c-1.2,1.2-2.4,2.8-4,3.3c-2.8,1-5.9,1.6-8.8,1.8c-2.9,0.2-4.8-2.1-4.9-5.3
		c-0.1-4.2,0-8.3-0.1-12.5c-0.1-2.1-0.2-4.1-0.6-6.2c-0.3-1.4-0.9-2.7-1.6-4c-1.3-2.2-3.2-3.4-5.9-3.5c-4.7-0.3-9.2,0.6-13.6,2.2
		c-1.9,0.7-3.9,1.5-5.9,2C240.4,619.6,239.9,619.4,237.1,617.4z"/>
	<path d="M390.6,656.9c-0.9-0.3-1.7-0.4-1.9-0.8c-0.7-1.4-1.6-2.8-1.8-4.3c-0.5-3.5-0.9-7-1-10.5c-0.3-13.6-0.8-27.1-2.2-40.6
		c-0.6-6.3-1.7-12.6-2.7-18.9c-0.2-1.5-0.9-3-1.3-4.4c-1.3,0.1-2.3,0.1-3.3,0.2c-1-2.6-0.8-5.1-0.3-7.6c0.4-1.7,1.6-2.2,3.3-1.5
		c1.6,0.7,2.7,1.8,3.1,3.4c0.6,2.1,1.2,4.3,1.5,6.5c1.3,9.2,2.5,18.3,3.7,27.5c0.6,4.5,0.6,8.9,0,13.4c-0.3,1.9-0.2,3.8,0.1,5.7
		c0.8,5.7,1.4,11.4,1.3,17.2c0,2.8,0.4,5.7,1,8.5C390.5,652.6,390.9,654.5,390.6,656.9z"/>
	<path d="M496.9,255.9c-3.1-1.2-6.4-2-9.3-3.6c-9.8-5.5-19.4-11.2-29-16.8c-10.6-6.2-21.2-12.5-31.8-18.7
		c-15.6-9.1-31.1-18.2-46.7-27.4c-1.7-1-3.6-1.8-5.5-4.3c1.8,0.4,2.7,0.5,3.5,0.9c2.9,1.3,5.9,2.6,8.6,4.2c7.5,4.6,14.9,9.3,22.3,14
		c0.4,0.3,0.8,0.5,1.2,0.8c9,5.1,18.1,10.2,27.1,15.3c2.5,1.4,4.9,3,7.4,4.5c3.7,2.2,7.3,4.5,11,6.7c8.9,5.3,17.9,10.5,26.8,15.8
		c2.9,1.7,5.8,3.3,8.7,5.1C493.1,253.5,495,254.7,496.9,255.9L496.9,255.9z"/>
	<path d="M284.4,129.6c-2.6,0.9-4.3,0.2-6-0.8c-7.8-4.5-15.6-8.8-23.3-13.3c-8.8-5.1-17.7-10.2-26.5-15.4
		c-6.1-3.5-12.1-7.1-18.2-10.6c-1.4-0.8-2.9-1.3-4.3-1.9c-2-0.9-4.1-1.9-5.3-3.9c-0.9-1.4-0.1-3.1,1.5-3c1,0,2.3,0.4,3,1.1
		c2.4,2.5,5.4,3.9,8.4,5.4c2,1,3.9,2.2,5.7,3.5c8,5.7,16.4,10.5,25.1,15c2.7,1.4,5.2,3.1,7.8,4.7c1.6,1,3.2,2.1,4.9,3.1
		C266,118.6,274.9,123.9,284.4,129.6z"/>
	<path d="M250.4,186.8c-3.7-0.1-6.7-1.9-9.7-3.6c-10.5-6-21-12.1-31.5-18.2c-5.1-3-10.1-6.2-15.2-9.2c-4.1-2.4-8.4-4.6-12.5-7
		c-0.9-0.5-1.8-1.3-2.5-2.2c-0.4-0.5-0.6-1.8-0.3-2.1c0.5-0.6,1.6-0.8,2.4-1c0.2-0.1,0.6,0.2,0.9,0.4c5.4,3.4,10.8,6.7,16.3,10.1
		c1.9,1.2,3.8,2.3,5.7,3.5c5.9,3.7,11.9,7.5,17.8,11.2c0.4,0.3,0.7,0.6,1.2,0.8c5.4,2.1,10.2,5.3,14.9,8.6c2.1,1.5,4.1,2.9,6.2,4.4
		C246.2,184,248.3,185.4,250.4,186.8z"/>
	<path d="M284.7,131.6c2.6,1.1,5.3,1.9,7.8,3.2c3.8,2,7.4,4.3,11.2,6.5c2.6,1.5,5.3,3,7.9,4.5c6.6,3.9,13.1,7.9,19.7,11.9
		c3.4,2,7,3.8,10.4,5.9c9.7,5.9,19.3,11.8,29,17.7c0.5,0.3,0.9,0.8,1,1.8c-0.8-0.2-1.7-0.2-2.3-0.6c-8.3-4.8-16.6-9.5-24.9-14.4
		c-10.5-6.1-20.9-12.3-31.3-18.4c-5.2-3.1-10.6-6-15.8-9.1c-1.9-1.1-3.6-2.7-5.4-3.9c-2.4-1.5-4.9-2.9-7.3-4.4
		C284.6,132.1,284.6,131.8,284.7,131.6z"/>
	<path d="M1023.7,301c2.8,6.1,6.1,12,8.3,18.3c9.2,26.3,18,52.6,27,78.9c1.6,4.7,3.4,9.3,5.1,13.9c0.6,1.6,1.1,3.2,0.7,5.1
		c-1.4-3-2.9-6-4.1-9c-2-5.1-3.8-10.2-5.6-15.3c-5.4-15.7-10.7-31.5-16.1-47.2c-3.7-10.7-7.6-21.4-11.3-32.1
		C1026.3,309.5,1025.1,305.2,1023.7,301L1023.7,301z"/>
	<path d="M499.2,238.7c-0.8-0.3-1.7-0.5-2.5-1c-8.8-4.9-17.6-9.8-26.4-14.6c-3.1-1.7-6.5-2.9-9.3-4.9c-9.3-6.6-20.1-10.5-29.6-16.6
		c-2.3-1.5-4.9-2.3-7.3-3.5c-2.1-1.1-4.2-2.3-6.2-3.6c-0.5-0.3-0.6-1.2-1.1-2.6c1.9,0.6,3.2,0.8,4.2,1.4c8.5,4.5,17,8.9,25.3,13.7
		c8.1,4.8,16,9.8,24.6,13.8c5.8,2.7,11.2,6.1,16.7,9.3c3.3,1.9,6.5,4,9.8,6c0.8,0.5,1.5,1.1,2.3,1.6
		C499.4,238.1,499.3,238.4,499.2,238.7z"/>
	<path d="M798.3,797.4c1.4-2.8,1.1-5.6,1.2-8.5c0-2.8,0-5.7,0-9c1.1,1.5,0.9,2.8,0.7,4.1c-0.4,4.2-0.3,8.3,0.4,12.4
		c0.4,2.5,0.7,5-0.3,7.3c-1.6,0.7-2.5-0.1-2.9-1.2c-1-2.7-2.3-5.3-2.8-8.1c-1.7-10.6-2-21.3-1.7-32c0.1-2.5,0-5.1,0.2-7.6
		c0.4-3.6,0.5-3.5,4.5-4.1c0-0.6,0-1.2,0.1-1.8c0.1-0.6,0.2-1.2,0.3-1.9c0.4,0.3,0.8,0.5,0.8,0.6c0.1,1.6,0,3.2,0.1,4.8
		c0.2,3.8,0.3,7.7,0.6,11.5c0.3,2.9,0.4,5.7-0.2,8.5c-1.8-5.3-0.6-10.9-2.2-16.4c-0.3,1.1-0.9,2.3-0.9,3.4
		c-0.1,10.4-0.1,20.8-0.1,31.2C796.1,792.9,796.9,795.2,798.3,797.4z"/>
	<path d="M121.8,705.3c0-1.9-0.1-3.3,0-4.8c0.1-1.4,1.3-2.5,2.5-2.4c1.4,0.1,1.9,1.1,1.8,2.4c-0.1,2.2-0.3,4.4-0.3,6.7
		c-0.1,2.4-0.2,4.8-0.2,7.1c0,2.5,1.2,4.3,3.4,5.3c1.9,0.8,3.8,1.6,5.8,2.1c3.9,1,7.6,2.1,10.8,4.8c1.8,1.6,4,2.5,6.5,2.8
		c2.1,0.3,3,1.3,2.8,2.6c-0.2,1.4-1.8,2.1-3.9,1.5c-1.2-0.3-2.4-0.9-3.6-1.4c-4.5-1.7-8.9-3.4-13.4-5.1c-0.1-0.1-0.3-0.1-0.5-0.1
		c-7.4-1.2-9.9-6.6-11-13.1C122.1,710.9,122,707.8,121.8,705.3z"/>
	<path d="M540.1,207c2.9,1.2,6,2.3,8.8,3.7c7.8,4,15.6,8,23.4,12.2c10.8,5.8,21.5,11.8,32.3,17.8c0.4,0.2,0.9,0.3,1.3,0.5
		c0.4-0.5,0.8-0.9,1.5-1.6c1.3,1.7,2.5,3.3,3.8,4.9c0.8,1,1.8,1.8,2.8,2.6c1.4,1,2.9,1.9,4,3.5c-1.3-0.5-2.6-0.9-3.7-1.6
		c-4.4-2.5-8.8-5.2-13.2-7.8c-12.2-6.9-24.4-13.9-37-20.1c-5.5-2.6-10.8-5.6-16.2-8.3C544.8,211.3,542.1,209.6,540.1,207L540.1,207z
		"/>
	<path d="M648.5,8.3c2.7,1,5.4,1.9,8.1,2.9c0.7,0.3,1.4,0.7,2.2,1c8,2.6,16.1,5.2,24.1,7.9c5.1,1.8,10.1,3.8,15.2,5.8
		c0.9,0.3,1.8,0.8,2.5,1.4c3.6,2.5,7.7,3.8,12,4.6c4,0.7,7.7,1.8,11.3,3.8c1.4,0.8,3,1.2,4.5,1.6c5,1.3,9.4,3.7,13.7,6.4
		c-3-0.1-5.8-1.1-8.5-2.3c-2.5-1-5.1-1.9-7.6-2.8c-0.6-0.2-1.3-0.3-1.8-0.6c-8.7-4.4-18.4-6.3-27.4-9.8c-6.2-2.4-12.4-5-18.6-7.5
		c-1-0.4-2.1-0.7-3.2-1c-7.8-2.7-15.7-5.4-23.5-8.2c-1.5-0.5-3.2-0.9-2.8-3.2L648.5,8.3z"/>
	<path d="M496.8,256c26,14.9,52.1,29.7,77,46.6c-0.8-0.3-1.7-0.4-2.4-0.8c-2.3-1.2-4.5-2.3-6.7-3.6c-10.3-6.1-20.5-12.4-30.8-18.5
		c-6.7-4-13.6-7.7-20.4-11.6c-5.1-3-10-6.2-15.1-9.3C497.4,258,496.8,257.1,496.8,256L496.8,256z"/>
	<path d="M935.3,551.5c2.1,0.3,2.7,1.7,3.4,2.8c3.2,4.8,6.3,9.6,9.5,14.4c3.4,5.2,6.9,10.4,10.4,15.6c1.1,1.7,2.4,3.1,4.5,3.3
		c1.5,0.1,2.3,1,3,2.2c2.4,4.3,4.7,8.7,7,13.1c0.2,0.4,0.3,0.9,0.3,1.4c0.1,0.8-1,1.6-1.7,1.2c-1.1-0.8-2.3-1.7-3.1-2.8
		c-3.1-4.4-6.1-9-9.1-13.5c-3.2-4.8-6.5-9.5-9.7-14.3c-4-6-8-11.9-12-17.9C936.7,555.4,935.6,553.8,935.3,551.5z"/>
	<path d="M993.7,1045.7c-1.5-2.1-1.6-3.8-1.5-5.5c0.4-6,0.6-12.1,1.6-18.1c0.9-5.4,1.4-10.7,1.4-16.2c0-4,0.3-7.9,1.5-11.8
		c0.6-2.1,0.5-4.4,0.5-6.6c-0.1-6.9-0.4-13.7,1.3-21.2c0.5,2,0.8,3.3,1.1,4.7c0.2,1.4,0.5,2.9,0.4,4.3c-0.6,9.5-1.3,19.1-2,28.6
		c0,0.6,0,1.3-0.3,1.9c-2.3,6.3-1.7,12.9-2,19.4c-0.3,5.4-0.6,10.8-0.9,16.2C994.5,1042.7,994.1,1043.8,993.7,1045.7z"/>
	<path d="M829.8,75.7c1.4,0.2,2.8,0.2,4.2,0.6c6.7,2,13.4,4,19.6,7.6c4,2.4,8.4,3.9,13.1,4.3c1.7,0.1,3.5,0.6,5.1,1.2
		c5.8,2.2,11.6,4.4,17.4,6.6c2.1,0.8,4.1,1.5,6.8,2.4c-2.2,1.3-3.9,1-5.5,0.5c-5-1.6-10.1-3.1-15-4.9c-9.5-3.4-18.9-6.9-28.3-10.4
		c-1.3-0.5-2.9-0.8-4-1.6c-2.8-2.2-5.8-3.6-9.5-3.2C832,78.9,830.8,77.3,829.8,75.7z"/>
	<path d="M687.8,166.5c-0.3-1.7-0.7-3.4-0.7-5.1c-0.1-11.3,0-22.7-0.1-34c0-4.3-0.5-8.6-0.7-12.9c-0.4-11.5-0.5-23-1-34.5
		c-0.4-8.9-0.7-17.9-2.3-26.7c-0.6-3.8-0.6-7.6-0.7-11.5c0-1.5,0.4-3,1.3-4.4c0.3,2.8,0.7,5.7,0.8,8.5c0.4,11.2,0.7,22.3,1.2,33.5
		c0.2,4.5,0.8,8.9,0.9,13.4c0.4,21.2,0.7,42.5,1.1,63.7c0.1,3.3,0.4,6.6,0.6,9.9C688,166.4,687.9,166.5,687.8,166.5z"/>
	<path d="M901,102.1c6.4-0.7,11.3,2.2,16.5,4c2.2,0.8,4.5,1.6,6.7,2.4c1.1,0.4,2.1,0.7,3.2,1c5.4,1.9,10.8,3.9,16.1,5.9
		c0.5,0.2,1.1,0.5,2,1c-7.9,0.4-14.7-1.4-21.3-4.2c-6.2-2.6-12.5-4.6-18.8-7C903.9,104.6,902,104.4,901,102.1z"/>
	<path d="M918.8,1071.7c-2.4-6.7-2.4-13-2.1-19.5c0.2-4.4,0-8.9,0-13.4c0-2.4-0.1-4.8-0.1-7.2c0-1.6,0.3-3.1,2-4.5
		c0.4,1.1,0.7,2,0.9,2.8C920.2,1034.4,919.7,1066.7,918.8,1071.7z"/>
	<path d="M991.2,1047.7c3.4,5.8,2.5,11.3,2.3,16.7c-0.2,5.7-0.5,11.5-0.8,17.2c-0.2,2.5-0.5,5.1-0.9,7.6c-0.1,0.6-0.5,1.2-0.9,1.7
		c-0.5,0.6-1.8,0.4-2-0.3c-0.2-0.9-0.5-1.9-0.3-2.8c1.6-6.8,1.2-13.7,1.6-20.5C990.7,1061,990.9,1054.8,991.2,1047.7z"/>
	<path d="M919,1082.8c0.3,2.3,0.7,4.1,0.7,6c0.1,9.1,0.1,18.2,0.2,27.2c0,0.6,0.1,1.4-0.2,1.9c-0.3,0.6-1.1,1.3-1.6,1.3
		c-0.6,0-1.1-0.9-1.5-1.5c-0.2-0.3-0.1-0.9-0.1-1.4c0-9.6,0-19.1,0-28.7C916.5,1086,916.3,1084.1,919,1082.8z"/>
	<path d="M1026.7,442.3c-1.6,7.2-3.4,14.3-4.8,21.5c-1.2,6.4-2,12.9-3,19.4c-0.1,0.8-0.3,1.7-0.1,2.4c1.8,6.5-2,12.4-1.6,19.3
		c-1.1-0.8-1.7-1.3-2.5-1.9c0.7-2.8,1.5-5.7,2.2-8.6c0.4-1.6,0.3-3.2-1.2-4c0.8-4.5,1.6-8.9,2.4-13.3c1.8-10.1,3.5-20.1,5.4-30.2
		C1023.8,444.9,1023.8,442.5,1026.7,442.3L1026.7,442.3z"/>
	<path d="M1003,909.8c1.1,12.7-0.2,25.2-1.3,37.7c-0.2,1.8,0,3.8-1.6,6c-1.1-3.5-1.1-6.5-0.9-9.5c0.3-5.9,0.6-11.8,0.9-17.6
		c0.2-3.7,0.5-7.3,0.8-11c0.1-0.8,0.2-1.6,0.5-2.3C1001.8,911.9,1002.4,910.9,1003,909.8z"/>
	<path d="M81.4,830.8c-6.3-0.6-11.2-4.5-16.3-7.5c-2.7-1.6-4.6-4.4-5.4-7.6c-1.1-4.5,0.4-8.8,4.8-11.4c2.3-1.3,4.2-3.2,6.5-5
		c0.4,0.3,0.8,0.7,1.2,1.1c-0.1,0.4-0.1,0.8-0.3,1c-2.4,2.3-4.9,4.6-7.1,7c-3.4,3.7-3,7,0.9,10.2c0.7,0.6,1.6,1.1,2.3,1.7
		c0.5,0.4,1.3,1,1.2,1.3c-0.9,3.3,2.1,3.5,3.7,4.6C75.7,827.9,78.5,829.4,81.4,830.8C81.3,830.9,81.4,830.8,81.4,830.8z"/>
	<path d="M1040.3,597.6c-1.9,2.1-1.2,4.7-1.9,6.9c0-2-0.1-4.1,0-6.1c0.1-2.2-0.6-4-2.1-5.6c-3.2-3.3-6.4-6.7-9.5-10.1
		c-0.6-0.7-1.1-1.4-2.3-3c6.7,1.7,8.1,8.1,13.1,10.8c1.2-3.7,1.7-7.2,1.8-10.8c0.2-5.4,0.5-10.8,1.2-16.2c0,1.5,0.1,3.1,0,4.6
		c-0.4,6.7-0.7,13.4-1.2,20.1c-0.3,3.9,0.7,7,4,9.6c3.3,2.7,5.6,6.4,8.7,10.1c-2.6-0.3-2.6-0.4-6.5-4.7
		C1043.9,601.4,1042.7,599,1040.3,597.6z"/>
	<path d="M918.6,1012.7c-1.6-4.7-1.7-9.5-1.7-14.3c0-5.6-0.2-11.2-0.2-16.7c0-2.2,0-4.5,0-6.7c0-1.6,0.5-3.1,2-4.4
		c1.1,2,1,3.9,1.1,5.8C920.4,997.5,920.1,1007.8,918.6,1012.7z"/>
	<path d="M756.6,426.1c-2.3-0.3-3.7-1.7-5-3c-7.9-7.4-16.1-14.5-22.7-23.2c-1.3-1.7-3.2-3.1-4.7-4.7c-1.4-1.4-3.1-2.8-2.7-5.5
		c4,2.9,7.3,6.2,10.3,10c4.5,5.7,9.1,11.4,15,15.9c3.5,2.7,6.5,6.1,9.7,9.2C756.7,425,756.6,425.5,756.6,426.1z"/>
	<path d="M689.7,274.3c3.3-21.9,4.8-43.7,4.8-65.7c0.2,2.7,0.5,5.4,0.6,8.1c0.1,2.7,0.1,5.4,0,8.2c-0.2,4.9-0.5,9.9-0.7,14.8
		c-0.3,5.3-0.7,10.5-1.1,15.8c-0.5,6.7-1.1,13.4-1.7,20.1c-0.1,1-0.5,2-0.8,3.3c-2.6-2.5-3.4-6.9-3-15c1.5,0.7,0.7,2,0.9,3.1
		c0.2,1.3,0.1,2.6,0.3,3.8C689,271.9,689.4,273.1,689.7,274.3z"/>
	<path d="M755.8,56.8c0.3,1.2,0.6,2.4,0.7,3.6c0.4,5.1,0.7,10.2,1.1,15.3c0.1,1.6,0.5,3.2,0.6,4.8c0.1,1.2,0.2,2.6-0.2,3.7
		c-0.3,1.1-0.2,2.1-0.1,3.2c0.7,5.5,1.2,11,1,16.7c-0.5-1.6-1.1-3.2-1.4-4.9C754.6,79.1,753.7,63.4,755.8,56.8z M756.8,73.8
		c-0.2,0-0.3,0-0.5,0c0,0.8,0,1.7,0,2.5c0.2,0,0.3,0,0.5,0C756.8,75.4,756.8,74.6,756.8,73.8z"/>
	<path d="M52.6,543.9c-0.7-0.8-1.5-1.3-1.7-2c-0.5-2.1-0.2-4.1,0.7-6c2.9-5.9,7.2-10.8,12.3-15c0.4-0.3,0.8-0.5,1.3-0.6
		c0.9-0.3,2.2,0.6,1.9,1.5c-0.3,1.2-0.9,2.3-1.6,3.4c-0.6,0.9-1.6,1.6-2.3,2.4C56.7,534.4,56.7,534.4,52.6,543.9z"/>
	<path d="M873,337.4c1.8,2.3,1.8,4.7,1.3,7c-0.4,1.9-0.7,3.8-0.7,5.6c0,17.6,0.2,35.1,0.2,52.7c0,10.2-0.1,20.4-0.1,30.6
		c0,3.3,0,6.7-0.2,10C873.3,408.1,873.2,372.7,873,337.4z"/>
	<path d="M1112.6,704.1c-3.8-4-5-9.4-8-13.9c-0.7,0.5-1.2,0.9-1.8,1.4c0.5-5.2-1.6-9.3-4.3-13.4c-1.7-2.5-3-5.3-4.6-7.9
		c-1.3-2-2.6-4-4.1-5.8c-1.4-1.5-1.4-3-0.7-4.8c0.5,1.1,0.9,2.2,1.6,3.2c0.7,1,2,1.7,2.6,2.8c2,3.3,3.7,6.7,5.7,9.9
		c1,1.6,2.2,3.1,3.3,4.6c0.3,0.4,0.7,0.7,0.9,1.1c3,6.7,5.9,13.4,8.8,20.1C1112.2,702.3,1112.4,703.2,1112.6,704.1z"/>
	<path d="M1080.4,647.5c-0.8-0.5-1.8-0.7-2.2-1.4c-3.2-5.2-6.6-10.1-10.7-14.6c-1.3-1.4-2.1-3.2-3.3-4.7c-0.6-0.8-1.4-1.6-2.3-2.6
		c-1.5,1.6-1.1,3.2-1.1,4.7c0,1.4,0,2.9-0.2,4.3c0-2.4,0-4.9,0-7.3c0-3.3-0.6-6.4-3.6-8.5c-0.4-0.3-0.6-1-1.2-2
		c1.7,0.4,2.8,0.7,4.5,1c0.2-2.5,0.3-4.6,0.4-6.5c0.1,3.6-0.5,7.5,1.3,11.1c0.5,1,1,2,1.7,2.9c4.7,5.8,9.4,11.7,14.2,17.4
		C1079.5,643.3,1079.8,645.4,1080.4,647.5L1080.4,647.5z"/>
	<path d="M208.8,1034c3.9,2.3,8.1,3.6,12.5,4.6c1.6,0.3,3.1,1.5,4.5,2.5c0.4,0.2,0.6,1.2,0.4,1.7c-0.2,0.4-0.9,1-1.4,1
		c-4.6-0.3-9.3-0.5-13.5-2.7c-0.8-0.4-1.7-1-2.4-1.6C206.9,1037.7,206.9,1037.2,208.8,1034z"/>
	<path d="M645.7,269c0.4,1.5,0.7,2.7,0.9,3.9c-0.3,0-0.5,0-0.8-0.1c-0.1,0-0.2-0.2-0.3-0.4c-0.9-4.9-4.6-7.3-8.6-9.4
		c-3.3-1.7-6.4-3.5-9.6-5.4c-1.3-0.8-2.9-1.3-3.5-3.4c4.4,0.6,7.7,2.8,10.8,5c3.2,2.3,7.2,3,10.3,5.6c3,2.5,6.9,3.9,10.4,7.3
		C651.5,271.8,649.3,268.8,645.7,269z"/>
	<path d="M198.2,829c2.4,0.4,4,1.9,5.4,3.6c2.9,3.4,4.8,7.5,6.4,11.6c0.9,2.4,0.2,3.5-2.7,5.2c-0.5-0.8-1-1.6-1.4-2.4
		c-1.9-4-3.8-8-5.7-12c-0.3-0.6-0.8-1.4-0.6-1.7C201.3,831.2,199,830.3,198.2,829L198.2,829z"/>
	<path d="M786,58.1c8.4,3.3,16.8,6.6,25.3,9.9c2.8,1.1,5.7,2,8.6,3c0.8,0.3,1.7,0.6,2.4,1.6c-2.1-0.4-4.3-0.7-6.4-1.3
		c-4.1-1.2-8.2-2.5-12.2-4c-4.9-1.7-9.8-3.7-14.8-5.4C786.8,61.2,786,60,786,58.1L786,58.1z"/>
	<path d="M701.5,281.6c-0.3-1.4-0.9-2.7-1-4.1c-0.4-7.5-0.5-15-0.9-22.4c-0.7-13.4-1.5-26.7-2.2-40.1c-0.1-1.2,0-2.5,0.5-3.7
		c0.4,6,0.8,11.9,1.1,17.9c0.6,10.8,1.2,21.6,1.7,32.4c0.2,4.1,0.1,8.3,0.2,12.4C701.1,276.6,701.3,279.1,701.5,281.6L701.5,281.6z"
		/>
	<path d="M984.6,456.6c0-0.8-0.1-1.5-0.1-2.3c-0.1-15.8-0.2-31.6-0.2-47.4c0-7.8,0.2-15.6,0.4-23.4c0.1-2.5,0.6-4.9,1.3-7.3
		C984.3,402.9,985.5,429.7,984.6,456.6z"/>
	<path d="M600.9,160.9c0-4.6-0.1-9.5,0-14.4c0.2-5.9,0.6-11.8,0.9-17.7c0.2-4,0.6-7.9,0.7-11.9c0.1-5.7,0.1-11.5,0.2-17.2
		c0-1.7,0-3.5,0.1-5.2C603.9,100.5,602.5,146.6,600.9,160.9z"/>
	<path d="M786.1,58c-3.6,0.8-7-0.3-10.4-1.1c-3.5-0.9-6.9-2.5-10.3-3.7c-1.9-0.7-3.9-1.3-5.9-2c-2.2-0.8-4.6-1.2-6.9-3
		c2.7-0.9,4.8-0.4,6.9,0.3c5.1,1.8,10.2,3.7,15.3,5.5C778.5,55.4,782.2,56.7,786.1,58L786.1,58z"/>
	<path d="M325,617.7c2.8,3.4,6.5,5,10.9,5c4.3,0,8.5,0,12.9,0c0.7,2.3,0.3,3.6-1.7,4c-2.9,0.6-5.9,1-8.8-0.5
		c-1.8-0.9-3.9-1.4-5.8-1.9C328.7,623.4,326,621.5,325,617.7L325,617.7z"/>
	<path d="M579.8,305.6c1,0.3,2.1,0.5,3,1c8.8,4.7,17.3,9.9,25.5,16c-0.6-0.1-1.3,0-1.9-0.2c-2.1-1.1-4.3-2.2-6.3-3.4
		c-5.5-3.2-11-6.3-16.5-9.6c-1.5-0.9-2.8-1.9-4.3-2.8C579.5,306.3,579.7,306,579.8,305.6z"/>
	<path d="M652.3,54c-0.3,5.1-0.6,10.1-0.9,15.2c-0.1,2.1-0.3,4.1-0.2,6.2c0.1,13.1,0.2,26.1,0.3,39.2c0,0.5-0.1,0.9-0.4,1.4
		c-0.7-6.8-0.4-13.5-0.3-20.3c0.1-6.9-0.1-13.7,0-20.6c0.1-7,0.4-14,0.7-21C651.7,54.1,652,54.1,652.3,54z"/>
	<path d="M840.5,379.6c-0.6-3.1-1.2-6.2-1.9-9.3c-0.3-1.5-0.6-3.1-1.2-4.5c-1.4-3.1-2-6.3-1.9-9.8c0.2-4.4-0.3-8.9,1.2-14.3
		c0.3,1.4,0.4,1.9,0.4,2.4c0.3,8.6,1.1,17.1,2.3,25.7C840.1,373,840.2,376.3,840.5,379.6L840.5,379.6z"/>
	<path d="M558.2,109.8c0-4.3,0-8.6,0-12.9c0-10.7-1.2-21.4,0.3-32.1c0.4-2.8,1-5.6,1.7-8.3c-2.7,15.8-0.9,31.7-1.2,47.5
		c0,1.9,0,3.8,0,5.7C558.8,109.7,558.5,109.7,558.2,109.8z"/>
	<path d="M551.7,85c0.5,6.2,1,12.4,1.4,18.6c0.3,5.1,0.7,10.2,0.8,15.3c0.3,9.7,0.4,19.3-0.2,29c0-3.2,0.1-6.3,0-9.5
		c-0.2-7-0.7-14-0.8-21c0-9.2-0.9-18.4-1.4-27.7C551.4,88.1,551.7,86.5,551.7,85L551.7,85z"/>
	<path d="M695.6,182.8c2.2,6.5,1.4,13.3,1.2,20c-0.2-1.9-0.3-3.7-0.5-5.6c-0.2,0-0.3,0-0.5-0.1c-0.2,1.5-0.5,3.1-0.7,4.6
		C693.5,198.9,693.6,188.8,695.6,182.8z"/>
	<path d="M1015.6,511.7c-0.2,15.3-1.9,30.4-3.9,45.7c-0.1-0.6-0.2-1.2-0.2-1.9c0-0.6,0-1.3,0.1-1.9c0.6-5.7,1.2-11.4,1.8-17.1
		C1014.1,528.2,1014.9,519.9,1015.6,511.7z"/>
	<path d="M724.5,154.5c0-18.1,0-36,0-54.8c0.2,1.1,0.3,1.2,0.3,1.3c0.1,17.7,0.2,35.5,0.3,53.2C725.1,154.3,724.9,154.3,724.5,154.5
		z"/>
	<path d="M1092.4,543.8c0.4-13,0.9-27.1,1.4-42.2C1095.1,508,1094.1,531.2,1092.4,543.8z"/>
	<path d="M779,447.9c-2-1.6-4-3.1-5.9-4.8c-3.5-3.2-7-6.5-10.5-9.7c-0.5-0.5-1-1.1-2.2-2.5c1.6,0.3,2.3,0.3,2.9,0.6
		c1,0.6,1.9,1.2,2.7,2c3.6,3.5,7.3,7.1,10.8,10.8C777.8,445.3,778.3,446.8,779,447.9L779,447.9z"/>
	<path d="M859.2,105.3c1.9,16.3,0.7,33.2,1,50.1C859.8,138.6,859.5,121.7,859.2,105.3z"/>
	<path d="M522.4,96.8c1.1,4.2,1.7,29.7,1.1,39.2c-0.3-0.9-0.5-1.2-0.5-1.5c-0.3-10.5,0.2-21.1-0.8-31.6
		C522,101.3,522.3,99.5,522.4,96.8z"/>
	<path d="M524.1,181.3c-0.3-12.6-0.6-25.1-0.9-37.7c0.1,0,0.3-0.1,0.4-0.1c0.2,1.4,0.6,2.7,0.6,4.1c0.2,10.8,0.3,21.6,0.4,32.5
		c0,0.5-0.1,0.9-0.2,1.4C524.4,181.5,524.2,181.4,524.1,181.3z"/>
	<path d="M624.9,105.5c0-14.8,0-29.6,0-44.5c0.1,0,0.3,0,0.4,0c0.1,1.6,0.2,3.2,0.3,4.8c0,8,0,16,0,23.9c-0.1,5.3-0.3,10.5-0.4,15.8
		C625,105.5,624.9,105.5,624.9,105.5z"/>
	<path d="M1091.5,553.2c-0.3,14-2.6,27.9-1.8,41.9C1087.8,581,1091,567.2,1091.5,553.2z"/>
	<path d="M697.7,35.7c0.4-1.9,0.6-3.4,2.4-4.6c0.4,1,1,1.8,1,2.5c0.4,7.8,0.6,15.6,0.9,23.3c0.1,2.8,0,5.6-0.2,8.4
		c-0.7-10.3,0.4-20.6-1.7-31.2C699.3,34.6,698.7,35.1,697.7,35.7z"/>
	<path d="M1107,536.9c-0.1,3-0.1,6-0.4,9c-0.4,3.5-0.9,6.9,0.3,10.4c0.1,0.4-0.1,0.9-0.3,2.2c-0.8-1.3-1.2-2-1.5-2.7
		c-0.4-0.7-0.7-1.4-1.1-2.2c3-6,1.6-11.8-0.5-17.8c0.7,0.8,1.5,1.6,2.4,2.5C1106.3,537.9,1106.7,537.5,1107,536.9L1107,536.9z"/>
	<path d="M836.4,115.2c0.2,0.8,0.7,1.5,0.7,2.3c0.1,14.6,0.2,29.2,0.3,43.9c0,0,0-0.1,0-0.1c-0.2-3.6-0.5-7.3-0.5-10.9
		c0-9.2,0.1-18.4,0.1-27.6C836.9,120.2,836.6,117.6,836.4,115.2L836.4,115.2z"/>
	<path d="M1009.1,560.9c4,4.3,8,8.6,12.6,13.6c-4.8-0.7-6.5-4-8.8-6.4c-1.8-1.9-4.3-3.6-4.8-6.5
		C1008.4,561.3,1008.7,561.1,1009.1,560.9z"/>
	<path d="M751,156.7c-1-10.7-2-21.4-2.9-32.2c0.1,0,0.3-0.1,0.4-0.1c0.1,0,0.3,0.2,0.3,0.3c0.4,3.3,0.8,6.6,1,9.9
		c0.2,2.1,0,4.1,0.2,6.2c0.6,5.2,1.3,10.4,2,15.6C751.7,156.6,751.3,156.7,751,156.7z"/>
	<ellipse cx="1028.8" cy="365.9" rx="0.3" ry="26.9"/>
	<path d="M775.2,80.4c-0.1,3.8-0.1,7.7-0.3,11.5c-0.3,6.5-0.8,13-1.2,20c-0.7-9.8,0-19.2,1-28.6C774.8,82.4,775.1,81.4,775.2,80.4
		L775.2,80.4z"/>
	<path d="M1121.4,725.6c0.8,1.3,1.7,2.6,2.4,4c1.3,2.5,2,5.4,4,7.5c0.9,1,0.8,2.3-0.5,3.7c-0.5-0.5-1.3-0.9-1.5-1.5
		c-1.8-4.4-3.5-8.8-5.2-13.2C1120.8,725.9,1121.1,725.7,1121.4,725.6z"/>
	<ellipse cx="702.6" cy="92.4" rx="0.2" ry="21.4"/>
	<path d="M958.9,360.1c0-8.9,0-17.8,0-26.7c1.8,2.8,0.2,5.8,0.4,8.6c0.2,3,0,6.1,0,9.1c0,3,0,6,0,9
		C959.2,360.1,959,360.1,958.9,360.1z"/>
	<path d="M703.8,118.4c0,9.4,0,18.8,0,28.2c-0.1,0-0.2,0-0.2,0c0-9.4,0-18.8,0-28.2C703.6,118.4,703.7,118.4,703.8,118.4z"/>
	<ellipse cx="810.4" cy="100" rx="0.3" ry="20.2"/>
	<path d="M880.7,115c-1.3,6.5-2.7,13-4,19.5C876.9,127.8,877.8,121.3,880.7,115z"/>
	<path d="M1039.4,421.9c3.4-3.1,6.9-6.2,10.5-9.4c0.8,1.6,0,3-0.5,4.4c0,0.1-0.5,0.3-0.6,0.2c-1.8-1.4-2.5,0.5-3.5,1.2
		c-1.9,1.3-3.7,2.7-5.6,4C1039.6,422.2,1039.5,422.1,1039.4,421.9z"/>
	<path d="M797.8,726c1.2,4.7,1.5,9.5,0.4,14.3C797.1,735.6,797.6,730.8,797.8,726z"/>
	<path d="M1055.6,474.1c-1.1,7.1-2.3,14.3-3.4,21.4c-0.2-6.6,0.8-12.9,2.4-19.2C1054.8,475.5,1055.3,474.9,1055.6,474.1
		L1055.6,474.1z"/>
	<path d="M1119.7,615.6c-0.6,6.1-1.3,12.2-1.9,18.3C1117.4,627.7,1118,621.5,1119.7,615.6z"/>
	<path d="M483.7,145.8c0-7.2,0-14.4,0-21.6c0.1,0,0.2,0,0.3,0c0,7.2,0,14.4,0,21.6C483.9,145.8,483.8,145.8,483.7,145.8z"/>
	<path d="M615.4,211.5c-0.4-3.8-0.1-7.5-2.7-10.9c-1.1,0.8-2,1.5-2.9,2.2c-0.1-0.2-0.3-0.6-0.3-0.7c0.3-0.7,0.7-1.5,1.2-2
		c1.1-1.3,2.7-1.2,3.4,0.4c0.6,1.4,1.1,3,1.2,4.5C615.6,207.1,615.4,209.3,615.4,211.5z"/>
	<path d="M1036.6,432.2c0.1,4.2,0.7,8.3-0.3,12.9C1035.1,441.6,1035.2,436.3,1036.6,432.2z"/>
	<path d="M896.7,150.4c2.2-5.2,4.4-10.5,6.5-15.6c0.6,0,0.8-0.1,0.9,0c0.1,0.1,0.2,0.3,0.1,0.4c-2.2,5.1-4.4,10.3-6.6,15.4
		C897.3,150.6,897,150.5,896.7,150.4z"/>
	<path d="M1025.3,432.5c0.5-5.5,1.1-10.9,1.6-16.4c1.1,5.6-0.7,11-0.7,16.5C1025.9,432.6,1025.6,432.5,1025.3,432.5z"/>
	<path d="M854.8,99.9c-0.4,6.1-0.9,12.2-1.3,18.3C853,112.1,852.8,105.9,854.8,99.9z"/>
	<path d="M448.1,140.5c-1.4-4.1-1-8.2-0.4-12.4C448.8,132.3,448.8,136.4,448.1,140.5L448.1,140.5z"/>
	<path d="M797.9,707c-0.1-0.5-0.3-1.1-0.3-1.6c0-2.8,0-5.7,0.3-8.5C799.3,700.2,799.1,703.6,797.9,707z"/>
	<path d="M576.4,63.9c-0.4,5.9-0.9,11.8-1.3,17.6c-0.9-2.8-0.4-5.7-0.3-8.6c0.1-3,0.6-6,0.9-9C576,63.9,576.2,63.9,576.4,63.9z"/>
	<path d="M575.2,91.4c-0.2,4.4-0.4,8.8-0.6,14C573.8,101.4,573.8,95,575.2,91.4z"/>
	<path d="M1045.9,462.5c-0.2,6.8-0.4,13.6-0.5,20.4c0,0-0.1,0-0.1,0c0-6,0-12,0-18C1045.3,464.1,1045.7,463.3,1045.9,462.5
		L1045.9,462.5z"/>
	<path d="M638.3,107.4c0-5.9,0-11.9,0-17.8c0.1,0,0.2,0,0.3,0c0,5.9,0,11.9,0,17.8C638.5,107.4,638.4,107.4,638.3,107.4z"/>
	<path d="M1119.6,608.6c0.4-5.1,0.9-10.1,1.3-15.2c0.2,0,0.4,0,0.7,0.1c-0.4,5.1-0.8,10.2-1.2,15.2
		C1120.2,608.6,1119.9,608.6,1119.6,608.6z"/>
	<path d="M604.2,65.3c0.4-5.4,0.8-10.7,1.2-16.1c0.2,0,0.5,0,0.7,0.1c-0.4,5.4-0.8,10.7-1.2,16.1C604.7,65.3,604.5,65.3,604.2,65.3z
		"/>
	<path d="M656.2,30.6c-1.1,5.6-2.2,11.1-3.2,16.7C653.3,41.6,653.4,35.8,656.2,30.6C656.2,30.6,656.2,30.6,656.2,30.6z"/>
	<path d="M1121.6,586.8c0.2-4.9,0.4-9.7,0.6-14.6c1.2,2.4,0.5,4.7,0.5,7.1c0,2.5-0.3,5-0.5,7.5
		C1122,586.8,1121.8,586.8,1121.6,586.8z"/>
	<path d="M727.1,309.9c-2.5-5.1-3.1-10.6-3.8-16.8c1.8,3.1,1.5,5.9,2.1,8.5C726,304.4,726.5,307.2,727.1,309.9L727.1,309.9z"/>
	<path d="M778.7,88.6c0.4,5,0.8,10,1.2,15c-0.2,0-0.4,0-0.6,0c-0.4-5-0.8-10-1.2-15C778.3,88.6,778.5,88.6,778.7,88.6z"/>
	<path d="M604.1,71.5c0,5.3,0,10.5,0,15.7c-0.3,0.1-0.5,0.3-0.5,0.2c-0.1-0.1-0.2-0.3-0.2-0.4c0-5.1,0-10.2,0-15.3
		C603.6,71.6,603.8,71.6,604.1,71.5z"/>
	<path d="M723.9,74.5c0-4,0-7.8,0-11.7c0.2,0,0.4,0,0.6,0c0.1,0.8,0.3,1.6,0.2,2.5c-0.2,3-0.4,6-0.6,8.9
		C724.1,74.3,724,74.5,723.9,74.5C723.9,74.6,723.9,74.5,723.9,74.5z"/>
	<path d="M921.5,409c-1.8-3.4-1-7.3-1.9-10.8c0.4-0.1,0.5-0.2,0.6-0.2c0.1,0,0.3,0.2,0.3,0.3C920.8,401.8,921.2,405.4,921.5,409z"/>
	<path d="M1035.6,450.2c1.5,2,1.4,3.9,1.1,6.5c-0.9-0.6-1.7-0.9-1.8-1.3C1034.5,453.8,1034.3,452.1,1035.6,450.2z"/>
	<path d="M602.7,202.6c-0.5,0.1-1,0.2-1.1,0.1c-0.9-1.3-1-4.7,0-8.4C601.9,196.9,602.2,199.6,602.7,202.6z"/>
	<path d="M554.3,155.8c0,4.9,0,9.9,0,14.8c-0.1,0-0.2,0-0.3,0c0-4.9,0-9.9,0-14.8C554.1,155.8,554.2,155.8,554.3,155.8z"/>
	<path d="M1108.8,588.7c0,5.1,0,10.1,0,15.2c-0.1,0-0.2,0-0.3,0c0-5,0-10.1,0-15.1C1108.5,588.8,1108.6,588.7,1108.8,588.7z"/>
	<path d="M1124.8,552.5c-0.4,4-0.8,8-1.1,12c-0.2,0-0.4,0-0.6,0c0-1.2-0.1-2.5,0-3.7c0.1-1.4,0.3-2.8,0.5-4.2
		c0.2-1.4,0.4-2.7,0.5-4.1C1124.4,552.5,1124.6,552.5,1124.8,552.5z"/>
	<path d="M1107.4,617.1c-0.4,4.4-0.7,8.8-3.1,13.4c-0.3-1.1-0.9-1.9-0.7-2.2c2.1-2.8,2.6-6.1,3.2-9.3
		C1106.8,618.3,1107.2,617.7,1107.4,617.1L1107.4,617.1z"/>
	<path d="M1046,462.6c0-5.6,0-11.2,0-16.7c0.2,0,0.3,0,0.5,0c0,2.7,0.1,5.4,0,8.1C1046.4,456.8,1046.1,459.6,1046,462.6L1046,462.6z
		"/>
	<path d="M960.5,454.7c0-4.6,0-9.1,0-13.7c0.1,0,0.2,0,0.3,0c0,4.6,0,9.2,0,13.9C960.7,454.8,960.6,454.8,960.5,454.7z"/>
	<path d="M960,474.3c0.2-3.4,0.3-6.9,0.5-10.3C961.1,467.4,961,470.9,960,474.3z"/>
	<path d="M597.7,178.5c0.8-3.6,1.6-7.4,2.3-10.7C600.8,172,599.9,175.9,597.7,178.5z"/>
	<path d="M959.8,387.6c0-4.6,0-9.1,0-13.7c0.1,0,0.2,0,0.2,0c0.2,4.6,0.3,9.2,0.5,13.7C960.2,387.6,960,387.6,959.8,387.6z"/>
	<path d="M1044.3,505.8c0-4.7,0-9.4,0-14c0.1,0,0.1,0,0.2,0c0,4.7,0,9.4,0,14C1044.4,505.8,1044.4,505.8,1044.3,505.8z"/>
	<path d="M499.3,112.3c0,3.5,0,7.1,0,10.7c-0.1,0-0.1,0-0.2,0c-0.3-3.5-0.5-7.1-0.8-10.6c0-0.1,0.2-0.3,0.3-0.3
		C498.7,112.1,498.8,112.2,499.3,112.3z"/>
	<path d="M722.6,257.2c-0.2-3.6-0.5-7.1-0.7-10.7c1.3,1.6,0.9,3.5,1,5.3c0.1,1.8,0,3.6,0,5.5C722.8,257.2,722.7,257.2,722.6,257.2z"
		/>
	<path d="M721.7,209.2c-0.2-3.6-0.4-7.3-0.6-10.9c0.2,0,0.4,0,0.6,0C721.7,201.9,721.7,205.6,721.7,209.2
		C721.7,209.2,721.7,209.2,721.7,209.2z"/>
	<path d="M781.2,145c0-4.2,0-8.5,0-12.7c0.1,0,0.2,0,0.3,0c0,4.2,0,8.5,0,12.7C781.4,144.9,781.3,144.9,781.2,145z"/>
	<path d="M960.6,433c0-4,0-8.1,0-12.1c0.1,0,0.2,0,0.3,0c0,4,0,8.1,0,12.1C960.8,433,960.7,433,960.6,433z"/>
	<path d="M686.6,241.8c0.4,3.9,0.8,7.7,1.1,11.6c-0.2,0-0.4,0-0.7,0.1c-0.4-3.9-0.7-7.7-1.1-11.6
		C686.2,241.8,686.4,241.8,686.6,241.8z"/>
	<path d="M927.4,147.2c-1.7-3.4-2.5-7.1-2-11c0.2,1,0.5,2,0.7,3.1c0.2,1.4,0.4,2.8,0.6,4.2C926.9,144.8,927.2,146,927.4,147.2z"/>
	<path d="M1068.8,452.3c-0.3,3.5-0.7,7.1-1,10.6c-0.2,0-0.4,0-0.5-0.1c0.3-3.6,0.6-7.2,0.8-10.8
		C1068.3,452.2,1068.5,452.3,1068.8,452.3z"/>
	<path d="M834.8,86.5c0.3,3.2,0.5,6.5,0.8,9.7c-0.2,0-0.4,0-0.5,0c-0.4-3.2-0.8-6.4-1.2-9.7C834.2,86.6,834.5,86.6,834.8,86.5z"/>
	<path d="M1028.4,395.6c0,3.9,0,7.7,0,11.6C1027.5,403.3,1027.7,399.5,1028.4,395.6z"/>
	<path d="M810.3,78.6c0.4-1.9,0.7-3.3,1.1-5.1c2.4,1.3,1.7,3.2,2,4.7C812.5,78.3,811.7,78.4,810.3,78.6z"/>
	<path d="M808.6,152.5c-0.6,2.8-1.2,5.7-1.8,8.5c-0.2,0-0.5-0.1-0.7-0.1c0.5-2.8,1-5.7,1.5-8.5C807.9,152.4,808.2,152.5,808.6,152.5
		z"/>
	<path d="M586.4,116c0-3.6,0-7.3,0-10.9c0.1,0,0.2,0,0.2,0c0,3.6,0,7.3,0,10.9C586.6,116,586.5,116,586.4,116z"/>
	<path d="M500,144.2c0-3.7,0-7.4,0-11.2c0,0,0.2,0,0.3,0c0,3.7,0,7.5,0,11.2C500.2,144.2,500.1,144.2,500,144.2z"/>
	<path d="M890,129.2c0,3.6,0,7.2,0,10.8c0,0-0.1,0-0.1,0c0-3.6,0-7.2,0-10.8C889.9,129.2,890,129.2,890,129.2z"/>
	<path d="M927,475.2c0-3.5,0-7,0-10.6c0.1,0,0.2,0,0.3,0c0,3.5,0,7,0,10.6C927.3,475.2,927.1,475.2,927,475.2z"/>
	<path d="M722.6,281.2c0-3.5,0-7,0-10.4c0.1,0,0.2,0,0.3,0c0,3.5,0,7,0,10.5C722.8,281.3,722.7,281.3,722.6,281.2z"/>
	<path d="M1006,389.2c0,3.4,0,6.8,0,10.2c-0.1,0-0.2,0-0.3,0c0-3.4,0-6.9,0-10.3C1005.8,389.1,1005.9,389.1,1006,389.2z"/>
	<path d="M796.6,78.3c-0.4-2.3-0.7-4.3-1-6.3C797.9,76.4,797.9,76.4,796.6,78.3z"/>
	<path d="M1028.3,339.1c-0.3-3.7-1.4-7.3,0-11.1C1028.3,331.7,1028.3,335.4,1028.3,339.1z"/>
	<path d="M721.6,233.2c0-3.4,0-6.9,0-10.3c0.1,0,0.2,0,0.3,0c0,3.4,0,6.9,0,10.3C721.8,233.2,721.7,233.2,721.6,233.2z"/>
	<path d="M623.6,170.8c-0.3,2.5-0.5,5-1.1,7.5c-0.4,1.6-1.2,1.5-3.5-0.4c1.1-0.1,2.1,0,2.5-0.4c0.6-0.6,0.8-1.7,1.1-2.5
		C623,173.6,623.3,172.2,623.6,170.8C623.7,170.8,623.6,170.8,623.6,170.8z"/>
	<path d="M919.7,375.4c0,3.2,0,6.4,0,9.7c-0.1,0-0.2,0-0.3,0c0-3.2,0-6.4,0-9.7C919.5,375.4,919.6,375.4,919.7,375.4z"/>
	<path d="M639.5,118.7c0,3,0,5.9,0,8.9c-0.1,0-0.1,0-0.2,0c0-3,0-5.9,0-8.9C639.4,118.7,639.4,118.7,639.5,118.7z"/>
	<path d="M466.4,117.3c0.5-1.7,1-3.3,1.5-5.2C469.4,114.8,469.4,114.8,466.4,117.3z"/>
	<path d="M627.1,37c-0.3,2.5-0.6,4.9-0.9,7.4c-0.2,0-0.4-0.1-0.6-0.1c0.3-2.5,0.6-4.9,0.9-7.4C626.7,37,626.9,37,627.1,37z"/>
	<path d="M1081.2,588.5c0,3.2,0,6.5,0,9.7c-0.1,0-0.3,0-0.4,0c0-3.2,0-6.5,0-9.7C1080.9,588.5,1081,588.5,1081.2,588.5z"/>
	<path d="M558.6,181c-0.6,1.4-1.1,2.9-1.8,4.2c-0.1,0.3-0.9,0.4-1.2,0.3c-0.4-0.1-0.6-0.7-0.9-1c0.3-0.2,0.5-0.6,0.8-0.6
		C557.6,183.7,557,181.7,558.6,181z"/>
	<path d="M1005.2,412.9c0,2.8,0,5.6,0,8.4c-0.2,0-0.4,0-0.5,0c0-1.4,0-2.8,0-4.2c0-1.4,0-2.8,0-4.2
		C1004.8,412.9,1005,412.9,1005.2,412.9z"/>
	<path d="M960.6,409.6c-0.2-2.2-0.4-4.3-0.5-6.5C961.4,405.1,960.7,407.3,960.6,409.6z"/>
	<path d="M801.2,140.2c0-2.6,0-5.3,0-7.9c0.1,0,0.2,0,0.2,0c0,2.6,0,5.2,0,7.9C801.4,140.1,801.3,140.1,801.2,140.2z"/>
	<path d="M872.6,151c0.2-4.1,0.2-4.1,2.1-7.2C874.5,146.5,873.7,148.4,872.6,151z"/>
	<path d="M704.7,157.9c0,2.6,0,5.3,0,7.9c-0.1,0-0.1,0-0.2,0c0-2.6,0-5.1,0-7.7C704.6,158,704.7,157.9,704.7,157.9z"/>
	<path d="M775.3,80.5c-0.1-2.6,0-2.6,1.2-4.7c1.8,0.7,1.1,2.3,1.5,3.8C776.3,78.4,775.9,79.8,775.3,80.5L775.3,80.5z"/>
	<path d="M836.4,115.1c-0.3-3.6-0.5-7.3-0.8-10.9c0.3,0,0.5,0,0.8,0C836.4,107.8,836.4,111.5,836.4,115.1
		C836.4,115.2,836.4,115.1,836.4,115.1z"/>
	<path d="M1031.1,560.2c0,2.7,0,5.4,0,8.1c-0.1,0-0.2,0-0.3,0c0-2.7,0-5.4,0-8C1030.8,560.3,1031,560.3,1031.1,560.2z"/>
	<path d="M1055.7,474.2c-0.6-3.4,0.6-6.5,1.5-9.6c0.3-0.1,0.5-0.1,0.6-0.1c0.1,0.1,0.2,0.3,0.1,0.4
		C1057.1,468,1056.4,471,1055.7,474.2L1055.7,474.2z"/>
	<path d="M464.8,131.5c0.2-2.1,0.4-4.3,0.6-6.4c0.1,0,0.2,0,0.3,0c0,2.1,0,4.2,0,6.4C465.5,131.5,465.1,131.5,464.8,131.5z"/>
	<path d="M1080.7,619c0-2.4,0-4.8,0-7.3c0.1,0,0.1,0,0.2,0c0,2.4,0,4.8,0,7.3C1080.8,619,1080.7,619,1080.7,619z"/>
	<path d="M1059.4,457.4c0.5-1.5,1.1-3.1,1.6-4.6c0.5,1.9-0.3,3.3-0.7,5C1060,457.7,1059.7,457.5,1059.4,457.4z"/>
	<path d="M701.4,281.7c0.6,3.1,1.1,6.2,1.8,9.9C701.2,288,701.1,286.9,701.4,281.7L701.4,281.7z"/>
	<path d="M484.3,161.6c-0.2-1.9-0.3-3.8-0.5-5.7c0.2,0,0.4,0,0.5-0.1c0.2,1.9,0.5,3.8,0.7,5.7C484.8,161.6,484.5,161.6,484.3,161.6z
		"/>
	<path d="M1102.6,614.9c0-2.4,0-4.7,0-7.1c0.1,0,0.1,0,0.2,0c0,2.4,0,4.7,0,7.1C1102.8,614.9,1102.7,614.9,1102.6,614.9z"/>
	<path d="M799.3,719.2c-1-0.8-1.4-1-1.5-1.2c-0.1-1.1-0.1-2.1-0.2-3.5C799.8,715.8,798.3,717.3,799.3,719.2z"/>
	<path d="M1003.9,444.5c0-2.6,0-5.1,0-7.7c0.1,0,0.1,0,0.2,0c0,2.6,0,5.1,0,7.7C1004.1,444.5,1004,444.5,1003.9,444.5z"/>
	<path d="M780.6,114.6c0,2.4,0,4.9,0,7.3c-0.1,0-0.1,0-0.2,0c0-2.5,0-4.9,0-7.4C780.4,114.7,780.5,114.7,780.6,114.6z"/>
	<path d="M637,196.5c0.1-1.6,0.2-3.3,0.3-5c0.2,0,0.4,0,0.7,0c0,0.7-0.1,1.5-0.1,2.2c-0.1,0.9-0.1,1.9-0.2,2.8
		c0,0.1-0.2,0.2-0.2,0.4C637.3,196.8,637.2,196.7,637,196.5z"/>
	<path d="M448.1,140.6c0.2,3.1,0.4,6.2,0.6,9.3c-0.2,0-0.3,0-0.5,0C448.1,146.8,448.1,143.6,448.1,140.6L448.1,140.6z"/>
	<path d="M1108.8,575.7c0,2,0,4,0,6c-0.1,0-0.2,0-0.3,0c0-2,0-4,0-6C1108.6,575.8,1108.7,575.7,1108.8,575.7z"/>
	<path d="M1047.4,433.3c0,2.1,0,4.3,0,6.4c-0.1,0-0.3,0-0.4,0c0-2.1,0-4.2,0-6.3C1047.2,433.4,1047.3,433.3,1047.4,433.3z"/>
	<path d="M572.2,199.7c-0.3,3.8-0.3,3.8-2.5,4.9C570.6,202.8,571.4,201.3,572.2,199.7z"/>
	<path d="M918.8,355.3c0,1.8,0,3.7,0,5.5c-0.1,0-0.2,0-0.3,0c0-1.9,0-3.7,0-5.6C918.6,355.2,918.7,355.3,918.8,355.3z"/>
	<path d="M1060.6,602.8c0-1.7,0-3.4,0-5.2c0.1,0,0.1,0,0.2,0c0,1.7,0,3.4,0,5.2C1060.7,602.8,1060.6,602.8,1060.6,602.8z"/>
	<path d="M883.3,106.7c0.4-1.9,0.8-3.7,3.3-4.5C885.3,104,884.3,105.3,883.3,106.7z"/>
	<path d="M1003,465.2c0-1.8,0-3.6,0-5.4c0.1,0,0.1,0,0.2,0c0,1.8,0,3.7,0,5.5C1003.1,465.3,1003.1,465.2,1003,465.2z"/>
	<path d="M719.6,186.3c-0.3-0.7-0.7-1.2-0.6-1.4c0.4-0.4,0.9-0.7,1.3-1.1c0.2,0.4,0.7,0.9,0.6,1
		C720.8,185.4,720.3,185.7,719.6,186.3z"/>
	<path d="M1080.3,647.6c2.4,1.8,2.4,1.8,4,5.1C1082.1,651.1,1080.9,649.6,1080.3,647.6L1080.3,647.6z"/>
	<path d="M1041.4,554.9c0-1.5,0-3.1,0-4.6c0.1,0,0.1,0,0.2,0c0,1.5,0,3.1,0,4.6C1041.5,554.9,1041.4,554.9,1041.4,554.9z"/>
	<path d="M798.5,683.6c0,1,0,2,0,3.1c-0.2,0-0.3,0-0.5,0c-0.1-1-0.1-2-0.2-3.1C798.1,683.6,798.3,683.6,798.5,683.6z"/>
	<path d="M482.8,112.6c0-1.7,0-3.3,0-5c0.1,0,0.3,0,0.4,0c0.1,1.6,0.2,3.2,0.2,4.8C483.3,112.5,483.1,112.5,482.8,112.6z"/>
	<path d="M640.2,148.5c0-1.4,0-2.8,0-4.1c0.1,0,0.1,0,0.2,0c0,1.4,0,2.8,0,4.2C640.3,148.5,640.3,148.5,640.2,148.5z"/>
	<path d="M889.5,116.6c-0.3-2.3-0.7-4.6-1-6.9c0.1,0,0.2,0,0.3,0C889,112,889.3,114.3,889.5,116.6L889.5,116.6z"/>
	<path d="M826.1,114.4c0-0.8,0-1.6,0-2.3c0-0.5,0.2-0.9,0.3-1.3c0.1,0.4,0.3,0.7,0.3,1.1c0,0.9,0,1.8,0,2.8
		C826.5,114.6,826.3,114.5,826.1,114.4z"/>
	<path d="M874.6,449.5c0,1.2,0,2.5,0,3.7c-0.1,0-0.2,0-0.3,0c-0.1-1.2-0.1-2.4-0.2-3.6C874.3,449.6,874.5,449.6,874.6,449.5z"/>
	<path d="M951.9,120.5c-1.2,0-2.5,0.1-3.7,0c-0.7-0.1-1.4-0.5-2.1-1C948.1,119.2,950,120,951.9,120.5L951.9,120.5z"/>
	<path d="M910.8,124c-0.7,1.1-1.3,2.1-2.2,3.5C907.9,125.2,909.6,124.8,910.8,124z"/>
	<path d="M681.8,191.1c0,1.4,0,2.7,0,4.1c-0.1,0-0.2,0-0.3,0c0-1.3,0-2.6,0-3.9C681.5,191.3,681.6,191.2,681.8,191.1z"/>
	<path d="M587.4,130.6c0-1.2,0-2.4,0-3.7c0.1,0,0.2,0,0.3,0c0.1,1.2,0.1,2.5,0.2,3.7C587.7,130.6,587.5,130.6,587.4,130.6z"/>
	<path d="M1115.9,713.7c-0.6-1-1.1-2.1-1.7-3.1c0.2-0.1,0.4-0.3,0.7-0.4c0.6,1,1.3,2.1,1.9,3.1
		C1116.5,713.4,1116.2,713.6,1115.9,713.7z"/>
	<path d="M1103.8,708.3c-0.1-1.3-0.2-2.6-0.3-3.9c0.1,0,0.3,0,0.4,0c0,1.3,0,2.6,0,3.9C1103.9,708.3,1103.8,708.3,1103.8,708.3z"/>
	<path d="M1104.6,565.6c0-1.4,0-2.8,0-4.2c0.1,0,0.3,0,0.4,0c0,1.3,0,2.7,0,4C1104.8,565.6,1104.7,565.6,1104.6,565.6z"/>
	<path d="M470.4,152.1c0.1,0.9,0.1,1.7,0.2,2.6c-0.1,0-0.3,0.1-0.4,0.1c-0.2-0.8-0.5-1.7-0.7-2.5
		C469.8,152.3,470.1,152.2,470.4,152.1z"/>
	<path d="M857.8,92.7c-0.9,0.6-1.7,1.1-3.3,2.1c0.9-1.4,1.4-2.3,1.9-3.1C856.8,92.1,857.3,92.4,857.8,92.7
		C857.7,92.8,857.8,92.7,857.8,92.7z"/>
	<path d="M828.7,89.2c-0.3,1-0.5,2.1-0.8,3.1c-0.1,0-0.3,0-0.4-0.1c0.1-1,0.3-2.1,0.4-3.1C828.1,89.2,828.4,89.2,828.7,89.2z"/>
	<path d="M607.3,36.3c-0.1,2-0.3,4.1-0.4,6.1C606.5,40.4,606,38.3,607.3,36.3L607.3,36.3z"/>
	<path d="M889.5,116.7c0.2,1.8,0.5,3.6,0.7,5.4c-0.2,0-0.4,0-0.6,0C889.5,120.3,889.5,118.4,889.5,116.7L889.5,116.7z"/>
	<path d="M458,120.8c0-0.7,0-1.3,0-2c0.2,0,0.4,0,0.7,0.1c-0.1,0.7-0.1,1.3-0.2,2C458.3,120.8,458.2,120.8,458,120.8z"/>
	<path d="M852.2,131.3c0-1.2,0-2.3,0-3.5c0.1,0,0.3,0,0.4,0c0,1.2,0,2.3,0,3.5C852.5,131.3,852.4,131.3,852.2,131.3z"/>
	<path d="M927.1,495.4c0-0.9,0-1.8,0-2.7c0.1,0,0.2,0,0.3,0c0.1,0.9,0.2,1.7,0.2,2.6c0,0.1-0.1,0.2-0.2,0.4
		C927.3,495.6,927.2,495.5,927.1,495.4z"/>
	<path d="M1043.2,526.2c0-1,0-2,0-3c0.1,0,0.1,0,0.2,0c0,1,0,2,0,3C1043.4,526.2,1043.3,526.2,1043.2,526.2z"/>
	<path d="M893.5,347.7c0-1,0-2.1,0-3.1c0.1,0,0.2,0,0.2,0c0,1,0,2.1,0,3.1C893.7,347.7,893.6,347.7,893.5,347.7z"/>
	<path d="M640,240.8c0.2,0.8,0.4,1.7,0.6,2.5c-0.2,0-0.3,0.1-0.5,0.1c-0.2-0.8-0.4-1.7-0.6-2.5C639.6,240.9,639.8,240.8,640,240.8z"
		/>
	<path d="M641.4,155.8c0,0.9,0,1.8,0,2.7c-0.1,0-0.2,0-0.3,0c-0.1-1-0.1-1.9-0.2-2.9C641.1,155.7,641.2,155.8,641.4,155.8z"/>
	<path d="M637.3,219.1c0-1,0-2,0-3c0.1,0,0.2,0,0.3,0c0.1,1,0.2,1.9,0.3,2.9C637.7,219,637.5,219,637.3,219.1z"/>
	<path d="M842.3,172c2.3,0.1,2.7-2.2,3.9-3.4c-0.5,1.2-0.9,2.6-1.7,3.7C843.8,173.3,842.9,172.8,842.3,172z"/>
	<path d="M1107.4,617.2c0-1.9,0-3.7,0-5.6c0.2,0,0.4,0,0.7,0C1107.9,613.4,1107.6,615.3,1107.4,617.2
		C1107.4,617.1,1107.4,617.2,1107.4,617.2z"/>
	<path d="M802.6,157.7c0.1,1,0.1,2,0.2,3.1c-0.1,0-0.3,0-0.4,0c-0.1-1-0.1-2-0.2-3.1C802.3,157.7,802.4,157.7,802.6,157.7z"/>
	<path d="M1097,529.9c0.5,0.4,1,0.8,1.5,1.2c-0.1,0.2-0.3,0.3-0.4,0.5c-0.5-0.4-1-0.8-1.5-1.3C1096.7,530.2,1096.8,530,1097,529.9z"
		/>
	<path d="M922.8,124c0.3,0.8,0.6,1.5,0.9,2.3c-0.2,0.1-0.4,0.2-0.5,0.2c-0.3-0.7-0.7-1.5-1-2.2C922.4,124.2,922.6,124.1,922.8,124z"
		/>
	<path d="M660.3,35.9c0-0.8,0-1.6,0-2.4c0.1,0,0.2,0,0.3,0c0,0.8,0,1.6,0,2.4C660.5,35.9,660.4,35.9,660.3,35.9z"/>
	<path d="M661.5,54.6c0,0.8,0,1.6,0,2.4c-0.1,0-0.1,0-0.2,0c0-0.8,0-1.6,0-2.4C661.4,54.6,661.4,54.6,661.5,54.6z"/>
	<path d="M863.4,169.1c2.2,0.6,2.9-1.2,3.9-2.4c-0.1,0.6-0.1,1.3-0.4,1.8c-0.4,0.6-1,1.4-1.6,1.5C864.8,170.1,864,169.4,863.4,169.1
		z"/>
	<path d="M1089.6,629.6c0,0.8,0,1.5,0,2.3c-0.1,0-0.2,0-0.3,0c0-0.8,0-1.5,0-2.3C1089.4,629.6,1089.5,629.6,1089.6,629.6z"/>
	<path d="M1079.4,635.5c-0.1,0.7-0.1,1.5-0.2,2.2c-0.1,0-0.2,0-0.4,0c0-0.7,0-1.5,0-2.2C1079,635.5,1079.2,635.5,1079.4,635.5z"/>
	<path d="M515.4,82.7c0-1.5,0-2.2,0-2.9c0.1,0,0.2-0.1,0.4-0.1c0.1,0.4,0.2,0.8,0.2,1.2C515.9,81.2,515.7,81.6,515.4,82.7z"/>
	<path d="M1032.7,543.8c0-0.9,0-1.7,0-2.6c0.1,0,0.2,0,0.3,0c0,0.9,0,1.7,0,2.6C1032.9,543.8,1032.8,543.8,1032.7,543.8z"/>
	<path d="M917.9,340.2c0,0.6-0.1,1.2-0.1,1.8c-0.1-0.6-0.2-1.2-0.3-1.9C917.6,340.1,917.7,340.1,917.9,340.2z"/>
	<path d="M1078.4,658.1c0.1,0.7,0.3,1.4,0.4,2.1c-0.2,0-0.4,0.1-0.6,0.1c-0.1-0.7-0.2-1.4-0.3-2.2
		C1078,658.2,1078.2,658.2,1078.4,658.1z"/>
	<path d="M813.9,100.2c0-0.8,0-1.6,0-2.5c0.1,0,0.2,0,0.2,0c0,0.8,0,1.6,0,2.5C814.1,100.2,814,100.2,813.9,100.2z"/>
	<path d="M1102.7,669.4c0-0.7,0-1.5,0-2.2c0.1,0,0.2,0,0.3,0c0,0.7,0.1,1.4,0.1,2.2C1103,669.3,1102.9,669.4,1102.7,669.4z"/>
	<path d="M514.8,102.6c0,0.8,0,1.6,0,2.4c-0.1,0-0.2,0-0.3,0c0-0.8,0-1.6,0-2.4C514.6,102.6,514.7,102.6,514.8,102.6z"/>
	<path d="M1034.8,499.5c0-0.7,0-1.4,0-2.1c0.1,0,0.1,0,0.2,0c0.1,0.7,0.1,1.4,0.2,2.1C1035,499.5,1034.9,499.5,1034.8,499.5z"/>
	<path d="M898.1,486c-0.3-0.8-0.6-1.6-0.9-2.4c0.2-0.1,0.4-0.2,0.6-0.2c0.3,0.8,0.7,1.6,1,2.4C898.5,485.8,898.3,485.9,898.1,486z"
		/>
	<path d="M1034.7,477.2c0-0.7,0-1.4,0-2.2c0.1,0,0.2,0,0.4,0c0,0.7,0.1,1.4,0.1,2.1C1035,477.1,1034.9,477.1,1034.7,477.2z"/>
	<path d="M1107.6,564.7c0-0.4,0-0.9,0-1.3c0-0.1,0-0.3,0-0.4c0.1,0.2,0.2,0.4,0.2,0.6c0,0.4,0,0.8,0,1.2
		C1107.7,564.7,1107.7,564.7,1107.6,564.7z"/>
	<path d="M1104.8,714c0,0.7,0,1.4,0,2.1c-0.1,0-0.1,0-0.2,0c-0.1-0.7-0.2-1.4-0.2-2.1C1104.6,714,1104.7,714,1104.8,714z"/>
	<path d="M815.1,141.2c0,0.8,0,1.5,0,2.3c-0.1,0-0.2,0-0.2,0c0-0.8,0-1.5,0-2.3C814.9,141.2,815,141.2,815.1,141.2z"/>
	<path d="M760.1,125.2c0-0.7,0-1.4,0-2.1c0.1,0,0.2,0,0.3,0c0.1,0.7,0.2,1.3,0.2,2C760.4,125.1,760.2,125.2,760.1,125.2z"/>
	<path d="M893.5,370.1c0-0.8,0-1.7,0-2.5c0.1,0,0.1,0,0.2,0c0,0.8,0,1.7,0,2.5C893.7,370.1,893.6,370.1,893.5,370.1z"/>
	<path d="M1048.1,426.3c0-0.7,0-1.4,0-2.1c0.1,0,0.1,0,0.2,0c0,0.7,0,1.4,0,2.2C1048.2,426.3,1048.2,426.3,1048.1,426.3z"/>
	<path d="M469.2,130.9c0-0.7-0.1-1.5-0.1-2.2c0.2,0,0.3,0,0.5-0.1c0.1,0.7,0.2,1.4,0.2,2.1C469.5,130.7,469.3,130.8,469.2,130.9z"/>
	<path d="M843.4,398.8c-0.4-1.8-0.8-3.6-1.3-5.4l-0.1,0.1C842.5,395.3,843,397.1,843.4,398.8L843.4,398.8z"/>
	<path d="M843.4,398.9c0.3,1.3,0.5,2.5,0.8,3.8c-0.3,0-0.5,0.1-0.8,0.1C843.4,401.4,843.4,400.1,843.4,398.9L843.4,398.9z"/>
	<path d="M613.6,134.4c0,0.4,0,0.9-0.1,1.3c-0.1-0.4-0.3-0.9-0.4-1.3C613.3,134.4,613.5,134.4,613.6,134.4z"/>
	<path d="M1103.4,585.8c0-0.4,0-0.9,0-1.3c0.1,0,0.3,0,0.4-0.1c0,0.4,0.1,0.9,0.1,1.3C1103.8,585.8,1103.6,585.8,1103.4,585.8z"/>
	<path d="M662.3,138.1c0-0.6-0.1-1.1-0.1-1.5c0.1,0.3,0.2,0.6,0.3,1C662.5,137.6,662.4,137.8,662.3,138.1z"/>
	<path d="M894.9,436.4c0,0.7,0.1,1.1,0.1,1.5c-0.1-0.2-0.4-0.4-0.4-0.6C894.5,437.1,894.7,436.8,894.9,436.4z"/>
	<path d="M1082.6,574.8c0.2-0.6,0.4-1.2,0.7-1.8c0.2,0.1,0.4,0.2,0.6,0.2c-0.2,0.6-0.5,1.2-0.7,1.8
		C1083,575,1082.8,574.9,1082.6,574.8z"/>
	<path d="M1026.8,442.4c-0.2-1.3-0.1-2.5,1.4-3.3C1027.6,440.2,1027.2,441.2,1026.8,442.4C1026.7,442.3,1026.8,442.4,1026.8,442.4z"
		/>
	<path d="M960,394.6c0,0.4,0,0.8,0,1.2c0,0-0.1,0-0.1,0C959.9,395.4,959.9,395,960,394.6C960,394.6,960,394.6,960,394.6z"/>
	<path d="M895.5,461.2c-0.1,0.1-0.2,0.2-0.2,0.4c-0.2-0.2-0.4-0.4-0.5-0.7c0-0.1,0.3-0.3,0.4-0.5
		C895.3,460.6,895.4,460.9,895.5,461.2z"/>
	<path d="M1102.9,594.5c0-0.5,0-1,0-1.5c0.1,0,0.2,0,0.3,0c0,0.5-0.1,1-0.1,1.6C1103,594.5,1103,594.5,1102.9,594.5z"/>
	<path d="M893.9,390.5c0,0.6,0.1,1.1,0.1,1.7c-0.1,0-0.3,0-0.4,0c0-0.6,0-1.1,0-1.7C893.7,390.5,893.8,390.5,893.9,390.5z"/>
	<path d="M589.6,150.6c0,0.6,0,1.1,0,1.7c-0.1,0-0.2,0-0.3,0c-0.1-0.6-0.1-1.1-0.2-1.7C589.3,150.7,589.4,150.7,589.6,150.6z"/>
	<path d="M842.2,393.4c-0.2-1.2-0.5-2.4-0.7-3.6c0.2,0,0.4,0,0.6-0.1C842.1,391,842.1,392.3,842.2,393.4L842.2,393.4z"/>
	<path d="M840.5,379.7c0.2,1.1,0.5,2.1,0.7,3.2c-0.2,0-0.3,0.1-0.5,0.1C840.7,381.8,840.6,380.7,840.5,379.7L840.5,379.7z"/>
	<path d="M857.7,92.8c0.3,1,0.5,2.1,0.8,3.1c-0.2,0-0.3,0-0.5,0.1C857.9,94.9,857.9,93.8,857.7,92.8L857.7,92.8z"/>
	<path d="M1032,551.4c0,0.7,0,1.2,0,1.7c-0.1-0.3-0.2-0.6-0.3-1C1031.7,552,1031.8,551.9,1032,551.4z"/>
	<path d="M684.3,228c0-0.5-0.1-1.1-0.1-1.6c0.1,0,0.2,0,0.4,0c0,0.5,0.1,1.1,0.1,1.6C684.6,228,684.5,228,684.3,228z"/>
	<path d="M1034.7,519.2c0,0.5,0,1,0,1.5c-0.1,0-0.1,0-0.2,0c0-0.5,0-1,0-1.5C1034.6,519.2,1034.7,519.2,1034.7,519.2z"/>
	<path d="M637.5,207.7c-0.2-1.2-0.3-1.6-0.3-1.9c0-0.2,0.2-0.4,0.3-0.6c0,0.1,0.1,0.3,0.1,0.4C637.6,206,637.5,206.5,637.5,207.7z"
		/>
	<path d="M623.7,170.8c0-1.2,0-2.4,0-3.6c0.2,0,0.3,0,0.5,0C624,168.4,623.8,169.6,623.7,170.8L623.7,170.8z"/>
	<path d="M603,215.7c0,0.6,0.1,1.2,0.1,1.7c-0.1,0-0.3,0-0.4,0.1c-0.1-0.6-0.2-1.1-0.3-1.7C602.7,215.7,602.9,215.7,603,215.7z"/>
	<path d="M1042.4,535.3c0-0.7,0-1.1,0-1.5c0.1,0.3,0.2,0.6,0.3,0.9C1042.7,534.8,1042.6,534.9,1042.4,535.3z"/>
	<path d="M553.8,177.7c0.1,0,0.3,0,0.3,0c0,0.3,0.1,0.6,0.1,0.9c-0.1,0-0.4,0-0.4,0C553.8,178.3,553.8,178,553.8,177.7z"/>
	<path d="M607.3,36.4c0.3-2,0.5-4,0.8-6l-0.1-0.1C607.8,32.3,607.5,34.3,607.3,36.4L607.3,36.4z"/>
	<path d="M656.2,30.6c0.2-1,0.5-2,0.7-3c0.2,0.1,0.4,0.2,0.6,0.2C657.1,28.8,656.6,29.7,656.2,30.6
		C656.2,30.6,656.2,30.6,656.2,30.6z"/>
	<path d="M612.5,28.5c0-0.6-0.1-1-0.1-1.5c0.1,0.3,0.3,0.6,0.4,0.9C612.9,28,612.7,28.2,612.5,28.5z"/>
	<path d="M540.1,207c-0.6-0.1-1.3-0.1-1.9-0.3c-0.4-0.1-0.8-0.4-1-1.1C538.2,206.1,539.1,206.6,540.1,207L540.1,207z"/>
</g>
</svg>
