<?xml version="1.0" encoding="utf-8"?>
<!-- Generator: Adobe Illustrator 25.4.1, SVG Export Plug-In . SVG Version: 6.00 Build 0)  -->
<svg version="1.1" id="Layer_1" xmlns="http://www.w3.org/2000/svg" xmlns:xlink="http://www.w3.org/1999/xlink" x="0px" y="0px"
	 viewBox="0 0 1218.2 1181.2" style="enable-background:new 0 0 1218.2 1181.2;" xml:space="preserve">
<g>
	<path d="M439.3,893c-1.2-1-2.3-2.3-3.7-3c-5-2.5-10.1-4.9-15.2-7.1c-2-0.9-4.1-1.8-6.4-0.9c-1,2,1.3,4.5-1.1,6.2
		c-4-3.5-4.5-5.4-2.6-9c1.6-2.9,3.1-3.6,6.2-2.4c2.4,0.9,4.7,2.1,6.9,3.2c4,2.1,7.9,4.3,11.8,6.4c0.8,0.4,1.7,0.8,2.9,1.3
		c1.1-0.9,2.3-1.7,3.1-2.7c3.1-4.1,7.3-7.2,11.2-10.5c5.5-4.6,11.2-9,16.8-13.5c1.8-1.4,3.4-1.7,5.1,0.4c-0.6,1.7-2.1,2.7-3.4,3.7
		c-3.9,3-7.9,5.9-11.8,9c-1.7,1.3-3.3,2.9-4.6,5.1c0.6-0.1,1.3-0.2,1.9-0.3c0.3-0.1,0.6-0.3,0.8-0.5c6.9-6.1,15.6-9.4,22.9-14.8
		c0.8-0.6,1.5-1.2,2.4-1.6c7.5-2.8,13.2-8.3,20-12.2c4.6-2.6,9.4-4.8,14.1-7.2c3.7-1.9,7.4-3.8,10.9-6c8.8-5.4,18-9.7,28.1-11.9
		c3.9-0.9,4.2-1.2,4.3-5c0.1-6.1,0.1-12.1,0.2-18.2c0.1-5.9,0.3-11.8,0.4-17.7c0-1.4-0.1-2.8-0.1-3.9c-1.6-1.3-2.8-0.7-3.9-0.1
		c-5.2,3.1-10.4,6.2-15.6,9.4c-1.4,0.8-2.6,1.9-4,2.6c-9.8,5-18.9,11.4-28.8,16.1c-6.1,2.9-12,6-18,9c-1.4,0.7-2.9,1.3-4.4,1.9
		c-1.7,0.6-3.4,0.8-5.1-0.5c-0.1-4.6,3.7-6.3,6.4-8.9c2.8-2.7,6.3-3.4,10.4-4.2c-0.4,0.9-0.5,1.6-0.9,2c-1.1,1.2-2.7,2.1-3.8,4.6
		c1.9-0.9,3-1.4,4-1.9c6.8-3.6,13.5-7.2,20.3-10.8c0.7-0.4,1.5-0.7,2.2-0.8c2.5-0.4,4.5-1.6,6.4-3.1c9-7.2,18.9-13.1,28.8-18.9
		c7.4-4.4,6.3-2.6,6.4-11.1c0-13.8,0.2-27.5,0.2-41.3c0-2.1,0.6-4.4-0.8-6.9c-2.8,1.6-5.4,3-7.9,4.6c-3.5,2.3-6.8,4.8-10.2,7.1
		c-2.6,1.8-5.7,3.1-6,6.7c-4.4-0.6-4.3-0.4-7.6,1.4c-4.2,2.4-8.5,4.5-12.7,6.6c-0.4,0.2-0.9,0.1-1.4,0.1c-1.1-1.3-1.2-2.9-0.5-4.1
		c1.7-3.2,4.2-5.8,8-7.4c0.1,1.1,0.2,1.9,0.3,3c2.8-0.7,5.3-1.8,7.3-3.8c-0.3-2-1.8-2.4-3-3c-3.2-1.8-6.4-3.6-9.6-5.5
		c-1.5-0.9-3.3-1.8-4.1-3.2c-1.7-3.2-4.7-4.2-7.6-5.3c-1.5-0.6-3-1.1-4.5-1.7c-1.9-0.7-3.5-0.7-5.4,0.4c-3.5,1.9-3.6,1.6-5.2,4.6
		c-12,22.4-24,44.8-36,67.3c-3,5.6-5.9,11.4-9,17c-1.8,3.2-3.8,6.3-5.7,9.4c-0.5,0.8-0.8,1.7-1.4,2.9c1.8,0.4,3.3,0.5,4.8,1
		c4.1,1.3,7.9,3.4,11.5,5.9c0.5,0.4,1.3,0.9,1.3,1.3c-0.1,3.4,2.6,4.2,4.9,5.2c6.1,2.7,12.4,5.2,18.6,7.7c4.6,1.8,9.3,3.5,14.1,4.5
		c1.4,0.3,2.7,1,3.9,1.7c1.4,0.9,1.3,2.1-0.2,4.1c-3.9-3-8.8-3.4-13.4-4.2c-4.6-0.8-9-2.1-13-4.7c-1.2-0.8-2.5-1.6-3.2-2.8
		c-0.8-1.3-2-1.9-3.3-2.6c-5.6-3.1-11.2-6.1-16.7-9.3c-3.7-2.1-3.6-2.2-8.3-1.4c-0.7-0.8-1.5-1.7-2.6-2.9c-1.1,1.6-2,2.9-2.7,4.2
		c-6.4,11.1-12.5,22.3-19.1,33.3c-5.2,8.5-9.3,17.5-13.4,26.5c-1.3,2.8-2.3,5.6-3.4,8.5c-1.2,3.2-1.8,6.4-1.6,9.9
		c0.2,3.1,0,3.2-2.2,5.4c-1.5-1.3-1.3-3.1-1.3-4.8c0.1-5.7,1.6-11,3.8-16.2c3.5-8.2,7.3-16.4,11.8-24.1c1-1.7,1.9-3.3,2.9-5
		c2.9-4.6,5.6-9.3,7.5-14.4c1-2.8,2.7-5.5,4.6-7.8c3.3-4.2,6-8.7,8.2-13.5c0.3-0.7,0.6-1.5,1-2.2c3.9-6.6,7.9-13.1,11.6-19.8
		c2.3-4,4.2-8.2,6.3-12.4c3.5-7,6.7-14.2,10.7-20.9c5.5-9,9.4-18.9,15.5-27.5c2.5-3.5,3.9-7.7,5.8-11.5c2.4-4.7,4.8-9.4,7.2-14.1
		c1.1-2.1,2.1-4.3,3.1-6.5c1.4-2.9,2.7-5.8,4.1-8.6c1-2,2.1-3.9,2.4-6.2c0.3-2.6,1.7-4.7,4.6-5.5c1.4,1.9,0.5,3.5-0.2,5
		c-2.2,4.6-4.5,9.2-6.6,13.8c-0.5,1-0.7,2-1.2,3.3c1.5,0.6,2.7,1.1,4.2,1.8c-0.9,0.5-1.5,0.8-2.4,1.2c6.4,2.8,12.8,5.1,18.8,8.3
		c6.1,3.2,11.7,7.1,17.8,10.8c3.7-2.2,7.4-4.6,11.4-6.7c5-2.6,8.8-6.9,13.5-9.9c0.7-0.5,1.4-1.5,1.4-2.3c0-8.1,1-16.3,0-24.4
		c0-0.3-0.3-0.5-0.5-0.9c-1.9-0.2-3.3,0.9-4.7,1.9c-7,5.1-13.9,10.2-20.8,15.4c-2.4,1.8-4.7,3.9-7,5.8c-1.3,1-2.5,1.2-3.9-0.2
		c0.5-1.8,1.8-3,3.1-4.1c6.1-5.4,12.5-10.4,19.7-14.4c3.9-2.2,7.5-4.8,11.4-7c2.4-1.4,3.3-3.2,3.4-5.9c0.1-6.9,0.3-13.8,0.3-20.6
		c0.2-23.7,0.3-47.3,0.4-71c0.2-25.6,0.4-51.2,0.6-76.8c0-1.1-0.3-2.1-0.4-3.2c-2.7-0.8-5,0.2-7.3,0.4c-5.1,0.5-10.1,1.3-15.2,1.6
		c-7,0.4-14.1,0.2-21.1,0.5c-6.2,0.2-12.4,0.6-18.6,1c-1.1,0.1-2.2,0.4-3.6,0.7c-0.4,2.6-0.9,5-1,7.5c-0.1,3.2,1,4.2,4.2,4.6
		c5.5,0.7,11,1.5,16.9,2.2c0.3,1.1,0.6,2.3,0.9,3.5c-0.7,0.3-1.1,0.6-1.5,0.6c-5.7,0.2-11.2-0.3-16-3.7c-0.4-0.3-0.9-0.6-1.3-0.5
		c-0.7,0.1-1.5,0.3-2,0.8c-0.3,0.3-0.2,1.3,0.1,1.7c1,1.2,2.1,2.4,3.3,3.5c0.9,0.9,1.9,1.6,2.9,2.4c-1.3,3.1-1.3,3.1-6.6,0.9
		c-1.3,1.1-0.9,2.4-0.2,3.4c1.5,2.5,1.2,5.2,1,7.9c-1.2,14.7-2.6,29.3-2.8,44c-0.2,12.6-1.1,25.2-1.5,37.9c-0.3,7.5-0.3,15-0.3,22.5
		c0,11.8,0,23.7-1.5,35.4c-0.4,2.7-0.3,5.4-0.5,8.1c-0.1,2-0.2,2-2.6,4c-0.4-0.9-0.8-1.7-1-2.5c-0.2-0.8-0.1-1.6-0.1-2.4
		c0.1-7.8,0-15.7,0.3-23.5c0.7-16.6,1.6-33.2,2.3-49.8c0.4-11,0.6-22,0.9-33.1c0.2-7.4,0.5-14.7,0.7-22.1c0-1,0.2-2,0-2.9
		c-2-8.9-0.7-17.8-0.8-26.8c0-0.5,0-1,0.1-1.4c1-6.1-2.7-9.5-7.2-12.4c-2-1.3-4.3-2.1-6.4-3.2c-1.1-0.6-2.3-1.1-3.3-1.8
		c-1.8-1.3-2.1-3.1-0.9-5c0.4-0.6,1-1.1,1.8-1.9c-1.1-1.6-2.1-3.1-3.2-4.4c-5-5.9-10-11.7-13.1-18.8c-0.2-0.6-0.7-1.1-1.1-1.6
		c-2.6-3-5.2-6.1-7.8-9.1c-1-1.1-1.9-2.2-3.6-1.5c-1.5,0.6-2.4-0.2-3.4-1.1c-3-2.9-5.6-6.1-7.5-9.9c-0.3-0.7-0.7-1.4-1.3-2.5
		c-1.9,0.2-3.7,0.3-5.6,0.5c-2.1,0.2-4.1,0.4-6.2,0.3c-0.8,0-0.5-2-2-1.6c-1.2,0.3-2.5,0.3-3.8,0.6c-1.1,0.2-2.2,0.4-4.2,0.9
		c1.8,0.4,2.6,0.6,4.6,1.1c-4.8,0.9-8.6,1.6-12.3,2.3c-2.2,0.4-4.4,0.8-6.6,1.3c-1.6,0.4-2.7,1.2-3.5,2.8c-2.1,4.4-6.8,5-10.5,1.6
		c-0.3-0.3-0.7-0.6-1.3-1.1c-0.5,0.9-1.1,1.6-1.4,2.3c-0.3,0.7-0.3,1.6-0.3,2.4c0,8,0.1,16,0.1,24c0.1,9.8,0.1,19.5,0.2,29.3
		c0.1,15.5,0.2,31,0.2,46.5c0,6.4-0.1,12.8,0,19.2c0.1,14.2,0.1,28.5,0.2,42.7c0.1,28.3,0.3,56.6,0.4,84.9c0.1,21,0.1,41.9,0.2,62.9
		c0.1,12.6,0.3,25.3,0.4,37.9c0,6.1-0.1,12.1,0,18.2c0.1,7.7,0.2,15.3,0.3,23c0.1,10.1,0.1,20.1,0.1,30.2c0.1,8.6,0.1,17.3,0.3,25.9
		c0.1,4.9-0.4,9.9,0.3,14.8c0.4,2.9-0.6,6-0.6,9c0,13.6,0.1,27.2,0.2,40.8c0,0.9,0.3,1.8,0.5,3.2c2.3-1.1,4.3-2,6.1-2.9
		c2.8,2.8,2.8,2.9,1.3,5.2c-1.2,1.9-2.6,3.6-3.9,5.5c-0.7,1-1.1,2.2-1.7,3.2c1.5,2,3.4,1.4,5,1.5c7.8,0.5,15.6-1.1,23.4-1.1
		c3.2,0,6.4,0.3,9.5,0.4c1.3,0,2.6,0.2,3.8-0.1c5.9-1.1,11.8-0.6,17.7-0.3c5.3,0.3,10.5,0.3,15.8-0.4c6.1-0.9,12.4-1.3,18.6-0.4
		c1.1,0.2,2.3,0.3,3.3,0.1c6.4-1.2,12.7-0.6,19.1-0.1c4.3,0.4,8.6-0.1,12.9-0.6c6.3-0.7,12.7-0.5,19.1-0.6c1.1,0,2.2,0.2,3.3,0.2
		c5.4-0.1,10.8-0.3,16.3-0.4c1.9,0,3.4,0.4,4,2.9c-1.2,0.2-2,0.4-2.9,0.4c-7.2,0.3-14.4,0.5-21.5,0.7c-4.8,0.1-9.6-0.2-14.4-0.1
		c-10.1,0.3-20.1,0.9-30.2,1c-8.6,0.2-17.3,0-25.9,0c-3.7,0-7.4-0.2-11,0.1c-13.6,1.1-27.1,1.6-40.7,1.2c-5.9-0.2-11.8-0.7-17.7-0.1
		c-3.7,0.4-7.3,0.7-10.6,2.7c-2.8-0.7-4.8-2.5-6.2-4.9c-0.7,0.2-1.2,0.3-1.6,0.5c-4.9,3.3-10.5,5.9-14.6,10c-5,5-10.5,9.3-15.7,13.9
		c-7.8,6.9-15.7,13.6-23.7,20.3c-2.2,1.9-4.6,3.5-6.9,5.1c-1.8,1.3-3.2,2.7-3,5.1c0.1,0.6-0.1,1.3-0.2,1.9c-0.2,0.9-0.4,2-1.6,2.1
		c-1.1,0.1-1.7-0.7-2-1.7c-0.2-0.4-0.4-0.8-0.8-1.5c-2.7,0.7-4.7,2.6-7,4c-1.9,1.2-3.7,2.5-5.7,3.6c-1.6,0.8-2.8,0-3-1.8
		c-0.3-2,0.4-3.8,1.5-5.4c1.8-2.6,3.7-5.2,5.8-7.6c2.3-2.7,4.7-5.3,7.1-7.8c1.5-1.6,2.1-3.4,2.1-5.6c0-9.3,0.2-18.5,0.3-27.8
		c0-1.3-0.2-2.5-0.3-3.8c-0.4-5.9-1.3-11.8,1-17.5c0.4-0.9,0.2-2.3-0.1-3.3c-2.3-7-1.6-14.2-1.7-21.4c-0.1-6.7,0.7-13.4-0.2-20.1
		c-0.2-1.9-0.2-3.8-0.1-5.7c0.1-2.7,0.1-5.5,2.3-7.5c-3.7-7.1-2.4-14.6-2.7-21.9c-0.3-8.3-0.3-16.6-0.4-24.9c0-0.5-0.1-1,0-1.4
		c1.4-9.4-0.5-18.8-0.3-28.2c0.1-9.3-0.1-18.5-0.2-27.8c-0.1-9.4-0.4-18.8-0.5-28.3c-0.1-12,0-24-0.1-36c0-5.9-0.3-11.8-0.4-17.7
		c-0.1-3.7,0-7.3,0-11c0-4,0-8,0-12c-0.2-11.7-0.5-23.3-0.7-35c-0.1-7.2,0-14.4-0.1-21.6c-0.3-23.3-0.7-46.7-1-70
		c-0.3-21.3-0.5-42.5-0.8-63.8c-0.2-18.6-0.5-37.1-0.8-55.6c-0.2-12.3-0.5-24.6-0.8-36.9c0-1.9,0-3.8,0-5.8c0-1.4,0.5-2.5,2.3-3.1
		c0.3,0.8,0.9,1.6,0.9,2.4c0.4,7,1.3,14.1,0.8,21.1c-0.7,8.7,0.2,17.2,0,25.8c-0.3,11.7,0.4,23.3,0.8,35c0,1.1,0.2,2.3-0.1,3.3
		c-1.3,5.7-0.5,11.5-0.2,17.2c0.2,3.7,0.1,7.3,0.1,11c0,3-0.1,6.1,0,9.1c0.2,5.9,0.5,11.8,0.7,17.7c0,1.1,0.2,2.3,0,3.4
		c-1.1,6.1-0.4,12.1-0.1,18.2c0.3,6.2,0,12.5,0.1,18.7c0.1,6.4,0.6,12.8,0.7,19.2c0,3.3-0.4,6.7-0.6,10c-0.1,1.3-0.3,2.6-0.1,3.8
		c1.2,6,0.7,12.1,0.8,18.2c0.1,6.6,0.3,13.1,0.5,19.7c0.2,5.3,0.4,10.5-0.7,15.8c-0.4,1.9,0,4.1,0.2,6.2c0.2,2.1,0.8,4.1,0.8,6.2
		c0.2,12.8,0.2,25.6,0.3,38.4c0,2.5-0.5,5.1-0.6,7.6c-0.1,1.7-0.2,3.6,0.2,5.2c1,3.6,1,7.2,0.7,10.9c-0.2,3,0,6.1,0,9.1
		c0.1,9.6,0.2,19.2,0.4,28.8c0,0.5,0.1,1,0,1.4c-0.3,1.3-1.1,2.6-1.1,3.9c0,1.4,0.9,2.7,1.1,4.1c0.3,2.9,0.3,5.7,0.4,8.6
		c0.2,8.1,0.3,16.3,0.4,24.4c0.1,4,0,8,0.1,12c0.1,10.7,0.1,21.4,0.2,32.1c0.2,12.5,0.7,24.9,0.9,37.4c0.1,4.3-0.3,8.6-0.5,12.9
		c0,1-0.2,1.9-0.2,2.9c0.2,5.9,0.6,11.8,0.8,17.7c0.3,9.7,1,19.5,0.7,29.2c-0.2,7.5-0.8,15-0.4,22.5c0.2,5.1,0.7,10.2,1.1,15.2
		c0.4,0.1,0.8,0.4,1,0.3c6.2-3.9,12.6-7.5,16.9-13.8c2.1-3.1,5.1-5.5,8.2-8.8c0.3,1.5,0.7,2.4,0.6,3.2c-0.3,2.5-1.9,4.4-3.7,6
		c-6.7,5.9-13,12.3-20.5,17.3c-3.2,2.2-3.6,5.7-1.4,10.4c2.1-0.1,3.2-1.8,4.6-3.1c5.4-5,10.7-10,16.2-14.9c2.3-2,4.8-3.7,7.2-5.6
		c0.5-0.4,1.2-0.6,1.6-1.1c4.1-4.8,9.5-8,14.4-11.9c2.6-2.1,5.6-3.8,8.1-6c5.4-4.7,10.7-9.6,15.9-14.5c1.3-1.2,1.2-2.8,1.2-4.5
		c-0.1-11.3-0.1-22.7-0.3-34c-0.1-5.9,0.9-11.8-0.9-17.6c-0.1-0.3-0.1-0.6-0.1-1c0-9.6,0.1-19.2,0.1-28.8c0-4.1,0-8.3,0-12.4
		c0-5.4-0.2-10.8-0.2-16.3c0-9.9,0.2-19.8,0.1-29.7c0-8-0.2-16-0.4-24c-0.1-6.2-0.3-12.5-0.4-18.7c0-1.1-0.1-2.2,0-3.4
		c1.1-9.6,0.3-19.2,0.2-28.8c-0.2-10.9-0.7-21.7,0-32.6c0.4-5.7,0-11.5,0-17.3c-0.1-11.4-0.4-22.7-0.4-34.1
		c-0.1-13-0.1-25.9-0.1-38.9c-0.1-17.6-0.1-35.2-0.2-52.8c-0.2-21.9-0.5-43.8-0.7-65.7c-0.1-17.3-0.1-34.5-0.3-51.8
		c0-4.1-0.5-8.3-0.7-12.7c-1.7-1-3.3-2.2-5.2-3.1c-4.5-2.1-9.2-3.7-13.6-5.9c-13.1-6.8-26-13.7-37.5-23.1c-0.5-0.4-1-0.8-1.5-1.2
		c-6.2-3.7-12.4-7.3-18.5-11c-3.7-2.2-7.6-3.2-11.9-2.7c-0.8,0.1-1.7-0.3-2.9-0.6c1.5-2.8,3.3-4,6.2-4c4.5,0.1,8.5,1.8,12.2,4
		c6,3.6,12,7.3,17.7,11.5c5.3,3.9,10.5,7.8,16.1,11.3c0.9,0.6,1.8,1.3,2.5,2.2c2.9,3.2,6.6,5.1,10.7,6.1c6.8,1.7,12.6,5.4,18.7,8.5
		c1.8,0.9,3.7,1.8,5.6,2.6c1.9,0.7,4.1,1.1,5.9,2c3.2,1.6,6.4,1.6,9.8,1.1c13.6-2.2,27.1-4.8,40.7-6.2c8.1-0.8,16.1-2.4,24.3-2.8
		c2.5-0.1,5.1,0,7.6-0.2c4.5-0.2,8.8-1.2,13.2-2c6.2-1.2,12.5-2.3,19-1.9c3.3,0.2,6.6-1,9.9-1.5c1.4-0.2,2.9-0.4,4.3-0.1
		c3.7,0.8,7.3,0.4,10.9-0.4c1.1-0.3,2.2-0.4,3.3-0.7c10.5-2.5,21.2-3.1,31.9-3.4c3.4-0.1,6.6-0.6,9.7-2.3c3.6-2,7.7-2.9,11.7-4.1
		c6.1-1.8,12.7-1.8,18.4-5c0.8-0.5,1.8-0.6,2.7-0.9c8.2-2.3,16.3-4.7,24.5-6.8c5.6-1.4,11.3-2.3,16.9-3.4c2.5-0.5,5.1-0.7,6.8-3
		c0.8-1.1,2-0.7,3.1-0.1c1.2,0.7,1.2,1.8,0.6,2.9c-1.2,2.2-0.9,4.6-0.8,7c0.7,14.5,0.9,29.1,0,43.6c-0.1,1.6-0.3,3.2-0.3,4.8
		c0.2,13,0.8,25.9,0.4,38.8c-0.4,12.5,0.4,24.9,0,37.4c-0.2,5.1-0.4,10.2-0.6,15.3c-0.1,1.8,0,3.5,0,5.3c-0.1,9.8,0,19.5-0.4,29.3
		c-0.2,6.4-1.1,12.7-1.4,19.1c-0.3,6.2-0.1,12.5-0.5,18.7c-0.9,12.5,0.1,24.9,0,37.4c0,4.2-0.3,8.3-0.4,12.5
		c0,5.6,0.2,11.2,0.2,16.8c0,8-0.2,16-0.2,24c0,5.7,0.3,11.5,0.5,17.2c0.1,5.1,0.5,10.2,0.3,15.3c-0.6,14.7,1.2,29.4,1.2,44.1
		c-0.1,14.7,2,29.3,2.4,44c0.4,16.5,0.8,32.9,1.2,49.4c0.5,16,1.1,32,1.7,47.9c0.3,9.3,0.7,18.5,1.1,27.8c0.4,8,1.1,16,1.5,23.9
		c0.3,4.9,0.3,9.9,0.4,14.9c0.1,4,0.1,8,0.1,12c0,1.1-0.2,2.1-0.4,3.8c-1.9-1.7-2-3.4-2-5.1c-0.1-4-0.2-8-0.3-12
		c-0.2-7.2-0.4-14.4-0.5-21.6c-0.1-14.2-2.3-28.4-2.1-42.6c0.1-11.7-1.5-23.3-1.2-35c0.1-2.7-0.7-5.4-0.6-8.1
		c0.3-9.7-0.1-19.5-0.6-29.2c-0.4-8.5-0.3-16.9-0.6-25.4c-0.3-7.5-0.9-15-1.3-22.5c-0.2-3.3-0.4-6.7-0.6-10
		c-0.4-11.2-0.8-22.4-1.2-33.5c-0.1-2.1-0.3-4.2-0.1-6.2c0.7-8.6-0.5-17.2-0.4-25.9c0.1-8,0.1-16,0-24c-0.1-7.7-0.4-15.3-0.4-23
		c0-19.5,0.2-39,0.3-58.5c0-5.6-0.2-11.2,0-16.8c0.3-7.5,0.9-15,1.4-22.5c0.1-1.3,0.2-2.5,0.3-3.8c0.6-24,1-48,0.4-72
		c-0.2-7.7,0.3-15.4,0.2-23c-0.1-16.2-0.2-32.3-0.3-48.5c-0.1-9.6-0.1-19.2-0.2-28.8c0-1,0-1.9-0.2-2.9c-0.2-1.7-0.5-3.5-0.7-5.2
		c-0.2-2.1-2.9-1.8-3.3-3.6c-0.5,0.1-1.1,0.1-1.4,0.4c-3.2,3.1-7.4,3.7-11.3,4.8c-7.1,2-14.2,3.7-21.3,5.5
		c-7.4,1.9-14.9,3.6-22.3,5.5c-4,1.1-7.9,2.5-11.7,4.6c0,0.7,0,1.3,0,1.9c0.2,2.4,0,2.9-2.2,3.4c-3,0.7-5.9,1.2-8.9,1.8
		c-1.9,0.4-3.8,0.5-5.6,1c-1.8,0.5-3.4,1.5-5,2.3c-1.9-1.6,0.1-3.1-0.2-4.7c-0.4-0.2-0.8-0.6-1.2-0.6c-5.4,0.4-10.8,0.8-16.2,1.3
		c-4,0.3-7.9,0.8-11.9,1.2c-6.8,0.7-13.7,1.5-20.5,2.2c-8.7,0.9-17.5,1.6-26.2,2.6c-7.3,0.8-14.6,1.9-21.9,2.9
		c-3.2,0.4-6.3,0.8-9.5,1.2c-1.4,0.2-2.9-0.2-3.7,1.7c3.7,5.1,9.5,8.4,12.9,14c-0.7,0.5-1.2,0.8-1.7,1.1c0,0.1,0.1,0.3,0.2,0.4
		c9.9,8.9,17.8,19.6,25.8,30.2c1.9,2.5,4,3,6.9,3.1c5.3,0.1,9.9-2.3,15-2.7c6.7-0.5,13.4-0.9,20.1-1.4c2.2-0.1,4.5-0.1,6.7-0.2
		c4-0.2,7.9-0.4,11.9,0.4c4,0.8,8.2,0.8,12.3,1.2c3.2-3.7,8.1-2.8,12.3-5c0.1-1.2,0.4-2.5,0.4-3.9c0-11.8,0.1-23.7,0-35.5
		c0-1.5-0.5-3-0.8-4.7c0.8-0.9,1.8-2,3.7-1.8c0.2,0.9,0.6,1.8,0.6,2.7c0.1,5,0.1,9.9,0.1,14.9c0,8.5-0.5,17-0.1,25.4
		c0.2,3.8-0.1,7.5-0.2,11.2c-0.4,31.3-0.6,62.7-0.9,94c-0.2,23.3-0.5,46.7-0.8,70c0,1.9-0.5,3.8,1,5.7c1.2-0.1,2.4-0.3,3.7-0.4
		c1.8-0.2,3.1,0.6,3.2,2c0.1,1.6-1.1,2.2-2.4,2.6c-0.6,0.2-1.3,0.1-1.9,0.3c-3.2,0.7-3.5,1-3.6,4.5c-0.1,4.3-0.1,8.6-0.1,13
		c-0.1,22.1-0.2,44.1-0.3,66.2c0,1.7,0.1,3.4,0.2,5.6c1.8-0.4,3.2-0.8,4.5-1c0.5-0.1,1.5,0.2,1.6,0.5c0.2,0.7,0.2,1.7-0.3,2.1
		c-1,1-2.2,1.9-3.4,2.5c-2,1-2.8,2.4-2.8,4.5c-0.1,6.5-0.2,13.1-0.3,19.6c-0.1,5.9-0.1,11.8-0.1,17.8c0,2.1-0.2,4.2,0.9,6.1
		c0.3,0.5,0.3,1.3,0.1,1.8c-1.4,2.5-1,5.3-1.1,8c-0.1,9.6-0.1,19.2-0.2,28.8c0,1,0,1.9,0,2.9c0,1.9,0.4,3.5,2.6,4
		c0.4,0.1,0.6,0.6,1,1.1c-0.5,0.5-0.8,1.2-1.3,1.4c-2,0.9-2.3,2.5-2.3,4.3c0,4.5,0,9-0.1,13.4c-0.1,3-0.4,6-0.5,9.1
		c-0.1,1.6-0.1,3.2,0,4.8c0.1,5.1,0.3,10.2,0.3,15.3c0,9.6,0.3,19.2-0.3,28.8c-0.5,7.8-0.1,15.6,0,23.5c0,3.7,1.3,6.9,4.3,9.2
		c1.5,1.2,3.1,2.2,4.7,3.2c5.4,3.3,10.9,6.6,16.4,10c1.1,0.7,2.2,1.4,3,2.4c2.2,3,5.4,4.5,8.7,5.7c6,2.3,11.5,5.5,16.7,9.4
		c2.8,2.1,6,3.6,9,5.4c2.3,1.4,4.7,2.7,7,4.1c5.3,3.3,10.6,6.6,15.9,9.9c1.5,1,3.2,1.8,4,4c-1,0.1-1.5,0.3-1.8,0.2c-3-1-6.1-2-9-3.2
		c-7.7-3.1-15.4-6.3-23.1-9.4c-1.6-0.7-3.3-1.1-5-1.7c-3.9-1.4-7.9-2.5-11.3-5.1c-0.9-0.7-2-1-3-1.4c-5.7-2.2-11.3-4.3-17-6.5
		c-4.5-1.7-9-3.2-13.5-4.9c-2.2-0.9-4.4-1.9-6.5-3.1c-2.5-1.3-3.6-3.6-3.5-6.3c0-1.9,0.1-3.8,0.2-5.8c0.2-3.2,0.1-6.4-1.1-8.4
		c0.4-3.7,0.9-6.5,1.1-9.3c0.4-6.5,0.6-13.1,0.9-19.6c0.1-2.2,0-4.5,0-6.7c-0.1-6.1-0.2-12.1-0.2-18.2c0-2.4,0.2-4.8-0.7-7.4
		c-3.3,1.8-6.3,3.5-9.3,5.2c-2.1,1.2-4.2,2.3-6.8,1c-1.4-0.7-2.8,0-4.1,0.6c-4.8,2.2-9.6,4.4-14.4,6.5c-8.4,3.8-16.9,7.5-25.3,11.3
		c-3.6,1.7-7.1,3.6-10.6,5.6c-6,3.4-11.9,6.8-18.1,9.7c-7.8,3.7-15.2,8.2-22.8,12.3c-2.7,1.4-5.4,2.9-8.1,4.1
		c-0.9,0.4-2.1,0.2-3,0.2c-0.7-2.1,0.8-2.5,1.7-3.2c5.1-3.6,10.4-6.8,16.1-9.3c0.5-0.2,1-0.8,1.5-1.2c-0.5-1.9-2.1-2-3.4-2.2
		c-2-0.4-4.1-0.5-6.1-1c-2.9-0.7-5.8-1.6-8.7-2.5c-1.7-0.5-3.4-1.1-5.1-1.3c-3.2-0.4-6.2-1.5-9-3c-6.9-3.6-13.9-7.2-20.9-10.6
		c-2.7-1.3-5.4-2.8-8.7-2.1c-0.7,0.1-1.9-0.5-2.4-1.1c-0.5-0.6-0.8-1.9-0.5-2.6c0.3-0.7,1.6-1.4,2.2-1.3c2.3,0.4,4.8,0.8,6.8,2
		c9,5.3,19,8.3,28.6,12.4c1,0.4,2.2,0.7,3,1.4c3.2,2.4,7,2.8,10.8,3.2c3.5,0.4,6.9,1.2,10.3,1.9c2.7,0.6,5.2,1.6,5.8,5.1
		c1.7-0.7,3-1.2,4.3-1.8c1.5-0.6,2.8-1.1,4.5-1.2c1.8-0.1,3.7-1.2,5.1-2.3c3.6-3.1,7.8-5,11.9-7c2.7-1.3,5.3-2.9,8.1-4.3
		c14.2-7.3,28.5-14.5,43.5-20.1c1.5-0.6,3-1.2,4.3-2.2c5.2-3.9,11-5.8,17.4-5.7c0.3,0,0.6-0.2,1.1-0.3c1.6-3,0.6-6.5,1.1-9.7
		c0.5-3.3,0.5-6.7,0.5-10.1c0.1-3.2,0.2-6.4,0-9.6c-0.3-3.3,0.5-6.7-0.9-9.8c-3.6,0.4-11.2,3.1-14.8,5.3c-8.6,5.3-17.7,9.5-27.2,13
		c-1.6,0.6-3.2,1.5-4.8,2.2c-3.2,1.5-6.4,2.9-9.6,4.3c-1.2,0.5-2.4,1-3.5,1.6c-4.3,2.5-8.5,5-12.8,7.5c-2.5,1.4-2.5,1.4-3.8,4.9
		c-3.1-1.5-5.6,0.2-8.3,1.5c-8.9,4.3-17.9,8.6-26.9,12.6c-5,2.2-10.2,3.7-15.3,5.5c-3.2,1.1-6.3,2.2-9.5,3.3
		c-1.7,0.6-3.4,1.2-4.9-0.6c0.1-1.9,1.1-3.3,2.6-4.2c2.8-1.6,5.6-3.2,8.5-4.4c1-0.4,2.6-0.2,3.6,0.2c1.8,0.7,3.4,0.5,5.2,0.1
		c5.7-1.1,11-3.5,15.9-6.5c3.4-2.1,7.1-3.7,10.8-5c2.7-1,5.1-2.6,7.6-4c0.5-0.3,0.7-1,1.1-1.6c-1.6-1.7-3.5-1.7-5.3-2.2
		c-3.4-0.9-6.7-1.9-10.1-3c-1-0.3-2.1-0.9-2.9-1.7c-2.8-2.8-6.2-4.4-9.8-5.9c-1.8-0.7-3.4-1.7-5.1-2.6c6,1.2,11.7,3,17.3,5.4
		c2.5,1.1,5.1,1.7,7.7,2.6c2.5,0.9,5.1,1.9,7.6,2.9c0.9,0.3,1.7,1.2,2.5,1.2c4.8-0.2,9.6,0.1,13.6-3.4c1.2-1,2.7-1.8,4.1-2.4
		c8-3.9,16.1-7.7,24.2-11.6c6.5-3.2,12.8-6.6,19.3-9.7c6.7-3.1,13.4-6,20.3-8.7c2.7-1.1,3.9-2.5,3.7-5.3c-0.1-1,0-1.9,0-2.9
		c0-5.4,0-10.9,0-16.3c0.1-4.5,0.3-8.9,0.4-13.4c0-1.4,0.4-2.9-1.3-4.4c-1.5,0.4-3.4,0.5-5.2,1.2c-4.6,1.9-9.2,3.7-13.6,6
		c-5.4,2.7-10.6,5.8-16,8.7c-1.5,0.8-3.1,1.6-4.8,2.2c-4.3,1.4-8.2,3.6-11.9,6.2c-1.4,1-3,1.9-4.5,2.8c-4.7,2.7-9.6,5.1-14.2,8
		c-6.5,4-12.8,8.4-19.4,12.4c-7.2,4.4-14.5,8.7-21.8,13c-1.2,0.7-2.4,1.5-3.7,2.3c0.8,1.1,1.4,1.9,2.4,3.3c-1.9-0.5-3.1-0.8-4.3-1.1
		C441,891.6,440.1,892,439.3,893z M590.4,1006.8c2.1,2.1,4.6,2.3,7.1,2.9c7.8,1.9,15.3,4.5,22.4,8.3c1.8,1,3.9,1.4,5.8,2
		c0.3,0.1,0.7-0.4,1.4-0.8c-1.6-1.1-2.9-2-4.3-2.8c-4.9-3-9.8-6-14.7-8.9c-2.5-1.5-4.9-3.1-7.3-4.5c-7.9-4.5-15.8-8.9-23.7-13.4
		c-1-0.6-1.8-1.3-2.8-1.8c-2.8-1.6-5.5-3.2-8.3-4.7c-0.7-0.4-1.7-0.3-2.7-0.5c-0.9,3.5-0.4,6.6-0.2,9.8c0.1,1.6,1.1,2.5,2.7,3
		c2.4,0.7,4.9,1.4,7.3,2.4c4.6,1.8,9.1,3.8,13.7,5.8c2.3,1,4.7,2,7.8,3.3C592.5,1006.8,591.5,1006.8,590.4,1006.8z M296.3,1052.3
		c7-1.7,11.2-4.6,10.8-11.4c-1.2-0.9-2.3-0.6-3.1,0.4C301.5,1044.6,298.8,1047.9,296.3,1052.3z M483.4,509.8
		c2.1,2.8,3.5,5.5,7.2,5.9c0.5-2.4,1.5-4.6,0.8-7.1C488.6,508.1,486.2,508.2,483.4,509.8z M306.3,865.3c-0.2,0-0.4,0-0.7,0.1
		c0.1,0.7,0.1,1.3,0.2,2c0.2,0,0.4,0,0.7-0.1C306.4,866.6,306.3,866,306.3,865.3z"/>
	<path d="M286.2,557.9c-0.1,3.1-2.3,3.7-4.4,4.4c-4.8,1.7-9.7,3.2-14.6,4.8c-0.8,0.2-1.5,0.5-2.3,0.7c-2.6,0.7-4.1,2.3-4.3,5.1
		c-0.1,1.4-0.3,2.9-0.3,4.3c-0.1,5.8-0.1,11.5-0.2,17.3c0,0.8,0.1,1.6,0,2.4c-1.4,7.3-0.7,14.7-0.7,22c0,1.1,0.1,2.3-0.1,3.4
		c-1.8,9.2-1,18.5-1,27.7c0,4.2-0.1,8.3-1.3,12.4c-0.4,1.5-0.2,3.1-0.1,4.7c0.2,3.2,1,6.4,0.7,9.5c-1,9.3-0.7,18.5-0.6,27.8
		c0,3.3-0.7,6.7-0.9,10c-0.2,1.9-0.2,3.8-0.2,5.7c0.1,3.8,0.7,7.7,0.2,11.5c-0.7,6.1-0.5,12.1-0.3,18.2c0.2,5.1,0.2,10.2-0.8,15.3
		c-0.3,1.5,0,3.2,0,4.8c0.1,3.7,0.4,7.3,0.5,11c0.1,6.1,0.1,12.1,0.3,18.2c0.2,5.6,0.8,11.2-0.2,16.7c-0.2,0.9,0,1.9,0.1,2.9
		c0.2,4,0.5,8,0.7,11.9c0.2,5.6,0.4,11.2,0.6,16.8c0.1,4.5,0.2,9,0.2,13.4c0,0.8-0.6,1.5-1.4,3.4c-0.4-1.9-0.7-2.6-0.7-3.3
		c-0.2-3.5-0.3-7-0.4-10.5c-0.4-16.6-1-33.2-1.3-49.9c-0.2-10.5,0.1-21.1,0.1-31.6c0-3.5-0.3-7-0.3-10.5c0.2-12.8,0.5-25.6,0.8-38.4
		c0.1-4.8,0-9.6,0.1-14.4c0.2-12.2,0.4-24.3,0.8-36.4c0.6-17.1,0.9-34.2,1.1-51.3c0-2.1,0.3-4.1,0.4-6.2c0.2-3.7,0.6-7.3,0.5-11
		c-0.2-7.4,0.5-14.7,1.5-22c0.3-2.5,0.9-5-0.3-7.5c-3.3,0.1-15,3.8-19.9,6.4c-0.1,2.3,0,4.8-0.2,7.4c-0.2,1.9-0.3,3.9-1.1,5.5
		c-1.1,2.5-1.8,5.1-2,7.8c-0.2,4.3-0.4,8.6-0.7,12.9c-0.6,9.1-1.4,18.2-1.8,27.3c-0.3,7.4-0.5,14.7-2.2,22.4
		c-1.8-7.1-1.7-14-1.2-20.9c0.4-5.4,0.6-10.8,0.9-16.3c0.1-2.2,0.1-4.5,0.6-6.7c1.4-6.3,2.1-12.6,1.8-19c-0.2-6-0.1-12.1-0.1-18.5
		c-0.4-0.1-1-0.4-1.6-0.2c-4.1,1.2-8.2,2.5-12.3,3.8c-1.5,0.5-2.1,1.6-2.5,3.2c-1.3,4.8-1.6,9.8-1.8,14.7
		c-0.2,8.5-0.3,16.9-0.8,25.4c-0.3,6.7-1,13.4-1.6,20c-0.1,1.4-0.3,2.9-0.3,4.3c-0.7,19.3-1.5,38.7-2.1,58
		c-1,33.1-1.4,66.2-1.1,99.3c0.2,23,0,46.1,0.2,69.1c0.1,11.2,0.7,22.4,0.8,33.6c0.1,22.4,0.6,44.8-0.5,67.2
		c-0.4,7.5-0.2,15-0.4,22.5c-0.1,3.8-0.4,7.7-0.7,11.5c-0.1,0.8-0.2,1.6-0.5,2.3c-0.4,1.2-2,1.5-2.7,0.5c-1-1.6-2-3.3-2.6-5.1
		c-2.3-6.7-3-13.7-3.8-20.7c-0.2-1.8-0.6-3.7-1.8-5.5c-0.1,0.6-0.3,1.3-0.3,1.9c0.2,9.3,0.6,18.5,0.7,27.8c0,6.7,0.3,13.4,0.8,20.1
		c0.4,6.2,0.3,12.5,0.4,18.7c0.3,14.2,0.6,28.4,0.9,42.7c0,1.6,0,3.2-0.1,4.8c-0.1,1.2-0.5,2.2-2.2,2.4c-0.4-0.7-1-1.5-1.2-2.3
		c-0.2-1.1-0.1-2.2,0-3.3c1.3-8.9,0.8-17.9,0.1-26.8c-0.1-1.4-0.2-2.9-0.2-4.3c0.1-10.2,0.3-20.5,0.4-30.7c0-5-0.3-9.9-0.5-14.9
		c-0.3-10.4-0.7-20.8-0.7-31.1c0-5.8,0-11.5-1.3-17.2c-0.3-1.2-0.6-2.5-0.6-3.8c0.1-7.7-1.4-15.3-3.1-22.8
		c-1.7-7.7-1.8-15.5-2.6-23.3c-0.5-5.1-1.1-10.2-2.1-15.2c-1.2-5.9-1.6-11.7-0.1-17.6c0.3-1.2,0.2-2.6-0.2-3.7
		c-2.9-8.3-2.7-17-2.9-25.6c-0.2-7.5-0.4-15-0.7-22.5c0-1.3-0.2-2.6-0.3-3.8c-0.2-14.5-0.4-29.1-0.7-43.6c-0.3-15.5-0.7-31-1-46.5
		c-0.1-8.3,0-16.6-0.1-24.9c-0.2-14.2-0.6-28.5-0.6-42.7c0-12.5,0.1-25,0.7-37.4c0.6-12.4,1.7-24.9,2.6-37.3c0.1-1.2,0-2.5,0-4.1
		c-3.4-0.1-5.8,1.9-8.5,3c-2.6,1.1-5.2,2.3-7.7,3.3c-1.1,5-1.7,9.7-1.4,14.6c0.4,6.4,0.6,12.8,0.7,19.2c0.1,2.1,0.1,4.2-0.4,6.2
		c-1.4,6-0.9,12.1-0.7,18.2c0.1,1.6,0.1,3.2,0.1,4.8c-0.2,5.4-0.7,10.9-0.7,16.3c0,7.4,0.6,14.7-0.7,22c-0.3,1.7,0,3.5-0.1,5.3
		c-0.1,5.8-0.2,11.5-0.3,17.3c0,1.9-0.1,3.8-0.1,5.8c0,8,0.9,16-0.5,23.9c-0.1,0.6-0.1,1.3-0.1,1.9c0.1,11.8,0.3,23.6,0.4,35.5
		c0,0.2,0,0.3,0,0.5c-0.1,9.4-0.3,18.8-0.3,28.3c0,3.7,0.2,7.3,0.4,11c0.2,4.6,0.4,9.3,0.5,13.9c0,0.7-0.2,1.4-1,2.1
		c-0.1-0.9-0.3-1.7-0.4-2.6c-0.2-6.2-0.3-12.5-0.5-18.7c-0.3-11.5-0.7-23-0.8-34.5c-0.1-11.4,0-22.7,0-34.1
		c0.1-16.5,0.1-32.9,0.3-49.4c0.2-14.7,0.6-29.4,0.7-44.1c0.2-12.8,0.1-25.6,0.2-38.4c0-6.2,0-12.5,0-18.7c0-1.2-0.2-2.5-0.3-4
		c-1,0.2-1.8,0.2-2.5,0.4c-3.9,1.3-7.9,2.7-11.8,4c-3.2,1.1-3.7,1.7-3.8,5.2c0,0.8,0,1.6,0,2.4c-0.1,7.3-0.2,14.7-0.2,22
		c0,4.3,0.3,8.6,0.4,12.9c0.1,3,0,6.1-0.1,9.1c-0.1,6.7-0.2,13.4-0.3,20.1c-0.1,8-0.2,16-0.3,24c0,1.1,0,2.2,0,3.4
		c0,14.9,0.1,29.7,0.1,44.6c0,1.8-0.2,3.5-0.3,5.3c-0.1,1.6-0.4,3.2-0.3,4.8c0.6,8.9-0.1,17.9,0.1,26.8c0.1,5.1,0.2,10.2,0.1,15.4
		c-0.1,9.7-0.3,19.5-0.4,29.2c0,3.2,0.1,6.4,0.2,9.6c0.1,8.5,0.1,16.9,0.3,25.4c0.2,10.1,0.6,20.1,0.9,30.2
		c0.1,4.5,0.4,8.9,0.4,13.4c0,11.5,1,23,2.6,34.4c0.9,6.3,1.8,12.7,2.6,19c0.4,3.6,0.2,7.3-1.2,11.2c-2.1-1.3-2.6-3.2-2.9-5.2
		c-0.5-4.3-1.2-8.6-1.4-12.9c-0.8-14.4-3.3-28.6-5.1-42.8c-1.6-12.7-3.1-25.4-3.7-38.2c-0.3-6.5-1.3-13-2-19.6
		c-0.4-3.6-0.6-7.3-0.9-11c-0.1-0.8-0.2-1.5-0.6-2.3c-0.8,3.4-0.4,6.8-0.5,10.1c-0.1,3.5,0.1,7,0.2,10.6c0.1,3.4,0.1,6.7,0.2,10.1
		c0.1,3.5,0.3,7,0.4,10.5c0.1,3.5,0.1,7,0.1,10.6c0.1,3.5,0.1,7,0.2,10.6c0.1,3.4,0.3,6.7,0.4,10.1c0.1,3.5,0,7,0,10.6
		c0,3.5,0.1,7,0.2,10.6c0.1,3.5,0,7,0.2,10.6c0.1,3.4,0.7,6.7,0.6,10c-0.1,3.3,2,6.7,0,10.1c-2-0.7-2.3-2.1-2.4-3.5
		c-0.9-16-2.1-31.9-1.5-47.9c0.2-4.6,0.5-9.3,0.6-13.9c0.1-1.9-0.1-3.8-0.2-5.8c-0.4-11.5-0.7-23-1.1-34.5
		c-0.2-4.2-0.3-8.3,0.4-12.4c0.4-2.2,0-4.5-0.2-6.7c-1.4-11.2-1-22.4-1-33.5c0-5.7,0.5-11.5,0.5-17.2c0-3-0.4-6.1-0.4-9.1
		c-0.3-13.6-0.6-27.2-0.7-40.8c-0.2-19.4-0.4-38.7-0.5-58.1c-0.1-14.7,0.1-29.4,0.2-44.1c0-5.3-0.2-10.5-0.1-15.8
		c0-1.9,0.3-3.7,0.5-5.7c1.2,0.1,2,0.1,2.9,0.1c1,1.7,0.8,3.5,0.8,5.2c0.1,6.4,0,12.8,0,19.2c0,14.5,0,29.1,0,43.6
		c0,13.8-0.3,27.5-0.1,41.3c0.2,16.5,0.8,32.9,1.3,49.4c0.3,10.7,0.8,21.4,1.4,32.1c0.8,13.9,1.7,27.8,2.6,41.6
		c0.6,8.9,1.4,17.9,2.1,26.8c0.3,4,0.8,8,1.3,11.9c0.2,1.6,0.6,3.1,1.4,4.6c0-4.8,0.1-9.7,0-14.5c-0.2-10.2-0.6-20.5-0.7-30.7
		c-0.3-27.8-0.5-55.7-0.6-83.5c-0.1-37.4-0.1-74.9-0.1-112.3c0-13,0-25.9-0.1-38.9c0-1.4-0.2-2.8-0.3-4c-1.8-1.2-3.2-0.2-4.4,0.3
		c-11.5,5-23.4,8.5-35.4,11.9c-2.4,0.7-4.7,1.9-7.1,2.8c-2.6,0.9-3.8,2.6-3.8,5.4c0.1,5.8,0.1,11.5,0,17.3c0,3.3-0.2,6.7-0.3,10
		c-0.1,3.4-0.2,6.7-0.2,10.1c0,6.7,0.7,13.4-1.1,20c-0.3,0.9-0.3,1.9-0.3,2.9c0.1,6.7,0.3,13.4,0.4,20.1c0,4.8-0.1,9.5-0.6,14.3
		c-1.6-3.3-2.3-6.7-2.3-10.3c0-5.9,0.1-11.8,0.2-17.7c0.1-6.2,0.1-12.5,0.1-18.7c0-1.4,0-2.9,0-4.3c0.5-13.6,1.1-27.2,1.6-40.7
		c0.1-1.6,0-3.1,0-5.2c-1.5,0.2-2.7,0.2-3.8,0.5c-7.1,2.4-14.2,4.8-21.3,7.3c-7.8,2.8-15.6,5.9-23.4,8.6c-5.2,1.8-5.5,1.5-8-3.8
		c2.2-2.9,5.1-4.9,8.3-6.8c10.5-5.9,21.8-10,33.1-13.9c3.4-1.2,6.8-2.8,10.6-2.6c1.5,0.1,3-0.8,4.8-1.4c0.2-2.7,0.5-5.2,0.6-7.7
		c0.1-2.5,0.5-4.8,3.3-6.1c3,2.2,1.8,6.2,3.6,9.1c3,0.3,5.5-1.3,8.2-2.2c6-2.2,11.9-4.7,17.8-6.9c6.6-2.5,13.2-4.8,19.8-7.1
		c1.5-0.5,3.1-0.9,4.6-1c5.1-0.3,9.6-2.1,14.2-4.1c2-0.9,3-2.4,2.9-4.5c0-2.4-0.3-4.8-0.3-7.2c0-2.2,0-4.5,0.5-6.6
		c0.5-2.4,1.5-2.5,4.1-0.8c-0.4,3.3-0.8,6.6-1.2,9.9c-0.1,0.6-0.2,1.3-0.2,1.9c0,3.5,1.2,4.5,4.4,3.4c3.9-1.3,7.7-3,11.7-4.4
		c2.8-1,4-3,4.1-5.8c0.2-2.7,0.4-5.4,0.8-8.1c0.2-1.5,1-3,1.3-4.5c0.3-1.5,0.5-3.1,0.6-4.7c0.2-2.9,0.2-5.8,0.5-8.6
		c0.1-0.9,0.7-1.7,1.2-2.7c1.1,0.4,1.9,0.7,2.8,1c1.4,4.6-0.1,9.1,0.3,13.5c0.5,4.4-1.1,8.8,0.4,13.1c0.9,0.1,1.4,0.3,1.8,0.2
		c4.5-1.2,8.9-2.5,13.4-3.8c1.1-0.3,2-0.9,3-1.4c2.4-1.1,3.6-2.9,3.6-5.7c0.1-4.6,0.3-9.3,0.4-13.9c0-2.1,0-4.1,1.4-5.8
		c1.9-0.2,2.9,0.9,3.2,2.3c0.3,1.5,0.1,3.2,0,4.7c-0.3,4.3-0.6,8.6-0.8,12.9c0,0.3,0.2,0.6,0.5,1.2c3.4,0.2,6.2-1.8,9.3-2.8
		c3.3-1.1,6.7-2.1,10.1-3.1c3.2-1,6.4-2,10.2-3.2c-0.8,1.2-1.2,1.9-2,3c4.7-0.9,8.5-2.7,12.3-4.7c0.7-0.4,1.4-1.4,1.7-2.2
		c1.1-2.8,1.8-5.7,1.5-8.9c-0.4-3-0.5-6.1-0.7-9.1c-0.1-1.5,0.1-3.1,0.2-5.2c1.7,0.6,2.8,0.9,3.7,1.2c0.3,7-1.7,13.7-0.3,20.4
		c2,0.7,3.6,0.1,5.2-0.6c2.6-1.1,5.2-2.4,7.9-3.5c1.1-0.5,2.4-0.8,3.8-1.2c1.9,2.6,3.7,5,5.5,7.6c1.6,0.2,2.9-2.4,5-0.3
		c0,0.2,0.3,0.8,0.3,1.4c-0.2,8.9-0.4,17.9-0.5,26.8c-0.1,6.1-0.5,12.1-0.9,18.2c-0.5,7.6-0.1,15.3-0.1,23c0,2.1,0,4.2,0,6.2
		c-0.1,5.6-0.2,11.2-0.3,16.8c-0.2,8.3-0.5,16.6-0.7,24.9c-0.2,10.4-0.2,20.8-0.3,31.2c-0.1,3.5-0.3,7-0.5,10.5
		c-0.1,1.9-0.3,3.8-0.3,5.7c-0.1,10.9,0,21.8-0.2,32.6c-0.1,5.4-0.4,10.9-0.7,16.3c-0.1,1.4-0.1,2.9-0.2,4.3c0,13,0.3,25.9-0.2,38.9
		c-0.7,17.7-0.4,35.5-0.8,53.2c-0.5,20-0.8,40-1.1,59.9c-0.2,13-0.2,25.9-0.3,38.9c0,3.4-0.1,6.7-0.3,10.1c0,0.9-0.4,1.8-0.6,2.7
		c-2.4-0.9-2.5-2.6-2.4-4.4c0.3-4.3,0.6-8.6,0.9-12.9c0.1-1.4,0.4-2.9,0.2-4.3c-0.6-5,0-9.9,0.3-14.8c0.3-5.1,0.2-10.2,0.2-15.3
		c0-4.2-0.3-8.3-0.1-12.5c0.3-9.4,0.8-18.8,1.1-28.3c0.1-3.7-0.1-7.4-0.1-11c0-10.4-0.6-20.8,0.2-31.2c1.3-14.6-0.2-29.1,0.6-43.6
		c0.3-4.9,0.6-9.9,0.7-14.8c0.1-4.6,0-9.3,0-13.9c0.2-12.5,0.4-24.9,0.5-37.4c0-3.8,0-7.7,0-11.5c0-10.7-0.5-21.5,0.1-32.1
		c1.1-19.2,0.2-38.4,0.7-57.5c0.2-6.7,0.6-13.4,0.7-20.1c0.1-13.7,0-27.5,0-41.2c0-2.4,0.2-4.8,0.2-7.2c0-1.7-0.2-3.4-0.2-5.1
		C286.9,558.1,286.6,558,286.2,557.9z M211.9,586.4c-0.7-0.2-1.2-0.5-1.6-0.4c-6.4,1.9-12.8,3.9-19.2,5.9c-2,0.6-3.1,2.3-3.1,4.4
		c-0.1,3.4-0.1,6.7-0.2,10.1c0,2.6,0.3,5.2-0.2,7.6c-1,4.4-1.1,8.9-1.2,13.3c-0.1,4.3,0.2,8.7-0.6,12.9c-0.9,4.8-1.4,9.5-1.3,14.3
		c0.1,5.3,0.1,10.6,0,15.8c-0.1,2.7-0.7,5.4-1,8c-0.2,2.2-0.8,4.5-0.4,6.6c1,5.1,1.1,10.2,0.3,15.3c-0.2,1.3-0.3,2.6-0.2,3.8
		c1,13.4-0.7,26.8,0.3,40.2c0.1,0.8,0,1.6,0,2.4c0,6.6,0,13.1,0,19.7c0,2.6,0.1,5.1,0.2,7.7c0,14.4,0.6,28.8,1.1,43.1
		c0.3,8.7,2.3,17.4,0.2,26.2c-0.4,1.8-0.1,3.8,0.1,5.7c0.3,2.7,0.8,5.4,1.5,8c0.8,3.1,1.2,6.3,0.6,9.5c-0.3,1.9-0.4,3.8-0.5,5.7
		c-0.1,1.4-0.1,2.5,1.4,3.6c1.4,1,1.8,3.8,0.6,4.8c-2.2,2-1.2,4-1,6.1c0.2,3,0.5,6.1,0.8,9.1c0.2,1.4,0.2,3,0.8,4.2
		c1.8,3.3,1.8,6.7,2,10.2c0.3,7,0.6,14.1,1.2,21.1c1.1,11.9,2.2,23.9,4.6,35.7c2,10.2,4,20.4,6,30.6c0.2,1.1,0.8,2.1,1.3,3.2
		c1-1.5,1.5-2.9,1.5-4.2c0.3-5.4,0.5-10.9,0.6-16.3c0.3-11.8,0.6-23.6,0.9-35.5c0.1-5,0.3-9.9,0.2-14.9c-0.1-8.8-0.5-17.6-0.6-26.4
		c-0.1-9.1-0.1-18.2-0.2-27.3c-0.1-8.6-0.8-17.2-0.2-25.9c0.3-4.5,0.4-9,0.2-13.4c-0.5-10.9-0.9-21.7-0.2-32.6
		c0.4-6.9-0.1-13.7-0.3-20.6c-0.2-9.3,0.2-18.5,0.3-27.8c0.1-3.5,0.2-7,0.2-10.5c0.2-14.1,0.4-28.1,0.5-42.2
		c0.1-3.8,0.1-7.7,0.2-11.5c0.3-10.2,0.5-20.5,0.8-30.7c0.2-6.1,0.8-12.1,1-18.2c0.4-9.7,0.6-19.5,1-29.2c0.2-5.7,0.7-11.5,1-17.2
		C211.6,593,211.8,589.7,211.9,586.4z M204.3,576.6c2.5,0.1,4.8-0.3,7.8-2.1C208.4,573.9,206.2,574.8,204.3,576.6z M181.5,631.6
		c0.3,0,0.5,0,0.8-0.1c-0.1-0.6-0.2-1.2-0.3-1.9c-0.3,0.1-0.7,0.1-0.7,0.2C181.3,630.4,181.4,631,181.5,631.6z M84.9,669.6
		c0.3,0,0.5-0.1,0.8-0.1c-0.1-0.8-0.2-1.7-0.4-2.5c-0.1,0-0.3,0-0.4,0.1C84.9,667.9,84.9,668.8,84.9,669.6z M195.6,578.5
		c0.1,0.2,0.2,0.4,0.3,0.6c0.7-0.3,1.4-0.7,2.1-1c-0.1-0.2-0.2-0.4-0.3-0.7C197,577.8,196.3,578.2,195.6,578.5z M218.8,571.8
		c0.1,0.2,0.2,0.5,0.3,0.7c0.5-0.3,1.1-0.7,1.6-1c-0.1-0.2-0.2-0.3-0.3-0.5C219.8,571.3,219.3,571.5,218.8,571.8z M184.7,627.1
		c0.4-1,0.7-1.3,0.6-1.5c-0.1-0.3,0.3-1.5-0.7-0.7C184.4,625.1,184.7,625.9,184.7,627.1z"/>
	<path d="M1035,404.6c-5.9,2.5-11.7,5.3-17.6,7.5c-8.8,3.3-17.8,6.1-26.7,9.1c-7.6,2.6-15.1,5.2-22.7,7.8
		c-6.5,2.2-13.1,4.2-19.5,6.8c-4,1.6-7.9,3.4-12,4.7c-1.2,0.4-2.4,0.8-3.7,1.1c-0.7,0.1-1.9,0.2-2.3-0.2c-2.2-2.7-5-1.6-7.6-1.3
		c-8.7,0.8-17.5,1.8-26.2,2.7c-4.3,0.4-5.2,1.3-4.9,5.8c0.4,6.2,0.9,12.4,1.4,18.7c0.3,4,0.5,8-0.6,11.9c-0.6,2.2-0.4,4.4,0,6.6
		c0.9,5,1.1,10.1,0.6,15.3c-0.5,5.5,0,11.2,0.1,16.8c0.1,5.4,0.7,10.8-0.9,16.2c-0.4,1.4-0.1,3.2,0.2,4.7c0.8,4.4,0.8,8.9,0.6,13.4
		c-0.3,5.4-0.2,10.9,0,16.3c0.2,5.3,0.6,10.5-0.8,15.7c-0.4,1.5,0.1,3.1,0.2,4.7c0.2,3.5,0.7,7,0.7,10.5c0.1,4.8,0,9.6,0,14.4
		c0,4.6,0.3,9.3,0.3,13.9c0,1.9-0.4,3.8-0.6,5.7c-0.1,0.9-0.2,1.9-0.1,2.8c0.3,3.3,0.7,6.7,0.8,10c0.3,6.7,0.5,13.4,0.7,20.1
		c0.1,4.3,0,8.6,0,13.3c-1.6-0.9-1.7-2.4-1.9-3.6c-0.3-3.3-0.5-6.7-0.6-10.1c-0.3-14.4-0.6-28.8-0.8-43.2c-0.1-11.7-0.1-23.3-0.1-35
		c-0.1-13.8-0.2-27.5-0.3-41.3c-0.1-15.2,0-30.4-0.2-45.6c-0.3-17.3-0.8-34.5-1.3-51.8c0-1.6-0.4-3.1-0.7-5c-2-0.1-3.8-0.1-5.5-0.2
		c-1.3-0.1-2.9,0.6-3.5-1.4c-0.1-0.3-1.1-0.5-1.8-0.4c-1.1,0-2.3-0.1-3.3,0.4c-7.2,3.3-15.1,2.2-22.6,3.4c-3.9,0.6-8,0.3-11.9,0.9
		c-4.6,0.6-9.1,1.7-13.7,2.6c-1.6,0.3-3.1,0.7-4.7,0.9c-0.7,0.1-1.4-0.4-2.4-0.6c0.7-1.2,1.2-2.1,1.8-3.3c-3.2-1-6-0.6-8.8-0.1
		c-3.7,0.6-7.3,0.8-11,0.3c-1.7-0.2-3.5,0.1-5.1,0.7c-5.8,1.8-11.6,3.6-17.7,4.1c-2.1,0.1-4.1,0.1-6.2,0.2c-1.9,0.1-3.8,0.3-5.8,0.4
		c-1.9,2.5-2.2,5.4-2.5,8.2c-0.1,1.1,0,2.2,0,3.4c0.3,5.8,0,11.4-0.8,17.2c-1,7.2-0.6,14.7-0.5,22c0,4-0.4,7.9-0.9,11.9
		c-0.6,4.7-0.6,9.6-0.4,14.3c0.2,3.5,0.2,7-0.1,10.5c-0.4,4.8-0.2,9.6-0.1,14.4c0.1,3.2,0.5,6.4,0.5,9.6c0,3.2-0.3,6.4-0.4,9.5
		c-0.1,4.1-0.2,8.3-0.2,12.4c0,7.2-0.1,14.4,0.1,21.6c0.1,3.8,0.6,7.7,0.7,11.5c0.1,4-0.2,8-0.3,12c0,2.2-0.1,4.5,0.1,6.7
		c0.4,5.4,0.8,10.8,0.6,16.3c-0.1,6.5,0.2,13.1,1,19.6c0.4,3.3,2.1,6.6,4.4,9.3c1.4,1.7,2.8,3.4,4.3,5.2c0.8,1,1.6,2.1,2.6,2.8
		c5.1,3.2,8.7,8,12.9,12.1c2.2,2.1,4.4,4.2,6.6,6.3c0.7,0.7,1.6,1.2,2.1,2c3.8,5.8,9.8,9.1,15.1,13.1c2.4,1.8,4.6,3.9,6.9,5.9
		c3.1,2.7,6.3,5.4,9.4,8.1c2.5,2.2,5,4.5,7.4,6.8c3.9,3.8,7.8,7.6,11.6,11.4c2.6,2.6,5,5.3,7.6,8c0.4,0.5,0.8,1,1.3,1.4
		c3,2.6,6,5.2,9.2,7.6c8.8,6.8,17.8,13.6,26.7,20.3c1.1,0.8,2.1,2.1,3.8,1.5c1-1.3,0.7-2.8,0.4-4.1c-0.6-2.9-0.5-5.7,0.3-8.5
		c0.7-2.8,0.5-5.7,0.3-8.6c-0.4-4.6-0.5-9.2-0.5-13.9c0.1-6.2,0.4-12.4-0.5-18.7c-0.4-2.8,0.1-5.7,0.1-8.6c0-1.9,0.5-3.9,0.1-5.7
		c-1.7-7.4-1.2-15-1.5-22.5c-0.1-3.2-0.3-6.4-0.7-9.5c-0.5-4.4-0.5-7.7,0.7-11.4c0.6,1.4,1.3,2.3,1.3,3.2c0.2,2.9,0.1,5.8,0.2,8.6
		c0.3,5.9,0.6,11.8,0.9,17.7c0.5,11.2,1.8,22.3,0.8,33.5c-0.4,4.4,0.4,8.9,0.7,13.4c0.1,2.1,0.5,4.1,0.5,6.2
		c0.1,6.5,0,13.1-0.1,19.6c0,2.2-0.3,4.5-0.6,6.7c-0.6,4,0.5,7.1,4,9.5c6.2,4.2,12.2,8.8,18.3,13.2c0.3,0.2,0.5,0.4,0.8,0.5
		c1.2,0.8,1.8,1.8,1.4,3.2c-0.3,1-1.7,1-3.4,0.4c-5.3-1.8-10.6-3.6-15.9-5.4c-1.2-0.4-2.5-0.4-4.1-0.6c-0.3,3.9-1.1,7.5-0.8,11.1
		c0.5,6.9-0.1,13.7-0.7,20.6c-0.4,4.9,0.2,9.9,0.5,14.8c0.1,2.2,0.7,4.4,0.7,6.7c-0.2,10.5,0.7,21.1-0.5,31.6
		c-0.2,1.4,0.2,2.8,0.4,4.3c0.1,1.2,0.6,2.5-0.9,3.7c-1.5-0.7-1.8-2.2-1.4-3.5c1-3.7,0.2-7.3-0.2-10.9c-0.2-2.5-0.2-5.1,0.3-7.6
		c0.7-3.5,0.8-7,0.1-10.5c-1.1-5.2-1.2-10.4-0.7-15.7c0.6-5.9,0.6-11.8-0.2-17.7c-0.3-2.8,0.3-5.7,0.5-8.5c0.1-2.2,0.5-4.4,0.4-6.6
		c-0.2-3.8-0.5-7.7-1-11.5c-0.3-2.3-1.1-4.6-1.7-6.9c0.3-0.4,0.6-0.8,0.9-1.1c1.9-2.2,2-3.8,0.2-5.8c-1.1-1.2-2.4-2.1-3.6-3.1
		c-9.7-7.3-19.4-14.6-29.1-21.9c-1.5-1.2-3.2-2.3-4.3-3.8c-6.6-8.4-15.3-14.4-22.9-21.8c-5.1-5-10.8-9.5-16-14.5
		c-4.6-4.5-9.5-8.5-14.8-12.1c-1.2-0.8-2-2-3-3c-1.5-1.6-2.9-3.5-4.7-4.7c-6.4-4.3-11.7-9.9-17-15.4c-4.1-4.3-7.8-8.9-12.7-12.3
		c-0.7-0.5-1.5-1-2.3-1.5c-1.9,1.4-1.8,3.3-1.5,5c1.1,7,0.6,14,0.6,21.1c0.1,6.7,0.6,13.4,0.7,20.1c0.1,3.3-0.4,6.7-0.6,10
		c-0.1,1.3-0.3,2.6-0.1,3.8c1.5,6.8,0.3,13.7,0.6,20.6c0.2,3.5,0.1,7,0.1,10.5c0.1,6.9,0.5,13.7-0.8,20.6c-0.2,1.1-0.2,2.3,0.1,3.3
		c0.8,3.8,0.9,7.6,0.2,11.4c-0.1,0.6,0.1,1.2,0.2,2.1c8.2,2.1,15.4,7,23.7,8.8c3.4,0.7,6.9,1.4,10.4,2c0.7,0.1,1.5,0,2.5-0.1
		c0.1-2.3-1.4-3.3-2.6-4.5c-4.1-4-8.4-7.9-12.4-12c-2.2-2.3-4.1-4.9-6.2-7.3c-2.8-3.1-5.7-6-8.5-9.1c-1.3-1.4-2.6-2.8-3.6-4.4
		c-0.4-0.6-0.1-2.1,0.4-2.5c0.5-0.5,2-0.7,2.6-0.3c1.7,1.4,3.4,2.9,4.8,4.6c4,5,8.1,9.9,11.8,15.1c4.2,5.9,9.9,10.4,15,15.4
		c0.9,0.9,2.3,1.9,2.4,2.9c0.2,2.8,2.1,3.3,4.1,4c3.2,1.1,6.1,2.7,9,4.8c-1.1,3.8,0.8,6.3,3.5,8.7c1.8,1.6,3.4,3.4,4.9,5.3
		c3.7,4.6,7.6,9.1,12.1,13c0.8,0.7,1.8,1.5,2.2,2.5c2,4.1,5.6,6.9,8.6,10.2c2.2,2.5,4.3,5.1,6.5,7.7c1.5,1.8,3,3.6,4.2,6
		c-0.6-0.2-1.5-0.3-1.9-0.7c-2.8-2.6-5.5-5.3-8.2-8.1c-2.8-2.9-5.6-5.8-8.2-8.7c-1.8-2-3.9-3.3-6.5-2.6c-0.5-0.4-0.9-0.5-1-0.7
		c-0.8-3-2.9-4.3-5.7-5.1c-9.7-2.7-19.4-5.2-29.4-6.6c-5.2-0.7-10.4-1.7-15.5-2.9c-3.7-0.9-7.2-1.2-10.9-0.4
		c-0.5,0.1-0.9,0.3-1.4,0.3c-1.8,0.1-2.4-0.6-2.4-2.6c0-0.5,0.3-0.9,0.5-1.6c0.9-0.2,1.8-0.5,2.7-0.5c8.1,0.6,16.3,0.6,24.3,2.4
		c1.9,0.4,3.8,0.7,5.5,1.5c2.5,1.2,5.2,1.8,7.9,1.8c4.4,0.1,8.5,1,12.7,2.3c1.6,0.5,3.2,1.6,5.3,0.3c-0.5-0.8-0.9-1.7-1.5-2.3
		c-2.7-3-5.4-5.9-8.1-8.9c-1.6-1.8-3.1-3.7-4.4-5.6c-1.6-2.4-3.6-4-6.4-4.8c-3.2-0.8-6.5-1.5-10.2-2.4c2.1-0.2,3.7-0.4,5.4-0.6
		c0-0.2,0.1-0.4,0.1-0.6c-1.1-0.4-2.3-1-3.4-1.1c-4.1-0.3-8.3-0.6-12.4-0.6c-2.6,0-5-0.7-7.4-1.6c-4.5-1.7-9-3.2-13.2-4.7
		c-2,0.9-1.9,2.5-2,3.9c0,2.7,0.2,5.4,0.1,8.2c-0.2,5.6-0.6,11.2-0.7,16.7c-0.1,2.5,0.2,5.1,0.2,7.6c0.1,2.4,0.2,4.8,0.2,7.2
		c0,4-0.2,8-0.3,12c0,0.4,0.3,0.9,0.6,1.5c3,0,4.9-2.1,6.9-3.7c2.8-2.4,5.5-4.9,8.3-7.3c1.2-1.1,2.5-2,4.4-1.5
		c0.4,1.1,0.9,2.2,1.4,3.3c-7.5,4.7-14.1,10.3-20.7,16c-0.4,7.4-0.7,14.7-1.1,22c2,7.5-0.2,15.3,2,23.1c1.3-0.3,2.6-0.9,3.7-0.7
		c0.9,0.2,1.7,1.2,2.8,2c2.6-2.1,5.3-4.2,7.8-6.4c4.2-3.7,8.5-7.3,13.4-10c1-0.5,1.9-1.1,2.8-1.9c3-2.6,5.8-5.3,8.9-8.2
		c-0.5-0.3-0.9-0.9-1.5-1c-5.2-0.9-10.4-1.7-15.7-1.4c-1.1,0.1-2.2,0.4-3.3,0.6c-2.5,0.6-5,0.6-7.5,0.1c-1.2-1.7-0.2-3.1,0.3-4.5
		c9.3-1.8,27.6-0.2,39.3,3.6c-1.2,0.3-2,0.5-2.8,0.7c-0.2,0.2-0.4,0.4-0.6,0.6c0.4,0.1,0.8,0.2,1.3,0.3c4.7,0.9,9.4,1.6,14.1,2.6
		c5.4,1.2,10.8,2.6,16.3,4c0.6,0.2,1.4,0.4,1.6,0.9c1.5,2.4,3.7,2.5,6.2,2.7c2.2,0.1,4.4,0.8,6.4,1.6c6.3,2.4,12.4,5.1,18.7,7.5
		c2.7,1,5.5,1.5,8.3,2.3c4.1,1.2,8.3,2.5,12.3,3.9c1.9,0.6,2.6,2.3,2.4,4.2c-0.1,0.9-1.2,1.7-2.1,1.4c-0.4-0.1-0.9-0.4-1.3-0.6
		c-3.1-1.3-6.1-2.9-9.2-4c-12.7-4.3-25.4-8.6-37.9-13.6c-4.7-1.9-9.7-3.2-14.6-4.8c-1.8-0.6-3.6-1.2-5-2.7c-0.7-0.8-1.9-1.3-2.9-1.5
		c-5.4-0.9-10.7-1.5-15.9-2.3c-6.7,5.1-13.4,10.1-19.9,15.2c-3.7,2.8-7.2,5.9-10.7,8.8c-4.8,4-9.6,7.9-14.8,12.3c0,2.7,0,5.9,0,9.1
		c0,1.4,0,2.9-0.3,4.3c-0.4,2.1-0.3,4.1,0.5,6.1c1.2,3.1,0.9,6.3,0.7,9.5c-0.5,7.8-0.1,15.6,0.6,23.4c0.3,3.3,0.4,6.7,0.5,10
		c0,0.6-0.3,1.1-0.5,1.8c-3.8-1.7-4.2-2.1-3.3-5.2c0.8-2.9,0.4-5.7,0.1-8.6c-0.5-4.3-1.2-8.5-1.8-12.8c-0.4-3.2-1-6.3,1-9.3
		c0.5-0.7,0.5-1.8,0.5-2.8c0.1-4.3,0.1-8.6-0.3-12.9c-0.7-7.5-1.7-14.9-1.4-22.5c0.2-3.7-0.4-7.3-0.5-11c-0.4-9.7-0.7-19.5-1-29.2
		c-0.1-1.6,0.1-3.3-0.5-4.7c-1-2.4-0.5-4.6,0-6.9c0.4-1.7,0.8-3.4,0.8-5.1c0.2-7.3,0.3-14.7,0.2-22c0-5.4-0.2-10.9-0.4-16.3
		c0-1.3,0-2.6,0-3.8c0.3-8.3,0.8-16.6,1-24.9c0.1-8.6-0.2-17.2-0.1-25.9c0-4.8,0.3-9.6,0.4-14.4c0.1-7,0.1-14.1,0.1-21.1
		c0-3.8-0.4-7.7-0.4-11.5c-0.1-14.7-0.1-29.4-0.2-44.1c0-0.6-0.1-1.3,0-1.9c0.2-3.3-0.3-6.3-3.5-8.1c-0.1-1.7,0.1-3.3,1.3-4.1
		c1.5-1,1.6-2.3,1.5-3.7c-0.4-15.2-0.8-30.4-1.1-45.6c-0.2-10.7-0.3-21.4-0.4-32.1c-0.2-12.8-0.4-25.6-0.5-38.4
		c0-5.6,0.2-11.2,0.3-16.8c0.2-10.7,0.1-21.4,0.6-32.1c0.7-15.3,1.9-30.6,2.9-45.9c0.2-2.8,1.2-5.7-0.2-8.5c-3.5-1.1-7.4,0-10.9-2.5
		c1.1-0.3,2-0.6,4.1-1.2c-4-0.8-7-0.9-9.9-0.6c-3.8,0.3-6.5-1.5-9-3.8c-2.3-2-1.3-5.1,1.6-5.9c0.8-0.2,1.6-0.3,2.4-0.3
		c4.8-0.2,9.6-0.3,14.4-0.7c2.5-0.2,5-0.8,7.5-1.3c0.6-0.1,1.3-0.4,1.6-0.9c0.4-0.4,0.6-1.2,0.5-1.7c-0.1-0.5-0.8-1-1.3-1.1
		c-0.8-0.2-1.6,0-2.4,0c-1.4-0.1-3,0.1-4.3-0.4c-4.5-1.5-9-3.3-13.5-4.9c0.9,0,1.8,0,3,0c-3.2-2.1-3.2-2.1-6.1-1.8
		c-0.7-0.6-1.4-1.4-2.2-1.8c-3.7-1.6-7.4-3.1-11.1-4.5c-4.5-1.7-9.1-3.1-13.5-4.9c-4.3-1.8-8.4-3.9-12.7-5.9c-1.5,0.3-3.2,0.7-5,1.1
		c-1.2,1.3-0.8,2.9-0.8,4.5c-0.3,13.7-0.8,27.5-0.9,41.2c-0.2,13.4,0,26.9-0.1,40.3c-0.3,23.8-0.7,47.6-1,71.4
		c-0.1,9.9,0,19.8-0.1,29.7c-0.3,27.5-0.8,55-1.1,82.5c-0.2,14.7-0.1,29.4-0.2,44.1c-0.1,17.4-0.2,34.9-0.4,52.3c0,4-0.3,8-0.4,12
		c0,4.8,0.2,9.6,0.1,14.4c-0.1,7.7-0.3,15.3-0.4,23c-0.1,11.5-0.2,23-0.3,34.5c-0.1,12,0.2,24-0.3,36c-0.3,7.8-0.3,15.6,0,23.4
		c0.1,2.2,0,4.5,0,6.7c-0.3,13.6-0.7,27.2-0.8,40.7c-0.1,10.2,0.1,20.5,0,30.7c-0.1,6.7-0.4,13.3-1.4,20.2c-0.3-0.6-0.6-1.2-0.8-1.9
		c-2.2-7.7-0.7-15.6-0.7-23.4c0-0.8,0.3-1.6,0.1-2.4c-1.2-6.4-0.3-12.7,1-19c1-4.8-0.1-9.5-0.6-14.3c-0.3-2.5-0.3-5.1-0.2-7.6
		c0.2-6.1,1-12.1-0.1-18.2c-0.3-1.8-0.3-3.9,0.2-5.7c2-7.6,1.9-15.2,0.6-22.8c-0.4-2-0.3-4.1-0.3-6.2c0.2-4.6,0.4-9.3,0.7-13.9
		c0-0.5,0.1-1,0-1.4c-1.4-6.1-0.3-12.1,0.6-18.1c0.9-5.8,0.1-11.5-0.6-17.2c-0.2-1.6-0.4-3.2-0.4-4.8c0.2-4.9,0.6-9.9,0.8-14.8
		c0.1-1.6,0.1-3.2-0.3-4.8c-0.7-2.7-0.5-5.4-0.1-8.1c1.4-8.1,1.4-16.1,0.5-24.3c-0.6-5.7,0.1-11.5,0.2-17.2c0-2.5,0-5.1,0-7.6
		c0-3-0.2-6.1,0.2-9.1c1-7.5,0.8-14.9,0.2-22.5c-0.5-5.7,0.1-11.5,0.2-17.2c0-1,0.4-1.9,0.2-2.9c-1.1-7.7,0.5-15.3,0.6-23
		c0.1-3.4,0-6.7-0.4-10.1c-0.8-6.1-0.4-12.1-0.1-18.2c0.1-1.9,0.2-3.8,0.3-5.7c0.1-4.6-0.1-9.3,0.2-13.9c0.4-5.6,0.4-11.1,0.2-16.7
		c-0.3-7.3-0.1-14.7,0-22c0.2-10.7,0.8-21.4,0.5-32.1c-0.5-15.8-0.1-31.6,0.7-47.4c0.2-4.5-0.4-8.9-0.4-13.4c0-11.4-0.5-22.7,0.2-34
		c0.6-10.3,0.1-20.4,0.1-30.7c0-12.1,0.4-24.3,0.5-36.4c0-1.4-0.2-2.8-0.3-4.3c-0.1-1.6-0.5-3.2-0.4-4.7c0.2-3.6,2-5.1,5.7-4.9
		c2.8,0.1,5.4,1.3,7.3,3.2c2.3,2.2,4.9,3.5,7.6,4.9c3.6,2,7.3,4,10.9,6.1c0.7,0.4,1.3,1,1.9,1.4c1.5,1.2,2.8,2.6,4.4,3.5
		c7.3,4,14.9,7.3,22.7,10.1c1.7,0.6,3.4,0.9,4.2,2.8c3.3,0.3,6.6,1.2,10,0.2c0.9-0.3,1.8-0.2,2.8-0.3c2,2.6,0.2,5.5,0.8,8.2
		c0.3,0.2,0.6,0.6,1,0.8c2.7,1.3,3.1,3.2,0.7,4.2c-2.6,1.1-2.7,2.8-2.7,4.9c0,0.9,0.1,1.9,0.1,3.1c3.3,1.1,6.6,1.3,9.9,0.8
		c7.1-1.1,14.2-2.2,21.3-3.4c10.6-1.8,21.1-3.3,31.9-3.6c4-0.1,7.9-0.7,11.9-1c7.3-0.6,14.7-1.1,22-1.8c2.1-0.2,4.1-0.8,6.1-1.2
		c5.8-0.9,11.6-1.9,17.5-2.7c3.5-0.5,7-0.7,10.5-1.1c3.6-0.4,6.4,0.6,6.9,4.8c1.9,0.2,3.6,0.5,5.4,0.5c4.5,0,8.9,0,13.4-0.3
		c2.5-0.2,5-1,7.5-1.3c3.3-0.5,6.6-1.1,9.7-2.4c3.1-1.2,6.4-2.1,9.5-3.1c3.1-0.9,6.1-1.9,9.2-2.8c2.9-0.9,5.9-1.6,8.7-2.7
		c7.5-2.9,15.1-5.3,23-6.5c3.2-0.5,6.1-1.9,8.9-3.5c3.1-1.7,6.3-3.2,9.8-3.6c1.1-0.1,2.3-0.4,3.2-1c5.5-3.5,11.8-4.8,17.8-7.1
		C1032.4,404.1,1033.7,404.4,1035,404.6z M739.7,441.6c1.3,2.8,3.5,3.1,5.4,3.6c5.6,1.7,11.3,3.1,17.2,1.4c0.7-2.3,1.5-4.3,0.6-6.8
		C755.2,439.9,747.7,439.9,739.7,441.6z M906.6,808.9c-2.8-3.3-4.9-5.6-8.5-6.2c-0.2,2.5-0.2,3.3,0.4,3.8
		C900.5,808.1,902.8,808.9,906.6,808.9z M701.3,402c-4-3.5-4-3.5-7.4-2.5c1.6,2.3,3.5,3.9,5.6,5.5C700.3,403.8,700.7,403,701.3,402z
		 M774,846.7c6.8,1.3,8.4,1.3,11.8-0.6C781.8,845.1,778.4,844.6,774,846.7z M888.1,438.6c-3.8-0.9-7,0.6-10.3,1.1
		C883.8,440.3,885,440.2,888.1,438.6z M898.2,437.8c-2.5-1.1-3.9-1-5.7,0.1C894.3,439.3,895.8,439,898.2,437.8z"/>
	<path d="M1018.8,434.6c0.6-0.8,1.5-1.5,1.6-2.3c0.3-2,1.8-2.6,3.3-3.1c3.5-1.2,5.7,0.1,5.9,3.9c0.2,3.5,0.1,7,0,10.6
		c-0.2,6.4-0.6,12.8-0.7,19.2c-0.4,14.5-0.7,29.1-1,43.6c-0.4,15-0.8,30-1.2,45.1c0,1.5,0.2,3.1,0.3,4.8c1.8,0.1,3.2,0.2,4.6,0.3
		c0.2,0.2,0.5,0.4,0.6,0.7c0.2,0.9,0.3,1.9,0.4,3.1c-2,0.5-3.9,1.1-6.2,1.7c-0.9,38.9-1.8,77.6-2.7,116.2c0,1.1,0.3,2.2,0.5,3.7
		c3.6,1.1,7.3,2.2,11.2,3.4c0.4-1.3,0.9-2.3,0.9-3.3c0.2-2.7,0.2-5.4,0.3-8.1c0.2-16.5,0.1-32.9,0.7-49.4
		c0.6-15.8,0.3-31.6,0.7-47.5c0.3-14.1,0.6-28.1,0.8-42.2c0.2-12.1-0.2-24.3,0.4-36.4c1-20.8,0.2-41.6,0.9-62.4
		c0.2-6.1,0.9-12.1,0.2-18.2c-0.3-2.4,0.7-3.9,1.7-4c1.1-0.1,2.1,1.5,1.7,4.3c-0.5,3.5-0.4,7-0.5,10.5c-0.4,17.9-0.7,35.8-1.1,53.7
		c-0.3,19-0.6,38.1-1,57.1c-0.6,35.3-1.3,70.7-2,106c-0.4,21.1-0.6,42.2-1,63.3c-0.3,18.7-0.7,37.4-1.1,56.1
		c-0.3,20.1-0.3,40.3-1,60.4c-0.5,15.3-0.1,30.7-0.8,46c-0.6,13.6-0.2,27.1-0.7,40.7c-0.1,3-0.4,6.1-0.6,9.1
		c-0.1,1.1-0.2,2.2-0.2,3.3c0.8,14.6,0.4,29.1-0.7,43.6c-0.4,5.2,0.2,10.5,0.2,15.8c0,8.3-0.1,16.6-0.2,24.9c0,0.5,0.1,1.1-0.1,1.4
		c-0.5,0.5-1.1,1-1.8,1.2c-0.2,0.1-1-0.8-1-1.3c-0.1-3-0.2-6.1-0.1-9.1c0.3-12.5-0.1-24.9,1.1-37.4c0.1-1.3,0.2-2.6,0.2-3.8
		c-0.1-6.6-0.3-13.1-0.2-19.7c0-5.8,0.4-11.5,0.5-17.2c0.2-10.5,0.3-21.1,0.4-31.6c0.1-3.8,0.2-7.7,0.3-11.5
		c0.1-7.5,0.2-15,0.4-22.5c0.3-11,0.7-22,0.9-33.1c0.2-8.1,0-16.3,0.1-24.4c0.1-7,0.5-14.1,0.7-21.1c0.2-7.5,0.2-15,0.3-22.5
		c0.1-5.6,0.1-11.2,0.3-16.8c0.3-12.8,0.7-25.6,0.9-38.3c0.1-3.8,0.5-7.6-0.4-11.6c-3.8-1.1-7.6-0.6-11.2-0.4
		c-1.6,1.4-1.3,3.1-1.3,4.6c-0.2,9.1-0.4,18.2-0.6,27.3c-0.2,9.9-0.3,19.8-0.6,29.7c-0.3,10.4-0.7,20.8-0.9,31.2
		c-0.2,8.8-0.2,17.6-0.2,26.4c0,2,0.6,4.1,0.8,6.1c0.1,0.6,0.4,1.4,0.1,1.8c-1.9,2.9-1.2,6.2-1.3,9.3c-0.1,1.2-0.3,2.5-0.4,3.6
		c-1.9,0.6-3,0.1-3.1-1.5c-0.1-1.6,0.2-3.2,0.3-4.8c0.1-1.1,0.3-2.2,0.2-3.3c-0.1-1.5-0.9-2.4-2.5-2.4c-7.7-0.3-15.3-1.6-22.6-3.6
		c-7.9-2.2-16.1-4.2-22.6-9.8c-2.3-2-4.8-4.1-8.2-4.4c-0.6-0.1-1.2-0.4-1.8-0.7c-1.3-0.7-1.3-2.3-0.1-3.2c0.8-0.5,1.7-0.8,2.8-1.3
		c0.1-1.5,0.3-3.1,0.4-4.7c0.2-3.3,0.4-6.7,0.5-10.1c0.1-1.1,0.2-2.2,0.1-3.4c-1.1-13.6-0.5-27.1-0.5-40.7c0-2.7,0.3-5.4,0.3-8.1
		c0-3-0.1-6.1-0.2-9.1c0-1.4-0.1-2.9-0.1-4.3c0.2-14.2,0.4-28.4,0.5-42.7c0.1-7.4-0.1-14.7-0.1-22.1c0-27.5-0.1-55-0.1-82.5
		c0-5,0.2-9.9,0.3-14.9c0-1.4,0.1-2.9,0.1-4.3c-0.1-16.5-0.2-32.9-0.3-49.4c0-10.2,0-20.5,0-30.7c0-2.6-0.3-5.1-0.4-7.7
		c-0.1-2.2,0.2-4.4,1.7-6.2c2.1,0,2.7,1.4,3,2.7c0.3,1.4,0.1,2.9,0,4.3c-0.1,1.1-0.4,2.2-0.4,3.3c0,6.2,0.1,12.4,0.1,18.7
		c-0.1,3.8-0.5,7.6-0.6,11.5c-0.2,4.3-0.3,8.6-0.2,12.9c0.2,14.1,0.5,28.1,0.6,42.2c0,5.6-0.5,11.2-0.7,16.7
		c-0.1,2.2-0.1,4.5,1.4,6.6c2.9-2.2,5.8-4.3,8.8-6.4c0.8-0.5,1.6-1,2.5-1.3c11.6-2.9,23.4-5.3,35.4-6.1c2.7-0.2,5.3-0.7,8.2-1.1
		c0.2-1.3,0.6-2.4,0.6-3.5c0.5-12.8,0.9-25.6,1.3-38.4c0.1-4.8-0.1-9.6-0.1-14.4c0-14.7,0.6-29.4,1.2-44.1
		c0.3-7.2-0.2-14.4-0.4-21.6c0-0.6-0.4-1.2-0.6-2C1022.8,433.8,1020.7,434.2,1018.8,434.6L1018.8,434.6z M989.9,676.3
		c0.5,0.1,1,0.1,1.4,0.2c7,0.8,13.9,1.5,20.6,4.1c2.8,1.1,5.9,1.2,9.1-0.8c0-2.4,0-4.9,0-7.5c0.2-11.7,0.5-23.3,0.8-35
		c0-2.2,0.1-4.5,0.2-6.7c0.2-4.5,0.4-8.9,0.5-13.4c0.4-14.2,0.7-28.4,1-42.7c0.1-2.9,0.2-5.8,0.1-8.6c0-1.1-0.4-2.1-0.7-3.6
		c-6.7,1.2-13.1,2.2-19.5,3.7c-6.3,1.4-13,0.9-19.1,3.1c-0.5,4.7-0.5,4.9-4.5,5.9c-2.8,0.7-5.6,1-8.5,1.5c-1.4,0.2-2.9-0.1-4.2,1.6
		c0,2.4,0,5.1,0,7.8c0,7,0.1,14.1,0.1,21.1c0,0.5-0.1,1-0.1,1.4c-0.2,4-0.6,8-0.6,12c0,12.3,0.1,24.6,0.1,36.9
		c0,6.2-0.3,12.5-0.3,18.7c0,9.4,0.2,18.9,0.2,28.3c0,10.1-0.2,20.1-0.2,30.2c0,13.1,0.1,26.2,0.1,39.3c0,6.2,0.1,12.5-0.1,18.7
		c-0.1,2.7,0.9,4.6,3,6.1c4.5,3.4,9.5,6,14.7,8c8.3,3.1,16.9,4.7,25.7,5.8c2.3,0.3,4.7,0.7,7.4-0.6c0.7-4.3,1.1-8.8,0.8-13.2
		c-0.5-10.6,0.9-21.1,1.1-31.6c0.1-7.3,0.2-14.7,0.4-22c0-0.3-0.1-0.6-0.1-1c0-3.3,0-6.7,0.1-10c0.1-2.2,0.4-4.5,0.5-6.7
		c0.3-10.4,0.5-20.8,0.7-31.1c0-2.4,0.3-4.8-0.9-7.3c-4.7-0.9-9.6-1.9-14.5-2.3c-3.8-0.3-7.6-0.6-11.4-1.2c-4.6-0.6-9.2-0.7-13.8,0
		c-3,0.4-6.1,0.4-9.1,0.5c-1.2,0-2.3-0.3-2.5-1.7c-0.2-1.4,0.6-2.4,1.9-3c0.6-0.2,1.2-0.5,1.8-0.5c6.4-0.3,12.7-1.4,18.9-0.9
		c1,1,0.8,2.8,2.6,2.8c1.3,0,2.8,0.7,4.1-1C995.1,679.7,993.2,677.1,989.9,676.3L989.9,676.3z"/>
	<path d="M721,816.4c-4.8,2.1-9.8,3.9-15,4.4c-6,0.7-8-1.5-6.8-7.5c0.5-2.3,0.5-4.3-0.1-6.5c-0.4-1.5-0.3-3.2-0.3-4.8
		c0-8.8,0-17.6,0.2-26.4c0.2-7.2,0.7-14.4,1-21.5c0.5-10.4,1.1-20.7,1.4-31.1c0.3-8.8,0.2-17.6,0.2-26.4c0-2.5-0.5-5.1-0.8-7.6
		c-0.2-1.4-0.5-2.7,0-4.2c0.5-1.4,0.4-3.1,0.4-4.7c0.1-5.8,0-11.5,0.1-17.3c0.2-7.5,0.7-15,0.7-22.5c0.2-14.1,0.2-28.1,0.2-42.2
		c0-20-0.1-40-0.1-59.9c0-9.7,0.4-19.5,0.4-29.2c0-4.8-0.3-9.6-0.3-14.4c0.1-7.7,0.4-15.3,0.4-23c0.1-9,0-17.9,0-26.9
		c0-1.6-0.1-3.3,0.4-4.7c1.5-4.5,4.6-6.3,9.3-5.3c2.3,0.5,4.6,1.5,6.6,2.7c5,3.1,10.2,6.1,14.7,9.8c5.6,4.7,10.7,10.1,13.4,17.2
		c0.4,1.2,1.1,2.3,1.8,3.4c1.3,2.1,1,3.9-0.7,6c-2.4-2.9-2.3-7.2-5.9-9.7c-0.4,1.3-0.8,2.2-0.9,3.2c-0.4,5.9-0.7,11.8-1.1,17.7
		c-0.2,2-0.9,4-1.3,6c-0.3,1.4-0.4,2.8-0.5,4.3c-0.2,8.5-0.2,16.9-0.5,25.4c-0.3,7.5-1,15-1.4,22.5c-0.2,3.7-0.2,7.3-0.3,11
		c-0.1,3.4-0.1,6.7-0.1,10.1c0,2.5-0.3,5,1.6,7.3c0.9,1,1.1,2.8-0.2,4c-1.3,1.2-1.3,2.8-1.4,4.4c-0.1,1.1-0.1,2.2-0.1,3.4
		c-0.3,11.7-0.4,23.3-0.8,35c-0.7,18.9-1.7,37.7-2.5,56.5c-0.1,3.5,0,7,0,10.7c1.3,1.2,4.1,1.6,2.8,4.8c-0.9,0.5-2,1.1-3.4,1.9
		c-0.2,4.4-0.5,8.8-0.5,13.3c-0.1,16.3-0.1,32.6,0,48.9c0,7.3,0.5,14.7,0.8,22c0.2,6.5,0.2,13.1,0.5,19.6c0.1,2.9,0.7,5.7,1.1,8.5
		c0.5,3.1,1.3,6.2,0.3,9.9c-5-2.1-8.9,1.6-13.4,2c0.8-0.7,2.1-1.3,2.4-2.2c0.8-3,3.2-3.7,5.6-4.6c0.5-0.2,1-0.7,1-0.8
		c0-4.6,0.1-8.8,0-12.9c-0.2-8.9-0.6-17.9-0.8-26.8c-0.2-8-0.2-16-0.2-24c-0.1-8.9-0.2-17.9-0.1-26.8c0-7.2,0.4-14.4,0.5-21.6
		c0-1.7,0.3-3.5-0.9-5.1c-1.9-0.6-4.2,0-5.6-2.1c-0.3-0.5-1.5-0.6-2.2-0.5c-5.1,0.3-10.1,0.7-15.5,1.7c-0.1,1.8-0.3,3.3-0.3,4.9
		c0,6.4,0.1,12.8,0.1,19.2c0.1,14.5-0.1,29.1-2.4,43.5c-0.2,1.4,0,2.9,0,4.3c0,14,0,28.1,0.1,42.1c0,0.7,0.2,1.5,0.3,2.8
		c1.6-0.9,2.8-1.5,4-2.2c2.1-1.2,4.1-2.5,6.2-3.6c3.1-1.5,6.6-2.4,9.3-4.7c1.3-1.1,2.8-0.1,3,1.7c0.2,1.8-0.4,3.2-2.1,3.9
		c-1.3,0.6-2.7,0.9-4.1,1.3c1-0.9,2-1.8,3-2.7c-4.3,0.4-8.3,1.1-12.5,4.3c3.9-0.7,6.7-1.1,9.6-1.6c-3.7,1.8-7.5,3.4-11.2,5.5
		c-1.9,1.1-3.5,2.7-5.1,4.3c-0.6,0.6-0.6,1.6-0.8,2.3c1.4,1.5,2.8,1.2,4.3,1.2c1.7-0.1,3.5-0.3,5.2-0.1
		C714.8,817.6,717.9,817.5,721,816.4z M732.6,568.6c0.2-1.5,0.5-2.2,0.5-3c0.4-9.4,0.7-18.8,1-28.3c0.3-11.2,0.5-22.4,0.8-33.5
		c0-1.3,0.2-2.5,0.3-3.8c1.2-13.4,2.8-26.7,2.4-40.2c0-1.1,0-2.4-0.6-3.2c-2.5-3.1-4.9-6.5-8-8.8c-4.3-3.2-9.2-5.8-14-8.2
		c-5.6-2.7-8.1-0.9-8.1,5.2c0,4.1,0,8.3,0,12.4c-0.1,12.5-0.3,24.9-0.4,37.4c-0.1,10.7-0.2,21.4-0.3,32.1c0,2.2-0.1,4.5-0.1,6.7
		c-0.1,2.2-0.3,4.5-0.3,6.7c0,3.7,0.2,7.3,0.2,11c0,3.5,0.2,3.9,3.9,5c2.7,0.8,5.3,1.6,7,3.9C720.7,565,726.7,566,732.6,568.6z
		 M707.2,559.9c-1.2,2.6-1.5,4.8-1.5,7.1c0,14.5,0.1,29.1-0.1,43.6c-0.2,13.2,0,26.5-0.9,39.7c-0.7,10.2-0.1,20.4-0.1,30.7
		c0,0.8,0,1.6,0.1,2.4c0.3,2.5,1,3.4,3.5,3.9c6.4,1.3,12.7,0.6,19-0.5c1.5-0.3,2.2-1.2,2.4-2.6c0.1-0.8,0.2-1.6,0.2-2.4
		c0.4-7,0.8-14,1.1-21c0.4-9.4,1-18.8,1.2-28.2c0.4-18.2,0.6-36.4,0.9-54.6c0-1.1-0.3-2.1-0.4-3.1
		C724.1,569.7,716.6,563.7,707.2,559.9z"/>
	<path d="M1046.4,1042.9c-1.7-1.2-3.4-2.3-4.9-3.7c-2.9-2.6-6.1-4.7-10-5.4c-5.9-1-11.2-3.7-16.7-5.9c-5.9-2.4-11.7-5.1-17.4-7.9
		c-3.7-1.8-7.2-4.2-10.7-6.3c-1-0.6-1.9-1.3-2.9-1.7c-7.4-2.7-14-7-20.9-10.6c-3.3-1.7-6.7-3-10.2-4.2c-1.2-0.4-2.8-0.1-4.2-0.1
		c-5.4-5.4-12.9-6.5-17.9-2.6c0.2,1.9,1.9,2.5,3.3,3.1c2.7,1.3,5.6,2.3,8.4,3.4c1.5,0.7,2.8,1.6,2.7,3.6c-0.1,2.2-1.8,3.3-3.5,2
		c-4.3-3.3-8.8-6.5-12.7-10.2c-2.2-2.1-4.3-3.2-7.2-2.8c-4,0.5-7.9,1.2-11.8,1.9c-2.7,0.4-5.3,1.2-8,1.4c-8,0.4-16,0.6-23.8,0.9
		c-0.4-0.8-0.7-1.8-1-1.8c-3.9-0.3-7.9,0-11.2,1.8c-5.2,2.9-10.8,3.6-16.5,4.5c-1.1,0.2-2.1,0.5-3.2,0.8c-4,1.2-7.9,2.3-12.3,3.6
		c-0.2-2.4,0.7-3.4,2.4-3.8c3.9-1,7.7-2,11.6-2.9c6.2-1.4,12.4-3,18.7-3.9c7.2-1.1,14.5-2.3,21.9-1.4c1.6,0.2,3.2-0.1,4.7-0.3
		c4.1-0.3,8.3-0.7,12.4-1c7.5-0.5,14.9-1.2,22.1-3.7c4.7-1.6,9.6-2.3,14.6-1.3c1,0.2,2.2,0,3.3,0c1.5-2.1,1.3-4.4,1.3-6.6
		c0.2-7.3-0.2-14.7,0.5-22c0.9-8.1,0.4-16.3,1.2-24.4c0.4-4.5,0.7-8.9,1.4-13.3c1.9-12.2,1.7-24.5,1.6-36.8c-0.1-12.9,0-25.9,0-38.9
		c0-4.5-0.5-8.9-0.6-13.4c-0.2-12.9-0.2-25.9-0.5-38.8c-0.1-4.9-0.6-9.9-0.8-14.8c-0.4-13.6-0.5-27.2-1-40.7
		c-0.3-8.9-1.1-17.9-1.6-26.8c-0.3-6.9-0.5-13.7-0.7-20.6c-0.2-5.3-0.5-10.5-0.8-15.8c-0.5-8.5-1.1-16.9-1.6-25.4
		c-0.8-14.5-1.4-29.1-2.2-43.6c-0.4-7-1.1-14-1.4-21c-0.2-4.6-0.2-9.3-0.2-13.9c0-20.8-0.1-41.6-0.1-62.4c0-2.6,0.3-5.1,0.4-7.7
		c0-0.5,0.1-1,0.1-1.4c0-7.8,0-15.6-0.1-23.5c-0.1-4.8,0-9.6-0.6-14.3c-0.4-3.4-0.4-6.7-0.2-10c0.1-1.2,0.5-2.5,1-3.6
		c0.3-0.5,1.3-1.1,1.9-1c0.6,0.1,1.3,0.9,1.5,1.5c0.3,0.9,0.2,1.9,0.2,2.9c-0.2,14.7-0.4,29.4-0.5,44.1c-0.1,8-0.2,16-0.3,24
		c-0.1,20.5-0.2,40.9,0,61.4c0.1,10.4,0.9,20.8,1.5,31.1c0.1,1.9,0.3,3.8,0.4,5.7c0.9,17.2,1.9,34.5,2.7,51.7
		c1,21.9,2,43.8,2.9,65.6c0.6,13.1,1.2,26.2,1.6,39.3c0.4,12.6,0.6,25.3,0.9,37.9c0.3,13.1,0.7,26.2,1.1,39.3c0,1.4,0.2,2.9,0.2,4.3
		c0,17.3,0.2,34.5-0.1,51.8c-0.1,5.9-1.2,11.8-1.8,17.6c-0.6,6.4-1.5,12.7-1.8,19.1c-0.6,12.4-0.9,24.9-1.2,37.4
		c-0.1,2.7,0.4,5.4,0.7,8.1c2.9,2,5.7,4,8.7,5.9c0.7,0.4,1.5,0.7,2.2,0.9c4.5,0.8,8.4,2.9,12.2,5.3c9.4,5.9,19.5,10.3,29.3,15.4
		c5.7,2.9,11.6,5.4,18.3,7.8c-1-2.1-2.3-3.2-3.8-3.9c-2-1-2.1-2.7-1.8-4.5c0.3-1.7,2.1-2.7,3.6-2c2.6,1.2,5.5,2.1,6.1,5.5
		c0.1,0.7,0.6,1.5,1.1,2.1c5.4,6.2,11.9,10.5,20.2,12c2,0.4,4,1.2,5.9,2c1.7,0.7,2.6,2.2,3,4.1c0.6,2.9,0,3.5-3.4,4.1l0,0.1
		c1.9-2,0.6-3.9-0.4-5.6c-1.4-2.5-4.1-2.3-7.4-3c1.5,1.6,2.3,2.4,3.5,3.7C1046.1,1040.6,1046.1,1041.8,1046.4,1042.9L1046.4,1042.9z
		 M884.9,995.6c0-0.1,0-0.1,0-0.2c-0.5,0-1,0-1.6,0c0,0.1,0,0.1,0,0.2C883.9,995.6,884.4,995.6,884.9,995.6z"/>
	<path d="M319.2,467.3c-1.1-0.3-1.9-0.5-2.6-0.8c-1.1-0.4-2-1-2-2.3c-0.1-1.5,0.5-2.6,1.9-3c2.4-0.8,5-1.3,7.5-0.5
		c2.9,1,5.6,2.4,7.6,4.8c4.4,5.1,8.6,10.4,11.4,16.5c2.6,5.7,7,9.3,12.2,12.5c1.7-2.3-0.7-5.9,2.7-7.3c1.9,0.5,2.1,2,2,3.4
		c-0.1,3.2,1.2,5.4,3.8,7.2c1.6,1.1,2.9,3,4,4.7c0.4,0.6,0.4,1.8,0.1,2.6c-0.3,1-1.4,1.2-2.4,0.9c-1.5-0.4-3-0.9-4.9-1.5
		c-0.2,1.7-0.4,2.9-0.4,4.1c0.1,11.5,0.1,23,0.3,34.5c0.3,18.2,0.8,36.4,1,54.7c0.3,20,0.3,40-0.6,59.9c-0.6,12.6-0.1,25.2-0.1,37.9
		c0,1.3,0.1,2.6,0,3.8c-0.7,15.9,0.4,31.6,2,47.4c0.7,7.2,1.8,14.3,2.7,21.4c0.8,5.8,0.8,11.8,0.9,17.7c0.1,4.8,0.2,9.6,1.5,14.2
		c0.9,3.2,0.2,4.1-3.4,5.3c-0.5,0.1-0.9,0.3-1.3,0.5c-4.5,2.5-8.9,5-13.3,7.6c-2.4,1.4-2.4,1.7-1.4,4.7c2.9-0.4,4.5-2.8,6.7-4.3
		c2.1-1.5,4-3.1,6.2-4.9c1,0.6,2,1.3,3.1,2c-0.4,0.7-0.5,1.2-0.8,1.4c-2,1.6-4.1,3.1-6,4.7c-6.1,5.2-13.1,9.1-20.2,12.8
		c-2.1,1.1-4.2,2.1-5.9,3.9c-1.8,1.9-4.3,2.8-6.8,3.3c-2.6,0.5-4.3-1.5-3.6-4c0.3-1,0.9-2,1.6-2.9c3.4-4.9,8-8.3,13.5-10.3
		c2.1-0.8,3.4-1.9,3.8-3.8c0.7-3,2.7-4.6,5.1-6c4.7-2.6,9.4-5.4,14.3-7.9c3-1.5,4.3-3.5,3.8-6.9c-0.7-5.4-0.5-10.8,0.1-16.3
		c0.7-6.3-0.3-12.4-1.5-18.6c-0.7-3.6-1.3-7.2-1.7-10.9c-0.6-5.6-0.7-11.1-1.5-16.7c-0.6-3.9,0.2-8,0.2-12c0-3.7,0.2-7.4-0.4-11
		c-0.9-6.4-0.4-12.8-0.3-19.1c0-1,0.3-1.9,0.2-2.9c-1-6.7,0.2-13.4,0.5-20.1c0.1-2.9,0.2-5.8-0.2-8.6c-0.6-4.6-0.4-9.2-0.2-13.9
		c0.3-5.4,0-10.9,0.4-16.3c0.9-11.4,0.4-22.7-0.2-34c-0.3-6.4-0.3-12.8-0.4-19.2c0-3.8,0.2-7.7,0.3-11.5c0.2-6-1.8-8.4-7.9-8.2
		c-5.4,0.2-10.8,1.3-16.1,2.1c-1.7,0.2-3.4,0.5-5.3,0.8c-0.4-1.6-0.7-2.7-1-4.2c9.7-3.4,19.2-2.4,29.3-0.6c0.1-1.7,0.3-3.1,0.3-4.5
		c-0.1-9.4-0.3-18.9-0.3-28.3c0-3.8,0.4-7.7,0.8-11.5c0.3-3.3,0.1-6.3-1.3-9.4c-0.8-1.6-1.7-3.1-3.2-4.1c-6.4-4-10.4-10.2-14.8-16.1
		c-3.9-5.2-8.5-9.9-12.8-14.8c-0.2-0.2-0.6-0.2-0.9-0.3c-1.5,0.3-1.5,1.5-1.5,2.6c-0.2,7.5-0.5,15-0.6,22.5
		c-0.1,8.3,0.1,16.6,0.1,24.9c0,22.9,0.1,45.7,0,68.6c0,15-0.3,30.1-0.3,45.1c-0.1,42.4-0.1,84.8-0.1,127.1c0,17.3,0,34.5,0,51.8
		c0,1.6,0,3.2-0.2,4.8c-0.1,0.5-0.6,1-0.9,1.4c-1.7-0.4-1.8-1.6-1.8-2.7c0-5.3-0.3-10.6,0.2-15.8c0.4-4.5,0.3-8.9,0.1-13.4
		c-0.6-11.2-0.2-22.4-0.1-33.5c0.1-9.3,0.1-18.5-0.1-27.8c-0.3-12.8,0.2-25.6,0.4-38.4c0-1.3,0.1-2.6,0-3.8
		c-0.7-17.4-0.3-34.9,0-52.3c0.2-9.7-0.3-19.5-0.3-29.3c0-8.6,0.2-17.3,0.3-25.9c0-2.6-0.1-5.1-0.1-7.7c0-16.9,0-33.9,0.1-50.8
		c0-2.6-0.1-5.1-0.1-7.7c-0.2-11.3-0.4-22.7-0.6-34C319.5,470.2,319.3,468.9,319.2,467.3z M345.6,820.3c-3-2.2-3.1-2.3-5.1-0.8
		c-3.9,3-7.7,6.2-11.5,9.3c-0.6,0.5-1,1.4-1.7,2.4C333.1,829.8,343,823.9,345.6,820.3z"/>
	<path d="M597.2,579.4c-2.1,1.7-4.3,3.2-6.4,5c-2.4,2.1-3.3,4.9-3.2,8.2c0.4,7.3,0.7,14.7,1,22c0.2,4,0.4,8,0.5,12
		c0.6,19.8,1.3,39.6,1.8,59.5c0.2,11.2,0.1,22.4,0,33.6c-0.1,10.7-0.6,21.4-0.8,32.1c-0.3,12.6-0.5,25.2-0.6,37.9
		c-0.1,4.6,0,9.3,0.1,13.9c0,1,0,1.9,0.2,2.9c0.5,2.1,1.5,3,3.6,3.1c2.2,0.1,4.5,0.2,6.7-0.3c5.8-1.4,11.5,0.2,17.2,0.6
		c2.1,0.1,3.2,1.7,3.8,4.1c-0.9,0.2-1.7,0.6-2.3,0.4c-6.8-2.4-13.9-1.2-20.9-2.1c-2.2-0.3-4.3-0.6-7.1-0.9c-1.1,0.8-0.9,2.6-1.1,4.3
		c-0.1,1.5,0.4,3.2-1.3,4.6c-3.7-2-1.7-5.2-1.8-8.1c-0.9-2.1-4.2-3-3.7-6.3c1.1-0.1,2.1-0.2,3.5-0.4c0.5-4.9,1-9.8,0.9-14.7
		c-0.2-11.5-0.5-23-0.4-34.5c0-6.1,0.9-12.1,1.2-18.2c0.2-3.3-0.1-6.7,0-10c0.1-9.7,0.4-19.5,0.4-29.2c0-5.7-0.2-11.5-0.4-17.2
		c-0.3-10.1-0.6-20.1-0.8-30.2c-0.2-6.1-0.2-12.2-0.5-18.2c-0.4-9.3-1.1-18.5-1.5-27.8c-0.3-6.2-0.4-12.5-0.7-18.7
		c-0.6-12-1.5-23.9-1.8-35.9c-0.3-11.2-1.7-22.3-2.3-33.5c-0.5-11.5-1.3-23,0.1-34.5c0.2-1.4-0.1-2.9-0.2-4.3
		c-0.6-4.6-1.2-9.1-1.9-13.6c2.6-0.9,3.4-0.7,3.8,1c0.2,0.8,0.2,1.6,0.3,2.4c0.3,10.2,0.6,20.5,0.9,30.7c0.3,8.3,0.7,16.6,0.8,24.9
		c0.2,15.2,2.2,30.3,2.5,45.5c0.1,3,0.2,6.1,0.3,9.1c0.1,1.6,0.1,3.3,2.2,4.1c0.4-0.3,1.1-0.7,1.2-1.1c0.4-2.7,2.4-4,4.5-5.3
		c4.2-2.8,8.9-4.3,13.7-5.7c3.5-1,6.9-2.2,10.7-2.1c2.5,0.1,5.1-1.5,7.6-2.7c0.8-0.4,1.4-1.7,1.6-2.7c0.3-1.2,0.1-2.5,0.1-3.8
		c-0.1-14.9-0.1-29.7-0.4-44.6c-0.1-7.3-0.8-14.7-1.2-22c-0.5-7.5-1-15-1.6-22.5c-0.5-5.9-1-11.8-1.6-17.7c-0.1-1.1-0.5-2.1-0.7-3.2
		c-2.7-1.1-5.2-0.5-7.7,0.3c-3.5,1.1-7,2.3-10.5,3.4c-1.2,0.4-2.5,1.1-3.7,1c-3-0.2-4.9,1.5-7.2,3.1c-3.3,2.5-7.2,4-11.4,4.3
		c-0.3,0-0.5-0.3-0.9-0.6c-0.2-2.5,0.8-4.1,3.3-4.9c1.7-0.5,3.4-1,5-1.6c6.8-2.3,13.6-4.7,20.4-6.9c4.4-1.4,8.9-2.6,13.4-3.7
		c1.5-0.4,3.2-0.4,4.8-0.2c4.4,0.3,6.2,4.2,3.7,7.9c-0.3,0.5-0.9,0.8-1.8,1.6c-0.5-1.8-0.9-3.2-1.4-5.2c-0.9,0.8-1.8,1.3-2,1.9
		c-0.3,1-0.4,2.2-0.3,3.3c0.1,1.9,0.2,3.8,0.5,5.7c0.8,6.2,1.6,12.3,1.5,18.6c-0.1,5.4,0.7,10.8,1.3,16.2c0.6,5.9,1.4,11.7,0.1,17.7
		c-0.4,1.7-0.1,3.5,0.2,5.2c0.8,5.6,1.4,11.1,0.8,16.7c-0.4,3.8,0,7.7,0,11.5c0.1,8.8,0.1,17.6,0.2,26.3c0.1,9.9,0.3,19.8,0.3,29.7
		c0,6.4-0.4,12.8-0.6,19.1c0,0.6-0.1,1.3,0,1.9c1.5,12.1-0.1,24.3,0.4,36.4c0.1,1.6-0.2,3.2-0.5,4.8c-0.7,4.4-1.3,8.9-0.1,13.3
		c0.1,0.3,0.1,0.6,0.1,1c-1.4,13.5,1.2,27.2-0.9,40.7c-0.1,0.6-0.2,1.3,0,1.9c1.9,10,0.1,20.1,0.3,30.1c0.1,3.6-0.9,7.3-1.9,10.8
		c-1,3.8-1.4,7.5-1,11.4c0.2,1.6,0.4,3.2,0.2,4.8c-1,7.8,0.1,15.6,0.4,23.5c0.1,2.2,0,4.5-0.2,6.7c-0.3,3.5-0.8,7-1.1,10.5
		c-0.1,1.7-0.3,3.3-2.1,4c-2,0.8-3.3-0.3-4.4-1.9c1.3-0.9,2.9-1.6,3.7-2.8c0.8-1.3,1-3,1-4.6c0-12.9-0.2-25.9-0.2-38.8
		c0-4.1,0.5-8.3,1-12.4c0.7-5.6,1.7-11.1,2.4-16.6c0.4-3.3,0.4-6.7,0.5-10c0.1-4.8,0.2-9.6,0.1-14.4c-0.1-3.8-0.5-7.7-0.4-11.5
		c0-7.2,0.3-14.4,0.3-21.6c0-7-0.2-14-0.2-21.1c0-3.8,0.2-7.7,0.2-11.5c0.2-16.1,0.3-32.3,0.4-48.4c0-10.2,0-20.5-0.1-30.7
		c0-1.6,0.4-3.2-0.9-4.8c-3.1-0.3-6.1,1-9.2,1.7c-7.5,1.6-14.8,4-21.7,7.4c0.4-0.8,0.7-1.5,1.1-2.3c-0.2-0.1-0.3-0.3-0.5-0.4
		c-0.8,0.5-1.5,1.1-2.9,2.1C596.2,579.2,596.7,579.3,597.2,579.4z"/>
	<path d="M1138.3,464.5c0.9,2.2,1.4,4.1,2.4,5.6c4.3,7,6.5,14.9,9,22.7c0.8,2.6,2.1,4.5,3.9,6.5c2,2.2,4,4.6,5.6,7.1
		c5.7,8.9,11.3,17.8,16.8,26.8c1,1.6,1.8,3.4,2.1,5.3c0.5,2.9,2.1,4.9,4.3,6.6c3.6,2.7,6.6,5.9,9,9.8c0.7,1.2,1.9,2.1,3.1,3
		c1.3,1,2.6,1.8,4,2.6c1.3,0.8,1.6,1.9,1.4,3.3c-0.3,1.5-1.5,1.9-2.9,2c-0.4,0-0.9-0.2-1.7-0.4c0.9-3.1-1-5-2.9-7
		c-3.4-3.5-6.4-7.5-10.2-10.7c-1.3-1.1-2.2-2.8-3.1-4.2c-1.9-2.8-3.7-5.6-5.5-8.4c-2.4-3.6-4.9-7.1-7.2-10.8
		c-2.5-3.9-4.8-7.9-7.2-11.9c-0.6-1-1.2-2.3-2.9-2.1c-1.1,2.5,3.2,5.4-0.9,7.9c-0.5-0.8-1-1.6-1.3-2.4c-1.4-4.1-2.7-8.2-4.1-12.3
		c-1.3-3.6-3.1-4-5.9-1.3c-0.5,0.4-0.9,0.9-1.2,1.5c-4.1,6.1-8.1,12.2-12.2,18.3c-1.1,1.6-2.1,3.2-3.2,4.8
		c-7.2,9.6-14.3,19.3-21.6,28.8c-4,5.2-8.4,10.1-12.6,15.1c-1.3,1.6-2.9,3-3.2,5.5c4.9,0.2,9-2.3,13.2-3c1.6,1,3,2.5,4.4,2.7
		c1.5,0.1,3.2-1.1,5-1.8c1.1,0.2,2.7,0.6,4.2,0.6c6.2-0.2,12.4-0.5,18.6-0.9c1.4-0.1,2.9-0.2,4.3-0.6c8.4-2.3,17-2.9,25.6-3
		c2.1,0,4.1-0.6,6.2-0.7c2.9-0.1,5.7-0.1,8.6,0.1c5,0.5,9.8,0.3,14.6-1.4c3.6-1.3,7.3-2.2,11-3.1c4.1-1,8.2-0.4,12.3-0.1
		c0.5,3.2,0.2,3.8-1.8,4.2c-0.8,0.2-1.6,0.1-2.4,0.2c-1.4,0.1-2.9-0.1-4.3,0.3c-7.7,1.9-15.5,1.5-23.3,2.4
		c-9.2,1.1-18.5,1.6-27.7,2.3c-7.5,0.6-15,1-22.5,1.8c-4.8,0.5-9.5,1.3-14.2,2c-1.5,0.2-3,0.8-4.9,1.3c2.4,3.7,4.6,7,7.7,9.6
		c5.9,4.9,12.2,9.3,19.5,12.1c1.2,0.5,2.2,1.2,3.4,1.7c4.2,2,8.5,2.6,12.9,0.3c1.7-0.9,3.6-1.4,5.4-1.9c4.5-1.4,8.6-3.4,11.8-7
		c0.4-0.5,1-0.8,1.9-1.5c0.2,0.9,0.7,1.8,0.5,2.2c-0.8,1.2-1.6,2.4-2.8,3.3c-7.6,5.5-15.8,9.1-25.5,7.3c-3.6-0.7-7.2-1.5-10.7-2.5
		c-2.1-0.6-4.2-1.6-6.1-2.8c-3.3-2-6.4-4.2-9.5-6.4c-1-0.7-2-1.6-2.8-2.5c-3.1-3.2-6.2-6.4-9.2-9.8c-1.2-1.4-2.6-1.9-4.2-1.7
		c-3.3,0.5-6.6,1-9.9,1.5c-3,0.4-6,0.9-9,1.1c-1.1,0.1-2.2-0.5-4.2-1c-1.7,0.4-2.3,4-5.6,4.4c-0.4-2.8,0.9-4.8,2-6.8
		c1.2-2.1,2.6-4,4.1-5.9c4.8-6,9.6-12,14.4-17.9c0.6-0.7,1.1-1.6,1.6-2.4c4.7-8,10.4-15.4,16.1-22.6c3.8-4.8,7.8-9.3,11.5-14.1
		c2.5-3.3,4.7-6.9,7-10.3c2.5-3.7,5.2-7.3,9.8-9.2c-0.3-3.1-0.7-6-2.2-8.7c-0.8-1.5-1.6-3.2-2.1-4.8c-1.5-5.6-4.7-10.5-7-15.8
		c-1-2.2-2.6-3-5-3.8c-4.1-1.4-8.1-1.4-12.3-0.8c-1.4,0.2-2.9,0.3-4.3,0.4c-3.1,0.1-5.9,0.6-6.3,4.7c-1.4,0.1-2.7,0.3-3.9,0.2
		c-1.7-0.1-3.1-1.3-3.1-2.5c0-1.5,0.6-3,2.1-3.5c1.5-0.5,3.1-0.7,4.7-0.8c4.5-0.2,8.9-0.3,13.4-0.4c2.6-0.1,5-0.5,7.1-2.4
		c1-0.9,2.6-1.2,4-1.3c8-0.5,16-0.9,23.9-1.4c1.8-0.1,3.5-0.4,5.2-0.6c5.3-0.8,10.5-0.8,16,0.1c0.3,1.2,0.6,2.4,0.9,3.5
		c-1.9,2-4.3,2.5-6.6,3.1c-7.1,1.8-14.2,2-21.4,1.6C1146.2,463.1,1142.6,462.9,1138.3,464.5z M1160.8,459.9
		c7.1,0.9,7.4,0.9,10.6-0.5c-0.2-0.2-0.4-0.6-0.6-0.6C1167.6,459.1,1164.5,459.4,1160.8,459.9z M1174.2,456.7c0-0.3,0-0.7,0-1
		c-1.7-0.3-3.4-0.5-5,1C1170.9,456.7,1172.5,456.7,1174.2,456.7z"/>
	<path d="M30.5,466.4c0,3.7-0.7,4.8-3.5,5.2c-2.9,0.4-5.8,0.4-8.5-0.9c-5.4-2.5-10.5-5.4-15-9.3c-3.5-3-4.6-7.8-2.2-12.1
		c1.8-3.1,3.5-6.2,6.4-8.3c4.6-3.4,7.9-7.9,11.3-12.3c5.2-6.5,11.1-12.4,17.2-18c1.5-1.4,2.9-3,4.2-4.5c2.7-3.2,5.2-6.5,7.9-9.6
		c3.6-4.1,7.4-8,11-12c1.1-1.3,1.8-3,2.7-4.5c1.4-2.3,2.7-4.8,4.4-6.8c4.4-5.1,8.6-10.3,12.4-15.8c4.4-6.3,8.3-12.9,12.1-19.5
		c2.3-4.1,3.9-8.4,5-12.9c2.1-8-1.2-13.9-9.2-16.3c-4.3-1.3-8.7-2-13.1-2.9c-1.9-0.4-3.7-0.8-5.8-1.2c0.3-0.8,0.5-1.5,0.9-2.6
		c-1.4-0.3-2.7-0.8-4.1-0.9c-1.3-0.2-2.6-0.1-3.8,0c-8.8,0.8-16.7-2-24.4-5.8c-1.6-0.8-3.1-1.7-4.7-2.3c-5.2-2.1-9.1-5.6-12.9-9.7
		c-4-4.3-5.3-9.4-5.7-14.8c-0.9-11.2,1.3-22,4.1-32.7c3.4-13.1,9.1-25.2,15.6-37c3.4-6.2,6.4-12.5,10.1-18.5
		c4.1-6.5,8.1-13.1,13.6-18.5c3.2-3.1,6.8-5.8,10.5-8.3c1.5-1,3.5-1.5,5.4-1.8c3.2-0.4,6.4,1.6,7.7,4.6c0.9,2.2,0.5,3.2-2.4,4.9
		c-0.7-1-1.4-2-2.1-3c-1.3-1.8-3.1-2.4-5.1-1.8c-1.8,0.6-3.6,1.4-5.2,2.4c-5.1,3.4-9.5,7.6-12.7,12.8c-10.5,16.8-20.3,34-27.8,52.4
		c-5.2,12.7-8,25.9-8.3,39.6c-0.1,6,1.5,11.4,4.8,16.3c1.3,1.9,3.1,3.8,5.1,4.9c5.4,3.1,11,5.9,16.5,8.7c0.6,0.3,1.2,0.5,1.7,0.8
		c6.5,4.3,13.8,5.6,21.3,6.1c4.6,0.3,9.2,1.2,13.8,1.9c1.1,0.2,2.1,0.7,3.1,1.1c2.5,1,5,2.2,7.6,2.8c4.6,1.1,7.1,4.1,8.4,8.3
		c1.4,4.2,1.1,8.6-0.3,12.7c-2.9,8.7-7,16.8-12.5,24.1c-2.1,2.8-3.7,6-5.8,8.8c-7.5,9.9-15.1,19.8-22.8,29.6
		c-5.7,7.1-11.6,14-17.4,21c-0.5,0.6-1,1.2-1.6,1.8C28.4,423.2,18.1,433.5,8,444c-2,2-3.6,4.5-5,7c-1.4,2.5-1,5,1.1,7
		c2.4,2.3,4.9,4.6,7.6,6.5c5.1,3.4,10.7,4,16.5,1.9c0.4-0.2,0.9-0.2,1.4-0.2C29.8,466.1,29.9,466.2,30.5,466.4z"/>
	<path d="M619,40.3c0-2.1,0.7-3.5,2.8-3.8c0.5-0.1,0.9-0.2,1.4-0.2c10-0.2,18.3-5.1,26.8-9.3c2.9-1.4,5.7-3.1,8.7-3.9
		c6.4-1.7,12.3-4.3,18.2-7.1c7.8-3.7,16.1-6,24.6-8c3.6-0.8,7-2.1,10.4-3.5c3.7-1.5,7.5-2.7,11.6-2.8c2.9-0.1,5.6-0.7,8.5-1.3
		c3.2-0.7,6.7-0.4,10-0.2c2.6,0.2,4.4,1.9,5.2,4.4c0.6,2.1,1.1,4.3,1.3,6.6c0.5,6.2,4.4,10.5,8.3,14.7c0.5,0.6,1.3,1,2.1,1.1
		c6.6,1.3,12.3,5.2,18.6,7.2c2.4,0.8,4.8,1.6,7.3,2.2c3.6,0.8,7.2,1.6,10.8,2.2c5,0.9,10.1,1.8,15.1,2.6c5.4,0.9,10.7,1.8,15.2,5.2
		c0.9,0.7,2,1.1,3,1.4c3.8,1.4,6.3,4.1,8.2,7.7c1.4,2.7,2.9,5.4,4.5,7.9c2,3,3.3,6.2,4.1,9.7c1.3,5.6,2.4,11.2,3.9,16.8
		c1.5,6,4.5,11.2,8.2,16.1c5,6.6,5,6.7,13.3,10.8c-0.1,1-0.2,2.2-0.4,3.5c-4-0.5-6.9-2.3-9.6-4.6c-9.6-8-14-18.5-16.5-30.5
		c-1.8-8.5-3.8-17.1-8.8-24.7c-4.7-7.2-10.9-12-20.1-14.4c2.2-0.3,3.5-0.5,5.3-0.8c-4-1.8-7.6-2-11.3-2.4c-0.3,0-0.7-0.1-0.9,0
		c-2.1,1.1-4.2,1.4-6.6,0.8c-2.5-0.6-5.1-0.7-7.6-1.1c-2.4-0.4-4.8-0.6-7.1-1.2c-9.3-2.3-18.1-6.3-26.9-9.9
		c-3.5-1.4-5.1-4.8-7.8-6.9c-1-0.8-1.8-2-2.9-2.4c-2.8-1-3.8-3.3-4.3-5.9c-0.3-1.5-0.4-3.2-0.4-4.8c-0.3-6.9-0.9-7.3-8-7.6
		c-7-0.3-13.7,1.1-20.3,2.8c-5.4,1.4-10.8,2.8-16.2,4.4c-3.5,1-7,2.3-10.4,3.7c-5.2,2-10.4,4.2-15.5,6.2c-0.6,0.2-1.2,0.6-1.8,0.7
		c-6.5,1.4-12.1,4.9-18,7.6c-9.7,4.5-19.9,7.9-30.2,10.7C622.9,40.7,621,41.4,619,40.3z"/>
	<path d="M898.2,347.4c-1.9,0.2-2.7,0.2-3.5,0.3c-0.9,0.1-1.9,0.5-2.8,0.5c-10.6,0.6-19.9,5.7-29.8,8.4c-9.4,2.6-18.5,6-27.9,8.8
		c-7.5,2.3-15,4.5-22.5,6.5c-3,0.8-6.3,0.9-9.5,1.1c-1,0.1-2.7,0.6-2.6-1.5c0-0.1-0.9-0.3-1.3-0.3c-3.3,0-6.6,0-10.7,0
		c1.4,0.9,2,1.3,3.4,2.3c-2.3-0.3-3.8-0.6-5.2-0.8c-1.6-0.3-3.2-0.4-4.7-0.8c-3.1-1-4.7-3.4-4.1-6.6c0.4-2,1.1-4,1.9-5.9
		c2.5-5.8,6.5-10.6,10.4-15.5c2.2-2.7,5.1-3,8.3-2.3c1.7,0.4,2.4,1.5,1.9,3.4c-1.4,0.8-2.8,1.5-4.7,1.1c-1.1-0.2-2.6,0.4-3.5,1.1
		c-5,4-8.3,9.3-10.1,15.4c-1.1,3.6,0,5.2,3.7,5.7c3,0.4,6,0.5,9,0.7c7.6,0.4,15-1,22.4-2.1c2.2-0.3,4.4-1.1,6.4-2
		c7-3,14.4-4.3,21.7-5.8c1.5-0.3,3.1-0.7,4.6-1.3c5.7-2.4,11.4-5.1,17.2-7.4c3.5-1.4,7.3-2.1,11-3.1c4-1,8.1-1.9,12.1-2.9
		c2.8-0.6,5.6-1.5,8.4-1.8c3.7-0.4,5.6,2.1,3.9,5.4c-1.3,2.5-2.9,5-4.9,7.1c-4.1,4.2-8.5,8.2-12.8,12.2c-1.9,1.8-3.8,3.4-5.5,5.3
		c-1.6,1.9-1.3,3.6,0.9,4.7c2.7,1.3,5.6,2.4,8.5,3c8.2,1.5,16.3,3.4,24.7,3.3c2.6,0,3.4,2,5.7,3.2c-1.7,0.1-2.9,0.3-4.1,0.3
		c-4.2-0.1-8.3-0.2-12.5-0.3c-7.1-0.2-13.9-1.9-20.7-3.8c-1.4-0.4-2.7-1-3.9-1.7c-3.4-2-4.3-5.2-2.4-8.6c0.8-1.3,1.8-2.7,3-3.6
		c6.8-5.2,11.9-12,17.9-18C896.4,350.5,896.9,349.3,898.2,347.4z"/>
	<path d="M836.7,942.8c-1-2.1-2.7-2.2-4.2-2.7c-2.4-0.7-4.9-1.3-7.4-2.1c-4.8-1.5-9.6-2.4-14.2,0.6c-1.2,0.7-2.5-0.5-2.4-1.9
		c0.1-1.6,0.7-2.9,2.2-3.4c2-0.6,4-1.3,6-1.3c5.2,0,10.1,1.1,14.6,3.8c-4.1,0.1-8-2.3-12.2-0.7c5,0.9,9.6,3.3,14.8,3.2
		c1.9,0,3.7,0.8,5.6,1.2c9.6,2.2,19.3,4.4,28.9,6.7c3.7,0.9,7.4,2,11.1,3.1c0.5,0.1,1,0.2,1.3,0.5c3.7,3.9,8.8,4.2,13.5,5.4
		c1.4,0.4,2.8,0.7,4.1,1.3c1.2,0.6,1.9,1.7,1.9,3.1c0,1.4,0.2,2.9-1.6,3.5c-0.4-0.1-0.8-0.1-0.9-0.3c-1.9-3.5-5.1-5.1-8.7-6.2
		c-12.8-3.9-25.9-7-39-9.8c-3-0.6-5.8-1.7-8.8-2.4c-1-0.3-2.1-0.3-3.4-0.5c-0.7,2.1,0.2,4.3-1.6,5.9c-1.6,1.3-2.8,3.1-4.3,4.5
		c-3.8,3.6-7.8,7.1-11.6,10.7c-0.6,0.5-1.1,1.2-1.7,1.7c-8.7,5.8-15.1,14.1-23.1,20.8c-3.7,3.1-6.9,6.6-11,9.2
		c-2.4,1.5-4.3,3.8-6.2,6c-2.2,2.6-1.1,6.4,2.2,7.3c2.2,0.6,4.8,0.7,7.1,0.3c5.5-1.1,11-2,16.6-1.6c1.7,0.1,3.5-0.5,5.2-0.8
		c3.5-0.5,6.9-1.1,10.4-1.6c1.2-0.2,2.6-0.4,3.4,1.4c-1.1,1.2-2.8,1.4-4.2,1.6c-5.9,0.8-11.7,1.6-17.6,2c-6.7,0.5-13.4,0.5-20.1,0.9
		c-3.5,0.2-5.3-1.7-6.5-4.5c-0.4-1-0.6-2.2-1-3.2c-0.6-1.7-0.4-3.1,0.8-4.4c2.9-3.2,5.8-6.3,8.8-9.4c0.6-0.6,1.6-1.3,2.5-1.3
		c5.4-0.5,8.5-4.3,11.3-8.1c2.4-3.3,5.3-5.8,8.4-8.4c4.4-3.7,8.3-7.9,12.5-11.8c3.8-3.6,7.7-7.2,11.6-10.8
		C832.4,947.6,834.8,945.3,836.7,942.8z M855,945.5c0.4,0.3,0.5,0.4,0.7,0.4c0.6,0.1,1.2,0.1,1.8,0.2c0-0.2,0-0.7,0-0.7
		c-0.6-0.2-1.1-0.3-1.7-0.3C855.5,945.1,855.4,945.2,855,945.5z"/>
	<path d="M331,103.2c1.1,0.5,1.9,0.8,2.9,1.3c0.6,2.6,0,5.1-0.1,7.6c-0.1,5.3-0.2,10.5-0.1,15.8c0,1.7,0.3,3.7,2.4,4.2
		c1.4,0.3,2.7-0.7,3.2-3.5c1.5-7.4,5.9-13.4,9.6-19.7c3.2-5.4,8-9.5,13.2-13c0.9-0.6,2-1.1,2.8-1.8c6.2-5.6,13.9-8.6,21.5-11.3
		c13.5-4.7,27.4-6.1,41.6-4c0.8,0.1,1.6,0.3,2.3,0.6c3.7,1.3,7.5,2.6,11.2,4.1c3.6,1.5,6.1,4.6,8.5,7.5c0.4,0.5,0.6,1.1,0.7,1.8
		c1.6,7.4-0.9,13.7-5.3,19.4c-1.9-0.8-1.8-2.2-1.5-3.4c0.5-1.8,1.4-3.6,2.2-5.3c2.4-4.9,2.1-7.7-1.7-11.7c-3.3-3.5-7-6.3-12.1-7.2
		c-5.2-0.9-10.3-2-15.6-2.2c-1.3,0-2.6,0-3.8-0.3c-8.8-1.8-16.8,1.1-24.6,4.2c-6.2,2.5-12.3,5.3-18.4,8c-1.3,0.6-2.5,1.4-3.7,2.2
		c-6.9,5.3-12.7,11.7-18.2,18.4c-2.8,3.4-4,7.6-5.1,11.8c-0.4,1.4-0.6,2.8-1,4.2c-0.3,1.1-0.8,2.1-1.4,3c-1.3,1.8-3.3,2.7-5.4,2.5
		c-2.2-0.2-3.4-1.8-3.9-3.8c-0.5-1.8-0.8-3.8-0.8-5.7c-0.1-2.9,0-5.8,0-8.6c0-1.9-0.3-3.7-1.1-5.5
		C327.9,109.6,329.5,106.4,331,103.2z"/>
	<path d="M650,311.1c1.4,1.8,1,3.4-0.3,4.8c-2.3,2.5-4.8,4.6-7.9,6.2c-2.4,1.2-4.5,3-6.8,4.4c-4.3,2.7-8.6,5.5-13.1,7.9
		c-10.4,5.3-21.1,9.9-32.2,13.5c-7.1,2.4-14.2,5-21.3,7.2c-6.3,1.9-12.6,3.6-19.2,3.7c-0.8,0-1.6,0-2.5-0.6c1-0.3,2-0.6,3.7-1.1
		c-3.3-0.3-7.6-0.1-8.8,1.1c-1.3,1.3-2.4,1.4-3.8,0.9c-1.6-0.6-2.1,1.1-3.1,1.3c-2.3,0.5-4.7,0.9-7.1,0.9c-11,0.2-22.1,0.3-33.1,0.3
		c-2.7,0-5.4-0.5-9.2-0.9c3.3-0.8,5.6-1,7.6-1.9c2.2-1,4.5-1.6,6.9-1.7c3.7,0,7.4,0,11,0c15.4,0,30.7-0.4,45.8-3.8
		c10.6-2.4,21.1-5,31.3-9.1c8.3-3.3,16.8-6.2,25.6-8c2.5-0.5,4.3-1.6,5.7-3.9c0.9-1.5,2.7-2.7,4.4-3.5c6-3,11.7-6.5,17-10.8
		c1.6-1.3,3.2-2.7,4.8-4C646.6,312.9,647.9,311.3,650,311.1z"/>
	<path d="M255.6,1042.9c0.1-0.6,0.3-1.2,0.3-1.8c0-7,0-14-0.1-21.1c0-3.7-0.6-7.3,0.9-10.9c0.3-0.7,0.3-1.6,0.1-2.3
		c-1.9-5.6-1.1-11.4-1.2-17.1c-0.1-6.5,0-13.1,0-19.6c0-3.3-0.2-6.7,1.8-9.7c-1.7-3.5-1.9-7.1-1.9-10.8c0-9.7,0-19.5,0.1-29.2
		c0-2.3-0.4-4.8,1.3-6.9c0.5-0.6,0.5-2,0.1-2.7c-2.2-5-1.4-10.4-1.6-15.6c-0.3-7.2-0.3-14.4-0.4-21.5c0-2.2-0.3-4.4,0.7-7.4
		c0.8,1.3,1.4,1.9,1.4,2.5c0.2,2.9,0.2,5.7,0.3,8.6c0.2,6.4,0.4,12.8,0.5,19.1c0.1,4,0,8,0,12c0,6.9,0.4,13.7-0.4,20.6
		c-0.4,3.8,0,7.7,0.1,11.5c0.2,9.6,0.4,19.2,0.4,28.7c0,4.8-0.5,9.6-0.5,14.3c0.1,9.3,0.4,18.5,0.5,27.8c0,4-0.3,8-0.2,12
		c0.1,5.3,0.3,10.5,0.5,15.8c0,0.3,0.1,0.6,0.1,1c0.2,8.6,0.5,17.2,0.6,25.9c0,2.7-0.8,4.1-1.8,3.8c-1.8-0.4-1.6-2.2-2-3.5
		c-0.3-1.1-0.5-2.2-0.7-3.3c-2.4-14.5-4.7-29-7.1-43.5c-0.3-1.6-0.6-3.1-0.9-4.7c-0.1-0.8-0.3-1.6-0.4-2.4c-0.1-1,0.2-2.1,1.4-2.1
		c0.6,0,1.5,0.7,1.7,1.3c0.5,1.3,0.9,2.7,1.1,4.2c1.4,8.5,2.8,17,4.2,25.5c0.1,0.6,0.3,1.1,0.4,1.6
		C255.2,1042.9,255.4,1042.9,255.6,1042.9z"/>
	<path d="M270.7,392.3c-1.1-1.4-1.6-2.6-2.1-2.6c-2.2-0.1-4.4-0.1-6.6,0.2c-3,0.3-6,0.9-9,1.4c-2.2,0.4-4.5,0.5-6.6,1.2
		c-9.5,3.4-18.5,7.7-26.2,14.5c-6.2,5.5-12,11.4-18.1,17.1c-4.8,4.5-9.7,8.8-14.4,13.3c-8.9,8.5-17.7,17.1-26.5,25.7
		c-1.9,1.9-4,3.6-6.4,4.6c-1.6-1.2-1.4-2.5-0.7-3.6c0.6-0.9,1.5-1.6,2.3-2.4c3.3-3,6.5-6.2,9.9-9c6.8-5.6,12.6-12.2,19-18.2
		c4.8-4.5,10.1-8.3,15-12.6c2.6-2.3,5.1-4.8,7.4-7.5c7.3-8.6,15.4-16.2,26.1-20.5c1.5-0.6,2.8-1.6,4.1-2.4c4.2-2.6,8.6-3.8,13.7-3.4
		c5.7,0.4,11.5,0.2,17.2,0.3c3.7,0.1,7.3,0.2,11,0.2c9.9,0.1,19.8,0.1,29.7,0.2c1.1,0,2.3,0,3.3,0.3c0.9,0.3,1.7,1.2,3.4,2.4
		C300.2,393.1,285.2,392.8,270.7,392.3z"/>
	<path d="M1065.5,380.5c-0.9-0.1-1.5-0.1-2.1-0.1c-0.4,0.7-0.9,1.5-1.4,2.3c-2.6-4.5-2.9-4.6-8.1-4.4c-1.3,0.1-2.6,0.2-3.8,0.2
		c-9.8-0.7-19.4,1.3-28.9,3.1c-5.6,1.1-11.3,1.8-17,2.7c-4.4,0.7-8.8,1.5-13.2,2.3c-0.8,0.1-1.6,0.3-2.4,0.4
		c-12.3,0.6-24.5,1.5-36.8,1.8c-8.4,0.2-16.9-0.3-25.3-0.6c-0.8,0-1.5-0.2-2.4-0.3c0.4-1.4,0.8-2.5,1.2-4.1c5.8,1,11.7-0.1,17.4,1.8
		c0.8,0.3,1.9,0.1,2.8-0.1c0.8-0.1,1.5-0.6,2.3-0.7c9.2-0.4,18.5-0.9,27.6,1c1.6,0.3,3.1,0.6,4.7,0.7c1.1,0.1,2.2-0.1,2.4-1.7
		c0-0.4,0.7-1,1.2-1.2c0.9-0.3,1.8-0.5,2.8-0.7c5.4-0.7,10.8-1.4,16.1-2.1c0.6-0.1,1.3-0.1,1.9-0.3c6.2-1.9,12.6-1.6,19-2.1
		c5.7-0.5,11.4-1.3,17.1-2.1c5.2-0.7,10.4-1.4,15.7-2.1c1.1-0.1,2.2-0.1,3.3,0.1C1062.7,375.1,1065,376.5,1065.5,380.5z"/>
	<path d="M686.2,1036.4c-1.5-2.2-1.2-3.7,0.2-4.8c4.7-4,8.9-8.6,15-10.9c3.2-1.3,6.3-3.4,8.6-5.9c4.4-4.7,9.9-8,15.1-11.7
		c4.4-3.2,8.8-6.3,13.2-9.4c5-3.6,10-7.4,15.1-11c1-0.7,2.2-1.1,3.4-1.3c0.5-0.1,1.4,0.6,1.7,1.2c0.2,0.4,0.1,1.4-0.3,1.7
		c-1.5,1.4-3.2,2.7-4.8,3.9c-4.1,3.3-8.4,6.4-12.4,9.7c-10.2,8.5-20.7,16.5-31.6,24c-4.6,3.2-9.5,5.9-14.1,8.9
		c-1.9,1.2-3.6,2.7-5.4,3.9C688.7,1035.3,687.5,1035.8,686.2,1036.4z"/>
	<path d="M428.8,357.4c-1.8,0.2-3.1,0.2-4.2,0.6c-2.2,0.7-4,0.2-6-0.8c-1.7-0.8-3.5-1.5-5.3-2.2c-2-0.8-3.7-0.2-5.1,1.4
		c-2,2.3-4,4.5-6,6.8c-3.1,3.6-7.2,5.7-11.1,8.3c-2.5,1.7-5.1,3.3-7.7,4.9c-1.6,1-3.1,2.2-5.3,2c-0.8-0.1-2,0.3-2.6,0.9
		c-3.7,3.7-8.6,4.8-13.2,6.4c-6.8,2.3-13.9,3.5-21,4.5c-5.4,0.7-10.7,1.3-16.4,1.9c0.5-0.9,0.8-1.4,1.4-2.3
		c-2.1-0.2-3.9-0.4-5.8-0.5c0-0.1,0-0.3-0.1-0.4c3-0.4,6-0.9,9.1-1.1c10.5-1,20.9-2.8,31.1-5.5c7.8-2,14.9-5.7,21.9-9.6
		c9.2-5.1,17-11.9,24.2-19.5c3.3-3.4,5.2-3.7,9.3-1.6C419.9,353.5,424,355.2,428.8,357.4z"/>
	<path d="M101,780.7c-0.3-3.3-0.8-6.6-0.9-9.9c-0.1-3.2-0.2-6.4,0.1-9.6c0.7-7.2,0.2-14.3-0.4-21.5c-0.3-3.2-0.5-6.3,0.8-9.4
		c0.6-1.4,0.5-3.2,0.3-4.7c-1.4-8.6-1.5-17.1-1.1-25.8c0.3-5.9-0.1-11.8-0.2-17.7c-0.1-4-0.1-8-0.1-12c0-1-0.2-2,1-2.9
		c0.6-0.4,0.4-2.4,0-3.5c-2.4-6.3-1.7-12.9-1.8-19.4c0-0.6,0.3-1.2,0.5-1.8c0.1-0.3,0.4-0.5,0.9-1c0.6,0.6,1.6,1.1,1.7,1.8
		c0.8,5,2,10,1.1,15.2c-0.3,1.9-0.4,3.8-0.3,5.7c0.1,4.1,0.5,8.3,0.6,12.4c0.1,2.4,0.4,4.9-0.2,7.1c-2,7.9-0.9,15.9-0.9,23.9
		c0,5.1,0.2,10.2,0.3,15.3c0.1,5.1,0.3,10.2,0.3,15.3c0,3-0.3,6-0.7,9c-0.8,7-0.4,14,0.1,21C102.7,772.5,102.7,776.6,101,780.7z"/>
	<path d="M1102,91.4c1.4,1,1.9,2.1,0.5,3.5c-1.5,1.5-3.3,2.5-5.5,2.8c-6.3,0.8-12.4,0.3-18.2-2.7c-3.7-2-5.8-4.8-5.3-9.3
		c0.3-3.5,0.8-7,2.3-10.2c3.2-6.6,6.6-13.1,9.9-19.7c1.6-3.1,3.4-6.2,4.3-9.6c1.9-6.6,1.1-13-3.8-18.3c-0.9-0.9-1.9-1.7-3.3-2.8
		c1.8-0.8,3.1-1.3,4.8-2c5.4,4,8,9.3,7.2,16.6c-0.7,6.2-2.4,11.8-5.7,17.1c-3,4.9-6,9.8-9,14.7c-2.9,4.6-4.4,9.5-4.2,15
		c0.1,2.7,1.4,4.5,3.9,5.5c1,0.4,2.1,0.9,3.2,1C1089.4,93.6,1095.8,93.9,1102,91.4z"/>
	<path d="M90,862.7c-1.7,0.7-2.6-0.1-3-1.2c-1.2-3.9-2.8-7.8-1.1-12.1c0.6-1.5,0.2-3.5-0.3-5.1c-2.2-6.8-2.2-13.8-2.3-20.9
		c-0.1-3,0-6,0.8-9c0.5-1.6,0.1-3.5,0-5.2c-0.3-4.6-0.7-9.2-0.9-13.8c-0.1-1.8-0.3-3.7,1.4-5.3c0.7-0.7,0.5-2.8,0.1-4.1
		c-2.3-7.2-1.5-14.6-1.5-21.9c0-7.2,0-14.4-0.1-21.6c0-3.7,0-7.3,0-11.1c2.7,1.2,3.4,3.1,3.2,5.5c-0.3,4.1-0.6,8.3-0.7,12.4
		c-0.1,5.7-0.1,11.5-0.1,17.3c0,6.7,0,13.4,0.1,20.1c0,1.6,0,3.2,0.1,4.8c0.4,5.3,0.5,10.5,0,15.8c-0.5,5.2-0.2,10.5,0,15.8
		c0.3,6.5,0.6,13.1,1.3,19.6c0.6,5.7,1.9,11.3,2.8,17C90,860.7,90,861.8,90,862.7z"/>
	<path d="M236.8,646.8c0.5,1.1,1.1,1.9,1.3,2.7c0.7,4.9,1.4,9.8,1.8,14.7c0.7,8.9,1.1,17.9,1.7,26.8c0.2,2.9,0.7,5.7,0.9,8.6
		c0.2,2.4,0.3,4.8,0.3,7.2c0,1.2-0.1,1.2-2.2,2.7c-1.7-0.8-1.3-2.4-1.4-3.8c-0.8-8.4-1.6-16.9-2.4-25.3c-0.8-9.2-1.6-18.5-2.5-27.7
		C234.2,650.6,234.1,648.5,236.8,646.8z"/>
	<path d="M515.8,790.5c-1,0.9-1.7,1.5-2.3,2.1c-0.6-0.3-1.1-0.4-1.5-0.7c-6-4.2-11.9-8.6-18-12.7c-5.7-3.8-11.5-7.5-17.4-11.1
		c-3.2-1.9-3.3-1.8-7-0.2c-1.6-2.3-1.7-4.2-0.4-5.9c1-1.2,2.4-1.2,3.5-0.6c2.7,1.3,5.6,2.6,7.8,4.5c5.1,4.2,10.5,7.8,16.2,11
		c5.3,2.9,10.9,5.4,15.4,9.7C513.4,787.7,514.5,789.1,515.8,790.5z"/>
	<path d="M488,358c-3,0.8-5.3,1.4-7.6,2c0.4,0.6,0.7,1.1,1.1,1.9c-9.3,0.5-18.3,1.9-27.4,1.2c-4.3-0.3-8.6,0.1-12.9,0.1
		c-2.1,0-4.2-0.3-6.2-0.7c-1.6-0.4-3.2-1.2-4.7-2.1c4.4-0.9,8.6-2,13.1-1.7c11.5,0.8,23-0.3,34.5-0.6C480.9,357.9,484.1,358,488,358
		z"/>
	<path d="M1041.6,23.9c1.4,0.7,2.6,1.2,3.6,1.8c0.8,0.5,0.3,2.1-0.5,2.4c-2.3,0.8-8-1-9.2-3c-0.4-0.6-0.5-1.6-0.3-2.2
		c0.5-1.9,1.7-3.5,3.8-3.9c6.5-1.3,12.7-3.9,19.7-3.2c6.1,0.6,12.1,0.9,18,2.5c1.2,0.3,2.4,0.8,3.5,1.5c-1.7,0.5-3.1,1.1-5.1,0.7
		c-10.2-1.8-20.4-0.8-30.5,1C1043.2,21.7,1043.2,21.8,1041.6,23.9z"/>
	<path d="M228.1,662.6c0.5,2.4,1.3,5.4,1.5,8.4c0.4,4.4,0.6,8.9,0.5,13.3c-0.1,4.6-0.5,9.2-0.9,13.8c-0.4,3.6-1,7.2-1.9,10.7
		c-1,4.2-0.9,8.9-0.4,13.3c0.6,5.3,0.8,10.5,0,15.7c-0.3,2-0.1,4.1-0.2,6.2c-0.1,3-0.2,6-1,9.2c-0.3-0.5-0.9-1.1-0.9-1.6
		c0-2.2,0.3-4.4,0.4-6.6c0.1-2.2,0.4-4.4,0.2-6.6c-0.5-6.1-0.5-12.1,0.2-18.1c0.7-5.8,0.4-11.8,0.6-17.7c0.1-2.5,0.3-5.1,0.5-7.6
		c0.1-1.3,0.3-2.5,0.3-3.8c-0.1-8-0.5-15.9,0.9-23.9C228.4,665.6,228.1,663.8,228.1,662.6z"/>
	<path d="M863.1,888.1c3.8,1.7,6.9,4.4,10.2,6.9c0.8,0.6,1.5,1.2,2.2,1.9c5.8,5.7,11.5,11.5,17.3,17.2c2.8,2.8,5.8,5.4,8.8,8.1
		c2.2,2,4.6,3.9,6.2,6.5c1.1,1.8,3.2,3,4.7,4.9c-0.7-0.3-1.5-0.5-2.2-0.9c-0.8-0.5-1.6-1.1-2.3-1.7c-8.1-7-16.3-13.8-23.8-21.5
		c-3.8-3.9-8-7.3-12-10.9c-2.1-1.9-4.3-3.8-6.4-5.8c-1.2-1.2-2.3-2.6-3.4-3.9C862.5,888.7,862.8,888.4,863.1,888.1z"/>
	<path d="M1018.7,434.6c-14.3,7.1-29.6,11.9-44.2,18.4c-0.3,0.1-0.6,0.3-0.9,0.4c-1.2,0.4-2.2,0.1-2.9-1c-0.6-0.9-0.2-2.8,0.8-3.4
		c0.6-0.4,1.4-0.6,2.2-0.9c7.4-2.5,14.8-5.1,22-8.1c5.3-2.2,10.9-3.7,16.4-5.2C1014.2,434.2,1016.6,434.6,1018.7,434.6L1018.7,434.6
		z"/>
	<path d="M107.3,917.2c2,1.7,2,3.1,2.1,4.5c0.7,9.1,1.2,18.2,2.1,27.2c0.8,7.6,2,15.2,3.2,22.7c0.9,5.7,2.2,11.3,3.3,16.9
		c0.2,1,0,2.1,0,3.9c-1.3-0.8-2-1.1-2.3-1.6c-0.5-0.9-0.9-2-1.2-3.1c-1.6-7.5-3.1-15-3-22.7c0-3.8-0.4-7.7-1-11.4
		c-1.4-7.7-2.5-15.4-2.2-23.3c0.1-1.4-0.3-2.9-0.6-4.2C107.1,923.4,107.1,920.8,107.3,917.2z"/>
	<path d="M226.1,1004.9c0.4-2.7,0.7-5.5,1.1-8.7c0.9,0.5,1.7,0.8,1.9,1.2c0.3,0.9,0.3,1.9,0.3,2.8c0,7,0,14,0,21c0,0.9,0,2-0.3,2.8
		c-0.2,0.6-1,1.3-1.6,1.4c-0.6,0-1.6-0.5-1.9-1.1c-0.5-1-0.7-2.1-0.7-3.2c0-5.7-1.2-11-3.4-16.2c-0.6-1.4-0.9-3.1-1.1-4.6
		c-0.1-0.4,0.5-1.2,1-1.4c0.5-0.1,1.3,0.1,1.6,0.5c0.6,0.7,0.9,1.7,1.2,2.6c0.4,1,0.7,2,1.1,3C225.6,1005,225.9,1005,226.1,1004.9z"
		/>
	<path d="M599.7,697.2c-1-0.2-1.7-0.2-2.3-0.4c-1.3-0.4-1.7-2-1-3.2c0.8-1.2,1.9-1.5,3.2-1.7c2.2-0.3,4.4-0.8,6.5-1.4
		c5.5-1.7,10.9-3.5,16.4-5.2c0.6-0.2,1.4-0.5,1.8-0.3c0.9,0.5,1.7,1.3,2.2,2.2c0.2,0.3-0.7,1.3-1.3,1.8c-0.5,0.4-1.2,0.4-1.8,0.6
		c-6.4,2.1-12.7,4.2-19.1,6.3C602.7,696.5,601,696.8,599.7,697.2z"/>
	<path d="M965.4,161.7c-0.2,0-0.3,0.1-0.5,0c-6.6-3.6-13.9-5.5-20.8-8.3c-2.6-1.1-5.4-1.8-7-4.6c-0.4-0.7-1.5-1.1-2.4-1.7
		c1.3-1.1,2.5-0.7,3.7-0.4c4.2,1.4,8.5,2.8,12.7,4.2c0.9,0.3,1.9,0.7,2.5,1.4c2.1,2.3,4.8,2.8,7.7,3.3c1.4,0.2,2.8,0.8,4,1.5
		C967.1,158.2,967.1,159.3,965.4,161.7z"/>
	<path d="M1032.4,403.1c3.2-1.3,6.4-2.7,9.7-3.9c3-1.1,6-2,9.1-2.9c0.5-0.1,0.9-0.4,1.4-0.4c5.8-0.9,11.6-1.9,17.4-2.8
		c0.5-0.1,1-0.1,1.4,0c1.4,0.2,2.1,1.9,1.2,2.9c-1.3,1.5-2.9,2.8-4.7,4.5c-0.9-1.2-1.4-2.1-2.1-3c-5.9-0.4-11.5,1.6-17.1,3.1
		c-2,0.5-3.8,1.2-6,0.8c-2.3-0.5-4.4,0.3-5.8,2.4C1035.3,403.5,1033.9,403.3,1032.4,403.1z"/>
	<path d="M1007,836.8c1.7-1,2.9-0.6,3.9,0.3c3.4,3.2,7.5,4.7,12.2,4.7c2.4,0,3.7,1.4,4.6,3.3c-0.3,0.4-0.5,0.8-0.7,0.8
		c-5.2,1-10.5,0.6-15.7-0.2c-3.4-0.5-4.6-2.5-4.3-6.1C1007.1,838.8,1007,837.9,1007,836.8z"/>
	<path d="M620.9,840.7c1,2,0.9,3.7-0.9,4.7c-1.4,0.8-2.9,1.3-4.4,1.6c-2,0.4-4.1,0.7-6.1,0.8c-3.7,0.2-7.2,0.7-10.1,3.3
		c-2.1-0.9-1.9-2.7-1.8-4.2c0.1-1.5,1.5-2.1,2.7-2.3c3.3-0.6,6.6-1.6,9.8-1.4c3,0.2,5.6-0.2,8.2-1.7C619,841,620,840.9,620.9,840.7z
		"/>
	<path d="M343.7,696.7c1.6-0.1,2.5,0.6,2.6,1.8c0.1,0.8-0.3,1.9-0.8,2.4c-0.6,0.6-1.6,0.9-2.5,1.2c-1.4,0.4-2.8,0.6-4.2,0.9
		c-2.8,0.7-5.4,1.6-6.9,4.5c-0.5,1-1.8,1.3-2.9,0.8c-1.2-0.5-1.4-1.6-1.3-2.8c0.2-1.5,1-2.6,2.2-3.5
		C334,698.8,339,697.7,343.7,696.7z"/>
	<path d="M718.6,835c0.8,0.7,1.7,1.5,2.9,2.5c-1.1,0.9-1.8,1.9-2.7,2.2c-5.1,1.8-10.2,3.5-15.4,5.1c-1.2,0.4-2.4-0.2-2.7-1.4
		c-0.1-0.7,0.4-1.9,1.1-2.4c1.6-1,3.4-1.8,5.1-2.4C710.8,837.4,714.6,836.2,718.6,835z"/>
	<path d="M344.6,846.6c-0.9,1-1.9,1.8-2.2,2.7c-0.6,2-2.1,2.6-3.7,3.3c-4,1.9-8,3.7-12.2,5.6c-1.3-0.9-1.4-2.2-1.3-4.1
		c1.3-0.8,2.7-1.8,4.2-2.5c4.3-2.1,8.6-4,12.9-6c0.4-0.2,0.9-0.2,1.3-0.1C343.9,845.6,344.1,846,344.6,846.6z"/>
	<path d="M937.8,961.1c-2.6-0.9-4.2-3-5.4-5.1c-1.6-3-3.9-5.4-6.3-7.7c-2.7-2.7-5.5-5.3-8.2-8c-0.8-0.8-2.1-1.6-1.4-3.5
		c0.7,0.3,1.5,0.4,2,0.8c7.4,5.4,13,12.5,19.1,19.3C938.8,958.1,939.4,959.5,937.8,961.1z"/>
	<path d="M166.6,1016.2c1.5,3.7,1.8,10.7,1,15.1c-0.6,3.1-0.3,6.2-2.1,9.2c-0.7,1.2,0,3.4,0.1,5.1c0.1,1.9,0.5,3.8,0.4,5.7
		c0,0.8-0.7,1.7-1.2,2.5c-0.2,0.2-0.9,0.2-1.3,0.1c-0.2,0-0.6-0.4-0.6-0.7c0.1-1.3,0.2-2.5,0.4-3.8c0.5-3.9,1-7.9,1.4-11.8
		c0.6-6.3,1-12.7,1.5-19.1C166.3,1017.7,166.5,1017,166.6,1016.2z"/>
	<path d="M382.2,1054.2c-0.4,1-0.6,1.6-0.9,2.7c-1,0.1-2.7,0.4-4.3,0.3c-5.6-0.5-11.1,0.3-16.6,1.3c-3.9,0.8-7.9,0.7-11.9-0.4
		c0.6-0.1,1.3-0.4,1.9-0.4c6.6-0.8,13.3-0.9,19.9-2.3C374.1,1054.6,378.1,1054.3,382.2,1054.2z"/>
	<path d="M227.3,948.5c0.4,0.8,0.9,1.5,1,2.4c0.2,2.1,0.2,4.1,0.3,6.2c0.2,4.6,0.3,9.2,0.5,13.8c0.2,3.2,0,6.3-0.8,10.4
		c-1.2-3.1-1.6-5.4-1.5-7.8c0.3-6,0.3-12.1-0.6-18.1c-0.3-2.1-0.1-4.4-0.1-6.6C226.6,948.7,227,948.6,227.3,948.5z"/>
	<path d="M434.6,1048.6c14.7-1.7,29.4-3.7,44.2-4c-0.6,0.2-1.1,0.6-1.7,0.6c-6,0.5-12.1,0.9-18.1,1.4c-3,0.2-6,0.6-9,0.9
		c-3.8,0.4-7.6,1-11.4,1.4C437.4,1049.1,436,1048.8,434.6,1048.6z"/>
	<path d="M225,903.3c1.9,3.8,2.9,20.2,2,27.3c-0.5-1.3-0.9-1.9-1-2.5c-0.1-1.6,0-3.2,0-4.8c-0.2-3.5-0.4-7-0.6-10.5
		C225.2,909.6,225.1,906.5,225,903.3z"/>
	<path d="M644.9,1156.4c3.6-1.2,32.3-3.3,38.9-2.7C670.2,1154.6,657.6,1155.5,644.9,1156.4z"/>
	<path d="M102.1,787.1c0.9,6.1,0.9,12.1-0.7,18C101.1,799,98.6,793,102.1,787.1z"/>
	<path d="M714.3,1179.3c12-1.1,24-0.8,36-1C738.3,1178.6,726.3,1178.9,714.3,1179.3z"/>
	<path d="M101.1,814.7c1.9,5.8,2.2,11.7,1.4,18.5C100.8,826.5,100.2,820.6,101.1,814.7z"/>
	<path d="M795.8,1153.2c-1.6,0.5-3.3,1.1-4.9,1.4c-7.6,1.4-15.3,2.8-23,4.1c-1.1,0.2-2.2,0.2-3.3-0.2c1.2-0.3,2.3-0.8,3.5-1
		c8.5-1.4,16.9-2.8,25.4-4.2C794.2,1153.2,795,1153.3,795.8,1153.2C795.8,1153.3,795.8,1153.2,795.8,1153.2z"/>
	<path d="M837.5,1148.4c7.1-2.3,14.4-0.2,21.6-0.5c-7.2,0.5-14.4,0.9-21.5,1.4C837.5,1149.1,837.5,1148.8,837.5,1148.4z"/>
	<path d="M623,1117.1c10.1,0,20.3,0,30.4,0C643.3,1117.6,633.1,1117.8,623,1117.1z"/>
	<path d="M565.7,1117.5c0.8-0.7,1-1.1,1.2-1.1c5-0.4,10-0.9,15.2-1.3c-1,1.2-3.5-0.2-3.5,2.2c0,0.1-0.5,0.4-0.8,0.4
		C573.9,1117.6,570.1,1117.7,565.7,1117.5z"/>
	<path d="M167.7,1007.9c-0.5-4.2-2.1-8.4-0.2-13.3c1.8,2.6,1.2,4.7,0.9,6.8C168.3,1003.5,168,1005.7,167.7,1007.9z"/>
	<path d="M106.9,898.2c-2.5-4.7-1.6-8.7-1-12.6C106.6,889.4,107.9,893.2,106.9,898.2z"/>
	<path d="M163,876c-0.1,3.2,2.7,8.2,1.5,13.6C162,884.5,163.3,879.1,163,876z"/>
	<path d="M615.8,1158.3c3.1-0.5,6.2-1.2,9.4-1.5c4.6-0.4,9.2-0.4,13.8-0.3c-6.3,0.7-12.5,2-18.9,1.6
		C618.5,1158,617.1,1158.2,615.8,1158.3L615.8,1158.3z"/>
	<path d="M167.4,971c1.4,4.6,1.5,8.1,0.3,12.2C166.4,979.4,166.2,974.9,167.4,971z"/>
	<path d="M103.5,867.8c2.9,3.7,2.4,7.4,3.1,11.7c-1.1-0.9-1.9-1.3-2-1.8C103.9,874.8,103.2,871.7,103.5,867.8z"/>
	<path d="M568.3,1028.1c-3.7,0-7.5,0-11.5,0C559.2,1026.8,562.2,1026.7,568.3,1028.1z"/>
	<path d="M534.9,1027.3c3.5,0,7.1,0,10.6,0C541.9,1028.4,538.4,1028.4,534.9,1027.3z"/>
	<path d="M615.7,1158.3c-5.5,1.3-11.1,1.8-17.3,2.6c0.8-0.9,1-1.3,1.2-1.3C605,1159.1,610.4,1158.7,615.7,1158.3L615.7,1158.3z"/>
	<path d="M415.5,1050.3c4.1-0.4,8.3-0.8,12.4-1.2c-4,1.6-8.1,1.8-12.2,2.3C415.7,1051.1,415.6,1050.7,415.5,1050.3z"/>
	<path d="M399.5,1086.9c5.1-0.7,6.7-0.5,10.5,1.3C406.3,1089.2,403.3,1087.9,399.5,1086.9z"/>
	<path d="M512.7,1027.3c3.5,0,7,0,10.5,0c0.1,0.3,0.1,0.5,0.1,0.6c0,0.1-0.2,0.3-0.3,0.3c-3.4,0-6.8,0-10.3,0
		C512.7,1027.8,512.7,1027.6,512.7,1027.3z"/>
	<path d="M951.6,1103.8c3.5-1.2,5.2-1.2,9.5-0.3C957.9,1104.4,954.8,1104.1,951.6,1103.8z"/>
	<path d="M686.8,1179c1.2-0.7,2-1.3,2.1-1.2c2,2.2,4.4,1.2,6.7,0.9c0.9-0.1,1.8,0,2.7,0.4C694.8,1180.3,691.3,1180.3,686.8,1179z"/>
	<path d="M478.3,1029c-3.4,0-6.8,0-11.2,0C471.4,1027.6,474.8,1027.9,478.3,1029z"/>
	<path d="M224.5,770.6c1.5,4.4,1.5,6.9,0,11C223.6,777.5,223.9,774.1,224.5,770.6z"/>
	<path d="M756.3,1161c-5,1.2-10,2.4-15,3.7C745.9,1161.9,751.1,1161.6,756.3,1161z"/>
	<path d="M772,1055.7c-4.1,0-8.1,0-12.2,0c0-0.3,0-0.4,0.1-0.5c0.1-0.1,0.2-0.2,0.4-0.2c3.9,0,7.8,0,11.7,0
		C771.9,1055.1,772,1055.4,772,1055.7z"/>
	<path d="M908.9,1051.1c-1.7,0.3-3.3,0.7-5.2,1.1c-1.5-3-4.4-1.3-6.6-2C901.1,1050.2,905,1049.5,908.9,1051.1z"/>
	<path d="M591.2,1029.8c-3.4-0.3-6.9-0.5-10.5-0.8C583.4,1027.7,586.1,1027.8,591.2,1029.8z"/>
	<path d="M403.2,1031.7c5.2,0,10.4,0,15.6,0c0,0.1,0,0.2,0,0.3c-5.2,0-10.4,0-15.6,0C403.2,1031.9,403.2,1031.8,403.2,1031.7z"/>
	<path d="M103.3,839.1c0.4,3,1.2,6,0,9.1C101.7,845.2,101.9,842.2,103.3,839.1z"/>
	<path d="M802.1,1054c-4.2,0.2-8.5,0.5-12.9,0.7c0.4-0.4,0.6-0.8,0.7-0.8c4,0,7.9,0,11.9,0C801.9,1053.9,802,1054,802.1,1054z"/>
	<path d="M588.2,1161.5c-3,2-6.6,0.5-9.7,1.7C581.6,1161.7,584.9,1161.3,588.2,1161.5z"/>
	<path d="M452.6,1053.9c4.3-1.1,5.6-1.2,9.7,0C459.1,1053.9,455.8,1053.9,452.6,1053.9z"/>
	<path d="M484.5,1044.7c3.9-2.4,8.3-1.2,12.6-1.4C492.9,1043.8,488.7,1044.2,484.5,1044.7z"/>
	<path d="M792.4,1181.2c-3.5-0.6-6.9-1.1-10.4-1.7C784.6,1178.6,789.1,1179.3,792.4,1181.2z"/>
	<path d="M225.3,789.9c0,3,0,5.7,0,8.8C223.5,795.5,223.5,795.1,225.3,789.9z"/>
	<path d="M224.6,814.5c0.3,3.4,0.6,6,0.8,8.7c0.1,0.9-0.2,1.8-0.4,3.1C223.4,822.5,223.3,820.1,224.6,814.5z"/>
	<path d="M809.2,1052.9c4.5-0.2,8.9-0.4,13.4-0.6C818.2,1053.3,813.7,1053.4,809.2,1052.9z"/>
	<path d="M224.5,860.9c1.1,2.4,1.3,4.9,0.7,8C223.8,865.7,223.8,865.7,224.5,860.9z"/>
	<path d="M166.7,934.2c-1.2-2.4-1.2-4.9-0.9-8.1C167.4,929.6,167.4,929.6,166.7,934.2z"/>
	<path d="M509.8,1041.6c3.7-0.2,7.4-0.5,11.1-0.7c0,0.2,0,0.3,0.1,0.5c-3.7,0.4-7.4,0.8-11.1,1.2
		C509.8,1042.3,509.8,1042,509.8,1041.6z"/>
	<path d="M503.5,1052.4c-2.9,0.2-5.8,0.5-8.7,0.7C497.6,1051.6,500.6,1052.2,503.5,1052.4z"/>
	<path d="M535.2,1040.2c3.1-0.2,6.1-0.4,9.2-0.6C541.4,1041,538.3,1040.3,535.2,1040.2z"/>
	<path d="M474.7,1053c2.8-0.8,5.6-1.3,8.4,0C480.4,1053,477.5,1053,474.7,1053z"/>
	<path d="M660.4,1050.7c2.9-1,5.7,0.3,8.5,0.3C666.1,1051.1,663.2,1051.6,660.4,1050.7z"/>
	<path d="M682.1,1115.2c4.1,0,7.8,0,11.4,0c-1.6,0.6-3.3,0.4-5,0.4c-1.9,0-3.8,0.1-5.7,0.1C682.7,1115.7,682.7,1115.5,682.1,1115.2z
		"/>
	<path d="M662.1,1116.2c3.8,0,7.6,0,11.4,0c0,0.1,0,0.2,0,0.3c-1.9,0-3.8,0-5.7,0c-1.9,0-3.8,0-5.7,0
		C662.1,1116.5,662.1,1116.3,662.1,1116.2z"/>
	<path d="M830.5,1051.9c3.7,0,7.3,0,11,0c0,0.1,0,0.2,0,0.3c-3.7,0-7.3,0-11,0C830.5,1052.1,830.5,1052,830.5,1051.9z"/>
	<path d="M646.6,1050.9c-2.5,0.3-4.9,0.6-7.4-0.2C641.7,1049.5,644.1,1051.2,646.6,1050.9z"/>
	<path d="M618.4,1050c2.4,0.3,4.8,0.6,7.2,0.9c-2.5,0.2-4.9,0.6-7.4,0.2C618.3,1050.7,618.3,1050.4,618.4,1050z"/>
	<path d="M605.2,1051.2c-2.3,0-4.7,0-7,0c0-0.2-0.1-0.4-0.1-0.6c0.6-0.1,1.3-0.4,1.9-0.4c1.7,0.2,3.4,0.5,5.2,0.7
		C605.1,1051,605.2,1051.1,605.2,1051.2z"/>
	<path d="M162.4,864.1c-0.2-2.1-0.5-4.1-0.7-6.2C163.6,859.8,163.1,862,162.4,864.1z"/>
	<path d="M225.3,836.2c0,1.8,0,3.6,0,5.8C223.9,839.5,223.9,839.5,225.3,836.2z"/>
	<path d="M405,1055.9c2.9-0.4,5.8-0.7,8.7-1.1c0,0.1,0.1,0.3,0.1,0.4c-0.4,0.2-0.8,0.4-1.1,0.5c-2.5,0.2-5,0.3-7.5,0.5
		C405.1,1056,405.1,1056,405,1055.9z"/>
	<path d="M691.5,1052c-2.7-0.2-5.5-0.4-8.3-0.5C685.8,1050.6,688.1,1050.7,691.5,1052z"/>
	<path d="M691.8,1152.6c3.1-0.2,6.3-0.4,10.6-0.7c-1.9,0.5-2.8,0.9-3.7,1c-1.3,0.1-2.5,0.1-3.8,0.2c-1.1,0-2.2,0.1-3.3,0.2
		C691.7,1153,691.7,1152.8,691.8,1152.6z"/>
	<path d="M426,1031c3.1-0.6,6.1-0.6,9.2,0C432.1,1031,429,1031,426,1031z"/>
	<path d="M862.9,1105.7c3,0,6,0,9,0c0,0.1,0,0.2,0,0.2c-3,0-6,0-9,0C862.9,1105.9,862.9,1105.8,862.9,1105.7z"/>
	<path d="M491.6,1028c3.1,0,6.1,0,9.2,0c0,0.1,0,0.2,0,0.3c-3.1,0-6.1,0-9.2,0C491.6,1028.2,491.6,1028.1,491.6,1028z"/>
	<path d="M885.4,1050.3c-2.8,0-5.6,0-8.4,0c0-0.1,0-0.2,0-0.3c2.8,0,5.6,0,8.4,0C885.4,1050.2,885.4,1050.3,885.4,1050.3z"/>
	<path d="M736.6,1149.9c2.6,0,5.2,0,7.8,0c0,0.1,0,0.2,0,0.4c-2.7,0-5.3,0-8,0C736.5,1150.1,736.5,1150,736.6,1149.9z"/>
	<path d="M854.7,1050.9c2.9,0,5.9,0,8.8,0c0,0.1,0,0.2,0,0.3c-2.9,0-5.9,0-8.8,0C854.7,1051.1,854.7,1051,854.7,1050.9z"/>
	<path d="M726,1168.6c2.1-1.9,4.5-2.5,8.2-2.5C730.8,1167.1,728.4,1167.8,726,1168.6z"/>
	<path d="M430.5,1054.3c1.5-0.2,3-0.3,4.5-0.5C433.7,1055.4,432.1,1055.2,430.5,1054.3z"/>
	<path d="M606,1032.1c-1.8-0.3-3.5-0.7-6.3-1.2c3-0.4,4.7-0.1,6.5,0.2C606.1,1031.4,606.1,1031.7,606,1032.1z"/>
	<path d="M397.4,1052.3c-2,1.2-4.2,2.1-6.7,1.5C392.8,1052.5,395.2,1052.5,397.4,1052.3L397.4,1052.3z"/>
	<path d="M452.2,1029.7c-1.8,0.2-3.6,0.5-5.5,0.7C448.4,1028.9,450.2,1028.7,452.2,1029.7L452.2,1029.7z"/>
	<path d="M806.6,1148.2c-2,0-4.1,0-6.1,0c0-0.1,0-0.1,0-0.2c2,0,4.1,0,6.1,0C806.6,1148.1,806.6,1148.2,806.6,1148.2z"/>
	<path d="M820,1147.8c2,0,4,0,6,0c0,0.1,0,0.2,0,0.2c-2,0-4,0-6,0C820.1,1148,820,1147.9,820,1147.8z"/>
	<path d="M584.9,1051.1c-2.1,0-4.3,0-6.4,0c0-0.1,0-0.2,0-0.4c2.2,0,4.4,0,6.5,0C585,1050.9,585,1051,584.9,1051.1z"/>
	<path d="M696.7,1175c1.6-0.4,3.1-0.8,4.7-1.2c0.1,0.2,0.1,0.4,0.2,0.6c-1.6,0.5-3.1,1.1-4.7,1.6
		C696.8,1175.6,696.8,1175.3,696.7,1175z"/>
	<ellipse cx="762.4" cy="1149.1" rx="4.5" ry="0.1"/>
	<path d="M783.9,1055.1c-2.2,0-4.4,0-6.6,0c0-0.1,0-0.2,0-0.3c2.2,0,4.3,0,6.5,0C783.8,1054.9,783.8,1055,783.9,1055.1z"/>
	<path d="M702.9,1179c1-0.1,2.1-0.1,3.1-0.2c0,0.3,0,0.5,0,0.8c-1,0-2.1,0.1-3.1,0.1C703,1179.5,703,1179.3,702.9,1179z"/>
	<path d="M718.6,1114.6c-2.3,0-4.6,0-6.9,0c0-0.1,0-0.2,0-0.3c2.3,0,4.6,0,6.9,0C718.6,1114.4,718.6,1114.5,718.6,1114.6z"/>
	<path d="M607,1113.7c-2,0-4.1,0-6.1,0c0-0.1,0-0.1,0-0.2c2.1,0,4.1,0,6.2,0C607,1113.6,607,1113.6,607,1113.7z"/>
	<path d="M539,1052.1c-0.9,0-1.8,0-2.8,0C537.2,1051.2,537.2,1051.2,539,1052.1z"/>
	<path d="M887.7,1105c-2.2,0-4.4,0-6.5,0c0,0,0-0.1,0-0.1c2.2,0,4.4,0,6.5,0C887.7,1104.9,887.7,1105,887.7,1105z"/>
	<path d="M922.8,1104c-2.1,0-4.3,0-6.4,0c0-0.1,0-0.2,0-0.2c2.1,0,4.2,0,6.3,0C922.7,1103.9,922.8,1103.9,922.8,1104z"/>
	<path d="M167.5,948.9c0.1,1,0.2,2,0.2,3c-0.3,0-0.5,0-0.8,0.1c-0.1-1-0.2-2-0.3-3C167,948.9,167.2,948.9,167.5,948.9z"/>
	<path d="M770.6,1178.2c1.8,0.1,3.7,0.3,5.5,0.4c0,0.1,0,0.2,0,0.2c-1.9,0-3.7,0-5.6,0C770.5,1178.6,770.6,1178.4,770.6,1178.2z"/>
	<path d="M761,1177.8c1-0.1,2.1-0.1,3.1-0.2c0.1,0.2,0.1,0.3,0.2,0.5c-0.6,0.2-1.1,0.6-1.7,0.6c-0.5,0.1-1.1-0.2-1.6-0.3
		C761,1178.2,761,1178,761,1177.8z"/>
	<path d="M164.9,908c-0.1-1.6-0.2-2.7-0.2-4C165.7,904.3,165.8,905.4,164.9,908z"/>
	<path d="M225.2,879.4c1,2.3,0.9,3.7,0.2,5.7C224.1,883.1,224.4,881.7,225.2,879.4z"/>
	<path d="M737.8,1113.6c-1.8,0-3.7,0-5.5,0c0,0,0-0.1,0-0.1C734.1,1113.5,736,1113.5,737.8,1113.6
		C737.8,1113.5,737.8,1113.6,737.8,1113.6z"/>
	<path d="M613,1036.1c-1.2-1.4-1.9-2.2-3-3.6C612.2,1033,613.3,1033.4,613,1036.1z"/>
	<path d="M563.7,1051.3c-1.7,0-3.5,0-5.2,0c0-0.1,0-0.2,0-0.2c1.8,0,3.5,0,5.3,0C563.8,1051.2,563.7,1051.3,563.7,1051.3z"/>
	<path d="M397.5,1052.4c1.6-0.2,3.3-0.3,4.9-0.5C400.7,1053.7,399.1,1053.2,397.5,1052.4L397.5,1052.4z"/>
	<path d="M937.7,1102.9c1.4,0,2.8,0,4.2,0c0,0.1,0,0.1,0,0.2c-1.4,0-2.8,0-4.2,0C937.8,1103,937.7,1103,937.7,1102.9z"/>
	<path d="M901.2,1103.9c1.5,0,3,0,4.5,0c0,0.1,0,0.1,0,0.2c-1.5,0-2.9,0-4.4,0C901.3,1104,901.2,1103.9,901.2,1103.9z"/>
	<path d="M971.9,1086.7c1.1-1.6,2.7-1.2,4.2-0.9C974.6,1086,973.3,1086.4,971.9,1086.7z"/>
	<path d="M849.5,1106.7c1.1,0,2.2,0,3.3,0c0,0.1,0,0.1,0,0.2c-1,0.1-2,0.1-3,0.2c-0.1,0-0.3-0.1-0.4-0.1
		C849.4,1106.8,849.5,1106.7,849.5,1106.7z"/>
	<path d="M793,1110.7c-1.1,0-2.1,0-3.2,0c0,0,0,0,0-0.1C790.8,1110.6,791.9,1110.6,793,1110.7C793,1110.6,793,1110.7,793,1110.7z"/>
	<path d="M1052.2,1044.9c-2.5,1.1-4.3,0.2-5.7-1.9l0,0.1C1048.3,1043.6,1050.3,1044.3,1052.2,1044.9L1052.2,1044.9z"/>
	<path d="M544.1,1051c0.4,0.2,0.7,0.3,1,0.5c-0.3,0.2-0.6,0.5-0.9,0.6c-0.2,0.1-0.5-0.2-0.8-0.4
		C543.6,1051.5,543.8,1051.2,544.1,1051z"/>
	<path d="M519.1,1052.2c-1,0-2.1,0-3.1,0c0-0.1,0-0.3,0-0.4c1,0,2.1,0,3.1,0C519.1,1051.9,519.1,1052,519.1,1052.2z"/>
	<path d="M452.1,1029.8c1.1-0.3,2.3-0.5,4-0.9C454.6,1031,453.3,1029.8,452.1,1029.8C452.2,1029.7,452.1,1029.8,452.1,1029.8z"/>
	<path d="M795.8,1153.3c1.8-0.3,3.6-0.6,5.5-0.9c0,0.2,0.1,0.5,0.1,0.7C799.5,1153.1,797.6,1153.2,795.8,1153.3L795.8,1153.3z"/>
	<path d="M723.5,1151.1c-0.9,0-1.8,0-2.7,0c0,0,0-0.1,0-0.1c0.9,0,1.8,0,2.6,0C723.4,1151,723.5,1151,723.5,1151.1z"/>
	<path d="M714.7,1151.9c-0.8,0-1.6,0.1-2.4,0.1c0-0.2,0-0.4-0.1-0.6c0.8-0.1,1.6-0.2,2.4-0.3
		C714.7,1151.4,714.7,1151.7,714.7,1151.9z"/>
	<path d="M826.1,1150.1c-1,0-2,0.1-3,0.1c0-0.1,0-0.2,0-0.4c1,0,2,0,3,0C826.1,1150,826.1,1150,826.1,1150.1z"/>
	<path d="M439.7,1054c0.7-0.1,1.4-0.1,2.2-0.2c0,0.2,0.1,0.4,0.1,0.6c-0.7,0.2-1.5,0.4-2.2,0.6
		C439.7,1054.7,439.7,1054.3,439.7,1054z"/>
	<path d="M397,1055.7c0.8,0,1.5-0.1,2.3-0.1c0,0.1,0,0.3,0.1,0.4c-0.7,0.1-1.4,0.2-2.1,0.3C397.1,1056.1,397,1055.9,397,1055.7z"/>
	<path d="M815.3,1150.7c0.8-0.1,1.7-0.2,2.5-0.2c0,0.2,0,0.4,0,0.6c-0.8,0-1.7,0.1-2.5,0.1C815.4,1151,815.4,1150.9,815.3,1150.7z"
		/>
	<path d="M448.1,1088.9c-0.6-0.1-1.2-0.2-1.9-0.3c0.6,0,1.2-0.1,1.8-0.1C448.1,1088.6,448.1,1088.7,448.1,1088.9z"/>
	<path d="M590.8,1114.5c-1.5,0.1-2.1,0.1-2.7,0.2c0-0.1,0-0.1,0-0.2C588.7,1114.5,589.3,1114.5,590.8,1114.5z"/>
	<path d="M833.3,1107.9c-0.5,0-1.1,0-1.6,0c0-0.1,0-0.1,0-0.2c0.6,0,1.2,0,1.7,0C833.4,1107.8,833.3,1107.9,833.3,1107.9z"/>
	<path d="M428,1088.8c-0.6,0-1.2,0-1.8,0c0-0.1,0-0.2-0.1-0.3c0.2,0,0.5-0.1,0.7-0.1c0.4,0,0.8,0.1,1.2,0.2
		C428,1088.7,428,1088.7,428,1088.8z"/>
	<path d="M565.2,1088.5c0.7,0,1.4-0.1,2.1-0.1c0,0.1,0,0.2,0,0.3c-0.7,0-1.4-0.1-2.1-0.1C565.2,1088.6,565.2,1088.5,565.2,1088.5z"
		/>
	<path d="M547.1,1088.5c0.6,0,1.2,0,1.8,0c0,0.1,0,0.1,0,0.2c-0.6,0-1.2,0-1.8,0C547.1,1088.6,547.1,1088.5,547.1,1088.5z"/>
	<path d="M604.8,1117.5c-0.6,0.1-1,0.1-1.4,0.2c0.3-0.1,0.6-0.3,0.9-0.4C604.4,1117.3,604.5,1117.4,604.8,1117.5z"/>
	<path d="M597.2,1117.8c-0.6-0.1-1.2-0.1-1.8-0.2c0.3-0.1,0.7-0.4,1-0.4c0.2,0,0.5,0.2,0.8,0.2
		C597.2,1117.6,597.2,1117.7,597.2,1117.8z"/>
	<path d="M421.3,1055.2c-0.6,0-1.2,0-1.7,0c0-0.1,0-0.2,0-0.4c0.6-0.1,1.1-0.1,1.7-0.2C421.3,1054.9,421.3,1055.1,421.3,1055.2z"/>
	<path d="M390.2,1055.8c0.6,0,1.1,0,1.7,0c0,0.1,0,0.2,0,0.3c-0.5,0.1-1.1,0.1-1.6,0.2C390.2,1056.1,390.2,1056,390.2,1055.8z"/>
	<path d="M558,1039.2c0.6,0,1.2-0.1,1.8-0.1c0,0.2,0,0.4,0,0.6c-0.6,0-1.2,0.1-1.8,0.1C558,1039.6,558,1039.4,558,1039.2z"/>
	<path d="M590.5,1038c-0.5,0-1.1,0-1.6,0c0-0.1,0-0.3,0-0.4c0.5-0.1,1-0.1,1.6-0.2C590.4,1037.6,590.5,1037.8,590.5,1038z"/>
	<path d="M529,1088.8c-0.3,0-0.6,0-0.9,0c0,0-0.1-0.2-0.1-0.3c0.3,0,0.6,0,0.9,0C528.9,1088.5,528.9,1088.7,529,1088.8z"/>
	<path d="M990,676.2c-6.5-0.3-10.8-3.7-12.1-9.5c-0.5-2.1-0.3-4.2,1.2-5.8c0.4-0.4,1.5-0.2,2.3-0.3c0.2,0.7,0.4,1.1,0.3,1.3
		c-1.5,5.2,0.5,10.3,5.2,12.9C987.9,675.3,988.9,675.8,990,676.2L990,676.2z"/>
</g>
</svg>
