<?xml version="1.0" encoding="utf-8"?>
<!-- Generator: Adobe Illustrator 25.4.1, SVG Export Plug-In . SVG Version: 6.00 Build 0)  -->
<svg version="1.1" id="Layer_1" xmlns="http://www.w3.org/2000/svg" xmlns:xlink="http://www.w3.org/1999/xlink" x="0px" y="0px"
	 viewBox="0 0 841.9 340.2" style="enable-background:new 0 0 841.9 340.2;" xml:space="preserve">
<style type="text/css">
	.st0{fill:#9BAE88;}
</style>
<g>
	<path class="st0" d="M330.5,217.2c-2.5-1.8-2.4-4.8-2.8-7.2c-1.6-14.6-3.2-29.4-2.7-44.1c-0.1-2.6-0.2-5.1-0.4-7.7
		c-0.1-5.4-8.1-6.6-10.1-1.7c-3.9,7.1-9.5,13.5-12,21.2c-3.4,9.9-8.9,18.9-13.1,28.5c-0.9,1.9-4.8,14.4-7.2,10.5
		c-2.1-16.2-0.9-32.8,1.3-48.9c-0.1-9,3.2-17.2,3.6-26.2c0-4.7,3-8.6,3.7-13.2c0.2-9.6-1.5-11.3-10.7-8.2c-0.9,0.2-1.1,0.7-0.7,1.2
		c1.7,4-2.6,7.2-4.2,10.5c-15.2,23.9-9.6,36.1-43,39.8c-11.3-1.5-18.2,2.5-24.1-9.9c-0.5-0.8-1.1-1.6-2.3-1.4
		c-2,0.4-2.7,1.6-3.6-0.3c-8.5-6-30.8-3.3-41.5-2c-4.8,0.3-1.6-8.2-2.3-11.1c0.1-4-0.8-8.2-1.1-12.1c0.3-17.2-11.8-13.1-21.9-5.9
		c-9.2,6.3-16.9,14.3-25.2,21.7c-0.9,0.9-1.7,2.1-2.8,2.6c-3.5,1.8-5.1,6.2-9.3,6.4c-16-0.1-31.7,3.2-47.3,6.2
		c-11.8,2-39.3,9.7-18.1-9.6c0,0,4.3-3.7,5.7-4.8c2.6-2.2,8.2-5.9,9.1-7.1c5.1-8.2,16.2-16.2,22.4-22.5c3.8-1.5,5.4-5.9,9.6-6.4
		c1.7-1.7,3.8-2.7,6.1-3.2c3.2-0.7-0.6,3.4,2.4,3.8c4.7-2.4,15-4,16.2-9.5c1.4-11.6-18-5.3-23.6-2.2c-23.9,16.8-44.2,38.4-64.7,59.1
		c-4.4,5.7,3.2,10.4,8,12.1c7.9,2.4,16.4-0.4,24.1-1.8c6.1-0.7,11.6-3.7,17.7-3.5c1.2,0.1,2.7-0.9,3.8-1.3
		c7.4,0.8,14.6-2.9,22.1-2.2c-3.3,8.3-11.7,13.8-17.4,20.8c-11.1,12.9-22.8,25.2-29.6,41c-1.2,2.2-0.3,4.2,0.2,6.2
		c0.3,0.9,0.8,1.5,2,1.1c3,1.2,6,1.6,9.2,0.9c10.1-3.6,20.4-7.4,29-13.9c8-6.1,17.1-11.5,24.3-18.8c11.5-12.2,27.7-36.5,1.9-42.5
		c-5-2.2,3.8-6.1,5.4-7.9c5.5-6.1,12.2-10.6,18.3-15.9c3.9-1.7,11-8.9,14.7-5c1.6,8.2,2.2,17.2,1.2,25.4c-4.5,4-18.8,2-22.4,7.2
		c-1.2,2.5-0.1,8.1,3.6,7.6c2.2-0.2,4.4,1.1,6-1c3.3-1.7,7.8-4.7,11.7-2.5c-3.8,11.4-2.7,23.8-5.1,35.6c-1.1,6.1-5,30.7,1.2,33.3
		c1.6,0.4,4.3,1.6,4.7-0.6c0.5-1.6-0.3-3-0.7-4.4c-2.4-8.2,0.6-16.9,1.9-25.1c0.2-10.8,2.7-21.4,3.7-32c1.4-13.6,4.8-8.1,15.5-11.8
		c6.5,1.3,13.1,0.4,19.6,0.3c1.9-0.2,3.8-0.5,5.4,1c3.3,0.8,5.2,1.3,4.4,5.4c-1.1,9.7-4.8,57.5-14.4,58.8c-3.6-1.7-4-5.4-5.3-8.6
		c-1.6-2.5-2.9-5.2-2.8-8.2c0.1-8.9-1.2-17.7-0.7-26.6c0.5-4.2,2.4-12.2-3.9-12.4c-3.2-0.1-8.1,2.8-5.4,6.2
		c0.4,3.9,0.2,7.9,0.5,11.8c1.8,12.7,0.5,26.2,7.4,37.5c7.3,13.6,14.3,13.5,21.4,0c3.3-11.7,7.3-23.9,8.4-36
		c-0.5-1.2-0.8-1.8,0.3-2.7c0.8-2.9,0.2-6.2,1.2-9.2c-0.8-13.2,4.1-7.6,12.9-6.9c8.5,0.4,16.6-1.4,25.3-1.5
		c-5.9,9.9-13.4,17.8-17.6,29c-3,6.5-7.9,14.1-5.9,21.5c4.8,5.8,6.2,2.8,11.8,0.3c10.4-10.5,15.3-24.8,22.2-37.4
		c5.8-11.3,5.1-17.7,19.4-21.6c1.2,0.7,1.4,1.9,1.1,3.2c-1.9,10.4-2.2,21.1-2.1,31.6c-0.9,8.1,0,16.3,0.5,24.5c0,4.7,4,9.6,8.1,7.4
		c7.3-5.8,9.7-15.1,13.5-23.1c6.1-8.1,10.8-32.1,20.2-35.4c0.5,0.2,0.9,1.1,0.9,1.8c0,4.6,0.7,9.2,0.8,13.7
		c-0.1,3.7,0.8,7.1,0.8,10.9c0,5.4,2.3,11.4,2,17c0,0.6,0.1,1.3,0.5,1.8c3.8,5,7.1,6.9,10.1-0.6
		C331.1,217.9,330.8,217.4,330.5,217.2z M114.2,171c9.2,6.8-2.8,18.3-7.2,24.8c-5.7,7.5-45.2,36.6-52.7,31.9
		c5.4-20.1,31.9-42.5,45.7-58.6C104.5,164.2,109.8,168.4,114.2,171z M234.5,208.8c-1.2-7.8,7.8-17.9,12.5-24
		C250.9,185.1,236.4,207.9,234.5,208.8z M277.9,153.2c-0.9,0.7-2.2,1-3.4,1.2c-4-0.7,2.1-13,4.4-13.6
		C278.8,145,278.8,149.5,277.9,153.2z"/>
	<path class="st0" d="M830.9,221.1c-1.8-1.8-1.7-4-2.2-6.2c-0.8-3.3-1.3-6.6-2.5-9.7c-0.9-2.2-1.4-4.5-1.8-6.8
		c-0.4-2.3-0.9-4.6-1.3-6.8c-0.1-0.6-0.5-1.2-0.6-1.9c-0.5-2.3-0.7-4.6-1.3-6.9c-1.1-3.8-1.8-7.7-1.4-11.7c0.2-1.7,0-3.6-0.3-5.3
		c-0.3-1.8-1.4-3.5-0.6-5.5c0.3-0.8,0.1-1.9-0.1-2.9c-0.4-2-0.3-4.2-1.7-6c1.9-3-2.2-3.7,0.2-6.8c2.2-3.1-1.5-7.2-4.6-8.1
		c-2.5-1.4-4.2,0-6.3,1.1c-1.4,0.3-4.6,1.7-5.5,2.5c-19.1,4.8-40.2,4.9-59.4,10.6c-2.5,0.1-7.7,3.7-8,1.5c-0.2-1.2,0.6-3.4,0.9-4.3
		c0.1-0.2,0.1-0.5,0.2-0.7c0.5-6.9,0.1-13.8,1-20.6c0.5-4.6,4.6-9.7-2.4-11.5c-7.6-1-6.8,8.5-6.9,13.6c-1.8,8.8-0.4,18.4-2.3,26.9
		c-0.7,0.9-1.9,0.9-2.6,1.3c-2.2,1.1-4.1,1.4-6,2.5c-0.9,0.5-2,0.8-3.1,1.1c-2.1,0.7-4.2,1.4-6.3,2c-1.2,0.4-2.5,0.9-3.7,1.1
		c-1.2,0.2-1.9-0.4-1.7-1.7c0.2-1.2,0.6-2.4,0.7-3.6c0.3-2.6,0.2-5.3,0.7-7.9c0.5-6,2.7-11.5,3.8-17.5c-0.2-3.9,1.8-7.6-0.9-10.9
		c-3.2-6-9.8,1.9-9.1,6.3c0.4,5.5-3.4,10.4-4.7,15.6c-0.4,4.1-4.3,6.6-4.8,10.8c-0.1,0.4-0.3,0.8-0.5,1.2c-1,2-1.8,4-3,5.8
		c-1.7,2.7-3.6,5.3-5.5,7.9c-0.1,0.2-0.2,0.4-0.3,0.5c-1.2,1.9-0.8,2.5-3.1,5c-0.6,0.7-1.5,2.4-2,3.2c-0.6,1.2-0.6,1.4-1.5,2.2
		c-0.1,0.2-0.3,0.4-0.4,0.5c-0.9,0.9-1.7,1.9-2.6,2.8c-1,1.1-2.1,2.2-3.1,3.3c-0.9,1.1-1.8,2.3-2.7,3.3c-1.2,1.3-3,2.4-3.8,3.9
		c-0.8,1.6-2.1,2.5-3.3,3.6c-2.4,2.2-4.8,4.2-7.2,6.4c-1.2,1.9-2.2,2.8-4.1,3.5c-0.6,0.2-1.2,0.3-1.7,0.6c-3.8,2.1-6.4-0.2-7.8-3.4
		c-0.5-1.2-0.9-2.4-1.3-3.6c-0.4-1.5-1-3.1-0.8-4.6c0.5-3.1,1.4-6.1,2.3-9.1c0.4-1.2,1.2-2.1,1.9-3.2c0.4-0.7,0.8-1.4,1.4-2
		c0.9-0.8,2.1-1.4,2.9-2.2c2.1-2.2,4.2-4.6,6.2-6.9c1-1.2,1.9-2.6,2.7-3.9c0.6-0.9,0.7-2.2,1.4-3c1.4-1.6,3-3,4.5-4.5
		c0.5-0.6,0.8-1.4,1.2-2.1c0.5-0.9,0.9-1.8,1.5-2.6c1.2-1.6,2.9-2.9,3.8-4.7c4-7.9-2.7-15.1-10.7-10.6c0,0-9.2,8.9-11.2,13
		c-2.1,4.1-1.5,3.1-1.5,3.1c-1.8,2.8-2.9,6.1-4.9,8.8c-1.6,2.2-2.9,4.8-3.5,7.4c-1.1,4.5-9.9,11.7-10.9,11.2
		c-1.5-0.8-1.6-1.4-1.9-3.3c-0.2-1.1-0.6-8.9-0.8-10.7c-0.4-3.2-0.6-6.4-1.4-9.5c-1.1-4-1.3-8.3-3.8-11.8c-2.7-3.2-7.4-0.3-8.6,2.9
		c-1,2.3-1.2,4.9-3.2,6.8c-0.7,0.7-0.9,1.8-1.3,2.8c-0.7,1.9-1.3,3.8-2.1,5.7c-0.2,0.5-0.7,1-1.1,1.5c-0.2-0.1-0.4-0.2-0.6-0.2
		c0-1.2,0-2.4,0.1-3.6c0.3-3,0.7-5.9,0.9-8.8c0.1-2-1.1-3.7-2.6-4.7c-1.1-0.8-2.7-1-4.4-0.5c-3,0.8-4.9,4-3.9,6.9
		c0.3,0.9,0.4,2,0.4,3c0,1.5-0.3,2.9-0.3,4.4c0.1,3.5,0.3,7,0.4,10.5c0.1,3.3,0,6.6,0,9.9c0,2.4,0.2,4.8,0.3,7.3
		c0.1,3.5,0.2,7.1,0.2,10.6c0,0.7-0.2,1.4-0.1,2.1c0.3,2.5,0.8,4.9,0.8,7.3c0,1.4,0.4,2.3,1.4,3c1,0.6,2.2,1.3,3.4,1.5
		c0.5,0.1,1.2-0.9,1.8-1.4c1.2-0.8,1.9-2.5,3.6-2.3c1.5,0.2,1.6-0.9,1.7-1.7c0.1-1.7-0.1-3.4-0.2-5.1c-0.1-2-0.4-4-0.6-6
		c-0.3-3.5,1.1-6.6,1.4-10c0.2-1.8,0.7-3.6,0.9-5.5c0.4-3.4,1.2-6.6,2.4-9.8c0.7-1.7,0.8-3.7,1.4-5.4c0.4-1.2,1.3-2.2,2-3.2
		c0.1-0.1,1.1,0.2,1.2,0.5c0.6,1.8,1.2,3.7,1.5,5.6c0.3,1.5,0,3.1,0.2,4.7c0.4,3.9,0.9,7.8,1.4,11.7c0.4,3.2,0.9,6.4,1.3,9.6
		c0.4,3.1,0.7,6.3,1.1,9.4c0,0.3,0,0.5,0,0.8c0,3.1,1.6,5.7,2.5,8.5c0.4,1.1,1.5,2.1,2.6,2.8c2.2,1.5,4.2,1.1,5.4-1.1
		c0.5-0.8,0.7-2.5,0.3-2.9c-1.6-1.2-1.6-3.1-1.6-4.5c0-2.5-0.7-4.9-1.1-7.3c-0.5-3.6-1.1-7.2-1.5-10.8c-0.1-1.2-0.2-2.6,1.2-3.3
		c0.5-0.3,1.4,0.1,2,0.1c1.1-0.2,2,0.2,2.1,1.4c0.2,2.6,0.5,5.2,0.5,7.8c0,2.1-0.2,4.1,1,6c0.9,1.3,1.2,2.9,2,4.2
		c0.6,1,1.3,1.7,2.4,2.6c1.5,1.2,3.2,2.3,5,2.9c1.5,0.5,2.5,0.7,3.9,0.5c1.8-0.2,3.5-0.4,5.3-1.6c0.8-0.5,2-0.9,2.9-1.5
		c2.6-1.8,4.5-4.5,7.3-6.2c2.7-1.6,4.5-4.7,7-6.7c1.4-1.1,1.7-2.8,3-3.9c2.1-1.9,3.6-4.3,5.3-6.6c1.6-2.1,3.1-4.3,4.9-6.4
		c1.9-2.2,4.4-3.9,5.5-6.7c0.1-0.2,0.3-0.4,0.4-0.7c0.5-0.9,0.9-1.7,1.4-2.6c0.2-0.3,0.5-0.6,0.8-0.8c0.3-0.2,0.6-0.3,0.8-0.6
		c0.4-0.6,0.7-1.2,1.1-1.8c0.4-0.7,0.9-1.4,1.3-2.1c0.6-1,1.1-2.1,1.7-3.2c0.3-0.4,0.9-1.4,1.1-1.9c0.6-2.2,3.9-7.2,4-3.7
		c-0.1,0.9-0.4,1.9-0.2,2.8c0.4,1.8-0.2,2.9-1.5,4.2c-1.2,1.2-2.7,2.2-3,4c-0.1,0.5,0.1,2.1,0.9,2.5c0.6,0.3,1.3,1,1.6,1.6
		c0.6,0.9,1.4,1.9,1.4,2.9c0.1,3.6-0.1,7.2-0.1,10.8c0.1,4,0.2,8.1,0.5,12.1c0.3,4.1,0.7,8.3,1.3,12.4c0.3,1.6,1.3,3.2,2.1,4.7
		c0.4,0.8,1.3,1.3,1.9,1.9c1.4,1.3,4.7,0.6,5.3-1c0.3-0.8,0.7-1.6,1-2.4c0.5-1.7-1.7-4.4-1.7-4.4c-1.8-1.9-1.8-3.7-1-5.8
		c0.3-0.9,0.3-1.6-0.2-2.6c-0.6-1.4-0.7-2.9-0.9-4.5c-0.2-1.3-0.2-2.6-0.3-3.9c0-1.7-0.2-3.4-0.1-5.1c0.2-3.2,0.9-6.4,0.1-9.6
		c-0.5-1.9,0.4-4.4,1.8-5.7c2.7-2.4,6.2-3.2,9.3-5c1.3-0.8,2.9-1.3,4.4-2.1c1.7-0.9,3.4-1.7,5.2-2.3c2.4-0.8,3.4-0.4,3.9,1.7
		c0.1,0.3,0.1,0.8,0.1,1c-0.1,1.2-0.6,2.4-0.5,3.5c0.4,2.9,0.4,5.9,0.2,8.8c-0.2,3,0,6,0.4,8.9c0.4,3.3-0.4,6.7,0.8,9.8
		c0,0.1,0,0.2,0,0.2c-0.5,3.2-1,6.4-0.2,9.6c0,0.2,0,0.3,0,0.5c0.1,3.4,0.2,6.8,0.3,10.2c0,1.3,0.1,2.5,0,3.8
		c-0.1,1.3-0.6,2.6-0.3,3.8c0.3,1.1,1.1,2.4,2,2.9c1.1,0.6,2.6,0.5,3.9,0.5c0.4,0,0.8-0.3,0.8-0.7c0.4-2.3,0.5-4.6,0.8-6.9
		c0.1-0.7,0.2-1.4,0.2-2.1c0.1-1,0.3-2,0.2-3c-0.1-1.7-0.5-3.5-0.6-5.2c0-0.9,0.1-1.6-0.3-2.6c-0.4-0.9,0.2-2.1,0.2-3.2
		c-0.1-3.7-0.4-7.3-0.6-11c0-0.4,0.1-0.9,0.1-1.3c0-1.9,0.1-3.7,0.1-5.6c0-3,0-6-0.2-9c-0.2-2.3,0.6-5.3,0.2-7.9
		c-0.3-2.1,0.2-3.6,0.7-5.8c0.1-0.3,0.3-0.8,0.2-1.1c-0.5-2.1,0.4-3.8,2-4.6c1.8-0.9,3.5-2.2,5.8-2.5c1.4-0.2,2.8-0.6,4.1-1.1
		c2.7-1.1,5.3-2.3,8.4-1.8c0.4,0.1,1-0.1,1.4-0.3c6-2.5,13-1.3,18.9-3.5c2.5-0.2,5.8,0.1,8.1-1c5.8-2.5,12.2-0.9,18.3-2.1
		c1.1-0.2,1.5,0.5,1,1.4c-1.1,2.1-2.3,4.1-3.5,6.1c-2.1,3.8-4.3,7.5-6.4,11.3c-1.7,3-3.8,5.8-5.1,8.9c-1.7,4-4.5,7.3-6,11.4
		c-1.1,3.1-3.1,5.8-4.7,8.7c-1,1.9-1.8,3.8-2.7,5.8c-0.5,1.1-0.9,2.2-1.2,3.4c-0.4,1.6-0.5,3.3-1.1,4.9c-0.6,1.6-0.9,3,0.1,4.5
		c0.5,0.8,1.4,1.3,1.9,2.1c1.1,1.5,3.4,1.5,4.6,0.2c0.8-0.8,1.8-1.4,2.8-2c0.6-0.4,1.3-0.7,2-1c0.4-0.2,0.9-0.4,1-0.4
		c0.6-1.1,1.2-2,1.7-2.9c0.2-0.3,0.4-0.9,0.5-1.2c1.2-3.5,3.1-6.6,5.1-9.6c1-1.5,1.7-3.1,2.6-4.6c0.8-1.4,1.8-2.6,2.4-4.1
		c1-2.3,1-5.2,3.3-6.9c0.1-0.1,0.3-0.3,0.3-0.4c0-2.6,1.8-4.2,3.2-6c0.4-0.5,0.7-1.1,0.8-1.6c0.1-1,0.2-2.1,0.6-3
		c1.8-3.5,5.3-5.2,6.5-9.8c0.5,1,0.9,1.5,0.9,2c0.2,1.4,0.3,2.9,0.5,4.4c0.5,4.6,1,9.2,1.4,13.8c0,0,0,0,0,0.1
		c0.9,4.5,1.7,9.1,2.7,13.6c0.8,3.5,1.8,6.9,2.7,10.3c0.7,2.7,1.4,5.5,2.2,8.2c0.4,1.2,0.6,2.7,1.4,3.6c1.6,1.8,3.6,3.2,5.4,4.8
		c1,0.9,1.9,1.2,3,0.2C831.1,224,831.8,222,830.9,221.1z M780.9,202.4c-1.9,1.2,1.7-8,7.1-18.6c1-2,3.1-4.8,4.2-6.7
		c5.2-9.4,9.6-18.1,9.6-18.1C803.3,160.5,780.9,202.4,780.9,202.4z"/>
	<path class="st0" d="M569,213c-1.2,0.2-2.5,0-2.8-1.3c-0.5-1.9-0.9-3.9-1-5.8c-0.1-2.7,0.1-5.4,0.2-8.1c0-1.7,0.1-3.4,0.1-5.1
		c0.3-2.6-0.6-4.5-0.3-6.9c0.5-5.1,0.7-10.3,1.3-15.4c0.8-6.1,0.7-12.3,2.2-18.3c1.6-8.4,2.5-18.5-8.7-10.5
		c-1.7,0.8-3.3-1.6-4.7-1.6c-10.1,1.5-18.2,8.9-27.9,11.9c-3.8,1.2-6.6,4.2-10.4,5.8c-3.8,1.6-7.2,4.3-10.8,6.4
		c-2.3,1.3-5,1.9-7.2,3.7c-1.4,1.2-3.1,2.4-5,3.1c-2.3,0.9-4.5,2.2-6.7,3.5c-1.4,0.9-2.9,1.3-4.4,2c-2.4,1-4.5,2.8-6.9,3.5
		c-1.9,0.5-3.7,1.3-5.5,1.9c-0.4,0.1-0.8,0.2-1.1,0.1c-0.7-0.3-1.9-0.9-1.9-1.2c0.1-1.4,0.2-3,1-4c1.6-1.9,3.7-3.3,5.7-4.9
		c1.9-1.6,3.8-3.1,5.7-4.7c0.5-0.4,1.1-0.5,1.5-0.9c2.4-2.1,4.7-4.3,7.1-6.4c0.8-0.7,1.7-1.1,2.5-1.8c2-1.7,4.9-1.9,6.6-4.2
		c14.4-10.7,96.1-61.2,53.4-75.7c-38.2-13.5-88.6,4.8-124.2,20.4c-1.5,1.1-3.4,1.6-5.2,2.3c-1.3,0.5-2.6,0.9-4,1.3
		c-0.5,0.2-1,0.3-1.5,0.5c-1.4,0.3-3,0.5-4.3,1.1c-1.4,0.7-2.7,1.7-3.7,2.4c-0.8,2.3,0.2,3.6,1.6,4.7c0.5,0.4,1.1,0.9,1.6,1.2
		c0.7,0.5,1.5,1.2,2.2,1.2c2.7,0,5.3-1.1,7.4-2.6c2-1.4,4.1-2.4,6.5-3c6.7-5.3,15.4-8.1,23.4-11.3c0.1,0.1,0.2,0.2,0.3,0.4
		c5.8-4.4,14.8-4.5,21.5-7.7c10.8-2.4,21.6-7,32.5-6.6c9.2-3.2,11.1-2,19.8-1.4c10-0.1,23.1,1.8,29.7,9.5
		c-0.2,10.8-11,17.2-17.3,24.7c-14.8,14.4-33,24.7-49.4,37.2c-2.2,1.5-4.7,2.7-6.8,4.3c-3.4,2.5-6.6,5.3-9.8,7.9
		c-0.4,0.3-0.8,0.7-1.2,0.8c-0.6,0.1-1.3,0.1-1.8-0.2c-0.3-0.1-0.4-0.8-0.3-1.3c0.1-1.2,0.5-2.4,0.6-3.5c0.2-1.8,0.5-3.6,0.6-5.4
		c0-11.1,0.5-22.2,2.9-33c0.7-2.7,4.3-15.7,1.8-16.9c-2.2-2.1-4-4.1-7.1-2.8c-4.7,1.2-2.1,8.1-2.6,11.7c-0.9,13.2-1.7,26.4-2.6,39.6
		c0,1.4,0.2,2.9,0.1,4.3c-0.2,3.7-0.3,7.3-0.6,11c-0.2,2,0,4.2-1.4,6c-0.8,1.1-1.7,2.1-2.5,3.1c-0.6,0.8-1.5,1.4-1.9,2.3
		c-1.2,2.5,0.1,5.2,2.7,6.9c1.3,0.8,2.7,2.3,2.9,3.6c0.4,2.6,0.1,5.2,0,7.9c0,2-0.2,3.9-0.1,5.9c0.1,1.9,0.7,3.8,0.8,5.8
		c0.2,2.5,0.4,5.1,0.3,7.6c-0.1,3.7,1.2,7.1,1.5,10.7c0.2,2.6,0.6,5.2,0.4,7.7c-0.2,2.1-1.3,4,1.7,4.9c1.1,0.3,1.9,1.4,3,1.8
		c0.5,0.2,1.3-0.1,1.8-0.5c1.3-1,1.6-2.4,1.3-4c-0.3-1.8-0.7-3.6-0.9-5.5c-0.3-3.3-0.5-6.7-0.8-10c-0.3-2.6-0.7-5.1-1.1-7.7
		c-0.3-2.5-0.8-4.9-1-7.4c-0.3-3.1-0.3-6.2-0.5-9.3c0-0.3-0.2-0.6-0.1-0.8c1.1-1.5,0.6-3.2,0.5-4.9c0-1,0.1-1.9,0.8-2.9
		c0.8-1.2,1.8-0.7,2.7-1c3.3-1.5,6.6-3,9.9-4.4c2.6-1.1,5.4-1.6,7.8-3.3c1.5-1,3.2-1.7,4.9-2.6c0.8-0.5,1.6-1.1,2.5-1.5
		c3.5-2,7.2-3.6,10.5-5.9c3.2-2.2,6.6-4,10-5.9c1.5-0.8,3.1-1.4,4.6-2.3c2.1-1.1,4.1-2.3,6.1-3.5c0.9-0.5,1.9-1,2.9-1.5
		c2-0.9,4-1.8,6-2.8c2.2-1,4.5-2,7-3.2c-0.3,1.3-0.2,2.6-0.7,3.5c-1.3,2-2.8,3.9-4.3,5.7c-0.6,0.8-1.5,1.4-2.1,2.1
		c-1.2,1.4-2.4,2.9-3.6,4.4c-1.9,2.3-3.8,4.6-5.7,7c-0.7,0.8-2,2.3-2.6,3.2c-1.3,1.9-2.6,3.9-3.8,5.9c-1.1,1.7-1.9,3.6-3.1,5
		c-1.6,1.9-3.3,3.7-4.7,5.9c-1.6,2.5-3.6,4.8-5.5,7.3c-1.3,1.7-2.5,3.5-3.8,5.2c-0.5,0.7-1.2,1.3-1.6,2.1c-0.3,0.6-0.2,1.5-0.5,2.1
		c-0.7,1.3-1.7,2.5-2.5,3.7c-0.9,1.5-1.8,2.9-1.6,4.8c0.2,2.2,0.8,3.5,2.7,4.2c1.7,0.7,4.5,0,5.6-1.2c0.3-0.3,0.8-0.4,1.2-0.6
		c0.4-0.2,0.9-0.3,1.3-0.6c2.4-2.2,4.8-4.4,7.1-6.6c1-0.9,1.8-2.1,2.6-3.1c0.7-0.8,1.5-1.5,2.1-2.3c1.3-1.9,2.5-4,3.8-5.9
		c1.2-1.7,3.1-3.1,3.8-5c1.2-2.9,3.6-4.5,5.5-6.6c0.9-0.9,1.7-1.8,2.2-3c0.2-0.5,0.4-1,0.7-1.4c1.1-1.4,2.7-2.7,3.4-4.3
		c0.7-1.4,1.5-2.6,2.4-3.8c1.1-1.7,2.2-3.4,3.3-5.1c2.1-3.1,4.2-6.1,6.3-9.2c1-1.4,2-2.7,3-4c1.1-1.4,2.4-2.6,3.6-3.9
		c0.2,0,0.3,0,0.5,0c-0.1,1.4-0.3,2.9-0.4,4.3c-0.2,3.3-0.3,6.6-0.4,9.8c-0.1,1.7-0.1,3.4-0.3,5.1c-0.3,3.1-0.9,6.2-0.9,9.3
		c-0.1,4.2,0.2,8.4,0.4,12.6c0.1,2.7,0.3,5.4,0.6,8.1c0.2,2.4,0.4,4.7,0.7,7c0.2,1.5,0.7,3,1,4.5c0.3,1.3,0.8,2.7,1,4
		c0.2,1.6,2.5,5,4,5.3c0.8,0.2,1.7-0.2,2.6-0.4c0.6-0.2,1-0.6,1.5-0.9c1.6-1.2,2.8-2.6,2.9-4.7c0.1-1.9,0.4-3.8,0.7-5.6
		C572.1,214.4,570.5,212.8,569,213z M506.4,215.7c-5.9,2.3,39.6-53.9,39.6-53.9C547.6,164.4,506.4,215.7,506.4,215.7z"/>
	<path class="st0" d="M565.5,192.6C565.8,192.5,565.7,192.5,565.5,192.6L565.5,192.6z"/>
	<path class="st0" d="M356.2,156.1c-1.8,7-7,12.6-8.8,19.5c-2.8,10.8-5.1,22.5-2.9,33.6c1.3,14,13.6,19,23.3,7.5
		c4.9-3.2,6.5-9.2,9.4-13.8c2.6-2.6,3.1-6.1,4.1-9.4c2.5-6,4.8-12,5-18.5c1.1-5.6,0.5-12-0.9-17.4
		C378.7,149.4,362.3,144.6,356.2,156.1z M368.1,203.8c-6.7,9-11,16.3-15.4,0.9c-0.8-14.2,1.7-29.6,13.2-39.4
		c5.2-6.2-1.3-11.3,10.6-6C386.4,170.2,374.3,193.1,368.1,203.8z"/>
	<path class="st0" d="M304.9,115.8c1,0.7,1.8,1.9,2.9,2.1c2.1,0.4,4.1,0.8,6,1.9c1,0.6,2,1.1,3,1.6c1.6,0.7,2.9,0.1,3-1.8
		c0-0.1-0.2-0.7-0.5-1.1c-0.7-0.9-1.6-1.6-2.2-2.5c-0.7-1.2-1.1-2.5-1.8-3.7c-0.7-1.3-1.4-2.9-2.6-3.5c-2-0.9-4.2-1.8-6.6-1.1
		c-1.3,0.4-3.5,3-3.2,4.3C303.4,113.3,303.5,114.9,304.9,115.8z"/>
</g>
</svg>
